<svg xmlns="http://www.w3.org/2000/svg" viewBox="0 0 300 101.94"><path d="M253.08,16.92C237.43-.34,136.78,15.19,94,24.53l-1,.22a.38.38,0,0,0-.3.43.37.37,0,0,0,.43.31l1-.19C129.56,19,203.31,10.24,219.18,26c4.84,4.8,3.69,11-1.93,18.28a14.48,14.48,0,0,1,6.15,8.83C245.32,38.5,260,24.6,253.08,16.92M187.94,69.65l0,0c-9.92,7-21.68,14.4-34.33,22.15l-.5.29a.38.38,0,0,0-.09.53.37.37,0,0,0,.52.09l.42-.22c10.72-5.6,23-12.24,35.44-19.06l.2-.11a15.53,15.53,0,0,1-1.64-3.69" /><path d="M189.14,64.79c-.36-10.36,7.76-21,19.55-21,7.88,0,13,5.26,13.33,13.3.38,10.93-7.2,21-19.55,21-7.89,0-13-5.24-13.34-13.3m5.13.33c.2,6.07,4,11,9.06,11,9.71,0,13.84-11.92,13.55-19.88-.21-6.09-4.15-11.05-9.15-11.05-8.35,0-13.74,11.87-13.46,19.89" /><path d="M87.7,55.68a25.4,25.4,0,0,1-.47,3.24l-1.73,9.73a1.8,1.8,0,0,0,1,2l-.06.38H76.5l-.09-2.48a19.76,19.76,0,0,1-4.77,2,17.44,17.44,0,0,1-4.76.58c-3.21,0-5-.33-6.31-1.44s-1.92-1.91-1.85-3.48a5.42,5.42,0,0,1,1.2-2.89,7.33,7.33,0,0,1,2.64-1.85,14.1,14.1,0,0,1,4-1.12c1.75-.29,4.2-.57,7.48-.85a10.94,10.94,0,0,0,3.26-.73c.68-.27,1-.56,1.05-1.12.18-1-.14-1.57-1.46-1.84-3.58-.7-10.28.46-13.74,1.32L65,52.11A90.71,90.71,0,0,1,78.34,51c7.14,0,9.43,2,9.37,4.66M77.45,62.05a11.9,11.9,0,0,1-1.64.46c-.67.15-1.9.37-3.69.65a6.45,6.45,0,0,0-2.57.8,1.92,1.92,0,0,0-.81,1.26,1.22,1.22,0,0,0,.54,1.3,4.3,4.3,0,0,0,2.38.5,7.87,7.87,0,0,0,2.45-.39,6,6,0,0,0,2-1.06A3.25,3.25,0,0,0,77,64.31a19,19,0,0,0,.48-2.25" /><path d="M120.45,47.09c.29-1.6,2.81-2.9,5.62-2.9s4.89,1.3,4.61,2.9S127.88,50,125,50s-4.88-1.3-4.59-2.9m-4,24,3.44-19.45h9.5L126,71Z" /><path d="M173.44,55.72A23.56,23.56,0,0,1,173,59l-1.72,9.74a1.82,1.82,0,0,0,1,2l-.06.34-9.92,0-.08-2.48a19.51,19.51,0,0,1-4.77,2,17,17,0,0,1-4.77.59c-3.2,0-5-.32-6.3-1.44s-1.92-1.91-1.85-3.48a5.2,5.2,0,0,1,1.2-2.89,7.22,7.22,0,0,1,2.65-1.85,14.79,14.79,0,0,1,4-1.13c1.76-.27,4.22-.57,7.49-.84a11.31,11.31,0,0,0,3.25-.72c.69-.27,1-.57,1.07-1.13.18-1-.13-1.57-1.45-1.83-3.6-.71-10.28.45-13.74,1.31l1.87-5.06a90.21,90.21,0,0,1,13.33-1.1c7.14,0,9.42,2.05,9.36,4.66M163.2,62.1a15.85,15.85,0,0,1-1.65.46c-.66.16-1.9.36-3.69.65a6.24,6.24,0,0,0-2.56.8,2,2,0,0,0-.83,1.25,1.24,1.24,0,0,0,.54,1.29,4.34,4.34,0,0,0,2.39.49,8,8,0,0,0,2.44-.38,5.91,5.91,0,0,0,2-1.06,3.3,3.3,0,0,0,.85-1.26,16.13,16.13,0,0,0,.5-2.24" /><path d="M57.42,64.05a34.74,34.74,0,0,1-7.9.85c-4.54,0-8.15-2.26-8-6.39.14-2.75,3.4-8.56,11.69-8.56a13.55,13.55,0,0,1,7.39,2l1.21-6.75a22.83,22.83,0,0,0-9.4-1.59c-10.86.12-21.29,5.06-22.59,15.1C28.55,68.93,41,71.5,46.54,71.47c3.2,0,6.52-.14,9.61-.46Z" /><path d="M134.67,51.48l.68-4,9.94-2.16-1.06,6.12h4.87l-.92,3.92h-4.72L140.59,71S131,71,131,71l2.86-15.6h-3.62l.74-3.94Z" /><polygon points="183.09 71.03 173.41 71.04 178.28 43.91 187.71 44.17 183.09 71.03" /><path d="M86.6,77.76l4.63-26.07h8.35L98.93,55a7.93,7.93,0,0,1,3.48-2.48,14.2,14.2,0,0,1,5.39-1.15,10,10,0,0,1,5.15,1A6.89,6.89,0,0,1,116.32,56a9.71,9.71,0,0,1,.42,5.29A11.5,11.5,0,0,1,112,69c-2.55,1.86-4.84,2.35-8.12,2.36A12.3,12.3,0,0,1,101,71a6.66,6.66,0,0,1-1.89-.76,8.81,8.81,0,0,1-1.56-1.41L96,77.76Zm17.31-21.61a5.49,5.49,0,0,0-3.38,1.14,5.08,5.08,0,0,0-1.88,3.33c-.3,1.69-.12,2.91.55,3.67a3.77,3.77,0,0,0,2.94,1.12,5.64,5.64,0,0,0,2.42-.48,4.75,4.75,0,0,0,1.87-1.6,6.41,6.41,0,0,0,1-2.57,3.84,3.84,0,0,0-.67-3.44,3.65,3.65,0,0,0-2.89-1.16" /><path d="M260,70.51l.75.51c-1.9,3.87-5.78,7-10.33,7-3.72,0-6.77-2.48-6.93-7.13-.3-8.34,7.5-16.08,13.9-16.08,2.74,0,5.28,1.2,5.4,4.15.24,6.63-9.07,8.65-15.2,8.79a7.31,7.31,0,0,0-.24,2.45,4.88,4.88,0,0,0,5.2,5.06c3,0,5.94-2.39,7.44-4.75m-.84-12c-.06-1.57-.84-2.62-2.46-2.62-3.9,0-8,7.64-8.76,10.72,6.4,0,11.38-3.81,11.22-8.1" /><path d="M221.88,58.32c.66-.08,1.72-.2,2.18-.2.7,0,1.35.13,1.39.83,0,.41-.73,3.36-.88,4l-1.49,6.54c-.6,2.67-1.25,5.48-1.82,7.69h3.81l2.14-10.35c6.53-6.81,9-9,10.59-9A1.1,1.1,0,0,1,239,59a20.21,20.21,0,0,1-1,4.7l-2.18,7.55a15.68,15.68,0,0,0-.83,4.33A2.28,2.28,0,0,0,237.59,78c2.78,0,4.81-2.9,6.57-5.75l-.52-.94C242.93,72.46,241.28,75,240,75c-.41,0-.8-.28-.81-1a11.31,11.31,0,0,1,.59-3.08l2.43-8.85a21.74,21.74,0,0,0,.95-4.84,2.27,2.27,0,0,0-2.5-2.42c-2.5,0-5.84,1.83-12.88,9.94h-.1l.89-4c.48-2.17,1-4.42,1.41-6a63.67,63.67,0,0,1-8.09,2.28Z" /><path d="M263.89,54.36a1,1,0,0,0,.13.49.9.9,0,0,0,.81.35,1.41,1.41,0,0,0,.48-.08.55.55,0,0,0,.41-.54.46.46,0,0,0-.18-.41A1.77,1.77,0,0,0,265,54l-.46-.1a2.07,2.07,0,0,1-.64-.24.75.75,0,0,1-.32-.66,1,1,0,0,1,.32-.78,1.26,1.26,0,0,1,.91-.31,1.55,1.55,0,0,1,.92.27,1,1,0,0,1,.37.85h-.45a.87.87,0,0,0-.15-.43.84.84,0,0,0-.71-.28.79.79,0,0,0-.58.18.55.55,0,0,0-.18.42.4.4,0,0,0,.21.37,2.63,2.63,0,0,0,.62.19l.48.11a1.49,1.49,0,0,1,.54.23.85.85,0,0,1,.32.72.9.9,0,0,1-.42.84,1.78,1.78,0,0,1-1,.25,1.41,1.41,0,0,1-1-.34,1.13,1.13,0,0,1-.36-.91Z" /><path d="M266.85,52h.69l1,3,1-3h.68V55.5h-.46V53.41c0-.07,0-.19,0-.36s0-.35,0-.54l-1,3h-.47l-1-3v.11c0,.09,0,.22,0,.4s0,.3,0,.39V55.5h-.46Z" /></svg>
