<?xml version="1.0" encoding="utf-8"?>
<!-- Generator: Adobe Illustrator 21.1.0, SVG Export Plug-In . SVG Version: 6.00 Build 0)  -->
<svg version="1.1" id="Layer_1" xmlns="http://www.w3.org/2000/svg" xmlns:xlink="http://www.w3.org/1999/xlink" x="0px" y="0px"
	 viewBox="0 0 100 100" style="enable-background:new 0 0 100 100;" xml:space="preserve">
<g>
	<g>
		<g>
			<g>
				<path d="M55.5,36.7c0.2,0.3,0.4,0.4,0.7,0.4c0.1,0,0.3,0,0.4-0.1c0.4-0.2,0.5-0.7,0.3-1.1l-4.3-7.6c-0.2-0.4-0.7-0.5-1.1-0.3
					c-0.4,0.2-0.5,0.7-0.3,1.1L55.5,36.7z"/>
				<path d="M62.7,37.5c0.3,0,0.5-0.1,0.7-0.4l5.5-8c0.3-0.4,0.2-0.9-0.2-1.2c-0.4-0.3-0.9-0.2-1.2,0.2l-5.5,8
					c-0.3,0.4-0.2,0.9,0.2,1.2C62.4,37.4,62.6,37.5,62.7,37.5z"/>
				<path d="M59.8,34.5c0.5,0,0.8-0.4,0.8-0.8v-8.2c0-0.5-0.4-0.8-0.8-0.8c-0.5,0-0.8,0.4-0.8,0.8v8.2
					C58.9,34.1,59.3,34.5,59.8,34.5z"/>
				<path d="M83.6,37.9l-43.3,0c-0.1,0-0.1,0-0.2,0c-0.1,0-0.2,0-0.3,0c0,0-0.1,0-0.1,0c-8.1,0-15.3,5.2-17.9,12.8
					c-0.6-0.2-1.3-0.3-2-0.3c-3.5,0-6.3,2.8-6.3,6.3c0,3.5,2.8,6.3,6.3,6.3c0.7,0,1.3-0.1,2-0.3c2.6,7.6,9.7,12.8,17.9,12.8
					C47.2,75.3,54,70.9,57,64c0,0,0.1-0.2,0.1-0.2c1.9-5,5.3-8.7,10.4-11.2c4.1-2,9.4-2.9,16-2.9c1.5,0,2.8-1.3,2.8-2.8v-6.2
					C86.4,39.2,85.1,37.9,83.6,37.9z M84.4,46.8c0,0.3-0.4,0.7-0.8,0.7c-7,0-12.5,1-17,3.1c-5.5,2.7-9.4,6.9-11.5,12.3
					c0,0-0.1,0.1-0.1,0.2c-2.7,6.1-8.7,10.1-15.4,10.1c-7.6,0-14.3-5.1-16.2-12.4c-0.1-0.3-0.3-0.6-0.6-0.7
					c-0.1-0.1-0.3-0.1-0.4-0.1c-0.2,0-0.4,0-0.5,0.1c-0.7,0.4-1.4,0.6-2.1,0.6c-2.3,0-4.2-1.9-4.2-4.2c0-2.3,1.9-4.2,4.2-4.2
					c0.7,0,1.5,0.2,2.1,0.6c0.3,0.2,0.6,0.2,0.9,0.1c0.3-0.1,0.5-0.4,0.6-0.7c2-7.3,8.6-12.4,16.2-12.4c0,0,0.1,0,0.1,0
					c0,0,0,0,0.1,0c0.1,0,0.1,0,0.2,0c0.1,0,0.2,0,0.3,0h43.3c0.4,0,0.8,0.4,0.8,0.7V46.8z"/>
				<path d="M60.4,42.6h-1.2c-0.6,0-1,0.5-1,1v1.9c0,0.6,0.5,1,1,1h1.2c0.6,0,1-0.5,1-1v-1.9C61.5,43.1,61,42.6,60.4,42.6z"/>
				<path d="M19.8,53.8c-1.5,0-2.7,1.2-2.7,2.8c0,1.5,1.2,2.7,2.7,2.7c1.5,0,2.8-1.2,2.8-2.7C22.6,55.1,21.4,53.8,19.8,53.8z
					 M19.8,57.3c-0.4,0-0.7-0.3-0.7-0.7c0-0.4,0.3-0.7,0.7-0.7c0.4,0,0.7,0.3,0.7,0.7C20.6,57,20.2,57.3,19.8,57.3z"/>
				<path d="M39.7,48.7c-4.4,0-8,3.5-8,7.9c0,4.4,3.5,7.9,8,7.9c4.4,0,7.9-3.5,7.9-7.9C47.6,52.2,44.1,48.7,39.7,48.7z"/>
			</g>
		</g>
	</g>
</g>
</svg>
