<svg xmlns="http://www.w3.org/2000/svg" xmlns:xlink="http://www.w3.org/1999/xlink" x="0px" y="0px" style="enable-background:new 0 0 1549.1 796.8" version="1.1" viewBox="0 0 1549.1 796.8" xml:space="preserve">
    <polygon id="polygon" points="521.6,227.3 521.6,519.9 775,666.1 1028.3,519.9 
	1028.3,227.3 775,81.1 " style="fill:none;stroke:#FDED22;stroke-miterlimit:10"/>
    <path d="M869.2,402.7v-27h-91.9v-20.3h40.6v-70.1h-86.4v70.1h40.3v20.3H680v27h-27.7v59.4h59.5v-59.4h-26.4
	v-21.6h86.4v21.6h-27.1v59.4h59.4v-59.4h-26.9v-21.6h86.4v21.6h-26.5v59.4h59.4v-59.4H869.2z" style="fill:#FDED22"/>
    <path d="M769.2,311.3h7.2v7.2h-7.2V311.3z M769.2,332.8h7.2v7.2h-7.2V332.8z"/>
    <path d="M753.8,340.4c-6.6,0-10.8-1.8-10.8-1.8l1.1-3.9c0,0,4.6,1.2,9.4,1.2c4.6,0,6.5-1.6,6.5-4.3c0-3.7-2.1-3.4-7-3.8
	c-5.8-0.4-10.6,0.1-10.6-7.9c0-7.3,3.9-9.1,11.5-9.1c5.3,0,9.2,1.3,9.2,1.3l-1,4c0,0-3.5-0.7-8.1-0.7c-4.9,0-6.7,0.8-6.7,4.1
	c0,3.6,1.1,4.3,7.1,4.3c6.4,0,10.5-0.2,10.5,7.7C765.1,338.7,760.5,340.4,753.8,340.4"/>
    <path d="M804.1,340.3c-3.4,0-3.9-3.3-3.9-3.3l-5.9,3.3c0,0-0.4,0-3.1,0c-10.2,0-11.5-6-11.5-14.6c0-8.3,1.5-15,10.9-15
	c2.6,0,3.6,0.4,5.5,0.6l4,2.9V299h5.3v36.2l1.2,0.8v4.1h-2.5V340.3z M800,316c-0.7-0.1-4.4-0.4-7.5-0.4c-6.1,0-7.3,2.7-7.3,10.5
	c0,8.6,1.4,9.9,7.4,9.9c3.6,0,7.4-0.7,7.4-0.7V316z"/>
    <text transform="matrix(1 0 0 1 591.0756 42.5523)">
        <tspan x="0" y="0" style="fill:#FFFFFF;font-family:'Titillium Web', sans-serif; font-weight: 600;font-size:55.6746px">1: </tspan><tspan x="57.7" y="0" style="fill:#FDED22;font-family:'Titillium Web', sans-serif; font-weight: 600;font-size:55.6746px">engagement</tspan>
    </text>
    <text transform="matrix(1 0 0 1 1039.1746 237.5421)">
        <tspan x="0" y="0" style="fill:#FFFFFF;font-family:'Titillium Web', sans-serif; font-weight: 600;font-size:55.6746px">2: </tspan><tspan x="57.7" y="0" style="fill:#FDED22;font-family:'Titillium Web', sans-serif; font-weight: 600;font-size:55.6746px">deep engagement</tspan>
    </text>
    <text transform="matrix(1 0 0 1 1039.1746 563.0258)">
        <tspan x="0" y="0" style="fill:#FFFFFF;font-family:'Titillium Web', sans-serif; font-weight: 600;font-size:55.6746px">3: </tspan><tspan x="57.7" y="0" style="fill:#FDED22;font-family:'Titillium Web', sans-serif; font-weight: 600;font-size:55.6746px">purchase intent</tspan>
    </text>
    <text transform="matrix(1 0 0 1 198.2161 237.5422)">
        <tspan x="0" y="0" style="fill:#FFFFFF;font-family:'Titillium Web', sans-serif; font-weight: 600;font-size:55.6746px">6: </tspan><tspan x="57.7" y="0" style="fill:#FDED22;font-family:'Titillium Web', sans-serif; font-weight: 600;font-size:55.6746px">event visit</tspan>
    </text>
    <text transform="matrix(1 0 0 1 1.2234 560.0231)">
        <tspan x="0" y="0" style="fill:#FFFFFF;font-family:'Titillium Web', sans-serif; font-weight: 600;font-size:55.6746px">5: </tspan><tspan x="57.7" y="0" style="fill:#FDED22;font-family:'Titillium Web', sans-serif; font-weight: 600;font-size:55.6746px">physical store visit</tspan>
    </text>
    <text transform="matrix(1 0 0 1 537.7529 729.5134)">
        <tspan x="0" y="0" style="fill:#FFFFFF;font-family:'Titillium Web', sans-serif; font-weight: 600;font-size:55.6746px">4: </tspan><tspan x="57.7" y="0" style="fill:#FDED22;font-family:'Titillium Web', sans-serif; font-weight: 600;font-size:55.6746px">purchase channel </tspan><tspan x="115.5" y="53" style="fill:#FDED22;font-family:'Titillium Web', sans-serif; font-weight: 600;font-size:55.6746px">preference</tspan>
    </text>
</svg>
