<?xml version="1.0" encoding="utf-8"?>
<!-- Generator: Adobe Illustrator 22.0.1, SVG Export Plug-In . SVG Version: 6.00 Build 0)  -->
<svg version="1.1" id="Layer_1" xmlns="http://www.w3.org/2000/svg" xmlns:xlink="http://www.w3.org/1999/xlink" x="0px" y="0px"
	 viewBox="0 0 100 100" style="enable-background:new 0 0 100 100;" xml:space="preserve">
<g>
	<polygon style="fill:#FDED22;" points="6.8,25 6.8,74.9 50,99.8 93.2,74.9 93.2,25 50,0 	"/>
</g>
<g>
	<path d="M57.9,73.1c-0.7,0-1.4-0.5-1.6-1.2c-0.3-0.9,0.2-1.8,1.1-2C69,66.5,77.1,55.6,77.1,43.5C77.1,28.3,64.7,16,49.6,16
		c-15.2,0-27.5,12.4-27.5,27.5c0,12.1,8.1,23,19.7,26.4c0.9,0.3,1.4,1.2,1.1,2c-0.3,0.9-1.2,1.4-2,1.1c-13-3.8-22.1-16-22.1-29.6
		c0-17,13.8-30.8,30.8-30.8s30.8,13.8,30.8,30.8c0,13.6-9.1,25.7-22.1,29.6C58.2,73.1,58.1,73.1,57.9,73.1z"/>
</g>
<path d="M70.8,84.4c0-0.2,0-0.3,0-0.5L70,75.3c-0.1-0.9-0.9-1.6-1.8-1.5s-1.6,0.9-1.5,1.8l0.4,5.5L50.5,70c-0.6-0.4-1.3-0.4-1.8,0
	l-10.1,7l-11.9-6.4c-0.8-0.4-1.8-0.1-2.2,0.7C24,72,24.3,73,25.1,73.4l12.8,6.9c0.5,0.3,1.2,0.3,1.7-0.1l10.1-6.9l15.1,9.9L58.7,84
	c-0.9,0.1-1.5,1-1.4,1.9c0.1,0.8,0.8,1.4,1.6,1.4c0.1,0,0.2,0,0.2,0l11.8-1.6L70.8,84.4z"/>
<g>
	<path d="M48.1,49.1l-1.8-21.4c-0.1-0.6,0.1-1.2,0.4-1.6c0.3-0.4,0.8-0.7,1.4-0.7h3.8c0.6,0,1.1,0.2,1.4,0.7c0.4,0.4,0.5,1,0.4,1.6
		l-1.8,21.4c0,0.6-0.2,1-0.6,1.4C50.9,50.8,50.5,51,50,51c-0.5,0-1-0.2-1.3-0.5C48.3,50.1,48.1,49.6,48.1,49.1z M46.2,58.4
		c0-1,0.4-1.9,1.1-2.6c0.7-0.7,1.6-1,2.6-1c1.1,0,2,0.4,2.7,1c0.7,0.7,1,1.6,1,2.6V59c0,1-0.4,1.9-1,2.6c-0.7,0.7-1.6,1-2.7,1
		c-1,0-1.9-0.3-2.6-1c-0.7-0.7-1.1-1.6-1.1-2.6V58.4z"/>
</g>
</svg>
