<?xml version="1.0" encoding="utf-8"?>
<!-- Generator: Adobe Illustrator 22.0.1, SVG Export Plug-In . SVG Version: 6.00 Build 0)  -->
<svg version="1.1" id="Layer_1" xmlns="http://www.w3.org/2000/svg" xmlns:xlink="http://www.w3.org/1999/xlink" x="0px" y="0px"
	 viewBox="0 0 300 101.9" style="enable-background:new 0 0 300 101.9;" xml:space="preserve">
<style type="text/css">
	.st0{fill:#606060;}
</style>
<g>
	<path class="st0" d="M150,16.7c-18.9,0-34.3,15.4-34.3,34.3c0,18.9,15.4,34.3,34.3,34.3c18.9,0,34.3-15.4,34.3-34.3
		C184.3,32,168.9,16.7,150,16.7z M150,84.4c-18.5,0-33.5-15-33.5-33.5c0-18.5,15-33.5,33.5-33.5c18.5,0,33.5,15,33.5,33.5
		C183.5,69.4,168.5,84.4,150,84.4z"/>
	<path class="st0" d="M139.3,49.8l-19.6-1.1L138,66.2c-0.4-4.6-0.1-9.1-0.1-9.1C138,56,139.3,49.8,139.3,49.8z"/>
	<path class="st0" d="M132,46.8l-1.2,0.5c-0.7,0.3-1.4,0-1.4,0c-0.2-0.2-0.8-0.1-0.8-0.1c-0.6,0.3-1.5,0-1.5,0
		c-0.5-0.2-0.7-1.1-0.7-1.1l-4.4,0.1l-2,1.7l19.7,1c0.3-0.6,0.9-3.4,0.9-3.4l-7.8,0.2C132.7,46.5,132,46.8,132,46.8z"/>
	<path class="st0" d="M171.4,45.4c0,0,1,0.3,1.1-1.3c0,0-0.7,0.6-0.9,0.8C171.5,44.9,171.1,45.2,171.4,45.4z"/>
	<path class="st0" d="M171.9,40.4c0,0-1,0-1.1-0.1c0,0,0.7,0.8,0.8,1.1C171.5,41.5,171.8,40.5,171.9,40.4z"/>
	<path class="st0" d="M170.5,45c0,0-0.6,0.4-0.7,0.5C169.8,45.4,170.1,46.4,170.5,45z"/>
	<path class="st0" d="M169.4,45c0,0-0.8,0.3-1,0.3C168.5,45.4,169,46.1,169.4,45z"/>
	<path class="st0" d="M158.1,43.8c0,0-0.6,0-1,0.4c0,0,0,0,0,0.1c0.2,0.1,0.3,0.1,0.5,0.2c0,0,0,0,0,0C157.6,44.4,158,44,158.1,43.8
		z"/>
	<path class="st0" d="M159.8,44.3c0,0-0.7-0.1-1.2,0.3c0,0-0.1,0.1-0.1,0.2c0.1,0.1,0.2,0.1,0.4,0.2c0.1,0,0.2,0,0.3-0.1
		C159.2,44.9,159.6,44.5,159.8,44.3z"/>
	<path class="st0" d="M159.6,45.7c0.3,0.3,0.3,0.6,0.3,0.6c0.3,0.6,0.6,1.6,0.9,2.6l19.3-1.1l-1.7-1.9l-6-0.2c0.3,0.9-1.9,1-1.9,1
		c-1,0.5-2.1-0.2-2.1-0.2c-1.9,0.6-1.9-0.8-1.9-0.8l-6.7-0.4c0,0,0,0,0,0C159.8,45.5,159.7,45.6,159.6,45.7z"/>
	<path class="st0" d="M161.1,49.9c0.5,2,0.9,4,1,4.1c0.1,0.4,0.2,0.9,0.2,1.3c0.1,0.3,0.1,0.6,0.2,0.9c0,0.3,0.1,0.5,0.1,0.6
		c0.5,4.6,0.1,9.3,0,9.4l17.7-17.5L161.1,49.9z"/>
	<path class="st0" d="M150.3,49.5c1.1-0.1,3-0.3,4.8-0.6l-10.6,0C145.9,49.3,147.8,49.5,150.3,49.5z"/>
	<path class="st0" d="M157,56c-0.3-2.2-0.5-3.8-0.6-4.3c-1,0.3-2,0.5-2.8,0.6c0.1,0.5,0.3,2.1,0.5,4.4C154.9,56.5,155.9,56.3,157,56
		z"/>
	<path class="st0" d="M140.5,71.8c-0.3-0.1-0.6-0.3-0.9-0.4c0.6,1.8,1.5,3.8,2.7,5.7c0.1,0,0.2,0.1,0.4,0.2
		C141.7,75.4,141,73.6,140.5,71.8z"/>
	<path class="st0" d="M153.5,56.8c-0.2-2.2-0.4-3.8-0.5-4.4c-1.2,0.2-2.1,0.2-2.6,0.2v4.4C150.9,57.1,152,57,153.5,56.8z"/>
	<path class="st0" d="M159.9,54.9c-0.3-2.1-0.7-3.6-0.9-4.2c-0.7,0.3-1.5,0.6-2.2,0.9c0.1,0.5,0.4,2.1,0.6,4.3
		C158.3,55.6,159.1,55.3,159.9,54.9z"/>
	<path class="st0" d="M149.9,57.1v-4.5c-0.9,0-1.9-0.1-2.7-0.2c-0.1,0.5-0.2,2.2-0.3,4.4C147.8,57,148.8,57.1,149.9,57.1z"/>
	<path class="st0" d="M158.1,47.3c0-0.2-0.1-0.3-0.2-0.5c0,0,0,0,0,0v1.1C158.2,47.7,158.1,47.3,158.1,47.3z"/>
	<path class="st0" d="M143.5,51.5c-0.8-0.3-1.6-0.6-2.2-0.9c-0.2,0.6-0.6,2.1-1,4.2c0.7,0.3,1.5,0.7,2.5,1
		C143.1,53.5,143.4,51.9,143.5,51.5z"/>
	<path class="st0" d="M146.4,56.8c0.1-2.3,0.3-3.9,0.3-4.4c-1-0.2-1.9-0.4-2.8-0.7c-0.1,0.5-0.4,2.1-0.6,4.4
		C144.2,56.3,145.3,56.6,146.4,56.8z"/>
	<path class="st0" d="M157.4,48.3C157.4,48.3,157.4,48.3,157.4,48.3l0-0.1C157.4,48.2,157.4,48.2,157.4,48.3z"/>
	<path class="st0" d="M160.7,67.7c0.4-0.3,0.9-0.5,1.3-0.8c0-0.3,0-0.5,0-0.7c0-0.1,0.4-4.4,0-8.8c-0.3,0.1-0.7,0.3-1.2,0.6
		C161.1,60.8,161.2,64.2,160.7,67.7z"/>
	<path class="st0" d="M155.5,46.2v-0.4c-0.6-0.1-1.2-0.2-1.8-0.3l0,0.3C154.3,46,154.9,46.1,155.5,46.2z"/>
	<path class="st0" d="M157.4,47.7v-1.2c-0.4-0.2-0.9-0.4-1.5-0.5l0,0.4C156.8,46.7,157.4,47.1,157.4,47.7z"/>
	<path class="st0" d="M142.5,59.3c-0.9-0.2-1.8-0.6-2.7-0.9c-0.3,2.8-0.3,6.2,0.3,9.7c0.7,0.4,1.5,0.8,2.6,1.2
		C142.4,65.6,142.4,62.2,142.5,59.3z"/>
	<path class="st0" d="M154.5,70c0.9-0.2,1.9-0.4,3-0.8c0.2-3.5,0.1-7-0.2-10c-0.9,0.3-2,0.5-3,0.7C154.5,63,154.6,66.5,154.5,70z"/>
	<path class="st0" d="M157.9,77.1c0.1-0.1,0.3-0.1,0.5-0.2c0.9-1.5,1.9-3.7,2.6-5.7c-0.2,0.1-0.6,0.3-0.9,0.4
		C159.5,73.5,158.8,75.3,157.9,77.1z"/>
	<path class="st0" d="M146.3,46.1v-0.5c-0.5,0.1-1.1,0.2-1.6,0.3l0,0.5C145.3,46.3,145.8,46.2,146.3,46.1z"/>
	<path class="st0" d="M153.2,45.8v-0.3c-0.7-0.1-1.4-0.1-1.9-0.2l0,0.3C151.8,45.7,152.5,45.8,153.2,45.8z"/>
	<path class="st0" d="M148.3,45.8v-0.4c-0.5,0-1,0.1-1.5,0.1l0,0.4C147.3,46,147.8,45.9,148.3,45.8z"/>
	<path class="st0" d="M150.3,45.7C150.3,45.7,150.3,45.7,150.3,45.7c0.1,0,0.3,0,0.5,0v-0.3c-0.2,0-0.4,0-0.5,0c-0.5,0-1,0-1.4,0.1
		l0,0.4C149.4,45.7,149.9,45.7,150.3,45.7z"/>
	<path class="st0" d="M142.4,46.1l-0.7-0.9c-0.4,0.2-0.7,0.4-0.9,0.6l1,0.6C142,46.3,142.2,46.2,142.4,46.1z"/>
	<path class="st0" d="M146.3,45.2l-0.4-1c-0.5,0.1-1.1,0.2-1.6,0.3l0.5,1C145.2,45.3,145.7,45.2,146.3,45.2z"/>
	<path class="st0" d="M160.4,54.6c0.4-0.2,0.8-0.5,1.1-0.7c-0.1-0.6-0.5-2.3-0.9-4c-0.4,0.2-0.7,0.4-1.1,0.6
		C159.6,51,160,52.5,160.4,54.6z"/>
	<path class="st0" d="M150.3,44.8c0,0,0.3,0,0.6,0l0.3-1c-0.3,0-0.5,0-0.8,0c-0.5,0-1.1,0-1.7,0l0.2,1
		C149.4,44.9,150,44.8,150.3,44.8z"/>
	<path class="st0" d="M142.6,47.9v-1.3c-0.5,0.2-0.8,0.5-0.8,0.7c0,0,0,0.4,0.4,0.6l0,0.1c0.2,0.1,0.3,0.2,0.5,0.3
		C142.6,48.1,142.6,47.9,142.6,47.9L142.6,47.9z"/>
	<path class="st0" d="M144.2,45.5l-0.5-1c-0.6,0.1-1.1,0.3-1.5,0.5l0.7,0.9C143.3,45.7,143.7,45.6,144.2,45.5z"/>
	<path class="st0" d="M148.3,44.9l-0.2-1c-0.6,0-1.2,0.1-1.8,0.2l0.4,1C147.3,45,147.8,45,148.3,44.9z"/>
	<path class="st0" d="M141.1,72c0.5,1.8,1.3,3.6,2.3,5.4l-0.1,0.1c0.3,0.1,0.7,0.3,1.2,0.4c-0.5-1.7-0.9-3.4-1.2-5.1
		C142.5,72.6,141.8,72.3,141.1,72z"/>
	<path class="st0" d="M157.6,46l0.8-0.7c-0.4-0.2-0.9-0.5-1.6-0.7l-0.7,0.9C156.7,45.7,157.2,45.8,157.6,46z"/>
	<path class="st0" d="M153.3,45l0.5-1c-0.6-0.1-1.4-0.1-2.2-0.2l-0.3,1C151.9,44.9,152.6,45,153.3,45z"/>
	<path class="st0" d="M155.6,45.4l0.7-0.9c-0.6-0.1-1.2-0.3-2-0.4l-0.5,1C154.4,45.2,155.1,45.3,155.6,45.4z"/>
	<path class="st0" d="M158.3,46.5c0,0,0.1,0.1,0.1,0.1l1.1-0.3c-0.1-0.1-0.2-0.4-0.6-0.7l-0.8,0.7C158.1,46.4,158.2,46.4,158.3,46.5
		z"/>
	<path class="st0" d="M147,73.6c0.1,1.7,0.3,3.3,0.6,4.9c0.7,0.1,1.5,0.1,2.3,0.1v-4.8C149.5,73.8,148.4,73.7,147,73.6z"/>
	<path class="st0" d="M141.3,47.4C141.3,47.3,141.3,47.3,141.3,47.4c0-0.3,0.1-0.4,0.2-0.6l-0.9-0.6c0,0.1-0.1,0.1-0.1,0.2l0,0
		C140.5,46.4,140.7,46.8,141.3,47.4z"/>
	<path class="st0" d="M143.8,72.9c0.3,1.7,0.7,3.3,1.2,5l-0.1,0c0.7,0.2,1.4,0.3,2.3,0.4c-0.3-1.6-0.5-3.3-0.6-4.9
		C145.7,73.4,144.7,73.2,143.8,72.9z"/>
	<path class="st0" d="M150.4,73.8v4.8c0.4,0,1.4,0,2.7-0.2c0.3-1.5,0.6-3.2,0.7-5C152.8,73.6,151.6,73.7,150.4,73.8z"/>
	<path class="st0" d="M139.4,58.1c-0.4-0.2-0.7-0.4-1.1-0.6c-0.2,2.4-0.4,5.8,0,8.6c0,0,0,0.3,0.1,0.8c0,0,0.4,0.3,1.2,0.8
		C139.1,64.2,139.1,60.9,139.4,58.1z"/>
	<path class="st0" d="M156.5,77.7c0.3-0.1,0.6-0.2,0.8-0.3l-0.1,0c1-1.8,1.7-3.6,2.2-5.5c-0.5,0.2-1.1,0.4-1.8,0.6
		C157.4,74.3,157,76.1,156.5,77.7z"/>
	<path class="st0" d="M158,69c0.7-0.3,1.5-0.6,2.2-1c0.5-3.5,0.4-7,0.1-9.9c-0.7,0.3-1.6,0.6-2.6,0.9C158,62,158.2,65.6,158,69z"/>
	<path class="st0" d="M140.8,50.4c-0.6-0.3-1-0.5-1.3-0.7c-0.4,1.5-0.7,3.1-0.9,4.2c0.2,0.1,0.6,0.3,1.2,0.6
		C140.2,52.5,140.7,51,140.8,50.4z"/>
	<path class="st0" d="M157.1,72.6c-0.8,0.3-1.8,0.5-2.8,0.7c-0.1,1.8-0.4,3.5-0.7,5c0.7-0.1,1.5-0.3,2.3-0.5l0,0
		C156.5,76.2,156.9,74.5,157.1,72.6z"/>
	<path class="st0" d="M144.3,46.6V46c-0.4,0.1-0.9,0.2-1.2,0.3v0.8C143.4,46.9,143.8,46.7,144.3,46.6z"/>
	<path class="st0" d="M156.8,47.5h-4.6c-0.1,0.4-0.6,0.7-1.3,0.9h5.6c0.2-0.1,0.3-0.2,0.4-0.3c0.1-0.1,0.1-0.2,0.1-0.2
		C157,47.8,156.9,47.6,156.8,47.5z"/>
	<path class="st0" d="M148.3,47.3c0,0.2,0.3,0.4,0.8,0.6v-1.1C148.6,46.8,148.3,47.1,148.3,47.3z"/>
	<path class="st0" d="M146.2,60c-1-0.1-2.1-0.3-3.2-0.6c-0.2,2.9-0.2,6.3,0.2,10c0.9,0.3,1.9,0.6,3.1,0.8
		C146.1,66.5,146.1,63,146.2,60z"/>
	<path class="st0" d="M158.6,47.6c0.3-0.2,0.6-0.5,0.7-0.8l-0.8,0.2c0,0.1,0,0.1,0,0.2C158.6,47.4,158.6,47.5,158.6,47.6z"/>
	<path class="st0" d="M147.9,47.5h-4.6c-0.1,0.1-0.2,0.2-0.2,0.3c0,0.1-0.1,0.4,0.3,0.6h5.7C148.5,48.3,148,47.9,147.9,47.5z"/>
	<path class="st0" d="M149.9,67c-1.3-0.1-2.2-1.2-2.2-2.5c0-1.3,1-2.3,2.2-2.5v-1.8c-0.5,0-1.7,0-3.2-0.2c-0.1,3-0.1,6.5,0.1,10.2
		c1,0.2,2,0.2,3.1,0.3V67z"/>
	<path class="st0" d="M150.4,62.1c1.2,0.1,2.2,1.2,2.2,2.5c0,1.3-1,2.3-2.2,2.5v3.5c0.5,0,1.9-0.1,3.6-0.4c0.1-3.5-0.1-7.1-0.3-10.1
		c-1.1,0.2-2.2,0.3-3.3,0.3V62.1z"/>
	<path class="st0" d="M151.8,47.3c0-0.2-0.3-0.4-0.7-0.6v1.1C151.5,47.7,151.8,47.5,151.8,47.3z"/>
	<path class="st0" d="M152.3,47h3.9c-1.1-0.5-3.3-0.8-5.1-0.8C151.7,46.4,152.1,46.7,152.3,47z"/>
	<path class="st0" d="M148.6,46.3c-1.6,0.2-3.1,0.4-4.2,0.7h3.4C148,46.7,148.2,46.5,148.6,46.3z"/>
	<path class="st0" d="M149.3,46.6C149.3,46.7,149.3,46.7,149.3,46.6c0,0.3,0.3,0.4,0.8,0.4c0.4,0,0.8-0.2,0.8-0.3c0,0,0,0,0-0.1
		c-0.2-0.1-0.5-0.1-0.8-0.1C149.8,46.6,149.5,46.6,149.3,46.6z"/>
	<path class="st0" d="M150.1,46.4c-0.4,0-0.7,0.1-0.8,0.3c0.2-0.1,0.5-0.1,0.8-0.1c0.3,0,0.5,0,0.8,0.1
		C150.8,46.5,150.4,46.4,150.1,46.4z"/>
	<path class="st0" d="M154.8,50.6c-0.1-0.5-0.5-0.8-0.8-0.9c-1.8,0.3-3.3,0.4-3.7,0.4c-6.8,0-9.2-2-10-3c-0.2,0.7-0.5,1.8-0.6,2.2
		c0.8,0.5,5.1,2.9,10.4,2.9c0.1,0,1.9,0,4.3-0.5C154.9,51.2,154.8,50.6,154.8,50.6z M152.2,51.4c-0.3,0-0.5-0.2-0.5-0.5
		c0-0.3,0.2-0.5,0.5-0.5c0.3,0,0.5,0.2,0.5,0.5C152.7,51.2,152.4,51.4,152.2,51.4z M153.5,51.3c-0.3,0-0.5-0.2-0.5-0.5
		c0-0.3,0.2-0.5,0.5-0.5c0.3,0,0.5,0.2,0.5,0.5C154,51.1,153.7,51.3,153.5,51.3z"/>
	<path class="st0" d="M155.7,51.4c1.6-0.4,3.2-1,4.7-2l-0.7-2.1c-0.6,1-2.4,1.7-4.3,2.1c0.3,0.3,0.4,1,0.4,1
		C155.9,50.8,155.8,51.1,155.7,51.4z"/>
	<path class="st0" d="M145.5,79.8c0-0.2-0.1-0.4,0-0.7c0,0,0.1-0.2,0.2-0.4c-1.3-0.3-2.3-0.6-2.9-0.9c0.2,0.3,0.4,0.6,0.6,0.9
		C143.4,78.7,144,79.3,145.5,79.8z"/>
	<path class="st0" d="M146.8,80.1C146.8,80.1,146.9,80.1,146.8,80.1c0.2,0,0.3,0.1,0.4,0.1c0.4,0.1,0.8,0.1,1.3,0.2c0,0,0.1,0,0.1,0
		c0.5,0,1.1,0.1,1.7,0.1l0,0c4.1,0,6.4-1.5,6.4-1.6c0.2-0.1,0.4-0.3,0.5-0.5c0,0,0.1-0.1,0.1-0.1c0.2-0.2,0.3-0.4,0.5-0.6
		c-3.1,1.3-6.8,1.4-7.5,1.4l-0.2,0c-1.2,0-2.3-0.1-3.3-0.2c-0.1,0.1-0.3,0.2-0.3,0.5C146.5,79.3,146.5,79.8,146.8,80.1z M149.1,79.3
		c0.3,0,0.5,0.2,0.5,0.5c0,0.3-0.2,0.5-0.5,0.5c-0.3,0-0.5-0.2-0.5-0.5C148.6,79.5,148.8,79.3,149.1,79.3z M147.8,79.2
		c0.3,0,0.5,0.2,0.5,0.5c0,0.3-0.2,0.5-0.5,0.5c-0.3,0-0.5-0.2-0.5-0.5C147.3,79.4,147.5,79.2,147.8,79.2z"/>
	<path class="st0" d="M153.7,59.5c-0.1-0.8-0.1-1.5-0.2-2.2c-1.5,0.2-2.6,0.3-3.1,0.3v2.2C151.6,59.8,152.7,59.7,153.7,59.5z
		 M153,58c0.3,0,0.5,0.2,0.5,0.5c0,0.3-0.2,0.5-0.5,0.5c-0.3,0-0.5-0.2-0.5-0.5C152.5,58.3,152.7,58,153,58z"/>
	<path class="st0" d="M156.8,57.8c0,0.6-0.1,0.9-0.2,1.1c0.2-0.1,0.4-0.1,0.7-0.2c-0.1-0.8-0.1-1.5-0.2-2.2
		c-0.3,0.1-0.5,0.2-0.8,0.2C156.6,57.1,156.8,57.8,156.8,57.8z"/>
	<path class="st0" d="M138.6,54.6l-0.3,2.4c0.4,0.2,0.7,0.4,1.1,0.6c0.1-0.9,0.2-1.7,0.3-2.4C139.3,54.9,138.9,54.7,138.6,54.6z"/>
	<path class="st0" d="M157.5,56.4c0.1,0.7,0.2,1.4,0.2,2.2c1-0.3,1.9-0.6,2.5-0.9c-0.1-0.8-0.2-1.5-0.3-2.2
		C159.2,55.8,158.4,56.1,157.5,56.4z"/>
	<path class="st0" d="M162,56.8c0-0.2,0-0.4-0.1-0.6c-0.1-0.5-0.2-1.2-0.3-1.8c-0.4,0.3-0.7,0.5-1.1,0.7c0.1,0.7,0.2,1.5,0.3,2.3
		C161.4,57.2,161.8,57,162,56.8z"/>
	<path class="st0" d="M142.8,56.4c-1-0.3-1.9-0.7-2.5-1c-0.1,0.7-0.2,1.6-0.3,2.4c0.9,0.4,1.8,0.7,2.7,1
		C142.6,57.9,142.7,57.1,142.8,56.4z"/>
	<path class="st0" d="M154.3,57.8c0.3,0,0.5,0.2,0.5,0.5c0,0.3-0.2,0.5-0.5,0.5c-0.1,0-0.1,0-0.2-0.1c0,0.2,0,0.5,0.1,0.7
		c0.4-0.1,0.7-0.1,1-0.2c0.6-0.5,0.5-1.2,0.5-1.2c-0.1-0.6-0.6-0.8-0.9-1c-0.3,0.1-0.5,0.1-0.8,0.1c0,0.2,0,0.5,0.1,0.7
		C154.2,57.9,154.2,57.8,154.3,57.8z"/>
	<path class="st0" d="M149.9,59.8v-2.2c-1.1,0-2.1-0.1-3.1-0.2c0,0.7-0.1,1.4-0.1,2.2C148.2,59.8,149.4,59.8,149.9,59.8z"/>
	<path class="st0" d="M146.4,57.3c-1.1-0.2-2.2-0.4-3.1-0.7c-0.1,0.7-0.1,1.5-0.2,2.4c1.1,0.3,2.2,0.5,3.2,0.6
		C146.3,58.7,146.3,58,146.4,57.3z"/>
	<path class="st0" d="M143.3,56.5c-0.2,0-0.3-0.1-0.5-0.1c-0.1,0.7-0.1,1.5-0.2,2.4c0.2,0,0.3,0.1,0.5,0.1
		C143.1,58.1,143.2,57.3,143.3,56.5z"/>
	<path class="st0" d="M146.8,57.3c-0.2,0-0.3,0-0.5-0.1c0,0.7-0.1,1.5-0.1,2.3c0.2,0,0.3,0,0.5,0.1C146.8,58.8,146.8,58,146.8,57.3z
		"/>
	<path class="st0" d="M140.2,55.4c-0.2-0.1-0.3-0.2-0.5-0.2c-0.1,0.7-0.2,1.6-0.3,2.4c0.2,0.1,0.3,0.2,0.5,0.2
		C140,57,140.1,56.1,140.2,55.4z"/>
	<path class="st0" d="M157.3,58.7c0.2,0,0.3-0.1,0.5-0.1c-0.1-0.8-0.1-1.5-0.2-2.2c-0.2,0.1-0.3,0.1-0.5,0.1
		C157.1,57.2,157.2,58,157.3,58.7z"/>
	<path class="st0" d="M153.7,59.5c0.2,0,0.3-0.1,0.5-0.1c0-0.2,0-0.5-0.1-0.7c-0.2-0.1-0.3-0.2-0.3-0.4c0-0.2,0.1-0.3,0.2-0.4
		c0-0.2,0-0.5-0.1-0.7c-0.2,0-0.3,0.1-0.5,0.1C153.6,58,153.7,58.7,153.7,59.5z"/>
	<path class="st0" d="M160.3,57.6c0.2-0.1,0.3-0.1,0.5-0.2c-0.1-0.8-0.2-1.6-0.3-2.3c-0.2,0.1-0.3,0.2-0.5,0.3
		C160.1,56.1,160.2,56.8,160.3,57.6z"/>
	<path class="st0" d="M150,59.8v0.2c0,0,0,0,0,0l0.1-0.3c0.1,0,0.2,0,0.3,0v-2.2c-0.1,0-0.2,0-0.2,0c-0.1,0-0.2,0-0.3,0L150,59.8
		C149.9,59.8,150,59.8,150,59.8z"/>
	<path class="st0" d="M162,56.8c0-0.1,0-0.4-0.1-0.6C162,56.4,162,56.6,162,56.8C162,56.8,162,56.8,162,56.8z"/>
	<path class="st0" d="M159.6,45.7c0.1-0.1,0.2-0.2,0.2-0.3c0,0,0,0,0,0l-0.6,0C159.4,45.5,159.5,45.6,159.6,45.7z"/>
	<path class="st0" d="M156.5,44.2L156.5,44.2L156.5,44.2c1.2,0.3,2,0.8,2.5,1.1c0.1,0.1,0.2,0.2,0.3,0.2c0-0.1-0.1-0.2-0.1-0.2
		l0.1,0c-0.1-0.1-0.3-0.2-0.4-0.3c-0.1,0-0.2,0-0.2,0c-0.2,0-0.2-0.1-0.2-0.2c-0.3-0.1-0.6-0.3-0.9-0.4c-0.3,0.1-0.4,0-0.4,0
		c-0.1-0.1-0.1-0.2-0.1-0.2c-0.2-0.1-0.4-0.1-0.6-0.2C156.5,44.1,156.4,44.1,156.5,44.2C156.4,44.2,156.5,44.2,156.5,44.2z"/>
	<path class="st0" d="M173,41.1c0,0,0.6,0.2,0.8,0.5c0,0-0.4-2.6-1.6-2.5c0,0-0.8-0.1-1.3,0.3c0,0-0.6,0.4-1.3-0.3
		c0,0-0.9-0.7-1.6-2.3c0,0-0.6-1.6,0.9-1.3c0,0-0.6-0.9-0.7-1.2c0,0,0.9,0.1,1.2,0.4c0,0-1-2.3-2.1-3.3c0,0,1.2-5.2-2.3-5.3
		c0,0-3.1-0.4-8.2,1.2c0,0-2.8,0.9-4-0.4c0,0-0.6-0.9,0.9-1.3c0,0,1.1-0.5,2.6-0.1c0,0,4.1,1.1,6.4-0.4c0,0-1.3-0.2-1.6-0.5
		c0,0,1.4-0.4,2.8-0.3c0,0-6.1-2.9-9-0.5c0,0-4.6,0.1-4,3.4c0,0,0.6,3.1,5,2.1c0,0,4.5-1.1,5.1-1.2c0,0,6.9-1.2,4,2.4
		c0,0-3.8-0.1-7.6,1.1c0,0-3.8,1.4-6.3,1.5c0,0,0.4-0.6,0.3-1.1c0,0-1.6,0.2-2.3-0.5c0,0,0.7-1.1,1-1.2c0,0-0.5,0.1-1.4-0.3
		c0,0,1.1-0.7,1.9-0.8c0,0-0.6-0.7-2.6-1.1c0,0,0.8-0.4,1.1-0.7c0,0-1.2-0.3-2.3-1.6c0,0-1.4-1.7-2.1-1.5c0,0-0.5-1.2-2.2-1.1
		c0,0-0.7-0.7-2.7-0.5c0,0-0.3-0.5-0.3-0.6c0,0-1.1,0.8-1.5,1.8c0,0-1.4,0.6-2.3,2c0,0-0.4,0.7-1,1.1c0,0-2.8,1.1-2.6,2.4
		c0,0,0,1,0.9,0.9c0,0,0.4,0.1,0.4,0.6c0,0,1,0.2,1.7,0.1c0,0-1,1.3-2.5,1.9c0,0,1.3,0.4,4.1-1c0,0-0.1,0.4-0.8,0.6
		c0,0-0.1,0.2,0,0.2c0,0-0.1,0.2-0.4,0.2c0,0,0,0.9,2.8,0.6c0,0-0.2,0.5-0.7,1.1c0,0,0.2,0.1,0.6,0.1c0,0-0.6,2-1.5,3.2
		c0,0-0.6,0.9-1,1.3c0,0-2.4,1.5-2.3,2c0,0,0.4,0,0.7-0.1c0,0-1.3,1.7-3.1,2.6c0,0-2.4,0.9-2.9,1.5c0,0-0.4,0.6-0.5,1.1l4.7-0.2
		c0.2-0.1,0.3-0.3,0.5-0.5c0,0,4.2-3.5,5.8-3.6c0,0,0,0.6,0.2,0.7c0,0,1.3-1.7,2-1.7c0.7,0,1.7,2,6.2,1.9c0,0,3.2,0.3,7-2.1
		c0,0,3.4-1.9,5.1-3.4c0,0,2.2-0.1,2.3,0.1c0,0-2,1.9-1.7,4.4c0,0,0.4-0.6,0.5-0.6c0,0,0.1,0.5,0.2,0.6c0,0,0.3-0.8,0.7-0.7
		c0,0,0.8,0,0.7,1c0,0,0,0.9-1.1,1c0,0-2.1,0.1-2.7,0.4c0,0-0.7,0.3-1.2,0.7c0.2,0.1,0.4,0.1,0.6,0.2c0,0,0-0.1,0-0.1
		c0.3-0.4,1-0.4,1-0.4c-0.1,0.2-0.4,0.6-0.4,0.6c0,0,0,0,0,0c0.3,0.1,0.6,0.3,0.9,0.4c0-0.1,0.1-0.2,0.1-0.2
		c0.5-0.4,1.2-0.3,1.2-0.3c-0.2,0.3-0.6,0.6-0.6,0.6c-0.1,0.1-0.2,0.1-0.3,0.1c0.2,0.1,0.3,0.2,0.4,0.3l0.6,0
		c0.1-0.1,0.6-0.7,2.5-1.5l1.9-0.9c0,0,0.6-0.3,0.3-1.2c0,0-0.1-0.6-1-0.7c0,0,0.1-0.8,1.1-1.2c0,0,0.1,2.7,1.7,3.4
		c0,0-0.1-0.5,0-0.8c0,0,0.4,0.5,0.7,0.6c0,0-0.2-0.9,1.2-1.1c0,0,1.8-0.5,2,0.7c0,0,0.4,1-0.8,1.7c0,0-1.1,0.7-1.3,0.8
		c0,0-0.3,0.2-0.3,0.5h4.3l0.8-0.9c0,0,0.2,0,0-0.9C172.8,44,172,40.7,173,41.1z M151.7,26.8c-0.2-1.5,1.4-2.1,1.4-2.1
		c0.6-0.3,2.3-0.5,2.3-0.5c0.4,0,0.6-0.1,0.6-0.1c2.1-1.3,3.8-0.7,3.8-0.7s-1.5,0.3-1.6,0.7c0,0,1.8,0.4,2.7,0.1
		c0,0-0.6,1.1-3.8,0.4c0,0-2.4-0.3-3.8,0.4c0,0-1.4,0.6-1.2,1.8c0,0,0.2,1.2,1.6,1.3l0,0C152,28.7,151.7,26.8,151.7,26.8z
		 M132.7,29.5c-0.7,0.1-0.5-0.4-0.5-0.4c0-0.6,0.5-0.8,0.5-0.8C132.6,28.6,132.7,29.5,132.7,29.5z M133.3,29.4
		c-0.4,0-0.1-0.9-0.1-0.9c0,0.2,0.3,0.8,0.3,0.8C133.5,29.5,133.3,29.4,133.3,29.4z M167.8,33c-0.1-0.1-1.2,0-1.2,0
		c0.1-0.2,0.1-1.2,0.1-1.2C167.2,32,167.8,33,167.8,33z M166.4,27.8c0.7,0.8,0.3,3.1,0.3,3.1c-0.1-0.2-0.7-0.5-0.7-0.5
		C166.7,29.5,166.4,27.8,166.4,27.8z M148.2,31.3c0,0-0.8-0.2-1.2-0.7l0.8,0C147.8,30.6,147.9,31,148.2,31.3z M148.2,32.5
		c0,0-0.7,0.3-0.9,0.3c0,0-0.3-0.5-0.4-0.9C147,32,147.9,32.5,148.2,32.5z M147.3,29.2c0,0-0.3,0.4-0.7,0.5c0,0-0.6-0.1-0.7-0.5
		H147.3z M145.1,33.7c0,0,0,0.4,0.1,0.7c0,0-2-0.5-2.7-1.8c0,0,2.9,0.7,3.9,0.5l0.3,1C146.7,34.2,145.6,33.8,145.1,33.7z
		 M146.5,36.4l-0.8-0.1c0,0,0.2-0.5,0.2-1L146.5,36.4z M145.1,36.4c0,0-0.8-0.3-1.9-1.5c0,0,1.3,0.2,1.9,0.4
		C145.2,35.4,145,36.2,145.1,36.4z M142.7,30.4c0,0,1.4,0.8,2.3,0.9l0.2,1C145.2,32.3,143.7,32,142.7,30.4z M145.4,25.9
		c0,0,0.9,0.8,1,1c0,0-2,0-1.9-1.1C144.5,25.8,144.9,25.5,145.4,25.9z M146,28.4c-2.2,0.3-2.8-1.9-2.8-1.9
		C143.5,26.8,146,28.4,146,28.4z M144,24.8c-0.2,0-0.8,0.3-0.8,0.3c-0.1-0.3-0.3-0.8-0.3-0.8C143.7,24.3,144,24.8,144,24.8z
		 M143.8,29.2c-1.8-0.2-2.9-3.3-2.9-3.3c0.2,0.2,1,0.6,1,0.6C142.2,27.3,143.8,29.2,143.8,29.2z M141.3,34.4c0,0-0.8-0.6-0.6-2.3
		c0,0,1.1,1.7,1.4,2c0,0-0.5-0.2-0.8-0.4C141.4,33.6,141.3,34.2,141.3,34.4z M140.2,23.4c0,0,0.2-0.4,0.7-0.2c0,0,0.7,0.5,0.7,0.9
		c0,0-1-0.1-1.2-0.2C140.4,23.9,140.1,23.8,140.2,23.4z M140.3,27.1c0.2,0.9,0.8,0.9,0.8,0.9c-0.2,0.1-0.2,0.5-0.2,0.5
		c0.1,0.1,0.5,0.3,0.5,0.3c-0.1,0.2-0.2,1.4-0.2,1.4c-0.1-0.5-1.4-2.6-1.4-2.6L140.3,27.1z M139.3,28.4c0,0,0.7,0.4,0.8,1.6
		c0,0-0.3-0.6-0.8-0.6C139.3,29.4,139.5,28.6,139.3,28.4z M139.4,32.2c0,0,0.5,0.3,0.3,0.6c0,0-0.7,0.7-0.9,0.9
		C138.9,33.6,138.6,32.2,139.4,32.2z M139.2,23.1c0,0-0.4,1-0.4,1.2c0,0-0.4-0.4-0.5-0.4C138.3,23.9,138.9,23.1,139.2,23.1z
		 M138.2,25.1c0,0,0.3-0.1,0.3,0.2l0,0.5c0,0-0.8-0.3-1-0.3C137.5,25.5,137.9,25.1,138.2,25.1z M135.9,26.7l0-0.8
		c0,0,0.6,0.7,0.9,0.8c0,0-0.3,0.6-0.3,0.9c0,0-0.8-0.3-1.2-0.1C135.4,27.4,135.6,26.7,135.9,26.7z M135,31.6c0,0,0.4-0.7,0.5-1
		c0,0,0.4,0.3,0.5,0.5C136.1,31,135.4,31.5,135,31.6z M137.3,32.1c0.3-2.4-1.4-2.5-1.4-2.5c1.4-0.4,2.2,1.4,2.2,1.4
		c0.3-0.1,1.1-0.8,1.1-0.8l0.1,0.9l-0.4-0.1l-0.1,0.4c-0.2,0-0.5-0.1-0.5-0.1C138.1,31.7,137.3,32.1,137.3,32.1z M130.4,44
		c0.7-0.3,1.9-1.3,1.9-1.3c0.6-0.4,2-2,2-2c1.2-1.3,2.6-2.2,2.6-2.2l0,0.7c-0.7,0.3-2.7,2.3-2.7,2.3c-0.4,0.3-2.4,2.1-2.4,2.1
		c-0.8,0.8-1.7,1-1.7,1c-0.5,0.1-1.6,0.6-1.6,0.6C128.9,44.6,130.4,44,130.4,44z M140.5,39.3c-0.3,0.3-0.8,0.6-0.8,0.6
		c-0.7,0.2-2.9,1.3-2.9,1.3c-1.1,0.5-3.5,2.6-3.5,2.6c-0.2,0.2-2.1,1.8-2.1,1.8c-0.6,0.4-2.7,0.3-2.7,0.3c0-0.4,1.8-0.8,1.8-0.8
		c0.8-0.2,1.8-0.8,1.8-0.8c0.7-0.9,2.1-1.9,2.1-1.9c0.4-0.4,2.2-1.8,2.2-1.8c1.1-1,2.8-2.2,2.8-2.2c0.2,0.4,0.8,0.3,0.8,0.3
		c0.3-0.2,0.6-0.1,0.6-0.1C141,38.7,140.5,39.3,140.5,39.3z M144,38.8l-1.3-1.3l-0.6,0.5l-1.7-1.6l-1.9,1l-0.1-0.9
		c0,0-0.5,0.2-0.8,0.3c0,0,0.2-1.5,0.9-1.4c0,0,0.3,0.1,0.3,0.2c0,0,0.8-1.3,0.9-1.3l0.1,0.1l-0.3,1.6l1.2-0.5l1.1,0.9l0.6-0.5
		l1.4,1.4l0.4-0.8l0.8,1c0,0,0.2,0.1,0.4,0c0,0,0.5-0.9,1-0.7l0.8,0.3l-0.1-2.2l1.1-0.1l0.1-1.6l1.4-0.5l0.4,0.2l-1.3,0.7l0.2,1.6
		c0,0-1,0.2-1.2,0.4l0.2,2.2l-2.2,0.1c0,0-0.3,0.5-0.2,1.1c0,0-0.8-0.5-1.4-1.2C144.3,38.2,144,38.6,144,38.8z M150.3,40
		c0,0-3.5,0.9-5.6,0.2l0.2-0.3c0,0,1.4,0.2,1.8,0.1c0,0,0-0.9,0.6-1c0,0,0.4-0.1,0.6,0.6c0,0,0,0.3,0.3,0.2c0,0,0.5,0.2,1.3-1.3
		c0,0,5.7-1,7.5-2.1C156.9,36.5,154.4,38.9,150.3,40z M152.8,35.4c-1.2,0.5-2.3,0.5-2.3,0.5c0-0.5,0.5-1,0.5-1c0.9-0.1,3.2-1,3.2-1
		c2.6-1,3.9,0,3.9,0C155.9,33.8,152.8,35.4,152.8,35.4z M157.7,32.3c0,0,2.7-1.7,6.9-1.3l0.4,0.8C165,31.8,159.7,31.9,157.7,32.3z
		 M162.5,39.7c0,0-0.7-0.8-1.4-0.3c0,0,0.6-1.6,1.2-2c0,0,1.5,0.6,1.8,1C164.1,38.4,162.8,39.3,162.5,39.7z M161.6,33.1
		c0,0,4.4-1.5,4.9,3C166.6,36.1,163.6,33.6,161.6,33.1z M166.9,40.8c-1.2-0.3-1.4-1.9-1.4-1.9c1,0.9,2.1,0.9,2.1,0.9
		c1.5,0.4,1.5,1.2,1.5,1.2C169,40.8,166.9,40.8,166.9,40.8z M168.5,45.4c0.1-0.1,1-0.3,1-0.3C169,46.1,168.5,45.4,168.5,45.4z
		 M169.8,45.4c0.1-0.1,0.7-0.5,0.7-0.5C170.1,46.4,169.8,45.4,169.8,45.4z M171.9,40.4c-0.1,0.1-0.4,1.1-0.4,1.1
		c-0.1-0.3-0.8-1.1-0.8-1.1C171,40.4,171.9,40.4,171.9,40.4z M171.4,45.4c-0.2-0.2,0.2-0.5,0.2-0.5c0.3-0.1,0.9-0.8,0.9-0.8
		C172.4,45.7,171.4,45.4,171.4,45.4z"/>
	<path class="st0" d="M156.4,44.3L156.4,44.3C156.5,44.2,156.4,44.2,156.4,44.3c-0.1-0.1-0.1-0.1-0.1,0
		C156.3,44.3,156.4,44.3,156.4,44.3z"/>
	<path class="st0" d="M156.5,44.2L156.5,44.2C156.5,44.2,156.5,44.2,156.5,44.2L156.5,44.2z"/>
	<path class="st0" d="M156.7,44.3l-0.2-0.1c0,0,0,0,0,0l0,0.1C156.5,44.3,156.6,44.3,156.7,44.3z"/>
	<path class="st0" d="M161.2,70.5c0.1-0.5,0.3-0.9,0.4-1.3c0.1-0.6,0.2-1.2,0.3-1.6c-0.4,0.3-0.8,0.5-1.2,0.7
		c-0.1,0.9-0.3,1.8-0.5,2.7C160.7,70.8,161.1,70.6,161.2,70.5z"/>
	<path class="st0" d="M150.4,71v2.3c1.2,0,2.4-0.1,3.5-0.3c0.1-0.8,0.1-1.5,0.1-2.3C152.3,70.9,150.9,71,150.4,71z"/>
	<path class="st0" d="M154.4,72.8c1-0.2,2-0.5,2.8-0.7c0.1-0.8,0.2-1.6,0.2-2.4c-1,0.3-2,0.6-2.9,0.8
		C154.5,71.3,154.5,72.1,154.4,72.8z"/>
	<path class="st0" d="M138.7,67.7l0.7,2.9c0.3,0.2,0.6,0.3,0.9,0.5c-0.2-0.9-0.5-1.9-0.6-2.8C139.3,68.1,138.9,67.9,138.7,67.7z"/>
	<path class="st0" d="M142.8,69.7c-1-0.4-1.8-0.7-2.5-1.1c0.2,0.9,0.4,1.8,0.6,2.7c0.8,0.3,1.5,0.6,2.2,0.8
		C143,71.4,142.9,70.6,142.8,69.7z"/>
	<path class="st0" d="M157.7,71.9c0.7-0.2,1.3-0.5,1.8-0.7c0.2-0.9,0.4-1.7,0.5-2.6c-0.7,0.4-1.4,0.7-2.1,0.9
		C157.9,70.4,157.8,71.2,157.7,71.9z"/>
	<path class="st0" d="M146,71.9c0-0.2,0.2-0.4,0.4-0.4c0-0.3,0-0.5,0-0.8c-0.1,0-0.2,0-0.3,0c-0.4,0.1-0.8,0.4-0.9,0.9
		c0,0-0.1,0.7,0.5,1.2c0.3,0.1,0.6,0.1,0.9,0.2c0-0.2,0-0.4,0-0.6C146.2,72.3,146,72.1,146,71.9z"/>
	<path class="st0" d="M146.9,71.8C146.9,71.8,146.9,71.8,146.9,71.8C146.9,71.9,146.9,71.9,146.9,71.8c0,0.5,0.1,0.9,0.1,1.2
		c1.4,0.2,2.5,0.2,2.9,0.2V71c-1.1,0-2.1-0.1-3.1-0.3C146.8,71.1,146.9,71.5,146.9,71.8z M147.8,71.6c0.3,0,0.5,0.2,0.5,0.5
		c0,0.3-0.2,0.5-0.5,0.5s-0.5-0.2-0.5-0.5C147.3,71.8,147.6,71.6,147.8,71.6z"/>
	<path class="st0" d="M144.1,71.4c0,0,0.2-0.7,0.6-1.1c-0.5-0.1-0.9-0.3-1.4-0.4c0.1,0.8,0.2,1.6,0.4,2.5c0.2,0,0.3,0.1,0.5,0.1
		C144.1,72.3,144,71.9,144.1,71.4z"/>
	<path class="st0" d="M146.5,72.3C146.4,72.3,146.4,72.3,146.5,72.3c0,0.2,0,0.4,0,0.6c0.2,0,0.3,0.1,0.5,0.1c0-0.4-0.1-0.8-0.1-1.1
		C146.9,72.1,146.7,72.3,146.5,72.3z"/>
	<path class="st0" d="M140.3,68.7c-0.2-0.1-0.4-0.2-0.6-0.3c0.2,0.9,0.4,1.9,0.6,2.8c0.2,0.1,0.4,0.2,0.6,0.3
		C140.6,70.5,140.4,69.6,140.3,68.7z"/>
	<path class="st0" d="M146.4,71.4C146.4,71.4,146.4,71.4,146.4,71.4c0.3,0,0.5,0.2,0.5,0.4c0-0.4,0-0.7-0.1-1.1
		c-0.2,0-0.3,0-0.5-0.1C146.3,70.9,146.4,71.2,146.4,71.4z"/>
	<path class="st0" d="M157.2,72.1c0.2-0.1,0.4-0.1,0.5-0.2c0.1-0.8,0.2-1.6,0.2-2.4c-0.2,0.1-0.3,0.1-0.5,0.2
		C157.4,70.5,157.3,71.3,157.2,72.1z"/>
	<path class="st0" d="M153.9,72.9c0.2,0,0.3-0.1,0.5-0.1c0.1-0.8,0.1-1.5,0.1-2.3c-0.2,0-0.3,0.1-0.5,0.1
		C154,71.4,153.9,72.2,153.9,72.9z"/>
	<path class="st0" d="M143.3,69.9c-0.2-0.1-0.4-0.1-0.5-0.2c0.1,0.8,0.2,1.6,0.3,2.5c0.2,0.1,0.4,0.1,0.5,0.2
		C143.5,71.5,143.4,70.7,143.3,69.9z"/>
	<path class="st0" d="M159.6,71.3c0.2-0.1,0.4-0.2,0.6-0.2c0.2-0.9,0.4-1.8,0.5-2.7c-0.2,0.1-0.4,0.2-0.6,0.3
		C160,69.5,159.8,70.4,159.6,71.3z"/>
	<path class="st0" d="M150.4,73.3V71c-0.1,0-0.2,0-0.2,0c-0.1,0-0.2,0-0.3,0v2.3c0,0,0.1,0,0.1,0v0.2h0l0.2-0.3
		C150.3,73.3,150.3,73.3,150.4,73.3z"/>
	<path class="st0" d="M161.2,70.5c0.1-0.3,0.3-0.8,0.4-1.3C161.4,69.7,161.3,70.1,161.2,70.5C161.2,70.5,161.2,70.5,161.2,70.5z"/>
	<g>
		<path class="st0" d="M134.1,12.9c0.6,0.2,1.2,0.1,1.8-0.2c0.6-0.3,0.9-0.8,1.1-1.5c0.1-0.6,0-1.3-0.3-1.9
			c-0.4-0.6-0.9-1.1-1.5-1.3c-0.6-0.2-1.2-0.2-1.8,0.2c-0.6,0.3-0.9,0.8-1.1,1.5c-0.1,0.6,0,1.3,0.3,1.9
			C132.9,12.3,133.4,12.7,134.1,12.9z"/>
		<path class="st0" d="M165.4,14.1c0.7,0.1,1.2-0.1,1.7-0.5c0.5-0.4,0.8-1,0.9-1.7c0.1-0.7,0-1.4-0.4-1.9c-0.4-0.6-0.9-0.9-1.5-1
			c-0.7-0.1-1.2,0.1-1.7,0.5c-0.5,0.4-0.8,1-0.9,1.7c-0.1,0.7,0,1.4,0.4,1.9C164.2,13.7,164.7,14,165.4,14.1z"/>
		<path class="st0" d="M176,20c0.6,0,1.1-0.4,1.7-1c0.5-0.7,0.7-1.3,0.7-1.8c-0.1-0.6-0.5-1.2-1.2-1.8l-0.3-0.3l-3.1,3.8l0.3,0.3
			C174.7,19.7,175.4,20,176,20z"/>
		<path class="st0" d="M110.1,30.2c-0.4-0.2-0.7-0.2-1-0.1c-0.3,0.1-0.5,0.4-0.7,0.9l-0.2,0.4l2.1,1l0.2-0.4
			c0.2-0.5,0.3-0.8,0.3-1.1C110.7,30.6,110.5,30.4,110.1,30.2z"/>
		<path class="st0" d="M125,13.4c-0.2-0.3-0.5-0.4-0.7-0.4c-0.3,0-0.6,0.2-1.1,0.5l-0.4,0.3l1.2,1.7l0.4-0.3
			c0.5-0.3,0.8-0.6,0.8-0.9C125.3,14,125.2,13.7,125,13.4z"/>
		<path class="st0" d="M150,0.5c-27.8,0-50.4,22.6-50.4,50.4c0,27.8,22.6,50.4,50.4,50.4c27.8,0,50.4-22.6,50.4-50.4
			C200.4,23.2,177.8,0.5,150,0.5z M192,30.3l-6,3l1.3,2.7l-1.8,0.9L183,32l7.9-3.9L192,30.3z M188.6,24.5l-1.5,1.2l-2-2.4l-1.2,1
			l1.8,2.2l-1.5,1.2l-1.8-2.2l-1.1,0.9l2,2.4l-1.5,1.3l-3.4-4.2l6.8-5.6L188.6,24.5z M176.1,12.1l1.4,1.2c1.1,0.9,1.8,1.5,2.1,2
			c0.4,0.5,0.6,0.9,0.8,1.4c0.2,0.7,0.2,1.3,0,2c-0.2,0.7-0.5,1.3-1,1.9c-0.5,0.6-1,1-1.6,1.3c-0.6,0.3-1.3,0.4-1.9,0.4
			c-0.5,0-1-0.2-1.5-0.4c-0.5-0.2-1.2-0.7-2.1-1.5l-0.3-0.3l-1.4-1.2L176.1,12.1z M161.1,10.9c0.1-0.6,0.3-1.2,0.6-1.7
			c0.3-0.5,0.7-1,1.2-1.3c0.5-0.4,1-0.6,1.7-0.8c0.6-0.1,1.2-0.2,1.8-0.1c0.6,0.1,1.2,0.3,1.7,0.6c0.5,0.3,1,0.7,1.4,1.2
			c0.4,0.5,0.6,1,0.8,1.6c0.2,0.6,0.2,1.2,0.1,1.8c-0.1,0.6-0.3,1.2-0.6,1.7c-0.3,0.5-0.7,1-1.2,1.3c-0.5,0.4-1.1,0.6-1.7,0.8
			c-0.6,0.1-1.2,0.2-1.8,0.1c-0.6-0.1-1.2-0.3-1.7-0.6c-0.5-0.3-1-0.7-1.4-1.2c-0.4-0.5-0.7-1-0.8-1.6
			C161.1,12.1,161,11.5,161.1,10.9z M148.8,4.1l2.4,0.1l1.1,4.6c0,0,0,0.1,0,0.2c0.1,0.4,0.2,0.8,0.2,1.1c0-0.2,0.1-0.3,0.1-0.5
			c0.1-0.2,0.1-0.4,0.2-0.7l1.6-4.5l2.4,0.1l0.9,8.9l-2.2-0.1l-0.3-3.8c0-0.3,0-0.6-0.1-0.9c0-0.3,0-0.7,0-1.1
			c-0.1,0.4-0.2,0.8-0.4,1.4c0,0.1-0.1,0.2-0.1,0.3l-1.4,4.1l-1.6-0.1l-1-4.2c0-0.1,0-0.1-0.1-0.3c-0.1-0.6-0.2-1-0.3-1.4
			c0,0.3-0.1,0.7-0.1,1c0,0.3-0.1,0.6-0.2,1l-0.7,3.8l-2.2-0.1L148.8,4.1z M130.1,9.3c0.2-0.6,0.4-1.1,0.8-1.6
			c0.4-0.5,0.9-0.9,1.4-1.2c0.5-0.3,1.1-0.5,1.7-0.6c0.6-0.1,1.2,0,1.8,0.1c0.6,0.2,1.1,0.4,1.6,0.8c0.5,0.4,0.9,0.8,1.2,1.4
			c0.3,0.6,0.5,1.1,0.6,1.7c0.1,0.6,0,1.2-0.1,1.8c-0.2,0.6-0.5,1.1-0.8,1.6c-0.4,0.5-0.8,0.9-1.4,1.2c-0.5,0.3-1.1,0.5-1.7,0.6
			c-0.6,0.1-1.2,0-1.8-0.1c-0.6-0.2-1.2-0.4-1.6-0.8c-0.5-0.4-0.9-0.8-1.2-1.4c-0.3-0.5-0.5-1.1-0.6-1.7
			C129.8,10.5,129.9,9.9,130.1,9.3z M121.9,12.1c0.8-0.6,1.4-1,1.8-1.1c0.4-0.2,0.7-0.2,1.1-0.2c0.4,0,0.8,0.1,1.2,0.4
			c0.4,0.2,0.7,0.5,1,0.9c0.3,0.4,0.5,0.8,0.6,1.3c0.1,0.4,0.1,0.8,0,1.2c-0.1,0.3-0.2,0.6-0.5,0.9c-0.2,0.3-0.6,0.6-1.2,1.1
			l-0.3,0.2l-0.4,0.3l1.7,2.3l-1.8,1.3l-5.2-7.1L121.9,12.1z M112.5,21.2l3.2,2.9c0.5,0.4,0.8,0.7,1,0.9c0.2,0.2,0.4,0.3,0.6,0.3
			c0.2,0.1,0.5,0.1,0.7,0c0.2-0.1,0.5-0.3,0.7-0.5c0.2-0.2,0.4-0.5,0.4-0.7c0.1-0.2,0-0.5-0.1-0.7c-0.1-0.2-0.2-0.4-0.4-0.6
			c-0.2-0.2-0.5-0.5-1-0.9l-0.4-0.4l-2.7-2.5l1.6-1.8l3.5,3.1c0.7,0.6,1.2,1.2,1.5,1.6c0.3,0.4,0.4,0.8,0.5,1.2
			c0.1,0.5,0,0.9-0.2,1.5c-0.2,0.5-0.6,1-1.1,1.6c-0.5,0.6-1,1-1.5,1.3c-0.5,0.3-1,0.4-1.4,0.4c-0.4,0-0.8-0.1-1.3-0.3
			c-0.4-0.2-1-0.7-1.7-1.3l-0.7-0.6l-2.8-2.5L112.5,21.2z M111.8,43c-0.2,0.7-0.4,1.3-0.8,1.8c-0.3,0.5-0.8,0.9-1.3,1.2
			c-0.5,0.3-1.1,0.5-1.7,0.6c-0.6,0.1-1.2,0.1-1.8-0.1c-0.6-0.2-1.2-0.4-1.7-0.8c-0.5-0.3-0.9-0.8-1.2-1.3c-0.3-0.5-0.5-1.1-0.6-1.7
			c-0.1-0.6,0-1.2,0.1-1.9c0.2-0.8,0.6-1.5,1-2.1c0.5-0.6,1.1-1,1.9-1.3l0.5,2.3c-0.4,0.2-0.7,0.4-0.9,0.6c-0.2,0.3-0.4,0.6-0.5,1
			c-0.2,0.7-0.1,1.3,0.3,1.8c0.4,0.5,1,0.9,1.8,1.1c0.8,0.2,1.5,0.2,2.1-0.1c0.6-0.3,0.9-0.8,1.1-1.5c0.1-0.6,0.1-1.1-0.1-1.6
			c-0.2-0.5-0.5-0.8-1-1l-0.6,2.3l-1.8-0.4l1.1-4.6c0.1,0,0.1,0,0.2,0c0.1,0,0.2,0,0.3,0.1c1.5,0.4,2.5,1,3.2,2
			C112,40.4,112.2,41.6,111.8,43z M105.5,32.7l1.1-2.3c0.4-0.9,0.8-1.5,1-1.8c0.3-0.3,0.5-0.5,0.8-0.7c0.4-0.2,0.7-0.3,1.1-0.3
			c0.4,0,0.8,0.1,1.2,0.3c0.6,0.3,1,0.7,1.3,1.2c0.2,0.5,0.3,1.1,0.1,1.7l4.2-0.6l-1.2,2.5l-4,0.3l3.1,1.5l-1,2L105.5,32.7z
			 M126.6,93.5l-1.8-1.3l1.8-3.4c0.1-0.2,0.3-0.5,0.4-0.8c0.2-0.3,0.3-0.6,0.5-0.9c-0.3,0.3-0.6,0.6-1.1,1c-0.1,0.1-0.2,0.1-0.2,0.2
			l-3.4,2.7l-1.3-0.9l1.4-4.1c0-0.1,0-0.1,0.1-0.3c0.2-0.6,0.4-1,0.5-1.3c-0.2,0.3-0.4,0.5-0.6,0.8c-0.2,0.2-0.4,0.5-0.7,0.7
			l-2.6,2.8l-1.8-1.3l6.2-6.4l2,1.4l-1.5,4.5c0,0,0,0.1,0,0.2c-0.1,0.4-0.3,0.7-0.4,1c0.1-0.1,0.2-0.2,0.4-0.4
			c0.1-0.1,0.3-0.3,0.5-0.5l3.7-2.9l2,1.4L126.6,93.5z M138.6,91.2l-2.9-1.1l-0.5,1.4l2.7,1l-0.7,1.8l-2.7-1l-0.5,1.4l2.9,1.1
			l-0.7,1.9l-5.1-1.9l3-8.3l5.1,1.9L138.6,91.2z M147,94.7l2.9,4.8l-2.7-0.2l-1.3-2.7c-0.1-0.1-0.1-0.2-0.1-0.4
			c0-0.1-0.1-0.3-0.1-0.4c0,0.1-0.1,0.3-0.2,0.4c-0.1,0.1-0.1,0.2-0.2,0.3l-1.7,2.5l-2.7-0.2l3.7-4.3l-2.6-4.4l2.9,0.2l0.9,2.1l0,0
			c0.1,0.3,0.2,0.5,0.2,0.7c0.1-0.2,0.2-0.4,0.3-0.6c0,0,0,0,0-0.1l1.2-2l2.8,0.2L147,94.7z M154.1,99.6l-0.3-8.8l2.4-0.1l0.3,8.8
			L154.1,99.6z M167.4,96.5c-0.3,0.2-0.7,0.4-1.1,0.5c-0.5,0.1-0.9,0.2-1.3,0.2c-0.4,0-0.8,0-1.2-0.2c-0.8-0.2-1.4-0.6-1.9-1.1
			c-0.5-0.5-0.9-1.2-1.2-2c-0.2-0.6-0.3-1.3-0.2-1.9c0-0.6,0.2-1.2,0.5-1.7c0.3-0.5,0.6-1,1.1-1.3c0.4-0.4,1-0.6,1.6-0.8
			c0.4-0.1,0.7-0.2,1.1-0.2c0.4,0,0.8,0,1.2,0.1l0.8,2.5c-0.4-0.3-0.8-0.4-1.2-0.5c-0.4-0.1-0.7,0-1.1,0.1c-0.7,0.2-1.1,0.6-1.4,1.2
			c-0.3,0.6-0.3,1.2-0.1,2c0.2,0.7,0.6,1.2,1.1,1.5c0.6,0.3,1.2,0.4,1.8,0.2c0.4-0.1,0.7-0.3,0.9-0.6c0.3-0.3,0.5-0.6,0.7-1.1
			l0.8,2.5C168.1,96,167.8,96.3,167.4,96.5z M179.3,89c-0.2,0.6-0.5,1.1-0.9,1.6c-0.4,0.5-0.9,0.8-1.5,1.1c-0.6,0.3-1.2,0.4-1.8,0.5
			c-0.6,0-1.2,0-1.8-0.2c-0.6-0.2-1.1-0.5-1.6-0.9c-0.5-0.4-0.8-0.9-1.1-1.4c-0.3-0.6-0.4-1.2-0.5-1.8c0-0.6,0.1-1.2,0.3-1.8
			c0.2-0.6,0.5-1.1,0.9-1.6c0.4-0.5,0.9-0.8,1.5-1.1c0.6-0.3,1.2-0.4,1.8-0.5c0.6,0,1.2,0,1.8,0.2c0.6,0.2,1.1,0.5,1.6,0.9
			c0.5,0.4,0.8,0.9,1.1,1.4c0.3,0.6,0.4,1.2,0.5,1.8C179.6,87.8,179.5,88.4,179.3,89z M150,86.9c-19.8,0-35.9-16.1-35.9-35.9
			c0-19.8,16.1-35.9,35.9-35.9c19.8,0,35.9,16.1,35.9,35.9C185.9,70.8,169.8,86.9,150,86.9z M195.7,44.2c-0.3,0.5-0.7,1-1.2,1.4
			c-0.5,0.4-1,0.7-1.6,0.8c-0.6,0.2-1.2,0.2-1.8,0.1c-0.6-0.1-1.2-0.3-1.7-0.6c-0.5-0.3-1-0.7-1.4-1.2c-0.4-0.5-0.7-1-0.9-1.6
			c-0.2-0.6-0.2-1.2-0.2-1.8c0.1-0.6,0.2-1.2,0.5-1.7c0.3-0.5,0.7-1,1.2-1.4c0.5-0.4,1-0.7,1.6-0.8c0.6-0.2,1.2-0.2,1.8-0.1
			c0.6,0.1,1.2,0.3,1.7,0.6c0.5,0.3,1,0.7,1.4,1.2c0.4,0.5,0.7,1,0.9,1.6c0.2,0.6,0.2,1.2,0.2,1.8C196.1,43.1,195.9,43.6,195.7,44.2
			z"/>
		<path class="st0" d="M192,39.4c-0.7,0-1.3,0.2-1.9,0.6c-0.6,0.5-0.9,1-1.1,1.7c-0.1,0.6,0,1.2,0.5,1.8c0.4,0.5,0.9,0.8,1.6,0.8
			c0.7,0,1.3-0.2,1.9-0.6c0.6-0.5,0.9-1,1-1.7c0.1-0.7,0-1.2-0.4-1.7C193.2,39.7,192.6,39.5,192,39.4z"/>
		<path class="st0" d="M175.5,85.2c-0.6-0.2-1.2-0.2-1.8,0.1c-0.6,0.3-1,0.8-1.2,1.4c-0.2,0.6-0.1,1.3,0.2,1.9
			c0.3,0.7,0.8,1.1,1.4,1.4c0.6,0.2,1.2,0.2,1.8-0.1c0.6-0.3,1-0.8,1.2-1.4c0.2-0.6,0.1-1.3-0.2-2C176.6,85.9,176.1,85.4,175.5,85.2
			z"/>
	</g>
</g>
</svg>
