<?xml version="1.0" encoding="utf-8"?>
<!-- Generator: Adobe Illustrator 22.0.1, SVG Export Plug-In . SVG Version: 6.00 Build 0)  -->
<svg version="1.1" id="Layer_1" xmlns="http://www.w3.org/2000/svg" xmlns:xlink="http://www.w3.org/1999/xlink" x="0px" y="0px"
	 viewBox="0 0 300 101.9" style="enable-background:new 0 0 300 101.9;" xml:space="preserve">
<style type="text/css">
	.st0{fill-rule:evenodd;clip-rule:evenodd;fill:#606060;}
</style>
<g>
	<polygon class="st0" points="98.2,56.2 104.7,56.2 104.7,61.8 98.2,61.8 98.2,56.2 	"/>
	<polygon class="st0" points="98.2,65.1 104.7,65.1 104.7,88.3 98.2,88.3 98.2,65.1 	"/>
	<path class="st0" d="M141,65.1h-6.7v23.2h6.7V77.1c0.1-2.4,0.4-3.7,2-5.1c1.7-1.5,3.8-1.5,5.8-1.2v-6c-1.6-0.5-4.2,0-5.5,0.9
		c-1.5,1-2.1,2.5-2.6,4.5L141,65.1L141,65.1z"/>
	<path class="st0" d="M164.1,72c-0.1-3.5-6.8-3.4-7.3-1c-0.9,4.6,13.9-0.2,13.9,10.3c0,10.2-20.7,10.6-21-0.4h6.4
		c0.4,4.6,7.9,3.9,8.2,1.1c0.5-4.9-13.7-0.7-13.7-10.1c0-5,4.8-7.4,9.6-7.5c5.4,0,10,2.4,10.2,7.7H164.1L164.1,72z"/>
	<path class="st0" d="M242,65.1h3.3v-1.9c0-2,0.6-3.4,2-4.8c1.7-1.8,3.5-2.1,6-2.1h3.3v5.4c-1.9-0.1-3.2-0.3-4.1,0.7
		c-0.3,0.4-0.4,1.1-0.4,1.6v1.1h4.6v5.2h-4.6v17.9h-6.7V70.3H242V65.1L242,65.1z"/>
	<polygon class="st0" points="98.4,22.7 98.4,26.3 88.7,26.3 88.7,35 84,35 84,13.8 99.7,13.8 99.7,17.8 88.7,17.8 88.7,22.7 
		98.4,22.7 	"/>
	<path class="st0" d="M106.6,24.3c0-6.3,5.1-11.4,11.4-11.4c6.3,0,11.4,5.1,11.4,11.4c0,6.3-5.1,11.4-11.4,11.4
		C111.7,35.7,106.6,30.6,106.6,24.3L106.6,24.3z"/>
	<path class="st0" d="M132,24.3c0-6.3,5.1-11.4,11.4-11.4c6.3,0,11.4,5.1,11.4,11.4c0,6.3-5.1,11.4-11.4,11.4
		C137.1,35.7,132,30.6,132,24.3L132,24.3z"/>
	<path class="st0" d="M157.4,24.3c0-6.3,5.1-11.4,11.4-11.4c6.3,0,11.4,5.1,11.4,11.4c0,6.3-5.1,11.4-11.4,11.4
		C162.5,35.7,157.4,30.6,157.4,24.3L157.4,24.3z"/>
	<path class="st0" d="M182.9,24.3c0-6.3,5.1-11.4,11.4-11.4c6.3,0,11.4,5.1,11.4,11.4c0,6.3-5.1,11.4-11.4,11.4
		C188,35.7,182.9,30.6,182.9,24.3L182.9,24.3z"/>
	<path class="st0" d="M232.2,65.1h-6.7v23.2h6.7V77.1c0.1-2.4,0.4-3.7,2-5.1c1.7-1.5,3.8-1.5,5.8-1.2v-6c-1.6-0.5-4.2,0-5.5,0.9
		c-1.5,1-2.1,2.5-2.6,4.5L232.2,65.1L232.2,65.1z"/>
	<path class="st0" d="M64.4,71.3c3.1-1.4,4.8-3.8,4.7-7.2c-0.2-6.4-6.7-8-10.3-7.9H44.3v32h14.7c5.9,0.4,10.9-3.3,10.9-8.7
		C69.9,75.2,68,72.8,64.4,71.3z M51.2,62.3h6.2c3.3-0.2,5,0.9,4.9,3.2c-0.1,2.2-2.4,3.4-4.8,3.1h-6.3V62.3z M57.4,82.5h-6.1v-7.9
		h6.1c3.4-0.1,5.5,1.3,5.5,4C62.9,81.2,60.6,82.6,57.4,82.5z"/>
	<path class="st0" d="M83.7,64.5c-5.9-0.2-11.6,4.3-11.7,12.1C72,84.8,77.6,89,83.9,88.9c4.9,0.2,9.7-2.1,11.2-7.2h-6.9
		c-1.1,1.6-2.6,2.4-4.6,2.3c-2.8-0.2-4.8-2.8-4.7-5.3h16.5C95.7,69.2,90.6,64.4,83.7,64.5z M78.8,74c0.2-2.5,2.1-4.4,4.8-4.4
		c2.9,0,4.6,1.9,4.8,4.4H78.8z"/>
	<path class="st0" d="M119.6,64.5c-5.9-0.2-11.6,4.3-11.7,12.1c-0.1,8.2,5.5,12.5,11.8,12.3c4.9,0.2,9.7-2.1,11.2-7.2h-6.9
		c-1.1,1.6-2.6,2.4-4.6,2.3c-2.8-0.2-4.8-2.8-4.7-5.3h16.5C131.6,69.2,126.4,64.4,119.6,64.5z M114.7,74c0.2-2.5,2.1-4.4,4.8-4.4
		c2.9,0,4.6,1.9,4.8,4.4H114.7z"/>
	<path class="st0" d="M56.7,23.7c2.1-0.8,3.5-2.4,3.4-4.6c-0.1-4.4-4.8-5.3-7.2-5.2h-9.5V35h9.7c3.9,0.2,7.2-2.4,7.4-5.7
		C60.7,26.4,59.2,24.6,56.7,23.7z M48.1,17.9h4.5c1.6-0.1,2.8,0.4,2.9,1.9c0.1,1.5-1.3,2.4-2.9,2.2h-4.5V17.9z M52.7,31.1h-4.6v-5.2
		h4.7c1.5-0.2,3,1,3,2.5C55.8,30.2,54.3,31.3,52.7,31.1z"/>
	<path class="st0" d="M71.3,13.8h-8.2V35h8.2c6.1,0,10-3.8,10-10.6C81.4,17.3,77.5,13.8,71.3,13.8z M71.3,31.1h-3.4V17.8h3.4
		c3.3,0.3,5.3,2,5.3,6.5C76.6,29.2,74.7,30.8,71.3,31.1z"/>
	<path class="st0" d="M210.6,69.8c-3.5,0-5.5,3.2-5.5,6.6c-0.3,3.4,1.7,7.4,5.6,7.4c3.8,0,5.6-4.1,5.4-7.2
		C216.5,73.7,214.7,69.8,210.6,69.8L210.6,69.8z M210.6,64.5c7.7,0,12.1,5.3,12.2,11.9c-0.1,6.7-3.9,12.5-11.9,12.5
		c-8.8,0-12.5-5.7-12.2-12.5C198.8,69.8,203.4,64.5,210.6,64.5L210.6,64.5z"/>
	<path class="st0" d="M189.3,56.2h6.6v32h-6.6v-2c-1.3,1.8-3.4,2.8-6,2.8c-14.3,0.2-13.3-24.7,0-24.5c2.5,0,4.6,0.9,6,2.5V56.2
		L189.3,56.2z M184.6,69.8c-3.4-0.1-5.1,3.2-5,6.6c-0.3,3.4,1.5,7.4,5,7.4c3.4-0.1,5.1-3.7,4.8-7C189.7,73.3,188,69.9,184.6,69.8
		L184.6,69.8z"/>
</g>
</svg>
