<?xml version="1.0" encoding="utf-8"?>
<!-- Generator: Adobe Illustrator 22.0.1, SVG Export Plug-In . SVG Version: 6.00 Build 0)  -->
<svg version="1.1" id="Layer_1" xmlns="http://www.w3.org/2000/svg" xmlns:xlink="http://www.w3.org/1999/xlink" x="0px" y="0px"
	 viewBox="0 0 300 101.9" style="enable-background:new 0 0 300 101.9;" xml:space="preserve">
<style type="text/css">
	.st0{fill:#606060;}
</style>
<g>
	<path class="st0" d="M167.9,61.8c-1.4-0.3-2.6-0.9-3.6-1.8c-0.7-0.7-1.6-1.8-2.4-3.3l-2.3-4.4c-1.1-1.9-2.3-3.6-3.5-5.1l-0.3-0.4
		c0-0.1,0.1-0.2,0.3-0.3c1.6-0.7,2.8-1.8,3.6-3.4c0.7-1.5,0.9-3,0.6-4.7c-0.4-1.7-1.2-3.1-2.5-4.2c-1.4-1.2-3.2-1.7-5.4-1.7
		L140,32.8l0,0.7l0,0.1c1,0.5,1.6,1.3,1.7,2.2c0.4,3.5,0.6,7,0.6,10.5l-0.2,10.4c0,1.1-0.4,1.7-1.2,1.8c-0.2,0.1-0.3,0-0.5,0.1
		c-0.6-0.1-1.1-0.5-1.4-1.3l-10.3-24.3l-3.8,0.1l-0.2,0.7l-9.8,26.6l6.2-0.2l1.1,0l0-0.7c-0.5-0.1-0.8-0.4-1-0.9
		c-0.2-0.4-0.2-0.9-0.1-1.4l0.8-2.2l0.4-1.4l8.8-0.2l1.4,3.5c0.2,0.5,0.2,1,0,1.4c-0.2,0.4-0.5,0.7-0.9,1l0,0.7l17.3-0.3l0.9-0.1
		l0-0.7c-1.1-0.5-1.7-1.3-1.8-2.3c-0.2-2.1-0.4-5.5-0.6-10.4c-0.1-1.7-0.1-3.6-0.1-5.7l0.1-2.4l0-0.9c0-0.4,0.3-0.6,0.7-0.7l2-0.1
		c1.4,0,2.5,0.4,3.3,1.2c0.7,0.7,1.1,1.7,1.1,2.8c0,1.1-0.4,2.1-1.2,2.9c-0.4,0.4-0.9,0.7-1.4,0.9c-0.6,0.3-1.4,0.4-2.2,0.4
		c-0.5,0-0.7,0.1-0.9,0.4c-0.1,0.2-0.1,0.4,0,0.5l0.2,0.4c2.2,2.6,4.8,7.1,7.9,13.3c1.2,2.4,3.4,3.8,6.4,4c1.5,0.2,2.9,0,4.3-0.3
		L168,63c0.5-0.2,0.7-0.3,0.7-0.6C168.6,62.1,168.4,61.9,167.9,61.8z M127.9,49.3l-4.1,0.1l1.9-6.1l0.6-1.9l0.2-0.5
		c0.1,0,0.1,0.2,0.2,0.5l2.9,7.9L127.9,49.3z"/>
	<path class="st0" d="M163.7,32.3l-0.2,0.7c-0.6,1.9-1,3.4-1.1,4.7l0.7,0.1l0.9-1c0.6-0.5,1.4-0.7,2.4-0.8l2.7,0
		c0.4,0,0.6,0.2,0.7,0.6l0.3,9c0.1,2.8,0,6.2-0.2,10.5c-0.1,1-0.6,1.8-1.5,2.3l0,0.7l8-0.1l1.2,0l0-0.8c-1-0.4-1.5-1.2-1.7-2.2
		c-0.4-4.2-0.6-7.7-0.7-10.5l-0.1-8.2l0-0.8c0-0.4,0.2-0.7,0.6-0.7l2.7-0.1c1,0,1.8,0.2,2.5,0.7l0.7,0.6l0.3,0.3l0.7-0.1
		c-0.2-1.5-0.7-3.3-1.5-5.4L163.7,32.3L163.7,32.3z"/>
	<path class="st0" d="M153,60.5c-0.5,1.1-1.2,1.8-2.3,2.2l-3.3,0.9c-1.8,0.5-3.2,1.5-4.1,2.8l-0.1,0.1c-1.2,1.7-1.4,3.6-0.8,5.7
		c0.9-1.3,2.1-2.2,3.9-2.7l2-0.5c0.8-0.2,1.5-0.4,1.9-0.6c1-0.5,1.7-1.1,2.3-1.9l0.6-0.9C153.7,64,153.7,62.4,153,60.5z"/>
	<path class="st0" d="M200.3,37.1l0.7-0.1c-0.2-1.5-0.7-3.3-1.5-5.5l-15.4,0.4l0,0.7l0,0.1c1,0.5,1.6,1.3,1.7,2.3l0-0.1
		c0.3,3.5,0.5,7,0.6,10.5l0,0.1c0.1,3.3,0,6.7-0.2,10.4c0,0.5-0.2,1-0.6,1.5c-0.3,0.4-0.6,0.7-1,1l0,0.7l15.9-0.3l0.8,0
		c0.9-2.3,1.5-4.2,1.8-5.7l-0.7-0.3c-1.3,1.4-3,2.1-5.1,2.2l-4.5,0.1c-0.4,0-0.6-0.2-0.6-0.4c-0.2-1.6-0.3-3.6-0.3-5.9l0-0.7
		c0-0.3,0-0.6,0.1-0.7c0.1-0.1,0.3-0.2,0.6-0.2l3.9-0.1c1.2-0.1,2.1-0.3,2.8-0.9c0.7-0.6,1.1-1.4,1.2-2.6c0.1-0.7-0.2-0.9-0.9-0.6
		c-0.4,0.2-0.9,0.3-1.6,0.2l-5.5,0.2c-0.5,0-0.8-0.3-0.8-0.8c-0.1-2.2-0.1-4,0-5.4l0.1-1c0-0.3,0.1-0.5,0.5-0.5l4.7-0.1
		c1,0,1.8,0.2,2.5,0.7l0.7,0.7L200.3,37.1L200.3,37.1z"/>
	<path class="st0" d="M181.6,66.6l0,0.7l0.1,0c1,0.5,1.6,1.3,1.7,2.2c0.4,3.5,0.6,7,0.6,10.5c0.1,2.9,0,6.4-0.1,10.4
		c0,0.5-0.2,0.9-0.5,1.4c-0.3,0.4-0.6,0.7-1,1l0,0.7l8.4-0.2l0.9,0l0-0.8c-1.1-0.5-1.6-1.2-1.8-2.3c-0.2-1.5-0.3-5-0.6-10.4
		c-0.1-1.7-0.1-3.6,0-5.8l0.1-2.4l0-0.8c0-0.5,0.3-0.7,0.7-0.7l2,0c1.4-0.1,2.5,0.4,3.4,1.2c0.7,0.8,1.1,1.7,1.1,2.8
		c0,1.1-0.4,2.1-1.2,2.9c-0.4,0.4-0.9,0.7-1.4,0.9c-0.6,0.3-1.4,0.4-2.2,0.4c-0.5,0-0.7,0.1-0.9,0.4c-0.1,0.2-0.1,0.4,0,0.6l0.2,0.4
		c2.1,2.5,4.7,6.9,7.9,13.3c1.2,2.4,3.3,3.8,6.4,4.1c1.5,0.1,2.9,0,4.3-0.4l0.2-0.1c0.5-0.1,0.7-0.3,0.7-0.6c0-0.3-0.3-0.5-0.8-0.5
		c-1.4-0.3-2.6-0.9-3.6-1.8c-0.8-0.7-1.6-1.8-2.4-3.3l-2.3-4.4c-1.1-1.9-2.3-3.6-3.5-5.1l-0.3-0.4c0-0.1,0.1-0.1,0.3-0.3
		c1.6-0.7,2.8-1.8,3.6-3.4c0.7-1.5,0.9-3.1,0.6-4.7c-0.4-1.8-1.2-3.1-2.5-4.2c-1.4-1.2-3.2-1.7-5.4-1.7L181.6,66.6L181.6,66.6z"/>
	<path class="st0" d="M112.4,29.1c-0.2-0.2-0.4-0.3-0.8-0.2c-0.6,0.1-1.3,0.1-2.1-0.1c-2.8-0.8-5.7-1.1-8.5-0.7
		c-2.8,0.3-5.3,1.2-7.5,2.6c-1.6,1-3,2.3-4,3.9l-1.2,1.9c-1.3,2.5-2,5.4-1.8,8.7c0.1,3.2,0.9,6.1,2.4,8.7c1.5,2.4,3.4,4.3,5.9,5.7
		c2.4,1.4,5.1,2.2,7.9,2.3c3,0.2,5.8-0.3,8.7-1.5l0.3-0.2c0.4-0.2,0.7-0.6,0.8-1l1.9-5.3l-0.8-0.3c-1.7,1.6-3.7,2.7-5.9,3.1
		c-2.1,0.5-4.3,0.2-6.3-0.6c-2.1-0.8-3.9-2.2-5.2-4c-1.5-2.1-2.4-4.5-2.6-7.3c-0.2-2.8,0.4-5.2,1.8-7.3l0.1-0.1
		c1.3-1.8,3.1-3.2,5.3-4c2.2-0.8,4.3-0.9,6.4-0.3c2,0.6,3.6,1.7,4.8,3.3l0.3,0.3l0.8-0.2L112.4,29.1L112.4,29.1z"/>
	<path class="st0" d="M142.3,80.9c-0.1-3.8-1.3-7-3.7-9.5c-2.5-2.5-5.5-3.8-9.1-3.7L117.4,68l0,0.7l0,0.1c1.1,0.5,1.7,1.3,1.8,2.3
		c0.3,3.5,0.5,7,0.6,10.5c0.1,3.5,0.1,7-0.1,10.4c0,0.5-0.2,1-0.5,1.4c-0.3,0.4-0.6,0.7-1,1l0,0.7l12.1-0.3c2.9-0.1,5.4-1,7.5-2.8
		l1.4-1.4C141.3,87.8,142.4,84.6,142.3,80.9z M134.2,88c-0.7,0.9-1.5,1.6-2.3,2.1c-1,0.6-2.1,0.9-3.3,0.9l-3,0.1
		c-0.3-3.2-0.5-6.4-0.6-9.6c0-3.3,0-6.1,0.1-8.2l0-1.5l3-0.1c2.2,0,4,0.8,5.6,2.7c1.6,1.8,2.4,4.1,2.5,6.7
		C136.4,83.8,135.6,86.1,134.2,88z"/>
	<path class="st0" d="M180.7,82.7c-0.1-4.7-1.9-8.7-5.3-12c-3.4-3.3-7.5-4.8-12.2-4.7c-2.3,0-4.6,0.5-6.7,1.5
		c-1.2,0.6-2.4,1.3-3.4,2.1c-0.7,0.5-1.3,1.1-1.9,1.7c-3.3,3.4-4.9,7.5-4.8,12.3c0.1,4.7,1.9,8.7,5.3,12c3.5,3.3,7.5,4.8,12.3,4.8
		c4.7-0.1,8.7-1.9,12-5.3c0.9-0.9,1.8-2,2.4-3.1C180,89.1,180.8,86,180.7,82.7z M171.9,90.7c-0.9,1.4-1.9,2.5-3,3.2
		c-1.1,0.7-2.3,1.2-3.6,1.4c-2.8,0.4-5.3-0.4-7.7-2.5c-2.3-2.1-3.8-4.9-4.3-8.2c-0.5-3.4,0.1-6.4,1.7-9.1l0.1,0
		c1.6-2.6,3.8-4.1,6.6-4.6c2.8-0.4,5.3,0.4,7.7,2.6c2.3,2,3.7,4.8,4.2,8.1C174,84.9,173.5,87.9,171.9,90.7z"/>
	<path class="st0" d="M165.5,14.1c0-1.8-0.6-3.5-1.6-5.1c0,0,0,0,0,0l0,0c-1-1.6-2.3-3-4.1-4.2c-3.8-2.6-8.3-3.8-13.5-3.6
		c-5.2,0.1-9.7,1.5-13.3,4.2c-1.8,1.4-3.1,2.8-3.9,4.3c-1,1.6-1.4,3.4-1.4,5.2c0.1,1.1,0.3,2.2,0.7,3.2c0.2,0.7,0.5,1.2,1,1.9
		c1,1.6,2.4,3,4.1,4.2c3.7,2.6,8.3,3.8,13.5,3.7c5.2-0.1,9.7-1.5,13.3-4.2c2.5-1.9,4.1-4.1,4.8-6.4c0.1-0.4,0.2-0.8,0.3-1.2
		C165.5,15.5,165.5,14.8,165.5,14.1z M160.7,15.4c-1.7,3.1-4.2,5-7.4,5.7l1.8-1.7l0.1-0.1c0.6-0.6,1.2-1.1,1.6-1.7
		c1.1-1.4,1.8-2.7,2-4.1c0.2-2.4-0.9-4.1-3.2-5.1c-1.6-0.7-3.4-0.8-5.1-0.3c-1.1,0.3-2.2,0.8-3.1,1.5c-0.3,0.2-0.7,0.4-1.1,0.5
		l-0.2-0.1c-1.1-0.9-2.3-1.4-3.6-1.7c-1.3-0.3-2.7-0.3-4,0c-1.3,0.2-2.4,0.9-3.3,1.9c-0.9,1-1.3,2.2-1.1,3.6l0.1,0.3
		c0.3,1.1,0.8,2,1.6,2.7l0.9,0.8l1.7,1.1c0.6,0.3,1.2,0.6,1.8,0.8L142,20c0.8,0.3,1.7,0.5,2.6,0.6l1,0.2l1.2-0.1
		c1.3-0.3,2.5-1,3.5-1.9c1-0.8,1.6-1.9,1.9-3.1l0.1-0.7c0.1-0.6,0-1.1-0.1-1.6c-0.2-0.7-0.7-1.1-1.4-1.2c-1.8-0.3-3.3,0.4-4.4,2.1
		c-0.5-0.8-1.2-1.5-2.1-2c-0.8-0.4-1.6-0.4-2.3,0.1c-1.3,0.8-1.5,1.9-0.7,3.2l0,0l0,0.1c0.6,0.8,1.4,1.5,2.3,1.9l0.1,0l1.7,0.8
		c0.4,0.1,0.7,0.2,1,0.5l0,0l-0.1,0.1l-1.1-0.1l-2.3-0.6c-1.2-0.4-2.2-0.9-3.2-1.5c-1.2-0.8-1.9-1.9-2.1-3.3l0-0.2
		c0-1.4,0.7-2.4,2-3c1.2-0.6,2.4-0.6,3.7-0.3c1.2,0.4,2.3,1,3.2,2l1.8-1.3l1.2-0.6l0.9-0.3l0.8-0.1c0.9-0.1,1.8,0.2,2.5,0.7
		c1.1,0.8,1.6,1.8,1.6,3.2c-0.1,1.8-0.8,3.3-2,4.7c-0.7,0.8-1.5,1.5-2.4,2.1l-1.3,0.7l-2,0.9c-0.6,0.2-1.2,0.3-1.9,0.3l-2.2-0.4
		c-1.4-0.3-2.7-0.7-4.1-1.2c-2.2-0.8-4.2-2.1-5.8-3.7c-1.2-1.2-1.9-2.5-2.2-4.1c-0.2-1.1-0.1-2.3,0.4-3.3c0.3-0.6,0.7-1.2,1.2-1.6
		c1.8-1.6,4-2.4,6.4-2.3c1.4,0.1,2.8,0.4,4.2,0.9c0.9,0.3,1.7,0.7,2.4,1.2c0.3,0.2,0.7,0.2,1-0.1c1.4-1.1,3.2-1.8,5-2.1
		c1.5-0.2,3-0.1,4.5,0.3c1.3,0.3,2.4,1,3.3,2c1,1,1.5,2.2,1.6,3.6C161.6,13,161.3,14.3,160.7,15.4z"/>
</g>
</svg>
