<?xml version="1.0" encoding="utf-8"?>
<!-- Generator: Adobe Illustrator 22.0.1, SVG Export Plug-In . SVG Version: 6.00 Build 0)  -->
<svg version="1.1" id="Layer_1" xmlns="http://www.w3.org/2000/svg" xmlns:xlink="http://www.w3.org/1999/xlink" x="0px" y="0px"
	 viewBox="0 0 300 101.9" style="enable-background:new 0 0 300 101.9;" xml:space="preserve">
<style type="text/css">
	.st0{fill-rule:evenodd;clip-rule:evenodd;fill:#606060;}
	.st1{fill:#606060;}
</style>
<g>
	<rect x="195.2" y="34.9" class="st0" width="4.7" height="32.1"/>
	<path class="st0" d="M144.1,39c-6.4,0-11.4,5.3-11.4,12.1c0,6.6,5.1,11.8,11.6,11.8c6.4,0,11.6-5.2,11.6-11.8
		C155.8,44.1,150.8,39,144.1,39z M144.3,34.6c9.1,0,16.3,7.2,16.3,16.4c0,8.9-7.3,16.2-16.3,16.2c-9,0-16.3-7.3-16.3-16.2
		C127.9,41.9,135.2,34.6,144.3,34.6z"/>
	<path class="st0" d="M45.6,38.5c-2.9,0-5.5,2-5.1,5.1c0.2,1.3,0.8,2.1,2.1,3c0.3,0.2,1.1,0.5,2,0.8c0.9,0.3,2,0.7,3.2,1.1
		c2.3,0.8,4.7,1.7,5.6,2.7c1.7,1.6,2.7,3.7,2.7,6.1c0,6.1-4.9,10.1-10.6,10.1c-5.8,0-10.7-4-10.8-9.9h4.5c0.6,4,3.1,5.8,6.3,5.8
		c2.9,0,6-1.9,6-5.3c0-1.9-0.9-3.3-2.6-4.2c-0.4-0.2-1.1-0.5-1.8-0.8c-0.8-0.3-1.6-0.5-2.5-0.8c-1.8-0.6-3.6-1.2-4.8-1.9
		c-2.3-1.3-3.8-3.8-3.8-6.5c0-5.4,4.1-9.3,9.9-9.3c4.6,0,9.3,3.6,9.6,8.7h-4.6C50.6,40.4,48.2,38.5,45.6,38.5z"/>
	<path class="st0" d="M171.5,34.9l15.1,0v4.3h-13.6v10.4h13.6v4.3h-13.6V67h-4.7V38C168.4,36.3,169.8,34.9,171.5,34.9z"/>
	<path class="st0" d="M100.1,42.4l0,24.6h-4.7l0-29.1c0-1.8,1.5-3.2,3.2-3.2c1.2,0,2.1,0.5,2.8,1.5c4.6,7.5,13.2,21.8,14.1,23.3
		l0-24.6h4.7l0,29.1c0,1.8-1.5,3.3-3.2,3.3c-1.2,0-2.1-0.5-2.8-1.5C109.5,58.2,101,44,100.1,42.4z"/>
	<path class="st0" d="M74.3,40.8l-4.7,12.9l9.4,0L74.3,40.8z M68,57.9l-3.3,9h-4.9l11.5-30.3c0.4-1.2,1.6-2,3-2c1.3,0,2.5,0.8,3,2
		L88.8,67h-4.9l-3.3-9L68,57.9z"/>
	<path class="st1" d="M264.2,43.5c-7.9-11.7-16.8-1.4-25.7-2.7c-8.9-1.3-9.2-13.4,1.7-14.4c0.3,0,0.5,0,0.8-0.1
		C251.9,26.4,261.1,33.6,264.2,43.5z"/>
	<path class="st0" d="M264.4,44.2c0.6,2.1,0.9,4.4,0.9,6.7c0,13.6-11,24.6-24.6,24.6c-6,0-11.4-2.1-15.7-5.7c1.7,0.7,3.7,0.9,5.4,1
		C252.7,71,243.2,41.3,264.4,44.2z"/>
	<path class="st0" d="M231.8,67.9c-3.1,1.9-8,1.3-11.4-3.3c-0.8-1-1.4-2.1-1.9-3.1c-1.5-3.2-2.3-6.7-2.3-10.5c0-1,0.1-2,0.2-2.9
		c5.4,7.2,11.5,7,15.5,9.4c1.7,1.1,2.9,3,2.9,5.2C234.7,64.8,233.5,66.8,231.8,67.9z"/>
</g>
</svg>
