<?xml version="1.0" encoding="utf-8"?>
<!-- Generator: Adobe Illustrator 22.0.1, SVG Export Plug-In . SVG Version: 6.00 Build 0)  -->
<svg version="1.1" id="Layer_1" xmlns="http://www.w3.org/2000/svg" xmlns:xlink="http://www.w3.org/1999/xlink" x="0px" y="0px"
	 viewBox="0 0 300 101.9" style="enable-background:new 0 0 300 101.9;" xml:space="preserve">
<style type="text/css">
	.st0{fill:#606060;}
</style>
<g id="_x38_h1zWz_2_">
	<g>
		<path class="st0" d="M94,87.5c0.6-2,1.3-3.9,2.8-5.5c3.3-3.4,8.7-4.3,13.2-2.1c0.6,0.3,1.2,0.3,2,0.6c0.1,1.2,0.2,2.6,0.3,4.1
			c-0.1,0.1-0.2,0.1-0.3,0.2c-0.4-0.4-0.8-0.8-1.1-1.3c-1.1-2.2-2.9-3.2-5.4-3.1c-2.4,0.2-3.8,1.6-4.6,3.7
			c-1.2,3.4-1.3,6.8-0.1,10.2c0.7,2.1,2.3,3.4,4.5,3.6c2.3,0.2,4.4-0.2,5.8-2.3c0.3-0.4,0.7-0.8,1.1-1.3c0.4,2.4,0.1,3-1.8,4
			c-2.7,1.5-5.6,2-8.7,1.3c-3.8-0.9-6.3-3.1-7.4-6.9c-0.1-0.4-0.3-0.8-0.4-1.2C94,90.2,94,88.8,94,87.5z"/>
		<path class="st0" d="M147.3,73.1c-4.2-0.7-8.1-1.2-11.9-2c-5.9-1.2-11.5-3.2-16.7-6.3c-6.4-3.9-12.5-11.8-10.2-22.2
			c0.7-3,1.1-6,1.6-9.3c8.3,3,16.2,6.7,22.8,12.7C140.8,53.1,145.1,62.1,147.3,73.1z"/>
		<path class="st0" d="M150.1,72.5c0.7-1.3,1.3-2.6,2-3.8c7-13.3,18.1-21.3,32.6-24.6c5.3-1.2,5.5-1,4.8,4.3
			c-0.8,6.7-3.9,11.8-9.6,15.7c-8.4,5.7-17.7,8.1-27.6,8.7c-0.5,0-1,0-1.5,0C150.6,72.7,150.4,72.6,150.1,72.5z"/>
		<path class="st0" d="M147,64.8c-0.2-0.7-0.4-1.3-0.7-2c-2.3-7.1-4.8-14.1-9.7-20.1c-6-7.3-13.8-11.7-22.7-14.3
			c-0.8-0.2-1.5-0.5-2.3-0.8c1.9-6.3,5.3-11.2,10.4-15.1c1.3-1,2-0.3,2.9,0.5c10.6,9.5,17.1,21.3,20,35.1c1,4.9,1.7,10,2.5,14.9
			c0.1,0.5,0.1,1.1,0.1,1.6C147.3,64.8,147.2,64.8,147,64.8z"/>
		<path class="st0" d="M137.7,14.5c0-3.5,1.2-7,4-9.7c4.3-4.1,10.7-3.9,14.6,0.6c4.3,4.8,4.6,12.8,0.7,18c-4.5,6-12.4,5.9-16.8-0.2
			C138.7,20.8,137.8,17.9,137.7,14.5z"/>
		<path class="st0" d="M185.9,26.7c1.2,2.9,2.4,5.8,3.4,8.7c0.7,2.1,0.4,2.5-1.7,2.9c-14.4,2.2-24.5,10.7-32.8,21.9
			c-1.5,2-2.9,4.2-4.6,6.2c0.1-0.7,0-1.4,0.2-2c0.7-2.1,1.4-4.3,2.4-6.2c5.5-10.2,12.4-19.1,21.7-26.1
			C177.8,29.5,181.4,27.5,185.9,26.7z"/>
		<path class="st0" d="M149.7,59.6c0.6-3.4,1-7,1.9-10.3c2.7-9.4,7.7-17.7,13.3-25.6c2.6-3.7,5.6-7.1,8.5-10.7c1-1.2,1.9-1.2,2.9,0
			c2.1,2.5,4.2,5,6.3,7.5c-15.1,9.9-26.2,22.5-32.2,39.4C150.2,59.7,149.9,59.7,149.7,59.6z"/>
		<path class="st0" d="M150.1,100.1c-4.5-0.2-8.1-3.7-7.8-8c0.2-4.3,4.4-7.5,8.8-6.9c2.4,0.3,4.4,1.3,5.8,3.3
			c2.5,3.5,1.5,8.2-2.3,10.1C153.2,99.4,151.6,99.6,150.1,100.1z M146.3,92.4c0.4,1.3,0.7,2.9,1.3,4.4c0.5,1.3,1.6,2.2,3.1,2.1
			c1.5-0.1,2.3-1.1,2.8-2.3c1-2.5,0.9-5-0.3-7.4c-0.3-0.6-0.7-1.1-1.2-1.6c-1.8-1.6-4.1-1.1-4.9,1.1C146.7,89.8,146.6,91,146.3,92.4
			z"/>
		<path class="st0" d="M160,99.4c0.2-1.4,0.5-2.7,0.6-4c0.1-2.2,0-4.4-0.1-6.6c0-1.5-0.1-1.5-1.5-1.6c-0.2-1.2-0.2-1.2,1.5-1.9
			c-0.7-6.4,6.9-8.8,10.5-6.2c-0.7,0.9-1.3,1.7-2.1,2.7c-0.4-0.5-0.7-0.8-0.9-1.2c-0.7-0.9-1.6-1.2-2.6-1c-1,0.2-1,1.1-1.1,1.9
			c-0.1,1.2-0.2,2.5-0.3,3.9c1.6,0,3.2,0,4.7,0c0.2,1.1,0,1.7-1.1,1.6c0,0-0.1,0-0.1,0c-3.4,0-3.4,0-3.4,3.5c0,1.8-0.1,3.6,0,5.4
			c0.1,1.1,0.4,2.2,0.6,3.4C163.3,99.4,161.5,99.4,160,99.4z"/>
		<path class="st0" d="M196.1,98.8c-1.1,0.3-2.4,0.6-3.8,1c-0.1-0.4-0.1-0.8-0.2-1.4c-0.3,0.2-0.6,0.2-0.9,0.4
			c-1.3,1-2.8,1.2-4.4,1.1c-1.9-0.2-3-1.4-3-3.3c0-2.1,0-4.3,0-6.4c0-1.1-0.2-2.2-0.4-3.4c1,0,2.2,0,3.6,0c0,1.8,0,3.7,0,5.5
			c0,1.2,0,2.4,0,3.6c0,1,0.4,1.9,1.4,2.3c1.2,0.4,2.4,0.3,3.4-0.5c0.3-0.2,0.4-0.8,0.4-1.2c0-2.6,0.1-5.2,0-7.8
			c0-0.6-0.4-1.3-0.7-2c1.2,0,2.5,0,4.1,0c0,0.9,0,1.7,0,2.6c0,2.1,0,4.1,0.1,6.2C195.6,96.4,195.9,97.5,196.1,98.8z"/>
		<path class="st0" d="M198.4,87.3c-0.5-0.1-0.8-0.2-1.5-0.3c1.6-1.5,3.1-2.8,4.8-4.3c0.1,1.1,0.1,1.9,0.1,2.9c1.3,0,2.5,0,3.7,0
			c0.2,1-0.2,1.4-1.1,1.5c-2.6,0.1-2.6,0.1-2.6,2.7c0,2,0,3.9,0,5.9c0,2.4,1.1,3,3.1,1.9c0.2-0.1,0.5-0.2,1-0.4
			c-0.6,1.5-1.6,2.1-2.8,2.5c-2.9,0.9-4.7-0.2-4.8-3.2c-0.1-2.5,0-5.1,0-7.6C198.4,88.3,198.4,87.9,198.4,87.3z"/>
		<path class="st0" d="M123,87.3c-0.5-0.1-0.8-0.2-1.5-0.3c1.6-1.5,3.1-2.8,4.5-4.1c0.2,0.2,0.2,0.2,0.2,0.3
			c0.3,2.4,0.3,2.4,2.7,2.4c0.3,0,0.7,0,1.1,0c0.2,1.1-0.2,1.4-1.2,1.4c-2.4,0.1-2.4,0.1-2.4,2.6c0,2.1,0,4.1,0,6.2
			c0,2.3,1.1,2.9,3.1,1.8c0.2-0.1,0.4-0.2,0.6-0.3c0.1,0.1,0.2,0.2,0.1,0.2c-0.6,1.7-2.9,2.7-5,2.4c-1.5-0.3-2.3-1.4-2.3-3.4
			C122.9,93.4,123,90.4,123,87.3z"/>
		<path class="st0" d="M137.3,87.5c1.8-1.2,3.4-2.9,5.7-1.7c-0.4,0.7-0.8,1.4-1.3,2c-0.2,0.2-0.9,0.3-1.2,0.2
			c-1.7-0.6-3.3,0.4-3.3,2.2c0,2.2-0.1,4.4,0,6.6c0,0.8,0.5,1.7,0.9,2.5c-1.6,0-3.3,0-4.8,0c0.2-1.1,0.4-2.2,0.4-3.3
			c0.1-1.9,0-3.8,0-5.7c0-1.4,0.3-3-1.7-3.7c1.8-0.6,3.4-1.1,5-1.6C137.1,85.8,137.2,86.5,137.3,87.5z"/>
		<path class="st0" d="M170.4,86.8c1.8-0.5,3.3-1,5-1.5c0.1,0.7,0.1,1.4,0.2,2.3c0.5-0.4,0.9-0.6,1.3-0.9c1.1-0.8,2.2-1.3,3.5-1
			c0.7,0.1,1,0.5,0.5,1.1c-0.4,0.6-0.9,1.1-1.4,1.4c-0.9,0-1.8-0.1-2.7,0c-0.9,0.1-1.3,0.8-1.3,1.7c0,2.5,0,5,0,7.5
			c0,0.7,0.4,1.4,0.6,2.1c-1.5,0-3.2,0-5,0c1.2-1.5,0.7-3.3,0.7-4.9c0.1-1.4,0-2.8,0-4.3C172.1,88.9,172.1,87.6,170.4,86.8z"/>
		<path class="st0" d="M114.5,86.7c0.3-0.1,0.4-0.2,0.6-0.2c1.4-0.3,2.7-0.7,4.3-1c0,0.5,0.1,0.9,0.1,1.3c0,3.2,0,6.4,0,9.6
			c0,1.1,0.3,2.1,0.5,3.2c-1.3,0-3,0-4.8,0c1.2-1.9,0.6-4,0.7-5.9c0.1-1.3,0-2.5,0-3.8C115.9,88.5,115.8,87.4,114.5,86.7z"/>
		<path class="st0" d="M117.1,82.5c-1.1,0-1.8-0.5-1.8-1.4c0-0.9,0.8-1.6,2-1.6c1,0,1.6,0.5,1.6,1.4
			C118.9,81.9,118.2,82.5,117.1,82.5z"/>
	</g>
</g>
</svg>
