<?xml version="1.0" encoding="utf-8"?>
<!-- Generator: Adobe Illustrator 22.0.1, SVG Export Plug-In . SVG Version: 6.00 Build 0)  -->
<svg version="1.1" id="Layer_1" xmlns="http://www.w3.org/2000/svg" xmlns:xlink="http://www.w3.org/1999/xlink" x="0px" y="0px"
	 viewBox="0 0 300 101.9" style="enable-background:new 0 0 300 101.9;" xml:space="preserve">
<style type="text/css">
	.st0{fill:#606060;}
</style>
<g>
	<g>
		<path class="st0" d="M116.8,60.2c2.4,1,5.6,1.6,7.9,1.6c1.5,0,3.2-0.7,3.2-2.4c0-1.8-2.5-2.6-3.9-3c-3.9-1.1-7.3-2.3-7.3-6.8
			c0-5.5,4.1-8,9.1-8c2.6,0,5.1,0,7,1v4.6c-1.2-0.8-4-0.8-5.6-0.8c-1.6,0-4.2,0.1-4.2,2c0,1.9,2.5,2.4,3.9,2.8l1.7,0.5
			c3.1,0.9,5.9,3.2,5.9,6.8c0,2.4-0.8,4.5-2.8,6.1c-2,1.6-4.3,2.1-6.9,2.1c-3.2,0-5.7-0.3-7.9-1.4V60.2L116.8,60.2z"/>
		<path class="st0" d="M116.9,49.6c0,4.2,3.2,5.4,7.1,6.5c1,0.3,4.1,1.1,4.1,3.3c0,1.9-1.8,2.7-3.5,2.7c-2.3,0-5.3-0.6-7.5-1.5
			c0,0.7,0,4,0,4.4c2.2,1.1,4.6,1.3,7.6,1.3c2.9,0,5-0.6,6.7-2c1.8-1.5,2.7-3.4,2.7-5.9c0-3.6-2.9-5.7-5.7-6.5l-2.2-0.6
			c-1.4-0.4-3.6-1-3.6-2.9c0-2.3,3-2.3,4.5-2.3c1.4,0,3.9,0,5.3,0.6c0-0.7,0-3.5,0-3.9c-1.8-0.9-4.3-0.9-6.7-0.9
			C120.2,41.9,116.9,44.8,116.9,49.6z"/>
		<path class="st0" d="M100,54.2c0,3.7,2.9,7.5,7.5,7.5c2.2,0,4.7-0.3,6.6-1.2v5c-1.5,1-4.9,1.2-7.2,1.2c-3.7,0-7.6-1.4-9.8-3.7
			c-2.4-2.4-3.7-5.4-3.7-8.7c0-3.3,1.1-6.5,3.5-8.8c2.5-2.4,6-3.9,9.5-3.9c2.1,0,6,0.4,7.5,1.4v4.7c-2-0.9-4.1-1.3-6.3-1.3
			C102.8,46.6,100,50.3,100,54.2L100,54.2z"/>
		<path class="st0" d="M97.1,45.8c-2.8,2.7-3.4,6.2-3.4,8.6c0,3.2,1.2,6.1,3.6,8.4c2.2,2.2,6,3.6,9.6,3.6c1.2,0,5.2-0.1,6.9-1.1
			c0-0.3,0-3.7,0-4.4c-2.2,0.9-4.6,1.1-6.3,1.1c-4.8,0-7.9-4.1-7.9-7.9c0-3.9,2.7-7.9,7.9-7.9c2.2,0,4.2,0.4,6,1.2
			c0-0.7,0-3.8,0-4.1c-1.5-0.9-5-1.2-7.2-1.2C103,42.1,99.5,43.5,97.1,45.8z"/>
		<path class="st0" d="M136.7,60.2c2.4,1,5.6,1.6,7.9,1.6c1.5,0,3.2-0.7,3.2-2.4c0-1.8-2.5-2.6-3.9-3c-3.9-1.1-7.3-2.3-7.3-6.8
			c0-5.5,4.1-8,9.1-8c2.5,0,5.1,0,7,1v4.6c-1.2-0.8-4-0.8-5.6-0.8c-1.6,0-4.2,0.1-4.2,2c0,1.9,2.5,2.4,3.9,2.8l1.7,0.5
			c3.1,0.9,5.9,3.2,5.9,6.8c0,2.4-0.8,4.5-2.8,6.1c-2,1.6-4.3,2.1-6.9,2.1c-3.2,0-5.7-0.3-7.9-1.4V60.2L136.7,60.2z"/>
		<path class="st0" d="M136.8,49.6c0,4.2,3.2,5.4,7.1,6.5c1,0.3,4.1,1.1,4.1,3.3c0,1.9-1.8,2.7-3.5,2.7c-2.3,0-5.3-0.6-7.5-1.5
			c0,0.7,0,4,0,4.4c2.2,1.1,4.6,1.3,7.6,1.3c2.9,0,5-0.6,6.7-2c1.8-1.5,2.7-3.4,2.7-5.9c0-3.6-2.9-5.7-5.7-6.5c0,0-2.2-0.6-2.2-0.6
			c-1.4-0.4-3.6-1-3.6-2.9c0-2.3,3-2.3,4.5-2.3c1.4,0,3.9,0,5.3,0.6c0-0.7,0-3.5,0-3.9c-1.8-0.9-4.3-0.9-6.7-0.9
			C140.1,41.9,136.8,44.8,136.8,49.6z"/>
		<polygon class="st0" points="182.6,42.4 190.3,42.4 198.7,57.2 198.8,57.2 198.8,42.4 204.8,42.4 204.8,65.9 197.1,65.9 
			188.7,51.1 188.6,51.1 188.6,65.9 182.6,65.9 182.6,42.4 		"/>
		<path class="st0" d="M199.1,42.7c0,0.6,0,15.7,0,15.7l-0.6-1c0,0-8.2-14.4-8.4-14.7c-0.3,0-6.6,0-7.2,0c0,0.6,0,22.3,0,22.9
			c0.5,0,4.9,0,5.4,0c0-0.6,0-15.6,0-15.6l0.6,1c0,0,8.2,14.3,8.4,14.6c0.3,0,6.6,0,7.2,0c0-0.6,0-22.3,0-22.9
			C203.9,42.7,199.6,42.7,199.1,42.7z"/>
		<polygon class="st0" points="90,65.9 83.6,65.9 83.6,42.4 90,42.4 90,65.9 		"/>
		<path class="st0" d="M83.9,42.7c0,0.6,0,22.3,0,22.9c0.5,0,5.2,0,5.8,0c0-0.6,0-22.3,0-22.9C89.1,42.7,84.4,42.7,83.9,42.7z"/>
		<polygon class="st0" points="43.5,47.5 43.5,51.5 54.8,51.5 54.8,56.6 43.5,56.6 43.5,60.7 55.2,60.7 55.2,65.9 37.1,65.9 
			37.1,42.4 55.2,42.4 55.2,47.5 43.5,47.5 		"/>
		<path class="st0" d="M37.4,42.7c0,0.6,0,22.3,0,22.9c0.6,0,16.9,0,17.5,0c0-0.5,0-4,0-4.5c-0.6,0-11.8,0-11.8,0v-4.7
			c0,0,10.8,0,11.4,0c0-0.5,0-4,0-4.6c-0.6,0-11.4,0-11.4,0v-4.5c0,0,11.2,0,11.8,0c0-0.5,0-4,0-4.5C54.3,42.7,38,42.7,37.4,42.7z"
			/>
		<path class="st0" d="M76.8,56.6c0.1,0.1,3.5,9.3,3.5,9.3h-6.8c0,0-1.5-5.2-2.3-7.1c-0.7-1.3-1.4-1.9-2.4-1.9h-2.3v9h-6.4V42.4
			h10.6c5.7,0,8.5,1.4,8.5,6.4c0,3.2-3.2,5.3-4.3,5.5C75.6,54.8,76.3,55.3,76.8,56.6L76.8,56.6z M66.4,52.2h2.9
			c1.6,0,3.2-0.3,3.2-2.6c0-2.3-1.6-2.6-3.2-2.6h-2.9V52.2L66.4,52.2z"/>
		<path class="st0" d="M60.4,42.7c0,0.6,0,22.3,0,22.9c0.5,0,5.2,0,5.8,0c0-0.6,0-9,0-9h2.6c1,0,1.9,0.7,2.6,2.1c0,0,1.9,5.9,2.3,7
			c0.4,0,5.4,0,6.2,0c-0.2-0.4-0.4-1-0.8-2.1l-2.6-6.7c-0.5-1.1-1-1.6-1.5-2L74.3,54l0.6-0.1c0.9-0.2,4.1-2.1,4.1-5.1c0,0,0,0,0,0
			c0-2-0.5-3.4-1.4-4.3c-1.2-1.2-3.3-1.8-6.8-1.8C70.8,42.7,61,42.7,60.4,42.7z M66.1,52.2v-5.5h3.3c1.6,0,3.5,0.3,3.5,2.9
			c0,2.6-1.9,2.9-3.5,2.9h-3.3V52.2z"/>
		<path class="st0" d="M179.7,53.7c0,7.8-4.9,13.2-12,13.2c-7.1,0-12.1-5.5-12.1-13.2c0-7.2,5.8-12.3,12.1-12.3
			C174.1,41.3,179.7,46.4,179.7,53.7L179.7,53.7z M162.4,53.7c0,4.7,1.5,8.1,5.3,8.1c3.8,0,5.3-3.4,5.3-8.1c0-3.7-1.5-7.1-5.3-7.1
			C163.9,46.6,162.4,50,162.4,53.7L162.4,53.7z"/>
		<path class="st0" d="M155.9,53.7c0,7.6,4.8,12.9,11.8,12.9c6.9,0,11.7-5.3,11.7-12.9c0-6.7-5.1-12-11.7-12
			C161.9,41.7,155.9,46.2,155.9,53.7z M162.1,53.7c0-3.6,1.5-7.4,5.6-7.4c4.1,0,5.6,3.8,5.6,7.4c0,5.4-2,8.4-5.6,8.4
			C164.1,62.1,162.1,59.1,162.1,53.7z"/>
		<path class="st0" d="M260,36.9c2.3-0.8,3.5-3.4,2.6-5.6c-0.9-2.3-3.4-3.4-5.7-2.6l-25.1,9.2c-2.3,0.8-3.5,3.4-2.6,5.6
			c0.9,2.3,3.4,3.4,5.8,2.6L260,36.9L260,36.9z"/>
		<path class="st0" d="M257,28.9L257,28.9l-25.1,9.2c-1,0.4-1.9,1.1-2.3,2.1c-0.4,1-0.5,2.1-0.1,3.1c0.8,2.1,3.2,3.2,5.4,2.4
			l25.1-9.2c1.1-0.4,1.9-1.1,2.3-2.2c0.4-1,0.5-2.1,0.1-3.1C261.5,29.2,259.1,28.1,257,28.9z"/>
		<path class="st0" d="M260,50.4c2.3-0.8,3.5-3.4,2.6-5.6c-0.9-2.3-3.4-3.4-5.7-2.6l-25.1,9.2c-2.3,0.9-3.5,3.4-2.6,5.6
			c0.9,2.3,3.4,3.4,5.8,2.6L260,50.4L260,50.4z"/>
		<path class="st0" d="M257,42.5L257,42.5l-25.1,9.2c-1,0.4-1.9,1.2-2.3,2.2c-0.4,1-0.5,2.1-0.1,3.1c0.8,2.1,3.2,3.2,5.4,2.4
			l25.1-9.2c1.1-0.4,1.9-1.2,2.3-2.2c0.4-1,0.5-2.1,0.1-3.1C261.5,42.8,259.1,41.8,257,42.5z"/>
		<path class="st0" d="M260,64.1c2.3-0.9,3.5-3.4,2.6-5.6c-0.9-2.3-3.4-3.4-5.7-2.6L231.8,65c-2.3,0.8-3.5,3.4-2.6,5.6
			c0.9,2.3,3.4,3.4,5.8,2.6L260,64.1L260,64.1z"/>
		<path class="st0" d="M257,56.1l-25.1,9.2c-1,0.4-1.9,1.1-2.3,2.1c-0.4,1-0.5,2.1-0.1,3.1c0.8,2.1,3.2,3.2,5.4,2.4l25.1-9.2
			c1.1-0.4,1.9-1.2,2.3-2.2c0.4-1,0.5-2.1,0.1-3.1C261.5,56.4,259.1,55.3,257,56.1z"/>
	</g>
</g>
</svg>
