<?xml version="1.0" encoding="utf-8"?>
<!-- Generator: Adobe Illustrator 22.0.1, SVG Export Plug-In . SVG Version: 6.00 Build 0)  -->
<svg version="1.1" id="Layer_1" xmlns="http://www.w3.org/2000/svg" xmlns:xlink="http://www.w3.org/1999/xlink" x="0px" y="0px"
	 viewBox="0 0 300 101.9" style="enable-background:new 0 0 300 101.9;" xml:space="preserve">
<g>
	<path d="M225.2,75.6c-2.3,0-4.1,1.8-4,4c0,2.2,1.8,4,4,4s4-1.8,4-4C229.2,77.4,227.4,75.6,225.2,75.6z M225.2,83
		c-1.9,0-3.4-1.5-3.4-3.4c-0.1-1.9,1.5-3.4,3.4-3.4c1.9,0,3.4,1.5,3.4,3.4C228.6,81.5,227.1,83,225.2,83z"/>
	<path d="M225.9,80.1c-0.1-0.1-0.2-0.2-0.3-0.3c0.3-0.1,0.6-0.2,0.8-0.4c0.2-0.2,0.3-0.5,0.3-0.9c0-0.3-0.1-0.5-0.2-0.7
		s-0.2-0.3-0.4-0.4c-0.2-0.1-0.4-0.1-0.8-0.1h-1.7v4.7h0.5v-2.1h0.6c0.2,0,0.3,0,0.4,0.1s0.2,0.1,0.3,0.3s0.2,0.4,0.4,0.8l0.5,1h0.6
		l-0.7-1.3C226.2,80.4,226.1,80.2,225.9,80.1z M225.2,79.3h-1.1v-1.5h1.2c0.3,0,0.5,0.1,0.6,0.2c0.1,0.1,0.2,0.3,0.2,0.6
		c0,0.2,0,0.3-0.1,0.4c-0.1,0.1-0.2,0.2-0.3,0.3C225.7,79.3,225.5,79.3,225.2,79.3z"/>
	<path d="M109.7,34.2c1.8,0.8,5.6,0.7,6.2-2c0.2-1,0.1-6.2,0.1-7.4h-1.8c0,1.4,0,5.1-0.1,6.4c-0.3,2.2-4,2.3-4.4,0.2
		c-0.2-0.8-0.1-5.7-0.1-6.6h-1.7v5.7C107.9,32.1,108.1,33.4,109.7,34.2z"/>
	<path d="M131.5,34.7c3.3,0,5.3-1.8,5.3-5c0-3.3-2.1-5.1-5.3-5.1c-3.1,0-5.3,1.7-5.3,5S128.2,34.7,131.5,34.7z M131.5,26
		c2.2,0,3.2,1.8,3.3,3.6c0,2-1.1,3.7-3.2,3.8c-2.2,0.1-3.3-1.6-3.3-3.6C128.2,27.9,129.1,26,131.5,26z"/>
	<path d="M122.3,24.9h-4.5v9.6h2v-4c1.7,0,3.7,0,4.8-1.4C125.6,27.6,125.2,25.1,122.3,24.9z M119.8,29.2v-3c1.3,0,3.1-0.3,3.1,1.4
		S121.2,29.2,119.8,29.2z"/>
	<path d="M101.1,30.4h1.2l2.3,4.1h2.5l-2.6-4.4c1.2-0.5,2.2-1.2,2.2-2.7c0-1.9-1.6-2.5-3.2-2.6h-4.4v9.7h2V30.4z M101.1,26.2
		c1.4,0,3.2-0.3,3.2,1.3c0,1.8-2,1.6-3.2,1.6V26.2z"/>
	<path d="M89.7,33.4c2,1.6,5.2,1.1,7.6,0.5v-4.7h-3.5v1.3h1.6v2.1c-1.6,0.6-4.3,0.7-5-1.4c-0.7-2.1,0-5.2,3-5.2
		c1.2,0,1.9,0.4,2.5,1.4L97,26c-0.9-1-1.8-1.3-3.5-1.3C87.1,24.7,87.2,31.4,89.7,33.4z"/>
	<path d="M222.7,18.3c-3.8-1.2-7.5-2.3-11.3-3.4c-10.3,7.9-25.9,9.5-43.6,7.6c-24.8-2.6-49.8-7.1-68.1-6c-17.7,1-25.1,13.4-28,27.5
		c-1.8,14.4-1,28.3,3.1,41.5c3.3,0.5,6.6,1.1,9.9,1.6c10.5-8.5,27.4-9.4,45-7.7c18.2,1.7,41.7,4.8,64.3,4.7
		c16.4-0.2,28.5-6.9,31.6-25.6C227.8,45.3,227.5,31.9,222.7,18.3z M224,57.9c-2.1,14.4-10.7,21.7-24.5,23.4c-18,2.2-38-1-57.5-3.5
		c-29.2-3.8-52-3.4-65.2,5.8c-3.7-14.9-5.3-28.5-2.6-39.9c4.6-20,17.2-24.6,28.9-25.3c14.7-0.8,37.8,4.1,56.7,6.7
		c24.3,3.4,46.1,4,60.8-4.4C225.2,33,226.1,45.4,224,57.9z"/>
	<rect x="114.9" y="37.7" width="7.3" height="30.3"/>
	<path d="M108.5,51.4c2.6-1.7,3.7-4.2,3.1-7.6c-0.8-4.7-4.9-6.1-9.8-6.1h-14V68h14.7c3.6,0,8.7-1.5,10.1-5.9
		C114,57.8,112.4,53.1,108.5,51.4z M105.8,58.4c-0.3,2.2-2.1,3.6-4.4,3.6h-6.2V43.8h5.2c2.7,0,3.8,0.8,3.9,2.2
		c0.1,2.2-1.1,3.4-3.2,3.4h-1.9l-2.4,5.3h4.8C103.9,54.7,106.1,56.4,105.8,58.4z"/>
	<polygon points="140.9,54.7 137,37.7 125.5,37.7 125.5,68 132.7,68 132.7,49.1 137.3,68 144.5,68 149.4,48.8 149.4,68 156.8,68 
		156.8,37.7 144.8,37.7 	"/>
	<path d="M201.3,37.2c-8.4,0-15.2,6.9-15.2,15.4S192.9,68,201.3,68c8.4,0,15.2-6.9,15.2-15.4S209.7,37.2,201.3,37.2z M201.3,60.8
		c-4.5,0-8.1-3.7-8.1-8.2s3.7-8.2,8.1-8.2c4.5,0,8.1,3.7,8.1,8.2S205.8,60.8,201.3,60.8z"/>
	<path d="M180.5,51.4c2.6-1.7,3.7-4.2,3.1-7.6c-0.8-4.7-4.9-6.1-9.8-6.1h-14V68h14.7c3.5,0,8.7-1.5,10.1-5.9
		C186,57.8,184.4,53.1,180.5,51.4z M177.8,58.4c-0.4,2.2-2.1,3.6-4.4,3.6h-6.2V43.8h5.2c2.7,0,3.8,0.8,3.9,2.2
		c0.1,2.2-1.1,3.4-3.2,3.4h-1.9l-2.4,5.3h4.8C175.9,54.7,178.1,56.4,177.8,58.4z"/>
</g>
</svg>
