<?xml version="1.0" encoding="utf-8"?>
<!-- Generator: Adobe Illustrator 22.0.1, SVG Export Plug-In . SVG Version: 6.00 Build 0)  -->
<svg version="1.1" id="Layer_1" xmlns="http://www.w3.org/2000/svg" xmlns:xlink="http://www.w3.org/1999/xlink" x="0px" y="0px"
	 viewBox="0 0 300 101.9" style="enable-background:new 0 0 300 101.9;" xml:space="preserve">
<style type="text/css">
	.st0{fill:#606060;}
</style>
<g>
	<g>
		<path class="st0" d="M152,0.9c1.5,0,3-0.3,4.5,0c6.6,0.6,13,2.4,18.8,5.4c7.5,3.9,14,9.7,18.7,16.8c4.8,7.1,7.6,15.6,8.3,24.1
			c-0.1,2.3-0.2,4.6,0,6.8c-0.5,6.5-2.1,13-5,18.9c-3.3,6.8-8.2,12.9-14.2,17.5c-7.5,5.8-16.6,9.5-26.1,10.4
			c-1.4,0.1-2.9,0.4-4.3,0.3c-1-0.1-1.9,0.3-2.9-0.1c3.5-9.9,7-19.9,10.6-29.8c3.9-0.1,7.7,0,11.6,0c2.5-0.1,4.9-1.6,5.7-4
			c3.3-9.2,6.6-18.4,9.8-27.7c0.5-1.4,0.8-3,0.4-4.4c-0.6-1.9-2.3-3.2-4.1-3.7c-1.6-0.5-3.3-0.3-4.9-0.3c-5,0-9.9,0-14.9,0
			c-0.1,0.2-0.2,0.5-0.3,0.7c-8.1,22.6-16.1,45.2-24.2,67.8c-8.3-2.2-16-6.5-22.2-12.4C110,80,104.9,70.5,103,60.4
			c-0.6-3-0.8-6.1-1-9.2c0.1-6.4,1.2-12.9,3.6-18.8C111.5,17.3,125.1,5.4,141,2c-8.1,22.5-16,45.1-24.2,67.6
			c0.5,0.2,1.1,0.1,1.6,0.1c3,0,5.9,0,8.9,0c0.4,0,0.4-0.6,0.5-0.8c3.6-10.1,7.2-20.1,10.7-30.2c0.2-0.6,0.4-1.3,0.7-1.8
			c1.8,0,3.7,0,5.6,0c-3.9,10.9-7.7,21.8-11.7,32.7c0.4,0.2,0.9,0.1,1.3,0.1c3.1,0,6.2,0,9.3,0c3.5-9.9,7.1-19.8,10.6-29.7
			c0.7-2,0.8-4.4-0.4-6.3c-1.1-1.7-3-2.4-4.9-2.5c-2.6-0.1-5.2,0-7.8,0C144.8,21.1,148.5,11,152,0.9"/>
		<path class="st0" d="M172.6,37c0.3-0.3,0.9-0.1,1.3-0.2c1.4,0,2.9,0,4.3,0c-3.3,9.5-6.8,19-10.1,28.6c-1.9,0.1-3.7,0.1-5.6,0
			C165.9,56,169.2,46.5,172.6,37"/>
	</g>
</g>
</svg>
