
<svg version="1.1" id="Layer_1" xmlns="http://www.w3.org/2000/svg" xmlns:xlink="http://www.w3.org/1999/xlink" x="0px" y="0px"
	 viewBox="0 0 214.7 32.9" style="enable-background:new 0 0 214.7 32.9;" xml:space="preserve">
	<g opacity="0.7">
		<path d="M56,9c-3.9,0-7.1,3.2-7.1,7.1s3.2,7.1,7.1,7.1s7.1-3.2,7.1-7.1S59.9,9,56,9 M56,21c-2.8,0-5-2.2-5-5s2.2-5,5-5s5,2.2,5,5
			S58.8,21,56,21"/>
		<path d="M92.8,16.2c0-1.8-0.6-3.5-1.6-4.9c-0.6-0.7-1.2-1.3-2-1.7s-1.7-0.7-2.7-0.7c-3.6,0-6.5,3.1-6.5,7c0,2,0.7,3.8,1.9,5.1
			c1.2,1.3,3,2,4.8,2c2.1,0,3.6-0.6,5.1-2c0.2-0.2,0.3-0.4,0.3-0.7c0-0.5-0.4-0.9-1-0.9c-0.3,0-0.5,0.1-0.6,0.3l0,0
			c-1,0.9-2.2,1.3-3.8,1.3c-1.3,0-2.3-0.3-3.1-0.9c-0.8-0.6-1.3-1.6-1.5-2.8v-0.1h9.6C92.4,17.2,92.8,16.8,92.8,16.2 M83.6,12.1
			c0.8-0.7,1.7-1.1,2.8-1.1c1.3,0,2.3,0.4,3,1.3c0.8,0.9,1.1,2.1,1.2,2.9v0.1h-8.4v-0.1C82.4,13.9,82.9,12.9,83.6,12.1"/>
		<path d="M71.6,9c-0.3,0-0.5,0-0.8,0.1h-0.1c-2.9,0.4-5.1,2.9-5.1,5.8v7l0,0c0,0.6,0.5,1,1.1,1s1.1-0.5,1.1-1l0,0c0,0,0-6.6,0-7
			l0,0c0,0,0,0,0-0.1l0,0c0-1,0.4-1.9,1.1-2.6c0.7-0.7,1.6-1,2.7-1c1,0,2,0.4,2.7,1c0.7,0.7,1.1,1.6,1.1,2.6v7.1l0,0
			c0,0.5,0.5,1,1.1,1s1-0.4,1.1-1l0,0v-7C77.5,11.6,74.8,9,71.6,9"/>
		<path d="M106.4,10.4c0,0.2-0.1,0.3-0.1,0.5l0,0c-0.2,0.4-5.4,12.9-5.4,12.9c-0.7,1.9-1.6,4.4-3.9,5.5c-1.4,0.8-3.1,0.8-5,0.2
			c-1.3-0.5-2.4-1.4-3.1-2.5l0,0c-0.1-0.2-0.1-0.3-0.1-0.5c0-0.6,0.5-1.1,1.1-1.1c0.4,0,0.7,0.2,0.9,0.5l0,0c0.5,0.8,1.2,1.4,2,1.7
			c2.7,0.9,4.3-0.7,4.8-1.2c0.9-1.1,1.8-3.8,1.8-3.8L93.9,11l0,0c-0.1-0.2-0.1-0.4-0.1-0.6c0-0.6,0.5-1.1,1.1-1.1
			c0.2,0,0.7,0,1.1,0.8l4.5,9.6l4-9.6c0.1-0.4,0.4-0.8,1-0.8C106,9.3,106.4,9.8,106.4,10.4"/>
		<path d="M40.7,9c-1.8,0-3.5,0.8-4.6,2.1L36,11.4l-0.2-0.2c-1.1-1.4-2.8-2.1-4.5-2.1c-3.2,0-5.8,2.6-5.8,5.8v7
			c0,0.6,0.5,1.1,1.1,1.1s1.1-0.5,1.1-1.1v-7c0-2,1.6-3.6,3.6-3.6s3.6,1.6,3.6,3.6v7c0,0.6,0.5,1.1,1.1,1.1s1.1-0.5,1.1-1.1v-7
			c0-2,1.6-3.6,3.6-3.6s3.6,1.6,3.6,3.6V22c0,0.6,0.5,1,1.1,1s1.1-0.5,1.1-1v-7.1C46.5,11.6,43.9,9,40.7,9"/>
	</g>
	<g>
		<path d="M150.9,6.1c0,0.8-0.6,1.4-1.4,1.4c-0.8,0-1.4-0.6-1.4-1.4c0-0.8,0.6-1.4,1.4-1.4C150.3,4.7,150.9,5.3,150.9,6.1"/>
		<path d="M177.1,9c-3.9,0-7.1,3.2-7.1,7.1s3.2,7.1,7.1,7.1c3.9,0,7.1-3.2,7.1-7.1C184.2,12.2,181,9,177.1,9 M177.1,21
			c-2.8,0-5-2.2-5-5s2.2-5,5-5s5,2.2,5,5S179.9,21,177.1,21"/>
		<path d="M139.6,9c-1.8,0-3.5,0.8-4.6,2.1l-0.2,0.2l-0.2-0.2c-1.1-1.4-2.8-2.1-4.5-2.1c-3.2,0-5.8,2.6-5.8,5.8v7
			c0,0.6,0.5,1.1,1.1,1.1s1.1-0.5,1.1-1.1v-7c0-2,1.6-3.6,3.6-3.6s3.6,1.6,3.6,3.6v7c0,0.6,0.5,1.1,1.1,1.1s1.1-0.5,1.1-1.1v-7
			c0-2,1.6-3.6,3.6-3.6s3.6,1.6,3.6,3.6v7.1c0,0.6,0.5,1,1.1,1s1.1-0.5,1.1-1v-7.1C145.4,11.6,142.7,9,139.6,9"/>
		<path d="M150.7,10.4c0-0.6-0.5-1.1-1.1-1.1s-1.1,0.5-1.1,1.1c0,0,0,0,0,0.1l0,0v11.3l0,0c0,0.6,0.5,1.1,1.1,1.1s1.1-0.5,1.1-1.1
			V10.4L150.7,10.4L150.7,10.4"/>
		<path d="M121.3,16.1c0-3.9-3.1-7.1-7-7.1s-7.1,3.2-7.1,7.1s3.2,7.1,7.1,7.1c3.1,0,4.7-2.1,4.7-2.1v0.7c0,0.6,0.5,1.1,1.2,1.1
			c0.6,0,1.1-0.5,1.2-1.1V22L121.3,16.1L121.3,16.1z M114.3,21.1c-2.8,0-5-2.2-5-5s2.2-5,5-5s5,2.2,5,5
			C119.3,18.8,117.1,21.1,114.3,21.1"/>
		<path d="M167.5,16.1c0-3.9-3.2-7.1-7.1-7.1c-3.8,0-7,3.2-7,7.1s3.1,7.1,7,7.1c1.6,0,3.2-0.6,4.5-1.7l0.3-0.3c0,0,0.2,2.2-0.3,3.7
			c-0.2,0.7-1.3,3.1-4.5,3.1c-1.5,0-3-0.8-3.9-2.1c-0.2-0.3-0.6-0.5-1-0.5c-0.6,0-1.1,0.5-1.1,1.1c0,0.2,0,0.4,0.1,0.5l0,0
			c1.2,2.1,3.5,3.4,5.9,3.4c2.2-0.1,4-0.8,5.2-2.1c1.9-2.1,1.9-5.3,1.9-7.5L167.5,16.1L167.5,16.1z M160.4,20.8
			c-2.6,0-4.7-2.1-4.7-4.8s2.1-4.8,4.7-4.8c2.6,0,4.7,2.2,4.7,4.8C165.2,18.7,163.1,20.8,160.4,20.8"/>
		<path d="M177.1,19.5c-1.9,0-3.5-1.4-3.7-3.2c0-0.3,0.2-0.7,0.5-0.7s0.7,0.2,0.7,0.6c0.2,1.2,1.2,2.1,2.4,2.1s2.3-0.9,2.4-2.1
			c0.1-0.3,0.4-0.6,0.7-0.5c0.3,0,0.6,0.4,0.5,0.7c-0.1,0.9-0.6,1.7-1.2,2.3C178.9,19.1,178,19.5,177.1,19.5"/>
	</g>
</svg>
