<?xml version="1.0" encoding="utf-8"?>
<!-- Generator: Adobe Illustrator 22.0.1, SVG Export Plug-In . SVG Version: 6.00 Build 0)  -->
<svg version="1.1" id="Layer_1" xmlns="http://www.w3.org/2000/svg" xmlns:xlink="http://www.w3.org/1999/xlink" x="0px" y="0px"
	 viewBox="0 0 300 101.9" style="enable-background:new 0 0 300 101.9;" xml:space="preserve">
<style type="text/css">
	.st0{fill:#606060;}
</style>
<g id="XMLID_1051_">
	<path id="XMLID_1060_" class="st0" d="M176.4,22.5c0.3,2.5,4.1,5.9,5.2,5.8c0.7,0,1-3.3,1-5.8c0-1.5,0.1-2.6-0.7-2.9
		C180.7,22.1,177.5,22.6,176.4,22.5L176.4,22.5z M176.7,21.4c2.7,0,5.2-2.2,5.2-4.1c0-0.9-0.4-1.6-1.5-1.8c0.2,0.2,0.3,0.4,0.3,0.8
		c0,1.5-2.2,3.1-4.6,3.1c-0.9,0-1.1,0.6-1.1,0.9C174.9,21.1,175.6,21.4,176.7,21.4L176.7,21.4z M176.1,18.4c-0.4,0-0.9,0-1.2-0.6
		c-0.2-0.5-0.2-1.2-0.6-1.6c0.4,0.1,0.9,0.1,1.3,0.1c1.2,0,2.3-0.8,3.2-0.8c0.6,0,0.8,0.4,0.8,0.7C179.5,17.4,177.2,18.4,176.1,18.4
		L176.1,18.4z M117.1,39.2c0.9,0,0.7-5.5,2.2-5.5c0.3,0,0.4,0.3,0.4,0.8c0,1.2-0.6,3.1-0.6,4.1c0,0.5,0.1,0.7,0.4,0.7
		c0.6,0,1.7-6.1,2.8-6.1c0.3,0,0.5,0.3,0.5,0.7c0,1.3-1.6,4.9-1.6,6c0,0.2,0.1,0.3,0.2,0.3c0.7,0,2-2.9,2.4-4.3
		c0.2-0.7,0.6-1.1,0.8-1.1c0.3,0,0.5,0.3,0.5,0.9c0,1.4-1.3,4.8-2.5,7.1c-0.9,1.7-2.3,4.3-2.3,5.7c0,0.7,0.1,1.5,1.2,2.4
		c-1.7-0.1-2.4-0.3-3-1.6c-2.8,5.7,5.2,5.1,2.5,10.1c-0.5-0.9-4.5-1.8-4.5-7.1c0-4.5,4-7.2,4-9.1c0-0.4-0.1-0.7-0.5-1
		c-0.9-0.7-0.9-1.4-1.6-1.4c-0.5,0-1.1,1.2-0.5,2.2c0.2,0.3,0.4,0.6,0.4,0.9c0,0.7-1.2,2.7-2,2.7c-0.8,0-1.5-2-1.5-5.3
		c0-2.9,0.7-5.9,1.5-5.9c0.2,0,0.3,0.2,0.3,0.4c0,0.3-0.1,1-0.1,2.2C116.6,39.1,116.9,39.2,117.1,39.2L117.1,39.2z M157.5,13.1
		c0.4,0,0.5,1,0.6,1.6c0.1,0.3,0.1,0.3,0.2,0.3c0.3,0,0.8-1.2,1.2-1.2c0.5,0,1.8,1.4,4.1,1.4c3.2,0,6.2-2.2,6.2-6.2
		c0-3.8-2.7-6.1-6.4-6.1c-1.8,0-3.1,0.9-3.7,0.9c-0.4,0-1.1-1-1.4-1c-0.1,0-0.3,0.3-0.3,0.7c0,0.3,0,1.2-0.3,1.2
		c-0.6,0-3.1-1.8-3.1-1.2c0,0.6,1.6,2.5,1.6,2.9c0,0.5-1.6,0.9-1.6,1.2c0,0.6,1.7,0.7,1.7,1.4c0,0.7-1.8,1.3-1.8,1.9
		c0,0.5,1.8,0.1,1.8,0.7c0,0.6-1.3,2.4-1.3,2.9c0,0.1,0,0.1,0.1,0.1C155.6,14.8,157.1,13.1,157.5,13.1L157.5,13.1z M123.7,52.3
		c0-0.5,0.3-1,0.9-1.1c0.6-0.1,1.1,0.4,1.1,0.9c0.1,0.6-0.3,1-0.9,1.1C124.2,53.2,123.7,52.8,123.7,52.3L123.7,52.3z M120.7,53.1
		c0.1,0.9,0.9,1.6,1.9,1.5c0.3,0,0.7-0.1,0.9-0.3c0.2,0.8,0.9,1.4,1.8,1.3c1-0.1,1.7-0.9,1.6-1.9c0-0.3-0.1-0.4-0.2-0.6l0.2,0
		c0.9-0.1,1.6-1,1.6-1.9c-0.1-1-1-1.6-1.9-1.6c-0.3,0.1-0.6,0.2-0.8,0.4c-0.2-0.8-0.9-1.4-1.9-1.3c-0.9,0-1.6,1-1.5,1.9
		c0,0.1,0.1,0.3,0.1,0.5l-0.2,0C121.4,51.3,120.7,52.1,120.7,53.1L120.7,53.1z M179.5,4.5c0,0.4,0.3,0.7,0.7,0.7
		c0.4,0,0.7-0.3,0.7-0.7c0-0.4-0.3-0.7-0.7-0.7C179.8,3.8,179.5,4.1,179.5,4.5L179.5,4.5z M164.8,29.6c0,0.6,0.5,1.1,1.1,1.1
		c0.6,0,1.1-0.5,1.1-1.1c0-0.6-0.5-1.1-1.1-1.1C165.3,28.5,164.8,29,164.8,29.6L164.8,29.6z M164.8,33c0,0.7,0.6,1.2,1.2,1.2
		c0.7,0,1.2-0.6,1.2-1.2c0-0.7-0.5-1.2-1.2-1.2C165.4,31.7,164.8,32.3,164.8,33L164.8,33z M161.1,35.2c0,1,0.8,1.8,1.8,1.8
		c1,0,1.8-0.8,1.8-1.8c0-1-0.8-1.8-1.8-1.8C161.9,33.4,161.1,34.2,161.1,35.2L161.1,35.2z M162,31.5c0,0.6,0.5,1.1,1.1,1.1
		c0.6,0,1.1-0.5,1.1-1.1c0-0.6-0.5-1.1-1.1-1.1C162.5,30.4,162,30.9,162,31.5L162,31.5z M158.6,33.6c0,0.6,0.5,1.1,1.1,1.1
		c0.6,0,1.1-0.5,1.1-1.1c0-0.6-0.5-1.1-1.1-1.1C159,32.5,158.6,33,158.6,33.6L158.6,33.6z M161.3,27.4c0,0.9,0.8,1.7,1.7,1.7
		c0.9,0,1.7-0.8,1.7-1.7c0-0.9-0.8-1.7-1.7-1.7C162.1,25.7,161.3,26.5,161.3,27.4L161.3,27.4z M163.3,24.1c0,0.6,0.4,1,1,1
		c0.6,0,1-0.5,1-1c0-0.6-0.4-1-1-1C163.7,23.1,163.3,23.6,163.3,24.1L163.3,24.1z M158.5,26.7c0,0.6,0.4,1,1,1c0.6,0,1-0.5,1-1
		c0-0.6-0.4-1-1-1C158.9,25.7,158.5,26.1,158.5,26.7L158.5,26.7z M158.4,30.1c0,0.9,0.7,1.6,1.6,1.6c0.9,0,1.6-0.7,1.6-1.6
		c0-0.9-0.7-1.6-1.6-1.6C159.1,28.5,158.4,29.2,158.4,30.1L158.4,30.1z M155,31.8c0,0.8,0.7,1.5,1.5,1.5c0.8,0,1.5-0.7,1.5-1.5
		c0-0.8-0.7-1.5-1.5-1.5C155.7,30.3,155,31,155,31.8L155,31.8z M155.9,28.1c0,0.6,0.5,1.1,1.1,1.1c0.6,0,1.1-0.5,1.1-1.1
		c0-0.6-0.5-1.1-1.1-1.1C156.4,27,155.9,27.5,155.9,28.1L155.9,28.1z M152.4,67.1c0,0.6,0.5,1.1,1.1,1.1c0.6,0,1.1-0.5,1.1-1.1
		c0-0.6-0.5-1.1-1.1-1.1C152.9,66.1,152.4,66.6,152.4,67.1L152.4,67.1z M124.1,23.2c0,0.6,0.5,1.1,1.1,1.1c0.6,0,1.1-0.5,1.1-1.1
		c0-0.6-0.5-1.1-1.1-1.1C124.5,22.2,124.1,22.6,124.1,23.2L124.1,23.2z M122.7,20.8c0,0.6,0.5,1.1,1.1,1.1c0.6,0,1.1-0.5,1.1-1.1
		c0-0.6-0.5-1.1-1.1-1.1C123.2,19.8,122.7,20.3,122.7,20.8L122.7,20.8z M123.8,46.9c1.1,0,2-0.8,2-2.6v-2.7c0-1,0.1-2.2,0.7-3
		c-0.1,0.3-0.1,0.7-0.1,1.1c0,2.3,1.3,3.8,1.3,6c0,0.8-0.2,1.3-0.9,1.3c-0.6,0-0.6-0.6-0.7-0.6c-0.1,0-0.3,0.4-0.3,0.7
		c0,0.6,0.4,1.4,1.5,1.4c0.9,0,1.7-0.9,1.7-1.9c0-2.4-1.8-5-1.8-7.6c0-1.1,0.3-1.9,0.5-2.4c0,5.3,4.5,9.1,4.5,11.3
		c0,0.5-0.4,0.9-0.9,0.9c-0.6,0-0.9-0.5-0.9-0.8c0-0.2,0-0.2-0.1-0.2c-0.2,0-0.6,0.5-0.6,1.2c0,0.9,0.7,1.9,2,1.9
		c1.5,0,2.3-1.3,2.3-2.4c0-2.8-5.4-7-5.4-11.5c0-0.8,0.1-2,0.7-3c-3.5,2.3-4.6,5.2-4.6,7.9c0,2.3-0.1,3.4-1.2,3.4
		c-0.6,0-0.8-0.6-1-0.6c-0.2,0-0.2,0.5-0.2,0.6C122.4,46.4,123.1,46.9,123.8,46.9L123.8,46.9z M169.5,20.4c1.2,0,2-0.5,2-0.8
		c0-0.1-0.2-0.2-0.5-0.2c-0.3,0-1,0-2.3-0.2c-1.1-0.2-2-0.6-2.3-0.6c-0.1,0-0.2,0.1-0.2,0.1C166.3,19.4,167.6,20.4,169.5,20.4
		L169.5,20.4z M163.8,17.1c0.3-0.2,1.8,0.1,3.7-0.8c0.2-0.1,0.5-0.2,0.7-0.2c0.9,0,0.7,1.1,1.5,1.1c0.7,0,1.5-0.6,2-0.6
		c0.8,0,1.9,2.5,1.9,3.7c0,1.3-2,2.2-4.4,2.2c-3.5,0-5.6-3.1-5.6-5.1C163.6,17.2,163.7,17.1,163.8,17.1L163.8,17.1z M124.4,56.9
		c-0.9,0.2-2.3,1.6-2.3,3.8c0,2.6,2.8,6.6,7.3,6.6c3.9,0,4.8-2.7,4.8-4.5c0-4-2.5-6.8-5.6-6.8c-1.7,0-3.3,1.3-3.3,3.2
		c0,1.7,1.3,4.4,4.5,4.4c1.5,0,2.3-1.1,2.3-2.3c0-1.2-1.1-2.8-2.7-2.8c-0.5,0-0.8,0.3-0.8,0.8c0,0.6,0.9,1.3,2,1.3
		c0.3,0,0.5-0.1,0.6-0.1c0,0.1,0.1,0.2,0.1,0.3c0,0.6-0.6,1-1.5,1c-1.3,0-2.6-1-2.6-2.6c0-1,0.8-1.6,2-1.6c2.3,0,3.7,2.1,3.7,4.2
		c0,1.9-1,3-3.1,3C125.5,64.6,123.5,60.8,124.4,56.9L124.4,56.9z M121.7,28.1c-0.6,0.2-1.9,0.9-1.9,2.2c0,1,0.7,1.6,1.7,1.6
		c0.5,0,0.8-0.1,1-0.3c-0.7-0.7-1-1.5-1-2.3C121.6,28.8,121.6,28.4,121.7,28.1L121.7,28.1z M115.3,28.5c0,0.1,0,0.3,0,0.4
		c0,1.2,0.7,1.9,1.5,1.9c0.7,0,1.4-0.4,2.1-1.3c-0.3,0.1-0.6,0.1-0.9,0.1C117,29.6,115.9,29.3,115.3,28.5L115.3,28.5z M114.4,30.8
		c0,2,0.6,3,1.7,3c0.8,0,2-0.6,3.3-1.8c-1,0.2-1.8,0.4-2.5,0.4C115.9,32.4,115.2,32.1,114.4,30.8L114.4,30.8z M154.5,72.2
		c1.3,0,1.2,0,1.6,0c0.4,0,0.4,0.3,0.4,0.5c0,0.6-1.3,1.3-3.6,1.3c-1.3,0-2.2-0.7-2.4-1.5c-1.3,0.8-3.3,1.6-5.3,1.6
		c-5.4,0-6.8-2.4-8.5-3.1c-1.3-0.6-3.3,0.6-6-2.5c0.4,0.1,0.9,0.1,1.3,0.1c2.4,0,3.7-1.2,3.7-3.1c0-0.2,0-0.5-0.1-0.7
		c0.7,0.3,2.4,1.6,2.8,3.8c0.1,0.3,1.1,0.5,1.8,0.5c1,0,2.2-0.4,2.3-2c3.2-0.3,5.3-2.2,5.7-4.5c1.1,0.4,2.4,1.4,2.7,1.9
		c0.4-0.2,1-0.2,1.6-0.2c0.8,0,1.8,0.2,2.9,0.5c0.1-0.3,0.1-0.8,0.6-0.8c0.8,0,0.6,0.9,0.8,1.4c0.1,0.3,0.8,0.4,0.8,1
		c0,0.5-0.4,0.7-0.7,0.7c-0.1,0-0.2,0-0.3-0.1c-0.5,0.2-0.6,4-2.8,4c-1.6,0-3.1-1.4-3.8-3.1c-0.2-0.5-0.6-0.8-1-0.8
		c-0.4,0-0.7,0.1-1.2,0.6c-1.4,1.6-3.8,2.9-6.7,2.9c-0.9,0-1.6-0.1-1.8-0.1c-0.1,0-0.1,0-0.1,0.1c0,0.2,0.9,0.9,2.8,0.9
		c4.6,0,5.8-2.6,6.5-2.6c0.1,0,0.4-0.1,0.6,0.3C150.6,71.8,153,72.2,154.5,72.2L154.5,72.2z M139.5,19.2c1.7,0,2.5,1.5,2.5,3.2
		c0,0.7-0.2,1.8-0.6,1.8c-0.3,0-0.3-0.6-0.3-1.2c-0.1-0.7-0.2-0.9-0.4-0.9c-0.5,0-0.7,1.1-0.7,2c0,0.6,0.1,1.3,0.6,1.3
		c0.3,0,0.5-0.1,0.7-0.3c-0.1,1.2-1,2.3-2.3,2.3c-2.3,0-3.2-2.7-3.5-4.3c-1.4,1.5-2.7,2.6-5,2.6c-2.2,0-3.1-1.6-3.1-3.1
		c0-0.4,0.2-1.6,0.7-1.6c0.7,0,0.1,2.2,1.4,2.2c0.3,0,0.9-0.3,1.2-1.1c0.2-0.5,0.3-1.1,0.3-1.6c0-0.7-0.2-1.2-0.7-1.2
		c-0.5,0-1,0.4-1.2,0.5c0.6-1.9,2.2-2.9,3.8-2.9c2.1,0,3.2,1.9,3.2,3.9c0,0.3,0,0.6-0.1,0.9C136.9,20.3,138.2,19.2,139.5,19.2
		L139.5,19.2z M132.9,3.4c0-0.2-0.8-0.3-1.9-0.3c-1.7,0-1.5,1.4-2.8,1.4c-1.4,0-1-1.5-2.8-1.5c-1.1,0-2,0.2-2,0.4
		c0,0.3,1.2,0.2,1.2,1.1c0,0.9-2.7,1.2-2.7,1.7c0,0.2,0.2,0.3,0.5,0.3c0.6,0,1.5-0.3,2.2-0.3c0.4,0,0.7,0.1,0.7,0.4
		c0,0.7-1.4,1.9-1.4,2.4c0,0.2,0.1,0.2,0.3,0.2c0.5,0,1.4-1.4,2.3-1.4c1.4,0,0.5,3,1.2,3c0.8,0,0.5-2.9,1.6-2.9c0.9,0,1.6,2,2.2,2
		c0.2,0,0.3-0.1,0.3-0.3c0-0.6-0.8-1.7-0.8-2.4c0-0.5,0.3-0.7,0.7-0.7c0.6,0,1.4,0.4,1.9,0.4c0.2,0,0.3-0.1,0.3-0.2
		c0-0.6-2.3-1.3-2.3-2.2C131.6,3.7,132.9,3.7,132.9,3.4L132.9,3.4z M170.5,55.6c-0.6,0-3.6,4.1-5.6,4.1c-0.5,0-0.9-0.9-0.9-1.6
		c0-0.4,0.2-0.6,1.1-0.8c4.5-1,3.5-4.5,7.4-4.5c2.1,0,4.5,1.5,4.5,4.8c0,3.5-5,7.8-5.7,7.8c-0.6,0-1.3-0.9-1.3-1.5
		c0-0.2,0.1-0.4,0.6-0.6c2.5-1,4-3.3,4-4.5c0-0.3-0.1-0.5-0.5-0.5c-0.4,0-2.4,4.4-4.5,4.4c-1.5,0-3-1.4-3-2c0-1.1,4.3-3,4.3-4.5
		C170.9,55.6,170.7,55.6,170.5,55.6L170.5,55.6z M173.3,53.9c-0.4,0-0.8,0.3-0.8,1c0,0.8,0.6,1.3,0.9,1.5c0.2,0.1,0.5,0.2,0.8,0.2
		c0.8,0,1.4-0.2,1.4-0.8C175.6,54.9,174.4,53.9,173.3,53.9L173.3,53.9z M139.1,6.1c0,0.5,1.7,1.5,2.4,1.5c0.4,0,0.6-0.6,0.6-1.3
		c0-0.8-0.3-0.8-1-0.8C140.2,5.5,139.1,5.8,139.1,6.1L139.1,6.1z M141.8,11.3c0-1.6-4.3-4.5-4.3-5.7c0-0.1,0-0.1,0-0.1
		c0.3-0.9,3.9-1.5,3.9-2.2c0-0.3-0.6-0.3-0.9-0.3c-2.5,0-6,0.9-6,1.8c0,0.9,3.2,3.1,3.2,4.2c0,0.3-0.2,0.4-0.5,0.4
		c-0.9,0-2.8-1.1-3.8-1.1c-0.4,0-0.6,0.3-0.6,0.7c0,1.3,1.5,3.7,1.5,4.4c0,0.1,0,0.2-0.1,0.2c-0.5,0-2.6-2.7-3.4-2.7
		c-0.3,0-0.2,0.4-0.2,1v0.9c0,0.6-0.1,1-0.4,1c-0.7,0-1.1-1.9-1.7-1.9c-0.7,0-0.8,3.4-1.5,3.4c-0.8,0-0.1-3.8-0.9-3.8
		c-0.8,0-1.7,2.5-2.3,2.5c-0.2,0-0.3-0.2-0.3-0.4c0-0.8,0.5-2,0.5-2.8c0-0.4-0.1-0.6-0.4-0.6c-0.8,0-2.6,1.3-3.3,1.3
		c-0.1,0-0.2-0.1-0.2-0.2c0-0.6,2.9-2.6,2.9-3.5c0-0.9-4-0.3-4-1.3c0-0.8,2.8-1.7,2.8-2.6c0-0.8-3.4-1.1-4.6-1.1
		c-1.6,0-2.4,0.2-2.4,0.6c0,0.7,3.5,0.9,3.5,1.5c0,0.6-3.7,2.1-3.7,3c0,0.8,5.2,0.1,5.2,0.9c0,0.9-4.5,4.8-4.5,6.1
		c0,0.3,0.2,0.4,0.5,0.4c1.4,0,4.9-2.6,5.9-2.6c0.3,0,0.4,0.4,0.4,0.8c0,0.7-0.2,1.7-0.2,2.5c0,0.6,0.2,1,0.7,1c1,0,1.9-1.7,2.5-1.7
		c0.8,0,0.3,4.9,1.6,4.9c1.1,0,1.5-5.3,2.2-5.3c0.7,0,1.2,1.5,1.9,1.5c0.8,0,0.4-2.7,1.3-2.7c0.9,0,3.6,3.2,4.7,3.2
		c0.4,0,0.5-0.3,0.5-0.7c0-1.4-2-4.6-2-5.6c0-0.3,0.1-0.3,0.4-0.3c1,0,4,1.4,5.5,1.4C141.5,11.9,141.8,11.7,141.8,11.3L141.8,11.3z
		 M177.8,41.8c0.4-1.3,0.9-2.3,1.8-3.7c-0.9-0.5-3.2-1.4-3.2-3c0-1.8,2.3-3.3,2.7-3.3c0.2,0,0.3,0.2,0.3,0.5c0,1-0.5,2.5-0.5,3.3
		c0,0.7,0.5,1.5,0.9,1.5c0.5,0,1.7-1.6,1.7-3.2c0-2.8-2.5-3.7-3.2-3.7c-0.7,0-2,1.2-5,1.2c-5.7,0-7-5.6-7-8.1c0-0.1,0-0.1,0.1-0.1
		c0.1,0,0.7,0.7,2.5,0.7c0.9,0,1.8-0.2,3.1-0.2c3.2,0,4.6,2.2,6.5,5c1.2,0.7,4,1.9,4,5.3c0,3-3.1,4.6-3.9,7.8
		c1.2-0.1,1.9-2.3,3.2-2.3c0.6,0,0.9,0.5,0.9,1.3c0,1.2-0.7,2.9-1.9,4c0-0.1,0-0.2,0-0.4c0-0.7-0.3-1.8-1.1-1.8
		c-1.3,0-1.7,1.4-2.5,2.6c-0.8-2.7-1.8-5.1-3.6-6.6c-1.9-1.5-5.1-0.7-5.1-3.4c0-0.7,0.5-1.8,0.5-2.7c0-0.3-0.1-0.6-0.2-0.8
		c2.5,1,1.6,2.7,3.2,4.4c1,1.1,3.7,2.2,5.2,6.8c0-0.1,0.1-0.5,0.1-0.7c0-3.9-5.2-7.8-5.6-9.4c3,0.3,3.5,1.1,5,5.1
		C176.9,38.8,177.8,40.8,177.8,41.8L177.8,41.8z M121.2,20.2c0.1-0.4,0.2-1,0.2-1.5c0-1.3-0.6-3.2-2.4-3.2c-1,0-1.8,0.8-1.8,1.8
		C117.3,19.4,119.4,20.2,121.2,20.2L121.2,20.2z M118.9,26.9c-0.9,0-1.8-1.1-1.8-2.1c0-0.5,0.4-1.2,0.7-1.2c0.1,0,0.2,0.1,0.2,0.3
		c0.2,1.3,1,2,1.8,2.4c0.1,0.1,0.1,0.1,0.1,0.1C119.9,26.6,119.4,26.9,118.9,26.9L118.9,26.9z M122.1,24.4c0,0.4-0.2,0.9-0.6,0.9
		c-0.9,0-1.7-1.4-1.7-2.2c0-0.5,0.3-0.6,0.7-0.6c0.2,0,0.3,0,0.4,0.1c0.2,0.1,0.2,0.7,0.5,1.1C121.5,23.9,122.1,24.2,122.1,24.4
		L122.1,24.4z M121.1,21.6c-0.2,0-0.4,0-0.6,0c-0.9,0-2,0.2-3.1,0.9c-2.3,1.5-2,3.9-2.3,4.5c-0.1,0.1-0.1,0.2-0.1,0.3
		c0,0.2,0.3,0.5,0.5,0.5c0.2,0,0.3-0.1,0.4-0.1c0.6,0,1.3,0.4,2.4,0.4c0.6,0,1.3-0.2,2.2-0.6c1.9-1,2.6-3.3,2.6-3.7
		c0-0.5-0.4-0.4-0.7-0.9c-0.4-0.6-0.2-0.8-0.4-1.1C122,21.7,121.6,21.7,121.1,21.6L121.1,21.6z M123.9,25.9
		c-0.6,0.7-1.2,1.9-1.2,3.1c0,1.4,0.9,2.6,2.2,2.6c1.3,0,1.9-1.1,1.9-2.2C126.9,27.5,125.2,26.3,123.9,25.9L123.9,25.9z M118.3,20.8
		c0,0-0.8,0.6-1.7,0.6c-1.1,0-2-0.9-2-2c0-0.8,0.4-1.7,1.4-2.1c0,0.2,0,0.3,0,0.4C115.9,19.2,116.8,20.4,118.3,20.8L118.3,20.8z
		 M165.2,36.2c0-0.5,0.5-1,1-1c0.6,0,1,0.5,1,1c0,0.6-0.4,1-1,1C165.7,37.3,165.2,36.9,165.2,36.2L165.2,36.2z M165.9,66.7
		c0.1,0,0.3,0.1,0.3,0.6c0,0.6-0.3,1.4-1.2,2c-0.7,0.5-1.6,0.8-2.9,0.8c0.2-0.6,0.4-1.3,0.4-2c0-0.2,0-0.6-0.1-0.6h0.3
		C164.8,67.5,165.7,66.7,165.9,66.7L165.9,66.7z M166.2,64.1c0.2-0.2,0.4-0.5,0.4-0.8v-0.6c0-0.8-1.4-1.2-3-1.2
		c-1.9,0-3.2,0.9-3.2,1.2V64c0,0.5,1.4,1,2.8,1C164.3,65,165.5,64.7,166.2,64.1L166.2,64.1z M167.5,64.4c-0.7,0.5-2.3,1.7-5,1.7
		c-1.4,0-2.1-0.4-2.3-0.4c-0.3,0-0.6,0.3-0.8,0.6c-0.6,0.7-1.4,2.1-1.4,3.6c0,1.1,0.8,2.1,2.3,2.1c4.9,0,8.6-3.1,8.6-5.6
		C168.9,65,168.1,64.4,167.5,64.4L167.5,64.4z M168.4,42.1c0,0.7,0.2,1.4,0.9,1.4c0.6,0,1-0.9,1-1.8c0-1.1-0.2-1.9-0.2-2.3
		c0-0.2,0.1-0.3,0.2-0.3c0.4,0,0.8,1.1,1.2,1.1c0.5,0,1.2-0.9,1.5-0.9c0.1,0,0.1,0.1,0.1,0.1c0,0.4-0.6,1.3-0.6,1.6
		c0,0.3,1.5,0.3,1.5,0.6c0,0.4-1.6,0.4-2.4,0.7c-0.7,0.3-1.2,0.7-1.2,1.2c0,0.5,0.5,0.6,1.3,0.6c1.8,0,3-1,3.4-1
		c0.1,0,0.1,0.1,0.1,0.1c0,0.3-0.9,1.1-0.9,1.5c0,0.5,1.6,1,1.6,1.2c0,0.1-0.1,0.1-0.3,0.1c-0.3,0-0.7-0.1-1.1-0.1
		c-0.2,0-0.4,0-0.5,0.1c-0.2,0.2,0.1,1.6-0.3,1.6c-0.3,0-1.2-3.1-3.3-3.1c-0.3,0-0.5,0.2-0.5,0.6c0,1.1,1,2.3,2,2.9
		c0.4,0.3,1.2,0.6,1.2,0.7c0,0.3-1.7,0-1.7,0.6c0,0.5,0.2,1.2,0.2,1.6c0,0.1,0,0.3-0.2,0.3c-0.3,0-1.1-1.5-1.4-1.5
		c-0.3,0-1,0.9-1.3,0.9c-0.1,0-0.1-0.1-0.1-0.1c0-0.6,1-2,1-3.3c0-0.6-0.1-2-0.8-2c-0.6,0-1.3,1-1.7,2c-0.2,0.6-0.1,2.8-0.5,2.8
		c-0.4,0-0.3-1.5-0.8-1.5c-0.4,0-1.2,0.7-1.5,0.7c-0.1,0-0.1,0-0.1-0.1c0-0.3,0.8-1.3,0.8-1.6c0-0.4-1.7-0.4-1.7-0.8
		c0-0.2,0.7-0.3,1.3-0.4c1.3-0.2,3.3-1.2,3.3-2.6c0-1.5-1.5-2.2-2.4-2.8c-0.5-0.3-1.1-0.6-1.1-0.8c0-0.2,0.6-0.2,0.9-0.2
		c0.4,0,0.8,0,0.8-0.3c0-0.2-0.1-0.7-0.1-1.1c0-0.3,0-0.5,0.1-0.5c0.4,0,1,1.3,1.2,1.3c0.4,0,1-1.1,1.4-1.1c0.1,0,0.2,0.1,0.2,0.3
		C168.9,40,168.4,41.1,168.4,42.1L168.4,42.1z M155.8,34.3c0.3,2.3,3.3,1.1,3.3,3.8c0,0.4-0.1,1-0.1,1.5c0,0.6,0.1,1.1,0.5,1.1
		c0.4,0,0.6-0.3,0.6-0.7c0-0.4-0.1-1-0.1-1.2c0-0.9,0.7-1.1,1-1.1c1,0,1.8,1,3.3,1c-0.3,1.7-3.8,1.2-3.8,3.1c0,0.9,0.9,1.1,1.5,1.1
		c0.6,0,0.7-0.1,0.7-0.6c0-0.3-0.1-0.6-0.1-0.8c0-0.1,0.1-0.2,0.2-0.2c0.6,0,3.4,2.2,3.4,2.8c0,0.6-3,1.2-3.9,1.2
		c-0.3,0-0.3-0.2-0.3-0.3c0-0.2,0.5-0.7,0.5-1.1c0-0.2-0.4-0.4-1.5-0.4c-0.5,0-0.9,0.1-0.9,0.4c0,0.7,1.2,1.6,1.2,2.3
		c0,0.5-0.3,0.8-1.2,0.8c-0.7,0-1.8-0.6-1.8-1.5c0-0.7,0.8-1.5,0.8-1.9c0-0.1-0.1-0.3-0.4-0.3c-1,0-1.2,2.6-4.7,2.9
		c0.6-0.5,1-1.1,1-2.2c0-0.6-0.1-1-0.1-1.6c0-0.8,0.4-1.2,0.9-1.2c1,0,1.5,1.4,2.1,1.4c0.3,0,0.7-0.3,0.7-0.8c0-2-3.8-1.7-3.8-4.6
		C154.8,36.6,155.1,35.7,155.8,34.3L155.8,34.3z M160.8,51.6c0,0.4,0.3,0.7,0.6,0.7c0.4,0,0.7-0.4,0.7-0.8c0-0.6-0.5-1.3-1-1.3
		c-0.2,0-0.1,0.3-0.2,0.7C160.9,51,160.8,51.3,160.8,51.6L160.8,51.6z M159.4,48c2.8,0.5,4.3,2.6,4.3,4.6c0,1.3-0.8,2.6-2.3,2.6
		c-1.3,0-2.3-0.9-2.3-2.4c0-1.1,0.9-2.3,0.9-3.4C159.9,48.9,159.8,48.5,159.4,48L159.4,48z M155.9,52.5c0.3,0.3,0.3,0.5,0.3,0.8
		c0,0.4-0.2,0.8-0.2,1.3c0,0.6,0.5,1.2,1.2,1.2c0.7,0,1.2-0.6,1.2-1.3C158.5,53.5,157.5,52.5,155.9,52.5L155.9,52.5z M164.7,50.8
		c0.2,0.3,0.3,0.6,0.3,0.8c0,0.7-0.5,1.4-0.5,2.2c0,0.9,0.7,1.6,1.7,1.6c1.1,0,1.8-0.9,1.8-1.9C167.9,52.2,166.6,51,164.7,50.8
		L164.7,50.8z M156.6,49.4c1.2,0.2,1.5,0.6,1.5,0.9c0,0.6-0.5,0.8-1,0.8c-0.4,0-0.8-0.1-1.2-0.1c-0.6,0-1.2,0.1-1.6,0.7
		c0.3,0.1,0.8,0.3,0.8,0.8c0,1.5-4.2,0.3-4.2,4.2c0,2.1,2.2,4.4,5.4,4.4c1.7,0,2.8-0.6,2.8-1.2c0-0.5-0.9-0.2-0.9-0.6
		c0-0.2,0.3-0.5,0.3-0.8c0-0.1-0.1-0.4-0.3-0.4c-0.5,0-1.4,0.8-3.2,0.8c-1.4,0-2.8-0.8-2.8-1.9c0-0.2,0.1-0.4,0.3-0.4
		c0.2,0,0.4,0.1,0.6,0.1c0.2,0,0.2-0.1,0.2-0.4c0-0.3,0-1.1,0.5-1.1c0.5,0,1.5,1.9,5.1,1.9c1.2,0,3.6-0.2,4.4-1c0,2.9-2.3,6.8-7,6.8
		c-4.9,0-7.6-4-7.6-7.6c0-4.1,3.3-7.7,7.8-7.7c1.2,0,2.1,0.4,2.1,0.9C158.4,49,156.7,48.6,156.6,49.4L156.6,49.4z M137.5,22.3
		c0-0.5-0.1-0.6-0.2-0.6c-0.3,0-0.6,0.3-1,1c0,1,0.2,1.4,0.5,1.4C137.1,24.2,137.5,23.2,137.5,22.3L137.5,22.3z M133.9,23.4
		c0.3,0,0.7-0.3,1.3-1.1c0.1-0.4,0.1-0.7,0.1-1.1c0-0.5-0.2-1.1-0.5-1.1c-0.8,0-1.2,2.1-1.2,2.7C133.6,23.1,133.7,23.4,133.9,23.4
		L133.9,23.4z M138.2,25.7c0.7,0,1.4-2.5,1.4-4.1c0-0.3-0.1-0.7-0.2-0.7c-0.6,0-1.5,2.6-1.5,4.1C137.9,25.5,138,25.7,138.2,25.7
		L138.2,25.7z M131.7,24.3c0.9,0,1.9-4.9,1.9-5.7c0-0.2-0.1-0.4-0.3-0.4c-0.8,0-2,4.6-2,5.7C131.4,24.1,131.5,24.3,131.7,24.3
		L131.7,24.3z M134.6,26.3c-1.1,0-1.2,1.4-1.2,4.2c-0.8-1.8-2.2-3.8-3.9-3.8c-1.1,0-1.5,0.7-1.5,2c0,0.3,0,0.7,0.1,0.9
		c0.1-0.4,0.6-0.6,1.1-0.6c1.1,0,2.5,0.9,3.4,2.1c-1-0.2-2-0.4-2.9-0.4c-0.5,0-1,0.1-1.4,0.2c-0.8,0.3-1.8,1.5-1.8,3.2
		c0,0.3,0,0.6,0.1,0.9c0.9-2.1,3.4-3,5-3c0.3,0,0.6,0,0.7,0.1c-0.8,0.7-1,2-1.1,2.9c0,0.4-0.2,0.5-0.5,0.5c0,0.9,0.7,2.2,0.7,2.8
		c0,0.2-0.1,0.4-0.3,0.5c0,1.2,1.2,2,1.2,2.8c0,0.2,0,0.3-0.1,0.4c0.1,0.5,1.3,1.3,1.5,1.6c0.3,0.6,0.5,0.6,0.6,0.6
		c0.4,0,1.2-0.5,1.2-1c0-0.2-0.1-0.4-0.2-0.4c-0.5-0.4-0.8-1.2-1-1.7c-0.2,0-0.4-0.1-0.5-0.4c-0.1-0.3-0.2-1.6-0.4-2.2
		c-0.3-0.1-0.5-0.2-0.5-0.9c0-0.3,0.2-1.7,0.2-2.2c-0.2,0-0.4-0.1-0.4-0.4c0-0.8,0.8-1.5,1.1-2.6c1.5,1.1,1.9,2.2,1.9,3.3
		c0,0.5-0.1,1-0.2,1.5c1.1-0.6,2.8-1.4,2.8-3c0-1-0.4-2.1-3.4-2.5c0.9-0.3,2.1-0.5,3.1-0.5c1.7,0,2.7,0.5,2.9,1.7
		c0.3-0.5,0.6-1.1,0.6-1.7c0-1.3-1.1-2.1-2.5-2.1c-1.6,0-3,0.8-4.6,1.9c0.7-1.4,1.2-2.3,2-2.3c0.1,0,0.3,0,0.4,0.1
		C136.4,27.4,135.2,26.3,134.6,26.3L134.6,26.3z M117.8,9.8c0,0.5-2,2.3-2.7,2.3c-0.3,0-0.4-0.3-0.4-0.6c0-0.5,0.2-1.3,0.5-1.5
		c0.3-0.3,1.1-0.5,1.7-0.5C117.3,9.5,117.8,9.6,117.8,9.8L117.8,9.8z M179,45.4c1.3,0,2.4,1.7,2.4,3.7c0,2.1-1,4.5-2.8,6.1
		c0-3.6-4.4-2.4-4.4-5c0-1.1,0.8-1.9,1.7-1.9c0.8,0,1.5,0.2,2,0.7c-0.5-0.5-0.7-1.1-0.7-1.7C177.2,46.3,177.8,45.4,179,45.4
		L179,45.4z M159.4,18.3c-0.2-0.3-1-0.5-1.4-0.5c-1.2,0-2,0.8-2.1,1.6c-0.1-0.3-0.2-0.6-0.2-0.9c0-1.2,0.8-2.6,2.7-2.6
		c1.7,0,2.3,0.9,2.6,0.9c0.3,0,0.5-0.3,0.7-0.3c0.3,0,0.3,0.4,0.3,0.8c0,1.1-0.5,2.9-1.7,3.6c-0.2-0.5-0.6-1-1.3-1.3
		c-0.2-0.1-0.3-0.2-0.3-0.4C158.9,18.8,159.1,18.5,159.4,18.3L159.4,18.3z M155.5,20.2c0.7,0.7,1.3,1,2,1c0.3,0,0.6-0.1,0.8-0.1
		c0.2,0,0.4,0.1,0.4,0.3c0,0.3-0.3,0.8-0.6,1c0.3,0.1,0.7,0.2,1,0.2c1.5,0,3.2-1,3.2-3.3c0.3,0.4,0.5,1.3,0.5,1.7c0,2.9-2.1,4-4.1,4
		c-1.3,0-1.9-0.4-2.1-0.4c-0.5,0-0.5,1-0.8,1c-0.6-0.1-1.2-1.5-1.2-2.9C154.8,21.8,155,20.9,155.5,20.2L155.5,20.2z M137.1,12.5
		c0,0.9,3.3,5.5,3.9,5.5c0.5,0,0.9-0.9,0.9-1.7c0-0.2-0.1-0.4-0.2-0.6c-0.5-0.7-3.8-3.3-4.6-3.3C137.2,12.4,137.1,12.4,137.1,12.5
		L137.1,12.5z M175.2,10.3c0-1.9-4.5-2.4-4.5-2.8c0-0.3,2.5-0.9,3.8-1c-2-2.5-4.8-2.3-4.8-2.7c0-0.3,2.1-0.8,4.1-0.8
		c1.6,0,3.2,0.4,3.2,1.6c0,0.7-0.6,1.4-0.6,2.5c0,0.6,0.3,1.1,1.1,1.1c0.8,0,1-0.9,1-1.8c0-0.8-0.1-1.3-0.1-1.7
		c0-1.1,0.8-1.9,1.8-1.9c0.9,0,1.1,0.4,2.4,0.4c-0.7,0.4-1,1.2-1,1.6c0,1.1,0.7,1.9,0.7,4.2c0,4.2-3.9,5.7-8.7,5.7
		c-1.3,0-2.7-0.1-4.1-0.3c-0.2,0-0.3-0.1-0.3-0.2c0-0.3,1.9-0.5,1.9-2.2c0-0.7-0.2-1.3-0.2-1.5c0-0.1,0.1-0.2,0.2-0.2
		c0.4,0,1.2,1.5,2.7,1.5C174.2,11.7,175.2,11.6,175.2,10.3L175.2,10.3z M179.6,7.7c0,2.4-1.7,4.2-4.8,4.7c0.3,0,0.7,0,1,0
		c3.6,0,4.9-1.6,4.9-3C180.7,8.6,180.3,7.9,179.6,7.7L179.6,7.7z M177.1,29c0-0.6-1.4-0.6-1.5-2.2c0-0.2-0.1-0.7-0.4-0.7
		c-0.5,0-0.1,1.5-0.6,1.5c-1.2,0-1.6-2.4-2.1-2.4c-0.1,0-0.2,0.1-0.2,0.4c0,0.3,0.1,0.5,0.1,0.8c0,0.4-0.1,0.6-0.4,0.6
		c-0.7,0-1.3-1.7-2-1.7c-0.1,0-0.3,0.1-0.3,0.2c0,0.3,0.5,0.9,0.5,1.2c0,0.6-1.7,0.3-1.7,0.8c0,0.2,0.2,0.3,0.6,0.3
		c0.6,0,1.4-0.2,1.9-0.2c0.3,0,0.7,0.1,0.7,0.4c0,0.4-0.9,0.8-0.9,1.2c0,0.2,0.2,0.2,0.3,0.2c0.7,0,2-1.2,2.9-1.2
		c0.2,0,0.6,0.1,0.6,0.3c0,0.4-0.9,1-0.9,1.5c0,0.1,0.1,0.3,0.2,0.3c0.5,0,1.1-1.2,2-1.2c0.3,0,0.8,0.1,1.1,0.1
		C177.1,29.2,177.1,29.1,177.1,29L177.1,29z M158.3,8.8c0-0.3-1-0.8-1-1.2c0-0.1,0.1-0.1,0.1-0.1c0.3,0,0.8,0.1,1.2,0.1
		c0.3,0,0.4-1.5,0.7-1.5c0.2,0,0.5,1.4,0.8,1.4c0.3,0,1-0.4,1.2-0.4c0.1,0,0.1,0,0.1,0.1c0,0.2-0.7,0.9-0.7,1.1
		c0,0.2,1.5,0.5,1.5,0.7c0,0.3-1.5,0.2-1.5,0.5c0,0.2,0.6,0.9,0.6,1.2c0,0.1,0,0.1-0.1,0.1c-0.2,0-1-0.4-1.3-0.4
		c-0.3,0-0.8,1.1-1,1.1c-0.1,0-0.1-0.1-0.1-0.2l0-1.1c0-0.1-0.1-0.2-0.2-0.2c-0.3,0-0.9,0-1.1,0c-0.1,0-0.2,0-0.2-0.1
		C157.2,9.7,158.3,8.9,158.3,8.8L158.3,8.8z M163.4,13.8c-1.9,0-3.1-0.9-3.1-1.4c0-0.2,0.2-0.4,0.4-0.4c0.6,0,1.9,0.9,2.3,0.9
		c0.1,0,0.2-0.1,0.2-0.2c0-0.5-0.5-1.3-0.5-1.7c0-0.1,0.1-0.2,0.2-0.2c0.7,0,1.8,0.3,2.3,0.3c0.2,0,0.2-0.1,0.2-0.2
		c0-0.6-1.7-1.7-1.7-2.1c0-0.3,2.1-0.8,2.1-1.3c0-0.5-2.9-0.2-2.9-0.7c0-0.4,0.6-1,0.6-1.3c0-0.1-0.1-0.2-0.3-0.2
		c-0.2,0-1.5,0.5-2,0.5c-0.3,0-0.6-0.1-0.6-0.4c0-0.6,1-1.3,2.6-1.3c2.6,0,4.2,1.8,4.2,4.8C167.5,12.8,164.8,13.8,163.4,13.8
		L163.4,13.8z M145.5,59.6c0,0.2-0.1,0.5-0.3,0.8c-0.3-0.5-1.1-0.8-1.5-0.8c-2.7,0-1.7,3.9-4.6,3.9c-1.2,0-1.3-0.2-1.8-0.2
		c-0.2,0-0.3,0.1-0.3,0.2c0,0.7,1,2.4,3.7,2.4c2.7,0,5.3-1.7,5.3-3.7c0-0.3-0.1-0.7-0.2-1.1c0.1-0.2,0.4-0.3,0.6-0.3
		c0.4,0,0.7,0.5,1.1,0.5c0.4,0,0.7-0.3,0.7-0.7c0-0.3-0.2-0.6-0.5-0.7c0.2-0.2,0.4-0.4,0.4-0.7c0-0.5-0.3-0.9-0.8-0.9
		c-0.2,0-0.4,0.1-0.6,0.3c-0.1-0.5-0.3-0.9-0.8-0.9c-0.4,0-0.7,0.3-0.7,0.7C145.3,58.9,145.5,59.2,145.5,59.6L145.5,59.6z
		 M138.5,60.7c-0.8,0-2-0.8-2-1.3c0-0.4,0.4-0.6,0.7-0.6c0.7,0,1.8,0.8,1.8,1.5C139,60.4,138.9,60.7,138.5,60.7L138.5,60.7z
		 M131.1,54.7c2.1,0.5,3.2,1.7,3.4,3c0.2,1.3,0.5,2.4,1,2.9c0.7,0.7,2,1.4,3.1,1.4c0.9,0,1.7-0.3,1.7-1.2c0-1-1.3-3.1-3.2-3.1
		c-0.2,0-0.4,0-0.7,0c-0.2,0-0.6-0.1-0.8-0.2c-0.4-0.4-0.6-2.4-1.3-3.6c-0.9-1.3-1.8-1.7-3.1-1.7c-0.9,0-2,0.5-2,1.2
		C129.2,54,129.4,54.3,131.1,54.7L131.1,54.7z M144.3,51.5c0-1.2-2.5-1.2-2.5-3c0-0.4,0.3-1.2,0.9-2c0.2,1.4,0.8,2.1,2,2.5
		c2.3,0.9,2.7,2.2,2.7,3.6c0,2.4-1.7,5.4-5.9,5.4c-3.4,0-5.9-3.1-5.9-5.7c0-0.7,0.2-1.5,0.6-1.5c0.4,0,0.5,0.3,0.8,0.6
		c1.2,1.2,2.5,1.5,4.4,1.5C143.1,52.9,144.3,52.2,144.3,51.5L144.3,51.5z M144.4,53.4c-0.9,0.4-1.3,0.3-1.3,1.3c0,0.3-0.1,0.8-0.1,1
		c0,0.3,0.1,0.5,0.4,0.5c0.9,0,2.5-1.6,2.5-3c0-0.4-0.2-0.5-0.5-0.5C145.3,52.7,145.1,53.1,144.4,53.4L144.4,53.4z M136,40
		c0-1.7,4-2.6,4-4.7c0-0.3-0.1-1-0.4-1.4c1.4,0.8,2.4,2.1,2.4,3.1c0,1.8-1.9,2.7-1.9,3.8c0,1.3,2,1.5,2,3.2c0,1.3-1.9,2.9-1.9,4.7
		c0,1.3,0.9,2.5,2.4,2.6c-0.5,0.1-0.9,0.2-1.3,0.2c-2.7,0-5.4-2.2-5.4-4.8c0-1.3,0.6-2.4,1.4-3.3c0.7,0.6,1.5,1.1,2,1.1
		c0.4,0,0.6-0.2,0.6-0.5C139.9,43,136,42.1,136,40L136,40z"/>
	<path id="XMLID_1052_" class="st0" d="M141.5,96.7c0.7,0,2-0.2,3-1.9c-0.6-1.3-1-3.9-1-4.8c-0.3-4.8,1.6-9.4,3.6-9.5
		c1.5-0.1,2.7,1.3,2.8,3.6c0.4,6-1.6,8.6-2.6,10.7c0.2,0.8,1.6,2.3,2.9,2.3c0.5,0,1.1-0.3,1.2-0.5c-0.1-0.3-0.2-0.8-0.2-1.4
		c0-3.5,2.2-6.4,4.2-6.4c1.5,0,2.4,2,2.4,3.4c0,1.6-1.3,2.9-3.3,4.1c0.3,0.3,1,0.6,1.5,0.6c2.8,0,4.3-3.4,5.4-6.6
		c0.2-0.6,0.6-1.4,1.2-1.4c1.2,0,1.7,7.9,3.7,7.9c0.9,0,1.5-1.7,1.5-3.1c0-1-0.3-1.1-0.3-2.6c0-1.6,0.8-2.9,2-2.9
		c0.7,0,0.9,0.7,0.9,1.5c0,3.2-2.3,9.1-5.7,9.1c-2.5,0-2.3-4.4-3.2-4.4c-1,0-2.4,4.4-7.3,4.4c-0.8,0-1.6-0.4-2.3-1.2
		c-1.2,0.8-2.2,1.2-3.3,1.2c-1.8,0-2.6-1.9-3.4-1.9c-0.9,0-1.9,2-4.9,2c-2.4,0-2.8-3.2-3.6-3.2c-0.7,0-1.9,3.2-3.1,3.2
		c-2.1,0-2.5-5.5-4.4-5.5c-1.4,0-6,5.6-7.2,5.5c-0.5-0.1-0.7-0.4-0.7-0.9c0.1-0.7,0.7-2.5,0.9-3.4c0.4-1.5,0.8-3.2,1-3.7
		c0.2-0.5,0.8-0.9,1.2-0.9c0.2,0,0.3,0.4,0.4,0.8c0.3,1.2,0.6,2.5,1,2.5c0.7,0,3-4.5,4.3-4.5c1.6,0,1.8,7,4.1,7c0.7,0,1.3-0.9,1.8-2
		c0.1-1.9,0.5-4.5,2-4.5c1,0,1.5,2.3,0.8,4.4C138.8,96.1,140.4,96.7,141.5,96.7L141.5,96.7z M178.5,92c0-1.2-1.1-3-2.8-3
		c-2.2,0-4.4,2.5-4.4,5.8c0,3,1.9,4,3.8,4c3.3,0,5.3-2.7,6.3-4.9c0.5,1.5,0.8,4.9,2,4.9c0.5,0,0.8-0.3,1.4-1.6
		c1.5-3.4,2.9-7.2,4.9-7.2c0.7,0,0.3,1.3,2.1,1.3c0.8,0,1.4-0.7,1.4-1.5c0-1.1-1-2-2.6-2c-4.7,0-5.7,7-6.4,7c-1.2,0-0.8-5.6-1.7-5.6
		c-0.8,0-1.2,0.9-1.3,1.4c-0.6,2.6-2.5,6.3-5.3,6.3c-0.6,0-1.8-0.3-1.8-0.9C174.2,95.5,178.5,95.4,178.5,92L178.5,92z M148.3,85.5
		c-0.1-1.4-0.4-2-1.2-2c-1,0.1-1.5,3.2-1.3,6.5c0.1,2.1,0.4,2.5,0.7,2.5C147.1,92.4,148.4,88.6,148.3,85.5L148.3,85.5z M140.2,82.5
		c0-0.8-0.7-1.4-1.5-1.4c-0.9,0-1.8,1-1.7,2.2c0,0.8,0.5,1.5,1.5,1.5C139.5,84.9,140.3,83.7,140.2,82.5L140.2,82.5z M155.6,92.7
		c0-0.8-0.4-1.5-1-1.5c-0.5,0-1.5,0.5-1.5,2.1c0,1.3,0.4,1.8,0.6,2.1C155.2,94.9,155.6,93.7,155.6,92.7L155.6,92.7z M175.1,91
		c1,0,1.3,1.2,1.1,2c-0.2,0.8-1.1,1.6-2.5,1.9C173.3,94.1,173.2,91,175.1,91L175.1,91z M106.7,91.8c0-2.1,0-4.1,0.9-7
		c0.4-1.5,0.8-2.1,2.2-2.4c1.1-0.2,1,0.9,0.7,2.3c-0.5,3-0.8,4.4-0.6,7.8c0.2,3.6,1.8,5,3.6,5c2.7,0.1,3.9-2.2,4.4-5.4
		c0.4-2.6,0.1-3.8-0.2-4.6c-0.2-0.4-0.5-1.5-0.7-2.2c-0.2-1.9,0.7-2.8,1.4-3c0.9-0.3,1.2,0.2,1.6,1.3c0.5,1.6,0.5,3.7,0.4,6.7
		c-0.2,4.1-2.2,9-7.3,8.9C108.9,99,106.9,96.2,106.7,91.8L106.7,91.8z"/>
</g>
</svg>
