<?xml version="1.0" encoding="utf-8"?>
<!-- Generator: Adobe Illustrator 22.0.1, SVG Export Plug-In . SVG Version: 6.00 Build 0)  -->
<svg version="1.1" id="Layer_1" xmlns="http://www.w3.org/2000/svg" xmlns:xlink="http://www.w3.org/1999/xlink" x="0px" y="0px"
	 viewBox="0 0 300 101.9" style="enable-background:new 0 0 300 101.9;" xml:space="preserve">
<style type="text/css">
	.st0{fill-rule:evenodd;clip-rule:evenodd;fill:#606060;}
</style>
<g>
	<path class="st0" d="M80.6,29.3H46.3c-0.2,0-0.3,0.2-0.3,0.3c0,0.2,0.2,0.3,0.3,0.5c0.3,0.2,0.5,0,0.8,0.2c0.3,0.2,0.5,0.3,0.8,0.5
		c0.3,0.3,0.5,0.5,0.8,1c0.3,0.3,0.5,0.7,0.5,1.2c0.2,0.3,0.2,0.5,0.3,1c0,0.2,0,0.3,0,0.7v38.3H69c0.3,0,0.5-0.2,0.5-0.5
		c-0.2-0.3-0.3-0.3-0.7-0.5c-0.3-0.2-0.7-0.2-1.2-0.5c-0.3-0.3-0.5-0.5-0.8-0.8c-0.3-0.3-0.5-0.5-0.7-0.8c-0.2-0.3-0.3-0.7-0.3-1
		c-0.2-0.5-0.2-0.8-0.2-1.3c0-7,0-7.7,0-15.2h4.8c0.8,0.2,1.3,0.2,2,0.2c0.5,0.2,0.8,0.2,1.2,0.3c0.7,0.2,1.2,0.2,1.7,0.5
		c0.7,0.2,0.8,0.3,1.7,0.5c0.7,0.3,0.7,0.5,1.2,0.8c0.5,0.2,0.8,0.3,1.2,0.8c0.5,0.2,0.7,0.5,1,0.8c0.3,0.3,0.5,0.5,0.7,0.8
		c0.3,0.5,0.5,0.7,0.7,1.2c0.2,0.3,0.2,0.7,0.3,1c0,0.2,0.2,0.3,0.5,0.3c0.2,0,0.5-0.2,0.3-0.3c-1.5-6.8-1.3-5.8-3.2-14.2
		c0-0.2-0.2-0.3-0.3-0.3c-0.2,0-0.3,0-0.5,0c-0.3,0.2-0.2,0.8-0.2,1.5c-0.2,0.5-0.2,0.8-0.5,1.3c-0.3,0.5-0.5,0.7-0.8,0.8
		c-0.5,0.3-0.7,0.5-1.2,0.7c-0.3,0.2-0.5,0.2-0.8,0.2c-5,0-4.8,0-9.7,0V32.1h5.2c0.8,0,1.3,0.2,2.2,0.3c0.8,0.2,1.2,0.2,2,0.5
		c0.7,0.2,1,0.3,1.7,0.7c0.7,0.3,1.2,0.5,1.8,0.8c0.3,0.3,0.7,0.5,1.2,1c0.3,0.3,0.5,0.5,0.8,1c0.5,0.3,0.7,0.7,1,1.3
		c0.2,0.5,0.3,1,0.5,1.3c0,0.2,0.3,0.2,0.5,0.2c0,0,0.3,0,0.3-0.2C81.8,34.3,81.8,34.1,80.6,29.3L80.6,29.3z"/>
	<path class="st0" d="M103.1,67.4c0-7,0-7.7,0-15.2h4.8c0.8,0.2,1.2,0.2,2,0.2c0.5,0.2,0.7,0.2,1.2,0.3c0.7,0.2,1,0.2,1.7,0.5
		c0.7,0.2,0.8,0.3,1.5,0.5c0.7,0.3,0.8,0.5,1.3,0.8c0.5,0.2,0.7,0.3,1.2,0.8c0.3,0.2,0.5,0.5,0.8,0.8c0.3,0.3,0.5,0.5,0.8,0.8
		c0.2,0.5,0.3,0.7,0.5,1.2c0.2,0.3,0.3,0.7,0.3,1c0,0.2,0.2,0.3,0.7,0.3c0.2,0,0.3-0.2,0.3-0.3c-1.5-6.8-1.3-5.8-3.2-14.2
		c-0.2-0.2-0.2-0.3-0.5-0.3c-0.2,0-0.2,0-0.3,0c-0.3,0.2-0.2,0.8-0.3,1.5c0,0.5-0.2,0.8-0.3,1.3c-0.3,0.5-0.5,0.7-1,0.8
		c-0.3,0.3-0.7,0.5-1,0.7c-0.3,0.2-0.7,0.2-1,0.2c-4.8,0-4.8,0-9.7,0V32.1h5.3c0.8,0,1.3,0.2,2.2,0.3c0.7,0.2,1.2,0.2,1.8,0.5
		c0.7,0.2,1,0.3,1.7,0.7c0.8,0.3,1.2,0.5,1.8,0.8c0.5,0.3,0.8,0.5,1.2,1c0.5,0.3,0.7,0.5,1,1c0.3,0.3,0.7,0.7,1,1.3
		c0.2,0.5,0.3,1,0.5,1.3c0,0.2,0.2,0.2,0.3,0.2c0.2,0,0.5,0,0.5-0.2c-1-4.8-1-5-2.2-9.8H83.8c-0.2,0-0.3,0.2-0.3,0.3
		c0,0.2,0.2,0.3,0.3,0.5c0.2,0.2,0.5,0,0.8,0.2c0.3,0.2,0.5,0.3,0.7,0.5c0.5,0.3,0.7,0.5,1,1c0.3,0.3,0.3,0.7,0.5,1.2
		c0.2,0.3,0.2,0.5,0.3,1c0,0.2,0,0.3,0,0.7v38.3h31l2.2-9.8l-0.2-0.3c-0.2,0-0.3,0-0.3,0c-0.3,0-0.3,0.3-0.5,0.7
		c-0.3,0.8-0.3,1-0.7,1.5c-0.5,0.7-0.7,0.8-1,1.3c-0.5,0.3-0.8,0.7-1.3,1c-0.8,0.5-1.2,0.8-2,1.2c-0.8,0.5-1.3,0.7-2.2,0.8
		c-1,0.3-1.5,0.3-2.5,0.5c-0.5,0.2-0.8,0.2-1.3,0.2c-2.2,0.2-5.2,0.2-5.2,0.2C103.1,69.1,103.1,67.4,103.1,67.4L103.1,67.4z"/>
	<path class="st0" d="M130.6,42.8v24.5c0,0.5,0,1,0.2,1.5c0.2,0.7,0.3,1,0.8,1.7c0.2,0.3,0.5,0.7,0.8,0.8c0.5,0.5,0.8,0.5,1.5,0.7
		c0.3,0.2,0.5,0.3,0.5,0.5c0,0.3-0.2,0.5-0.5,0.5c-5,0-5,0-9.3,0V34.6c-0.2-0.7-0.2-1.2-0.5-1.7c-0.2-0.7-0.3-1.2-0.8-1.7
		c-0.5-0.5-0.7-0.7-1.2-0.8c-0.3-0.2-0.7-0.3-1-0.3c-0.3,0-0.3,0-0.3-0.5c0-0.2,0.2-0.3,0.5-0.3c9.3,0,9,0,17.7,0
		c0.7,0,1.2,0,1.7,0.3c0.5,0.2,0.8,0.2,1.3,0.5c0.5,0.3,0.7,0.5,1.2,0.8c0.3,0.5,0.5,0.8,0.8,1.3c3.2,5.5,4.5,8,7.3,13.3
		c0.2,0.3,0.5,0.5,0.8,0.8c0.3,0.2,0.7,0.3,1.2,0.3c0.5,0,0.8,0.2,1.3-0.2c0.5-0.2,0.7-0.3,1-0.8c0.3-0.7,0.5-1,0.5-1.7
		c0.8-5.5,1.2-6.8,2.3-14.3c0.2-0.5,0.3-0.5,0.5-0.5c10,0,7.3,0,17.3,0v37.5c0,1,0,1.5,0.3,2.5c0.3,0.7,0.5,0.8,1,1.7
		c0.3,0.3,0.7,0.5,1.2,0.8c0.3,0.2,0.7,0.2,1,0.2c0.2,0.2,0.3,0.3,0.3,0.5c0,0.3-0.3,0.5-0.5,0.5c-11,0-10.2,0-19.2,0V43.1l-12.3,31
		H148L130.6,42.8L130.6,42.8z"/>
	<path class="st0" d="M210,42l-0.8-11.2c-0.3-0.2-0.5-0.3-1-0.5c-1-0.5-1.7-0.7-2.8-1c-1.2-0.5-2-0.7-3.3-0.8
		c-1.5-0.3-2.5-0.5-4-0.7h-3.3c-1.3,0.2-2.2,0.2-3.5,0.5c-1,0.3-1.7,0.5-2.7,1c-1,0.3-1.5,0.7-2.2,1.2c-1,0.7-1.7,1-2.5,2
		c-0.8,0.8-1.2,1.3-1.8,2.3c-0.5,0.8-0.7,1.3-1,2.3c-0.3,1-0.5,1.5-0.5,2.7c-0.2,1-0.2,1.7,0,2.8c0,1,0.2,1.7,0.5,2.8
		c0.3,0.8,0.5,1.3,0.8,2.2c0.5,0.8,0.8,1.3,1.5,2.2c0.5,0.8,0.8,1.2,1.5,2c0.8,0.8,1.5,1.3,2.5,2c0.8,0.7,1.3,1,2.3,1.5
		c1,0.5,1.5,0.8,2.7,1.3c1,0.7,1.8,1,2.8,1.7c0.7,0.5,1.2,0.7,1.8,1.3c0.5,0.5,0.7,0.8,1,1.5c0.2,0.5,0.2,0.8,0.2,1.3
		c0,0.7,0,1.2-0.3,1.7c-0.3,0.5-0.7,0.8-1.2,1.2c-0.5,0.3-1,0.5-1.7,0.7c-0.8,0.3-1.5,0.2-2.5,0c-0.8,0-1.2-0.3-2-0.7
		c-1-0.3-1.5-0.7-2.3-1.3c-0.7-0.5-1.5-1.3-2.5-2.2c-1-1.2-1.3-1.8-2.3-2.8c-0.3-0.5-0.7-1.2-1-1.3c-0.2,0-0.5,0.2-0.5,0.3
		c0,8,0,4.5,0,11.3c0.5,0.5,0.8,0.8,1.5,1.3c1,0.7,1.7,1,2.8,1.5c1.2,0.5,1.8,0.7,3.2,1.2c1.2,0.3,1.8,0.5,3,0.7
		c0.6,0.1,1.1,0.2,1.5,0.2c0,0,0,0,0,0c0,0,0,0,0,0c0,0,0,0,0,0c0,0,0,0,0,0c0,0,0,0,0,0c0,0,0,0,0,0c0,0,0,0,0,0c0,0,0,0,0,0
		c0,0,0,0,0,0c0,0,0,0,0,0c0,0,0,0,0,0c0,0,0,0,0,0c0,0,0,0,0,0c0,0,0,0,0,0c0,0,0,0,0,0h3.7c1-0.2,1.7-0.2,2.7-0.5
		c0.8-0.2,1.2-0.2,2-0.5c1.2-0.3,1.7-0.7,2.7-1.3c1-0.7,1.7-1,2.5-1.8c0.8-0.7,1.5-1.5,2.2-2.7c1-1.5,1.5-2.3,1.8-4
		c0.2-1,0.3-1.5,0.3-2.3c0.2-1.5,0.3-2.3,0.2-3.7c-0.2-1.5-0.5-2.3-1-3.7c-0.5-1.5-1-2.3-1.8-3.7c-1-1.3-1.5-2-2.8-3
		c-1-1-1.7-1.3-3-2.2c-1.3-0.8-2.2-1-3.5-1.7c-1.5-0.8-2.3-1-3.5-1.8c-0.8-0.5-1.3-0.8-1.8-1.5c-0.5-0.5-0.8-0.8-1-1.5
		c0-0.5,0-0.8,0-1.3c0.2-0.7,0.5-1.2,1-1.5c0.7-0.7,1.3-0.7,2.2-0.8c0.8,0,1.3,0,2.2,0.2c1,0.2,1.5,0.3,2.5,0.8
		c1,0.3,1.5,0.7,2.3,1.2c0.8,0.7,1.3,1,2,1.7c1.2,1,1.7,1.5,2.7,2.7c0.3,0.3,0.3,0.8,0.8,0.8C209.7,42,210,42.1,210,42L210,42z"/>
	<path class="st0" d="M226.9,28.1l22.7,41.5l0.3,0.3c0.3,0.3,0.5,0.5,1,0.8c0.5,0.3,0.7,0.5,1.3,0.8c0.5,0.2,0.8,0.2,1.2,0.3
		c0.3,0,0.5,0,0.7,0.3c0,0.3-0.2,0.7-0.3,0.7c-10.7,0-10.5,0-18,0c-0.5,0-0.7-0.2-1.2-0.2c-0.7-0.2-1-0.3-1.7-0.7
		c-0.7-0.5-1-0.8-1.5-1.3c-0.5-0.7-0.7-1-1.2-1.7c-3.3-6-3.5-6.5-7-13.2c-0.3-0.5-0.7-0.7-1.2-1c-0.5-0.3-0.8-0.3-1.3-0.5
		c-0.7,0-1,0-1.5,0.2c-0.7,0.2-1,0.2-1.5,0.7c-0.7,0.3-0.8,0.7-1.2,1.2c-0.3,0.5-0.5,1.2-0.8,1.7c-0.2,0.2-0.3,0.3-0.7,0.2
		c-0.2,0-0.3-0.3-0.2-0.5c4.2-10.7,4-10.3,11.7-29.6H226.9L226.9,28.1z"/>
</g>
</svg>
