<?xml version="1.0" encoding="utf-8"?>
<!-- Generator: Adobe Illustrator 22.0.1, SVG Export Plug-In . SVG Version: 6.00 Build 0)  -->
<svg version="1.1" id="Layer_1" xmlns="http://www.w3.org/2000/svg" xmlns:xlink="http://www.w3.org/1999/xlink" x="0px" y="0px"
	 viewBox="0 0 300 101.9" style="enable-background:new 0 0 300 101.9;" xml:space="preserve">
<style type="text/css">
	.st0{fill:#606060;}
</style>
<g>
	<g>
		<path class="st0" d="M123,69.9c1.1-0.9,2.1-1.9,2.1-3.7c0-1.1-0.7-3.1-4.4-3.1c-0.7,0-1.5,0.1-2.5,0.1c-0.4,0-1.7-0.1-2.8-0.1
			c-0.3,0-0.5,0-0.5,0.2c0,0.1,0.1,0.2,0.4,0.2c0.3,0,0.6,0,0.8,0.1c0.7,0.1,0.8,0.5,0.9,1.2c0,0.7,0,1.3,0,4.4v3.7
			c0,1.9,0,3.6-0.1,4.4c-0.1,0.6-0.2,1.1-0.6,1.1c-0.2,0-0.4,0.1-0.7,0.1c-0.2,0-0.3,0.1-0.3,0.2c0,0.1,0.1,0.2,0.4,0.2
			c0.4,0,1,0,1.4,0c0.5,0,1,0,1.2,0c0.3,0,0.9,0,1.6,0.1c0.6,0,1.2,0.1,1.5,0.1c3.8,0,5.5-2.3,5.5-4.5
			C126.8,71.9,124.7,70.5,123,69.9z M119.5,64.4c0-0.2,0-0.3,0.2-0.4c0.2,0,0.4,0,0.7,0c1.8,0,2.6,1.8,2.6,3.2c0,1-0.3,1.8-0.9,2.2
			c-0.4,0.3-0.8,0.4-1.5,0.4c-0.5,0-0.8,0-1-0.1c-0.1,0-0.1-0.1-0.1-0.2V64.4z M121.7,78c-0.5,0-1,0-1.5-0.3c-0.7-0.3-0.7-0.6-0.7-2
			v-4.9c0-0.1,0-0.1,0.1-0.1c0.3,0,0.5,0,0.9,0c0.8,0,1.3,0.2,1.7,0.5c1.6,1.1,2,2.9,2,4.2C124.3,77.5,122.7,78,121.7,78z"/>
		<path class="st0" d="M139.9,75.8c-0.1,0-0.3,0.1-0.4,0.3c-0.2,0.4-0.6,0.9-1,1.2c-0.6,0.5-2.4,0.5-3.5,0.5c-1.6,0-2.2-0.1-2.5-0.5
			c-0.4-0.4-0.4-1.8-0.4-4.5v-3.7c0-3.2,0-3.8,0-4.4c0-0.7,0.2-1.1,0.8-1.2c0.2,0,0.6-0.1,0.8-0.1c0.2,0,0.4,0,0.4-0.2
			c0-0.1-0.1-0.2-0.4-0.2c-0.8,0-2.3,0.1-2.8,0.1c-0.6,0-1.9-0.1-2.8-0.1c-0.3,0-0.5,0-0.5,0.2c0,0.1,0.1,0.2,0.4,0.2
			c0.3,0,0.5,0,0.7,0.1c0.7,0.1,0.8,0.5,0.9,1.2c0,0.7,0,1.3,0,4.4v3.7c0,1.9,0,3.6-0.1,4.4c-0.1,0.6-0.2,1.1-0.6,1.1
			c-0.2,0-0.4,0.1-0.7,0.1c-0.2,0-0.3,0.1-0.3,0.2c0,0.1,0.1,0.2,0.4,0.2c0.4,0,1,0,1.4,0c0.5,0,1,0,1.2,0c0.9,0,1.6,0,2.5,0.1
			c0.9,0,2.3,0.1,3.8,0.1c1.1,0,1.6-0.4,1.8-0.8c0.4-0.6,1-1.8,1-2C140.1,76,140.1,75.9,139.9,75.8z"/>
		<path class="st0" d="M156.5,78.5c-0.2,0-0.6,0-0.9-0.1c-0.4-0.1-1-0.4-1.8-2.3c-1.3-3.2-4.6-11.7-5.1-12.8
			c-0.2-0.5-0.3-0.7-0.5-0.7c-0.2,0-0.3,0.2-0.6,0.8l-5.2,13.1c-0.4,1-0.8,1.8-1.8,1.9c-0.2,0-0.5,0-0.6,0c-0.2,0-0.2,0-0.2,0.2
			c0,0.2,0.1,0.2,0.4,0.2c1.1,0,2.2-0.1,2.4-0.1c0.6,0,1.5,0.1,2.2,0.1c0.2,0,0.4,0,0.4-0.2c0-0.1-0.1-0.2-0.3-0.2h-0.3
			c-0.6,0-0.8-0.3-0.8-0.6c0-0.3,0.1-0.8,0.3-1.3l1.1-3c0-0.1,0.1-0.2,0.2-0.2h4.6c0.1,0,0.2,0,0.2,0.1l1.7,4.4
			c0.1,0.3,0,0.4-0.2,0.5c-0.2,0-0.3,0.1-0.3,0.2c0,0.1,0.2,0.1,0.6,0.2c1.7,0,3.2,0,3.9,0c0.8,0,1,0,1-0.2
			C156.7,78.5,156.6,78.5,156.5,78.5z M149.4,72.4h-3.8c-0.1,0-0.1-0.1-0.1-0.1l1.9-5.1c0-0.1,0.1-0.2,0.1-0.2
			c0.1,0,0.1,0.1,0.1,0.2l1.9,5.2C149.6,72.3,149.6,72.4,149.4,72.4z"/>
		<path class="st0" d="M184.9,81.4c-0.1,0-0.2,0.1-0.3,0.1c-1.4,0.6-3,0.7-4,0.7c-1.4,0-4.2-0.2-8.5-2.5l-4.2-2.1
			c1.3-0.9,3.6-3.2,3.6-6.9c0-4.9-3.4-7.9-8.4-7.9c-6.1,0-8.5,4.7-8.5,8.1c0,3.8,2.4,8.3,8.4,8.3c1.1,0,2.4-0.2,3.3-0.5l3.3,1.9
			c3.4,2,5.6,2.8,8.8,2.8c3,0,5.3-1,6.6-1.6c0.1-0.1,0.2-0.1,0.2-0.3C185.1,81.5,185,81.4,184.9,81.4z M163.8,78.1
			c-3.3,0-6.3-2.8-6.3-7.7c0-4.8,2.4-6.6,5.1-6.6c2.9,0,6,2.4,6,7.5C168.6,77.4,165.4,78.1,163.8,78.1z"/>
	</g>
	<g>
		<path class="st0" d="M162.8,90.7c-0.1,0-0.1,0-0.2,0.2c-0.1,0.2-0.3,0.5-0.5,0.7c-0.3,0.3-1.3,0.3-1.9,0.3c-0.9,0-1.2-0.1-1.4-0.3
			c-0.2-0.2-0.2-1-0.2-2.5v-2.1c0-1.8,0-2.1,0-2.5c0-0.4,0.1-0.6,0.4-0.7c0.1,0,0.3,0,0.4,0c0.1,0,0.2,0,0.2-0.1
			c0-0.1-0.1-0.1-0.2-0.1c-0.4,0-1.3,0-1.5,0c-0.3,0-1,0-1.5,0c-0.2,0-0.2,0-0.2,0.1c0,0.1,0.1,0.1,0.2,0.1c0.1,0,0.3,0,0.4,0
			c0.4,0.1,0.5,0.3,0.5,0.7c0,0.4,0,0.7,0,2.5V89c0,1.1,0,2-0.1,2.5c0,0.3-0.1,0.6-0.3,0.6c-0.1,0-0.2,0-0.4,0c-0.1,0-0.2,0-0.2,0.1
			c0,0.1,0.1,0.1,0.2,0.1c0.2,0,0.5,0,0.8,0c0.3,0,0.5,0,0.6,0c0.5,0,0.9,0,1.4,0c0.5,0,1.3,0,2.1,0c0.6,0,0.9-0.2,1-0.4
			c0.2-0.4,0.5-1,0.6-1.1C162.9,90.8,162.9,90.7,162.8,90.7z"/>
		<path class="st0" d="M171.8,92.2c-0.1,0-0.3,0-0.5,0c-0.2-0.1-0.6-0.2-1-1.3c-0.7-1.8-2.5-6.6-2.8-7.2c-0.1-0.3-0.2-0.4-0.3-0.4
			c-0.1,0-0.2,0.1-0.3,0.5l-2.8,7.4c-0.2,0.6-0.4,1-1,1.1c-0.1,0-0.2,0-0.3,0c-0.1,0-0.1,0-0.1,0.1c0,0.1,0.1,0.1,0.2,0.1
			c0.6,0,1.2,0,1.3,0c0.3,0,0.8,0,1.2,0c0.1,0,0.2,0,0.2-0.1c0-0.1,0-0.1-0.2-0.1h-0.2c-0.3,0-0.5-0.2-0.5-0.4
			c0-0.1,0.1-0.4,0.2-0.7l0.6-1.7c0-0.1,0-0.1,0.1-0.1h2.5c0.1,0,0.1,0,0.1,0.1l0.9,2.5c0.1,0.1,0,0.2-0.1,0.3c-0.1,0-0.2,0-0.2,0.1
			c0,0.1,0.1,0.1,0.3,0.1c0.9,0,1.7,0,2.1,0c0.4,0,0.5,0,0.5-0.1C171.9,92.2,171.9,92.2,171.8,92.2z M168,88.7h-2.1c0,0-0.1,0,0-0.1
			l1-2.9c0,0,0-0.1,0.1-0.1c0,0,0,0.1,0.1,0.1L168,88.7C168,88.7,168,88.7,168,88.7z"/>
		<path class="st0" d="M122.8,83.4c0,0-0.1,0-0.3,0.1c-0.2,0-0.4,0.1-0.8,0.1H117c-0.4,0-0.8,0-1.2-0.1c-0.3,0-0.4-0.1-0.5-0.1
			c-0.1,0-0.1,0.1-0.1,0.2c0,0.1-0.2,1.2-0.2,1.4c0,0.1,0,0.2,0.1,0.2c0.1,0,0.1,0,0.1-0.1c0-0.1,0.1-0.2,0.2-0.4
			c0.2-0.3,0.5-0.3,1.1-0.3l1.7,0V89c0,1.1,0,2-0.1,2.5c0,0.3-0.1,0.6-0.3,0.6c-0.1,0-0.2,0-0.4,0c-0.1,0-0.2,0-0.2,0.1
			c0,0.1,0.1,0.1,0.2,0.1c0.5,0,1.2,0,1.5,0c0.3,0,1.1,0,1.8,0c0.1,0,0.2,0,0.2-0.1c0-0.1-0.1-0.1-0.2-0.1c-0.2,0-0.4,0-0.6,0
			c-0.4,0-0.4-0.3-0.5-0.6c-0.1-0.5-0.1-1.4-0.1-2.5v-4.8l1.5,0c1,0,1.4,0.4,1.4,0.7l0,0.1c0,0.2,0,0.2,0.1,0.2
			c0.1,0,0.1-0.1,0.1-0.2c0-0.3,0-1.1,0-1.4C122.9,83.5,122.9,83.4,122.8,83.4z"/>
		<path class="st0" d="M129.4,90.6c-0.1,0-0.1,0-0.1,0.2c-0.1,0.5-0.2,0.7-0.5,0.9c-0.3,0.1-0.8,0.1-1.1,0.1c-1.2,0-1.4-0.2-1.4-1
			c0-0.3,0-1.4,0-1.8v-0.9c0-0.1,0-0.1,0.1-0.1c0.3,0,1.4,0,1.7,0c0.4,0,0.6,0.2,0.7,0.5c0,0.2,0,0.3,0,0.4c0,0.1,0,0.1,0.1,0.1
			c0.1,0,0.1-0.1,0.1-0.2c0-0.1,0-0.6,0-0.8c0-0.6,0.1-0.8,0.1-0.9c0-0.1,0-0.1-0.1-0.1c-0.1,0-0.1,0.1-0.2,0.2
			c-0.1,0.1-0.3,0.2-0.6,0.2c-0.3,0-1.6,0-1.9,0c-0.1,0-0.1,0-0.1-0.1v-3c0-0.1,0-0.1,0.1-0.1c0.2,0,1.5,0,1.7,0
			c0.6,0.1,0.7,0.2,0.8,0.4c0.1,0.1,0.1,0.3,0.1,0.4c0,0.1,0,0.2,0.1,0.2c0.1,0,0.1-0.1,0.1-0.1c0-0.1,0-0.7,0.1-0.8
			c0-0.5,0.1-0.7,0.1-0.8c0-0.1,0-0.1-0.1-0.1c-0.1,0-0.1,0-0.2,0c-0.1,0-0.3,0-0.5,0.1c-0.2,0-2.5,0-2.9,0c-0.2,0-0.4,0-0.7,0
			c-0.3,0-0.6,0-0.9,0c-0.2,0-0.3,0-0.3,0.1c0,0.1,0.1,0.1,0.2,0.1c0.2,0,0.4,0,0.5,0c0.4,0.1,0.5,0.3,0.5,0.7c0,0.4,0,0.7,0,2.5V89
			c0,1.1,0,2-0.1,2.5c0,0.3-0.1,0.6-0.3,0.6c-0.1,0-0.2,0-0.4,0c-0.1,0-0.2,0-0.2,0.1c0,0.1,0.1,0.1,0.2,0.1c0.2,0,0.5,0,0.8,0
			c0.3,0,0.5,0,0.7,0c0.4,0,0.7,0,1.2,0c0.5,0,1.1,0,2,0c0.4,0,0.5,0,0.6-0.3c0.1-0.2,0.2-1,0.2-1.3
			C129.5,90.7,129.5,90.6,129.4,90.6z"/>
		<path class="st0" d="M147.8,93.9c0,0-0.1,0-0.2,0.1c-0.8,0.3-1.7,0.4-2.3,0.4c-0.8,0-2.4-0.1-4.8-1.4l-2.4-1.2
			c0.7-0.5,2-1.8,2-3.9c0-2.8-1.9-4.5-4.7-4.5c-3.4,0-4.8,2.6-4.8,4.6c0,2.1,1.3,4.7,4.8,4.7c0.6,0,1.4-0.1,1.8-0.3l1.8,1.1
			c1.9,1.1,3.2,1.6,4.9,1.6c1.7,0,3-0.5,3.7-0.9c0.1,0,0.1-0.1,0.1-0.1C147.9,93.9,147.9,93.9,147.8,93.9z M135.9,92
			c-1.9,0-3.6-1.6-3.6-4.4c0-2.7,1.4-3.7,2.9-3.7c1.6,0,3.4,1.4,3.4,4.2C138.6,91.6,136.8,92,135.9,92z"/>
		<path class="st0" d="M150.1,83.5c-0.5,0-1.2,0-1.3,0c0,0-0.7,0-1.3,0c-0.2,0-0.2,0-0.2,0.1c0,0.1,0.1,0.1,0.2,0.1
			c0.1,0,0.3,0,0.4,0c0.4,0.1,0.5,0.3,0.5,0.7c0,0.4,0,0.7,0,2.5v1.5c0,1.2,0,2.3-0.7,2.9c-0.5,0.5-1.1,0.6-1.6,0.6
			c-0.4,0-0.9,0-1.5-0.5c-0.6-0.5-0.9-1.2-0.9-2.9v-1.7c0-1.8,0-2.1,0-2.5c0-0.4,0.1-0.6,0.4-0.7c0.1,0,0.2,0,0.3,0
			c0.1,0,0.2,0,0.2-0.1c0-0.1-0.1-0.1-0.3-0.1c-0.4,0-1.2,0-1.4,0c-0.4,0-1.1,0-1.7,0c-0.2,0-0.3,0-0.3,0.1c0,0.1,0.1,0.1,0.2,0.1
			c0.2,0,0.4,0,0.5,0c0.4,0.1,0.5,0.3,0.5,0.7c0,0.4,0,0.7,0,2.5v1.7c0,1.7,0.4,2.6,1,3.1c0.9,0.8,2,0.8,2.6,0.8
			c0.8,0,1.6-0.1,2.4-0.9c1-0.9,1.1-2.2,1.1-3.6v-1.3c0-1.8,0-2.1,0-2.5c0-0.4,0.1-0.6,0.4-0.7c0.1,0,0.2,0,0.3,0
			c0.1,0,0.2,0,0.2-0.1C150.3,83.5,150.3,83.5,150.1,83.5z"/>
		<path class="st0" d="M155,92.2c-0.2,0-0.4,0-0.6,0c-0.3,0-0.4-0.3-0.5-0.6c0-0.5,0-1.4,0-2.6v-2.1c0-1.8,0-2.1,0-2.5
			c0-0.4,0.1-0.6,0.4-0.7c0.1,0,0.2,0,0.4,0c0.1,0,0.2,0,0.2-0.1c0-0.1-0.1-0.1-0.2-0.1c-0.4,0-1.1,0-1.4,0c-0.3,0-1.1,0-1.5,0
			c-0.2,0-0.3,0-0.3,0.1c0,0.1,0.1,0.1,0.2,0.1c0.1,0,0.3,0,0.4,0c0.3,0.1,0.4,0.3,0.4,0.7c0,0.4,0,0.7,0,2.5V89
			c0,1.1,0,2.1-0.1,2.6c0,0.3-0.1,0.5-0.3,0.6c-0.1,0-0.2,0-0.4,0c-0.1,0-0.2,0-0.2,0.1c0,0.1,0.1,0.1,0.2,0.1c0.5,0,1.2,0,1.5,0
			c0.3,0,1.1,0,1.8,0c0.1,0,0.2,0,0.2-0.1C155.2,92.3,155.1,92.2,155,92.2z"/>
	</g>
	<g>
		<rect x="114.9" y="60.9" class="st0" width="56.7" height="0.4"/>
	</g>
	<g>
		<rect x="114.9" y="81.2" class="st0" width="52.3" height="0.4"/>
	</g>
	<g>
		<g>
			<rect x="114.9" y="94.4" class="st0" width="22" height="0.4"/>
		</g>
		<g>
			<rect x="151.5" y="94.4" class="st0" width="20.3" height="0.4"/>
		</g>
	</g>
	<g>
		<polygon class="st0" points="116,51.5 116,58.1 117.6,58.1 117.6,41.3 117.6,34.7 116,34.7 		"/>
		<path class="st0" d="M144.6,46.4C144.6,46.4,144.6,46.3,144.6,46.4c0-0.1,0-0.1,0-0.1c0,0,0,0,0-0.1c0-3.3-1.2-6.1-3.6-8.5
			c-2.4-2.3-5.3-3.5-8.6-3.5c-3.3,0-6.2,1.1-8.6,3.5c-2.4,2.4-3.7,5.2-3.7,8.6c0,3.3,1.3,6.2,3.7,8.5c2.5,2.3,5.3,3.5,8.7,3.4
			c3.3,0,6.1-1.2,8.5-3.4C143.4,52.5,144.6,49.7,144.6,46.4L144.6,46.4C144.6,46.4,144.6,46.4,144.6,46.4z M140.1,53.9
			c-2.1,2-4.6,3.1-7.5,3.1c-2.9,0-5.4-1-7.6-3c-2.1-2-3.3-4.5-3.4-7.4l0.1,0c0,0,0-0.1,0-0.1c0-0.1,0-0.1,0-0.1
			c0-2.9,1.1-5.5,3.2-7.6c2.1-2.1,4.7-3.2,7.6-3.1c3,0,5.5,1.1,7.6,3.2c2.1,2.1,3.2,4.7,3.1,7.6C143.2,49.4,142.2,51.8,140.1,53.9z"
			/>
		<path class="st0" d="M171.5,46.5C171.5,46.4,171.5,46.4,171.5,46.5c0-0.1,0-0.1,0-0.1c0,0,0,0,0-0.1c0,0,0,0,0-0.1
			c0-3.3-1.2-6.1-3.6-8.5c-2.4-2.3-5.3-3.5-8.6-3.5c-3.3,0-6.2,1.1-8.6,3.5c-2.4,2.4-3.7,5.2-3.7,8.6c0,3.3,1.3,6.2,3.7,8.5
			c2.5,2.3,5.3,3.5,8.7,3.4c3.3,0,6.1-1.2,8.5-3.4C170.3,52.5,171.5,49.7,171.5,46.5L171.5,46.5z M166.9,53.9
			c-2.1,2-4.6,3.1-7.5,3.1c-2.9,0-5.4-1-7.6-3c-2.1-2-3.3-4.5-3.4-7.4c0,0,0.1-0.1,0.1-0.2c0-0.1,0-0.1,0-0.1c0-2.9,1.1-5.5,3.2-7.6
			c2.1-2.1,4.7-3.2,7.6-3.1c3,0,5.5,1.1,7.6,3.2c2.1,2.1,3.2,4.7,3.1,7.6C170.1,49.4,169,51.8,166.9,53.9z"/>
	</g>
	<g>
		<path class="st0" d="M135.3,24.5c0.2-0.1,0.4-0.1,0.5-0.1c0.1,0-0.1,0.3-0.2,0.6c0.4-0.4,0.6-0.6,0.7-0.5c0.1,0,0,0.6-0.1,1
			c0.1-0.2,0.5-1,0.6-1.2c0.1-0.1,0.1-0.3,0-0.3c-0.1,0-0.2-0.1-0.7,0c-2,0.1-1.8,1-1.8,1s-0.4-0.1-0.4-0.7c0-0.6,0.7-0.9,1-1
			c0.1,0,0.2,0,0.1,0.1c-0.1,0.1-0.1,0.2-0.1,0.3c0.2,0.1,0.6-0.2,0.6-0.2c0-0.2,0.2-0.5,0.5-0.5c0.2,0,0.1,0.3,0.1,0.3
			c0.7-0.8,1.6-1.2,1.6-1.2c-0.7,0-1.5,0.4-2.2,0.9c-0.4,0.3-0.6,0.1-0.6,0c0.2-0.5,0.6-0.8,1.1-1.1c1.7-0.9,4.1-1.1,5-1.1
			c-0.1,0.3-0.1,0.5,0,0.7c0-0.3,0.2-0.7,0.8-1.4c1.3-1.3,2.4-3.3,3-5.6c0.1-0.3,0.2-0.6,0.6-1c0.3-0.3,0.7-0.6,1.3-1
			c2.4-1.9,2.5-2.5,2.5-2.7c-0.2,0.2-0.6,0.8-2.7,2.5c-0.5,0.4-0.9,0.7-1.3,1c-0.1,0.1-0.2,0.2-0.3,0.3c0.1-0.3,0.1-0.6-0.1-0.9
			c-0.1-0.3-0.3-0.2-0.4-0.2c-0.1,0.1-0.2,0.2-0.6,0.7c0.4,0,0.5-0.4,0.7-0.4c0.1,0,0.4,0.3,0,0.8c-0.5,0.7-1.1,1.2-1.5,1.4
			c-0.2,0.1-0.4,0-0.2-0.1c0.8-0.8,1.5-1.4,1.5-1.7c-0.4,0.4-1.1,1.1-1.7,1.5c-0.2,0.2-0.3,0-0.1-0.2c0.4-0.4,1.2-1.2,1.5-1.7
			c0.3-0.5,0.2-1-0.1-1.4c-0.1-0.2-0.2-0.2-0.3-0.1c-0.1,0.1-0.1,0.2-0.5,0.8c0.4-0.1,0.5-0.5,0.6-0.5c0.1,0,0.4,0.3,0.1,0.9
			c-0.2,0.5-0.8,1.1-1.2,1.5c-0.3,0.2-0.5,0.2-0.3,0c0.7-0.9,1.5-1.7,1.4-2.1c-0.5,0.7-0.9,1.2-1.6,1.8c-0.2,0.2-0.4,0-0.2-0.3
			c0.4-0.4,1-1.1,1.3-1.6c0.3-0.5,0.3-1-0.1-1.4c-0.1-0.2-0.3-0.1-0.4-0.1c-0.1,0-0.1,0.2-0.5,0.9c0.4-0.1,0.5-0.5,0.6-0.6
			c0.1,0,0.4,0.3,0.1,0.9c-0.2,0.5-0.7,1-1.1,1.5c-0.3,0.3-0.5,0.3-0.4,0c0.6-0.9,1.3-1.7,1.2-2c-0.4,0.7-0.8,1.2-1.4,1.9
			c-0.2,0.2-0.3,0.1-0.2-0.2c0.3-0.5,0.9-1.3,1.2-1.9c0.2-0.6,0.2-1-0.2-1.3c-0.1-0.1-0.3-0.1-0.4,0c-0.1,0.1-0.1,0.3-0.4,0.9
			c0.4-0.1,0.4-0.7,0.5-0.7c0.1,0,0.4,0.2,0.2,0.9c-0.2,0.6-0.6,1.2-0.9,1.7c0,0,0,0,0,0c0,0-0.1,0.1-0.1,0.1l0,0
			c-0.2,0.2-0.4,0.2-0.3,0c0.5-1,1.2-1.9,1.1-2.2c-0.3,0.7-0.8,1.4-1.3,2.1c-0.2,0.2-0.4,0-0.2-0.3l0,0c0.3-0.6,0.8-1.4,1-2
			c0.2-0.6,0.1-1.1-0.3-1.4c-0.3-0.2-0.3-0.2-0.4-0.1c-0.1,0.1-0.1,0.3-0.3,1c0.3-0.2,0.4-0.6,0.5-0.7c0.1,0,0.4,0.3,0.3,1
			c-0.2,0.6-0.6,1.4-0.9,2c-0.2,0.2-0.3,0.1-0.2-0.1c0.4-1,1-1.9,0.8-2.3c-0.3,0.7-0.6,1.4-1,2.2c-0.1,0.2-0.3,0.1-0.3-0.1
			c0.2-0.6,0.7-1.7,0.8-2.4c0.1-0.7-0.1-1.1-0.5-1.4c-0.3-0.2-0.4-0.2-0.5-0.1c-0.1,0.1-0.1,0.3-0.3,1.2c0.3-0.3,0.4-0.8,0.5-0.8
			c0.1-0.1,0.5,0.2,0.4,1c-0.1,0.7-0.4,1.7-0.6,2.3c-0.1,0.1-0.4,0-0.3-0.2c0.2-0.7,0.7-2.1,0.6-2.5c-0.3,0.8-0.5,1.5-0.8,2.3
			c-0.1,0.3-0.4,0.1-0.4-0.2c0.2-0.6,0.5-1.8,0.5-2.6c0-0.7-0.2-1.1-0.5-1.4c-0.3-0.2-0.5-0.2-0.6-0.1c-0.1,0.1,0,0.3-0.1,1.2
			c0.2-0.3,0.2-0.8,0.3-0.9c0.1-0.1,0.6,0.2,0.6,1c0,0.7-0.2,1.6-0.3,2.3c0,0,0,0,0,0c-0.1,0.4-0.4,0.4-0.4,0c0-0.4,0.5-2.6,0.2-2.9
			c-0.1,1.1-0.3,2.5-0.5,2.9c-0.1,0.3-0.5,0.3-0.5-0.1c0.1-0.8,0.3-2,0.3-2.7c0-0.8-0.5-1.2-0.8-1.4c-0.3-0.2-0.6-0.2-0.7-0.2
			c-0.1,0.1,0,1.3,0,2.2c0.3-0.3,0.2-1.7,0.3-1.8c0.1-0.1,0.8,0.2,0.9,1.1c0,0.5-0.1,1.5-0.1,2.3c-0.1,0.4-0.4,0.3-0.4,0
			c0.1-0.4,0.3-2.7,0-3c-0.1,1.1-0.1,2.5-0.3,2.9c-0.1,0.3-0.3,0.3-0.4,0c-0.1-0.7-0.2-2-0.4-2.8c-0.2-0.8-0.8-1.3-1.1-1.4
			C134,5,133.5,5,133.5,5.1c-0.1,0.1,0.2,0.8,0.5,1.9c0-0.5-0.2-1.4-0.1-1.5c0.1-0.1,1.1,0.2,1.3,1c0.2,0.6,0.4,2,0.5,2.8
			c0,0.3-0.4,0.3-0.4,0c0-0.5-0.5-3.1-0.8-3.3c0.2,1.2,0.6,2.8,0.6,3.3c0,0.3-0.4,0.3-0.5,0c-0.2-0.7-0.6-2-1.1-2.9
			c-0.7-1.3-1.8-1.2-1.9-1.2c0,0,0.9,0.3,1.6,1.4c0.6,1,1.1,2.5,1.3,3c-0.2,0.1-0.4-0.1-0.5-0.3c-0.2-0.5-1.2-2.9-1.7-3.2
			c0.4,0.7,1.4,3.1,1.5,3.3c0.1,0.2,0.2,0.4,0.4,0.5c0.1,0.1,0.4,0,0.5,0.1c0.3,0.1,0.7,0.4,0.8,1.1c0.1,0.7,0.2,1.3,0.3,1.9
			c-0.2,0.1-0.4,0-0.5-0.3c-0.1-0.5-0.6-2.1-0.9-2.3c0.4,1,0.7,2.2,0.8,2.4c0,0.1,0.1,0.3,0.3,0.4c0.1,0.1,0.3,0,0.4,0.2
			c0.1,0.6,0.2,1.2,0.3,1.8c0.1-0.4-0.1-1.1-0.1-1.7c0,0,0-0.1,0-0.1c0.1-0.1,0.4-0.2,0.8,0.2c0.2,0.2,0.5,0.5,0.5,1
			c0,0.6,0,1.1,0,1.5c0,0,0,0,0,0c0,0.4-0.3,0.1-0.4-0.2c-0.1-0.6-0.1-2-0.4-2.2c0.1,1,0.1,1.3,0.1,2c0,0.2-0.1,0.2-0.2,0.1
			c-0.1-0.1-0.2-0.2-0.2-0.3c0,0.1,0,0.1,0,0.2c0,0.1-0.3,0.1-0.3-0.2c-0.2-0.7-0.5-1.7-0.6-1.6c0.1,0.2,0.4,1.5,0.4,1.7
			c0.1,0.2,0.1,0.4,0.3,0.4c0.1,0.1,0.3-0.1,0.3-0.2c0.1,0.3,0.2,0.6,0.8,1.1c0.5,0.4,2.8,2.8,3.3,3.9c-0.1,0-0.1,0-0.2,0
			c-0.8-1.4-2.5-2.9-3.1-3.5c-0.3-0.3-0.6-0.5-0.8-0.9c0,0.2,0,0.5,0.7,1.1c0.7,0.6,2.4,2.4,3,3.3c-0.2,0-0.4,0-0.6,0
			c-0.5-0.7-1.4-1.7-3-3.1c-0.8-0.8-0.9-1.5-1.1-2.3c-0.1-0.2-0.1-0.5-0.2-0.8c-0.6-2-1.9-5.7-2.7-7.1c-1-1.6-1.4-1.6-1.4-1.6
			c1.5,1.9,3.2,6.6,3.8,8.8c0.1,0.3,0.1,0.5,0.2,0.8c0.2,0.9,0.3,1.8,1.2,2.7c1.4,1.3,2.2,2,2.8,2.8c-0.9,0.1-1.8,0.3-2.7,0.8
			c-0.7,0.4-1.1,0.8-1.4,1.5l0,0c0,0-1,0.4-1,1.3c0,1,1.1,1.2,1.1,1.2C134.6,25.1,134.8,24.7,135.3,24.5z M143.7,15.5
			c0.7-0.5,0.9-0.8,1-1c0,0.2-0.1,0.4-0.2,0.6c-0.3,0.2-0.6,0.4-0.8,0.5C143.5,15.7,143.5,15.6,143.7,15.5z M143,18.4
			c0,0-0.1-0.1-0.1-0.2c0.1-0.1,0.3-0.2,0.4-0.3C143.2,18,143.1,18.2,143,18.4z M142.3,18.7c-0.2,0.4-0.5,0.9-1.2,1.6
			c-0.2,0.2-0.3,0.1-0.2-0.1c0.3-0.3,0.9-0.9,1.3-1.6c0,0,0,0,0-0.1c0,0,0,0,0,0C142.2,18.6,142.2,18.7,142.3,18.7z M137.5,14.4
			c0-0.3-0.1-0.5-0.2-0.7c0,0,0,0,0,0c0.9,0.1,1.1,0.9,1,1.2c-0.1,0.7-0.2,1.4-0.3,1.8c-0.1,0.3-0.2,0.1-0.2-0.2
			c0.1-0.6,0.2-1.8-0.1-2.3c0,0.5,0,1.2-0.1,2.3c0,0.3-0.2,0.3-0.2,0C137.5,16.3,137.6,15.6,137.5,14.4z M138.8,14.8
			c0.7,0.2,0.7,0.9,0.7,1.2c-0.1,0.8-0.5,1.5-0.7,1.9c-0.1,0.2-0.2-0.1-0.2-0.4c0.2-0.6,0.6-1.8,0.4-2.3c-0.1,0.5-0.2,1.2-0.6,2.2
			c-0.1,0.3-0.2,0.2-0.2-0.1c0.1-0.4,0.3-1.3,0.4-2.3C138.7,14.9,138.7,14.9,138.8,14.8C138.8,14.8,138.8,14.8,138.8,14.8z
			 M141.4,14.2c0-0.1,0-0.2,0.1-0.3c0.2,0,0.6,0,0.7,0.5c0,0,0,0.1,0,0.1c0,0,0,0,0,0l0,0c0,0.2-0.1,0.4-0.1,0.6
			c-0.2,0.5-0.5,0.9-0.6,1.1c0,0,0,0,0,0c-0.1,0.2-0.4,0-0.2-0.2c0.2-0.4,0.8-1.4,0.6-1.7c-0.1,0.2-0.3,0.8-0.8,1.6
			c-0.1,0.2-0.3,0-0.3-0.2C140.9,15.4,141.2,14.9,141.4,14.2z M142.5,15c0.6,0.2,0.7,0.8,0.4,1.3c-0.1,0.2-0.5,0.6-0.8,1
			c-0.2,0.1-0.3-0.1-0.2-0.3c0.3-0.5,0.8-1.1,0.7-1.5c-0.1,0.2-0.4,0.7-0.9,1.4c-0.1,0.2-0.4-0.1-0.3-0.3h0c0.2-0.2,0.5-0.6,0.8-1.2
			C142.4,15.2,142.4,15.1,142.5,15C142.5,15,142.5,15,142.5,15z M140.7,20c-0.1,0-0.1-0.1,0-0.2c0.4-0.4,1.2-1.3,1.1-1.8
			c-0.2,0.4-0.5,0.9-1.2,1.6c-0.2,0.2-0.3,0-0.1-0.2c0,0,0,0,0,0c0.3-0.3,0.9-1,1.3-1.6c0-0.1,0-0.1,0.1-0.2l0.1,0.1
			c0.1,0.2,0.2,0.4,0.1,0.7C141.6,19.2,141,19.7,140.7,20z M140.1,19.1c0.4-0.5,1.1-1.5,1-1.9c-0.2,0.5-0.5,1-1.1,1.8
			c-0.2,0.2-0.3,0.1-0.2-0.1c0.3-0.3,0.8-1.1,1.1-1.9c0-0.1,0-0.2,0-0.3c0.3,0.1,0.7,0.5,0.5,1c-0.2,0.6-0.8,1.2-1.1,1.5
			c0,0,0,0,0,0C140,19.4,139.9,19.3,140.1,19.1z M142.8,18c0,0-0.1,0.1-0.1,0.1c-0.1,0-0.1-0.1,0-0.2c0.4-0.5,0.9-1.1,0.8-1.3
			c-0.1,0.2-0.4,0.6-1,1.2c-0.1,0.2-0.3,0.1-0.2-0.1c0.2-0.2,0.5-0.6,0.9-1c0.2-0.2,0.2-0.5,0.2-0.7c0.7,0.3,0.4,1.1,0.3,1.3
			C143.4,17.4,143.1,17.8,142.8,18z M139.9,15.6c0.8,0.4,0.7,1,0.7,1.2c-0.2,0.6-0.6,1.2-0.9,1.6c-0.2,0.3-0.3,0-0.2-0.2
			c0.3-0.5,0.8-1.6,0.7-2.1c-0.1,0.5-0.4,1.1-0.8,2c-0.1,0.2-0.3,0.2-0.2,0c0.2-0.4,0.6-1.2,0.7-2.1
			C139.8,15.9,139.8,15.7,139.9,15.6C139.8,15.6,139.8,15.6,139.9,15.6z M139.9,15.6C139.9,15.6,139.9,15.6,139.9,15.6
			C139.9,15.6,139.9,15.6,139.9,15.6z M143.9,16.1c0-0.1,0-0.1,0-0.2c0.1-0.1,0.2-0.1,0.4-0.3c0,0,0,0,0,0.1
			C144.3,15.9,144,16.2,143.9,16.1z M140.2,12.8C140.2,12.8,140.3,12.8,140.2,12.8C140.3,12.8,140.2,12.8,140.2,12.8
			C140.2,12.8,140.2,12.8,140.2,12.8z M140.2,13.2c0-0.1,0-0.2,0-0.3c0.2,0,0.6-0.1,0.9,0.5c0.1,0.2,0.1,0.6,0,0.8
			c-0.2,0.6-0.4,1-0.6,1.3c-0.1,0.1-0.3-0.1-0.2-0.3c0.1-0.4,0.5-1.5,0.4-1.8c-0.1,0.2-0.3,1-0.6,1.6c-0.1,0.2-0.4,0.2-0.4,0
			C139.8,14.6,140.1,14.1,140.2,13.2z M138.4,10.9c0.2,0.2,0.3,0.6,0.2,1c-0.1,0.7-0.1,1.3-0.2,1.6c-0.1,0.2-0.3,0.2-0.3-0.1
			c0-0.5,0-1.9-0.2-2.2c0,0.3,0,1.2-0.1,2.1c0,0.3-0.3,0.1-0.4-0.2c0-0.4,0.1-1,0-1.6c0-0.3-0.1-0.7-0.2-1c0,0,0.1,0,0.1,0
			c0,0,0,0,0,0C137.6,10.5,138.1,10.6,138.4,10.9z M141.3,20.7C141.3,20.7,141.3,20.7,141.3,20.7C141.3,20.7,141.3,20.7,141.3,20.7
			C141.3,20.7,141.3,20.7,141.3,20.7z M141.9,19.8c-0.2,0.2-0.4,0.4-0.5,0.6c-0.2,0.2-0.4,0.2-0.2,0c0.4-0.4,1.1-1.2,1.1-1.7
			c0.1,0.1,0.1,0.4-0.1,0.6C142.1,19.5,142,19.7,141.9,19.8z M144.9,13.9c-0.1,0.1-0.1,0.3-0.1,0.4c0,0,0,0,0,0
			c-0.1,0.1-0.6,0.5-1.2,0.9c-0.2,0.2-0.4,0.1-0.2,0C143.7,15,144.3,14.5,144.9,13.9z M139.1,11.7c0.2,0,0.4,0,0.7,0.4
			c0.1,0.2,0.2,0.7,0.1,1c-0.1,0.6-0.2,1-0.3,1.3c0,0,0,0,0,0c-0.1,0.3-0.4,0.1-0.3-0.1c0-0.4,0.3-2,0.2-2.3
			c-0.1,0.2-0.2,1.3-0.4,2.1c-0.1,0.2-0.3,0.2-0.3,0c0.1-0.3,0.2-1,0.3-2.2c0-0.1,0-0.1,0-0.2C139,11.8,139,11.8,139.1,11.7z
			 M135.9,12.7C135.9,12.8,135.9,12.8,135.9,12.7c-0.1-0.6-0.2-1.2-0.3-1.8c-0.1-0.4-0.2-0.7-0.4-0.8c0.1-0.1,0.3-0.2,0.5-0.2
			c0.6,0,0.9,0.2,1.1,0.4c0.3,0.3,0.4,0.8,0.4,1.1c0,0.7,0,1.2,0,1.6c-0.1,0.3-0.5,0.2-0.5-0.1c0-0.5-0.2-2.3-0.5-2.5
			c0.2,1.2,0.2,1.9,0.2,2.4C136.4,13.1,136,13.1,135.9,12.7z"/>
		<path class="st0" d="M140.9,21.7c-2.1,0-3.2,0.9-3.2,0.9c2.8-0.9,4.5,0,4.5,0c-0.7-0.6-1.4-0.6-1.5-0.7
			C140.7,21.8,140.9,21.7,140.9,21.7z"/>
		<path class="st0" d="M137.2,24.2c0.9-0.4,1.8-0.6,2.5-0.6c1.7,0,2.7,0.6,2.7,0.6c-0.5-0.6-1.2-0.7-1.3-0.8
			c-0.1-0.1,0.3-0.2,0.3-0.2C138.4,22.8,137.2,24.2,137.2,24.2z"/>
		<path class="st0" d="M142.4,23.4c-0.6-0.6-1.2-0.6-1.3-0.7c-0.1-0.1,0.2-0.2,0.2-0.2c-2.8-0.2-4,0.9-4,0.9
			C140.8,22.4,142.4,23.4,142.4,23.4z"/>
		<path class="st0" d="M140.1,23.7c-0.9,0-1.6,0.1-1.8,0.2c-0.2,0.1-0.4,0.2-0.6,0.3c-0.5,0.3-1.2,1.4-1.2,1.4s0.3,0,0.4-0.1
			c0.3-0.3,0.6-0.7,1-0.9c0.6-0.4,1.8-0.4,2.3,0.7c0.4,0.7,0.8,1.6,1.5,2.3c-0.5,0.3-1.3,1.1-1.8,1.9c1-0.9,1.7-1.4,2.1-1.6
			c0.1,0.1,0.2,0.2,0.2,0.3c-0.3,0.2-1.3,0.8-1.9,1.6c1.2-0.7,1.9-1.2,2.2-1.3c0,0,0.1,0.1,0.1,0.1c-0.3,0.2-1.3,0.8-1.9,1.6
			c1.2-0.7,1.9-1.2,2.2-1.3c0,0,0.1,0.1,0.1,0.1c-0.3,0.2-0.9,0.6-1.4,1.1c-0.1,0-0.2,0-0.4,0c0.6,0.2,0.7,0.4,0.9,0.7
			c0.5,0.7,1.8,0.1,2.4-0.4c0.3-0.3,1.3-1.5,2.8-2.5c-0.1,0-0.2,0-0.2,0l0,0c0,0-1.3-0.4-3-1.8c0.6,1,2,1.7,2.5,2
			c0,0-0.1,0.1-0.1,0.1c-0.4-0.2-1.6-0.6-3-1.7c0.6,1,2,1.7,2.6,2c-0.1,0-0.1,0.1-0.2,0.1c-0.5-0.2-1.7-0.7-3-1.6
			c0.6,1,2,1.7,2.6,1.9c0,0-0.1,0.1-0.1,0.1c-0.5-0.2-1.6-0.6-3-1.6c0.7,1.1,2.1,1.7,2.7,1.9c0,0-0.1,0.1-0.1,0.1
			c-2.1-0.7-3.6-2.7-4.3-4c0.1,0.2,0.3,0.4,0.6,0.7c0.5,0.7,1.1,1.2,1.1,1.2s-0.6-1.1-0.9-1.6c-0.3-0.5-0.6-1.1-0.6-1.1
			s0.4,0.5,0.8,1c0.6,0.8,1,1.1,1,1.1s-0.3-0.6-0.7-1.2c-0.3-0.6-0.6-0.9-0.6-0.9s0.2,0.2,0.6,0.6c0.4,0.4,0.4,0.5,0.7,0.8
			c0,0-0.1-0.4-0.5-1c-0.1-0.2-0.2-0.3-0.3-0.3c0.2,0.1,0.5,0.1,0.7,0.2C142.2,24.1,141.1,23.8,140.1,23.7z M144.2,30
			c-0.6,0.5-1.5,0.7-1.8,0.4c-0.2-0.2-0.3-0.3-0.5-0.4c0.9-0.6,1.2-0.7,1.5-0.8c0.2,0,0.3,0,0.3,0l0,0c0.3,0.2,0.6,0.3,0.9,0.4
			C144.4,29.7,144.3,29.9,144.2,30z"/>
		<path class="st0" d="M137.9,30c-0.1-0.1-0.3-0.2-0.4-0.3c0.1,0.1,0.1,0.3,0.3,0.4c0.1,0.1,0.3,0.3,0.5,0.3
			c0.9,0.1,1.4-0.9,1.4-0.9c0,0-0.5,0.5-1.2,0.5C138.3,30.1,138.1,30.1,137.9,30z"/>
		<path class="st0" d="M136.4,30c0.3,0.2,0.5,0,0.5-0.2c0-0.2-0.2-0.5-0.5-0.5c-0.7-0.1-0.9,0.5-0.9,0.5c0,0,0.4-0.2,0.8-0.1
			C136.5,29.7,136.7,29.8,136.4,30z"/>
		<path class="st0" d="M141.5,30.8c0-0.2-0.2-0.5-0.5-0.5c-0.7-0.1-0.9,0.4-0.9,0.4c0,0,0.4-0.2,0.8-0.1c0.1,0,0.3,0.2,0.1,0.4
			C141.1,31.1,141.5,30.9,141.5,30.8z"/>
		<path class="st0" d="M135.7,31.2c0.2-0.2,0.3-0.2,0.5-0.3c0.2-0.1,0.3-0.3,0.2-0.4c-0.1-0.2-0.5-0.3-1-0.1
			c-0.6,0.2-0.7,0.7-0.6,0.8c0.1-0.1,0.2-0.4,0.7-0.5c0.3-0.1,0.6,0,0.4,0.2C135.9,30.8,135.7,31,135.7,31.2z"/>
		<path class="st0" d="M138,31.6c0,0.1,0.1,0.2,0,0.4c0.3,0,0.4-0.3,0.3-0.5c0,0,0-0.1,0-0.1c-0.6-1.2-1.9-0.4-1.9-0.4
			c0.6-0.2,1.1-0.1,1.3,0.1c-0.1,0-0.3,0-0.5,0c-0.6,0-1.1,0.3-1.3,0.6c-0.2,0.2-0.3,0.5-0.1,0.7c0-0.2,0-0.4,0.2-0.6
			c0.3-0.2,0.7-0.4,1.2-0.5C137.9,31.3,138,31.5,138,31.6z"/>
		<path class="st0" d="M139.8,30.5c-0.2,0-0.5,0.1-0.7,0.4c-0.1,0.1-0.1,0.2-0.1,0.4c0,0.5-0.9,0.8-0.9,0.8c0.4,0,0.8-0.2,1-0.4
			c0,0.2-0.1,0.4-0.5,0.5c-0.5,0.2-1.3,0-1.3,0c0,0,0.1,0.2,0.4,0.3c0.4,0.1,0.8,0.1,1,0.1c0.5-0.1,0.8-0.7,0.6-1
			c-0.1-0.1-0.2-0.3-0.1-0.5C139.5,30.9,139.7,30.6,139.8,30.5z"/>
		<path class="st0" d="M145,17.1c0.3-0.6,0.8-1.7,0.8-2c-0.1,0-0.6,1.3-0.9,1.9c-0.6,1-1.2,2.1-2.1,3.2c-0.8,1-0.3,1.4-0.3,1.4
			s-0.1-0.5,0.5-1.1C143.8,19.5,144.5,18.2,145,17.1z"/>
		<path class="st0" d="M154,16.3c0.6-0.3,1.6-0.9,2.6-1.9c0.6-0.7,1.4-2,0.9-3.2c0.1,1.1-0.2,1.9-1.1,2.9c-1.1,1.2-2.3,1.8-2.6,2
			c0.1-0.5,0.4-0.8,0.7-1c0.9-0.6,2.1-1.6,2.2-2.2c-0.6,0.7-1.2,1.2-2.2,1.8c-0.4,0.2-0.5-0.2-0.5-0.3c0,0,0,0,0,0
			c0.3-0.2,1.9-1.1,3-2.5c0.6-0.9,1.5-2.6,0.6-4c0.5,1.1,0,2.5-0.9,3.7c-1.1,1.5-2.5,2.3-2.7,2.5c0,0,0,0,0,0c0.1-0.2,0.3-1,0.7-1.3
			c0.8-0.6,2.2-2.1,2.3-2.8c-0.9,1-1.8,2-2.5,2.5c-0.3,0.2-0.5,0.2-0.6,0.1c0.1-0.5,0-0.9,0-0.9c0,0,0,0.7-0.8,1.6
			c-1.2,1.4-2.6,1.8-2.6,1.8l-0.1,0.4c0,0,1.7-0.5,2.9-1.9c0.2-0.3,0.4-0.6,0.5-0.8l0,1.2c0,0,0,0,0,0c0,0,0,1.1-1.1,1.8
			c-1,0.6-2.1,0.8-2.6,0.9c0.1-0.1,0.1-0.1,0.1-0.2l0,0c0,0,0.2-0.3,0.7-0.4c0.7-0.3,2.1-0.9,2.3-1.6c-0.9,0.7-1.6,1.1-2.3,1.3
			c-0.4,0.1-0.5,0-0.6-0.1c0,0,0-0.1,0-0.1c-0.1,0.3-0.3,1-1.5,1.2c-1.2,0.2-2.2,0.1-2.7,0.1c-0.3,0-0.1-0.2,0.1-0.2
			c0.5,0,2.3,0,2.7-0.4c-1.1,0.1-1.9,0.2-2.7,0.1c-0.3,0-0.2-0.2,0-0.3c0.6,0.1,1.8,0.2,3.2-0.4c0.4-0.2,0.7-0.4,0.8-0.8
			c0-0.1,0-0.1,0.1-0.2c0,0.1,0.1,0.3,0.1,0.3s0.1-0.5,0.7-0.8c0.7-0.4,2-1.6,2.1-2.2c-0.9,1-1.6,1.5-2.3,2
			c-0.4,0.3-0.5,0.2-0.5,0.1c0-0.1-0.1-0.1-0.1-0.2c0,0.7-0.5,1.2-1,1.4c-1.1,0.5-2.2,0.5-2.8,0.5c-0.1-0.1,0-0.1,0.2-0.2
			c1-0.1,2.3-0.4,2.6-0.8c-1,0.4-1.9,0.5-2.6,0.6c-0.3,0-0.2-0.1,0-0.2c0.8-0.1,2.6-0.5,3.4-1.4c0,0,0,0,0-0.1
			c0.7-0.3,2.1-1.2,3.1-2.6c0.2-0.3,0.4-0.6,0.5-0.9l0.2,1.4c0,0,0,0,0,0l0,0.4c0.1,0,1.2-0.7,2.7-2.8c1.2-1.7,0.9-3.6,0.3-4.3
			c0.3,0.8,0.6,2.4-0.5,3.9c-1.4,1.9-2.4,2.6-2.5,2.7c0-0.2,0.1-0.9,0.8-1.5c0.6-0.6,2.1-2.6,2-3.7C156,7.7,155,9,154.5,9.5
			c-0.5,0.5-0.7,0.5-0.8,0.4c0.1-0.3,0.2-0.6,0.2-0.8c0.5-0.6,1.6-2.1,2.3-3.7c0.4-1.1,0.5-2,0.3-2.5c0,0.3,0.1,0.6-0.6,2.3
			c-0.6,1.6-1.5,2.9-2,3.4c0-0.1,0-0.2-0.1-0.3l0,0c0,0-0.1-0.3,0.3-1c0.6-1.1,1.7-3,1.6-4.2c-0.4,1.6-1,2.6-1.6,3.7
			c-0.4,0.7-0.7,0.5-0.7,0.5l0.1,0.2c0.1,0.3,0.7,1.4-0.7,3.2c-0.9,1.2-1.8,1.9-2.4,2.3c0-0.1,0-0.2,0.1-0.3c0,0,0,0,0-0.1
			c0-0.2,0.2-0.6,0.5-0.8c0.6-0.5,1.9-1.7,2-2.5c-0.8,1.1-1.5,1.7-2.1,2.3c-0.4,0.3-0.8,0-0.8,0s0.4,1-0.3,1.8
			c-0.7,0.8-2,1.2-2.9,1.4c-0.2,0-0.1-0.2,0.1-0.3c0.7-0.3,2-0.9,2.4-1.6c-1,0.7-1.7,1.1-2.4,1.4c-0.2,0.1-0.2,0-0.1-0.1
			c0.1,0,0.1-0.1,0.2-0.2c0,0,0,0,0,0c0,0,0,0,0,0c0,0,0,0,0.1,0c0.5-0.3,1.8-1.3,2.4-2c0.1-0.1,0.1-0.2,0.2-0.2
			c0.6-0.4,1.8-1.5,2.7-2.9c0.5-0.9,0.7-1.5,0.6-1.8c0-0.1-0.1-0.2-0.2-0.2c0,0,0,0.5-0.7,1.8c-0.8,1.4-1.8,2.3-2.3,2.6
			c0-0.2,0.1-0.5,0.4-0.9c0.8-0.9,1.7-2,1.8-2.7c-0.7,1.1-1.1,1.6-1.9,2.4c-0.3,0.3-0.4,0.2-0.5,0.2c0,0,0-0.1-0.1-0.1
			c0.1,0.4,0.2,1-0.3,1.6c-0.7,0.9-2.2,1.8-2.5,2c-0.5,0.3-0.7,0.7-0.8,1.1c-0.1,0.5-0.7,2.6-2.5,5.2c-0.2,0.2-0.4,0.5-0.7,0.9
			c-0.2,0.3-0.4,0.7,0,1.1c0-0.1,0-0.2,0-0.2c0,0,0.1,0.1,0.1,0.1c0,0,0.6,1,1.4,1c0,0-0.3-0.2-0.7-0.5c0.4,0.2,0.8,0.4,1.4,0.5
			c0.3,0.1,0.5,0,0.8,0c0,0,0,0,0,0c-0.4,0.5-1,0.5-1.3,0.4c-0.7-0.2-1.1-0.6-1.4-1c0.1,0.4,0.5,1,1.2,1.3c0.1,0.1,0.2,0.3,0.4,0.5
			c-0.6-0.3-1-0.5-1.4-0.5c0.5,0.3,1.3,0.8,2.2,1.3c0,0,0,0.1,0,0.1c-0.7-0.3-1.4-0.5-1.7-0.6c0.5,0.3,1.1,0.6,2,1.1
			c0.1,0.1,0.1,0.2,0.2,0.3c-0.6-0.2-0.9-0.3-1.4-0.4c0.6,0.3,1.4,0.7,2.6,1.2c0,0.1,0.1,0.1,0.1,0.2c-0.7-0.3-1.2-0.5-2-0.7
			c0.6,0.4,1.3,0.7,2.2,1.1c0,0.1,0.1,0.1,0.1,0.2c-0.3-0.1-0.5-0.1-0.8-0.2c0.1,0.1,0.5,0.3,0.9,0.5c-0.5,0.4-1.5,1.2-1.9,1.8
			c1.1-0.7,2-1.3,2.2-1.4c0,0,0,0,0,0c-0.1,0.1-1.3,1.1-3.1,2.4c1.1-0.4,3-1.7,3.5-1.9c0,0,0,0,0,0c-0.2,0.2-0.9,0.8-2.1,1.5
			c-1.3,0.7-2.4,0.9-3.2,1.1c-0.8,0.1-1.2,0.2-1.8,0.4c-0.6,0.2-1.2,0.3-1.4-0.1c0.1,0.7,0.7,0.6,1.2,0.5c0.1,0,0.3,0,0.2,0.3
			c0.2-0.1,0.3-0.4,0.7-0.6c0.3-0.1,0.6-0.1,1.2-0.2c1.5-0.2,2.2-0.4,3.3-1c1-0.5,1.9-1.1,2.2-1.4c0,0,0,0,0,0
			c-0.3,0.2-1.5,1.2-2.7,1.8c-1.5,0.7-2.8,0.8-3.1,0.8c-0.1,0-0.6,0.1-0.8,0.2c-0.2,0.1-0.3,0.2-0.5,0.4c-0.4,0.4-0.9,0.5-0.9,0.5
			c0.3,0.1,0.9-0.2,1.2-0.5c-0.2,0.2-0.5,0.5-0.8,0.6c-0.6,0.2-1,0-1.1-0.1c0,0.3,0.4,0.7,1.2,0.4c0.4-0.1,0.5-0.3,1-0.7
			c0.2-0.2,0.4-0.3,0.7-0.4c0.1,0,0.2,0,0.2,0.1c0.1,0.2-0.1,0.5-0.5,0.7c0,0,0.8,0.1,1-0.9c0.5-0.1,1.4-0.2,2.2-0.6
			c0.5,1.3,1.2,2,1.7,2.3c0.4,0.2,0.7,0.2,0.7,0.2s-0.4-0.2-0.8-0.5c-0.4-0.3-0.8-0.9-1.2-1.7c-0.1-0.3,0-0.4,0-0.4c0,0,0,0,0,0
			c0.4,0.8,0.8,1.6,1.6,2.1c0.2,0.2,0.4,0.2,0.5,0.3c0.1,0.1,0.3,0.1,0.4,0.2c0.3,0.1,0.6,0.1,0.8,0c0,0-0.4-0.1-0.9-0.4
			c-0.3-0.2-1.1-0.7-1.8-2c-0.2-0.4-0.1-0.5-0.1-0.5c0,0,0,0,0,0c0.5,1.1,1.2,1.8,1.9,2.3c0.4,0.3,0.7,0.4,0.9,0.4
			c0.1,0,0.1,0,0.2,0.1c0.4,0.1,0.9,0.1,1.2-0.1c0,0-0.4,0.1-1.1-0.2c-0.7-0.2-1.7-1.1-2.5-2.2c0,0,0,0,0,0
			c-0.2-0.4-0.2-0.5-0.2-0.6c0,0,0,0,0,0c0.7,1.2,1.5,1.8,2.3,2.4c0.4,0.3,0.8,0.4,1.1,0.4c0.1,0,0.1,0,0.2,0.1
			c0.7,0.2,1.4-0.1,1.7-0.4c0.7,0,1.3-0.3,1.4-0.6c-0.4,0.3-0.8,0.4-1.7,0.2c-0.9-0.2-2.6-1.1-3.7-2.5c-0.1-0.2-0.1-0.4,0-0.5l0,0
			c1,1.1,1.9,1.8,2.9,2.3c0.7,0.3,1.2,0.4,1.5,0.3c0.2,0,0.3,0.1,0.4,0.1c0.9,0.1,1.7-0.3,1.8-0.6c-0.4,0.2-0.8,0.3-1.8,0.2
			c-1.1-0.1-3.3-1.2-4.5-2.8c0,0,0,0,0,0c0.3,0.3,0.6,0.3,0.6,0.3c-0.8-0.8-1.2-1.7-1.5-2.5c0.3,0.6,0.8,1.4,1.4,2
			c1.1,1.3,3.5,2.4,5.1,2.6c0.9,0.1,1.2-0.3,1.2-0.3c-1.7,0.2-5.1-1.5-6-2.6c-0.8-1-1.5-2.3-1.7-2.6c0.6,0,0.9-0.5,0.9-0.5
			c0,0-0.6,0.3-1.3,0c-0.3-0.2-0.7-0.5-0.9-0.7c0.1,0,0.2,0,0.2-0.1c0.3,0.3,0.7,0.6,1.2,0.7c0,0-0.5-0.3-1-0.8
			c0.1,0,0.1-0.1,0.2-0.1c0.2,0.1,0.9,0.7,1.5,0.8c0.9,0.2,1.4-0.4,1.5-0.7c0,0-0.7,0.5-1.5,0.3c-0.2,0-0.5-0.2-0.7-0.3c0,0,0,0,0,0
			c-0.3-0.1-0.2-0.4,0-0.3c1.1,0.5,1.3,0.3,1.3,0.3s-0.5,0-1.1-0.4c-0.2-0.1-0.1-0.3,0.2-0.2c0.3,0.2,0.8,0.4,1.5,0.5
			c0.9,0.1,1.4-0.5,1.5-0.8c0,0-0.5,0.6-1.4,0.5c-0.3,0-0.6-0.1-0.9-0.2c-0.3-0.1-0.2-0.4,0-0.3c1.1,0.3,1.3,0.1,1.3,0.1
			s-0.6,0-1.2-0.3c-0.2-0.1-0.1-0.4,0.3-0.3c0.2,0.1,0.5,0.3,0.9,0.3c0.7,0.1,1.1-0.2,1.4-0.5c0.3-0.3,0.4-0.6,0.4-0.6
			c0,0-0.7,0.8-1.7,0.7c-0.1,0-0.2,0-0.3,0c0,0,0,0,0,0c-0.3-0.1-0.3-0.4,0-0.4c1.1,0.2,1.4-0.1,1.4-0.1s-0.6,0-1.3-0.2
			c-0.2-0.1-0.1-0.4,0.3-0.4c0.3,0.1,0.7,0.2,1.3,0.2c0.8,0,1.2-0.4,1.5-0.7c0.2-0.3,0.3-0.7,0.3-0.7c0,0-0.5,1-1.8,1
			c-0.3,0-0.5,0-0.7,0c-0.3-0.1-0.1-0.4,0.1-0.4c0.8,0,1.5,0,1.7-0.3c-0.8,0.1-1.1,0.1-1.7,0c-0.3,0-0.2-0.3,0.2-0.4
			c0.3,0.1,0.8,0.2,1.5,0.1c0.8-0.1,1.3-0.5,1.5-0.9c0.3-0.4,0.4-0.7,0.4-0.7c0,0-0.6,1-1.8,1.2c-0.4,0.1-0.8,0.1-1.1,0c0,0,0,0,0,0
			c-0.3-0.1-0.2-0.4,0.1-0.4c0.8,0,1.7,0,2.1-0.5c-0.9,0.3-1.5,0.3-2,0.3c-0.3,0-0.2-0.3,0.2-0.4c0.4,0,1.2,0,2.2-0.3
			c1.8-0.5,2-1.9,1.9-2.2c-0.2,0.7-0.5,1.4-2.1,1.8c-0.6,0.2-1.1,0.3-1.5,0.3c-0.3,0-0.3-0.4,0-0.5c0.8,0,2.1-0.4,2.4-0.9
			c-0.9,0.3-1.8,0.5-2.4,0.5c-0.3,0-0.2-0.4,0.3-0.4c0.7,0,1.6-0.2,2.6-0.7c1.4-0.8,1.5-2.3,1.3-2.9c-0.1,0.7-0.3,1.9-1.5,2.5
			c-0.7,0.4-1.4,0.6-2,0.7c-0.3,0-0.3-0.3,0.3-0.5c0.7-0.2,2.2-0.9,2.5-1.6c-0.6,0.5-1.3,1-2.4,1.3C153.7,16.8,153.6,16.5,154,16.3z
			 M149.9,11.1C149.9,11.1,149.9,11.1,149.9,11.1C149.9,11.1,149.9,11.1,149.9,11.1C149.9,11.1,149.9,11.1,149.9,11.1z M151.5,20
			C151.5,19.9,151.5,19.9,151.5,20c-0.2,1-1.2,1-1.6,0.9c-0.6-0.1-1.2-0.2-1.5-0.4c-0.3-0.2-0.1-0.4,0.2-0.3
			c0.4,0.1,1.6,0.5,2.2,0.1c-1.1,0-1.8-0.2-2.3-0.5c-0.3-0.1,0-0.4,0.3-0.2c0.4,0.2,1.1,0.4,2,0.3c0.3,0,0.5-0.1,0.7-0.2
			C151.5,19.7,151.5,19.8,151.5,20z M147.4,24.5c-0.1,0.1-0.7,0.3-1.4,0.1c-0.3-0.1-0.6-0.3-0.8-0.4c0.1,0,0.1,0.1,0.2,0.1
			c-0.2-0.2,0-0.3,0.2-0.2c0.2,0.1,0.8,0.4,1.1,0.3c-0.5-0.3-0.7-0.3-1.1-0.6c-0.2-0.2-0.1-0.4,0.1-0.2c0,0,0,0,0,0
			C146,23.8,146.8,24.3,147.4,24.5c0-0.1,0.1-0.1,0.1-0.1C147.5,24.4,147.4,24.4,147.4,24.5z M146.2,23.2c0.3,0.2,1.1,0.7,1.6,0.6
			c-0.9-0.4-1.1-0.5-1.5-0.9c-0.2-0.1-0.1-0.3,0.1-0.2c0.3,0.2,1.3,0.8,1.9,0.9c0.2,0,0.3,0,0.5,0c-0.1,0.2-0.6,0.5-1.2,0.4
			c-0.4-0.1-0.9-0.4-1.3-0.7c0,0,0,0,0,0C145.9,23.2,146,23.1,146.2,23.2z M148.1,23.3c-0.4,0-1-0.4-1.4-0.6c-0.2-0.1,0-0.3,0.2-0.2
			c0.3,0.2,1.2,0.7,1.7,0.3c-0.8-0.1-1.4-0.4-1.7-0.7c-0.2-0.2,0-0.3,0.3-0.2c0.4,0.2,1,0.5,1.7,0.7c0.2,0,0.3,0,0.5,0c0,0,0,0,0,0
			C149.2,22.8,148.8,23.3,148.1,23.3z M148,19.8c-0.3,0.7-0.9,1-1.5,0.9c-0.9-0.1-1.6-0.5-2.1-0.7c-0.1-0.2,0-0.3,0.2-0.2
			c0.2,0.1,1.5,0.7,2.5,0.5c-1-0.2-1.9-0.5-2.5-0.9c-0.2-0.2-0.1-0.3,0.1-0.3c0.5,0.3,1.5,0.7,2.6,0.7
			C147.6,19.9,147.8,19.8,148,19.8C148,19.8,148,19.8,148,19.8z M148.9,18.4C148.9,18.4,148.9,18.4,148.9,18.4L148.9,18.4
			C148.9,18.4,148.9,18.4,148.9,18.4z M148.9,18.4C148.9,18.4,148.9,18.4,148.9,18.4c-0.1,0.7-0.8,1.1-1.5,1.1c-1,0-1.9-0.3-2.4-0.5
			c-0.2-0.2,0.1-0.3,0.2-0.2c0.4,0.1,1.6,0.5,2.7,0.3c-1.2-0.2-2.1-0.4-2.6-0.7c-0.2-0.1-0.1-0.3,0.1-0.3c0.5,0.2,1.7,0.6,3,0.5
			C148.5,18.5,148.7,18.4,148.9,18.4z M143.7,20.9c-0.2-0.2,0-0.3,0.2-0.2c0.1,0.1,1.5,0.8,2.3,0.7c-1-0.3-1.8-0.6-2.3-1
			c-0.2-0.2-0.1-0.3,0.1-0.3c0.4,0.3,1.3,0.9,2.4,1c0.2,0,0.4,0,0.6,0c-0.3,0.6-0.8,0.7-1.2,0.6C144.9,21.6,144.2,21.2,143.7,20.9z
			 M148.9,22.2c-0.6-0.1-1.1-0.4-1.5-0.5c-0.2-0.2,0-0.4,0.3-0.3c0.4,0.2,1.5,0.7,2.1,0.3c-1-0.1-1.7-0.4-2.1-0.7
			c-0.2-0.2,0-0.4,0.3-0.3c0.4,0.2,1,0.5,1.8,0.6c0.2,0,0.4,0,0.6,0c0,0,0,0.1,0,0.1c0,0,0,0,0,0C150.1,22.1,149.5,22.3,148.9,22.2z
			 M152.4,18.3c0,0.1-0.4,1-1.5,1.1c-0.6,0.1-1.2,0-1.6-0.1c0,0,0,0,0,0c-0.3-0.1-0.2-0.3,0.1-0.3c0.4,0,2,0.1,2.5-0.4
			c-1.1,0.2-2.1,0.2-2.6,0.1c-0.2-0.1-0.1-0.2,0.1-0.3c0.6,0,1.6,0,2.7-0.4c0.1,0,0.3-0.1,0.4-0.1C152.4,18,152.4,18.1,152.4,18.3z
			 M152.9,16c0.6-0.3,0.8-0.7,0.9-1.1c0,0.2,0,0.5-0.1,0.7l0,0c-0.1,0.4-0.3,1.5-1.8,2c-0.8,0.3-1.5,0.3-2,0.4
			c-0.3-0.1-0.3-0.4,0.3-0.5c0.5-0.1,2.3-0.3,2.6-1c-1,0.5-1.8,0.6-2.5,0.7c-0.2,0-0.3-0.3,0.1-0.4C151,16.8,152,16.6,152.9,16z
			 M149.1,17c0.2,0,0.4-0.1,0.6-0.2c0,0,0,0,0,0.1c-0.1,0.4-0.4,1.1-1.4,1.2c-1.1,0.1-2.1-0.1-2.6-0.3c-0.2-0.1-0.1-0.3,0.1-0.2
			c0.5,0.1,2,0.4,2.8,0c-1.2,0-2.3-0.1-2.8-0.3c-0.2-0.1-0.1-0.2,0.1-0.2C146.3,17.1,147.6,17.3,149.1,17z M145,22.5
			c-0.8-0.2-1.5-0.5-1.9-0.9c-0.1-0.1,0.1-0.2,0.2-0.1c0.2,0.2,1.1,0.7,2,0.7c-1.1-0.3-1.6-0.7-2-1c-0.2-0.1-0.1-0.2,0-0.2
			c0.4,0.4,1.3,1,2.4,1.1c0.3,0,0.5,0,0.7-0.1c0,0,0,0,0,0C146.1,22.6,145.4,22.6,145,22.5z M152.3,33.1c-0.4,0.2-0.7,0.2-1.5,0
			c-0.8-0.2-2-1-3-2.3c-0.3-0.4-0.1-0.6-0.1-0.7c0,0,0,0,0,0c0.8,1.2,1.7,1.9,2.6,2.4c0.6,0.3,1,0.4,1.4,0.4c0.1,0,0.2,0.1,0.3,0.1
			C152.1,33.1,152.2,33.1,152.3,33.1z M147.4,26.1c0.1,0,0.2,0.1,0.3,0.1l0,0c-0.2,0-0.8,0.1-1.3-0.3c-0.3-0.3-0.6-0.8-0.7-1.1
			c0.1,0,0.1,0,0.2,0.1c0,0,0,0,0,0c0.2,0.3,0.4,0.8,0.9,0.9c0,0-0.3-0.3-0.6-0.8c0,0,0.1,0,0.1,0C146.4,25.2,146.9,25.8,147.4,26.1
			z"/>
		<path class="st0" d="M141.9,21c0,0.3,0.1,0.5,0.2,0.5c-0.2-0.7,0.3-1.1,0.8-1.8C142.3,20.1,141.9,20.6,141.9,21z"/>
		<path class="st0" d="M152.2,6.3c0.1-0.2,0.3-0.6,0.6,0.1c0,0,0-0.6-0.3-0.8c-0.2-0.1-0.4,0-0.5,0.3c-0.3,0.7-1.3,2.5-2.4,3.9
			C149.9,9.7,151.1,8.8,152.2,6.3z"/>
		<path class="st0" d="M155.6,2c0.1-0.4,0.3-0.5,0.7,0.2c0,0,0-0.6-0.5-1c-0.1-0.1-0.4,0-0.5,0.4c-0.2,0.8-1.2,3.6-2.1,5.2
			C153.6,6.8,154.7,4.8,155.6,2z"/>
		<path class="st0" d="M146.5,13.4c-0.6,0.4-0.7,1.1-0.7,1.4c0.1-0.2,0.3-0.8,0.7-1.1c0.4-0.3,2.2-1.6,2.6-2.1c0.5-0.5,0.4-1,0.4-1
			s-0.1,0.5-0.6,0.9C148.6,11.9,147.9,12.4,146.5,13.4z"/>
	</g>
	<g>
		<path class="st0" d="M170.5,62.7c0.5,0,0.8,0.4,0.8,0.8c0,0.5-0.4,0.8-0.8,0.8c-0.5,0-0.8-0.4-0.8-0.8
			C169.7,63.1,170,62.7,170.5,62.7L170.5,62.7z M170.5,62.9c-0.4,0-0.6,0.3-0.6,0.6c0,0.4,0.3,0.6,0.6,0.6c0.4,0,0.6-0.3,0.6-0.6
			C171.1,63.2,170.9,62.9,170.5,62.9L170.5,62.9z M170.4,63.9h-0.2v-0.8c0.1,0,0.2,0,0.3,0c0.2,0,0.2,0,0.3,0.1c0,0,0.1,0.1,0.1,0.2
			c0,0.1-0.1,0.2-0.2,0.2v0c0.1,0,0.1,0.1,0.1,0.2c0,0.1,0,0.2,0.1,0.2h-0.2c0,0,0-0.1-0.1-0.2c0-0.1-0.1-0.1-0.2-0.1h-0.1V63.9z
			 M170.4,63.5L170.4,63.5c0.2,0,0.3,0,0.3-0.1c0-0.1-0.1-0.1-0.2-0.1c-0.1,0-0.1,0-0.1,0V63.5z"/>
	</g>
	<g>
		<path class="st0" d="M117.6,100.4c0,0-0.2,0-0.3,0c-0.1,0-0.1-0.1-0.2-0.2c0-0.2,0-0.6,0-1.1v-0.9c0-0.6,0-1.1,0-1.2
			c0,0,0-0.1,0-0.1c0-0.1-0.1-0.2-0.1-0.2c-0.1,0-0.1,0-0.1,0.1l0,0c-0.2,0.1-1.1,0.7-1.1,0.8c0,0-0.1,0.1-0.1,0.1
			c0,0.1,0,0.1,0.1,0.1c0,0,0.1,0,0.1,0c0,0,0.1,0,0.1-0.1c0.1-0.1,0.4-0.2,0.4-0.2c0,0,0,0.1,0,0.1l0,1.4c0,0.5,0,0.9,0,1.1
			c0,0.1,0,0.2-0.2,0.2c-0.1,0-0.3,0-0.4,0c0,0-0.1,0-0.1,0.1c0,0,0,0.1,0.1,0.1c0.2,0,0.4,0,0.6,0c0.1,0,0.2,0,0.2,0
			c0,0,0.1,0,0.2,0c0.2,0,0.4,0,0.6,0c0.1,0,0.1,0,0.1-0.1C117.7,100.4,117.7,100.4,117.6,100.4z"/>
		<path class="st0" d="M123.1,96.6c-0.9,0-1.4,0.8-1.4,2.1c0,0.7,0.3,1.9,1.3,1.9c0.9,0,1.4-0.8,1.4-2.1
			C124.4,97.6,124.1,96.6,123.1,96.6z M123.1,100.3c-0.5,0-0.7-0.9-0.7-1.8c0-1,0.2-1.6,0.6-1.6c0.5,0,0.7,0.9,0.7,1.8
			C123.7,99.7,123.5,100.3,123.1,100.3z"/>
		<path class="st0" d="M129.5,96.6c-0.9,0-1.4,0.8-1.4,2.1c0,0.7,0.3,1.9,1.3,1.9c0.9,0,1.4-0.8,1.4-2.1
			C130.8,97.6,130.5,96.6,129.5,96.6z M129.5,100.3c-0.5,0-0.7-0.9-0.7-1.8c0-1,0.2-1.6,0.6-1.6c0.5,0,0.7,0.9,0.7,1.8
			C130.1,99.7,129.9,100.3,129.5,100.3z"/>
		<path class="st0" d="M141.1,96.7c-0.1,0-0.3,0-0.4,0c-0.1,0-0.2,0-0.3,0c-0.1,0-0.1,0-0.2,0c-0.1,0-0.3,0-0.5,0c0,0-0.2,0-0.2,0.1
			c0,0,0,0.1,0.1,0.1c0.1,0,0.1,0,0.2,0c0.1,0,0.2,0.1,0.2,0.2c0,0.2,0,0.3,0,1.1v0.9c0,0.5,0,0.8,0,1.1c0,0.2,0,0.2-0.1,0.2
			c-0.1,0-0.1,0-0.2,0c-0.1,0-0.1,0.1-0.1,0.1c0,0,0,0.1,0.2,0.1c0.1,0,0.3,0,0.4,0c0.1,0,0.2,0,0.2,0c0,0,0.1,0,0.2,0
			c0.2,0,0.3,0,0.6,0c0.1,0,0.2-0.1,0.2-0.1c0,0,0-0.1-0.1-0.1c-0.1,0-0.2,0-0.2,0c-0.1,0-0.1-0.1-0.1-0.2c0-0.2,0-0.6,0-1.1v-2
			c0,0,0,0,0,0c0,0,0.1,0,0.2,0c0.1,0,0.3,0,0.5,0.2c0.2,0.2,0.3,0.5,0.3,0.7c0,0.5-0.4,0.8-0.6,0.8c-0.1,0-0.2,0-0.2,0.1
			c0,0.1,0.1,0.1,0.1,0.1c0,0,0.1,0,0.1,0c0.7,0,1.3-0.5,1.3-1.3c0-0.3-0.1-0.5-0.3-0.6C142,96.9,141.7,96.7,141.1,96.7z"/>
		<path class="st0" d="M150.1,100.4c0,0-0.1,0-0.1,0c-0.1,0-0.3-0.1-0.5-0.3c-0.3-0.3-0.5-0.6-0.9-1.1l-0.1-0.2
			c0.4-0.4,0.6-0.7,0.6-1.1c0-0.3-0.2-0.6-0.4-0.7c-0.3-0.2-0.6-0.2-0.9-0.2c-0.1,0-0.2,0-0.3,0c-0.1,0-0.3,0-0.4,0c0,0-0.1,0-0.2,0
			c-0.1,0-0.3,0-0.5,0c0,0-0.2,0-0.2,0.1c0,0,0,0.1,0.1,0.1c0.1,0,0.2,0,0.2,0c0.1,0,0.2,0.1,0.2,0.2c0,0.2,0,0.3,0,1.1v0.9
			c0,0.5,0,0.8,0,1.1c0,0.2,0,0.2-0.1,0.2c-0.1,0-0.1,0-0.2,0c-0.1,0-0.1,0.1-0.1,0.1c0,0,0,0.1,0.2,0.1c0.1,0,0.3,0,0.4,0
			c0.1,0,0.2,0,0.2,0c0,0,0.1,0,0.2,0c0.2,0,0.4,0,0.6,0c0.1,0,0.2-0.1,0.2-0.1c0,0,0-0.1-0.1-0.1c-0.1,0-0.2,0-0.2,0
			c-0.1,0-0.1-0.1-0.1-0.2c0-0.2,0-0.6,0-1.1V99l0.4,0c0,0,0,0,0,0c0,0,0.1,0.2,0.2,0.3c0.1,0.1,0.2,0.2,0.3,0.4
			c0.3,0.4,0.5,0.6,0.7,0.7c0.1,0.1,0.3,0.1,0.6,0.1h0.5c0.1,0,0.2,0,0.2-0.1C150.2,100.4,150.1,100.4,150.1,100.4z M148.3,97.9
			c0,0.4-0.2,0.6-0.3,0.7c-0.1,0.1-0.1,0.1-0.3,0.1c-0.1,0-0.3,0-0.4,0c0,0,0,0,0,0v-1.5c0,0,0,0,0,0c0,0,0,0,0,0c0.1,0,0.2,0,0.2,0
			C147.9,97,148.3,97.2,148.3,97.9z"/>
		<path class="st0" d="M155.3,96.6c-1.5,0-2.1,1-2.1,2c0,1,0.6,2,2.1,2c1.2,0,2.1-0.9,2.1-2.1C157.4,97.3,156.6,96.6,155.3,96.6z
			 M155.5,100.3c-0.9,0-1.5-0.7-1.5-1.8c0-1.3,0.7-1.5,1.2-1.5c0.8,0,1.4,0.7,1.4,1.8C156.6,100.1,155.8,100.3,155.5,100.3z"/>
		<path class="st0" d="M163.3,96.6c-1.5,0-2.1,1-2.1,2c0,1,0.6,2,2.1,2c1.2,0,2.1-0.9,2.1-2.1C165.4,97.3,164.6,96.6,163.3,96.6z
			 M163.5,100.3c-0.9,0-1.5-0.7-1.5-1.8c0-1.3,0.7-1.5,1.2-1.5c0.8,0,1.4,0.7,1.4,1.8C164.6,100.1,163.8,100.3,163.5,100.3z"/>
		<path class="st0" d="M171.7,96.6C171.7,96.6,171.7,96.7,171.7,96.6C171.6,96.7,171.6,96.7,171.7,96.6c-0.1,0-0.2,0-0.2,0l0,0
			c-0.1,0-0.6,0-1.3,0c-0.1,0-0.1,0-0.2,0l-0.1,0c-0.1,0-0.1,0-0.2,0c-0.1,0-0.1,0-0.2,0c0,0-0.2,0-0.2,0.1c0,0,0,0.1,0.1,0.1
			c0.1,0,0.1,0,0.2,0c0.1,0,0.2,0.1,0.2,0.2c0,0.2,0,0.3,0,1.1v0.9c0,0.5,0,0.8,0,1.1c0,0.2,0,0.2-0.1,0.2c-0.1,0-0.1,0-0.2,0
			c-0.1,0-0.1,0.1-0.1,0.1c0,0.1,0.1,0.1,0.2,0.1c0.1,0,0.2,0,0.4,0c0.1,0,0.2,0,0.3,0c0.1,0,0.1,0,0.2,0c0.1,0,0.3,0,0.5,0
			c0.1,0,0.2,0,0.2-0.1c0,0,0-0.1-0.1-0.1c-0.1,0-0.2,0-0.2,0c-0.1,0-0.1-0.1-0.1-0.2c0-0.2,0-0.6,0-1.1l0-0.4c0.4,0,0.6,0,0.7,0
			c0.2,0,0.2,0.1,0.2,0.1c0,0.1,0,0.1,0,0.1c0,0.1,0.1,0.1,0.1,0.1c0.1,0,0.1-0.1,0.1-0.2c0,0,0-0.3,0-0.4c0-0.1,0-0.2,0-0.2
			c0,0,0-0.1,0-0.1c0-0.1,0-0.1-0.1-0.1c-0.1,0-0.1,0-0.1,0.1l0,0c0,0-0.1,0.1-0.2,0.1c-0.1,0-0.1,0-0.2,0l-0.6,0v-1.2c0,0,0,0,0,0
			l0.8,0c0.2,0,0.3,0.1,0.3,0.1c0,0.1,0,0.1,0,0.2c0,0,0,0.1,0.1,0.1c0.1,0,0.1,0,0.1-0.1c0,0,0-0.1,0-0.3c0-0.1,0-0.1,0-0.1
			c0-0.1,0-0.1,0-0.2c0,0,0-0.1,0-0.1C171.8,96.7,171.8,96.6,171.7,96.6z"/>
	</g>
</g>
</svg>
