<?xml version="1.0" encoding="utf-8"?>
<!-- Generator: Adobe Illustrator 22.0.1, SVG Export Plug-In . SVG Version: 6.00 Build 0)  -->
<svg version="1.1" id="Layer_1" xmlns="http://www.w3.org/2000/svg" xmlns:xlink="http://www.w3.org/1999/xlink" x="0px" y="0px"
	 viewBox="0 0 300 101.9" style="enable-background:new 0 0 300 101.9;" xml:space="preserve">
<style type="text/css">
	.st0{fill:#606060;}
</style>
<g>
	<g>
		<path class="st0" d="M47.3,29.3c-0.1,0.7-0.3,1.4-0.7,1.9c-0.6,0.6-1.2,0.8-2,0.8c-0.6,0-1.1-0.1-1.5-0.4l-3.2,2.5
			c0.5,0.4,1.1,0.8,1.7,1.1c0,0.2,0,0.6,0,1.1c0,0.4,0,0.7-0.1,1.1c0,0.4-0.1,0.6-0.1,0.9c-0.1,0.2-0.3,0.5-0.7,1
			c-0.4,0.4-0.8,0.9-1.4,1.2c-0.6,0.3-1.2,0.4-2,0.4c-0.6-0.1-1.4-0.2-2.2-0.4c-0.9-0.2-1.7-0.4-2.5-0.6c-0.8-0.2-1.5-0.5-2-0.6
			C30.1,39,29.8,39,29.8,39l-3.9,4.4c0,0,0.1,0.2,0.4,0.7c0.2,0.5,0.6,1.1,0.9,1.9c0.3,0.8,0.5,1.5,0.7,2.4c0.2,0.9,0.2,1.6,0,2.3
			c-0.4,1.4-0.8,2.7-1.4,3.7c-0.6,1.1-1.2,2-1.8,2.7c-0.6,0.7-1.1,1.3-1.5,1.7c-0.4,0.4-0.6,0.6-0.7,0.6l1.7,4.3
			c0.1,0,0.3-0.3,0.7-0.8c0.4-0.5,1-1.2,1.7-2.1c0.6-0.9,1.2-1.9,1.7-3c0.6-1.1,1-2.3,1.3-3.5c0.2-1.3,0.3-2.5,0.1-3.8
			c-0.4-2-0.8-3.5-1.2-4.5c-0.4-1-0.6-1.6-0.9-1.9c-0.2-0.4-0.3-0.4-0.3-0.4l2.7-3.1l14.2,4l14.3-4l3,3.1c-0.1,0-0.3,0.3-0.7,1
			c-0.4,0.7-0.9,1.6-1.2,2.8c-0.5,1.2-0.7,2.6-0.6,4.3c0,1.6,0.4,3.5,1.3,5.4c0.8,2,2.3,4.1,4.4,6.2c0-0.1,0.1-0.3,0.3-0.8
			c0.2-0.6,0.5-1.1,0.7-1.7c0.3-0.6,0.5-1.1,0.7-1.4c-0.1,0-0.4-0.3-1-0.9c-0.6-0.6-1.3-1.2-2-2.2c-0.7-0.9-1.4-1.9-2-3
			c-0.6-1.1-0.8-2.2-0.8-3.3c0.1-1.5,0.4-2.7,0.7-3.7c0.4-1,0.9-1.7,1.2-2.2c0.4-0.5,0.6-0.7,0.6-0.7l-3.7-4.3c0,0-0.3,0.1-0.9,0.2
			c-0.6,0.2-1.2,0.4-2.1,0.7c-0.9,0.2-1.6,0.4-2.4,0.6c-0.8,0.2-1.4,0.4-1.8,0.4c-0.5,0.1-1.1,0.1-1.8-0.1c-0.7-0.2-1.2-0.5-1.7-1
			c-0.5-0.4-0.7-1.1-0.7-1.9c0-0.7,0.1-1.4,0.1-1.9c0-0.6,0-1.1,0-1.4c1-0.6,1.8-1.3,2.4-2.3c0.6-1,0.9-2,0.9-3.2
			c0-1.2-0.2-2.3-0.9-3.2c-0.6-1-1.4-1.7-2.4-2.3c-1.1-0.6-2.1-0.8-3.3-0.9c-1.1,0-2,0.2-3,0.7l2.4,3c0.2-0.1,0.5-0.1,0.7-0.1
			c0.8,0,1.4,0.2,2,0.7C47,27.9,47.3,28.6,47.3,29.3z"/>
		<path class="st0" d="M28,60.4c-0.4,0.5-1,1.1-1.6,1.9c-0.6,0.9-1.1,1.8-1.6,2.9c-0.5,1.2-0.7,2.4-0.7,3.7c0,1.4,0.2,2.5,0.7,3.3
			c0.4,0.8,1,1.4,1.7,1.9c0.7,0.4,1.4,0.6,2,0.8c0.7,0.1,1.3,0.2,1.8,0.2c0.4,0,0.7,0,0.7,0s-0.2-0.2-0.6-0.5
			c-0.4-0.3-0.9-0.8-1.5-1.4c-0.6-0.5-1.1-1.2-1.6-1.9c-0.5-0.7-0.9-1.5-1.1-2.4c-0.1-0.9-0.1-1.9,0.1-3c0.2-1.1,0.5-2,0.9-3
			c0.4-0.9,0.7-1.7,1.1-2.3c0.3-0.6,0.6-0.9,0.6-0.9S28.5,60,28,60.4z"/>
		<path class="st0" d="M54.2,26c-0.2-1.2-0.9-2.4-1.9-3.3c-1.2-1.1-2.4-1.9-3.6-2.4c-1.2-0.5-2.2-0.8-3-0.9
			c-0.8-0.1-1.2-0.2-1.2-0.1l0.2,2.4c0,0,0.3,0,0.9,0.1c0.6,0.1,1.3,0.3,2.2,0.7c0.8,0.4,1.7,1.1,2.5,2c0.7,0.9,1.2,1.9,1.4,2.8
			c0.2,0.9,0.4,1.8,0.2,2.6c-0.1,0.7-0.1,1.4-0.2,1.9c-0.1,0.5-0.2,0.7-0.2,0.7l1.9,1.2c0,0,0.1-0.4,0.4-1.2
			c0.3-0.8,0.5-1.7,0.6-2.9C54.6,28.5,54.4,27.3,54.2,26z"/>
		<path class="st0" d="M45.9,29.3c0-0.4-0.2-0.6-0.4-0.9c-0.2-0.2-0.6-0.4-0.9-0.4s-0.7,0.1-0.9,0.4c-0.2,0.3-0.4,0.6-0.4,0.9
			c0,0.4,0.1,0.7,0.4,0.9c0.2,0.3,0.6,0.4,0.9,0.4s0.7-0.1,0.9-0.4C45.7,30,45.9,29.7,45.9,29.3z"/>
		<path class="st0" d="M43.1,27.6L42.9,27l-3.7-4.5l-0.6-0.1l-1.2,1l0.1,0.7l4.9,3.5L43.1,27.6z"/>
		<path class="st0" d="M42.6,30.8l-0.7-0.1l-5.5,1.9l-0.2,0.6l0.5,1.4l0.7,0.2l5-3.4L42.6,30.8z"/>
		<path class="st0" d="M42.3,29.7v-1.6l-3.5-2l-2.2,2.5l1.9,2.4L42.3,29.7z"/>
		<path class="st0" d="M40.2,75.8c-1.1-1.1-2.7-2-4.8-3L33.5,75c0.1,0,0.2,0.2,0.8,0.7c0.6,0.5,1.4,1.1,2.3,1.7
			c0.9,0.6,1.9,1.1,3,1.5c1.1,0.4,2.3,0.6,3.4,0.5c0,0-0.1-0.4-0.6-1.1C42,77.7,41.3,76.9,40.2,75.8z"/>
		<path class="st0" d="M53.5,72.8c-2,0.9-3.7,1.9-4.7,2.9c-1.1,1.1-1.9,1.9-2.2,2.5C46.2,79,46,79.4,46,79.4
			c1.2,0.1,2.2-0.1,3.4-0.6c1.1-0.4,2.1-0.9,3-1.5s1.6-1.2,2.2-1.6c0.6-0.5,0.7-0.7,0.8-0.7L53.5,72.8z"/>
		<path class="st0" d="M60.8,60.5C60.3,60,60,59.8,60,59.8c0.1,0.1,0.2,0.3,0.6,0.9c0.4,0.6,0.7,1.4,1.1,2.4c0.4,0.9,0.7,1.9,0.9,3
			c0.2,1.1,0.2,2,0.1,2.9c-0.2,0.9-0.6,1.7-1.1,2.5c-0.6,0.7-1.1,1.4-1.6,2c-0.6,0.5-1.1,1-1.5,1.3c-0.4,0.3-0.6,0.4-0.6,0.4
			c0,0.1,0.2,0.1,0.7,0.1c0.5,0,1.1-0.1,1.8-0.2c0.6-0.2,1.4-0.4,2-0.9c0.7-0.4,1.2-1.1,1.7-1.8c0.4-0.9,0.7-2,0.7-3.3
			s-0.2-2.6-0.7-3.7c-0.4-1.2-1-2.2-1.6-2.9C61.8,61.6,61.2,61,60.8,60.5z"/>
		<path class="st0" d="M60.8,65.4c-0.5-1.9-1.1-3.7-1.6-5.4c-0.6-1.6-1-3.3-1.3-4.7c-0.2-1.5-0.2-3,0-4.4c0.4-1.4,0.7-2.7,1.1-3.6
			c0.4-1,0.7-1.7,0.9-2.2c0.3-0.5,0.4-0.7,0.4-0.7l-2-2.3l-14.1,3.7l-13.6-3.6l-2,2c0.1,0,0.1,0.3,0.4,0.7c0.2,0.5,0.6,1.1,0.9,2
			c0.3,0.7,0.6,1.6,0.8,2.7c0.2,1.1,0.3,2,0.2,3.2c-0.2,1.1-0.4,2.3-0.8,3.8c-0.3,1.4-0.7,2.8-1.1,4.2c-0.4,1.4-0.7,2.7-1,3.8
			c-0.3,1.2-0.5,2-0.6,2.7c0,0.8,0.1,1.7,0.2,2.7c0.2,1,0.6,1.8,1.2,2.5c0.6,0.7,1.5,1.1,2.7,1.2c0.8,0.1,1.5-0.1,2-0.4
			c0.5-0.3,0.9-0.6,1.1-0.9c0.2-0.3,0.4-0.5,0.4-0.6c0,0,0.3,0.1,0.9,0.3c0.6,0.1,1.3,0.6,2.2,1.1c0.9,0.6,1.9,1.4,3,2.4
			c1.1,1.1,2.2,2.5,3.2,4.2c0-0.1,0.2-0.3,0.6-0.9c0.4-0.6,1.1-1.3,1.8-2.2c0.8-0.9,1.8-1.7,3-2.6c1.1-0.9,2.5-1.7,4-2.4
			c0,0.1,0.2,0.2,0.6,0.6c0.4,0.4,0.9,0.7,1.4,1.1c0.5,0.3,1.1,0.5,1.8,0.4c0.4-0.1,1-0.2,1.5-0.6c0.5-0.3,1-0.9,1.4-1.5
			c0.4-0.6,0.7-1.4,0.9-2.5C61.3,68.2,61.2,66.9,60.8,65.4z M47.1,50.2c0.2-0.1,0.5-0.1,0.8,0.2c0.3,0.4,0.6,0.7,0.8,0.9
			c0.2,0.3,0.4,0.4,0.4,0.5c0,0,0,0,0.1,0c0.1,0,0.1-0.1,0.1-0.2c0.1-0.4,0.1-0.8,0.1-1.4c0-0.6,0-1.2-0.1-1.8c0-0.6,0-0.9-0.1-1.1
			c0-0.4,0.1-0.6,0.2-0.7c0.1-0.1,0.2-0.1,0.3-0.1c0.2,0,0.3,0.1,0.4,0.2c0.1,0.1,0.2,0.5,0.2,1c0.1,0.5,0.1,1.2,0.1,2.2l0.2,0.1
			c0.1,0,0.2-0.1,0.2-0.1c0,0,0-0.3,0.1-0.7c0-0.5,0-0.9,0-1.4c0.1-0.5,0.1-0.9,0.1-1.1c0-0.3,0-0.6,0-0.7c0.1-0.1,0.1-0.3,0.4-0.3
			c0.2,0,0.4,0.1,0.4,0.2c0.1,0.2,0.1,0.5,0.1,0.7c0,0.2,0,0.5,0,0.9c0,0.5,0,0.9,0,1.4c0,0.4,0,0.7,0,0.7c0.1,0,0.1,0.1,0.2,0.1
			c0.2,0.1,0.2,0.1,0.2-0.1c0.1-0.2,0.1-0.6,0.1-0.9c0-0.3,0-0.7,0.1-1.1c0-0.3,0-0.6,0.1-0.7c0-0.2,0.1-0.4,0.1-0.4
			c0-0.2,0.1-0.2,0.3-0.2c0.1,0,0.3,0.1,0.4,0.1c0.1,0.1,0.2,0.2,0.2,0.5c0,0.2,0,0.6,0.1,1c0,0.5,0.1,0.9,0.1,1.3
			c0.1,0.4,0.1,0.6,0.1,0.7v0.1c0.1,0.1,0.1,0.1,0.2,0.2c0.1-0.1,0.1-0.1,0.1-0.3c0.1-0.2,0.1-0.4,0.1-0.6c0-0.2,0-0.4,0-0.6
			c0-0.2,0-0.4,0.1-0.6c0-0.2,0.1-0.3,0.2-0.4c0.1,0,0.3,0.1,0.4,0.2c0,0.2,0.1,0.5,0.1,1c0,0.3,0,0.8,0,1.5
			c-0.1,0.7-0.1,1.5-0.1,2.3c0,0.8-0.1,1.5-0.1,2.1c-0.1,0.6-0.1,0.8-0.1,0.9c0,0-0.2-0.1-0.5-0.1c-0.2-0.1-0.6-0.1-0.9-0.1
			c-0.4,0-0.7,0-0.9,0.1c-0.3,0.2-0.6,0.4-0.7,0.6c-0.1,0.2-0.2,0.3-0.3,0.4c-0.1,0.1-0.2,0.1-0.3,0c-0.2,0-0.2,0-0.3-0.1
			c-0.1,0-0.2-0.2-0.6-0.7c-0.4-0.6-0.8-1.2-1.2-1.8c-0.5-0.7-0.9-1.4-1.3-1.9c-0.4-0.6-0.6-0.9-0.7-1.1
			C46.8,50.6,46.9,50.4,47.1,50.2z M41.4,65.2c-0.1,0.1-0.2,0.6-0.6,1.1c-0.4,0.6-0.9,1.2-1.4,2C39,69,38.6,69.6,38.2,70
			c-0.3,0.6-0.5,0.8-0.6,0.8c-0.1,0.1-0.1,0.1-0.2,0.1c-0.1,0.1-0.3,0.1-0.4,0c-0.1-0.1-0.2-0.1-0.3-0.4c-0.1-0.2-0.4-0.3-0.7-0.6
			c-0.2-0.1-0.6-0.2-0.9-0.1c-0.4,0-0.7,0.1-0.9,0.1c-0.3,0-0.4,0.1-0.5,0.1c0-0.1,0-0.3-0.1-0.9c0-0.6,0-1.3-0.1-2.1
			c-0.1-0.8-0.1-1.5-0.1-2.3c0-0.7,0-1.2,0-1.5c0-0.5,0.1-0.9,0.2-1c0-0.1,0.2-0.2,0.4-0.2c0.1,0.1,0.2,0.2,0.2,0.3
			c0.1,0.2,0.1,0.4,0.1,0.6s0,0.4,0,0.6c0,0.2,0,0.4,0,0.6c0,0.2,0.1,0.3,0.1,0.3c0.1,0,0.1-0.1,0.1-0.2l0.1-0.1c0-0.1,0-0.3,0-0.7
			c0.1-0.4,0.1-0.9,0.1-1.3c0.1-0.4,0.1-0.8,0.1-0.9c0-0.2,0.1-0.5,0.2-0.6c0.1-0.1,0.2-0.1,0.4-0.1c0.1,0,0.2,0.1,0.3,0.1
			c0,0.1,0.1,0.2,0.1,0.5c0.1,0.1,0.1,0.4,0.1,0.7c0,0.3,0,0.7,0.1,1.1c0.1,0.4,0.1,0.6,0.1,0.9c0,0.2,0.1,0.2,0.2,0.1
			c0.2-0.1,0.2-0.1,0.3-0.1c0,0,0-0.2,0-0.7c0-0.4,0-0.9,0-1.4c0-0.4,0-0.7,0-0.9c0-0.2,0-0.4,0.1-0.6c0.1-0.2,0.2-0.3,0.4-0.3
			c0.2,0,0.4,0.2,0.4,0.3c0,0.2,0,0.4,0,0.7c0,0.2,0,0.6,0,1.1s0,1,0,1.4c0,0.5,0,0.7,0,0.8c0.1,0,0.2,0.1,0.2,0.1
			c0.1-0.1,0.1-0.1,0.2-0.1c0-1,0.1-1.7,0.1-2.2c0-0.5,0.1-0.8,0.1-1c0.1-0.2,0.2-0.2,0.4-0.2c0.1,0,0.2,0,0.4,0.1
			c0.1,0,0.2,0.3,0.1,0.6c0,0.2,0,0.6,0,1.2c-0.1,0.6-0.1,1.2-0.1,1.8c0,0.5,0,1,0.1,1.4c0.1,0.1,0.1,0.1,0.1,0.1
			c0.1,0.1,0.1,0.1,0.1,0c0.1,0,0.2-0.1,0.4-0.4c0.2-0.3,0.4-0.6,0.7-0.9c0.3-0.2,0.6-0.3,0.9-0.1C41.3,64.8,41.5,65,41.4,65.2z
			 M41,54.9c-1.4-1.7-2.7-3.2-3.9-4.7c-1.2-1.4-2.2-2.6-3-3.6c-0.7-1-1.2-1.4-1.2-1.5c-0.1-0.1-0.1-0.2,0-0.2c0.1-0.1,0.1-0.1,0.2,0
			c0.1,0.1,0.5,0.6,1.4,1.4c0.9,0.9,1.9,2,3.2,3.5c1.2,1.4,2.7,2.8,4.1,4.4c1.5,1.5,2.8,3.1,4.2,4.5c1.2,1.4,2.3,2.5,3.1,3.4
			c0.9,0.9,1.2,1.4,1.3,1.4L49,64.6c0-0.1-0.4-0.6-1.2-1.4c-0.7-0.9-1.7-2.2-3-3.7C43.7,58.1,42.3,56.6,41,54.9z M55.1,69.1
			c0,0.1,0,0.1-0.1,0.2c-0.1,0.1-0.2,0.1-0.3,0c-0.1,0-0.1-0.1-0.2-0.1l-3.9-3.5l1.1-0.9l3.5,4.1V69.1z M55,62.7
			c-0.1,0.1-0.3,0.1-0.6,0.2c-0.2,0.1-0.4-0.1-0.4-0.4l-0.2,0.1c-0.1,0.1-0.4,0.3-0.9,0.7c-0.6,0.4-1.2,0.9-2,1.5
			c-0.8,0.6-1.5,1.1-2,1.6c-0.6,0.5-1,0.8-1.1,0.9c-0.1,0.1-0.3,0.2-0.5,0.4c-0.2,0.1-0.4,0.2-0.6,0.1c-0.2-0.1-0.3-0.2-0.3-0.6
			s0.1-0.6,0.4-0.6c0.2,0,0.4,0,0.5,0c0.1,0.1,0.1,0.2,0.1,0.2v0.1c0-0.1,0.3-0.3,0.9-0.7c0.5-0.4,1.2-0.9,2-1.5
			c0.7-0.6,1.5-1.1,2.1-1.6c0.6-0.5,1-0.8,1.2-0.9c0.1-0.2,0.4-0.2,0.6-0.4c0.2-0.1,0.6-0.1,0.7,0.1c0.2,0.2,0.4,0.4,0.4,0.6
			C55.1,62.5,55.1,62.6,55,62.7z"/>
		<path class="st0" d="M131.3,36c0.3-1.3-0.1-2.1-0.9-2.5c-0.9-0.4-2.5-0.6-4.9-0.6c-1.2,0-2.7,0.1-4.7,0.3
			c-1.9,0.1-4.2,0.5-6.9,1.1c-2.7,0.5-5.7,1.3-9,2.4c-3.3,1.1-7.1,2.5-11.1,4.2c-3.3,1.5-6.4,3.2-9.3,5.1c-2.7,1.9-5.1,3.8-7.1,5.8
			c-2,2-3.5,4-4.6,5.8c-1,1.9-1.4,3.6-1.3,5.1c0.1,1.2,0.6,2.1,1.6,2.7c0.9,0.6,2.2,0.9,3.7,1.1c1.4,0.1,2.9,0.1,4.5-0.1
			c1.5-0.1,3-0.3,4.3-0.6c1.4-0.2,2.4-0.4,3-0.7c0.7-0.2,1.7-0.6,3.2-1.1c1.4-0.5,3-1.1,4.8-1.9c1.7-0.7,3.5-1.4,5.4-2.2
			c1.9-0.8,3.5-1.5,4.9-2.3c1.6-0.7,2.8-1.3,3.7-1.9c-0.1,0,0,0.1,0,0.2c0,0.1,0.1,0.1,0.4,0.1c0.2,0.1,0.7,0,1.2-0.2
			c0.6-0.2,1.2-0.4,1.9-0.7c0.6-0.2,1.1-0.4,1.5-0.6c0.4-0.2,0.6-0.3,0.6-0.3c0,0.1,0,0.2,0,0.6c0,0.4,0.1,0.6,0.3,0.9
			c0.2,0.3,0.6,0.4,1.2,0.3c0.6-0.2,1.2-0.3,1.7-0.6c0.6-0.2,1.1-0.4,1.5-0.6c0.4-0.2,0.6-0.3,0.6-0.3s0.1,0.2,0.1,0.3
			c0,0.2-0.2,0.6-0.6,0.9c0,0,0.4,0.1,1.2,0.2c0.8,0.1,1.9,0.2,3.4,0.2c1.5,0,2.8-0.1,4-0.4c1.2-0.3,2.5-0.7,3.7-1.4
			c0,0,0,0.2-0.1,0.4c0,0.2,0,0.5,0.1,0.7c0.1,0.2,0.4,0.4,0.7,0.4c0.4,0.1,0.9,0,1.6-0.1c0.7-0.1,1.5-0.3,2.4-0.7
			c0.8-0.4,1.7-1.1,2.6-2.2c-0.1,0.1-0.3,0.2-0.7,0.5c-0.5,0.2-1.1,0.5-1.7,0.7c-0.6,0.3-1.2,0.4-1.6,0.4c-0.5-0.1-0.9-0.1-1.2-0.1
			c-0.3-0.1-0.6-0.2-0.7-0.3c-0.1-0.1,0-0.4,0.4-0.7c0.4-0.4,0.7-0.8,0.9-1.1c0.1-0.4,0.1-0.7-0.2-0.9c-0.3-0.2-0.9-0.3-1.9-0.2
			c-1.1,0.2-2,0.6-3,1.1c-0.9,0.6-1.7,1.2-2.2,1.8c-0.6,0.6-0.7,1-0.4,1.2c0.2,0.1,0.4,0.1,0.6,0.1c0.2,0,0.4,0,0.4,0
			s-0.2,0-0.6,0.1c-0.4,0.1-0.9,0.1-1.5,0.1s-1.3-0.1-2-0.2c0.1,0,0.2-0.1,0.5-0.3c0.4-0.2,0.7-0.6,1.1-0.9c0.4-0.3,0.9-0.7,1.2-1.1
			c0.3-0.4,0.5-0.8,0.5-1.2c0-0.4-0.1-0.7-0.4-0.9c-0.2-0.1-0.6-0.1-0.9-0.1c-0.2,0.1-0.4,0.1-0.4,0.1c0,0-0.2,0.1-0.6,0.3
			c-0.4,0.1-0.9,0.4-1.6,0.7c-0.7,0.3-1.4,0.7-2,1.2c-0.7,0.4-1.4,0.8-2.1,1.1c-0.7,0.4-1.4,0.5-1.9,0.5c-0.6,0-0.9-0.1-0.9-0.6
			c0-0.4,0.2-0.7,0.4-1.1c0.3-0.3,0.6-0.6,0.9-0.7c0.3-0.1,0.4-0.2,0.5-0.2c-0.1,0-0.2,0-0.4-0.1c-0.2-0.1-0.4-0.1-0.5,0
			c0.1-0.1,0.1-0.1,0.1-0.3c0-0.2,0-0.4-0.1-0.5c-0.2-0.2-0.4-0.2-0.9-0.2c-0.5,0.1-1,0.2-1.5,0.5c-0.6,0.2-1.3,0.6-2.2,1.1
			c-0.8,0.6-1.8,1.1-3,1.9c-0.9,0.6-2.2,1.2-3.6,2c-1.5,0.7-3.2,1.4-4.9,2.1c-1.7,0.8-3.4,1.4-5.1,2.1c-1.7,0.7-3.2,1.2-4.5,1.8
			c-1.3,0.4-2.7,0.9-4.5,1.3c-1.6,0.3-3.3,0.6-5,0.7c-1.7,0.2-3.3,0.1-4.8-0.1c-1.5-0.2-2.7-0.6-3.5-1.2c-1.2-0.9-1.7-1.9-1.7-3
			c0-1.2,0.6-2.5,1.5-4c1-1.4,2.4-2.9,3.9-4.5c1.2-1.1,2.3-2.1,3.5-3c1.1-0.9,2.4-1.6,3.8-2.4c1.4-0.7,3-1.5,4.9-2.4
			c1.9-0.9,4.2-1.9,6.9-3c3.5-1.5,6.7-2.7,9.3-3.5c2.7-0.8,5.1-1.4,7.2-1.8c2-0.4,4-0.7,5.6-0.9c1.7-0.3,3.3-0.4,4.8-0.4
			c1.5,0.1,2.7,0.2,3.7,0.5c0.9,0.3,1.4,0.7,1.5,1.3c0,0.5-0.2,1-0.6,1.5c-0.4,0.6-0.7,1-1.3,1.5c-0.5,0.4-0.9,0.8-1.3,1.1
			c-0.4,0.3-0.6,0.4-0.6,0.4v0.6c0,0,0.3-0.2,0.7-0.4c0.5-0.4,1.1-0.8,1.8-1.3c0.7-0.6,1.3-1.1,1.9-1.8
			C130.9,37.3,131.2,36.7,131.3,36z M126,53.6c-0.2,0.3-0.5,0.6-0.7,0.8c-0.2,0.3-0.5,0.4-0.7,0.4c-0.2,0-0.5,0.1-1,0.1
			c-0.5,0-0.9-0.1-1.1-0.1c-0.3-0.1-0.2-0.2,0.1-0.6c0.1,0,0.1-0.1,0.5-0.2c0.3-0.1,0.7-0.3,1.1-0.5c0.4-0.2,0.9-0.4,1.2-0.6
			c0.5-0.2,0.9-0.2,1.1-0.2c0.2,0,0.3,0.2,0.2,0.3C126.4,53.1,126.3,53.3,126,53.6z M130.1,54.7c-0.4,0-0.5-0.1-0.6-0.2
			c0-0.1,0.2-0.3,0.7-0.6c0.4-0.3,1-0.6,1.5-0.9c0.6-0.2,1-0.4,1.4-0.4c0.2,0,0.5,0,0.5,0c0.2,0.2,0.3,0.3,0.1,0.4
			c-0.2,0.2-0.6,0.4-1,0.6c-0.4,0.2-0.9,0.5-1.5,0.7C130.9,54.5,130.4,54.7,130.1,54.7z M113.3,53.7c0.4-0.3,0.9-0.6,1.5-0.9
			c0.6-0.3,1-0.5,1.3-0.5c0.3,0,0.6,0,0.6,0c0.2,0.2,0.3,0.3,0.1,0.5c-0.2,0.2-0.5,0.4-1,0.6c-0.4,0.2-0.9,0.4-1.4,0.7
			c-0.5,0.2-0.9,0.3-1.2,0.4c-0.3,0-0.5-0.1-0.6-0.2C112.5,54.2,112.7,54,113.3,53.7z"/>
		<path class="st0" d="M194.6,32.7c-0.4,0.4-1.2,1.2-2.6,2.2c-1.4,1.1-3.2,2.2-5.4,3.7c-2.2,1.4-4.8,2.9-7.7,4.3
			c-3,1.5-6.3,2.9-10,4.1c-3.7,1.3-7.6,2.5-11.9,3.3l-0.9,1.4c0,0.1,0.5,0,1.5-0.1c1-0.2,2.5-0.5,4.5-1c2-0.4,4.5-1.2,7.5-2.3
			c1.8-0.6,3.8-1.4,6-2.3c2.3-1,4.6-2,6.9-3.2c2.3-1.2,4.5-2.5,6.6-4c2.1-1.5,4-3.1,5.5-4.8c1.6-1.7,2.8-3.6,3.6-5.6
			c0.4-1.4,0.4-2.5-0.4-3.1c-0.7-0.7-1.9-1-3.5-0.9c-1.6,0-3.5,0.2-5.6,0.7c-2.1,0.5-4.3,1.2-6.6,2c-3.2,1.2-6.1,2.6-8.7,4.1
			c-2.7,1.5-5.1,3-7.4,4.6c-2.5,1.7-5,3.7-7.7,5.8c-2.6,2.2-5.2,4.5-7.7,7.1c-2.5,2.5-4.9,5.3-7.2,8.1c-2.2,2.9-4.3,5.9-6,9
			c-2.4,4.2-3.9,7.5-4.6,10c-0.8,2.5-0.9,4.3-0.2,5.4c0.6,1,1.7,1.4,3.3,1.2c1.6-0.2,2.8-0.6,3.7-1.2c0.9-0.6,1.5-1.2,1.9-1.7
			c0.4-0.5,0.6-0.7,0.6-0.7s-0.2,0.1-0.7,0.5c-0.4,0.2-1.1,0.6-1.7,0.9c-0.7,0.4-1.4,0.6-2.1,0.7c-0.7,0.2-1.3,0.1-1.9-0.2
			c-0.7-0.5-1.2-1.3-1.3-2.4c-0.1-1-0.1-2.2,0.1-3.4c0.3-1.3,0.7-2.5,1.2-3.7c0.4-0.9,1.1-2.3,2.1-4.2c1.1-1.9,2.5-4.1,4.3-6.7
			c1.9-2.5,4.1-5.4,6.9-8.4c2.8-3.1,6.1-6.2,10-9.5c3.8-3.2,7.6-5.8,11.2-8c3.5-2.2,6.9-3.8,10-5.1c3-1.2,5.6-2,7.9-2.6
			c2.3-0.5,4-0.7,5.3-0.7c1.2,0.1,2.1,0.3,2.6,0.8c0.4,0.4,0.7,1.1,0.6,1.7c-0.1,0.7-0.3,1.4-0.7,2.1
			C195.5,31.5,195.1,32.1,194.6,32.7z"/>
		<path class="st0" d="M277.5,46.9l-0.1-0.2c-0.5,0.6-1.1,1.4-1.7,2.5c-0.7,1.1-1.4,2.4-2.1,3.7c-0.7,1.5-1.5,2.8-2.2,4.3
			c-0.7,1.5-1.3,2.8-1.9,4s-1.1,2.2-1.5,3c-0.4,0.7-0.5,1.1-0.6,1.1c0.2-0.7,0.4-1.5,0.8-2.6c0.4-1.2,0.8-2.2,1.2-3.5
			c0.4-1.2,0.9-2.2,1.2-3.1c0.4-0.9,0.7-1.6,1.1-2.2c0.4-0.6,0.6-1,0.7-1.4c0.1-0.4,0.2-0.7,0.1-1.1c-0.2-0.6-0.6-0.9-1.2-0.9
			c-0.6,0.2-1.3,0.4-2,0.9c-0.6,0.5-1.1,0.9-1.5,1.2c-0.3,0.4-0.5,0.6-0.6,0.7c-1.1,0.6-1.9,0.9-2.6,1.1c-0.7,0.1-1.2,0.2-1.6,0.2
			c-0.5,0.1-0.8,0-0.9-0.2c-0.1-0.1-0.2-0.4-0.1-0.7c0.1-0.2,0.2-0.4,0.4-0.6c0.3-0.3,0.7-0.6,1.1-0.7c0.4-0.2,0.6-0.3,0.8-0.4
			c0.2-0.1,0.3,0,0.3,0.2c0,0.2,0,0.4-0.1,0.5c0,0.1,0.1,0.1,0.2,0.1c0.2-0.1,0.2-0.2,0.4-0.5c0.2-0.2,0.3-0.4,0.3-0.5
			c0-0.2,0-0.2-0.1-0.4c-0.1-0.1-0.2-0.2-0.4-0.2c-0.2,0-0.6,0.1-1,0.4c-0.5,0.2-0.9,0.4-1.4,0.7c-0.5,0.3-0.9,0.6-1.2,0.9
			c-0.5,0.6-1.4,0.9-2.5,1.3c-0.6,0.1-1.1,0.1-1.2-0.1c-0.2-0.1-0.3-0.2-0.3-0.3c0.5-0.2,1.1-0.6,1.5-1c0.5-0.6,0.8-1,1.1-1.4
			c0.2-0.4,0.2-0.6-0.1-0.7c-0.2-0.2-0.6-0.2-1.2-0.1c-0.6,0.2-1.2,0.6-1.7,1.2c-0.6,0.6-0.9,1.1-1.2,1.7c-0.3,0.4-0.5,0.7-0.8,0.9
			c-0.3,0.1-0.6,0.2-1.1,0.2c-0.3,0-0.5-0.2-0.5-0.4c0-0.3,0.2-0.9,0.6-1.6c0.2-0.5,0.4-0.9,0.4-1.1c0-0.2-0.1-0.4-0.2-0.4
			c-0.1-0.1-0.2-0.2-0.2-0.2c-0.1-0.1-0.3-0.1-0.7,0c-0.3,0.1-0.7,0.2-1.1,0.6c-0.4,0.3-0.7,0.6-0.9,0.9l-0.4,0.4
			c0-0.1,0.1-0.2,0.1-0.4c0-0.2,0-0.5-0.1-0.8c-0.2-0.3-0.4-0.4-0.8-0.4c-0.4,0-0.6,0.1-0.9,0.1c-0.1,0.1-0.4,0.3-0.8,0.6
			c-0.4,0.3-0.8,0.6-1.1,0.9c-0.4,0.3-0.6,0.4-0.6,0.4c0-0.1,0.1-0.2,0.2-0.6c0.1-0.2,0.2-0.6,0.2-0.9s-0.1-0.5-0.2-0.7
			c-0.1-0.2-0.3-0.3-0.4-0.3c-0.1-0.1-0.2-0.1-0.6-0.1c-0.4,0-0.7,0-1.1,0c-0.4,0-0.6,0-0.8,0c-0.1,0.1-0.2,0.1-0.2,0.2
			c0,0.2,0,0.3,0,0.4c0,0-0.2,0-0.5,0.1c-0.3,0.1-0.7,0.2-1.1,0.4c-0.4,0.2-0.9,0.4-1.4,0.7c-0.4,0.2-0.7,0.6-1.1,1.1
			c-0.3,0.4-0.6,0.8-0.7,1.2c-0.2,0.4-0.2,0.7-0.1,1c0.2,0.2,0.5,0.3,1,0.2c0.5-0.1,1.1-0.4,1.6-0.7c0.6-0.2,1.1-0.6,1.5-0.8
			c0.4-0.2,0.6-0.6,0.9-1c0.2-0.4,0.3-0.7,0.4-1.1c0.1-0.3,0.1-0.6,0.1-0.6c0-0.2,0.1-0.2,0.4-0.2c0.2,0,0.5,0.1,0.7,0.3
			c0.3,0.2,0.4,0.4,0.5,0.8c0.1,0.4-0.1,0.9-0.3,1.4c-0.2,0.6-0.5,1.1-0.8,1.6c-0.2,0.4-0.4,0.7-0.4,0.7c0-0.1,0.2-0.2,0.6-0.6
			c0.5-0.4,0.9-0.8,1.4-1.3c0.4-0.4,0.9-0.8,1.2-1c0.4-0.3,0.8-0.6,1.2-0.7c0.4-0.1,0.6,0,0.7,0.4c0,0.3,0,0.7-0.2,1.1
			c-0.1,0.4-0.3,0.9-0.4,1.2c-0.2,0.3-0.2,0.4-0.2,0.5c0.1-0.1,0.3-0.2,0.8-0.6c0.5-0.4,1-0.8,1.5-1.2c0.6-0.5,1-0.7,1.2-0.9
			c0.3-0.2,0.6-0.2,0.6-0.2c0.1,0.1,0.2,0.1,0.2,0.1c0,0.1-0.1,0.2-0.2,0.6c-0.2,0.4-0.3,0.8-0.5,1.3c-0.1,0.4-0.1,0.6,0.2,0.7
			c0.3,0.1,0.6,0.1,1,0.1c0.3,0,0.6,0,0.9-0.1c0.4-0.1,0.7-0.1,0.9-0.2c0.2-0.1,0.4-0.2,0.4-0.2c0,0,0.1,0.1,0.2,0.2
			c0.2,0.2,0.5,0.2,0.9,0.2c0.3,0,0.7-0.1,1.4-0.3c0.6-0.2,1.2-0.4,1.7-0.6c0.5-0.2,0.8-0.2,0.8-0.3c-0.2,0.6-0.1,0.9,0.3,1.2
			c0.4,0.2,1,0.3,1.7,0.1c0.6-0.1,1.2-0.2,1.7-0.4c0.6-0.2,1.1-0.4,1.5-0.6c0.4-0.2,0.7-0.2,0.7-0.3c0,0.1,0,0.1-0.1,0.3
			c-0.1,0.2-0.1,0.5-0.1,0.7c0,0.2,0.1,0.4,0.3,0.6c0.3,0.1,0.7,0,1.3-0.2c0.6-0.3,1.2-0.6,1.6-1c0.5-0.4,0.8-0.5,0.9-0.5
			c-0.1,0-0.2,0.3-0.4,0.9c-0.3,0.6-0.7,1.4-1.1,2.2c-0.4,0.9-0.9,1.9-1.2,2.8c-0.4,1-0.7,1.9-0.9,2.5c-0.3,1-0.4,2-0.6,3
			c-0.1,1.1-0.1,2-0.1,2.7c0,0.7,0,1.1,0,1.1c0,0.1,0.3-0.4,0.8-1.4c0.5-0.9,1.2-2.5,2.2-4.8c0.4-0.9,0.9-2.1,1.5-3.5
			c0.6-1.5,1.4-2.9,2.1-4.5c0.7-1.5,1.5-3,2.1-4.3c0.7-1.4,1.3-2.5,1.7-3.3C277.2,47.4,277.4,47,277.5,46.9z M271.1,52.9
			c-0.1,0.1-0.4,0.4-0.7,0.6c-0.3,0.2-0.7,0.4-1.1,0.7c-0.4,0.2-0.7,0.4-0.9,0.5c-0.3,0.1-0.5,0.1-0.5,0c-0.1-0.1,0.1-0.3,0.4-0.6
			c0.4-0.3,0.7-0.6,1.1-1c0.4-0.3,0.7-0.5,1.1-0.6c0.2-0.1,0.4-0.1,0.4-0.1C271.2,52.6,271.2,52.7,271.1,52.9z M242.5,53.6
			c-0.3,0.2-0.7,0.5-1.1,0.7c-0.4,0.2-0.7,0.4-1,0.5c-0.2,0.1-0.4,0.1-0.5,0c0-0.1,0.1-0.3,0.5-0.6s0.7-0.7,1.1-1
			c0.4-0.3,0.7-0.5,1-0.6c0.3,0,0.4-0.1,0.4-0.1c0.2,0.1,0.3,0.2,0.2,0.4C243,53.1,242.8,53.3,242.5,53.6z M258.5,52.6
			c0.2,0.1,0.2,0.2-0.1,0.4c-0.2,0.2-0.6,0.5-0.9,0.7c-0.2,0.2-0.4,0.3-0.6,0.3c-0.1,0.1-0.2,0.1-0.3,0c-0.1,0,0.1-0.1,0.3-0.4
			c0.2-0.2,0.4-0.4,0.7-0.6c0.3-0.2,0.5-0.3,0.6-0.3L258.5,52.6z"/>
		<path class="st0" d="M242.4,35.3c1.5,0.5,2.5,0.9,3,1.4c0.7,0.5,1.3,1.3,1.7,2.2c0.5,1.1,0.6,2.1,0.5,3.2
			c-0.2,1.2-0.8,2.4-1.9,3.4c-0.9,0.9-2.4,1.9-4.3,3.3c-2,1.4-4.3,2.8-7.1,4.3c-2.8,1.5-5.7,2.9-8.8,4.2c-3.1,1.3-6.2,2.3-9.4,3
			c-2.5,0.6-4.3,0.9-5.6,1c-1.4,0.2-2.2,0.2-2.7,0.1c-0.4-0.1-0.6-0.4-0.5-0.7c0.1-0.3,0.3-0.7,0.6-1.1c0.4-0.4,0.7-0.8,1-1.2
			c0.4-0.4,0.9-0.9,1.5-1.5c0.6-0.6,1.3-1.2,2-1.7c0.7-0.6,1.3-1.1,1.9-1.7c0.6-0.5,1-0.9,1.3-1.2c0.3-0.4,0.6-0.7,0.6-1.1
			c0.1-0.2,0.1-0.5,0-0.7c0-0.2-0.1-0.4-0.1-0.4c0.1,0.1,0,0.3-0.1,0.7c-0.1,0.3-0.5,0.8-1,1.2c-0.4,0.3-0.9,0.7-1.9,1.2
			c-0.7,0.6-1.7,1.2-2.7,1.9c-1,0.7-1.9,1.4-2.7,2.2c-0.9,0.7-1.4,1.4-1.9,2c-0.5,0.8-0.7,1.5-0.6,2.2c0,0.6,0.3,1.1,1.1,1.4
			c0.7,0.3,1.9,0.3,3.4,0.2c0.9-0.2,2.3-0.5,4-0.9c1.7-0.4,3.7-0.9,5.8-1.5c2.2-0.7,4.5-1.5,6.9-2.4c2.4-1,4.8-2,7.2-3.2
			c2.4-1.2,4.6-2.5,6.7-4c2-1.5,3.9-3,5.4-4.6c1.5-1.6,2.7-3.2,3.3-4.8c0.7-1.6,0.8-3,0.4-4.3c-0.4-1.2-1.5-2.3-3.4-3.1
			c-1.8-0.7-4.5-1.1-7.9-1.2c-4.3,0-8.8,0.4-13.2,1.2c-4.4,0.7-8.6,1.9-12.6,3.2c-4,1.4-7.6,3.2-10.9,5.1c-3.3,2-6.1,4.1-8.2,6.6
			l1.4,0.1c-0.1-0.1,0.3-0.4,0.9-1.1c0.7-0.8,1.9-1.8,3.5-3c1.7-1.2,3.8-2.5,6.6-4c2.8-1.4,6.3-2.8,10.5-4.1c4.3-1.3,8-2.2,11.4-2.5
			c3.4-0.4,6.4-0.5,8.8-0.3C238.9,34.5,240.9,34.9,242.4,35.3z"/>
		<path class="st0" d="M190.1,41.9c-0.6,0.1-1.4,0.6-2.6,1.3c-1.1,0.8-2.5,1.9-4.1,3.3c-1.5,1.5-3.4,3.3-5.3,5.5
			c0,0-0.1-0.1-0.2-0.2c-0.2-0.1-0.5-0.1-1.1-0.1c-0.5,0-1.2,0.1-2.2,0.5c-0.9,0.4-1.7,0.7-2.4,0.9c-0.6,0.2-1.1,0.4-1.7,0.6
			c-0.6,0.2-1.3,0.5-2.2,0.9c-1.4,0.5-2.4,0.7-3.2,0.9c-0.7,0.1-1.1-0.2-1.1-0.6c0.1-0.1,0.4-0.2,1.3-0.2c0.2,0,0.7-0.1,1.2-0.1
			c0.5,0,1.1-0.1,1.7-0.4c0.6-0.3,1.1-0.7,1.5-1.3c0.5-0.6,0.6-1,0.6-1.2c0-0.2-0.2-0.4-0.6-0.4c-0.4,0-0.7,0.1-1.3,0.2
			c-0.4,0.2-0.9,0.4-1.5,0.6c-0.6,0.2-1.2,0.6-1.9,1c-0.6,0.4-1.1,0.7-1.5,1.1c-0.4,0.4-0.6,0.7-0.7,1.1c0.1,0.5,0.4,0.7,1.2,0.8
			c0.7,0.1,1.8-0.1,3.2-0.4c1.3-0.4,2.8-0.9,4.4-1.5c0,0.1-0.1,0.2-0.4,0.4c-0.2,0.2-0.4,0.6-0.6,0.9c-0.1,0.3-0.2,0.6-0.1,0.9
			c0.1,0.2,0.4,0.3,1,0.2c0.8-0.1,1.5-0.2,2.2-0.6c0.7-0.2,1.2-0.5,1.7-0.7c0.4-0.2,0.6-0.4,0.6-0.4c-0.1,0-0.1,0.2-0.4,0.7
			c-0.2,0.5-0.5,1.1-0.8,1.9c-0.3,0.9-0.6,1.8-0.7,2.7c-0.1,1.1-0.1,2.1,0,3.1c0,0,0.1-0.4,0.2-1.2c0.1-0.7,0.3-1.6,0.5-2.7
			c0.3-1.1,0.7-2.1,1.2-3.2c0.6-1.1,1.2-2,2-2.7c0.9-0.7,1.6-1.2,2.3-1.7c0.7-0.4,1.4-0.7,2.1-1.1c0.7-0.4,1.5-0.8,2.4-1.4
			c0.9-0.5,2-1.3,3.2-2.2c1.2-1.1,2.2-2,2.6-2.8c0.5-0.9,0.7-1.5,0.5-2C190.9,41.9,190.6,41.7,190.1,41.9z M188,44.3
			c0.6-0.4,1.1-0.7,1.3-0.7c0.1,0,0.1,0,0.1,0h0.1c-0.4,0.7-1,1.6-2,2.4c-0.9,0.9-1.9,1.6-3,2.4c-1.1,0.7-2,1.3-2.7,1.7
			c-0.7,0.5-1.1,0.7-1.2,0.7c0.7-0.8,1.5-1.7,2.4-2.5c0.9-0.8,1.8-1.5,2.7-2.2C186.5,45.2,187.3,44.7,188,44.3z M177.4,52.4
			c-0.2,0.3-0.7,0.6-1.3,0.9c-0.6,0.4-1.2,0.7-1.8,0.9c-0.6,0.3-1.1,0.5-1.4,0.6c-0.5,0.1-0.7,0-0.6-0.4c0.2-0.4,0.6-0.7,1.2-1.2
			c0.5-0.2,1-0.4,1.5-0.6c0.6-0.1,1.1-0.2,1.5-0.2C177.2,52.4,177.4,52.4,177.4,52.4z M167.5,52.3c0.4-0.2,0.7-0.3,1.1-0.3
			c0.4,0,0.6,0.1,0.4,0.2c-0.1,0.1-0.4,0.2-0.9,0.4c-0.5,0.2-0.9,0.3-1.4,0.4c-0.4,0.2-0.7,0.2-0.7,0.2
			C166.6,52.8,167.1,52.4,167.5,52.3z"/>
		<path class="st0" d="M186.8,54.8c0.4-0.2,0.6-0.3,0.6-0.3c-0.4,0.9-0.5,1.4-0.2,1.7c0.2,0.2,0.7,0.3,1.3,0.2
			c0.6-0.1,1.1-0.3,1.6-0.6c0.6-0.3,1.1-0.8,1.6-1.3c0.6-0.6,0.9-1.1,1.1-1.5c0.2-0.6,0.1-0.9-0.4-1.2c-0.5-0.1-1.1-0.2-1.7,0
			c-0.6,0.2-1.3,0.5-2,0.9c-0.7,0.3-1.3,0.7-2,1.2c-0.7,0.4-1.2,0.6-1.5,0.7c-0.3,0.1-0.6,0.2-0.6,0.2l-0.1-0.1
			c0.6-0.6,0.9-1.2,1.1-1.6c0.2-0.4,0.2-0.9,0-1.2c-0.1-0.3-0.3-0.6-0.4-0.8c-0.2-0.4-0.3-0.6-0.4-0.6c-0.1,0-0.1,0-0.1,0s0,0,0,0.1
			c0,0,0,0.1-0.1,0.2c-0.6,0.6-1.2,1.3-2,2.1c-0.9,0.7-1.7,1.4-2.7,1.9c-0.9,0.5-1.5,0.8-2.1,1c-0.5,0.2-0.8,0.2-0.8,0.2
			c0.4,0.2,1.1,0.2,1.8,0c0.7-0.2,1.5-0.6,2.2-1.1c0.8-0.6,1.4-1,1.9-1.4c0.6-0.4,0.8-0.7,0.9-0.7c0,0.1,0.1,0.2,0.3,0.4
			c0.1,0.2,0.2,0.5,0.2,0.7c0,0.2-0.2,0.5-0.5,0.8c-0.2,0.3-0.5,0.6-0.7,0.9c-0.2,0.3-0.1,0.5,0.1,0.6c0.3,0.1,0.6,0.1,1-0.1
			c0.4-0.1,0.7-0.3,1.3-0.6C185.9,55.2,186.4,55,186.8,54.8z M188.9,54.9c-0.2-0.2-0.2-0.4,0-0.8c0.2-0.2,0.5-0.4,0.9-0.6
			c0.3-0.2,0.6-0.4,0.9-0.5c0.3-0.1,0.5-0.1,0.6-0.2c0.4,0,0.4,0.2,0.1,0.5c-0.2,0.4-0.7,0.8-1.3,1.2
			C189.5,54.9,189.1,55,188.9,54.9z"/>
	</g>
	<path class="st0" d="M240.4,61.1c0-0.2-0.1-0.4-0.3-0.6c-0.2-0.1-0.4-0.2-0.6-0.2h-1.2v0.2h0.4v2.3h-0.4v0.2h1v-0.2H239V62h0.6
		c0.2,0,0.4,0,0.6-0.2C240.4,61.6,240.4,61.4,240.4,61.1z M240.2,61.1c0,0.2-0.1,0.4-0.2,0.5c-0.1,0.1-0.3,0.1-0.4,0.1H239v-1.2h0.5
		c0.1,0,0.3,0.1,0.4,0.1C240,60.9,240.2,61,240.2,61.1z"/>
	<path class="st0" d="M242.5,62.5h-0.2c-0.2,0.2-0.4,0.4-0.7,0.4c-0.2,0-0.4-0.1-0.6-0.2c-0.1-0.1-0.2-0.3-0.2-0.5h1.9v-0.1
		c0-0.4-0.1-0.6-0.4-0.8c-0.2-0.2-0.4-0.3-0.7-0.3c-0.4,0-0.6,0.1-0.8,0.3c-0.2,0.2-0.3,0.4-0.3,0.8c0,0.2,0.1,0.5,0.3,0.7
		c0.2,0.2,0.4,0.3,0.8,0.3C242,63.1,242.3,62.9,242.5,62.5z M242.1,61.4c0.1,0.2,0.3,0.3,0.3,0.5h-1.7c0.1-0.2,0.1-0.3,0.2-0.5
		c0.2-0.1,0.3-0.2,0.6-0.2C241.8,61.2,242,61.3,242.1,61.4z"/>
	<path class="st0" d="M243.5,61.5V61h-0.6v0.2h0.3v1.5h-0.3v0.3h0.9v-0.3h-0.3v-0.7c-0.1-0.5,0.2-0.7,0.6-0.8V61
		C243.8,61,243.5,61.2,243.5,61.5z"/>
	<path class="st0" d="M246.2,61.5c0.1,0.2,0.1,0.4,0.1,0.5v0.9h-0.3v0.2h0.9v-0.2h-0.3v-0.9c0-0.2,0-0.4-0.1-0.6
		c-0.1-0.1-0.2-0.2-0.3-0.3c-0.2-0.1-0.3-0.1-0.4-0.1c-0.4,0-0.6,0.1-0.7,0.4V61h-0.6v0.3h0.4v1.5h-0.4v0.2h1v-0.2H245V62
		c0-0.2,0.1-0.4,0.2-0.5c0.1-0.2,0.2-0.2,0.4-0.2C245.9,61.2,246,61.3,246.2,61.5z"/>
	<path class="st0" d="M249.1,62c0-0.3-0.1-0.5-0.2-0.7c-0.2-0.2-0.5-0.3-0.8-0.3c-0.4,0-0.6,0.1-0.8,0.3c-0.2,0.2-0.2,0.4-0.2,0.8
		c0,0.2,0.1,0.5,0.2,0.7c0.2,0.2,0.4,0.3,0.8,0.3c0.3,0,0.6-0.1,0.8-0.3C249,62.6,249.1,62.3,249.1,62z M248.9,62.1
		c-0.1,0.2-0.2,0.4-0.3,0.6c-0.1,0.1-0.3,0.2-0.6,0.2c-0.2,0-0.4-0.1-0.6-0.2c-0.2-0.1-0.3-0.4-0.3-0.6c0-0.2,0.1-0.5,0.3-0.6
		c0.1-0.2,0.3-0.2,0.6-0.2c0.2,0,0.4,0.1,0.6,0.2C248.7,61.6,248.8,61.8,248.9,62.1z"/>
	<path class="st0" d="M251.2,60.5v1c-0.2-0.3-0.4-0.6-0.9-0.6c-0.3,0-0.5,0.1-0.7,0.3c-0.2,0.2-0.3,0.5-0.3,0.8
		c0.1,0.2,0.1,0.4,0.2,0.6c0.1,0.1,0.2,0.2,0.4,0.3c0.1,0.1,0.3,0.1,0.5,0.1c0.4,0,0.6-0.2,0.9-0.4v0.4h0.6v-0.2h-0.4v-2.5h-0.6v0.2
		H251.2z M250.9,61.5c0.1,0.1,0.2,0.3,0.2,0.6c0,0.2-0.1,0.4-0.2,0.6c-0.1,0.2-0.4,0.2-0.6,0.2c-0.2,0-0.4-0.1-0.6-0.2
		c-0.2-0.2-0.3-0.4-0.3-0.6c0-0.2,0.1-0.5,0.2-0.6c0.2-0.2,0.4-0.2,0.6-0.2C250.6,61.3,250.8,61.3,250.9,61.5z"/>
	<path class="st0" d="M255.1,61.8c0.1-0.2,0.2-0.4,0.2-0.6c0-0.2-0.1-0.6-0.3-0.7c-0.2-0.1-0.5-0.2-0.7-0.2h-1.2v0.2h0.3v2.3h-0.3
		v0.2h1v-0.2h-0.4v-2.3h0.6c0.2,0,0.4,0.1,0.6,0.2c0.1,0.1,0.2,0.2,0.2,0.5c0,0.2-0.1,0.4-0.3,0.6c-0.2,0.1-0.4,0.1-0.6,0.1H254
		l0.9,1.2h0.6v-0.2h-0.4l-0.6-0.7C254.8,62.1,255,62,255.1,61.8z"/>
	<path class="st0" d="M256,60.3v0.4h0.3v-0.4H256z"/>
	<path class="st0" d="M256.3,61h-0.6v0.2h0.3v1.5h-0.3v0.2h0.9v-0.2h-0.3V61z"/>
	<path class="st0" d="M258.6,61.7V61h-0.2v0.3c-0.2-0.2-0.4-0.3-0.7-0.3c-0.3,0-0.6,0.1-0.8,0.3c-0.2,0.2-0.2,0.4-0.2,0.8
		c0,0.2,0.1,0.5,0.3,0.7c0.2,0.2,0.4,0.3,0.7,0.3c0.2,0,0.4-0.1,0.6-0.2c0.2-0.1,0.3-0.2,0.4-0.4h-0.4c-0.1,0.2-0.4,0.4-0.7,0.4
		c-0.2,0-0.4-0.1-0.6-0.2c-0.1-0.1-0.2-0.4-0.2-0.6c0-0.2,0.1-0.5,0.2-0.6c0.2-0.2,0.4-0.2,0.6-0.2c0.3,0,0.6,0.1,0.7,0.4H258.6z"/>
	<path class="st0" d="M260.8,61v0.5c-0.2-0.3-0.5-0.5-0.9-0.5c-0.4,0-0.7,0.2-0.9,0.5c-0.1,0.1-0.1,0.3-0.2,0.6
		c0,0.2,0.1,0.4,0.2,0.6c0.2,0.3,0.6,0.5,0.9,0.5c0.4,0,0.6-0.2,0.9-0.5v0.4h0.6v-0.2H261v-1.5h0.4V61H260.8z M260.8,62.1
		c0,0.2-0.1,0.4-0.3,0.6c-0.1,0.1-0.3,0.2-0.6,0.2c-0.2,0-0.4-0.1-0.6-0.2c-0.2-0.1-0.2-0.4-0.2-0.6c0-0.2,0.1-0.5,0.2-0.6
		c0.2-0.2,0.4-0.2,0.6-0.2c0.2,0,0.4,0.1,0.5,0.2C260.7,61.6,260.8,61.8,260.8,62.1z"/>
	<path class="st0" d="M262.2,61.5V61h-0.6v0.2h0.4v1.5h-0.4v0.3h1v-0.3h-0.4v-0.7c0-0.5,0.2-0.7,0.7-0.8V61
		C262.6,61,262.3,61.2,262.2,61.5z"/>
	<path class="st0" d="M264.8,60.5v1c-0.2-0.3-0.4-0.6-0.9-0.6c-0.2,0-0.5,0.1-0.7,0.3c-0.2,0.2-0.3,0.5-0.3,0.8
		c0,0.2,0.1,0.4,0.2,0.6c0,0.1,0.2,0.2,0.4,0.3c0.1,0.1,0.3,0.1,0.5,0.1c0.4,0,0.6-0.2,0.8-0.4v0.4h0.6v-0.2h-0.3v-2.5h-0.6v0.2
		H264.8z M264.5,61.5c0.2,0.1,0.2,0.3,0.2,0.6c0,0.2-0.1,0.4-0.2,0.6c-0.1,0.2-0.3,0.2-0.5,0.2c-0.3,0-0.5-0.1-0.6-0.2
		c-0.2-0.2-0.3-0.4-0.3-0.6c0-0.2,0.1-0.5,0.3-0.6c0.1-0.2,0.3-0.2,0.6-0.2C264.2,61.3,264.5,61.3,264.5,61.5z"/>
</g>
</svg>
