<?xml version="1.0" encoding="utf-8"?>
<!-- Generator: Adobe Illustrator 21.1.0, SVG Export Plug-In . SVG Version: 6.00 Build 0)  -->
<svg version="1.1" id="Layer_1" xmlns="http://www.w3.org/2000/svg" xmlns:xlink="http://www.w3.org/1999/xlink" x="0px" y="0px"
	 viewBox="0 0 300 101.9" style="enable-background:new 0 0 300 101.9;" xml:space="preserve">
<g id="XMLID_448_">
	<g id="XMLID_449_">
		<g id="XMLID_450_">
			<path id="XMLID_698_" d="M22.3,86.4h0.9c19.3,5.8,60.9,9.8,127.2,9.8c66.3,0,107.9-4,127.2-9.8h0.9
				c-27.2,7.7-73.4,12.1-128.1,12.1C95.7,98.5,49.5,94.1,22.3,86.4"/>
			<path id="XMLID_695_" d="M146.9,76.4c0-4.9,4.3-8.9,9.8-8.9c1.9,0,4.3,0.7,5.7,1.8c0,0,0-1,0-1.1c0-0.4,0.3-0.4,0.5-0.4h4.2
				c0.5,0,0.5,0.4,0.5,0.4v16.2c0,0.4-0.3,0.4-0.5,0.4h-4.2c-0.3,0-0.5-0.2-0.5-0.4c0-0.2,0-0.8,0-0.8c-1.4,1.1-3.8,1.7-5.7,1.7
				C151.2,85.3,146.9,81.6,146.9,76.4 M152.2,76.3c0,2.6,2.2,4.7,4.8,4.7c2.7,0,4.9-2.1,4.9-4.7c0-2.6-2.3-4.7-4.9-4.7
				C154.3,71.6,152.2,73.7,152.2,76.3"/>
			<path id="XMLID_694_" d="M31.3,84.5c-0.3-0.1-0.5-0.3-0.5-0.6c0-1.1,0.1-3.7,0.1-3.8c0-0.2,0.1-0.2,0.5,0
				c1.5,0.7,4.4,1.3,6.1,1.3c0.9,0,2.9-0.2,2.9-1.2c0.1-1.4-2.9-1.8-5.3-2.2c-2.3-0.5-4.6-2.1-4.6-4.6c0-4.1,4.6-5.8,9.1-5.8
				c2.2,0,3.7,0.2,5.6,0.8c0.4,0.1,0.5,0.3,0.5,0.6c0,1,0,3.2,0,3.3c0,0.2-0.3,0.1-0.4,0c-1.4-0.5-4.1-1-5.2-1
				c-0.8,0-3.3,0.1-3.3,1.5c0,1.1,2.7,1.6,4.3,1.9c3.1,0.5,5.8,2.1,5.8,4.7c0,4.6-4.3,6-9.1,6C35.1,85.3,33.2,85.1,31.3,84.5"/>
			<path id="XMLID_693_" d="M255.5,84.5c-0.3-0.1-0.5-0.3-0.5-0.6c0-1.1,0.1-3.7,0.1-3.8c0-0.2,0.1-0.2,0.5,0
				c1.5,0.7,4.4,1.3,6.1,1.3c0.9,0,2.9-0.2,3-1.2c0.1-1.4-3-1.8-5.3-2.2c-2.3-0.5-4.6-2.1-4.6-4.6c0-4.1,4.6-5.8,9.1-5.8
				c2.2,0,3.7,0.2,5.6,0.8c0.4,0.1,0.5,0.3,0.5,0.6c0,1,0,3.2,0,3.3c0,0.2-0.3,0.1-0.4,0c-1.4-0.5-4.1-1-5.2-1
				c-0.8,0-3.3,0.1-3.3,1.5c0,1.1,2.7,1.6,4.3,1.9c3.1,0.5,5.8,2.1,5.8,4.7c0,4.6-4.3,6-9.1,6C259.3,85.3,257.4,85.1,255.5,84.5"/>
			<path id="XMLID_690_" d="M48.6,76.4c0-4.9,4.3-8.9,9.8-8.9c1.9,0,4.3,0.7,5.7,1.8c0,0,0-1,0-1.1c0-0.4,0.3-0.4,0.4-0.4h4.2
				c0.5,0,0.5,0.4,0.5,0.4v16.2c0,0.4-0.3,0.4-0.5,0.4h-4.2c-0.3,0-0.4-0.2-0.4-0.4c0-0.2,0-0.8,0-0.8c-1.4,1.1-3.8,1.7-5.6,1.7
				C52.9,85.3,48.6,81.6,48.6,76.4 M54.1,76.3c0,2.6,2.2,4.7,4.8,4.7c2.7,0,4.9-2.1,4.9-4.7c0-2.6-2.3-4.7-4.9-4.7
				C56.2,71.6,54.1,73.7,54.1,76.3"/>
			<path id="XMLID_689_" d="M81.5,67.4c-5,0-9.1,2.5-9.1,6.2v10.8c0,0.2,0,0.4,0.5,0.4h4.7c0.5,0,0.5-0.3,0.5-0.4V73.6
				c0-1,1.4-2.1,3.5-2.1c2.2,0,3.5,1,3.5,2.1v10.8c0,0.2,0.1,0.4,0.5,0.4h4.7c0.5,0,0.5-0.3,0.5-0.4V73.6
				C90.8,69.8,86.5,67.4,81.5,67.4"/>
			<path id="XMLID_686_" d="M93,76.4c0-5,4.5-9.1,10.3-9.1c5.8,0,10.3,4.1,10.3,9.1c0,5-4.5,9.1-10.3,9.1C97.5,85.5,93,81.4,93,76.4
				 M98.5,76.3c0,2.6,2.1,4.6,4.8,4.6c2.6,0,4.8-2.1,4.8-4.6c0-2.5-2.1-4.6-4.8-4.6C100.6,71.7,98.5,73.8,98.5,76.3"/>
			<path id="XMLID_685_" d="M127,64.4c-2.2,0-11.2,0.4-11.2,7v13c0,0.3,0.2,0.4,0.5,0.4h4.7c0.5,0,0.5-0.3,0.5-0.4v-6.6
				c0-0.5,0.4-0.5,0.5-0.5h3.6c0.5,0,0.5-0.3,0.5-0.4v-3.1c0-0.4-0.3-0.4-0.5-0.4c-0.2,0-3.2,0-3.6,0c-0.5,0-0.5-0.3-0.5-0.5
				c0-0.2,0-1.1,0-1.1c-0.2-2.7,4.1-2.8,5.6-2.8c0.3,0,0.5-0.1,0.5-0.4v-3.8C127.5,64.5,127.4,64.4,127,64.4"/>
			<path id="XMLID_684_" d="M130.6,84.8c-0.4,0-0.5-0.2-0.5-0.4V70.8c0-0.2,0.1-0.4,0.3-0.4c0.2-0.1,0.4,0.1,0.6,0.2
				c0.6,0.3,1.3,0.4,1.9,0.4c0.2,0,0.4,0,0.7,0c0.4-0.1,0.7-0.2,1.1-0.3c0.2-0.1,0.4-0.3,0.6-0.3c0.1,0,0.2,0,0.3,0.1
				c0.1,0.1,0.2,0.2,0.2,0.4v13.6c0,0.1,0,0.4-0.4,0.4H130.6"/>
			<path id="XMLID_683_" d="M135.6,66.6c0,1.4-1.2,2.6-2.6,2.6c-1.5,0-2.6-1.2-2.6-2.6c0-1.4,1.2-2.6,2.6-2.6
				C134.4,64,135.6,65.2,135.6,66.6"/>
			<path id="XMLID_680_" d="M189.1,76.3c0-5.2,4.4-8.8,9.7-8.8c5.1,0,9.1,3.4,9.1,9c0,0.2,0,0.6,0,0.9c0,0.2-0.1,0.4-0.4,0.4h-12.1
				c-0.3,0-0.4,0-0.4,0.2c0,0.1,0,0.1,0,0.2c0.2,1.7,2.8,3.1,6.2,3.1c1.9,0,3.6-0.4,5.3-1c0.4-0.2,0.4,0,0.4,0.1v3.5
				c0,0.2-0.1,0.3-0.4,0.4c-2.1,0.6-4.2,1-6.4,1C193.7,85.2,189.1,81.8,189.1,76.3 M195.1,74c0,0.1-0.1,0.4,0.3,0.4h6.9
				c0.4,0,0.4-0.3,0.4-0.4c-0.4-1.8-2-2.8-3.7-2.8C197.1,71.2,195.5,72.3,195.1,74"/>
			<path id="XMLID_679_" d="M243,72.7v-3.1c0-0.3-0.1-0.4-0.4-0.4h-2.8c-0.3,0-0.4-0.1-0.4-0.4v-4.1c0-0.2-0.1-0.4-0.4-0.4h-4.8
				c-0.3,0-0.4,0.2-0.4,0.4v4.1c0,0.2,0,0.4-0.4,0.4h-0.9c-0.3,0-0.4,0.2-0.4,0.4v3c0,0.1,0,0.4,0.4,0.4h0.9c0.2,0,0.4,0.1,0.4,0.4
				v11c0,0.3,0.1,0.4,0.4,0.4h4.8c0.2,0,0.4,0,0.4-0.4v-11c0-0.2,0-0.3,0.4-0.3h2.8C242.9,73.1,243,73,243,72.7"/>
			<path id="XMLID_678_" d="M189.1,67.8c-1,0-5.3,0-5.5,0c-0.2,0-0.3,0.2-0.4,0.4c-0.1,0.2-2.8,6.4-3.5,8.2c-0.1,0.3-0.3,0.3-0.4,0
				c-0.7-1.8-3.2-8-3.3-8.1c-0.2-0.4-0.3-0.4-0.4-0.4H170c0,0-0.4,0-0.2,0.4c0.1,0.2,6.1,13.7,7.3,16.3c0.2,0.4,0.3,0.4,0.4,0.4
				c0.1,0,3.3,0,4.1,0c0.2,0,0.3-0.2,0.4-0.4c1.1-2.3,6.3-14.2,7.3-16.3C189.5,67.8,189.2,67.8,189.1,67.8"/>
			<path id="XMLID_514_" d="M220,67.5c-5,0-9.1,2.5-9.1,6.2v10.8c0,0.2,0,0.4,0.4,0.4h4.7c0.5,0,0.5-0.3,0.5-0.4V73.7
				c0-1,1.4-2.1,3.5-2.1c2.2,0,3.5,1,3.5,2.1v10.8c0,0.2,0,0.4,0.5,0.4h4.7c0.5,0,0.5-0.3,0.5-0.4V73.6
				C229.2,69.9,224.9,67.5,220,67.5"/>
			<path id="XMLID_513_" d="M251,70.5c-0.2,0-0.4,0.2-0.6,0.3c-0.3,0.1-0.7,0.2-1.1,0.3c-0.2,0-0.4,0.1-0.6,0.1
				c-0.7,0-1.3-0.1-1.9-0.4c-0.2-0.1-0.4-0.2-0.6-0.2c-0.2,0.1-0.3,0.2-0.3,0.4v13.5c0,0.2,0.1,0.4,0.5,0.4h4.7
				c0.5,0,0.5-0.3,0.5-0.4V70.9c0-0.1,0-0.3-0.2-0.4C251.2,70.5,251.1,70.5,251,70.5"/>
			<path id="XMLID_462_" d="M251.3,66.8c0,1.4-1.2,2.6-2.6,2.6c-1.5,0-2.6-1.1-2.6-2.6c0-1.4,1.2-2.6,2.6-2.6
				C250.1,64.2,251.3,65.4,251.3,66.8"/>
			<path id="XMLID_461_" d="M165,7c1.2-0.3,0.8-2.4,0.7-3.2c-0.1-0.5-0.5-1.8-1.5-1.5c0,0-1.4,0.7-1.1,2.6C163.1,5.7,164,7.2,165,7"
				/>
			<path id="XMLID_460_" d="M164.7,30.8c-0.4,0.3-0.6,1.5-0.9,1.7c-1.5,0.9-2.6,3.4-4.1,4.3c-0.1,1.8-0.1,1.5,0.1,3.4
				c0.1,2.5,1.4,6.5,3.2,8.3c1.3-3,0.3-7.2,0.9-10.4C164.2,36.3,164.2,33.2,164.7,30.8"/>
			<path id="XMLID_459_" d="M161.7,49.1L161.7,49.1c-1.1,1.2-1.4,2-2.7,2.9c1.2,0.5,1.6,0.8,2.4-0.2C162,51,162.3,49.8,161.7,49.1"
				/>
			<path id="XMLID_458_" d="M177.4,47.3c0.1-0.3-0.2-0.9-0.3-1.2c0-0.1-0.1-0.3-0.1-0.4c-0.2-0.6-0.5-1.3-0.5-1.7
				c0-0.4-0.4-1.8-1.1-4c-0.6-2.2-1.4-4.7-1.6-5.8l-0.4-1.2c-0.5-2.6-1.2-2.7-2.1-6.5c-0.3-1.2-0.7-2.9-1.1-5.2
				c0.4-2.7-0.3-4.2,0-5.8c0.5,0.2,0.9,0.4,1.3,0.6c0.2,0.1,0.5,0.3,0.8,0.4c0.8,0.4,1.7,0.6,2.5,0.9c0.7,0.2,1.3,0.4,2,0.7
				c0.1,0.1,0.3,0,0.4-0.1c0.1-0.1,0.1-0.3,0-0.4c-0.8-0.8-1.6-1.6-2.4-2.4c-0.7-0.7-1.5-1.3-2.1-2.1c-1.2-1.3-2.4-2.7-3.6-4
				l-0.2-0.2c-0.6-0.7-0.9-1.1-2-1.1c-0.7-0.1-1.4,0.2-2.1,0.1c-0.4-0.1-1-0.3-1.4-0.5c-0.7-0.3-2.1,0.1-4.6,0.6
				c-0.1,0.1-0.9,0.5-1.7,0.9c-0.8,0-1.9,0.1-3.5,0.2c-1.7,0.1-3.5,0.3-4.1,0.1c-1-0.3-1.7,0.1-2.4,0.6c-0.2,0.1-0.4,0.3-0.6,0.4
				c-0.5,0.3-0.8,0.4-1.3,0.4c-0.4,0-0.8-0.1-1.2-0.2c-0.3-0.1-0.6-0.2-1-0.2c-0.4,0-2.3-0.5-4.2-1.4c-1-0.5-1.9-1-2.7-1.4
				c-2-1.1-2.4-1.3-2.7-1c-0.1,0.1-0.1,0.3,0,0.6c0.3,0.5,1.5,1.3,3.5,2.4c1.2,0.7,2.5,1.5,3.5,2.2c1.1,0.8,1.3,1.5,1.4,1.9
				c0,0.1,0.1,0.2,0.1,0.3c0,0.8-0.1,1.7-0.3,2.6c-0.1,0-0.2-0.1-0.4-0.2l-0.4-0.2c-1.3-0.6-3-1.3-4.7-1.8c-1.3-0.4-2.1-0.2-3.2,0.4
				c-0.5,0.3-0.9,0.4-1.5,0.5c-0.4,0-0.9-0.1-1.3-0.2c-0.4-0.1-0.7-0.2-1.1-0.2c-1.2-0.1-2.1,0.7-2.7,1.4c-0.1,0.1-0.3,0.3-0.4,0.4
				c-0.4,0.4-0.8,0.9-1.2,1.3c-0.3,0.4-0.7,0.8-1,1.1c-0.4,0.4-1,0.9-1.5,1.3c-0.5,0.4-1,0.8-1.4,1.2c-0.3,0.2-0.1,0.7-0.1,0.7
				c0.2,0,0.3-0.1,0.4-0.1l0,0l0,0c0.7-0.2,1.3-0.6,1.8-1c0.5-0.3,0.9-0.6,1.4-0.8c0.2-0.1,0.5-0.2,0.8-0.3c0.6-0.2,1.1-0.4,1.7-0.7
				c0.2-0.1,0.3-0.2,0.5-0.3c0.2-0.1,0.4-0.3,0.6-0.3c0,1.7-0.5,3.6-1,5.2l-0.3,0.9c-0.4,1.7-0.9,3.6-1.2,5.5l-0.2,1.4
				c-0.2,1.7-0.4,3.4-0.8,5l-0.2,0.8c-0.5,2.5-1.1,5.4-0.2,8c0,0.1,0.1,0.2,0.3,0.2c0.1,0,0.3-0.1,0.3-0.2l0.3-0.7
				c0.7-1.4,1.5-2.8,2-4.3l0.5-1.4c0.5-1.5,1-3.1,1.7-4.5l0.1-0.2c0.9-2,1.4-2.5,1.7-2.5c0.4-0.1,0.7,0.4,0.9,0.9
				c0.2,0.4,0.3,0.7,0.4,1.1c0.1,0.3,0.2,0.6,0.3,0.8c0.9,2.5,1.8,4.8,2.6,7.2c0.3,1.2,1.5,3.3,1.8,4c0.1,0.3,0.6,1.2,1,2.1
				c0.1,0.2,1.1,2.5,1.7,2.9c0.1,0.1,0.3,0.1,0.4,0c0.1-0.1,0.2-0.2,0.1-0.3c-0.2-0.8-0.1-1.6-0.1-2.4c0-0.5,0-0.9,0-1.4
				c-0.1-1.8,0.1-2-0.5-4c-0.1-0.4-0.2-0.8-0.3-1.2c-0.3-1-0.5-2-1-2.9c-0.5-1-1.2-1.8-1.9-2.7l-0.6-0.7c-5.6-6.6-4.5-10.9-2.7-13.4
				c2.3-3,6.6-4.1,7.7-3.6c0,0,0,0,0.1,0c0.1,0,0.3,0.1,0.4,0.1c0,0.1-0.1,0.2-0.1,0.4l-0.2,0.9c-0.4,1.5-0.5,3-0.7,4.7l-0.2,1.3
				c-0.2,1.5-0.2,5.6-0.2,5.6c0.1,3.2,1.6,10.9,2.4,13.3c0,0.1,0.1,0.2,0.3,0.2c0.1,0,0.7-1.3,0.8-1.4c0,0-0.4-1.5-0.4-3
				c0-2.9-0.4-4.3-0.2-8.1c0,0-0.1-2,0.4-3.1c0,0,1-4.9,1.8-4.9c0.6,0,0.6,1.8,0.8,2.4c0.1,0.3,0.2,0.9,0.3,1.3
				c0.1,0.2,0.1,0.5,0.2,0.7c0.9,2.3,1.6,4.4,2.2,6.5c0.3,1,0.8,2,1.2,2.9c0.2,0.4,0.4,0.9,0.6,1.3c0.2,0.5,0.4,1,0.7,1.5
				c0.2,0.5,0.4,0.9,0.6,1.4c0.4,1.4,1.2,2.9,1.9,3.1c0.2,0,0.4,0,0.5-0.2c0.8-0.9-0.4-5.5-1.6-9.3c-4.7-18.5-3.5-23.2-3.1-24
				c1,0.2,2.9-0.2,4.7-0.6c-3.8,2.7-3.6,3.8-3.6,3.8c1-0.3,3.3-2.6,4.3-2.8l0.5-0.1c2.9-0.5,6.8-0.7,9.2,0.5
				c3.4,1.7,4.8,5.5,4.2,9.5l-0.4,2.7c-0.3,2,0.9-1.1,0.4,0.6l-0.9,1.2l-1.3,2.4c0,0,0,0,0,0c-0.1,0.2-0.3,0.4-0.4,0.6
				c0.3,0.5,0.6,1.1,0.9,1.7c0.2,0.5,0.5,1.1,0.9,1.9c0.6,1.2,1.8,2.3,2.7,4.1c0.5,1.1,1.1,3,1.7,4.5c0.2,0.6,0.5,1.1,0.7,1.7
				c2.1,3.3,3.7,5,4.1,4.8C177.1,47.7,177.3,47.7,177.4,47.3"/>
			<path id="XMLID_457_" d="M180.2,49c-0.3-0.3-1.1-0.8-1.6-1.1c0,0.2-0.1,0.4-0.3,0.6c-0.2,0.3-0.6,0.2-0.9,0.3
				c-0.2,0.1-0.4,0.1-0.7,0.1c1.2,0.2,2.4,1.2,3.4,0.4C180.3,49.2,180.3,49.1,180.2,49"/>
			<path id="XMLID_456_" d="M144.5,9.6c0.2,0.1,0.8,0.2,1,0.1c0.5-0.2,0.5-0.6,0.6-1c0.2-0.8,0.6-1.5,0.1-2.3
				c-0.2-0.4-0.7-0.6-1.1-0.6c-0.6,0-1,1.5-1,2.3C144,8.4,144,9.3,144.5,9.6"/>
			<path id="XMLID_455_" d="M154.9,45.7c-0.1,0-0.1,0-0.2,0c-0.3,0.3-0.5,0.3-0.6,0.6c0,0-0.4,0.5-0.2,0.7c0.2,0.3,1.3,1.2,2,1.6
				c0,0,0,0,0,0c0.1,0,0.4,0.2,0.6,0c0.3-0.4-0.8-2-1.5-2.8C155,45.8,155,45.7,154.9,45.7"/>
			<path id="XMLID_454_" d="M130.8,13.9c0.4,0.2,0.9-0.2,1.3-0.6c0.3-0.3,0.5-0.8,0.6-1.2c0.1-0.5,0.2-1.1,0.1-1.6
				c-0.2-2-1.8-1.3-1.8-1.3c0,0-0.3,0.1-0.4,0.3c-0.3,0.3-0.4,1-0.5,1.4c-0.1,0.6,0,1.3,0.1,1.9C130.2,13.3,130.4,13.7,130.8,13.9"
				/>
			<path id="XMLID_453_" d="M122.7,44.8c-0.4,0.3-2.5,1.3-2.1,1.9c0.4,0.5,2.1,0.1,2.5-0.2c0-0.4-0.1-1.2-0.3-1.5L122.7,44.8z"/>
			<path id="XMLID_452_" d="M141.6,45.4c-0.1,0.5-0.9,2.2-0.2,2.3c0.6,0.1,1.7-1.9,1.8-2.4c-0.3-0.3-1.1,0.1-1.5,0.1L141.6,45.4z"/>
			<path id="XMLID_451_" d="M140.8,50.6c-0.1,0-0.1,0-0.2,0c-0.1,0.2,0.1,0.4-0.4,0.8c-0.2,0.1-0.7,0.2-0.5,0.5
				c0.2,0.3,1.2,1.2,1.9,1.7c0,0,0,0,0,0c0.1,0.1,0.4,0.2,0.6,0c0.4-0.4-0.7-2-1.4-2.9C140.9,50.6,140.9,50.6,140.8,50.6"/>
		</g>
	</g>
</g>
</svg>
