<?xml version="1.0" encoding="utf-8"?>
<!-- Generator: Adobe Illustrator 22.0.1, SVG Export Plug-In . SVG Version: 6.00 Build 0)  -->
<svg version="1.1" id="Layer_1" xmlns="http://www.w3.org/2000/svg" xmlns:xlink="http://www.w3.org/1999/xlink" x="0px" y="0px"
	 viewBox="0 0 300 101.9" style="enable-background:new 0 0 300 101.9;" xml:space="preserve">
<style type="text/css">
	.st0{fill:#606060;}
</style>
<g>
	<path class="st0" d="M37.1,53.6C37.1,53.7,37.1,53.7,37.1,53.6C37.1,53.7,37.1,53.7,37.1,53.6L37.1,53.6C37.7,58,39,61.7,41,65.5
		c3.2,5.8,8.8,9.8,14.1,11.4c0.6,0.2,0.9,0.2,0.9-0.3c0-0.3,0-0.3,0-0.7c0-0.5-0.4-0.6-0.7-0.8c-3.9-2.4-7-4.5-9.3-9.2
		c-2.8-5.5-3.7-11.2-3.7-17.6c0-4.4,0.2-8.9,1.6-13.4c0.6-2,1.8-4.4,3.9-4.5c1.4-0.1,2.4,0.6,2.4,2.3c0,1.6-1.3,3.3-2,4.6
		c-0.7,1.6-0.9,2.6-0.3,4.1c0-1.6,2.1-3.6,3.2-4.6c1.5-1.4,3.3-2.9,3.3-5.1c0-2.4-1.9-3.9-6-3.8c-2.9,0.1-5.6,1.7-7.3,4
		c-2.5,3.3-3.7,7.5-4.1,11.6v0c-0.2,1.6-0.5,4.2-2.1,5.4C36.4,50,36.9,51.7,37.1,53.6 M118.5,32.6c1.3-0.4,3-2.2,3-4.1
		c0-1.5-0.9-3-1.9-3.8c-1.1,0.9-2.1,1.8-3.2,2.7C116.4,28.9,119,30.5,118.5,32.6 M125.8,66.5c2,0,4,0,5.9,0c0.8,0,0.8,0,0.5-0.4
		c-1.2-1.5-1.2-3.4-1.2-4.7c0-7.1,0-14.2,0-21.2c0.5-0.8,1.5-1.3,2.2-1.6c1.1,0.2,2,1,2,2.8v19.8c0,2.2,0.2,3.5,0.9,4.6
		c0.4,0.7,1,0.8,1.7,0.8c0.5,0,2.6,0,3.2,0c0.5,0,0.3-0.1,0.1-0.3c-1.2-1.4-1.3-3.7-1.3-5c0-0.8,0-17.3,0-19.2
		c0-1.8-0.2-3.3-1.1-4.8c-0.7-1.2-2.4-2-4.6-1.8c-0.8,0.8-2.3,2.2-3.3,2.8c-0.3-1.2-0.9-2.2-1.1-2.4c-0.1-0.2-0.3-0.2-0.5-0.1
		c-0.4,0.2-2.7,1.2-3.6,1.6c-0.3,0.1-0.3,0.2-0.1,0.5c0.5,0.6,1,2.6,1,2.6s0,20,0,21c0,1.4,0,3.2-1.2,4.7
		C125,66.4,124.9,66.5,125.8,66.5 M177.8,59.8c0-0.7-2.8-29.1-2.9-30.3c-0.1-1.4-0.1-3.3,1-4.5c0.3-0.3,0.3-0.3-0.1-0.3
		c-0.9,0-6,0-6,0c-0.3,0-0.5,0-0.6,0.4c-1.4,7.6-2.8,15.2-4.2,22.8c-1-7.6-1.9-15.2-2.9-22.7c-0.1-0.4,0-0.5-0.6-0.5
		c-1.3,0-5.5,0-6.3,0c-0.2,0-0.3,0-0.4,0c-1.7,0.1-3.6,0.2-5.4,0.6c-3.9,0.9-4.5,2.8-4.1,4c0.6,1.7,4,1.4,4.9,0.7
		c-2-0.9-1.8-3,1.5-3.9c1.2-0.3,2.6-0.4,3.9-0.4c0.6,0.9,1.1,2.4,0.8,4.3c-0.1,0.5-0.1,0.7-1.7,9.8c-0.4,1.8-1.1,3.5-2.9,4.3
		c1.3,1.6,1.5,3,1.2,4.8c-0.1,0.5-0.2,1.1-0.3,1.6c-1.3,7.6-2.4,22.9-13.3,24.6c1.9,0.8,4.9,0.2,7.2-1.2c4.1-2.5,6.4-5.6,7.9-11.6
		c0.2-0.9,4.4-25.6,4.4-25.6c1.2,9.5,2.5,19.1,3.7,28.6c0,0.3,0.1,0.3,0.2,0.3c0.7,0,1.5,0,2.2,0c0.2,0,0.2,0,0.3-0.2
		c1.8-9.6,3.6-19.2,5.3-28.8c0.7,8.1,1.5,16.2,2.2,24.3c0.2,1.5,0.5,3.2,1.2,4.5c0.2,0.4,0.2,0.4,0.7,0.4c1.6,0,3.2,0,4.8,0
		c0.6,0,0.4-0.2,0.1-0.5C178.7,64,178,62.2,177.8,59.8 M117,53.7c0,3.6,0,6.7,0,7c0,1.4,0,3.3-1.2,4.7c-0.3,0.4-0.5,0.5,0.4,0.5
		c2,0,4.1,0,6.1,0c0.9,0,0.5-0.1,0.3-0.5c-1.1-1.5-1.2-3.3-1.2-4.6c0-8.5,0-17.1,0-25.6c0-0.5,0-0.5-0.4-0.4c-0.3,0.1-4.4,1.4-5,1.6
		c-0.4,0.1-0.4,0.1-0.1,0.4c1.1,1.2,1,3,1,4.3c0,0.3,0,1.7,0,3.8c-0.1,1.7-0.5,3.5-2,4.5C116.5,50.7,116.9,52,117,53.7 M87.5,38.8
		c0.6,0,1.1,0,1.7,0c0,0,0,8.8,0,7.3c0,1.7-0.5,3.5-2,4.5c1.5,1.3,1.9,2.5,2,4.3v7.1c0,2,0.9,5.1,3.5,6c1.5-1,3.2-2.2,3.7-2.5
		c0.6-0.4,0.3-0.4,0-0.4c-2.3-0.7-2.8-3.3-2.8-4.6c0-0.9,0-12.9,0-21.7c0.8,0,2.1,0,2.5,0c0.5,0,0.5-0.2,0.7-0.5
		c0.1-0.1,0.7-0.9,0.9-1.2c0.3-0.4,0.4-0.6,0.2-0.6c-1.4,0-2.8,0-4.3,0c0-2.8,0-5.4,0-5.6c0-1.1-0.2-1-0.7-0.3
		c-0.6,0.8-1.2,1.9-2.8,3.9c-1.9,2.6-2.5,3.3-3,3.9C86.8,38.7,87,38.8,87.5,38.8 M53.9,46.8c1.5-0.6,2.1-1.7,2.3-2.7
		c0.2-1.4,0.5-3.6,2.5-3.6c2.5,0,3.1,2.3,3.1,5.4v0c0-0.2,0-0.3,0-0.2c0,3.5-3.7,6-7.2,6.3c-1.6,2.4-2.3,5.4-2.3,9.2
		c0,3.3,0.9,7.7,4.1,8.8c0,0,0.1,0,0.1,0c1.9-0.8,4-2.3,5.6-3.5c0.6,1.4,1.8,2.9,3.4,3.5c1.7-1.2,3.6-3,3.6-2.9
		c-2.6-0.5-2.9-3.9-2.9-3.9s0-14.9,0-17.3c0-6.1-3.1-7.5-6.8-7.4c-3.4,0.1-6.1,2.1-6.1,4.3C53.4,44.1,54.6,45.5,53.9,46.8
		 M61.7,58.1v5.4c0,1.5-0.9,3-2.3,3c-1.7,0-2.5-3.3-2.5-7.1c0-2.1,0.4-4.3,0.9-5.3c1-2.1,2.8-2.8,3.9-4.8
		C61.8,52.4,61.7,56.3,61.7,58.1 M239.6,62.2c0,0,0-14.4,0-16.7c0-5.9-3-7.3-6.6-7.4c-3.3,0-5.9,1.8-5.9,4c0,1.4,1.2,2.7,0.5,4
		c1.5-0.5,2-1.5,2.2-2.6c0.2-1.3,0.4-3.4,2.4-3.4c2.4,0,3,2.3,3,5.3v0c0-0.2,0-0.3,0-0.2c0,3.4-3.6,5.7-7,5.8
		c-1.5,2.3-2.2,5.1-2.2,8.8c0,3.1,0.9,7.7,4,8.9c0,0,0.1,0,0.1,0c1.9-0.7,3.9-2.3,5.5-3.5c0.6,1.4,1.7,2.8,3.3,3.5
		c1.6-1.1,3.4-2.7,3.5-2.7C239.9,65.4,239.6,62.2,239.6,62.2 M235.3,57.3v5.2c0,1.5-0.9,2.8-2.2,2.8c-1.7,0-2.4-3.2-2.4-6.9
		c0-2,0.4-4.1,0.8-5.1c1-2,2.7-2.6,3.8-4.5C235.3,51.8,235.3,55.6,235.3,57.3 M191.4,35.7C191.4,35.7,191.4,35.7,191.4,35.7
		C191.3,35.7,191.3,35.7,191.4,35.7c-0.5-0.3-1-0.6-1.6-0.8c-5.8,2-8,5.1-8.7,10.9v0c0,0.1-0.1,0.5-0.1,0.6
		c-0.2,1.5-0.5,2.9-1.8,3.7c1.4,1,1.5,2.5,1.6,4.2c0.5,9,3.2,10.1,5.8,10.9c6.7-2.1,8-8,8-16.6C194.8,41.7,193.7,37.2,191.4,35.7
		 M188,62.4c-1.1,0-2.8-1.4-2.8-14.3c0-6.2,0.9-8.9,2.1-10.1c2,0.2,3,3.5,3,10.5C190.3,58.1,189.5,62.4,188,62.4 M114.9,63.9
		c-2.6-0.6-2.9-4-2.9-4s0-14.9,0-17.3c0-6.1-3.1-7.5-6.8-7.5c-3.4,0-6.1,1.9-6.1,4.2c0,1.5,1.3,2.8,0.5,4.2c1.5-0.6,2.1-1.6,2.3-2.7
		c0.2-1.4,0.5-3.6,2.5-3.6c2.5,0,3.1,2.3,3.1,5.5v0c0-0.2,0-0.3,0-0.2c0,3.5-3.7,6-7.2,6.1C98.7,51,98,54,98,57.8
		c0,3.3,0.9,7.7,4.1,8.9c0,0,0.1,0,0.1,0c1.9-0.8,4-2.2,5.7-3.4c0.6,1.5,1.8,2.9,3.4,3.5C113,65.6,114.9,63.9,114.9,63.9
		 M107.5,54.9v5.4c0,1.6-0.9,3-2.3,3c-1.7,0-2.5-3.3-2.5-7.1c0-2.1,0.4-4.3,0.9-5.3c1-2.1,2.8-2.7,4-4.7
		C107.5,49.2,107.5,53.2,107.5,54.9 M257.5,66.6c0-0.4,0-4.1,0-8.3c0.1-1.4,0.2-2.4,1.7-3.3c-1.5-0.9-1.6-2.3-1.7-3.7v-5.7
		c0-1.8-0.1-3.2-1-4.7c-0.7-1.2-2.2-2.1-4.4-2c-0.8,0.8-2.2,2.1-3.2,2.6c-0.3-1.2-0.9-2.2-1.1-2.4c-0.1-0.2-0.3-0.2-0.5-0.1
		c-0.4,0.1-2.7,1.1-3.6,1.4c-0.3,0.1-0.3,0.2-0.1,0.5c0.5,0.6,1,2.6,1,2.6s0,19.7,0,20.6c0,1.3,0,3.1-1.2,4.6
		c-0.3,0.4-0.4,0.4,0.5,0.4c1.9,0.1,3.9,0.1,5.8,0.2c0.8,0,0.8,0,0.5-0.3c-1.2-1.5-1.2-3.3-1.2-4.7c0-7,0-13.9,0-20.9
		c0.5-0.7,1.4-1.2,2.1-1.5c1.1,0.3,2,1.1,2,2.8v19.5c0,2.2,0.2,3.5,0.9,5.2c0.4,1,1,1.5,1.6,2.1c0.5,0.4,2.3,2.1,2.9,2.5
		c0.4,0.4,0.3,0.1,0.1-0.2C257.6,71.4,257.5,67.8,257.5,66.6 M222.9,61.1c0-4.1,0-11.5,0-17c0-2.3,0.6-3.9,0.6-3.9
		c-1-0.7-1.9-1.3-2.9-1.9c0,0-0.1,0-0.1-0.1c0,0-0.1,0-0.1-0.1l0,0c-0.5-0.3-1-0.6-1.6-0.8c-5.8,1.5-8.2,5.1-9,11c0,0,0-0.1,0-0.1
		c0,0.1,0,0.1,0,0.2c0,0.3-0.1,0.5-0.1,0.8c-0.2,1.4-0.7,2.6-1.9,3.4c1.4,1.3,1.8,2.5,1.8,4.3v0c0.4,8.9,2.3,9.6,4.7,10.6
		c1.5-0.9,3.4-1.8,4.2-2.9c0,0,0,0,0.1,0.1c0.2,2.4,1.6,4,1.6,6.2c0,1.2-0.5,2.2-2.2,2.2c-1.1,0-2.5-1-3.9-1.5
		c-2.2-0.8-3.7-1-5.8-0.2c-0.9,0.4-2,1.1-2.9,1.6c-0.1,0.1-1.3,1-0.6,0.7c3.9-1.9,6.4,1.2,10.1,1.5c5,0.4,8.7-3.3,8.7-6.5
		c0-2-1-3.5-1-6C222.9,62.1,222.9,61.6,222.9,61.1 M218.6,60.6c0,2.6-0.7,4.3-2,4c-1.1-0.3-2.7-1.1-2.7-14.1c0-6.2,0.8-8.9,1.9-10.1
		c1.3,0.1,2.7,1.2,2.7,2.9V60.6z M79.8,37c-1.6,0.9-3.5,1.9-4.3,3c0,0-1.5-1.9-1.5-3c-1.4,1.1-2.8,2.1-4.2,3.2
		c1,1.3,1.4,2.5,1.4,4.1c0,2.1,0,4.8,0,7.6c0,0.1-0.1,0.2,0,0.2c0,0.5,0,5.7,0,10.5c-0.1,1.8-0.6,3-0.6,3c0.2,0.1,0.4,0.3,0.6,0.4
		c0,2.6,0,4.5,0,4.8c0,1.3,0.1,3.1-1,4.3c-0.3,0.3-0.3,0.3,0.1,0.4c0.6,0.2,4.7,1.5,5,1.5c0.1,0,0.3,0.1,0.4,0.1c0-0.3,0-0.7,0-1
		c0-2.6,0-5.3,0-7.9c7.3-2,9.3-7.4,9.3-16.6C84.7,39.2,82.6,38.1,79.8,37 M77.7,67c-1.3-0.1-2.3-1.7-2.3-3.5V45.4c0-2.7,1-4.3,2.3-4
		c1.1,0.3,2.5,1.4,2.5,14.7C80.2,62.5,79.3,65.8,77.7,67 M204.5,65.5c-1.2-1.5-1.2-3.3-1.2-4.6c0-3.7,0-7.4,0-11.1
		c0-3,0.2-5.7,0.5-6.8c0.7-2.3,1.8-3.4,2.9-2.8c0.9,0.5,0.9,1.8,0.8,2.5c-0.1,0.3-0.2,0.6-0.1,0.6c0.2,0.1,0.4-0.5,0.7-0.9
		c1-1.2,2.8-3.1,2.3-4.8c-0.6-1.8-2.5-2-3.9-1.5c-0.8,1.4-2.7,3.9-3.3,4.9c0-1.9,0-4.3,0-4.5c0-0.4,0.1-0.4-0.3-0.3
		c-0.6,0.2-4.4,1.4-4.9,1.5c-0.6,0.2-0.4,0.1-0.1,0.5c1.1,1.1,1,2.9,1,4.2c0,2.6-0.1,11.7,0,18.2c0,1.9-0.1,3.3-1.1,4.6
		c-0.4,0.4-0.2,0.4,0.1,0.4c0.9,0,0.9,0,6.2,0C205,65.9,204.8,65.9,204.5,65.5"/>
	<path class="st0" d="M262.7,36.5c1.3,0,2.4,1.1,2.4,2.5c0,1.4-1.1,2.5-2.4,2.5c-1.3,0-2.4-1.1-2.4-2.5
		C260.3,37.6,261.4,36.5,262.7,36.5L262.7,36.5z M262.7,36.9c-1.1,0-2,0.9-2,2.1c0,1.2,0.9,2.1,2,2.1c1.1,0,2-0.9,2-2.1
		C264.7,37.8,263.8,36.9,262.7,36.9L262.7,36.9z M262.3,40.4h-0.4v-2.7c0.2,0,0.4-0.1,0.8-0.1c0.4,0,0.7,0.1,0.9,0.2
		c0.2,0.1,0.3,0.3,0.3,0.6c0,0.4-0.2,0.6-0.5,0.7v0c0.2,0,0.4,0.3,0.5,0.7c0.1,0.4,0.1,0.6,0.2,0.7h-0.5c-0.1-0.1-0.1-0.3-0.2-0.7
		c-0.1-0.4-0.2-0.5-0.6-0.5h-0.3V40.4z M262.3,38.9h0.3c0.4,0,0.7-0.1,0.7-0.5c0-0.2-0.2-0.5-0.7-0.5c-0.1,0-0.2,0-0.3,0V38.9z"/>
</g>
</svg>
