<?xml version="1.0" encoding="utf-8"?>
<!-- Generator: Adobe Illustrator 22.0.1, SVG Export Plug-In . SVG Version: 6.00 Build 0)  -->
<svg version="1.1" id="Layer_1" xmlns="http://www.w3.org/2000/svg" xmlns:xlink="http://www.w3.org/1999/xlink" x="0px" y="0px"
	 viewBox="0 0 300 101.9" style="enable-background:new 0 0 300 101.9;" xml:space="preserve">
<style type="text/css">
	.st0{fill:#606060;}
</style>
<g>
	<path class="st0" d="M152.8,44.4h-0.2c-2.9,0-4.2,1.4-4.2,4.4c0,3,1.4,4.4,4.2,4.4h0.1c2.9,0,4.2-1.4,4.2-4.4
		C157,45.8,155.6,44.4,152.8,44.4z"/>
	<g>
		<path class="st0" d="M203.9,41.4L203.9,41.4c0,0-1.3-0.1-3,0.7c-1,0.5-1.6,1-1.8,1.2c-0.1,0.1-0.2,0-0.2,0
			c-0.3-0.5-1.3-1.9-2.6-2.4c-1.1-0.5-1.8-0.6-2.2-0.6c-2.7,3-4.2,6.8-4.2,10.9c0,4.3,1.7,8.4,4.8,11.5c0.2,0.2,0.5,0.5,0.7,0.7
			c-0.4-1.5,0.7-2.9,1.7-3.8c0.8-0.8,1.7-1.1,2.2-1.2c-1.9-1.8-3-4.3-3-7.1C196.3,46.3,199.6,42.4,203.9,41.4z"/>
		<path class="st0" d="M237.3,25.5c0-6.2-5-11.1-11.2-11.1l-152.4,0c-6.2,0-11.1,5-11.1,11.1l0,50.9c0,6.2,5,11.1,11.1,11.1h152.4
			c6.2,0,11.1-5,11.1-11.1L237.3,25.5z M97.1,39.4h-8.1V61h-7.3V39.4h-8.1v-5h23.5V39.4z M112.3,46.1c0,0-1.3-0.1-2.5-0.1
			c-2.1,0-4.3,0.5-4.3,0.5V61h-7.1V42c0,0,4.5-1.3,11.5-1.3c0.7,0,2.4,0.1,2.4,0.1V46.1z M127,70.7l-7.5,0l4.6-9.3
			c-0.1-0.1-8.4-18.3-9.3-20.4h8.1c0.4,1.2,4.6,13.6,4.8,14.1l4.7-14.1h8.2L127,70.7z M165.6,44.9l-3.2-0.2c0.4,0.7,1.5,2.6,1.5,4.6
			c0,5.1-4.3,7.6-10,7.6c-1.2,0-2.8-0.1-2.8-0.1c-1.1,0.7-2.2,1.6-2.2,2.6c0,1.6,2.4,1.5,2.4,1.5l4.5,0.1c1.3,0.1,8.2,0,8.4,5.9v0.1
			c0,0.8-0.1,1.4-0.5,2.2l-1.1,2.4l-0.3,0.7h-6.8c0,0,1.8-3.1,1.8-4.3c0-0.6-0.4-1.1-0.9-1.3c-1.5-0.6-4.7-0.2-5.7-0.2
			c-1.8,0-4.4,0-6.5-0.8c-1.5-0.6-2.9-1.7-2.9-3.6c0-2.5,2-4.3,3.8-5.5L146,56c-0.1,0-0.2-0.1-0.2-0.1c-2.6-1.2-4.4-3.4-4.4-6.5
			c0-6.7,5.4-8.7,11.4-8.7c2.8,0,4.9,0.4,4.9,0.4l7.9,0V44.9z M178.4,74.2h-1.9V26.6h1.9V74.2z M206.2,68.2
			c-9.5,0-17.2-7.7-17.2-17.2s7.7-17.2,17.2-17.2c9.5,0,17.2,7.7,17.2,17.2S215.7,68.2,206.2,68.2z"/>
		<path class="st0" d="M217.1,38.9c0,0.8-0.2,2.2-1.3,3.3c-1.2,1.2-2,1.6-2.7,1.7c1.9,1.8,3,4.3,3,7.1c0,2.6-1,5-2.7,6.8
			c0.1,1.3,0.7,1.9,1.5,2.7c0.8,0.8,1.9,1.2,2.2,1.3c0,0,0,0,0,0.1c-0.1,0.2-0.9,1.4-2.5,2.7c-0.8,0.7-1.2,1-1.3,1.1
			c1.6-0.8,3.1-1.8,4.4-3.2c3.1-3.1,4.8-7.1,4.8-11.5c0-4.3-1.7-8.4-4.8-11.5C217.5,39.3,217.3,39.1,217.1,38.9z"/>
		<path class="st0" d="M210.5,43.2c-0.2-0.1-0.4-0.2-0.7-0.3c-1.1-0.5-2.4-0.8-3.7-0.8c-4.9,0-8.9,4-8.9,8.9s4,8.9,8.9,8.9
			c4.9,0,8.9-4,8.9-8.9C215.1,47.7,213.2,44.7,210.5,43.2z"/>
	</g>
</g>
</svg>
