<?xml version="1.0" encoding="utf-8"?>
<!-- Generator: Adobe Illustrator 22.0.1, SVG Export Plug-In . SVG Version: 6.00 Build 0)  -->
<svg version="1.1" id="Layer_1" xmlns="http://www.w3.org/2000/svg" xmlns:xlink="http://www.w3.org/1999/xlink" x="0px" y="0px"
	 viewBox="0 0 300 101.9" style="enable-background:new 0 0 300 101.9;" xml:space="preserve">
<style type="text/css">
	.st0{fill:#606060;}
</style>
<g id="XMLID_272_">
	<path id="XMLID_283_" class="st0" d="M93.5,31.8c-0.7-2.8,0.9-5.6,3.7-6.4c2.8-0.7,5.6,0.9,6.4,3.7c0.7,2.8-0.9,5.6-3.7,6.4
		C97.1,36.2,94.2,34.6,93.5,31.8"/>
	<polyline id="XMLID_282_" class="st0" points="157.7,23.8 192.9,14.3 195.8,25.1 184.9,28.1 195.2,66.4 181.3,70.1 171.1,31.8 
		160.6,34.6 	"/>
	<path id="XMLID_279_" class="st0" d="M211.9,25.2l-0.8,19.3l11.3-3L211.9,25.2z M197.2,65.9l3.6-53.7l14.5-3.9L245.2,53l-13.3,3.6
		l-3.9-6l-17.3,4.6l-0.4,7.2"/>
	<path id="XMLID_276_" class="st0" d="M111.1,52.2l-0.8,19.3l11.3-3L111.1,52.2z M96.4,92.9l3.6-53.7l14.5-3.9L144.4,80l-13.3,3.6
		l-3.9-6l-17.3,4.6l-0.4,7.2"/>
	<polyline id="XMLID_275_" class="st0" points="157.7,23.8 122.5,33.2 125.4,44 136.3,41.1 146.5,79.4 160.4,75.7 150.1,37.4 
		160.6,34.6 	"/>
	<path id="XMLID_274_" class="st0" d="M96.4,92.9l1-13.4l-15.6,4.3L72,46.3L58,50l11.2,42.1c1,3.7,5.5,6.5,9.2,5.5L96.4,92.9z"/>
	<path id="XMLID_273_" class="st0" d="M106.4,28.5c-0.7-2.8,0.9-5.6,3.7-6.4c2.8-0.7,5.6,0.9,6.4,3.7c0.7,2.8-0.9,5.6-3.7,6.4
		C110,32.9,107.1,31.2,106.4,28.5"/>
</g>
</svg>
