<?xml version="1.0" encoding="utf-8"?>
<!-- Generator: Adobe Illustrator 22.0.1, SVG Export Plug-In . SVG Version: 6.00 Build 0)  -->
<svg version="1.1" id="Layer_1" xmlns="http://www.w3.org/2000/svg" xmlns:xlink="http://www.w3.org/1999/xlink" x="0px" y="0px"
	 viewBox="0 0 300 101.9" style="enable-background:new 0 0 300 101.9;" xml:space="preserve">
<style type="text/css">
	.st0{fill:#606060;}
</style>
<g>
	<path class="st0" d="M219.2,52.2c0,19.4-8.4,33.6-19.3,43.2c18.4-3.9,32.5-24.2,32.5-46.2c0-1.8,0-3.6-0.1-5.2l14.2-4.9
		c1.8-0.6,3-1.6,3-3.3c0-1.2,0-1.8,0-1.8c-7.7-0.1-35.6-1.1-35.6-1.1C216.5,37.2,219.2,44.2,219.2,52.2 M212.8,28.1
		c13.1,2,21.2,0.4,21.2,0.4s-1.9-6.9-7.3-6.9c-8.5,0-14.6-0.9-14.6-0.9c-18.2-2.8-23-9.2-23-9.2C190.3,18.6,201.1,26.3,212.8,28.1"
		/>
	<path class="st0" d="M53.3,80.9v-2.5c2.5-0.9,4.3-3.2,4.3-8.3V47.5h3.9v22.3C61.5,76.6,57.5,80.4,53.3,80.9"/>
	<path class="st0" d="M75.9,71.6c-6.1,0-9-2.7-9-7c0-6.3,5.9-8.1,13.2-8.9v-1.4c0-3.6-2.2-4.7-5.2-4.7c-2.3,0-4.4,0.8-5.7,1.5
		l-0.9-2.3c1.4-0.7,4-1.8,7.2-1.8c4.4,0,8.3,1.9,8.3,7.7v15.2C81.9,70.9,79.1,71.6,75.9,71.6 M80.1,57.7c-6,0.7-9.5,2-9.5,6.8
		c0,3.4,2.1,4.8,5.6,4.8c1.5,0,2.9-0.3,3.9-0.8V57.7z"/>
	<path class="st0" d="M103.3,71.1v-17c0-2.2-0.9-4.6-5-4.6c-2.2,0-3.2,0.3-4.5,0.8v20.8h-3.9V48.7c2.1-1,4.9-1.7,8.6-1.7
		c6.6,0,8.5,3.6,8.5,7v17.1H103.3z"/>
	<path class="st0" d="M118,71.5c-2.5,0-4.8-0.7-6.1-1.6l1.1-2.6c0.8,0.7,2.5,1.4,4.6,1.4c2.6,0,4.4-1.8,4.4-4.1
		c0-2.5-1.3-3.6-3.9-4.5c-4.6-1.7-5.5-4.2-5.5-6.6c0-3.5,2.8-6.5,7.1-6.5c2.4,0,4.3,0.8,5.5,1.6l-1,2.3c-0.7-0.5-2.1-1.3-4-1.3
		c-2.6,0-4,1.7-4,3.7c0,2.3,1.7,3.4,4,4.3c4.6,1.8,5.8,4.2,5.8,6.9C125.9,68.2,122.8,71.5,118,71.5"/>
	<path class="st0" d="M135.3,71.5c-2.5,0-4.8-0.7-6.1-1.6l1.1-2.6c0.8,0.7,2.5,1.4,4.6,1.4c2.6,0,4.4-1.8,4.4-4.1
		c0-2.5-1.3-3.6-3.9-4.5c-4.6-1.7-5.5-4.2-5.5-6.6c0-3.5,2.8-6.5,7.1-6.5c2.4,0,4.3,0.8,5.5,1.6l-1,2.3c-0.7-0.5-2.1-1.3-4-1.3
		c-2.6,0-4,1.7-4,3.7c0,2.3,1.7,3.4,4,4.3c4.6,1.8,5.8,4.2,5.8,6.9C143.2,68.2,140.1,71.5,135.3,71.5"/>
	<path class="st0" d="M151.1,60.8c0.4,5.4,2.9,8,7.2,8c2.7,0,4.6-0.7,5.8-1.4l1,2.5c-1.4,0.9-4,1.6-7.2,1.6
		c-6.2,0-10.5-3.9-10.5-12.3c0-8,4-12.2,9.5-12.2c5.7,0,9.1,3.7,9,11.6L151.1,60.8z M156.9,49.5c-3.4,0-6,2.8-5.9,9.2l11.3-1.7
		C162.3,51.6,160.2,49.5,156.9,49.5"/>
	<path class="st0" d="M184.6,71.1v-17c0-2.2-0.9-4.6-5-4.6c-2.2,0-3.2,0.3-4.5,0.8v20.8h-3.9V48.7c2.1-1,4.9-1.7,8.6-1.7
		c6.6,0,8.5,3.6,8.5,7v17.1H184.6z"/>
</g>
</svg>
