<?xml version="1.0" encoding="utf-8"?>
<!-- Generator: Adobe Illustrator 22.0.1, SVG Export Plug-In . SVG Version: 6.00 Build 0)  -->
<svg version="1.1" id="Layer_1" xmlns="http://www.w3.org/2000/svg" xmlns:xlink="http://www.w3.org/1999/xlink" x="0px" y="0px"
	 viewBox="0 0 200 200" style="enable-background:new 0 0 200 200;" xml:space="preserve">
<path style="fill:#2D50A7;" d="M191,90.5h-36.7c-5,0-9,4-9,9s4,9,9,9H191c5,0,9-4,9-9S196,90.5,191,90.5z"/>
<path style="opacity:0.45;fill:#2D50A7;enable-background:new    ;" d="M45.7,90.5H9c-5,0-9,4-9,9s4,9,9,9h36.7c5,0,9-4,9-9
	S50.7,90.5,45.7,90.5z"/>
<path style="opacity:0.8;fill:#2D50A7;enable-background:new    ;" d="M157.7,29l-25.9,25.9c-3.5,3.5-3.5,9.2,0,12.7
	c1.8,1.8,4.1,2.6,6.4,2.6c2.3,0,4.6-0.9,6.4-2.6l25.9-25.9c3.5-3.5,3.5-9.2,0-12.7C166.9,25.5,161.2,25.5,157.7,29z"/>
<path style="opacity:0.2;fill:#2D50A7;enable-background:new    ;" d="M100,153.5c-5,0-9,4-9,9v18c0,5,4,9,9,9s9-4,9-9v-18
	C109,157.5,105,153.5,100,153.5z"/>
<path style="opacity:0.35;fill:#2D50A7;enable-background:new    ;" d="M54.8,131.8l-25.6,25.9c-3.5,3.5-3.5,9.2,0,12.7
	c1.8,1.8,4.1,2.6,6.4,2.6s4.6-0.9,6.4-2.6l25.6-25.9c3.5-3.5,3.5-9.2,0-12.7C64,128.2,58.3,128.2,54.8,131.8z"/>
<path style="opacity:0.7;fill:#2D50A7;enable-background:new    ;" d="M100,0c-5,0-9,4-9,9v36.7c0,5,4,9,9,9s9-4,9-9V9
	C109,4,105,0,100,0z"/>
<path style="opacity:0.6;fill:#2D50A7;enable-background:new    ;" d="M42.2,29.1c-3.5-3.5-9.2-3.5-12.7,0s-3.5,9.2,0,12.7
	l25.9,25.9c1.8,1.8,4.1,2.6,6.4,2.6s4.6-0.9,6.4-2.6c3.5-3.5,3.5-9.2,0-12.7L42.2,29.1z"/>
</svg>
