<svg version="1.1" id="Layer_1" xmlns="http://www.w3.org/2000/svg" xmlns:xlink="http://www.w3.org/1999/xlink" x="0px" y="0px"
	 viewBox="0 0 214.7 101.9" style="enable-background:new 0 0 214.7 101.9;" xml:space="preserve">
		<path opacity="0.87" d="M130.2,87.1c-1.4,0-2.3,0.2-3,0.4c-0.9,0.2-1.2,0.6-1.2,1.1v12c0,0.4,0.2,0.5,0.5,0.5h1.3c0.3,0,0.5,0,0.5-0.5v-11
			c0-0.7,0.6-1.2,1.3-1.2c1.7,0,2,1.2,2.9,1.2c0.6,0,1.1-0.4,1.1-1.2C133.6,87.6,132,87.1,130.2,87.1z M121.7,88.1
			c-1-0.7-2.2-1-3.4-1c-1.2,0-2.5,0.3-3.4,1c-1.5,1-2.5,3.1-2.5,6.2s1,5.2,2.5,6.2c0.9,0.7,2.2,1,3.4,1c1.2,0,2.5-0.3,3.4-1
			c1.5-1,2.5-3.1,2.5-6.2S123.2,89.1,121.7,88.1z M120.5,99.1c-0.7,0.7-1.4,0.9-2.3,0.9s-1.6-0.2-2.3-0.9c-0.7-0.7-1.2-2.3-1.2-4.8
			s0.5-4.1,1.2-4.8c0.7-0.7,1.4-0.9,2.3-0.9s1.6,0.2,2.3,0.9c0.7,0.7,1.2,2.3,1.2,4.8C121.8,96.8,121.3,98.4,120.5,99.1z
			 M104.9,87.1c-2,0-3.4,0.4-4.1,0.6c-0.9,0.3-1.2,0.6-1.2,1.1v11.8c0,0.4,0.1,0.5,0.5,0.5h1.3c0.4,0,0.6-0.1,0.6-0.5V89.8
			c0-0.6,1-1.2,2.9-1.2c3.1,0,3.1,2,3.1,3.2v8.8c0,0.5,0.2,0.5,0.6,0.5h1.5c0.3-0.1,0.3-0.3,0.3-0.5v-9.1
			C110.2,89.9,110.2,87.1,104.9,87.1z M86.6,23.9c5.9,0,10.7-4.8,10.7-10.7S92.5,2.5,86.6,2.5c-5.9,0-10.7,4.8-10.7,10.7
			S80.7,23.9,86.6,23.9z M87,4.8c4,0,7.2,3.2,7.2,7.2S91,19.1,87,19.1s-7.2-3.2-7.2-7.2S83,4.8,87,4.8z M89.3,88.1
			c-1-0.7-2.2-1-3.4-1c-1.2,0-2.5,0.3-3.4,1c-1.5,1-2.5,3.1-2.5,6.2s1,5.2,2.5,6.2c0.9,0.7,2.2,1,3.4,1c1.2,0,2.5-0.3,3.4-1
			c1.5-1,2.5-3.1,2.5-6.2C91.9,91.2,90.9,89.1,89.3,88.1z M88.2,99.1c-0.7,0.7-1.4,0.9-2.3,0.9s-1.6-0.2-2.3-0.9
			c-0.7-0.7-1.2-2.3-1.2-4.8s0.5-4.1,1.2-4.8c0.7-0.7,1.4-0.9,2.3-0.9s1.6,0.2,2.3,0.9c0.7,0.7,1.2,2.3,1.2,4.8
			C89.4,96.8,88.9,98.4,88.2,99.1z M48.4,87.1c-2,0-3.4,0.4-4.1,0.6c-0.9,0.3-1.2,0.6-1.2,1.1v11.8c0,0.4,0.1,0.5,0.5,0.5h1.3
			c0.4,0,0.6-0.1,0.6-0.5V89.8c0-0.6,1-1.2,2.8-1.2c3.1,0,3.1,2,3.1,3.2v8.8c0,0.5,0.2,0.5,0.6,0.5h1.5c0.3-0.1,0.3-0.3,0.3-0.5
			v-9.1C53.8,89.9,53.7,87.1,48.4,87.1z M79.4,87.4H78c-0.2,0-0.2,0.1-0.3,0.4l-3.4,10.1l-3.6-10c-0.1-0.4-0.2-0.4-0.6-0.4h-1.6
			c-0.1,0-0.4,0-0.4,0.3c0,0.1,0,0.2,0.1,0.4l4.8,12.6c0.1,0.3,0.2,0.4,0.4,0.4h1c0.3,0,0.4,0,0.5-0.4l4.6-12.6
			c0.1-0.3,0.1-0.4,0.1-0.4C79.7,87.4,79.5,87.4,79.4,87.4z M65.2,88.1c-1-0.7-2.2-1-3.4-1s-2.5,0.3-3.4,1c-1.5,1-2.5,3.1-2.5,6.2
			s1,5.2,2.5,6.2c1,0.7,2.2,1,3.4,1s2.5-0.3,3.4-1c1.5-1,2.5-3.1,2.5-6.2S66.7,89.1,65.2,88.1z M64.1,99.1c-0.7,0.7-1.4,0.9-2.3,0.9
			c-0.9,0-1.6-0.2-2.3-0.9c-0.7-0.7-1.2-2.3-1.2-4.8s0.5-4.1,1.2-4.8c0.7-0.7,1.4-0.9,2.3-0.9c0.9,0,1.6,0.2,2.3,0.9
			c0.7,0.7,1.2,2.3,1.2,4.8C65.3,96.8,64.8,98.4,64.1,99.1z M179.9,76.7L179.9,76.7c1.4-0.1,1.9-1.2,1.9-1.9c0-0.6-0.3-1-0.7-1.4
			c-0.6-0.5-1.5-0.5-2.3-0.5h-2.4v6.8h1.1v-2.9h0.7c0.9,0,1.2,0.3,2,1.8l0.6,1.1h1.3l-0.8-1.3C180.6,77,180.3,76.8,179.9,76.7z
			 M179,75.9h-1.3v-2.1h1.3c0.7,0,1.7,0,1.7,1C180.7,75.9,179.5,75.9,179,75.9z M144.7,82.6h-1.3c-0.4,0-0.5,0.2-0.5,0.6V88
			c-0.8-0.4-1.6-0.7-2.9-0.7c-4.1,0-6.2,3.9-6.2,7.1c0,4.8,2.7,7.2,6.7,7.2c2,0,4.7-1,4.7-1.8V83.1
			C145.2,82.6,145.1,82.6,144.7,82.6z M142.9,98.9c0,0.7-1.1,1.1-2.3,1.1c-2.6,0-4.4-2.1-4.4-5.8c0-3.2,1.7-5.3,4.2-5.3
			c1.4,0,2,0.4,2.5,0.8V98.9z M134.8,80.4c0-0.3,0-0.8,1-0.8c0.6,0,1.3,0,1.5,0c0.3,0,2.2,0,2.9,0c0.7-0.1,0.8-0.8,0.8-1.8
			c0-1.4,0.1-17.7,0-19.7c-0.1-2.8,0.4-15-1.8-18.9c-2.6-4.7-7.8-4.2-10.2-4c-3.2,0.3-8.8,1.1-15,1.1c-8.6,0-17.6-3.1-18.9-3.5
			c-2.3-0.7-4.9-1.7-6-2.2c-1.3-0.6-0.6-0.9-0.1-1.1c2.8-1.4,5.1-2.8,6.5-5.2c1.1-1.8,0.7-2.4-0.5-1.4c-0.3,0.2-0.7,0.6-1.4,1
			c-2,1.5-5.7,3.1-11.2,1.6c-5.9-1.6-7.9-7.1-8.4-8.4s-1.1-1.4-1.1,0.5c0,4.7,2.1,7.5,2.8,8.4c0.7,0.8,1,1.6,0.6,2.1
			c-0.8,1-1.9,2.3-2.2,3.1c-0.1,0.3,0,0.8-0.1,1c-0.1,1-1.2,2.1-2.5,3.7c-0.7,0.9-0.3,1.9,0.3,2.6c0.7,0.8,1.5,1.9,1.9,2.1
			c1.1,0.6,2,0.2,2.9,0.5c1,0.3,2.5,0.7,3.5,2.6c1.5,2.7,3.1,6.8,6,10.3c1.3,1.5,1.3,4.3,1.3,5.3c0.1,8.1-4.2,15.6-6.9,20.4
			c-0.6,1.2-0.5,2.1,0.4,2.1c1,0,2.1,0,4.3,0c1.8,0,1-1,1.4-1.7c0.3-0.5,1.3,0.1,1.4-1.5c0-0.3,0-0.5,0.2-1.6
			c0.9-6.6,4.1-16.4,6.1-17.6c2.9,1.9,6.5,5.1,7.5,11.6c0.3,2,0.5,3.7,0.3,5.4c-0.2,1.8-0.4,2.7-0.5,3.2c-0.6,1.8-0.1,2.1,0.7,2.1
			c0,0,3.9,0,4.5,0c1.8,0,0.9-1.1,1.3-1.6c0.3-0.4,1-0.1,0.9-1.2c-1.1-5.7-4-10.6-5.3-16.3c-0.9-4,1.5-6.6,3.5-7.2
			c3.2-1,7.7,0.6,8.2,1c0.5,0.3,0.6,0.4,1,0.1c3.7-3,5.3-1.5,5.4-1.5c0.4,0.4,0.7,2.5,0.7,3c0.5,10-9.6,19.6-11.4,21.8
			c-0.8,1-0.3,1.9,0.4,1.9c0.7,0,4,0,4.7,0c1.7-0.1,0.8-1,1.2-1.6c0.3-0.3,0.8,0,1.1-0.8c1.4-3.6,4.1-10.5,9.9-15.2
			c0.5-0.4,1-1.4,1.4-3.7c0.2-0.9,0.4-1.5,0.6-2.3c3.3,4.2,3.7,11.8-1.9,21.8c-0.6,1-0.2,1.8,0.4,1.8c0.4,0,3.4,0,4.3,0
			C135,81.7,134.8,81,134.8,80.4z M136.5,48.2c0.3-3.3,0.2-5.2,0.2-5.5c0.1-0.8,0.6-0.7,1,0.4c1.2,3.4,0.7,16.8,0.7,17.1
			c0,0.4-0.5,0.7-0.8,0.3c-0.4-0.5-1.2-5.5-1.5-7.1C135.8,51.9,136.3,50.3,136.5,48.2z M126.9,37.3c0.9-0.2,1.7,0.1,2.1,0.6
			c1,1.2,1.4,3.4,1.2,4.7c-0.2,0.9-1.5,1.3-1.6,0.3c-0.2-1-0.9-3.2-2.1-4.6C125.8,37.6,126,37.4,126.9,37.3z M109.1,37.8
			c2.2,0.1,3.2,0.2,4.5,0.2c1.6,0,3.5-0.1,4.2-0.1c1.3-0.1,2.1,0.3,2.5,1.3s1.8,5-0.5,6.1c-3.1,1.4-7.5,1.6-9.7,1
			c-0.8-0.2-2.1-0.5-2.1-2.2c0-0.6,0-2.7-0.2-4.6C107.7,38.4,107.5,37.7,109.1,37.8z M99.4,37.6c-0.1-1,0.1-1.1,1.4-0.9
			c1.4,0.2,1.3,0.6,1.3,1.4c0.1,3.3-0.8,5.4-1.9,6c-0.6,0.3-1.4,0.2-1.4-0.5C98.9,43.1,99.7,40.7,99.4,37.6z M83.2,45
			c-1.6-2.6-2.1-3.3-3.4-4.3c-2.5-2-4.7-0.8-5.7-1.9c-1-1.3-1.8-1.6-0.8-2.8c0.7-0.9,1.2-1.7,1.6-2.1c0.5-0.6,0.4-1.8,0.6-2.3
			s1.2-2,2.6-3.1c1.3-1,3,0,6.5,2c1.9,1.1,3.8,2.1,4.7,2.6c1,0.6,0.3,1.6-0.3,2.5c-1.6,2.5-3.8,7.1-4.4,8.7
			C84.1,45.4,83.7,45.9,83.2,45z M130.3,54.9c-2.3-1.4-4.8-2.5-8.3-2.8c-7.4-0.7-11.6-0.2-13.7,0.6c-0.7,0.2-6.2,1.8-6.3,7.5
			c0,1.7-0.5,1.5-1.3,0.9C98,59,95.2,57,91.4,54.8c-1.8-1.1-3.4-2.6-3.9-3.6c-0.9-1.6-2.2-4.1-0.8-7.9c0.7-1.9,2.1-4.8,3.2-6.4
			c1.8-2.6,1.6-2.7,5.1-1.6c3.1,1,2.9,1.4,3,2.9c0.1,2-0.2,3.8-0.6,5.6c-0.2,1,0.4,2.1,1.6,2.1c4.9,0.1,5-6.6,5-6.6
			c0.1-1.6-0.5-1.9,1.1-1.7c1.2,0.1,1.4,1.1,1.5,2.9c0.1,0.7,0,3.2,0,3.9s0.1,2.5,2.5,3.2c4,1.1,9.5,0.2,11.7-1.1
			c1.3-0.8,2.2-1.7,2-3.6c-0.1-1.4-0.5-3.2-0.8-3.8c-0.3-0.7-0.2-1.2,0.4-1.3c3-0.4,4.3,2.7,5.3,6.5c0.3,1.2,2,1.1,2.9,0.3
			c0.8-0.8,1.3-2.1,0.7-4.5c-0.2-0.8-0.5-1.4-0.7-1.8c-0.2-0.4-0.3-0.7,0.5-0.7c5.4,0,4.1,10,4,10.9c-0.1,1.1-0.5,3.4-0.8,4.5
			C133.3,57.1,131,55.3,130.3,54.9z M150.2,87.4h-1.4c-0.5,0-0.5,0.2-0.5,0.5v12.7c0,0.4,0,0.5,0.4,0.5h1.4c0.4,0,0.5,0,0.5-0.5V88
			C150.7,87.5,150.6,87.4,150.2,87.4z M165.6,82.5h-1.4c-0.3,0-0.5,0.1-0.5,0.4v17.8c0,0.4,0.1,0.4,0.5,0.4h1.4c0.4,0,0.5,0,0.5-0.4
			V82.9C166.1,82.5,165.9,82.5,165.6,82.5z M149.6,82.3c-0.9,0-1.5,0.6-1.5,1.4c0,0.7,0.5,1.4,1.4,1.4s1.5-0.7,1.4-1.4
			C150.9,82.9,150.3,82.3,149.6,82.3z M77.4,32.6c1,1.7,3.1-1.2,2.9-1.7C80.2,30.4,76.4,30.8,77.4,32.6z M179.4,69.8
			c-3.5,0-6.4,2.8-6.4,6.4c0,3.5,2.8,6.4,6.4,6.4c3.5,0,6.3-2.9,6.3-6.4C185.7,72.7,182.8,69.8,179.4,69.8z M179.3,81.5
			c-2.9,0-5.3-2.4-5.3-5.3s2.4-5.3,5.3-5.3c2.9,0,5.3,2.4,5.3,5.3C184.7,79.1,182.3,81.5,179.3,81.5z M155.4,90.7c0-1,0.8-2,2.3-2
			s1.9,1,2.7,1c0.4,0,1-0.2,1-0.9c0-1-1.7-1.6-3.5-1.6c-2.4,0-4.5,1.3-4.5,3.8c0,2.3,1.6,3.2,3.5,4.1c1.5,0.6,3,1.2,3,2.7
			c0,1.1-0.9,2.3-2.7,2.3c-1.9,0-2.4-1.4-3.3-1.4c-0.5,0-1,0.2-1,0.9c0,1.1,2.1,2,4.3,2c2.4,0,4.9-1.3,4.9-4.1
			C161.9,93,155.4,93.7,155.4,90.7z M168.9,93.9L168.9,93.9c1.7-1.3,3.6-3.4,4.7-5.6c0.1-0.3,0.2-0.4,0.2-0.5c0-0.2-0.1-0.3-0.5-0.3
			h-1.2c-0.5,0-0.7,0-0.8,0.4c-0.7,2.3-2.7,4.7-4.7,5.9c-0.1,0.1-0.1,0.1-0.1,0.2s0,0.1,0.1,0.1l4.7,6.7c0.3,0.4,0.4,0.4,0.8,0.4
			h1.8c0.1,0,0.3,0,0.3-0.3c0-0.1-0.1-0.2-0.2-0.3L168.9,93.9z"/>
</svg>
