<?xml version="1.0" encoding="utf-8"?>
<!-- Generator: Adobe Illustrator 22.0.1, SVG Export Plug-In . SVG Version: 6.00 Build 0)  -->
<svg version="1.1" id="Layer_1" xmlns="http://www.w3.org/2000/svg" xmlns:xlink="http://www.w3.org/1999/xlink" x="0px" y="0px"
	 viewBox="0 0 300 101.9" style="enable-background:new 0 0 300 101.9;" xml:space="preserve">
<style type="text/css">
	.st0{fill:#606060;}
</style>
<g>
	<g>
		<path class="st0" d="M151.1,25.9c5.1-1,15.2,12.6,0.2,17.4C133.5,49,146.6,26.7,151.1,25.9z M170.3,12.5c-1.1,1.4-3.2,3.3-4.9,3.7
			c7.8-9.3-3.3-15.7-10.1-15.5c-2,0.1-3.7,0.8-4.1,2.8c-1,5.1,3.5,11,1.9,18.6c-1,5.2,16.2,10.2,19.3-1.3
			C173,18.8,172.8,14.5,170.3,12.5z M128.1,35.2c10.7,7.7,18.6-6.7,17.3-8.2c-2.8-3.4-0.9-8.7,5-7.9c3.1,0.4-0.9-17-10.5-17
			c-8.9,0-21.8,16-6.1,21.2c-3.2,0.1-7.4-0.2-9.8-1.3C122.1,24.2,123.3,31.6,128.1,35.2z"/>
		<g>
			<path class="st0" d="M212.2,29.1c0.2,0,0.4,0,0.4,0c0.1,0,0.1-0.1,0.1-0.2v-1.5h0.3c0.2,0,0.4,0.1,0.5,0.2
				c0.1,0.1,0.2,0.3,0.3,0.6l0.2,0.7c0,0.1,0,0.1,0.1,0.1c0,0,0.1,0.1,0.1,0.1c0,0,0.1,0,0.2,0c0.1,0,0.2,0,0.3,0c0.1,0,0.2,0,0.3,0
				c0.1,0,0.1,0,0.2,0c0,0,0.1,0,0.1-0.1c0,0,0-0.1,0-0.1c0,0,0-0.1-0.1-0.3l-0.3-0.7c-0.1-0.3-0.2-0.5-0.4-0.6
				c-0.2-0.1-0.3-0.2-0.5-0.3c0.3-0.1,0.6-0.2,0.8-0.4c0.2-0.2,0.3-0.5,0.3-0.8c0-0.2,0-0.4-0.1-0.6c-0.1-0.2-0.2-0.3-0.3-0.4
				c-0.2-0.1-0.3-0.2-0.6-0.2c-0.2-0.1-0.5-0.1-0.8-0.1h-1.2c-0.2,0-0.3,0-0.4,0.1c-0.1,0.1-0.1,0.2-0.1,0.4v3.9
				c0,0.1,0,0.1,0.1,0.2C211.8,29.1,212,29.1,212.2,29.1z M212.7,25.4h0.5c0.2,0,0.3,0,0.4,0c0.1,0,0.2,0.1,0.2,0.1
				c0.1,0.1,0.1,0.1,0.1,0.2c0,0.1,0,0.1,0,0.2c0,0.2-0.1,0.3-0.2,0.5c-0.1,0.1-0.3,0.2-0.6,0.2h-0.5V25.4z"/>
			<path class="st0" d="M175.6,23c-0.3,0.9-0.7,1.7-1.2,2.4c10.7,2.5,21.7,6.6,29.8,12.4c0.4,0.3,0,0.8-0.3,0.6
				c-9.3-4.8-20.4-8.1-32.4-9.8c-1.2,0.9-2.6,1.7-4.1,2.2c31.4,3.9,50.1,18.8,50,32.2c-0.1,13.6-18.2,26.6-54.8,26.6
				c-15.3,0-34.6-2.9-50.1-9.1c-0.7-0.3-1,0.7-0.4,1c16.9,9,47.6,15.4,79.2,9.2c0.5-0.1,0.6,0.3,0.2,0.5c-10.5,4.2-25,6.7-40,6.7
				c-36.3,0-65.8-15.2-65.8-34c0-13.2,14.6-24.7,36-30.3c-0.6-1-1-1.9-1.4-2.9c-25.2,5.8-42.7,18.5-42.7,33.2
				c0,20.7,33.1,37.4,73.9,37.4c40.9,0,74.1-17.1,74.1-38.3C225.7,44.5,204.8,28.7,175.6,23z"/>
			<path class="st0" d="M213.3,31.1c2.3,0,4.2-1.9,4.2-4.2c0-2.3-1.9-4.2-4.2-4.2c-2.3,0-4.2,1.9-4.2,4.2
				C209.1,29.3,211,31.1,213.3,31.1z M213.3,23.6c1.8,0,3.2,1.5,3.2,3.4c0,1.9-1.5,3.4-3.2,3.4c-1.8,0-3.2-1.5-3.2-3.4
				C210.1,25.1,211.5,23.6,213.3,23.6z"/>
		</g>
	</g>
	<path class="st0" d="M134.8,75.3c-2.7-4.7-5.4-16.9-8.1-32.7c-0.2-1.2-0.4-1.5-1.4-1.5c-1.3,0-4.8,0.4-6.2,0.9
		c-1,2.6-2.4,5-7.1,12.1c-11.9,18.1-12.5,22.9-2,21.3c-0.3-1.6-0.1-4.1,1.8-7.8c0,0,2.5-1.4,12.2-1.5
		C125.8,76.2,127.2,76.3,134.8,75.3z M114.3,61.9c2.2-4.3,5.5-9.1,7.2-12.6c0.3,3.2,1.7,11.9,1.7,11.9
		C119.3,61,116.2,61.5,114.3,61.9z M155.6,50.6c-3,0-6.9,2.9-9.3,7.8c0.3-2.2,0.5-4.9,0.2-6.4c-0.1-0.5-0.4-0.9-1.8-0.8
		c-1.6,0.1-3.8,0.8-5,1.5c0,0,1.1,2.9-1.3,17.8c-0.7,4.5,2.4,5.8,7.5,5c-2-2.9,1.7-20.9,10-17.2C159.2,53.1,158.3,50.6,155.6,50.6z
		 M167.8,60.3c2.3-11.8,2.9-18.3,2.9-20.3c0-0.6-0.3-1.5-2.1-1.5c-2.5,0-4.1,0.6-5.5,1.3c0.2,0.7,0.8,5.7-3.6,26.2
		c-1.9,8.7-0.2,10.7,7.2,9.4C166,73.4,166,69.4,167.8,60.3z M197.4,55.3c0.4-2.2-0.2-3.2-2.2-3.7c-13-3.7-22.9,4.6-22.9,15.9
		c0,4.3,2.1,8.3,6.8,8.3c3.7,0,7.1-2.6,9.5-5.5c0,0-0.1,1.9,0.1,3.2c0.4,2,2.4,3,7.1,1.5C195.2,72.2,195.6,65.2,197.4,55.3z
		 M190.7,55.9c-0.7,7.2-3.5,14.4-8,14.4c-1.8,0-3.2-1.4-3.2-3.8C179.5,60.2,184.4,53.9,190.7,55.9z"/>
</g>
</svg>
