<?xml version="1.0" encoding="utf-8"?>
<!-- Generator: Adobe Illustrator 21.1.0, SVG Export Plug-In . SVG Version: 6.00 Build 0)  -->
<svg version="1.1" id="Layer_1" xmlns="http://www.w3.org/2000/svg" xmlns:xlink="http://www.w3.org/1999/xlink" x="0px" y="0px"
	 viewBox="0 0 300 101.9" style="enable-background:new 0 0 300 101.9;" xml:space="preserve">
<style type="text/css">
	.st0{fill-rule:evenodd;clip-rule:evenodd;}
</style>
<g>
	<g>
		<path class="st0" d="M50.5,52.3H36.6v9.8c0,4.7,4.6,4.9,5.1,4.9v0.7H20v-0.7c0.5,0,5.2-0.3,5.2-4.9V32.7c0-4.7-4.6-4.9-5.2-4.9V27
			h30.5c9.7,0,14.3,6.3,14.3,12.7C64.8,46,60.2,52.3,50.5,52.3 M45.1,29.8h-8.5v19.8h8.5c6.3,0,9.2-4.6,9.2-9.9
			C54.3,34.5,51.3,29.8,45.1,29.8 M105.5,67.8l-19-15.4v9.8c0,4.7,4.6,4.9,5.2,4.9v0.7H70v-0.7c0.5,0,5.2-0.3,5.2-4.9V32.7
			c0-4.7-4.6-4.9-5.2-4.9V27h30.6c9.7,0,14.3,6.3,14.3,12.7c0,6.3-4.6,12.6-14.3,12.6H91c2.1,2.2,6.4,3.1,10.4,3.1
			c1.8,0,3.5-0.2,5-0.6l15.5,12.4v0.6H105.5z M95.1,29.8h-8.5v19.8h8.5c6.2,0,9.2-4.6,9.2-9.9C104.3,34.5,101.3,29.8,95.1,29.8
			 M155.6,67.8v-0.7c2.1,0,3.1-0.6,3.1-2c0-0.6-0.3-1.5-0.7-2.3l-3.9-6.9h-16.9l-3,6.1c-0.4,0.8-0.7,1.8-0.7,2.8
			c0,1.5,0.7,2.4,2.5,2.4v0.7h-10.5v-0.7c2.5,0,4-1.7,5.6-4.7l12.6-25.2l-3.5-5.8c-1.8-3-3.7-3.6-5.6-3.6V27h16.5l20.3,35.7
			c1.2,2.2,2.6,4.3,5.4,4.3v0.7H155.6z M145.1,40l-6.7,13h14.1L145.1,40z M204.9,67.8h-24v-0.7c0.5,0,5.1-0.3,5.1-4.9V32.7
			c0-4.7-4.6-4.9-5.1-4.9V27h24c10.8,0,22,6.9,22,20.4C226.9,60.9,215.7,67.8,204.9,67.8 M213.1,39.9c0-7.4-4.7-10.1-9.9-10.1h-5.6
			V65h5.6c5.2,0,9.9-2.8,9.9-10.1V39.9z M258,67.8v-0.7c2.2,0,3.1-0.6,3.1-2c0-0.6-0.3-1.5-0.7-2.3l-3.9-6.9h-16.9l-3,6.1
			c-0.4,0.8-0.7,1.8-0.7,2.8c0,1.5,0.7,2.4,2.5,2.4v0.7h-10.5v-0.7c2.5,0,4-1.7,5.5-4.7l12.6-25.2l-3.5-5.8c-1.8-3-3.7-3.6-5.6-3.6
			V27h16.5l20.4,35.7c1.2,2.2,2.6,4.3,5.4,4.3v0.7H258z M247.5,40l-6.6,13h14.1L247.5,40z"/>
	</g>
</g>
</svg>
