<?xml version="1.0" encoding="utf-8"?>
<!-- Generator: Adobe Illustrator 22.0.1, SVG Export Plug-In . SVG Version: 6.00 Build 0)  -->
<svg version="1.1" id="Layer_1" xmlns="http://www.w3.org/2000/svg" xmlns:xlink="http://www.w3.org/1999/xlink" x="0px" y="0px"
	 viewBox="0 0 300 101.9" style="enable-background:new 0 0 300 101.9;" xml:space="preserve">
<g>
	<path d="M87.6,60.2c-29.7-7-10.8-47.8,36.5-35.1c9.6-6.2,20.7-7,23.4-3.5c2.6,3.6-0.7,18.2-41.2,36.3c-4.1,6.4-4.8,16.1,1.5,21.1
		c9.5,7.4,35.5-14.4,29.3-26.3c-3.1-6.1-19.1,3-21.9,13.4c-3.2-12.6,15.3-23.2,22.4-16.8c11,9.8-13.9,40.3-32.6,33.6
		c-10.4-3.7-11.1-14.4-10.2-22.4C92.3,60.5,90,60.5,87.6,60.2L87.6,60.2z M112.6,26.3C99.3,26,75.4,38.8,80.1,51.5
		c1.8,5.1,9.5,8.2,15.3,7c3.9-18.2,23.8-30.4,25.1-31.2C121.6,26.6,114.3,26.3,112.6,26.3L112.6,26.3z M108.1,54.9
		c14.7-5.7,42.1-28.5,38.3-32c-2.5-2.2-13.4,3.9-14.8,5.8c1.8,1.4,2.6,2,4.1,5.1c-2.3-2-3.6-2.9-5.9-3.8
		C124.5,33.9,111.7,47,108.1,54.9L108.1,54.9z"/>
	<path d="M200.9,40.2l7.1-11h8.6l-7,11h30.6l-1.8,3h-30.6c-5.4,8.6-10.1,15.1-15.1,24c-10.2,18.1,18,2.9,20.1-12.1
		c2.8,15.6-37.8,39.1-29,13.1c-1.4,1.7-9.2,8.7-11.8,10c-6.2,3.1-13.9,0.9-5.9-13.2c-0.8,0.8-4.2,1.1-4.6,1.6
		c-9.9,13.4-18.7,14-22.4,10.8c-10.7-9.2,15.3-36.7,24.7-27.7c2.3,2.2,3,7-0.5,14c5.1,0,11.4-12,17-20.4h-29.2l1.8-3H182
		c2.4-3.9,4.8-7.1,7.3-11h8.2l-7.2,11L200.9,40.2L200.9,40.2z M144.8,75.8c3.5,3,13.5-7.5,14.1-9.5c-5.1-2.9,1.3-12.6,4.4-8.3
		c0.4-2.2,0.9-4.2-1.2-4.9C156.5,51.2,139.3,71.3,144.8,75.8L144.8,75.8z M188.6,42.9c-2.8,4.2-14.2,21.5-16.7,26.3
		c-1.4,2.6-0.4,6.7,4.8,2.6c10.5-8.4,15.8-17.8,22.9-28.9L188.6,42.9L188.6,42.9z"/>
</g>
</svg>
