<?xml version="1.0" encoding="utf-8"?>
<!-- Generator: Adobe Illustrator 22.0.1, SVG Export Plug-In . SVG Version: 6.00 Build 0)  -->
<svg version="1.1" id="Layer_1" xmlns="http://www.w3.org/2000/svg" xmlns:xlink="http://www.w3.org/1999/xlink" x="0px" y="0px"
	 viewBox="0 0 300 101.9" style="enable-background:new 0 0 300 101.9;" xml:space="preserve">
<style type="text/css">
	.st0{fill:#606060;}
</style>
<g>
	<path class="st0" d="M209.1,65.9c-7.6-2.7-17.4-13.4-19-15.2c0.5,1.7,4.8,16.2,3.1,24.3c-0.5,2.5-1.6,4.6-3.2,6.5
		c3.9,4.7,10.6,8,17.2,11.4c9.2,4.9,10.4,5.3,10.4,5.3s0.2-1.2,0.5-11.6c0.2-7.3,0.7-14.6-1.3-20.3
		C214.2,66.8,211.6,66.8,209.1,65.9z"/>
	<path class="st0" d="M218,15.4c-0.3-10.4-0.5-11.6-0.5-11.6s-1.2,0.4-10.4,5.3c-6.6,3.4-13.3,6.7-17.2,11.4c1.6,1.9,2.7,4,3.2,6.4
		c0,0.2,0.1,0.5,0.1,0.7c0,0,0.8-2,4.4-3.2c1.9-0.6,3.9-0.8,6.4-0.6c1.6,0.1,3.1,0.5,4.7,1.2c2.2,1,3.6,2.9,3.9,5.4
		c0.1,0.6,0.1,1.2,0.1,1.9c0,1.3,0,1.7,0,3h0.1c1.3-0.1,2.6,0,3.9,0.2C218.7,29.9,218.2,22.7,218,15.4z"/>
	<path class="st0" d="M194.4,34.4h-0.7c-0.2,0-0.3,0-0.4,0c0,0.3-0.1,0.7-0.1,1C193.2,35.4,193.2,35.2,194.4,34.4z"/>
	<path class="st0" d="M234.9,44.6c-6.2-3.9-12.3-8-18.2-9.1c-0.8,2.3-2.1,4.4-3.9,6.1c0,0.1,0,0.1,0,0.2c0,0.5,0,1.1,0.1,1.6
		c0.2-0.5,0.5-0.9,0.8-1.3c0.7-0.7,1.7-1.1,2.7-1.1c1.1,0,2,0.4,2.8,1.1c0.7,0.7,1.1,1.7,1.1,2.7s-0.4,2-1.1,2.7
		c-0.7,0.7-1.7,1.1-2.7,1.1c0,0,0,0-0.1,0c-1.1,0-2.1-0.5-2.8-1.2c-0.3,0.5-0.8,0.8-1.4,0.8h-2.3c-1.1,0-2.1,0-3.2,0
		c-0.8,0-1.5-0.4-1.9-1c-1.7,1.1-3.5,1.7-5.4,1.7c-1.3,0-1.3-0.1-1.3-0.1l-8.1,1.9c1.9,0.4,16.2,4,22.4,9.3c2,1.7,3.4,3.9,4.3,6.3
		c5.9-1.1,11.9-5.2,18-9c8.8-5.5,9.8-6.3,9.8-6.3C244.7,51,243.7,50.2,234.9,44.6z"/>
	<path class="st0" d="M172.7,9c-9.2-4.8-10.4-5.3-10.4-5.3s-0.2,1.2-0.5,11.6c-0.1,3-0.2,6.1-0.2,9c0.1,0,0.2,0,0.2,0h5.2
		c1,0,1.7,0.8,1.7,1.7v9.4c0,0,0.1,0,0.1,0c0.3,0,0.5,0,0.7,0.1V26c0-1,0.8-1.7,1.7-1.7h5.5c1,0,1.7,0.8,1.7,1.7v3.8
		c0,3,0,5.9,0,8.9c0,0.4,0,0.9,0.1,1.3c0.1,0.6,0.3,0.8,0.9,0.9c0.7,0.1,1.2,0.1,1.7-0.1c0.5-0.2,1.1-0.6,1.3-1.9
		c0.1-0.6,0.1-1.3,0.1-2.1c0-2.5,0-5,0-7.5v-3.2c0-1,0.8-1.7,1.7-1.7h3.3c0.6-1.4,1.4-2.7,2.4-3.9C186,15.7,179.3,12.5,172.7,9z"/>
	<path class="st0" d="M190.1,50.7c-2.1,2.3-11.9,12.3-19.3,14.9c-2.5,0.9-5,0.9-7.5,0.5c-2.2,5.7-1.7,13.1-1.4,20.5
		c0.3,10.4,0.5,11.6,0.5,11.6s1.2-0.4,10.4-5.3c6.6-3.4,13.3-6.7,17.2-11.4c-1.6-1.9-2.7-4-3.2-6.5
		C185.1,66.7,190.1,50.7,190.1,50.7z"/>
	<path class="st0" d="M167.5,60c5.9-5.1,22.5-9.2,22.6-9.3c-0.9-0.2-4.8-0.9-9.1-2.3c-0.7,0.2-1.4,0.3-2.2,0.3c-0.2,0-0.4,0-0.5,0
		c-1.1,0-2.4-0.1-3.7-0.6c-2-0.8-3.4-2.2-4.2-4.1c-0.5-0.3-1.1-0.7-1.6-0.9v11.5c0,1-0.8,1.7-1.7,1.7h-5.3c-1,0-1.7-0.8-1.7-1.7V48
		c-0.9,0.5-1.9,0.7-3.1,0.8c-1.8,0.2-3.3,0-4.7-0.6c-2.4-0.9-4.2-2.6-5.4-4.9c-0.2,0.1-0.4,0.3-0.6,0.4c0,0.1,0,0.2,0,0.3
		c0.6,0.5,1.2,1.3,1,2.7c-0.1,0.8-0.8,1.4-1.5,1.4c-0.1,0-0.2,0-0.4,0h-1.6c-1.2,0-2.4,0-3.6,0c-0.3,0-0.6,0-0.8-0.1
		c-3.6,2.3-4.1,2.7-4.1,2.7s1,0.8,9.8,6.3c6.2,3.9,12.3,8,18.2,9.1C164.2,63.7,165.5,61.7,167.5,60z"/>
	<path class="st0" d="M187.8,48.3c1,1,1.9,2.1,2.3,2.4c-0.1-0.5-0.6-1.5-0.9-2.4H187.8z"/>
	<path class="st0" d="M75.6,32.3c-0.6-0.4-1.1-0.7-1.7-1c0.2-0.1,0.5-0.3,0.7-0.4c1.4-0.8,2.2-2,2.5-3.5c0.2-1,0.3-2,0.1-3.1
		c-0.3-2-1.3-3.6-3-4.6s-3.5-1.3-5.3-1.3c-4.4,0-8.8,0-13.2,0c-0.1,0-0.2,0-0.4,0c0,9.3,0,18.6,0,27.9c0.2,0,0.4,0,0.3,0.1
		c3.7,0,7.3,0,11,0c1.5,0,3.1-0.1,4.6-0.3c2.1-0.3,3.8-1.2,5.1-2.9c1.6-2,2.1-4.3,1.7-6.8C77.8,34.7,77,33.3,75.6,32.3z M60.9,23.3
		c0.3,0,0.5,0,0.8,0c1.9,0,3.8,0,5.7,0c0.9,0,1.7,0.1,2.6,0.3c1,0.2,1.6,0.9,1.8,1.9c0.1,0.5,0.1,1.1,0,1.6
		c-0.2,1.3-1.1,1.8-2.3,2.1c-0.6,0.1-1.1,0.2-1.7,0.2c-2.2,0-4.4,0-6.6,0c-0.1,0-0.2,0-0.3,0C60.9,27.3,60.9,25.3,60.9,23.3z
		 M72.2,39c-0.4,1.5-1.5,2.2-3,2.4c-0.5,0.1-1,0.1-1.5,0.1c-2.1,0-4.2,0-6.3,0c-0.2,0-0.3,0-0.5,0c0-2.5,0-5,0.1-7.5
		c0.1,0,0.2,0,0.3,0c2.3,0,4.6,0,6.9,0c1,0,2.1,0.2,3,0.8c0.7,0.5,1.2,1.3,1.2,2.2C72.4,37.7,72.4,38.4,72.2,39z"/>
	<path class="st0" d="M152.9,46.4c1.3,0.4,2.6,0.5,3.9,0.4c2.1-0.1,3.7-1,4.8-2.8c0.1,0,0.1-0.1,0.2-0.2c0,3.6,0,7.1,0,10.6
		c1.8,0,3.5,0,5.3,0c0-9.6,0-19.1,0.1-28.7c-1.8,0-3.5,0-5.2,0c0,1,0,2,0,2.9c-0.1-0.1-0.2-0.2-0.3-0.3c-0.5-0.7-1-1.4-1.6-1.9
		c-1.7-1.4-3.7-1.5-5.8-1.1c-2.4,0.5-4,1.9-5.3,3.8c-1.1,1.7-1.6,3.5-1.8,5.5c-0.2,2.2-0.2,4.3,0.6,6.4
		C148.7,43.5,150.4,45.4,152.9,46.4z M153.3,32.6c0.6-1.7,2-2.7,3.8-2.7c2.1,0,3.4,0.8,4.2,2.6c0.5,1.1,0.7,2.2,0.7,3.8
		c-0.1,1-0.2,2.2-0.7,3.4c-0.7,1.8-2.2,2.7-4.1,2.6c-2.2-0.1-3.5-1.1-4.1-3.2C152.5,36.9,152.5,34.7,153.3,32.6z"/>
	<path class="st0" d="M138.9,44.3v0.1h0.5c0,0,0.1,0,0.1,0c0.1,0.5,0.2,1,0.3,1.5c0.1,0.3,0.2,0.4,0.5,0.4c1.7-0.1,3.4-0.1,5.1-0.1
		c0.1,0,0.2,0,0.3,0c0-0.4,0-0.7-0.4-1c-0.3-0.2-0.5-0.6-0.6-0.9c-0.2-0.5-0.2-1.1-0.2-1.6c0-3.5,0-7,0-10.5c0-0.6,0-1.2-0.1-1.8
		c-0.2-1.7-1-3.1-2.7-3.9c-3-1.4-6.1-1.6-9.3-0.9c-2.5,0.6-4.3,2-5,4.6c-0.2,0.6-0.3,1.4-0.4,2.1c1.8,0,3.5,0,5.2,0
		c0-0.1,0-0.3,0-0.3c0.3-1,0.8-1.9,1.9-2.2c1.2-0.4,2.5-0.3,3.7,0.1c0.9,0.3,1.3,0.9,1.3,1.8c0,0.7-0.4,1.4-1.2,1.6
		c-1,0.3-2.1,0.4-3.2,0.6c-1.4,0.2-2.8,0.3-4.1,0.8c-1.8,0.6-3.1,1.7-3.8,3.5c-0.4,1.2-0.5,2.5-0.3,3.8c0.2,1.4,0.8,2.5,1.9,3.4
		c1.7,1.4,3.7,1.7,5.8,1.4c1.8-0.3,3.2-1.1,4.5-2.3C138.8,44.4,138.9,44.4,138.9,44.3z M139.4,43.9
		C139.4,43.9,139.4,43.9,139.4,43.9C139.4,43.9,139.4,43.9,139.4,43.9C139.4,43.9,139.4,43.9,139.4,43.9z M135.8,42.8
		c-0.7,0.2-1.5,0.3-2.2,0.1c-1.6-0.3-2.1-1.5-1.9-3c0.2-1.2,1-1.9,2.2-2.2s2.4-0.5,3.6-0.8c0.5-0.1,1-0.4,1.6-0.6
		c0,1.3,0.1,2.5-0.2,3.6C138.5,41.5,137.3,42.3,135.8,42.8z"/>
	<path class="st0" d="M192.9,41.6c0.2,2.2,1.3,3.8,3.3,4.7c2.7,1.2,5.3,0.9,7.8-0.8c0.6-0.5,1.2-1,1.8-1.5c0.1,0.1,0.1,0.3,0.1,0.4
		c0.1,0.5,0.2,1.1,0.3,1.6c0.1,0.2,0.2,0.3,0.5,0.3c1.4,0,2.9,0,4.3,0c0.4,0,0.8,0,1.2,0c0.1-0.4,0.2-0.8-0.3-1
		c-0.4-0.2-0.7-0.6-0.7-1.1c0-0.9-0.1-1.8-0.1-2.7c0-3.2,0-6.3,0-9.5c0-0.6,0-1.1-0.1-1.7c-0.3-1.8-1.2-3.2-2.9-4
		c-1.3-0.6-2.7-1-4.1-1.1c-1.9-0.1-3.8-0.1-5.7,0.5c-3.3,1.1-4.6,3.8-4.7,6.6c0.1,0,0.1,0,0,0.1c1.6,0,3.1,0,4.7,0
		c0.3,0,0.4-0.1,0.4-0.3c0.3-1.5,1-2.3,2.4-2.5c1.1-0.2,2.2-0.1,3.2,0.2c0.6,0.2,1,0.5,1.2,1.1c0.4,1.1,0,2-1.1,2.4
		c-0.9,0.3-1.9,0.5-2.8,0.6c-1.5,0.2-3,0.3-4.4,0.8c-1.8,0.6-3.2,1.6-3.9,3.4C192.9,39.2,192.8,40.4,192.9,41.6z M198.3,40
		c0.1-1.1,0.8-1.9,1.8-2.2c0.9-0.3,1.8-0.5,2.8-0.7c0.9-0.1,1.8-0.3,2.6-0.8c0.1,0,0.1,0,0.2,0c0,1.4,0.1,2.7-0.3,4
		c-0.5,1.4-1.6,2.1-3,2.5c-0.9,0.3-1.7,0.3-2.6,0C198.6,42.3,198.2,41.3,198.3,40z"/>
	<path class="st0" d="M96.7,26.2c-1.7-0.9-3.5-1.2-5.5-1.3c-1,0.2-2,0.3-3.2,0.3c-1.8,0.4-3.4,1.3-4.6,2.7c-1.7,2-2.6,4.2-2.8,6.7
		c-0.2,2.6,0.2,5.2,1.5,7.5c1.2,2.2,3,3.8,5.5,4.4c2.1,0.6,4.1,0.6,6.2,0.2c2.6-0.5,4.6-1.7,6-4c2.2-3.6,2.4-7.5,1-11.4
		C100.1,29.1,98.8,27.3,96.7,26.2z M95.5,39.7c-0.9,2-2.7,2.9-4.8,2.7c-2.2-0.2-3.4-1.4-4-3.4c-0.7-2.2-0.7-4.5,0.1-6.8
		c0.8-1.9,2.5-2.8,4.6-2.7c2.6,0.2,3.9,1.9,4.4,4.1c0.2,0.8,0.2,1.6,0.3,2C96.1,37.3,96,38.6,95.5,39.7z"/>
	<path class="st0" d="M176.7,25.7c-1.9,0-3.7,0-5.5,0c0,0.1,0,0.3,0,0.4c0,3.8,0,7.6,0,11.4c0,1.4,0,2.8,0.3,4.2
		c0.4,2.1,1.5,3.7,3.6,4.5c1.2,0.5,2.4,0.5,3.6,0.5c2.3-0.1,4.2-1,5.6-3c0.1-0.1,0.2-0.1,0.3-0.3c0,1,0,1.9,0,2.8c1.8,0,3.5,0,5.2,0
		c0-6.8,0-13.7,0-20.5c-1.8,0-3.6,0-5.4,0c0,0.2,0,0.3,0,0.3c0,3.4,0,6.8,0,10.2c0,0.8-0.1,1.6-0.2,2.4c-0.2,1.5-0.9,2.7-2.4,3.3
		c-0.8,0.3-1.7,0.3-2.6,0.2c-1.3-0.2-2-0.9-2.3-2.2c-0.1-0.5-0.2-1.1-0.2-1.6c0-3.9,0-7.8,0-11.7C176.7,26.3,176.7,26,176.7,25.7z"
		/>
	<path class="st0" d="M121.6,27c-2.4-2-5.2-2.3-8.1-1.4c-1.4,0.4-2.3,1.4-3.1,2.6c-0.1,0.1-0.2,0.3-0.3,0.4H110c0-0.9,0-1.9,0-2.8
		c-1.7,0-3.4,0-5.1,0c0,6.8,0,13.6,0,20.5c1.7,0,3.5,0,5.2-0.1c0.1,0,0.2-0.2,0.2-0.3c0-0.3,0-0.6,0-0.9c0-3.3,0-6.6,0-9.9
		c0-0.7,0.1-1.5,0.2-2.2c0.2-1.1,0.8-2.1,1.8-2.8c1-0.6,2.1-0.7,3.2-0.5c1.2,0.2,2,1,2.3,2.2c0.1,0.5,0.2,0.9,0.2,1.4
		c0,4.2,0,8.3,0,12.5c0,0.2,0,0.3,0,0.5c1.9,0,3.7,0,5.5,0c0-0.2,0-0.3,0-0.5c0-4.4,0-8.9,0-13.3c0-0.8-0.1-1.5-0.2-2.2
		C123,29,122.6,27.8,121.6,27z"/>
	<path class="st0" d="M218.2,44.6c0-1-0.8-1.8-1.8-1.8s-1.8,0.8-1.8,1.8s0.8,1.8,1.8,1.8C217.5,46.4,218.2,45.6,218.2,44.6z
		 M215,44.6c0-0.8,0.6-1.4,1.4-1.4c0.8,0,1.4,0.6,1.4,1.4c0,0.8-0.6,1.4-1.4,1.4C215.6,46,215,45.4,215,44.6z"/>
	<path class="st0" d="M217.3,45.6l-0.5-0.9c0.4,0,0.6-0.2,0.6-0.6c0-0.5-0.3-0.6-0.8-0.6h-1v2h0.4v-0.9h0.3l0.4,0.9H217.3z
		 M216.1,44.5v-0.6h0.5c0.2,0,0.5,0,0.5,0.2c0,0.3-0.2,0.3-0.4,0.3H216.1z"/>
	<path class="st0" d="M221.6,94.4c-1,0-1.8,0.8-1.8,1.8s0.8,1.8,1.8,1.8c1.1,0,1.8-0.8,1.8-1.8S222.6,94.4,221.6,94.4z M221.6,97.6
		c-0.8,0-1.4-0.6-1.4-1.4c0-0.8,0.6-1.4,1.4-1.4c0.8,0,1.4,0.6,1.4,1.4C223,97,222.4,97.6,221.6,97.6z"/>
	<path class="st0" d="M221.8,95.1h-1v2h0.4v-0.9h0.3l0.4,0.9h0.5l-0.5-0.9c0.4,0,0.6-0.2,0.6-0.6C222.6,95.3,222.3,95.1,221.8,95.1z
		 M221.8,96h-0.5v-0.6h0.5c0.2,0,0.5,0,0.5,0.2C222.2,96,222,96,221.8,96z"/>
	<path class="st0" d="M193.6,47.1c-0.8-0.7-1.4-1.6-1.8-2.6c0,0,0,0,0,0c0,0,0-0.1,0-0.1c0-0.1-0.1-0.2-0.1-0.3c0-0.1,0-0.1,0-0.2
		V44v1.4v1.2c0,0.6-0.3,1.1-0.8,1.4c-0.4,1.4-0.7,2.3-0.8,2.7C190.5,50.3,191.8,48.9,193.6,47.1z"/>
</g>
</svg>
