<?xml version="1.0" encoding="utf-8"?>
<!-- Generator: Adobe Illustrator 22.0.1, SVG Export Plug-In . SVG Version: 6.00 Build 0)  -->
<svg version="1.1" id="Layer_1" xmlns="http://www.w3.org/2000/svg" xmlns:xlink="http://www.w3.org/1999/xlink" x="0px" y="0px"
	 viewBox="0 0 300 101.9" style="enable-background:new 0 0 300 101.9;" xml:space="preserve">
<style type="text/css">
	.st0{fill:#606060;}
</style>
<g>
	<path class="st0" d="M250.7,43.1c-1.5-1.5-3.6-2.3-6.2-2.3c-3.6,0-5.7,1.9-6.7,3.4c-0.8-1.3-3-3.4-6.6-3.4c-2.5,0-4.8,0.9-6.3,2.5
		c-2.3,2.3-2.4,4.7-2.4,7.5v10.1c0,1.6,1.2,2.5,2.3,2.5c1.1,0,2.2-0.9,2.2-2.5V50.4c0-2.1,0.4-3.3,1.3-4.3c0.8-0.8,1.8-1.2,3-1.2
		c3.8,0,4.3,3.2,4.3,6.1v9.9c0,1.6,1.2,2.5,2.3,2.5c1.3,0,2.2-1,2.2-2.5V51c0-4.1,1.4-6.1,4.5-6.1c1.5,0,2.6,0.7,3,1.2
		c0.7,0.7,1.3,1.7,1.3,4.4v10.5c0,1.6,1.1,2.5,2.2,2.5c1.1,0,2.2-0.8,2.2-2.5V50.8C253.2,48,253,45.4,250.7,43.1"/>
	<path class="st0" d="M181,44.9c2.1,0,3.1,0.6,4.1,1.2c0.7,0.4,1.3,0.8,2.2,0.8c1,0,1.9-0.9,1.9-1.9c0-0.5-0.3-1.2-0.8-1.7
		c-1.6-1.6-4.2-2.5-7.3-2.5c-6.5,0-11.1,4.8-11.1,11.4c0,6.6,4.6,11.1,11.2,11.1c2.8,0,5.5-0.9,7-2.4c0.4-0.4,0.8-1,0.8-1.7
		c0-1.1-0.7-1.9-1.9-1.9c-0.8,0-1.3,0.4-1.9,0.8c-0.8,0.6-1.8,1.2-3.8,1.2c-3.9,0-6.8-3-6.8-7C174.5,47.1,177.7,44.9,181,44.9"/>
	<path class="st0" d="M152.8,59.4c-3.1,0-6.3-2.2-6.3-7.2c0-4.4,2.7-7.3,6.7-7.3c3.2,0,6.4,2.5,6.4,7.3
		C159.6,56.9,156.2,59.4,152.8,59.4 M153.1,40.8c-6.5,0-11.2,4.8-11.2,11.4c0,6.7,4.2,11.2,10.5,11.2c4,0,6.1-1.8,7.1-3.1
		c0,0.9,0,2.9,2.2,2.9c2.2,0,2.2-2,2.2-2.9V54c0-4.3-0.2-7.3-3-10.1C158.8,41.8,156.3,40.8,153.1,40.8z"/>
	<path class="st0" d="M124.9,59c-3.2,0-6.5-2.2-6.5-7c0-4.2,2.7-7.1,6.7-7.1c3.2,0,6.4,2.7,6.4,7.1C131.6,56.5,128.1,59,124.9,59
		 M125.1,40.8c-6.5,0-11.2,4.7-11.2,11.2c0,6.7,4.2,11,10.8,11c3.6,0,5.8-1.7,6.9-2.9c0,0.3,0,0.6,0,0.6c0,2.4-0.3,3.9-1.7,5.4
		c-1.1,1.1-2.8,1.7-5,1.7c-2.8,0-4.1-0.9-5.2-1.6c-0.7-0.5-1.4-1-2.3-1c-1.1,0-1.9,0.8-1.9,1.9c0,0.9,0.5,1.6,1,2
		c1,1,4.2,2.7,8.3,2.7c3.4,0,6.3-1,8.1-2.9c2.7-2.7,2.9-6.1,2.9-9.3V54c0-4.4-0.2-7.3-3.1-10.2C131.5,42.4,129,40.8,125.1,40.8z"/>
	<path class="st0" d="M85.4,44.8c3.3,0,5.9,2.3,6.1,5.3c-0.8,0-11.4,0-12.3,0C79.5,47.5,81.6,44.8,85.4,44.8 M85.4,40.8
		c-6.4,0-10.8,4.7-10.8,11.3c0,5.6,3.5,11.2,11.2,11.2c3.8,0,6.9-1.4,8.2-2.6l0,0c0.4-0.4,1.1-1.1,1.1-2c0-1.1-0.8-1.9-2-1.9
		c-0.8,0-1.4,0.4-2,0.8c-1,0.7-2.3,1.5-5.2,1.5c-3.4,0-6.2-2.2-6.6-5.1c0.9,0,12.7,0,12.7,0c1.3,0,2.5,0,3.4-0.9
		c0.3-0.4,0.8-1,0.8-2.2C96.2,47,93.2,40.8,85.4,40.8z"/>
	<path class="st0" d="M58.2,59.2c-3.9,0-6.9-3-6.9-6.9c0-4.6,3.4-7.4,6.8-7.4c4.6,0,7.1,3.6,7.1,7C65.1,56.7,61.6,59.2,58.2,59.2
		 M58.7,40.8c-4.1,0-6.4,1.8-7.5,3c0-2,0-10.8,0-10.8c0-0.8,0-2.9-2.2-2.9c-2.2,0-2.2,2-2.2,2.9v16.6c0,5.2,0.3,7.8,3,10.4
		c2.2,2.2,4.9,3.3,8.4,3.3c6.7,0,11.5-4.8,11.5-11.5C69.7,44.7,64,40.8,58.7,40.8z"/>
	<path class="st0" d="M105.2,30.1c-2.2,0-2.2,2.1-2.2,2.9v27.4c0,0.8,0,2.9,2.2,2.9c2.2,0,2.2-2,2.2-2.9V33
		C107.5,32.2,107.5,30.1,105.2,30.1"/>
	<path class="st0" d="M204.9,59.3c-4,0-7.3-3.3-7.3-7.3c0-4,3.3-7.3,7.3-7.3c4,0,7.3,3.3,7.3,7.3C212.2,56.1,208.9,59.3,204.9,59.3
		 M204.9,40.8c-6.2,0-11.3,5.1-11.3,11.3c0,6.2,5.1,11.3,11.3,11.3c6.2,0,11.3-5.1,11.3-11.3C216.2,45.8,211.1,40.8,204.9,40.8z"/>
</g>
</svg>
