<svg version="1.1" id="Layer_1" xmlns="http://www.w3.org/2000/svg" xmlns:xlink="http://www.w3.org/1999/xlink" x="0px" y="0px"
	 viewBox="0 0 300 101.9" style="enable-background:new 0 0 300 101.9;" xml:space="preserve">
	<line id="XMLID_322_"  x1="83.9" y1="71.6" x2="278" y2="71.6"/>
	<rect id="XMLID_321_" x="84.1" y="81.2"  width="1.9" height="14.1"/>
	<polygon id="XMLID_320_"  points="92.4,95.3 92.4,81.2 94.3,81.2 101.8,92.3 101.8,81.2 103.6,81.2 103.6,95.3
		101.7,95.3 94.2,84.2 94.2,95.3 	"/>
	<polygon id="XMLID_319_"  points="113.5,95.3 113.5,82.9 108.8,82.9 108.8,81.2 120,81.2 120,82.9 115.3,82.9
		115.3,95.3 	"/>
	<polygon id="XMLID_318_"  points="125.2,95.3 125.2,81.2 135.3,81.2 135.3,82.9 127.1,82.9 127.1,87.2 134.8,87.2
		134.8,88.9 127.1,88.9 127.1,93.6 135.7,93.6 135.7,95.3 	"/>
	<path id="XMLID_315_"  d="M141.5,95.3V81.2h6.2c1.3,0,2.2,0.1,2.9,0.4c0.6,0.3,1.2,0.7,1.6,1.4c0.4,0.6,0.6,1.4,0.6,2.1
		c0,1-0.3,1.8-1,2.5c-0.7,0.7-1.6,1.1-3,1.3c0.5,0.2,0.9,0.5,1.1,0.7c0.5,0.5,1.1,1.1,1.5,1.9l2.4,3.8h-2.3l-1.9-2.9
		c-0.5-0.8-1-1.5-1.3-1.9c-0.4-0.4-0.7-0.8-0.9-0.9c-0.3-0.2-0.6-0.3-0.9-0.4c-0.2,0-0.6-0.1-1-0.1h-2.2v6.3H141.5z M143.4,87.4h4
		c0.9,0,1.5-0.1,2-0.3c0.5-0.2,0.8-0.5,1.1-0.9c0.2-0.4,0.4-0.8,0.4-1.3c0-0.7-0.2-1.2-0.7-1.7c-0.5-0.4-1.2-0.6-2.3-0.6h-4.5V87.4z
		"/>
	<polygon id="XMLID_314_"  points="158.9,95.3 158.9,81.2 160.8,81.2 168.3,92.3 168.3,81.2 170,81.2 170,95.3
		168.1,95.3 160.7,84.2 160.7,95.3 	"/>
	<path id="XMLID_311_"  d="M174.8,95.3l5.4-14.1h2l5.8,14.1h-2.1l-1.6-4.3h-5.9l-1.5,4.3H174.8z M178.8,89.5h4.9
		l-1.5-3.9c-0.4-1.2-0.8-2.2-1-3c-0.2,0.9-0.5,1.8-0.8,2.7L178.8,89.5z"/>
	<polygon id="XMLID_310_"  points="194.8,95.3 194.8,82.9 190.1,82.9 190.1,81.2 201.3,81.2 201.3,82.9 196.7,82.9
		196.7,95.3 	"/>
	<rect id="XMLID_309_" x="206.8" y="81.2"  width="1.9" height="14.1"/>
	<path id="XMLID_306_"  d="M214.6,88.4c0-2.3,0.6-4.2,1.9-5.5c1.3-1.3,2.9-2,4.9-2c1.3,0,2.5,0.3,3.5,0.9
		c1,0.6,1.8,1.5,2.4,2.6c0.6,1.1,0.8,2.4,0.8,3.8c0,1.4-0.3,2.7-0.9,3.8c-0.6,1.1-1.4,2-2.5,2.6c-1.1,0.6-2.2,0.9-3.4,0.9
		c-1.3,0-2.5-0.3-3.6-1c-1-0.6-1.8-1.5-2.4-2.6C214.8,90.9,214.6,89.7,214.6,88.4 M216.5,88.5c0,1.7,0.5,3,1.4,4
		c0.9,1,2.1,1.5,3.4,1.5c1.4,0,2.6-0.5,3.5-1.5c0.9-1,1.4-2.4,1.4-4.2c0-1.1-0.2-2.1-0.6-3c-0.4-0.9-1-1.5-1.7-2
		c-0.7-0.5-1.6-0.7-2.5-0.7c-1.3,0-2.5,0.4-3.4,1.4C216.9,84.8,216.5,86.3,216.5,88.5"/>
	<polygon id="XMLID_305_"  points="233.7,95.3 233.7,81.2 235.6,81.2 243,92.3 243,81.2 244.8,81.2 244.8,95.3
		242.9,95.3 235.4,84.2 235.4,95.3 	"/>
	<path id="XMLID_302_"  d="M249.6,95.3l5.4-14.1h2l5.8,14.1h-2.1L259,91h-5.9l-1.5,4.3H249.6z M253.6,89.5h4.9l-1.5-3.9
		c-0.5-1.2-0.8-2.2-1-3c-0.2,0.9-0.5,1.8-0.8,2.7L253.6,89.5z"/>
	<polygon id="XMLID_301_"  points="267.4,95.3 267.4,81.2 269.3,81.2 269.3,93.6 276.2,93.6 276.2,95.3 	"/>
	<path id="XMLID_298_"  d="M93.4,45h5.7c2.2,0,3,0.8,3,2.6c0,1.8-0.9,2.6-3,2.6h-5.7V45z M84.6,63.9h8.8v-7.7h9.4
		c6.2,0,8.5-3.7,8.5-8.4c0-5.5-2.3-8.6-8.5-8.6H84.6V63.9z"/>
	<polygon id="XMLID_297_"  points="114.1,39.2 137.7,39.2 137.7,45.2 122.9,45.2 122.9,48.6 136.7,48.6 136.7,54.6
		122.9,54.6 122.9,57.9 137.7,57.9 137.7,63.9 114.1,63.9 	"/>
	<path id="XMLID_294_"  d="M150.2,45h5.7c2.2,0,3.1,0.8,3.1,2.6c0,1.8-0.8,2.6-3.1,2.6h-5.7V45z M141.4,63.9h8.8v-7.7
		h9.4c6.2,0,8.5-3.7,8.5-8.4c0-5.5-2.3-8.6-8.5-8.6h-18.1V63.9z"/>
	<path id="XMLID_293_"  d="M176.8,53.4c-4.3-0.7-6.1-3.5-6.1-6.9c0-6.4,5.6-8.1,12.8-8.1c9.9,0,14,2.9,14.3,8.1h-10.2
		c0-1-0.5-1.6-1.3-2c-0.8-0.4-1.8-0.5-2.8-0.5c-2.6,0-3.5,0.7-3.5,1.8c0,0.7,0.3,1.1,1.2,1.3l10.5,1.7c4.4,0.7,7.2,3,7.2,7.2
		c0,6-4.4,8.9-14.3,8.9c-6.7,0-14.1-1-14.1-8.3H181c0,0.8,0.3,1.4,0.9,1.8c0.6,0.4,1.6,0.5,3,0.5c2.7,0,3.5-0.8,3.5-2
		c0-0.7-0.4-1.4-1.6-1.7L176.8,53.4z"/>
	<rect id="XMLID_292_" x="201.7" y="39.2"  width="8.8" height="24.7"/>
	<path id="XMLID_291_"  d="M243.2,54.3c-0.6,3.3-1.6,5.9-3.7,7.7c-2.1,1.8-5.5,2.8-10.8,2.8c-5.3,0-15.2-0.4-15.2-13.2
		c0-12.8,9.9-13.2,15.2-13.2c5.3,0,13.4,0.8,14.6,10.5h-9.9c-0.2-1.8-1.3-4.3-4.7-4.3c-3.6,0-5.8,2-5.8,7c0,5,2.2,7,5.4,7
		c2.8,0,4.4-1.3,5.1-4.2H243.2z"/>
	<path id="XMLID_288_"  d="M254.8,51.6c0-5,2.3-7,5.8-7c3.6,0,5.8,2,5.8,7c0,5-2.3,7-5.8,7
		C257.1,58.5,254.8,56.6,254.8,51.6 M245.5,51.6c0,12.8,9.8,13.2,15.2,13.2c5.3,0,15.2-0.4,15.2-13.2c0-12.8-9.8-13.2-15.2-13.2
		C255.3,38.3,245.5,38.8,245.5,51.6"/>
	<path id="XMLID_285_"  d="M62.9,39.7c0.6-12-9.8-25.6-23.9-27.3l0-0.2c13.9,0,24.7,12.9,24.7,23.1
		c0,2.1-0.2,3.4-0.5,4.4L62.9,39.7z M62.1,41.3c-0.9,1.1-2.1,2.3-3.5,3.3c-2.5-14.5-13.1-27.1-20.7-30.8L37.8,14
		c7.6,6.2,16.6,18.2,20.1,31.2c-1.7,1.2-3.6,2.4-5.8,3.3C45,40.4,38.3,24.7,36.2,14.7l-0.2,0.1c0.1,9.7,6.9,26.1,15.3,34.1
		c-1.9,0.7-3.9,1.3-5.9,1.6c-8-3.2-13.7-13.4-13.7-23.8c0-6.8,2.1-11,2.5-11.9l-0.2-0.1c-0.5,0.7-3.5,4.9-3.5,12.3
		c0,11.8,5.8,20.8,13.5,23.6c-2.6,0.3-5.4,0.2-8.3-0.4l0,0.2c0.8,0.3,3.6,1.5,7.9,1.5c9.6,0,16.2-6,18.8-10.6L62.1,41.3z"/>
	<path id="XMLID_282_"  d="M42.5,8.1c-7.3,0-15.9,5.3-15.9,10.1c0,1.9,1.7,3.5,5.2,3.5c8.2,0,15.9-5.6,15.9-10
		C47.6,9.3,45.4,8.1,42.5,8.1 M45.4,11.5c0,3.7-7.1,8.2-13.1,8.2c-2.6,0-4.1-1-4.1-2.7c0-3.8,7.2-8.2,12.8-8.2
		C44.7,8.8,45.4,10.6,45.4,11.5"/>
	<path id="XMLID_281_"  d="M23.6,20.4c-0.2,0.4-1,2-1,3.6c0,3.1,3.1,5.9,8.8,5.9c11,0,23.6-8.1,23.6-15.6
		c0-3.4-3.2-5.2-5.4-5.6l0,0.1c0.7,0.2,3.2,1.4,3.2,4.4c0,6-11.2,14.1-22.3,14.1c-4.3,0-7-2.1-7-5.2c0-1,0.2-1.6,0.3-1.8L23.6,20.4z
		"/>
	<path id="XMLID_280_"  d="M59.6,15c0.3,0.2,2.1,1.7,2.1,4.6c0,9.7-15.2,19.2-28.7,19.2c-8,0-11.7-3.9-11.5-7.5h0.1
		c0.3,1.8,2.9,5.1,9.9,5.1c13.5,0,28.5-9.9,28.5-18.5c0-1.5-0.4-2.4-0.6-2.8L59.6,15z"/>
	<path id="XMLID_279_"  d="M64.6,24c0.1,0.2,0.4,1.1,0.4,2.6c0,10.8-15.4,20-28.8,20c-6.9,0-10.5-3.3-11.3-4.7l0.1-0.1
		c1.9,1.6,5.7,2.9,10,2.9c11.8,0,29.5-9,29.3-20.7L64.6,24z"/>
</svg>
