<svg version="1.1" id="Layer_1" xmlns="http://www.w3.org/2000/svg" xmlns:xlink="http://www.w3.org/1999/xlink" x="0px" y="0px"
	 viewBox="0 0 214.7 101.9" style="enable-background:new 0 0 214.7 101.9;" xml:space="preserve">
	<path opacity="0.87" d="M211.9,17.1c-0.2-0.6-0.5-1.1-1-1.5c-1.1-1.1-2.8-0.5-4.2-0.5c-0.6-0.1-1.1,0.2-1.6,0.5l0,0
		c-0.3,0.1-0.5,0.2-0.8,0.3h-0.1c-0.5,0.1-1-0.1-1.5,0.2c-1.2,0.9-2.9,0.6-4,1.5c-0.7,0.6-1.4,1.2-2.3,1.4c-0.2,0-0.4,0.1-0.5,0.1
		c-1.3,0.7-2.7,1.3-4.1,1.9c-0.9,0.1-1.6,0.6-2.4,0.9c-0.5,0-0.9,0.2-1.3,0.5c0,0,0,0,0,0.1c-0.2,0-0.2,0.2-0.4,0.4
		c-0.6,0.3-1.4,0.1-2,0c-0.5,0.4-1.2,0.2-1.7,0.4c-1.2,0.7-2.7,0.5-4.1,0.7l-0.1-0.1c-0.6,0-1.1,0-1.7,0l-1.1-0.3
		c-0.6-0.1-0.9-0.8-1.3-1.2c-0.4-0.2-0.7-0.5-0.9-0.8c0-0.1,0.1-0.1-0.1-0.1c-0.4-0.5-0.6-1.1-0.8-1.8c0-0.2-0.1-0.3-0.1-0.4
		s-0.1-0.3-0.1-0.4c-0.6-1-1.1-2-1.3-3.1c-0.3-2.3-0.7-4.6-2.2-6.4c-0.4-0.3-1-0.3-1.5-0.4l0,0c-0.2-0.1-0.5-0.2-0.8-0.1
		c-0.7,0.3-1.3,0.9-1.9,1.4l0,0c-0.5,0.5-0.9,1.1-1.1,1.7l0,0c0,0,0,0,0,0.1c-0.2,0.5-0.3,1-0.4,1.6c-0.2,0.4,0,0.9,0,1.3
		c-0.1,0.2-0.2,0.3-0.2,0.5c-0.4,0.5-0.9,1-1.1,1.6c-0.1,0.5,0.1,1-0.1,1.4c-0.6,0.8-0.8,1.8-1.1,2.8c-0.8,1.1-0.2,2.8-1.5,3.7
		c-0.3,0.5-0.3,1.1-0.4,1.7c-0.1,0.2-0.3,0.3-0.5,0.5c-0.2,0-0.3,0.1-0.4,0.2c0,0.1,0,0.1,0,0.2c-0.2,0.2-0.4,0.4-0.6,0.7
		c-0.1,0.1-0.3,0.2-0.4,0.3c-0.1,0-0.2,0-0.2,0.1c-0.2,0.1-0.3,0.2-0.4,0.3c-0.2,0.1-0.4,0.3-0.5,0.5c-0.8,0.1-1.6,0.5-2.1,1.3
		c-1,0.4-2.2,0.4-3.2,0.8c-1,0.5-2.2,0.7-3.3,0.5c-0.9,0.2-1.8,0.3-2.8,0.3c-0.7-0.1-1.4-0.1-2.1,0c-1,0-2.2,0.3-3.2,0.1
		c-0.8-0.2-1.8-0.1-2.7,0c-1.8,0.6-3.9,0.8-5.8,1c-0.7,0.1-1.3-0.1-1.8,0.4s-1.1,0.9-1.4,1.5c0,0.3-0.1,0.7,0.1,0.9
		c0.3,0.8,1.1,1,1.7,1.3c0.7,1.2,2.1,1,3,1.9c1.6,0.6,3.2,1,4.9,1.4c1.5-0.1,2.5,1.1,4,0.9l0.9,0.7c0.5,0.8,1.3,1.1,2,1.6
		c1.3,0.5,2.7,0.7,3.9,1.2c0.3,0,0.6,0.1,0.9,0.2c0.9-0.1,1.7,0.4,2.3,1.1c0.3,0.3,0.8,0.5,1,0.9c0.1,1-0.8,1.7-0.8,2.6
		c-1.2,1.3-1.5,2.9-2,4.5c-0.3,1.4-1.5,2.3-1.5,3.8c-0.1,0.6-0.6,1.1-0.9,1.7c-0.7,1.4-1.8,2.7-2.8,4c-0.4,1.5-1.9,2.3-2.6,3.6
		c-0.1,0.1-0.1,0.3-0.2,0.4c-0.1,0.1-0.2,0.3-0.2,0.5c-0.3,0.7-0.7,1.3-1.3,1.9c-1,1.6-2.8,2.9-3.5,4.7c-0.3,0.7-0.9,1.2-1.4,1.7
		c-0.5,1.3-1,2.6-1.9,3.7c-0.5,0.6-0.4,1.4-0.7,2.1c-0.4,0.6-0.6,1.2-0.9,1.9c-0.3,0.4-0.4,0.9-0.6,1.4c-0.3,0.5-0.8,0.9-0.9,1.4
		c-0.1,0.8-0.7,1.5-0.7,2.3c-0.7,1.6-0.6,3.6,0.5,4.9c0.4,0.2,0.8,0.4,1.3,0.5c0.8,1,1.6-0.4,2.6,0.1c0.4,0,0.6-0.7,1.1-0.5
		c0.9-0.3,1.7-0.9,2.5-1.6c1-0.5,1.7-1.5,2.2-2.4c-0.1-0.9,1-0.9,1.4-1.6c1.2-0.6,1.9-1.8,2.7-2.8c0.5-0.7,1.1-1.2,1.3-2
		c0.7-0.7,1.6-1.3,1.7-2.2c-0.2-0.7,0.5-1,0.9-1.3c1-1.8,2.6-3.1,3.9-4.8c0.3-0.3,0.3-0.7,0.3-1l0.6-0.5c1.3-1.6,3.1-3,3.9-4.9
		c0.4-0.2,0.9-0.3,1.2-0.8c0.6-0.7,1.3-1.4,1.7-2.2c0.3-1.3,1.8-2.1,2.5-3.2c1.4-1,2.4-2.5,3.1-3.9c0.2-0.5,0.3-0.9,0.8-1.3
		c0.5-0.2,1-0.5,1.4-0.8c0.1,0,0.1,0,0.1,0.1c0.1-0.1,0.1-0.1,0.2-0.2h0.1c0.4,0,0.8-0.2,1.2-0.3c0.9,0,1.3-1.5,2.3-0.9
		c0.2-0.1,0.4-0.3,0.7-0.3c0.1,0.4,0.6,0.2,0.9,0.3c0.3,0.7,1.1,0.7,1.8,0.8c0.3,0.2,0.5,0.4,0.9,0.5c0.7,0.7,1.7,0.7,2.4,1.6
		c0,0.1,0.1,0.1,0.1,0.2c0,0,0,0,0.1,0c0.2,0.1,0.5,0.2,0.7,0.3c0.8,0.8,1.9,1.5,2.5,2.5c0.4,0.1,0.7,0.3,1,0.6
		c0.8,1.3,2.2,1.9,3.2,3.1c0.4,1.1,1.4,2.1,2.3,2.9c1,1,1.5,2.2,2.5,3.2c1.4,1,2,2.4,3,3.5c0.4,0.6,1.1,1,1.5,1.6
		c0.5,0.4,0.7,1,1.1,1.4c0.7,0.2,1.1,1,1.8,1.4c0.8,0.6,1.7,1,2.8,1c0.7-0.4,1.6-0.5,2.5-0.5c1.1-0.1,1.9-1.2,2.3-2.1
		c0.2-0.5,0.1-1.2,0.6-1.6c0.3-0.6,0.3-1.4,0-2c0.1-1.2-1-1.9-1-3.1c0.1-1.4-0.3-2.7-1.3-3.6c-0.2-0.8-0.6-1.5-1.3-2.1
		c-0.8-0.8-0.7-2.2-1.7-2.8c-0.1-0.5-0.4-1-0.9-1.3c-0.2-0.8-0.7-1.5-1.2-2.3c-0.2-0.8-1-1.4-1.5-2c-1.2-1.2-1.7-2.8-3-4
		c-0.4-0.3-0.8-0.4-1.1-0.8c-0.4-0.8-0.9-1.6-1.5-2.3c-0.6-0.4-0.9-1.1-1-1.7c-0.7-0.7-0.8-1.6-1.3-2.4c-0.4-1-1.7-0.8-1.9-1.9
		c-0.3-0.5-0.8-0.5-1.2-0.8c0-0.1,0-0.1,0.1-0.2l-0.1-1.3c0.1-0.3,0-0.5,0-0.7c0.3-0.3,0.8-0.7,0.6-1.2c-0.2-0.7,0.8-0.8,1-1.4
		c0.3-0.9,1.3-0.9,1.8-1.6c0.4-0.7,1.1-1.3,1.8-1.7c0.6-0.9,1.7-1,2.3-1.9h0.1c1-1.3,2.6-1.5,3.8-2.3c0.5-0.5,0.7-1,1.3-1.4
		c0.9-0.4,1.7-0.9,2.4-1.6c1.5-1,3.3-1.5,4.7-2.8c0.5-0.7,1.5-0.9,2-1.6c0.3-1.4,2.1-1.4,2.7-2.7C211,19.3,212.1,18.4,211.9,17.1z
		 M85.5,47.8c0,0-3.4-0.2-5.7,4c-2,0-4.2,0-4.5-0.1c0,0-0.2-2-1.7-1.8c0,0-2.4,0.7-0.7,2.9c0,0,0.2,0.3,0.7,0.4c0,0,1.4,2.5-0.9,3.7
		c0,0-2.3,1.5-2.3-3.8c0,0,0.1-13.9-0.3-17.1c0,0-0.2-1.8-2.1-2.8c0,0-0.8-0.5-0.8,0.5l-0.1,21.7c0,0-0.1,1.8,1.3,2.7
		c0,0,3.7,3.1,6.9-1c0,0,1.1-1.8,0.3-4.1h3.6c-0.1,0.4-0.2,0.7-0.2,1.1c0,0-0.6,5.1,4.4,4.9c0,0,3.3,0,4.9-3.6c0,0,0.3-1.4-1-0.2
		c0,0-1.9,3-4.3,1.4c0,0-1.3-1.2-0.9-3.6h5.2c0,0,1.5-0.1,1.5-1.7C89,51.5,89,47.8,85.5,47.8z M86.5,51.3c0,0,0.1,0.7-3.5,0.5
		c0,0-0.2,0-0.5,0c0.2-0.4,0.4-0.9,0.7-1.4c0,0,1.4-1.9,2.6-1.5C85.8,48.8,87.4,49.5,86.5,51.3z M112.6,59.6c0-3.7-1.9-4.9-3-5.3
		c0.3-0.2,0.7-0.5,0.9-0.8c0,0,3.5-3.6-1.1-5.9c0,0-2.4-1-5.1,1.5V33.5c0-0.2-0.2-0.2-0.2-0.2c-0.6,0-2.6,0-2.7,2.6l0.1,14.9
		c-0.5,1.5-2.4,5.5-5.3,6.4c0,0-3.6,1.2-3-3.3c0,0,0.1-2.4,2.1-4.6c0,0,1.6-1.4,1.7,0.7v0.7c0,0-0.8,0.3-0.5,1.2
		c0,0,0.7,1.8,1.6,1.1c0,0,0.3-0.3,0.4-0.7c0.2-0.9,0.4-2.8-0.8-4c0,0-3.1-2.5-6.7,2.2c0,0-3.5,5.9,1.5,8c0,0,5,1.9,9-4.4v4.3
		c0,0-0.2,0.4,0.9,0.3c0,0,1.6,0.1,1.9-1v-3.1c0.1,0.2,0.4,0.5,1,0.6c0,0,1.5,0.5,3.2-0.3c1.4,0.8,1.1,2.9,1.1,2.9
		c0.2,1.4,0,18.7,0.1,21.3c0.1,2.5,2.3,3.5,2.3,3.5c0.9,0.5,0.8-0.5,0.8-0.5L112.6,59.6z M106.3,53.3c0,0-1,0-1.5,0.3
		c-0.2,0.1-0.3,0.2-0.4,0.4v-2.9c1-0.9,2-1.6,2.9-1.6c0,0,1.9-0.1,1.9,1.8C109.1,51.4,109.1,53.6,106.3,53.3z M40.8,56.5
		c1.6-2.7,1.8-1.5,1.8-1.5c-0.1,1.7,0.1,3.4,0.1,3.4c0.6,2.6,3.6-0.8,3.6-0.8c0.8-1.4,1-0.8,1-0.8c0.5,2.1,1.9,2.1,1.9,2.1
		c1.2,0.1,2.4-1.4,3-2.2c0.2,0.3,0.4,0.6,0.6,0.9c0,0,2.6,3.1,6,0.9c0,0,1.3-1,2.7-2.9c0,1,0,1.9,0,2.5c0,0,0.4,2,2.1,0.6
		c0,0,0.4-0.2,0.5-1.2c0,0,0-0.3-0.1-1.1c-0.2-1.3,0-19.8,0-19.8s0-1.6-1.1-2.5c0,0-1-1.1-1.5-0.1c0,0,0,8.2,0,15.3l0,0
		c0,0-4.2-2.9-8.1,1.4c0,0-2.1,2.4-1.5,5c-0.4,0.5-1.4,1.4-1.7,0.5c0,0-0.4-2.5-1.9-2.6c0,0-0.7-0.3-2.1,1.5c0,0-0.6,0.8-0.7-0.6
		c0,0,0.1-2.8-2.1-2.6c0,0-1.1-0.1-3.5,3.4c0,0-1.3,1.4-1.5-0.4c0,0,0.1-5.4-2.3-3.3c0,0-2,2.2-3.5,3.9c0,0-1,0.9-1.1-0.7
		c0,0,0-6.3-1.9-6.3c0,0-1.7-0.6-3.1,5.7c0,0-0.3,3.8-3.1,3.2c0,0-5-0.9-10.2-1.2c0.2-0.3,0.4-0.7,0.5-1.1c0,0,1.5-3.4,1.4-8.2
		c0,0-0.1-24.1-1-26.6c0,0-0.4-1.5-1.5-0.9c0,0-1.8-0.1-1.5,10.7c0,0,0.2,16.8,0.4,20.6c0,0,0.4,3.6-0.6,5.4c-2.5,0-4.8-0.1-6.5,0.7
		c0,0-2.5,1.4-0.1,2.4c0,0,4.1,1,7-1c1.8,0.5,5.4,0.9,12.7,1.3c2.6,0.1,3.1-2.2,3.1-2.2c1.2-3,1.4-0.6,1.4-0.6c-0.1,2.9,1,3.1,1,3.1
		c1.2,0.9,4.1-2.7,4.1-2.7c1.7-2.6,1.7-1.1,1.7-1.1c-0.1,2.6,1.4,3.2,1.4,3.2C38.8,60,40.8,56.5,40.8,56.5z M59.3,50
		c0.9-0.1,1.6,0.3,2.1,0.7c0,0.6,0,1.2,0,1.8c-1.1,2.2-2,2.7-2,2.7c-3.6,3.1-4.5-0.1-4.5-0.1C54.4,50.5,59.3,50,59.3,50z M83.2,67.2
		c-28.2-0.6-43.2,0-43.2,0c-1.3,0.1-1.9,0.7-1.9,0.7c-2.3,2.2,4.3,2.3,4.3,2.3C75.7,68.8,86,68.4,86,68.4
		C85.2,67.2,83.2,67.2,83.2,67.2z"/>
</svg>
