<?xml version="1.0" encoding="utf-8"?>
<!-- Generator: Adobe Illustrator 22.0.1, SVG Export Plug-In . SVG Version: 6.00 Build 0)  -->
<svg version="1.1" id="Layer_1" xmlns="http://www.w3.org/2000/svg" xmlns:xlink="http://www.w3.org/1999/xlink" x="0px" y="0px"
	 viewBox="0 0 300 101.9" style="enable-background:new 0 0 300 101.9;" xml:space="preserve">
<g>
	<path d="M201.3,74.1c1.3-6.1,2.5-11.6,3.7-17.2c1.7-7.6,5.7-25,5.7-25l13.9,0l-3.3,14.7l13-0.1l3.4-14.5l13.8-0.1l-9.4,42.1
		l-13.9,0l3.8-16.8l-13,0.1l-3.7,16.8C215.2,74.2,205.6,74.1,201.3,74.1z"/>
	<path d="M203.7,47.3L190,47.2c0-5.4-5.3-7.4-10.4-4.9c-5.3,2.7-8.4,12.3-5.7,17.9c1.4,3,3.8,3.8,6.7,3.8c2.1,0,3.9-0.5,5.4-1.8
		c1.2-1,1.9-2.5,2.2-4l0.1-0.5c0,0,10.2,0,14.3,0c-1,4.8-3,8.7-6.6,11.3c-8.5,6.1-17.8,6.7-27.1,3.1c-7-2.7-10.3-9.4-9.8-17.9
		c0.6-10.8,7.2-19.3,17.1-21.9c6.9-1.8,13.8-1.8,20.3,1.6C201.3,36.6,203.4,41.2,203.7,47.3z"/>
	<path d="M150.8,32.5c0,0,4.3,26.8,7,40.6c-4.8,0-12.8,0-12.8,0l-0.4-5.4l-16.5-0.1l-2.7,5.5h-14.8l27-40.7L150.8,32.5z M133.5,58.9
		h9.6L141.4,46l-1.2,0L133.5,58.9z"/>
	<path d="M93.1,14.9c-5.8,2.4-14.4,6.8-22.8,14.8c-8.1,7.8-22,20.3-16.8,31.6c4.1,9,25.3,1.2,27.7,0.5c-3,0.1-12.8,0-15.9-5.5
		c-3.5-6.4,3.8-16,9.6-23.8C81.3,23.9,88.2,18.3,93.1,14.9z"/>
	<path d="M59.4,84.6c5.8-2.4,14.4-6.8,22.8-14.8c8.1-7.8,22-20.3,16.8-31.6c-4.1-9-25.3-1.2-27.7-0.5c3-0.1,12.8,0,15.9,5.5
		c3.5,6.4-3.8,16-9.6,23.8C71.2,75.6,64.3,81.2,59.4,84.6z"/>
	<path d="M75,79.4c5.8-2.4,14.4-6.8,22.8-14.8c8.1-7.8,22-20.3,16.8-31.6c-4.1-9-25.3-1.2-27.7-0.5c3-0.1,12.8,0,15.9,5.5
		c3.5,6.4-3.8,16-9.6,23.8C86.7,70.4,79.8,76,75,79.4z"/>
	<g>
		<path d="M161.8,77.6h6.3l-0.3,1.4h-4.7l-0.5,2.4h4.1l-0.3,1.3h-4.1l-0.9,4.1h-1.6L161.8,77.6z"/>
		<path d="M170.8,87c-0.9,0-1.7-0.3-2.2-0.8c-0.5-0.5-0.8-1.2-0.8-2.2c0-0.6,0.1-1.1,0.3-1.6c0.2-0.5,0.4-0.9,0.8-1.3
			c0.3-0.4,0.7-0.7,1.2-0.9s1-0.3,1.6-0.3c0.9,0,1.7,0.2,2.2,0.7c0.5,0.5,0.8,1.2,0.8,2.1c0,0.6-0.1,1.1-0.3,1.6
			c-0.2,0.5-0.4,1-0.8,1.3c-0.3,0.4-0.7,0.7-1.2,0.9C171.9,86.9,171.4,87,170.8,87z M171.6,81.1c-0.4,0-0.7,0.1-1,0.3
			c-0.3,0.2-0.5,0.4-0.7,0.7c-0.2,0.3-0.3,0.6-0.4,1c-0.1,0.4-0.1,0.7-0.1,1c0,0.5,0.1,0.9,0.4,1.2c0.2,0.3,0.6,0.5,1.2,0.5
			c0.4,0,0.7-0.1,1-0.3c0.3-0.2,0.5-0.4,0.7-0.7c0.2-0.3,0.3-0.6,0.4-1c0.1-0.4,0.1-0.7,0.1-1c0-0.5-0.1-0.9-0.4-1.2
			S172.1,81.1,171.6,81.1z"/>
		<path d="M178.6,87c-0.9,0-1.7-0.3-2.2-0.8c-0.5-0.5-0.8-1.2-0.8-2.2c0-0.6,0.1-1.1,0.3-1.6c0.2-0.5,0.4-0.9,0.8-1.3
			c0.3-0.4,0.7-0.7,1.2-0.9c0.5-0.2,1-0.3,1.6-0.3c0.9,0,1.7,0.2,2.2,0.7c0.5,0.5,0.8,1.2,0.8,2.1c0,0.6-0.1,1.1-0.3,1.6
			c-0.2,0.5-0.4,1-0.8,1.3c-0.3,0.4-0.7,0.7-1.2,0.9S179.2,87,178.6,87z M179.4,81.1c-0.4,0-0.7,0.1-1,0.3c-0.3,0.2-0.5,0.4-0.7,0.7
			c-0.2,0.3-0.3,0.6-0.4,1c-0.1,0.4-0.1,0.7-0.1,1c0,0.5,0.1,0.9,0.4,1.2c0.2,0.3,0.6,0.5,1.2,0.5c0.4,0,0.7-0.1,1-0.3
			c0.3-0.2,0.5-0.4,0.7-0.7c0.2-0.3,0.3-0.6,0.4-1c0.1-0.4,0.1-0.7,0.1-1c0-0.5-0.1-0.9-0.4-1.2C180.3,81.3,179.9,81.1,179.4,81.1z"
			/>
		<path d="M189.4,86.8H188l0.2-0.9l0,0c-0.3,0.4-0.6,0.7-1,0.9c-0.4,0.2-0.7,0.2-1.1,0.2c-0.2,0-0.4,0-0.7-0.1
			c-0.3-0.1-0.6-0.2-0.9-0.4c-0.3-0.2-0.5-0.5-0.7-0.8c-0.2-0.4-0.3-0.9-0.3-1.5c0-0.5,0.1-1.1,0.2-1.6c0.2-0.5,0.4-1,0.7-1.4
			s0.7-0.7,1.1-1c0.4-0.2,1-0.4,1.5-0.4c0.4,0,0.9,0.1,1.2,0.2c0.4,0.2,0.6,0.4,0.8,0.9h0l0.7-3.5h1.5L189.4,86.8z M188.8,82.7
			c0-0.2,0-0.4-0.1-0.6c-0.1-0.2-0.1-0.4-0.3-0.5c-0.1-0.1-0.3-0.3-0.5-0.3c-0.2-0.1-0.4-0.1-0.7-0.1c-0.4,0-0.8,0.1-1.1,0.3
			c-0.3,0.2-0.5,0.4-0.7,0.7c-0.2,0.3-0.3,0.6-0.4,1c-0.1,0.4-0.1,0.7-0.1,1.1c0,0.5,0.1,0.9,0.4,1.2c0.2,0.3,0.6,0.4,1.2,0.4
			c0.4,0,0.7-0.1,1-0.3c0.3-0.2,0.5-0.5,0.7-0.8c0.2-0.3,0.3-0.6,0.4-1C188.7,83.4,188.8,83.1,188.8,82.7z"/>
		<path d="M196,82.1c0-0.3-0.1-0.6-0.4-0.7c-0.2-0.2-0.6-0.2-1-0.2c-0.1,0-0.3,0-0.4,0c-0.1,0-0.3,0.1-0.4,0.1
			c-0.1,0.1-0.2,0.2-0.3,0.3c-0.1,0.1-0.1,0.2-0.1,0.4c0,0.2,0.1,0.3,0.2,0.4c0.1,0.1,0.3,0.2,0.5,0.3c0.2,0.1,0.4,0.1,0.6,0.2
			c0.2,0.1,0.5,0.1,0.7,0.2c0.2,0.1,0.4,0.2,0.6,0.3c0.2,0.1,0.4,0.2,0.5,0.3c0.1,0.1,0.3,0.3,0.3,0.5c0.1,0.2,0.1,0.4,0.1,0.7
			c0,0.4-0.1,0.7-0.3,1c-0.2,0.3-0.4,0.5-0.7,0.7s-0.6,0.3-0.9,0.4c-0.4,0.1-0.7,0.1-1.1,0.1c-0.4,0-0.7,0-1.1-0.1
			c-0.3-0.1-0.6-0.2-0.9-0.4c-0.2-0.2-0.4-0.4-0.6-0.7c-0.1-0.3-0.2-0.7-0.2-1.1h1.4c0,0.4,0.1,0.7,0.4,0.9c0.3,0.2,0.6,0.3,1.1,0.3
			c0.2,0,0.3,0,0.5,0c0.2,0,0.3-0.1,0.5-0.1c0.1-0.1,0.3-0.2,0.3-0.3c0.1-0.1,0.1-0.3,0.1-0.5c0-0.2-0.1-0.3-0.2-0.4
			c-0.1-0.1-0.3-0.2-0.5-0.3c-0.2-0.1-0.4-0.2-0.7-0.2c-0.2-0.1-0.5-0.1-0.7-0.2c-0.2-0.1-0.4-0.2-0.6-0.2c-0.2-0.1-0.3-0.2-0.5-0.3
			c-0.1-0.1-0.2-0.3-0.3-0.5c-0.1-0.2-0.1-0.4-0.1-0.6c0-0.4,0.1-0.7,0.2-0.9c0.2-0.3,0.4-0.5,0.6-0.6c0.3-0.2,0.6-0.3,0.9-0.4
			c0.3-0.1,0.7-0.1,1-0.1c0.4,0,0.7,0,1,0.1c0.3,0.1,0.6,0.2,0.8,0.3c0.2,0.2,0.4,0.4,0.6,0.7c0.1,0.3,0.2,0.6,0.2,1H196z"/>
		<path d="M203.7,77.6h2.2l1,7h0l4-7h2.3l-1.9,9.2h-1.6l1.6-7.4h0l-4.2,7.4H206l-1.2-7.4h0l-1.4,7.4h-1.6L203.7,77.6z"/>
		<path d="M219.7,84.8c-0.2,0.8-0.6,1.4-1.2,1.7c-0.6,0.4-1.2,0.5-2,0.5c-0.4,0-0.8-0.1-1.2-0.2c-0.4-0.1-0.7-0.3-0.9-0.6
			c-0.3-0.3-0.5-0.6-0.6-0.9c-0.1-0.4-0.2-0.8-0.2-1.2c0-0.5,0.1-1,0.2-1.5c0.2-0.5,0.4-0.9,0.7-1.3c0.3-0.4,0.7-0.7,1.2-0.9
			c0.5-0.2,1-0.4,1.6-0.4c0.6,0,1.1,0.1,1.4,0.3c0.4,0.2,0.7,0.4,0.9,0.7c0.2,0.3,0.3,0.6,0.4,1c0.1,0.4,0.1,0.7,0.1,1
			c0,0.2,0,0.3,0,0.5c0,0.1,0,0.3-0.1,0.4h-5c0,0,0,0.1,0,0.1c0,0,0,0.1,0,0.1v0.2c0,0.5,0.1,0.8,0.4,1.1c0.2,0.3,0.7,0.4,1.2,0.4
			c0.4,0,0.7-0.1,1-0.3c0.3-0.2,0.5-0.5,0.6-0.8H219.7z M218.6,82.9c0,0,0-0.1,0-0.1s0-0.1,0-0.1v-0.2c0-0.4-0.1-0.7-0.4-1
			c-0.3-0.3-0.6-0.4-1-0.4c-0.6,0-1,0.2-1.3,0.5c-0.3,0.3-0.6,0.8-0.7,1.3H218.6z M219.5,77.4l-1.5,1.8h-1.1l1-1.8H219.5z"/>
		<path d="M221.5,80.1h1.6l0.9,2.1l1.7-2.1h1.7l-2.8,3.2l1.7,3.5h-1.6l-1.1-2.5l-2,2.5h-1.7l3.1-3.6L221.5,80.1z"/>
		<path d="M228.6,80.1h1.5l-1.4,6.7h-1.5L228.6,80.1z M229.1,77.6h1.5l-0.3,1.4h-1.5L229.1,77.6z"/>
		<path d="M235.8,82.4c0-0.4-0.1-0.7-0.3-0.9c-0.2-0.2-0.6-0.3-1-0.3c-0.4,0-0.7,0.1-1,0.3c-0.3,0.2-0.5,0.4-0.7,0.7
			c-0.2,0.3-0.3,0.6-0.4,1c-0.1,0.3-0.1,0.7-0.1,1c0,0.3,0,0.5,0.1,0.7c0.1,0.2,0.1,0.4,0.3,0.5c0.1,0.2,0.3,0.3,0.5,0.4
			c0.2,0.1,0.4,0.1,0.7,0.1c0.4,0,0.8-0.1,1.1-0.3c0.3-0.2,0.5-0.6,0.6-1h1.5c-0.2,0.9-0.6,1.5-1.2,1.9c-0.6,0.4-1.3,0.6-2.2,0.6
			c-0.4,0-0.8-0.1-1.2-0.2c-0.3-0.1-0.6-0.3-0.8-0.6c-0.2-0.3-0.4-0.6-0.5-0.9c-0.1-0.3-0.2-0.7-0.2-1.2c0-0.6,0.1-1.1,0.3-1.6
			c0.2-0.5,0.4-1,0.7-1.3c0.3-0.4,0.7-0.7,1.2-0.9s1-0.3,1.6-0.3c0.4,0,0.7,0.1,1,0.2c0.3,0.1,0.6,0.3,0.9,0.5
			c0.2,0.2,0.4,0.4,0.6,0.7c0.1,0.3,0.2,0.6,0.2,1H235.8z"/>
		<path d="M241.1,87c-0.9,0-1.7-0.3-2.2-0.8c-0.5-0.5-0.8-1.2-0.8-2.2c0-0.6,0.1-1.1,0.3-1.6c0.2-0.5,0.4-0.9,0.8-1.3
			c0.3-0.4,0.7-0.7,1.2-0.9s1-0.3,1.6-0.3c0.9,0,1.7,0.2,2.2,0.7c0.5,0.5,0.8,1.2,0.8,2.1c0,0.6-0.1,1.1-0.3,1.6
			c-0.2,0.5-0.4,1-0.8,1.3c-0.3,0.4-0.7,0.7-1.2,0.9S241.6,87,241.1,87z M241.9,81.1c-0.4,0-0.7,0.1-1,0.3c-0.3,0.2-0.5,0.4-0.7,0.7
			c-0.2,0.3-0.3,0.6-0.4,1c-0.1,0.4-0.1,0.7-0.1,1c0,0.5,0.1,0.9,0.4,1.2c0.2,0.3,0.6,0.5,1.2,0.5c0.4,0,0.7-0.1,1-0.3
			c0.3-0.2,0.5-0.4,0.7-0.7c0.2-0.3,0.3-0.6,0.4-1c0.1-0.4,0.1-0.7,0.1-1c0-0.5-0.1-0.9-0.4-1.2S242.4,81.1,241.9,81.1z"/>
	</g>
</g>
</svg>
