<?xml version="1.0" encoding="utf-8"?>
<!-- Generator: Adobe Illustrator 22.0.1, SVG Export Plug-In . SVG Version: 6.00 Build 0)  -->
<svg version="1.1" id="Layer_1" xmlns="http://www.w3.org/2000/svg" xmlns:xlink="http://www.w3.org/1999/xlink" x="0px" y="0px"
	 viewBox="0 0 300 101.9" style="enable-background:new 0 0 300 101.9;" xml:space="preserve">
<style type="text/css">
	.st0{fill-rule:evenodd;clip-rule:evenodd;fill:#606060;}
</style>
<g>
	<path class="st0" d="M202.5,68.5c-0.7,0-1.2,0.6-1.2,1.2c0,0.7,0.6,1.2,1.2,1.2c0.7,0,1.2-0.6,1.2-1.2
		C203.8,69,203.2,68.5,202.5,68.5z M202.5,70.7c-0.6,0-1-0.5-1-1c0-0.6,0.5-1,1-1c0.6,0,1,0.5,1,1C203.6,70.3,203.1,70.7,202.5,70.7
		z"/>
	<path class="st0" d="M203.1,70.2l0-0.2c0-0.2-0.1-0.2-0.2-0.3c0.1-0.1,0.2-0.1,0.2-0.3c0-0.3-0.2-0.4-0.4-0.4h-0.6v1.3h0.2v-0.6
		h0.4c0.2,0,0.2,0.1,0.2,0.2c0,0.1,0,0.3,0,0.3h0.2v0C203.1,70.3,203.1,70.3,203.1,70.2z M202.7,69.6h-0.4v-0.5h0.5
		c0.1,0,0.2,0,0.2,0.2C202.9,69.6,202.8,69.6,202.7,69.6z"/>
	<path class="st0" d="M208.3,32.2l-2.5-3.5l-0.1-0.2c-4.1-4.8-8.6-5.2-11.6-4.7c-2.6,0.4-4.5,1.5-5.3,1.9c-1.9-2.7-4.3-4.3-6.9-4.6
		c-1.5-0.2-2.9,0-4.1,0.5l0.9-11.2l-2.5-3.6c0,0-3.7,2.9-11.3,5.1c-3.1-2.2-7.1-1-8.6-0.4l0-0.4l0-0.2l-0.2-0.1
		c-3.9-3.1-11.3-2.9-15.7,2.4c-4.1,5-2.6,14.4-2.3,16.2l-10.1,6.5l-7.3-6.1l0,0c-1.1-0.9-2.2-1.6-3.5-2.1c-5.4-2-10.7,0.7-12.8,1.9
		c-6.3,3.8-12.5,9.3-12.5,9.3s3.9,3.8,5.1,6.8c3.8,9.6,6.2,16.2,13.4,34.9c1.6,4.1,2.5,10.8,2.5,10.9l0.1,0.7l3.4,3.4l14.8-11
		l3.3,0.4l15.1-11.2l-2.3-1.7c3-0.4,6.1-2.2,6.1-2.2V71l17-3.6l-1.2-2.7l7.5,0.5l1.3,2.8c9.2,5.4,20.1,3.3,24.1-4.2
		c3.9-7.5,1.1-13.8,1.1-13.8L208.3,32.2z M200.5,43.3l-3.1-4.7c-0.3-0.4-0.7-0.8-1.1-0.6c-0.4,0.2-0.4,0.5,1.1,3.4
		c2.8,5.4,3.5,10.5,2.3,15.1c-0.8,2.9-3.3,6.9-7.6,8.7c-4.2,1.7-9,1.1-14.5-1.9l1.7-5.6l0.2-0.6l-0.6,0.1c-0.2,0-3.9,0.3-6.6-3.5
		l-1-1.3l0.2,1.6c0,0.1,0.4,2.9,1.9,5.6c-1.6,0-5.3-0.2-8.3-0.5l-0.8-0.1l0.4,0.7l1.3,2.6c-1.4,0.4-5.9,1.7-13.5,2.9l0.1-0.9
		l0.1-0.9l-0.7,0.4c0,0-4.2,2.5-7.1,3l0.1-2.6l-0.8-0.2c0,0-1,2.3-3.8,3.5l-0.8,0.4l0.8,0.4c0.1,0.1,2.2,1.1,3.8,1.7
		c-1.9,1.7-8.3,7.1-12.1,9.2l-3.3,0.1l-0.1,0l-0.1,0.1l-14.9,11c-0.3-1.9-1.1-7-2.4-10.4c-1.6-4.1-12.7-33.3-12.9-33.8
		c-0.1-0.3-1.3-3.9-5.2-7.5c1.3-1.1,6.3-5.3,11.6-8.6c1.9-1.2,7-3.7,12.1-1.8c3.6,1.3,6.3,4.6,8,9.8l0.2,0.5l13.7-8.8l0.2-0.2
		l-0.1-0.3c0-0.1-2.1-10.7,2.1-15.7c4-4.9,10.8-5.2,14.4-2.5l-0.1,0.9l-0.1,0.7l0.7-0.3c0.1,0,5.1-2.4,8.6,0.2l0.2,0.1l0.2-0.1
		c0.3-0.1,6.7-1.8,10.3-4.1l-1.8,15.7l-0.1,1.1l0.8-0.7c0,0,3.6-3.1,7.7-2.6c2.5,0.3,4.7,1.9,6.5,4.6l0.2,0.4l0.3-0.2
		c0.4-0.3,8.7-6,16,2.3L200.5,43.3z"/>
	<path class="st0" d="M121.9,54.4c2.3-5.3,2.1-11.8-1.2-18.4c-3.3-6.5-10-5.3-13.7-3.2c-3.7,2.1-9.1,6.2-9.1,6.2
		c2.1,1.8,3.2,5.6,3.2,5.6s11.4,30.5,12.8,34.2c1.3,3.6,1.6,5.9,1.6,5.9l8.2-6.1c-1.7-1.1-2.7-3.9-2.7-3.9l-5.2-12.9l1-0.6
		c0,0,4.8,5.3,7.6,8.6c2.8,3.3,6.1,6.5,6.1,6.5l7.4-5.6C131,67.4,121.9,54.4,121.9,54.4z M113.2,55.3l-5.6-15.1c0,0,4.8-3.7,7.3,1.9
		C117.4,47.7,116,54.3,113.2,55.3z"/>
	<path class="st0" d="M124.4,42.8l5.8-3.6c0,0,2.7,10.1,4.2,13.9c1.7,4.4,4.4,4.5,2.4-2.6c-1.9-7-4.2-12.9-4.2-12.9l5.5-3.8
		c0,0,5.2,19.7,8.7,22.4l-4.7,5.3c0,0-1.4-1.5-2.2-3.5c0,0-0.2,5.1-2.9,6.9c-2.7,1.8-5.1,0.1-7.8-5.7
		C126.8,54.1,125.1,47,124.4,42.8L124.4,42.8z"/>
	<path class="st0" d="M164.5,21l-1.9-5.6c-3.7-1.2-7.4,0.4-9.1,3.6l-1.5-5.9c-13.8-1-10.6,12.4-10,17.4c0.1,1.2,0.4,2.9,0.8,5
		c-1.4,0.5-2.3,0.9-2.3,0.9l1,3.5c0.7-0.2,1.3-0.4,1.9-0.5c1.2,6.2,2.8,13,2.8,13c0.6,2.6,2.7,3.4,2.7,3.4l-1.6,2
		c0.5,1.5,0.4,4.5,0.4,4.5c0.7-0.5,5.7-2.3,7.4-3c0.1,1.1,0.1,1.8,0.1,1.8l6.5-1.4c-0.8-2-1.7-13.7-2.2-23.1c2-0.1,2.8,0.1,2.8,0.1
		l0.1-5.3c-1.1,0.1-2.2,0.2-3.2,0.3c-0.1-1.1-0.1-2.1-0.1-3C158.8,19.5,164.5,21,164.5,21z M148.3,23.6c-0.2-6.2,3.9-4.7,5-4.2
		c-0.5,1-0.8,2.2-0.8,3.4c0,2.5,0.1,6.1,0.3,10c-1.3,0.3-2.5,0.6-3.6,0.8C148.8,30,148.4,26.4,148.3,23.6z M151.7,47.4
		c-0.4-2.2-1.1-5.7-1.7-9.6c1.2-0.2,2.3-0.4,3.3-0.6c0.2,3,0.5,6.1,0.8,8.9c0.5,4.9,0.9,9.4,1.1,12.1
		C153.3,55.8,152.5,51.8,151.7,47.4z"/>
	<path class="st0" d="M164.4,22.8h2l-2.1-6.3c0,0,2.8-0.3,6.9-2.3c0,0-2.6,36.5-2.2,42.2l-7-0.5c0,0,0.5-1.5,0.8-5.4
		C163.2,46.4,164.4,24.5,164.4,22.8L164.4,22.8z"/>
	<path class="st0" d="M187,42.3c1.9-9-0.8-16.8-6.2-16.8c-5.4,0-9.9,5.3-9.9,15.6c0,10.3,5.3,12.8,8.5,12.8c3.3,0,4.8-1.8,4.8-1.8
		l1.9-6.1c-9.9,5-9.1-4.3-9.1-4.3L187,42.3z M180.2,31c2.5,0,2.2,5.3,2.1,6h-5.1C177.2,37,177.7,31,180.2,31z"/>
	<path class="st0" d="M180.6,61.1l2.1-6.1c0,0,3.7,2.6,6.1,0.1c2.4-2.5,1.6-6.5-1-10.8c0,0,2.4-4.6,0.6-13c0,0,5.1-6.4,12.7-1.2
		l-1.7,6.2c0,0-3.7-3.3-5.4,0.2c-1.7,3.5,3.3,8,3.6,14.8C197.8,58,192.2,65.8,180.6,61.1L180.6,61.1z"/>
</g>
</svg>
