<svg version="1.1" xmlns="http://www.w3.org/2000/svg" xmlns:xlink="http://www.w3.org/1999/xlink" x="0px" y="0px"
	 viewBox="0 0 300 101.9" style="enable-background:new 0 0 300 101.9;" xml:space="preserve">
				<path d="M211.8,36.8c-4.2,4.1-6.2,9-6.2,14.9c0,11.7,9.5,21,21.2,21c11.7,0,21.2-9.2,21.2-21
					c0-5.8-2.1-10.7-6.2-14.8c-4.1-4.2-9.1-6.2-15-6.2C221,30.6,215.9,32.7,211.8,36.8 M187.4,53h14.2v-6.4h-14.2v-9H203v-6.4h-22.2
					V72H203v-6.4h-15.6L187.4,53L187.4,53z M89.4,31.3V72h6.7V31.3H89.4z M60.2,72c7.5,0,13.2-1.7,17.1-5.2c4.4-3.9,6.7-9,6.7-15.2
					c0-6.4-2.3-11.6-6.8-15.5c-3.9-3.3-9.5-4.9-16.8-4.9h-8.8V72H60.2z M126.2,63.2l3.7,8.9h7.4l-17.3-40.9h-3.3L98.7,72h7.4l3.9-9
					c0.1-0.3,0.2-0.4,0.2-0.6c0.2,0.1,0.4,0.2,0.7,0.3c2.2,0.8,4.8,1.3,7.4,1.3c2.5,0,5-0.5,6.4-1c0.8-0.3,1-0.4,1.3-0.5
					C126,62.7,126.1,63,126.2,63.2z M169.3,43.7l5.1-4.4c-4.4-5.9-10.2-8.7-17.2-8.7c-11.7,0-21.2,9.4-21.2,21.1
					c0,11.5,9.5,20.9,20.9,20.9c2.9,0,5.7-0.7,8.4-1.8c2.6-1.2,4.9-2.8,6.7-4.9c1.8-2,2.9-4.3,3.6-6.7c0.6-2.1,0.9-4.6,0.7-7.6
					l-0.1-1.3h-18.3v6.4h11.3c-0.3,2.5-1.6,4.7-3.9,6.5c-2.4,2-5.3,3-8.5,3c-3.7,0-6.9-1.5-10-4.5c-2.8-2.8-4.1-6.1-4.1-10
					c0-4.1,1.4-7.6,4.4-10.5c2.8-2.8,6.1-4.2,10-4.2C162.1,37,166,39.3,169.3,43.7z M236.9,41.3c2.8,2.8,4.3,6.3,4.3,10.3
					s-1.4,7.5-4.3,10.4c-2.8,2.8-6.2,4.3-10.2,4.3c-8,0-14.4-6.6-14.4-14.6c0-4,1.4-7.5,4.3-10.4c2.8-2.8,6.2-4.2,10.2-4.2
					C230.8,37,234.1,38.5,236.9,41.3z M60.4,37.7c5.7,0,9.7,1.2,12.3,3.4c3,2.7,4.5,6.1,4.5,10.5c0,4.2-1.5,7.6-4.4,10.3
					c-2.5,2.4-6.7,3.7-12.5,3.7h-1.8V37.7H60.4z M112.5,56.7c0.1-0.3,0.3-0.7,0.4-0.9l5.1-12.5l5,12.6c0.1,0.3,0.3,0.6,0.3,0.8
					l-0.6,0.1c-1.4,0.4-3,0.7-4.7,0.7c-1.6,0-3.1-0.3-4.8-0.7C113.2,56.8,112.8,56.7,112.5,56.7z"/>
</svg>
