<?xml version="1.0" encoding="utf-8"?>
<!-- Generator: Adobe Illustrator 22.0.1, SVG Export Plug-In . SVG Version: 6.00 Build 0)  -->
<svg version="1.1" id="Layer_1" xmlns="http://www.w3.org/2000/svg" xmlns:xlink="http://www.w3.org/1999/xlink" x="0px" y="0px"
	 viewBox="0 0 300 101.9" style="enable-background:new 0 0 300 101.9;" xml:space="preserve">
<style type="text/css">
	.st0{fill:#606060;}
</style>
<g>
	<path class="st0" d="M147.2,40.7c-2.7-7.6-6.6-14.4-10.1-21.4c3.3,4.3,6.6,8.6,9.9,12.9c0.1-0.1,0.2-0.1,0.3-0.2
		c-1.3-7.3-5.5-13.3-8.8-19.7c1.1,1.4,2.2,2.9,3.2,4.3c1.1,1.6,2.1,3.2,3,4.8c0.9,1.6,1.7,3.3,2.5,4.9c0.1,0,0.3-0.1,0.4-0.1
		c-1.6-6-3.1-11.9-4.7-17.9c0,0,0.1,0,0.1,0c1.1,2.7,2.2,5.4,3.3,8c1.1,2.6,2.4,5.2,3.6,7.9c1.1-7.9,2.2-15.4,3.2-22.9
		c0.1,0,0.3,0,0.4,0c-0.7,7.8-2.2,15.5,0.2,23.7c2.2-5.6,5.2-10.4,9-14.7c-3.9,5.7-6.4,11.8-6.6,18.8c0.1,0.1,0.2,0.1,0.3,0.2
		c2.8-4,5.6-7.9,8.5-11.9c-3.7,7.5-7.4,15-9.9,22.9c0.2,0.1,0.2,0.2,0.3,0.2c4.6,0.3,47.9,4.9,52.8,5.8c1.9,0.4,3.9,0.9,5.8,1.3
		c0.7,0.1,1,0.5,0.9,1.2c-0.3,1.5-0.6,3-0.9,4.6c-0.4,2.4-0.9,4.8-1.2,7.2c-0.3,2.2-0.8,2.6-3,2.1c-3.1-0.7-49.2-6-53.6-5.9
		c-0.3,0-0.8,0.4-1,0.7c-0.9,1.3-1.8,2.7-2.8,4.3c-1-1.5-1.8-2.9-2.8-4.2c-0.2-0.3-0.8-0.7-1.2-0.7c-4.3-0.1-53,5.3-57,6.2
		c-1.5,0.3-1.8,0-1.9-1.5c0-1.3-0.3-2.7-0.6-4c-0.3-1.4-0.7-2.7-1-4.1c-0.4-1.5-0.7-3-1.2-4.5c-0.3-1-0.2-1.6,0.9-1.8
		c9-1.4,48-5.8,58.5-6.5C146.4,40.9,146.7,40.8,147.2,40.7z M136.9,52.7c0.3-0.2,0.5-0.3,0.7-0.5c1.9-1.6,1.5-5.8-0.7-6.7
		c-1.7-0.7-3.7,0-4.4,1.6c-0.9,2-0.2,4.9,1.5,5.5c0.9,0.3,1.5,0.9,2.1,1.6c0.9,1.1,2.4,0.8,3.1-0.6C138.1,54,137.3,53.8,136.9,52.7z
		 M121.9,51.4c-0.6,1.4-1.2,2.3-2.7,1.8c-0.1-0.6-0.2-1.3-0.2-2.1c0-0.7,0.5-1,1.2-0.6c0.2,0.1,0.4,0.4,0.6,0.5
		c0.1,0,0.2-0.1,0.3-0.1c-0.1-0.7-0.1-1.4-0.2-2.1c-0.7,0.4-1.2,0.7-2,1.1c-0.1-1.1-0.2-1.9-0.3-2.6c1.2-0.8,2.1,0,3.2,1
		c-0.1-0.9-0.1-1.5-0.2-2.1c-1.8,0.2-3.4,0.3-4.8,0.5c0.2,2.5,0.4,4.9,0.7,7.4c0.9-0.1,2-0.2,3.2-0.3
		C122.5,53.7,122.6,53.6,121.9,51.4z M153.7,45c0,2.1,0,4.1-0.1,6.1c0,0.2-0.8,0.7-1.2,0.6c-0.4-0.1-1.1-0.5-1.1-0.9
		c-0.1-1.9-0.1-3.9-0.1-5.9c-0.5,0-1.3,0-2,0c0.1,0.7,0.2,1.4,0.3,2.1c0,1.1-0.1,2.1,0.1,3.2c0.1,0.7,0.6,1.5,1.2,1.8
		c2.3,1.2,4.2-0.1,4.2-2.6c0-1.5,0-3,0-4.5C154.7,45,154.1,45,153.7,45z M194.5,56.1c0.4-0.8,0.5-1.8,1-1.9c0.6-0.2,1.7,0,2.1,0.4
		c0.3,0.4,0,1.4-0.1,2.2c0.6,0.1,1.3,0.3,2.1,0.4c-0.1-2.3-0.2-4.5-0.4-6.7c0-0.4-0.4-1-0.7-1.1c-0.3-0.1-0.9,0.2-1.2,0.5
		c-1.4,1.9-2.7,3.8-4,5.8C193.7,55.9,194.2,56,194.5,56.1z M103.8,48.6c0.7,0.2,1.1,0.4,1.6,0.6c0.3,0.1,0.5,0.4,0.8,0.5
		c0-0.3,0.1-0.6,0.1-0.9c0-0.2-0.1-0.5-0.2-0.9c-2.1,0.3-4.2,0.6-6.3,0.9c0.2,0.7,0.3,1.3,0.4,1.9c0.9-0.5,0.7-2,2.1-1.4
		c0.2,2.1,0.4,4.3,0.7,6.6c0.5-0.1,1.3-0.2,1.9-0.3C104.6,53.3,104.2,51.2,103.8,48.6z M183.9,52.1c-0.1-0.1-0.2-0.1-0.2-0.2
		c-0.8,0.6-1.4,2.2-2.9,1.1c0.3-2.1,0.6-4.3,0.9-6.5c-0.5-0.1-1.3-0.2-1.8-0.2c-0.3,2.5-0.5,4.8-0.8,7.4c1.4,0.2,3,0.3,4.6,0.5
		C183.7,53.3,183.8,52.7,183.9,52.1z M166.1,52.6c0.6,0,1.3,0.1,1.8,0.1c-0.1-2.6,0-5,0.4-7.4c-0.7,0-1.4,0-1.9,0
		C166.4,47.7,166.3,50.1,166.1,52.6z"/>
	<path class="st0" d="M137.1,49.4c-0.1,0.8-0.1,1.4-0.4,2c-0.2,0.4-0.7,0.9-1.1,0.9c-0.4,0-1.2-0.4-1.3-0.7
		c-0.2-1.5-0.3-3.1-0.3-4.7c0-0.3,0.7-0.8,1.1-0.8c0.4,0,1.1,0.4,1.3,0.7C136.8,47.6,137,48.6,137.1,49.4z"/>
	<path class="st0" d="M197.5,51c0,0.9,0,1.8,0,2.8c-0.6-0.2-1.1-0.3-1.8-0.5c0.6-0.9,1.1-1.7,1.6-2.5C197.4,50.9,197.5,51,197.5,51z
		"/>
	<path class="st0" d="M63.2,77.5c0-2.9,0-3.5,0-4.1c0-0.6-0.2-0.9-0.9-1.1c-0.2,0-0.5-0.1-0.7-0.1c-0.1,0-0.2,0-0.2-0.1
		c0-0.1,0.1-0.2,0.3-0.2c0.9,0,2.2,0.1,2.3,0.1c0.2,0,1.8-0.1,2.4-0.1c1.3,0,2.6,0.1,3.7,0.8c0.5,0.3,1.4,1.3,1.4,2.6
		c0,1.4-0.6,2.8-2.5,4.4c1.7,2,3.1,3.7,4.2,4.8c1.1,1.1,2,1.3,2.5,1.4c0.4,0.1,0.7,0.1,0.8,0.1c0.1,0,0.2,0.1,0.2,0.1
		c0,0.1-0.1,0.2-0.5,0.2h-1.4c-1.1,0-1.6-0.1-2.2-0.4c-0.9-0.4-1.6-1.4-2.7-2.8c-0.9-1-1.8-2.3-2.2-2.8c-0.1-0.1-0.1-0.1-0.3-0.1
		l-2.5,0c-0.1,0-0.1,0.1-0.1,0.2v0.5c0,1.8,0,3.3,0.1,4.1c0.1,0.5,0.2,1,0.8,1c0.3,0,0.7,0.1,0.9,0.1c0.1,0,0.2,0.1,0.2,0.1
		c0,0.1-0.1,0.2-0.3,0.2c-1.1,0-2.4-0.1-2.5-0.1c0,0-1.3,0.1-1.9,0.1c-0.2,0-0.3,0-0.3-0.2c0-0.1,0-0.1,0.2-0.1c0.2,0,0.4,0,0.6-0.1
		c0.4-0.1,0.5-0.5,0.6-1c0.1-0.8,0.1-2.3,0.1-4.1V77.5z M64.8,79.1c0,0.1,0,0.2,0.1,0.2c0.3,0.2,1.2,0.3,2.1,0.3
		c0.5,0,1.1-0.1,1.5-0.4c0.7-0.5,1.2-1.5,1.2-2.9c0-2.4-1.3-3.8-3.5-3.8c-0.6,0-1.2,0.1-1.4,0.1c-0.1,0-0.2,0.1-0.2,0.2V79.1z"/>
	<path class="st0" d="M80.6,78.8c0-2.5,0-2.9,0-3.4c0-0.5-0.2-0.8-0.8-0.9c-0.1,0-0.3,0-0.5,0c-0.1,0-0.3-0.1-0.3-0.1
		c0-0.1,0.1-0.2,0.3-0.2c0.4,0,1,0,2.1,0.1c0.1,0,3.7,0,4.1,0c0.4,0,0.6,0,0.8-0.1c0.1,0,0.1-0.1,0.2-0.1c0,0,0.1,0,0.1,0.1
		c0,0.1-0.1,0.4-0.2,0.9c0,0.3,0,0.6-0.1,1c0,0.2,0,0.3-0.1,0.3c-0.1,0-0.1-0.1-0.1-0.2c0-0.3-0.1-0.5-0.1-0.6
		c-0.1-0.4-0.3-0.5-1.3-0.6c-0.3,0-2.3,0-2.3,0c-0.1,0-0.1,0-0.1,0.2v4.3c0,0.1,0,0.2,0.1,0.2c0.2,0,2.3,0,2.7-0.1
		c0.5,0,0.8-0.1,0.9-0.3c0.1-0.1,0.1-0.2,0.2-0.2c0,0,0.1,0,0.1,0.1c0,0.1-0.1,0.5-0.1,1c-0.1,0.5-0.1,0.9-0.1,1.2
		c0,0.2-0.1,0.2-0.1,0.2c-0.1,0-0.1-0.1-0.1-0.2c0-0.1,0-0.3-0.1-0.5c-0.1-0.2-0.2-0.5-1-0.6c-0.5,0-2.1-0.1-2.4-0.1
		c-0.1,0-0.1,0.1-0.1,0.1v1.4c0,0.6,0,2.2,0,2.6c0,0.7,0.1,1.1,0.6,1.2c0.3,0.1,0.8,0.2,1.5,0.2c0.4,0,1,0,1.5-0.1
		c0.6-0.2,0.8-0.5,0.9-1.2c0-0.2,0.1-0.3,0.2-0.3c0.1,0,0.1,0.2,0.1,0.3c0,0.1-0.2,1.3-0.2,1.6c-0.1,0.4-0.2,0.4-0.9,0.4
		c-1.3,0-1.9,0-2.6,0c-0.7,0-1.6-0.1-2.4-0.1c-0.5,0-0.9,0.1-1.3,0.1c-0.2,0-0.3,0-0.3-0.1c0-0.1,0.1-0.1,0.2-0.1
		c0.1,0,0.3,0,0.4-0.1c0.4-0.1,0.6-0.3,0.7-1.5c0-0.6,0-1.4,0-2.9V78.8z"/>
	<path class="st0" d="M95.3,81.7c-0.1,0-0.2,0.1-0.2,0.2l-0.9,2.4c-0.2,0.5-0.3,1-0.3,1.3c0,0.3,0.2,0.5,0.7,0.5c0.1,0,0.1,0,0.1,0
		c0.2,0,0.2,0.1,0.2,0.1c0,0.1-0.2,0.1-0.3,0.1c-0.4,0-1.4-0.1-1.6-0.1c-0.2,0-1.1,0.1-2,0.1c-0.2,0-0.3,0-0.3-0.1
		c0-0.1,0.1-0.1,0.2-0.1c0.1,0,0.3,0,0.4,0c0.9-0.1,1.2-0.7,1.6-1.5l4.1-10c0.2-0.5,0.3-0.6,0.4-0.6c0.1,0,0.2,0.1,0.4,0.6
		c0.3,0.6,3.1,7.2,4.1,9.6c0.7,1.5,1.3,1.7,1.5,1.8c0.3,0.1,0.5,0.1,0.7,0.1c0.1,0,0.2,0,0.2,0.1c0,0.1-0.1,0.1-0.3,0.1
		c-0.2,0-1.7,0-3.1,0c-0.4,0-0.5,0-0.5-0.1c0-0.1,0.1-0.1,0.1-0.1c0.1,0,0.2-0.1,0.1-0.4l-1.6-3.8c0-0.1-0.1-0.1-0.2-0.1H95.3z
		 M98.8,81c0.1,0,0.1-0.1,0.1-0.1l-1.6-4.2c-0.1-0.3-0.1-0.3-0.2,0l-1.5,4.2c0,0.1,0,0.1,0,0.1H98.8z"/>
	<path class="st0" d="M109.7,81.7c0,2.2,0.1,3.3,0.4,3.6c0.3,0.3,0.7,0.4,2.1,0.4c0.9,0,1.7,0,2.2-0.5c0.2-0.3,0.3-0.7,0.4-0.9
		c0-0.2,0.1-0.2,0.2-0.2c0.1,0,0.1,0.1,0.1,0.2c0,0.2-0.1,1.3-0.2,1.7c-0.1,0.4-0.1,0.5-1.1,0.5c-1.4,0-2.9-0.1-4.9-0.1
		c-0.7,0-1.1,0.1-1.8,0.1c-0.2,0-0.3,0-0.3-0.2c0-0.1,0.1-0.1,0.2-0.1c0.2,0,0.3,0,0.5,0c0.3-0.1,0.5-0.4,0.5-0.9
		c0.1-0.7,0.1-2,0.1-3.5v-2.8c0-2.5,0-2.9,0-3.4c0-0.5-0.1-0.9-0.8-0.9c-0.1,0-0.3,0-0.5,0c-0.1,0-0.2-0.1-0.2-0.1
		c0-0.1,0.1-0.1,0.3-0.1c0.9,0,2.1,0.1,2.1,0.1c0.3,0,1.5-0.1,2.1-0.1c0.2,0,0.3,0.1,0.3,0.1s-0.1,0.1-0.2,0.1c-0.1,0-0.3,0-0.5,0
		c-0.6,0.1-0.7,0.4-0.7,0.9c0,0.5,0,0.9,0,3.4V81.7z"/>
	<path class="st0" d="M137.6,78c0,0,0.1,0,0.1-0.1v-0.4c0-2.9,0-3.5,0-4.1c0-0.6-0.2-0.9-0.7-1.1c-0.1,0-0.4-0.1-0.5-0.1
		c-0.1,0-0.1,0-0.1-0.1c0-0.1,0.1-0.2,0.3-0.2c0.7,0,1.7,0.1,1.8,0.1c0.1,0,1.1-0.1,1.5-0.1c0.2,0,0.3,0,0.3,0.2
		c0,0.1-0.1,0.1-0.1,0.1c-0.1,0-0.2,0-0.4,0.1c-0.4,0.1-0.5,0.4-0.6,1.1c0,0.6,0,1.1,0,4.1v3.3c0,1.8,0,3.3,0.1,4.1
		c0,0.5,0.1,1,0.6,1c0.2,0,0.6,0.1,0.7,0.1c0.1,0,0.1,0.1,0.1,0.1c0,0.1-0.1,0.2-0.3,0.2c-0.9,0-1.8-0.1-1.9-0.1
		c-0.1,0-1.1,0.1-1.5,0.1c-0.2,0-0.3,0-0.3-0.2c0-0.1,0-0.1,0.1-0.1c0.1,0,0.3,0,0.5-0.1c0.3-0.1,0.4-0.5,0.5-1
		c0.1-0.8,0.1-2.3,0.1-4.1v-2c0-0.1,0-0.1-0.1-0.1H131c0,0-0.1,0-0.1,0.1v2c0,1.8,0,3.3,0.1,4.1c0,0.5,0.1,1,0.6,1
		c0.2,0,0.6,0.1,0.7,0.1c0.1,0,0.1,0.1,0.1,0.1c0,0.1-0.1,0.2-0.3,0.2c-0.9,0-1.8-0.1-1.9-0.1c-0.1,0-1.1,0.1-1.5,0.1
		c-0.2,0-0.3,0-0.3-0.2c0-0.1,0-0.1,0.1-0.1c0.1,0,0.3,0,0.5-0.1c0.3-0.1,0.4-0.5,0.5-1c0.1-0.8,0.1-2.3,0.1-4.1v-3.3
		c0-2.9,0-3.5,0-4.1c0-0.6-0.2-0.9-0.7-1.1c-0.1,0-0.4-0.1-0.5-0.1c-0.1,0-0.1,0-0.1-0.1c0-0.1,0.1-0.2,0.3-0.2
		c0.7,0,1.7,0.1,1.8,0.1c0.1,0,1.1-0.1,1.5-0.1c0.2,0,0.3,0,0.3,0.2c0,0.1-0.1,0.1-0.1,0.1c-0.1,0-0.2,0-0.4,0.1
		c-0.4,0.1-0.5,0.4-0.6,1.1c0,0.6,0,1.1,0,4.1v0.4c0,0.1,0,0.1,0.1,0.1H137.6z"/>
	<path class="st0" d="M149.4,81.7c-0.1,0-0.2,0.1-0.2,0.2l-0.9,2.4c-0.2,0.5-0.3,1-0.3,1.3c0,0.3,0.2,0.5,0.7,0.5c0.1,0,0.1,0,0.1,0
		c0.2,0,0.2,0.1,0.2,0.1c0,0.1-0.2,0.1-0.3,0.1c-0.4,0-1.4-0.1-1.6-0.1c-0.2,0-1.1,0.1-2,0.1c-0.2,0-0.3,0-0.3-0.1
		c0-0.1,0.1-0.1,0.2-0.1c0.1,0,0.3,0,0.4,0c0.9-0.1,1.2-0.7,1.6-1.5l4.1-10c0.2-0.5,0.3-0.6,0.4-0.6c0.1,0,0.2,0.1,0.4,0.6
		c0.3,0.6,3.1,7.2,4.1,9.6c0.7,1.5,1.3,1.7,1.5,1.8c0.3,0.1,0.5,0.1,0.7,0.1c0.1,0,0.2,0,0.2,0.1c0,0.1-0.1,0.1-0.3,0.1
		c-0.2,0-1.7,0-3.1,0c-0.4,0-0.5,0-0.5-0.1c0-0.1,0.1-0.1,0.1-0.1c0.1,0,0.2-0.1,0.1-0.4l-1.6-3.8c0-0.1-0.1-0.1-0.2-0.1H149.4z
		 M152.9,81c0.1,0,0.1-0.1,0.1-0.1l-1.6-4.2c-0.1-0.3-0.1-0.3-0.2,0l-1.5,4.2c0,0.1,0,0.1,0,0.1H152.9z"/>
	<path class="st0" d="M162.1,84.8c-1.3-1.4-1.6-3.3-1.6-4.8c0-1.1,0.3-2.9,1.5-4.4c0.8-1,2.1-1.7,4.1-1.7c0.7,0,1.3,0.1,2,0.2
		c0.5,0.1,1,0.2,1.3,0.2c0.1,0,0.1,0.1,0.1,0.2c0,0.2,0,0.3-0.1,0.9c0,0.5,0,1.5,0,1.7c0,0.3,0,0.4-0.1,0.4c-0.1,0-0.1-0.1-0.1-0.4
		c0-0.5-0.2-1.3-0.6-1.6c-0.5-0.5-1.5-1-2.7-1c-1.7,0-2.5,0.6-2.9,1.1c-1,1.1-1.2,2.5-1.2,4.1c0,3.1,2.1,5.9,4.7,5.9
		c1,0,1.8-0.1,2.3-0.8c0.3-0.4,0.4-0.8,0.5-1.4c0-0.2,0.1-0.3,0.2-0.3c0.1,0,0.1,0.1,0.1,0.3c0,0.2-0.2,1.7-0.3,2.1
		c-0.1,0.3-0.1,0.4-0.4,0.5c-0.5,0.3-1.6,0.4-2.4,0.4C164.6,86.5,163.2,86,162.1,84.8z"/>
	<path class="st0" d="M175.5,78.8c0-2.5,0-2.9,0-3.5c0-0.5-0.2-0.8-0.6-0.9c-0.2,0-0.3,0-0.5-0.1c-0.1,0-0.2-0.1-0.2-0.1
		c0-0.1,0.1-0.1,0.3-0.1c0.6,0,1.8,0.1,1.9,0.1c0.1,0,1.3-0.1,1.8-0.1c0.2,0,0.3,0,0.3,0.1c0,0.1-0.1,0.1-0.2,0.1
		c-0.1,0-0.2,0-0.4,0c-0.6,0.1-0.7,0.4-0.7,0.9c0,0.5,0,0.9,0,3.4v2.8c0,1.5,0,2.8,0.1,3.5c0.1,0.5,0.2,0.8,0.7,0.9
		c0.3,0.1,0.7,0.1,0.8,0.1c0.2,0,0.2,0.1,0.2,0.1c0,0.1-0.1,0.1-0.3,0.1c-1,0-2.2-0.1-2.3-0.1c-0.1,0-1.3,0.1-1.8,0.1
		c-0.2,0-0.3,0-0.3-0.1c0-0.1,0.1-0.1,0.3-0.1c0.1,0,0.3,0,0.5-0.1c0.3-0.1,0.4-0.5,0.5-0.9c0.1-0.7,0.1-2,0.1-3.4V78.8z"/>
	<path class="st0" d="M185,78.8c0-2.5,0-2.9,0-3.4c0-0.5-0.2-0.8-0.9-0.9c-0.1,0-0.4,0-0.6,0c-0.2,0-0.3-0.1-0.3-0.1
		c0-0.1,0.1-0.2,0.4-0.2c0.5,0,1.1,0,2.5,0.1c0.1,0,4.5,0,4.9,0c0.5,0,0.8,0,0.9-0.1c0.1,0,0.2-0.1,0.3-0.1c0,0,0.1,0,0.1,0.1
		c0,0.1-0.1,0.4-0.2,0.9c0,0.3,0,0.6-0.1,1c0,0.2,0,0.3-0.2,0.3c-0.1,0-0.2-0.1-0.2-0.2c0-0.3-0.1-0.5-0.2-0.6
		c-0.1-0.4-0.4-0.5-1.6-0.6c-0.3,0-2.7,0-2.8,0c-0.1,0-0.1,0-0.1,0.2v4.3c0,0.1,0,0.2,0.1,0.2c0.3,0,2.8,0,3.3-0.1
		c0.6,0,0.9-0.1,1.1-0.3c0.1-0.1,0.2-0.2,0.3-0.2c0,0,0.1,0,0.1,0.1c0,0.1-0.1,0.5-0.2,1c-0.1,0.5-0.1,0.9-0.1,1.2
		c0,0.2-0.1,0.2-0.2,0.2c-0.1,0-0.1-0.1-0.1-0.2c0-0.1,0-0.3-0.1-0.5c-0.1-0.2-0.2-0.5-1.2-0.6c-0.6,0-2.5-0.1-2.9-0.1
		c-0.1,0-0.2,0.1-0.2,0.1v1.4c0,0.6,0,2.2,0,2.6c0,0.7,0.2,1.1,0.7,1.2c0.4,0.1,0.9,0.2,1.8,0.2c0.5,0,1.2,0,1.8-0.1
		c0.7-0.2,0.9-0.5,1.1-1.2c0-0.2,0.1-0.3,0.2-0.3c0.1,0,0.1,0.2,0.1,0.3c0,0.1-0.2,1.3-0.3,1.6c-0.1,0.4-0.3,0.4-1.1,0.4
		c-1.6,0-2.3,0-3.1,0c-0.9,0-2-0.1-2.9-0.1c-0.6,0-1,0.1-1.6,0.1c-0.2,0-0.3,0-0.3-0.1c0-0.1,0.1-0.1,0.2-0.1c0.1,0,0.3,0,0.5-0.1
		c0.4-0.1,0.7-0.3,0.8-1.5c0-0.6,0-1.4,0-2.9V78.8z"/>
	<path class="st0" d="M197.9,74.7c0-0.6,0-0.8,0.2-0.8c0.1,0,0.4,0.4,0.5,0.5c0.1,0.2,2.3,2.9,4.5,5.6c1.2,1.4,2.8,3.4,3.2,3.8
		l-0.2-7.9c0-1-0.1-1.4-0.5-1.5c-0.3-0.1-0.5-0.1-0.6-0.1c-0.2,0-0.2-0.1-0.2-0.2c0-0.1,0.1-0.1,0.3-0.1c0.7,0,1.3,0.1,1.5,0.1
		c0.2,0,0.6-0.1,1.3-0.1c0.2,0,0.2,0,0.2,0.1c0,0.1,0,0.1-0.1,0.2c-0.1,0-0.2,0-0.4,0.1c-0.4,0.1-0.5,0.3-0.5,1.4l0,9.5
		c0,0.9,0,1-0.1,1c-0.1,0-0.3-0.1-1-1c-0.1,0-2.3-2.6-3.6-4.3c-1.6-2-3.2-4-3.6-4.5l0.2,7.4c0,1.3,0.1,1.8,0.5,1.9
		c0.3,0.1,0.5,0.1,0.6,0.1c0.1,0,0.2,0.1,0.2,0.1c0,0.1-0.1,0.1-0.3,0.1c-0.9,0-1.4-0.1-1.5-0.1s-0.7,0.1-1.4,0.1
		c-0.1,0-0.2,0-0.2-0.1c0-0.1,0.1-0.1,0.2-0.1c0.1,0,0.3,0,0.5-0.1c0.3-0.1,0.4-0.6,0.4-2C197.9,74.9,197.9,77.8,197.9,74.7z"/>
	<path class="st0" d="M212.6,78.8c0-2.5,0-3,0-3.5c0-0.5-0.2-0.8-0.7-0.9c-0.1,0-0.4,0-0.5,0c-0.1,0-0.2-0.1-0.2-0.1
		c0-0.1,0.1-0.2,0.3-0.2c0.7,0,1.8,0.1,1.9,0.1c0.1,0,1-0.1,2-0.1c1.6,0,4.5-0.2,6.3,1.9c0.8,0.8,1.5,2.2,1.5,4.1
		c0,2-0.8,3.6-1.7,4.5c-0.7,0.7-2,1.9-4.7,1.9c-0.7,0-1.5,0-2.2-0.1c-0.7,0-1.2-0.1-1.3-0.1c0,0-0.3,0-0.6,0c-0.3,0-0.8,0-1,0
		c-0.2,0-0.2,0-0.2-0.1c0-0.1,0.1-0.1,0.2-0.1s0.3,0,0.4-0.1c0.3-0.1,0.4-0.5,0.5-0.9c0.1-0.7,0.1-2,0.1-3.5V78.8z M214.1,80.4
		c0,1.7,0,3.2,0,3.5c0,0.6,0.1,1.1,0.2,1.3c0.2,0.3,0.8,0.7,2.6,0.7c1.5,0,2.8-0.5,3.7-1.5c0.8-0.8,1.2-2.2,1.2-3.8
		c0-2.1-0.9-3.4-1.5-4.1c-1.5-1.6-3.2-1.8-5-1.8c-0.2,0-0.8,0.1-0.9,0.1c-0.1,0.1-0.2,0.2-0.2,0.3c0,0.5,0,2.2,0,3.3V80.4z"/>
	<path class="st0" d="M229.4,81.7c-0.1,0-0.2,0.1-0.2,0.2l-0.9,2.4c-0.2,0.5-0.3,1-0.3,1.3c0,0.3,0.2,0.5,0.7,0.5c0.1,0,0.1,0,0.1,0
		c0.2,0,0.2,0.1,0.2,0.1c0,0.1-0.2,0.1-0.3,0.1c-0.4,0-1.4-0.1-1.6-0.1c-0.2,0-1.1,0.1-2,0.1c-0.2,0-0.3,0-0.3-0.1
		c0-0.1,0.1-0.1,0.2-0.1c0.1,0,0.3,0,0.4,0c0.9-0.1,1.2-0.7,1.6-1.5l4.1-10c0.2-0.5,0.3-0.6,0.4-0.6c0.1,0,0.2,0.1,0.4,0.6
		c0.3,0.6,3.1,7.2,4.1,9.6c0.7,1.5,1.3,1.7,1.5,1.8c0.3,0.1,0.5,0.1,0.7,0.1c0.1,0,0.2,0,0.2,0.1c0,0.1-0.1,0.1-0.3,0.1
		c-0.2,0-1.7,0-3.1,0c-0.4,0-0.5,0-0.5-0.1c0-0.1,0.1-0.1,0.1-0.1c0.1,0,0.2-0.1,0.1-0.4l-1.6-3.8c0-0.1-0.1-0.1-0.2-0.1H229.4z
		 M232.9,81c0.1,0,0.1-0.1,0.1-0.1l-1.6-4.2c-0.1-0.3-0.1-0.3-0.2,0l-1.5,4.2c0,0.1,0,0.1,0,0.1H232.9z"/>
</g>
</svg>
