<svg version="1.1" xmlns="http://www.w3.org/2000/svg" xmlns:xlink="http://www.w3.org/1999/xlink" x="0px" y="0px"
	 viewBox="0 0 300 101.9" style="enable-background:new 0 0 300 101.9;" xml:space="preserve">
<g>
	<polygon  points="68.7,82.9 68.7,78.7 72.7,78.7 72.7,82.9 74.8,82.9 74.8,73.3 72.6,73.3 72.6,77.1 68.7,77.1
		68.7,73.3 66.5,73.3 66.5,82.9 	"/>
	<path  d="M93.3,73.3v5.2c0,1.6-0.1,3.1-2.1,3.1c-2.1,0-2.1-1.5-2.1-3.1v-5.2h-2.1v6c0,2.6,1.9,3.8,4.3,3.8
		s4.3-1.2,4.3-3.8v-6H93.3z"/>
	<path  d="M114.2,79.4v2c-0.5,0.2-1,0.3-1.9,0.3c-2,0-2.8-1.4-2.8-3.5c0-2.1,0.8-3.5,2.7-3.5c1.2,0,2,0.8,2,1.6h2.1
		c0-1.9-1.7-3.1-4.2-3.1c-2,0-4.7,1.2-4.7,5c0,3.9,2.7,5,5,5c2,0,3.3-0.4,4-0.8v-4.6h-4v1.6H114.2z"/>
	<path  d="M211.7,75.9c0-2-1.9-3-3.7-3s-3.8,1.1-3.8,3c0,1.4,1,2.1,2.4,2.5c0.4,0.1,1.2,0.3,1.5,0.4
		c1.3,0.3,1.8,0.7,1.8,1.5c0,1-1,1.4-1.6,1.4c-1.5,0-2.1-0.9-2.1-2h-2.1c0,2.1,1.5,3.4,4.2,3.4c2.1,0,3.9-1.1,3.9-3.1
		c0-1.5-1.1-2.3-2.7-2.7c-0.5-0.2-1-0.3-1.5-0.4c-1.2-0.3-1.6-0.7-1.6-1.4c0-0.7,0.5-1.3,1.6-1.3c1.1,0,1.7,0.7,1.7,1.7
		C209.8,75.9,211.7,75.9,211.7,75.9z"/>
	<path  d="M232.4,75.9c0-2-1.9-3-3.7-3c-1.8,0-3.8,1.1-3.8,3c0,1.4,1,2.1,2.4,2.5c0.4,0.1,1.2,0.3,1.5,0.4
		c1.3,0.3,1.8,0.7,1.8,1.5c0,1-1,1.4-1.6,1.4c-1.5,0-2.1-0.9-2.1-2h-2.1c0,2.1,1.5,3.4,4.2,3.4c2.1,0,3.9-1.1,3.9-3.1
		c0-1.5-1.1-2.3-2.7-2.7c-0.5-0.2-1-0.3-1.5-0.4c-1.2-0.3-1.6-0.7-1.6-1.4c0-0.7,0.5-1.3,1.6-1.3c1.1,0,1.7,0.7,1.7,1.7
		C230.3,75.9,232.4,75.9,232.4,75.9z"/>
	<path  d="M132.9,83.2c3.3,0,4.8-2.2,4.8-5.2c0-2.9-1.5-5.2-4.8-5.2s-4.8,2.2-4.8,5.2S129.6,83.2,132.9,83.2 M132.9,74.5
		c2.1,0,2.5,1.9,2.5,3.6c0,1.7-0.4,3.6-2.5,3.6c-2.1,0-2.5-1.9-2.5-3.6C130.5,76.4,130.8,74.5,132.9,74.5"/>
	<path  d="M166.1,83c2,0,3.8-0.9,3.8-2.7c0-1.5-1.2-2.3-2.3-2.4c0.8-0.1,1.9-0.9,1.9-2.1c0-1.7-1.4-2.6-3.4-2.6h-4.2v9.8
		L166.1,83L166.1,83z M163.9,81.4v-2.8h1.9c0.9,0,1.7,0.3,1.7,1.4c0,1-0.9,1.5-1.7,1.5C165.8,81.4,163.9,81.4,163.9,81.4z
		 M163.9,77.2v-2.5h2c0.9,0,1.4,0.5,1.4,1.3c0,0.8-0.7,1.2-1.5,1.2H163.9z"/>
	<path  d="M186.9,83.3c3.4,0,4.8-2.2,4.8-5.2c0-2.9-1.5-5.2-4.8-5.2c-3.4,0-4.8,2.2-4.8,5.2
		C182.1,81,183.6,83.3,186.9,83.3 M186.9,74.4c2.1,0,2.6,1.9,2.6,3.6c0,1.7-0.4,3.6-2.6,3.6c-2.1,0-2.6-1.9-2.6-3.6
		C184.3,76.3,184.8,74.4,186.9,74.4"/>
	<path  d="M195.8,50.8c0.4,5-1.7,14.2-15.8,14.8c-6.2,0.3-14-1.7-17.1-3.1V50.5h1.5c0.3,1.5,3.3,12.5,13.5,13
		c5.9,0.3,10.5-2.2,10.6-7.1c0.2-5.8-6.2-7.7-11.9-10c-6.4-2.6-12.7-5.2-13.6-12.2c-1-8.2,6.5-13.7,15.2-13.4
		c4.8,0.2,9.5,1.4,13.2,2.8v10.1h-1.5c-0.9-5.5-4.1-10.7-11.6-11.1c-4.4-0.3-8.3,1.4-8.3,6.1s7.9,6.7,13.7,8.9
		C189.4,39.9,195.1,43,195.8,50.8"/>
	<path  d="M235,50.8c0.4,5-1.7,14.2-15.8,14.8c-6.2,0.3-14-1.7-17.1-3.1V50.5h1.5c0.3,1.5,3.3,12.5,13.5,13
		c5.9,0.3,10.5-2.2,10.6-7.1c0.2-5.8-6.2-7.7-11.9-10c-6.4-2.6-12.7-5.2-13.6-12.2c-1-8.2,6.5-13.7,15.2-13.4
		c4.8,0.2,9.5,1.4,13.2,2.8v10.1H229c-0.9-5.5-4.1-10.7-11.6-11.1c-4.4-0.3-8.3,1.4-8.3,6.1s7.9,6.7,13.7,8.9
		C228.6,39.9,234.3,43,235,50.8"/>
	<path  d="M110.5,43.2c0-12.6,10.2-22.9,22.9-22.9s22.9,10.2,22.9,22.9S146,66.1,133.4,66.1
		C120.7,66.1,110.5,55.8,110.5,43.2 M133.4,64.2c8.9-0.1,12-11.5,12-21s-3.9-21.1-12-21.1c-8.6,0-12,11.6-12,21.1
		S124.4,64.3,133.4,64.2"/>
	<path  d="M68.3,61.3c0,1.3-1.5,1.9-2.8,1.9h-1v1.6h23.3c8.2,0,16.9-3.8,17-12.2c0.1-9.7-9.8-11.3-12.8-11.6
		c4.9-0.8,10.6-4.8,10.3-10.7c-0.3-6.2-6.8-9-13-9H64.8V23H66c0.9,0,2.4,0.3,2.4,1.6L68.3,61.3L68.3,61.3z M78.3,63.1V42.2h5.8
		c6.4,0,9.9,4.6,10.1,9.8c0.3,6.3-4.3,11.1-10.1,11.1H78.3z M78.3,40.5V23h4.9c4.7,0,8.6,3,8.9,8.4c0.2,5.2-3.7,9.1-8.6,9.1
		C83.4,40.5,78.3,40.5,78.3,40.5z"/>
</g>
</svg>
