<?xml version="1.0" encoding="utf-8"?>
<!-- Generator: Adobe Illustrator 22.0.1, SVG Export Plug-In . SVG Version: 6.00 Build 0)  -->
<svg version="1.1" id="Layer_1" xmlns="http://www.w3.org/2000/svg" xmlns:xlink="http://www.w3.org/1999/xlink" x="0px" y="0px"
	 viewBox="0 0 300 101.9" style="enable-background:new 0 0 300 101.9;" xml:space="preserve">
<style type="text/css">
	.st0{fill:#606060;}
</style>
<g>
	<path class="st0" d="M113.9,73.3c0-3.4,0-4,0-4.8c0-0.8-0.2-1.1-1-1.3c-0.2,0-0.6-0.1-0.9-0.1c-0.2,0-0.4,0-0.4-0.2
		c0-0.2,0.2-0.2,0.5-0.2c1.2,0,2.6,0.1,3.2,0.1c0.9,0,2.2-0.1,3.3-0.1c2.8,0,3.8,0.9,4.2,1.3c0.5,0.5,1.1,1.5,1.1,2.7
		c0,3.2-2.3,5.4-5.5,5.4c-0.1,0-0.4,0-0.5,0c-0.1,0-0.3,0-0.3-0.2c0-0.2,0.2-0.2,0.6-0.2c1.3,0,3-1.4,3-3.7c0-0.7-0.1-2.2-1.3-3.4
		c-0.8-0.7-1.7-0.9-2.2-0.9c-0.3,0-0.7,0-0.9,0.1c-0.1,0-0.2,0.2-0.2,0.4v9c0,2.1,0,3.8,0.1,4.8c0.1,0.6,0.2,1.1,0.9,1.2
		c0.3,0,0.8,0.1,1.1,0.1c0.2,0,0.4,0.1,0.4,0.2c0,0.2-0.2,0.2-0.4,0.2c-1.5,0-2.9-0.1-3.5-0.1c-0.5,0-1.9,0.1-2.8,0.1
		c-0.3,0-0.5-0.1-0.5-0.2c0-0.1,0.1-0.2,0.4-0.2c0.3,0,0.6,0,0.8-0.1c0.4-0.1,0.6-0.6,0.7-1.2c0.1-0.9,0.1-2.7,0.1-4.8V73.3z"/>
	<path class="st0" d="M128.7,73.3c0-3.4,0-4,0-4.8c0-0.8-0.3-1.1-0.8-1.3c-0.2-0.1-0.5-0.1-0.8-0.1c-0.2,0-0.4,0-0.4-0.2
		c0-0.1,0.2-0.2,0.5-0.2c0.9,0,2.3,0.1,2.9,0.1c0.6,0,1.9-0.1,2.7-0.1c0.3,0,0.5,0,0.5,0.2c0,0.2-0.1,0.2-0.4,0.2
		c-0.2,0-0.4,0-0.7,0.1c-0.6,0.1-0.8,0.5-0.8,1.3c0,0.7,0,1.3,0,4.8v4c0,2.2,0,4,0.1,4.9c0.1,0.6,0.2,1,0.9,1.1
		c0.3,0,0.8,0.1,1.1,0.1c0.2,0,0.4,0.1,0.4,0.2c0,0.2-0.2,0.2-0.4,0.2c-1.5,0-2.9-0.1-3.5-0.1c-0.5,0-1.9,0.1-2.8,0.1
		c-0.3,0-0.4-0.1-0.4-0.2c0-0.1,0.1-0.2,0.4-0.2c0.3,0,0.6,0,0.8-0.1c0.4-0.1,0.6-0.5,0.7-1.1c0.1-0.9,0.1-2.7,0.1-4.9V73.3z"/>
	<path class="st0" d="M139.3,80.7c0,1.8,0.3,2.3,0.8,2.5c0.4,0.1,0.8,0.2,1.2,0.2c0.2,0,0.4,0,0.4,0.2c0,0.2-0.2,0.2-0.5,0.2
		c-1.5,0-2.4-0.1-2.8-0.1c-0.2,0-1.3,0.1-2.4,0.1c-0.3,0-0.5,0-0.5-0.2c0-0.1,0.1-0.2,0.4-0.2c0.3,0,0.7,0,1-0.1
		c0.6-0.2,0.7-0.8,0.7-2.8l0.2-13.3c0-0.4,0.1-0.8,0.3-0.8c0.2,0,0.4,0.3,0.8,0.7c0.3,0.3,3.7,4,7,7.2c1.5,1.5,4.6,4.8,4.9,5.1h0.1
		l-0.2-10.1c0-1.4-0.2-1.8-0.8-2c-0.3-0.1-0.9-0.1-1.2-0.1c-0.3,0-0.4-0.1-0.4-0.2c0-0.2,0.2-0.2,0.6-0.2c1.2,0,2.2,0.1,2.7,0.1
		c0.2,0,1.1-0.1,2.2-0.1c0.3,0,0.5,0,0.5,0.2c0,0.1-0.1,0.2-0.4,0.2c-0.2,0-0.4,0-0.7,0.1c-0.6,0.2-0.8,0.7-0.8,1.9l-0.2,14.2
		c0,0.5-0.1,0.7-0.3,0.7c-0.2,0-0.5-0.2-0.8-0.5c-1.4-1.3-4.3-4.3-6.6-6.6c-2.4-2.4-4.9-5.2-5.3-5.7H139L139.3,80.7z"/>
	<path class="st0" d="M167.9,83.5c-0.9,0.3-2.3,0.6-3.5,0.6c-6.6,0-9.1-4.9-9.1-8.9c0-3.7,2.6-8.7,9.2-8.7c5.4,0,9.1,3.3,9.1,8.5
		c0,4-2.5,6.4-3.9,7.4l4.5,2.3c4.7,2.4,7.7,2.7,9.3,2.7c1.2,0,2.8-0.2,4.4-0.8c0.1,0,0.2-0.1,0.3-0.1c0.1,0,0.2,0.1,0.2,0.2
		c0,0.1-0.1,0.2-0.3,0.3c-1.3,0.7-3.9,1.7-7.1,1.7c-3.4,0-5.8-0.9-9.5-3.1L167.9,83.5z M170.4,75.6c0-5.4-3.4-8-6.5-8
		c-2.9,0-5.6,1.9-5.6,7.1c0,5.3,3.2,8.3,6.9,8.3C167,82.9,170.4,82.1,170.4,75.6z"/>
	<g>
		<path class="st0" d="M159.4,94.2c0,1.6,0,2.5,0.3,2.7c0.2,0.2,0.5,0.3,1.5,0.3c0.6,0,1.7,0,2-0.3c0.2-0.2,0.5-0.5,0.6-0.8
			c0.1-0.1,0.2-0.2,0.2-0.2c0.1,0,0.1,0.1,0.1,0.2c0,0.1-0.4,0.8-0.6,1.2c-0.2,0.2-0.5,0.5-1.1,0.5c-0.9,0-1.7,0-2.3,0
			c-0.6,0-1,0-1.5,0c-0.1,0-0.4,0-0.7,0c-0.3,0-0.6,0-0.8,0c-0.2,0-0.2,0-0.2-0.1c0-0.1,0-0.1,0.2-0.1c0.2,0,0.3,0,0.4-0.1
			c0.2-0.1,0.3-0.3,0.4-0.7c0.1-0.5,0.1-1.5,0.1-2.7v-2.2c0-1.9,0-2.3,0-2.7c0-0.4-0.1-0.6-0.5-0.7c-0.1,0-0.2,0-0.4,0
			c-0.1,0-0.2,0-0.2-0.1c0-0.1,0.1-0.1,0.3-0.1c0.6,0,1.3,0,1.7,0c0.3,0,1.2,0,1.7,0c0.2,0,0.3,0,0.3,0.1c0,0.1-0.1,0.1-0.2,0.1
			c-0.1,0-0.3,0-0.5,0c-0.3,0.1-0.4,0.3-0.5,0.7c0,0.4,0,0.8,0,2.7V94.2z"/>
		<path class="st0" d="M167.1,94.5c-0.1,0-0.1,0-0.1,0.1l-0.7,1.8c-0.1,0.3-0.2,0.6-0.2,0.8c0,0.2,0.1,0.4,0.5,0.4h0.2
			c0.1,0,0.2,0,0.2,0.1c0,0.1-0.1,0.1-0.2,0.1c-0.4,0-0.9,0-1.3,0c-0.1,0-0.8,0-1.4,0c-0.2,0-0.2,0-0.2-0.1c0-0.1,0-0.1,0.1-0.1
			c0.1,0,0.3,0,0.4,0c0.6-0.1,0.8-0.5,1-1.2l3.1-8c0.1-0.4,0.2-0.5,0.3-0.5c0.1,0,0.2,0.1,0.3,0.4c0.3,0.7,2.3,5.9,3,7.9
			c0.5,1.2,0.8,1.3,1.1,1.4c0.2,0,0.4,0.1,0.5,0.1c0.1,0,0.2,0,0.2,0.1c0,0.1-0.1,0.1-0.6,0.1c-0.4,0-1.3,0-2.3,0
			c-0.2,0-0.4,0-0.4-0.1c0-0.1,0-0.1,0.2-0.1c0.1,0,0.2-0.1,0.1-0.3l-1-2.7c0-0.1-0.1-0.1-0.1-0.1H167.1z M169.6,93.9
			C169.7,93.9,169.7,93.9,169.6,93.9l-1-3.2c0-0.1,0-0.1-0.1-0.1s-0.1,0.1-0.1,0.1l-1.1,3.1c0,0.1,0,0.1,0,0.1H169.6z"/>
	</g>
	<path class="st0" d="M115.5,88.9l-1.9,0.1c-0.7,0-1,0.1-1.2,0.4c-0.1,0.2-0.2,0.3-0.2,0.5c0,0.1-0.1,0.2-0.1,0.2
		c-0.1,0-0.1-0.1-0.1-0.2c0-0.2,0.2-1.4,0.3-1.5c0-0.2,0.1-0.2,0.2-0.2c0.1,0,0.2,0.1,0.5,0.2c0.4,0,0.9,0.1,1.3,0.1h5
		c0.4,0,0.7,0,0.9-0.1c0.2,0,0.3-0.1,0.3-0.1c0.1,0,0.1,0.1,0.1,0.3c0,0.3,0,1.2,0,1.5c0,0.1,0,0.2-0.1,0.2c-0.1,0-0.1-0.1-0.1-0.3
		l0-0.1c0-0.3-0.4-0.7-1.5-0.7l-1.6,0v5.3c0,1.2,0,2.2,0.1,2.8c0,0.4,0.1,0.6,0.5,0.7c0.2,0,0.5,0.1,0.6,0.1c0.1,0,0.2,0,0.2,0.1
		c0,0.1-0.1,0.1-0.2,0.1c-0.8,0-1.6,0-2,0c-0.3,0-1.1,0-1.6,0c-0.2,0-0.3,0-0.3-0.1c0-0.1,0.1-0.1,0.2-0.1c0.2,0,0.3,0,0.5-0.1
		c0.3-0.1,0.3-0.3,0.4-0.7c0.1-0.5,0.1-1.6,0.1-2.7V88.9z"/>
	<path class="st0" d="M122.7,91.9c0-2,0-2.3,0-2.7c0-0.4-0.1-0.6-0.5-0.7c-0.1,0-0.3,0-0.5,0c-0.1,0-0.2,0-0.2-0.1
		c0-0.1,0.1-0.1,0.3-0.1c0.3,0,0.7,0,1,0c0.3,0,0.6,0,0.8,0c0.4,0,2.9,0,3.2,0c0.2,0,0.4-0.1,0.5-0.1c0.1,0,0.1-0.1,0.2-0.1
		c0.1,0,0.1,0.1,0.1,0.1c0,0.1-0.1,0.2-0.1,0.8c0,0.1,0,0.7-0.1,0.8c0,0.1,0,0.1-0.1,0.1c-0.1,0-0.1-0.1-0.1-0.2
		c0-0.1,0-0.3-0.1-0.5c-0.1-0.2-0.2-0.4-0.9-0.5c-0.2,0-1.6-0.1-1.8-0.1c-0.1,0-0.1,0-0.1,0.1v3.3c0,0.1,0,0.1,0.1,0.1
		c0.3,0,1.7,0,2,0c0.3,0,0.5-0.1,0.6-0.2c0.1-0.1,0.1-0.2,0.2-0.2c0.1,0,0.1,0,0.1,0.1c0,0.1-0.1,0.3-0.1,0.9c0,0.3-0.1,0.8-0.1,0.9
		c0,0.1,0,0.2-0.1,0.2c-0.1,0-0.1-0.1-0.1-0.1c0-0.1,0-0.3-0.1-0.5c-0.1-0.3-0.2-0.4-0.7-0.5c-0.2,0-1.5,0-1.8,0
		c-0.1,0-0.1,0.1-0.1,0.1v1c0,0.4,0,1.6,0,2c0,0.9,0.2,1.1,1.5,1.1c0.3,0,0.9,0,1.2-0.2c0.3-0.2,0.5-0.4,0.6-1
		c0-0.1,0.1-0.2,0.1-0.2c0.1,0,0.1,0.1,0.1,0.2c0,0.3-0.1,1.2-0.2,1.4c-0.1,0.3-0.2,0.3-0.7,0.3c-1,0-1.7,0-2.2,0
		c-0.5,0-0.9,0-1.3,0c-0.1,0-0.4,0-0.7,0c-0.3,0-0.6,0-0.9,0c-0.2,0-0.3,0-0.3-0.1c0-0.1,0.1-0.1,0.2-0.1c0.2,0,0.3,0,0.5-0.1
		c0.3-0.1,0.3-0.3,0.4-0.7c0.1-0.5,0.1-1.6,0.1-2.7V91.9z"/>
	<path class="st0" d="M136.3,97.8c-0.5,0.2-1.3,0.3-2,0.3c-3.7,0-5.2-2.8-5.2-5.1c0-2.1,1.5-5,5.2-5c3,0,5.2,1.9,5.2,4.9
		c0,2.3-1.4,3.7-2.2,4.2l2.6,1.3c2.7,1.4,4.4,1.5,5.2,1.5c0.7,0,1.6-0.1,2.5-0.4c0.1,0,0.1-0.1,0.2-0.1c0.1,0,0.1,0.1,0.1,0.1
		c0,0.1-0.1,0.1-0.2,0.2c-0.8,0.4-2.2,1-4,1c-1.9,0-3.3-0.5-5.4-1.7L136.3,97.8z M137.7,93.3c0-3.1-1.9-4.6-3.7-4.6
		c-1.7,0-3.2,1.1-3.2,4.1c0,3.1,1.8,4.8,3.9,4.8C135.8,97.5,137.7,97,137.7,93.3z"/>
	<path class="st0" d="M141.5,91.9c0-2,0-2.3,0-2.7c0-0.4-0.1-0.6-0.5-0.7c-0.1,0-0.3,0-0.5,0c-0.1,0-0.2,0-0.2-0.1
		c0-0.1,0.1-0.1,0.3-0.1c0.7,0,1.5,0,1.9,0c0.3,0,1.1,0,1.6,0c0.2,0,0.3,0,0.3,0.1c0,0.1-0.1,0.1-0.2,0.1c-0.1,0-0.2,0-0.4,0
		c-0.3,0.1-0.4,0.3-0.5,0.7c0,0.4,0,0.8,0,2.7v1.8c0,1.9,0.4,2.6,1,3.2c0.6,0.5,1.2,0.5,1.6,0.5c0.6,0,1.2-0.2,1.8-0.7
		c0.7-0.7,0.7-1.9,0.7-3.2v-1.6c0-2,0-2.3,0-2.7c0-0.4-0.1-0.6-0.5-0.7c-0.1,0-0.3,0-0.5,0c-0.1,0-0.2,0-0.2-0.1
		c0-0.1,0.1-0.1,0.3-0.1c0.7,0,1.5,0,1.5,0c0.2,0,1,0,1.5,0c0.2,0,0.3,0,0.3,0.1c0,0.1-0.1,0.1-0.2,0.1c-0.1,0-0.2,0-0.4,0
		c-0.3,0.1-0.4,0.3-0.5,0.7c0,0.4,0,0.8,0,2.7v1.4c0,1.4-0.1,2.9-1.2,3.9c-0.9,0.8-1.8,0.9-2.7,0.9c-0.7,0-1.9,0-2.8-0.9
		c-0.7-0.6-1.1-1.5-1.1-3.4V91.9z"/>
	<path class="st0" d="M152.7,91.9c0-2,0-2.3,0-2.7c0-0.4-0.2-0.7-0.4-0.7c-0.1,0-0.3-0.1-0.5-0.1c-0.1,0-0.2,0-0.2-0.1
		c0-0.1,0.1-0.1,0.3-0.1c0.5,0,1.3,0,1.7,0c0.3,0,1.1,0,1.6,0c0.2,0,0.3,0,0.3,0.1c0,0.1-0.1,0.1-0.2,0.1c-0.1,0-0.2,0-0.4,0
		c-0.3,0.1-0.4,0.3-0.5,0.7c0,0.4,0,0.8,0,2.7v2.3c0,1.2,0,2.3,0.1,2.8c0,0.3,0.1,0.6,0.5,0.6c0.2,0,0.5,0.1,0.7,0.1
		c0.1,0,0.2,0,0.2,0.1c0,0.1-0.1,0.1-0.2,0.1c-0.8,0-1.6,0-2,0c-0.3,0-1.1,0-1.6,0c-0.2,0-0.3,0-0.3-0.1c0-0.1,0.1-0.1,0.2-0.1
		c0.2,0,0.3,0,0.5-0.1c0.3-0.1,0.3-0.3,0.4-0.6c0.1-0.5,0.1-1.6,0.1-2.8V91.9z"/>
	<rect x="111.8" y="64.3" class="st0" width="61.8" height="0.4"/>
	<rect x="111.8" y="85.8" class="st0" width="56.9" height="0.4"/>
	<rect x="111.8" y="99.7" class="st0" width="23.9" height="0.4"/>
	<rect x="151.7" y="99.7" class="st0" width="22.2" height="0.4"/>
	<path class="st0" d="M113.1,54.1V35.8h1.7V43v18.3h-1.7V54.1z"/>
	<path class="st0" d="M144.3,48.6c-0.1,3.5-1.4,6.5-4,9c-2.6,2.5-5.7,3.7-9.3,3.7c-3.6,0-6.8-1.2-9.5-3.7c-2.7-2.5-4-5.6-4-9.2
		c0-3.7,1.3-6.8,4-9.3c2.7-2.6,5.8-3.8,9.4-3.8c3.6,0,6.8,1.3,9.4,3.8c2.6,2.5,3.9,5.6,3.9,9.2c0,0,0,0,0,0.1c0,0,0,0,0,0.1
		c0,0,0,0,0,0.1C144.3,48.6,144.3,48.6,144.3,48.6L144.3,48.6z M119.2,48.8c0.1,3.2,1.3,5.9,3.7,8c2.3,2.2,5.1,3.3,8.3,3.2
		c3.2,0,5.9-1.2,8.2-3.4c2.3-2.2,3.4-4.9,3.4-8.1c0-3.2-1.1-6-3.4-8.3c-2.3-2.3-5.1-3.5-8.3-3.5c-3.2,0-5.9,1.1-8.3,3.4
		c-2.3,2.3-3.5,5.1-3.5,8.3c0,0,0,0.1,0,0.2C119.2,48.7,119.2,48.7,119.2,48.8L119.2,48.8z"/>
	<path class="st0" d="M173.6,48.6c-0.1,3.5-1.4,6.5-4,9c-2.6,2.5-5.7,3.7-9.3,3.7c-3.6,0-6.8-1.2-9.5-3.7c-2.7-2.5-4-5.6-4-9.2
		c0-3.7,1.3-6.8,4-9.3c2.7-2.6,5.8-3.8,9.4-3.8c3.6,0,6.8,1.3,9.4,3.8c2.6,2.5,3.9,5.6,3.9,9.2c0,0,0,0,0,0.1c0,0,0,0,0,0.1
		c0,0,0,0,0,0.1C173.5,48.6,173.5,48.6,173.6,48.6L173.6,48.6z M148.4,48.8c0.1,3.2,1.3,5.9,3.7,8c2.3,2.2,5.1,3.3,8.3,3.2
		c3.2,0,5.9-1.2,8.2-3.4c2.3-2.2,3.4-4.9,3.4-8.1c0-3.2-1.1-6-3.4-8.3c-2.3-2.3-5.1-3.5-8.3-3.5c-3.2,0-5.9,1.1-8.3,3.4
		c-2.3,2.3-3.5,5.1-3.5,8.3c0,0,0,0.1,0,0.2C148.5,48.7,148.5,48.7,148.4,48.8L148.4,48.8z"/>
	<path class="st0" d="M130,3.6c0,0,1,0.4,1.7,1.5c0.8,1.3,1.4,3.6,1.4,3.6l0.3,0c0,0-0.6-2.3-1.4-3.8C131.3,3.5,130,3.6,130,3.6z"/>
	<path class="st0" d="M134.5,8.2c0,0.4-0.4,0.3-0.5,0c0-0.5-0.6-3.4-0.9-3.6c0.2,1.3,0.7,3,0.7,3.6c0,0.3-0.5,0.3-0.6-0.1
		c-0.1,0.2,0.1,0.7,0.1,0.7l0.6,0.3c0,0,0.2-0.3,0.7-0.3C134.6,8.6,134.6,8.3,134.5,8.2z"/>
	<path class="st0" d="M134.7,12c-0.1,0.3-0.6,0.1-0.6-0.2c-0.1-0.5-0.6-2.3-1-2.5c0.4,1.1,0.8,2.4,0.8,2.6c0,0.2,0.1,0.3,0.3,0.4
		c0.2,0.1,0.3,0,0.5,0.2C134.7,12.3,134.7,12.3,134.7,12z"/>
	<path class="st0" d="M133.2,8.3c-0.2,0.3-0.6,0.1-0.7-0.2c-0.2-0.5-1.4-3.2-1.9-3.5c0.5,0.8,1.6,3.4,1.6,3.6
		c0.1,0.2,0.2,0.4,0.4,0.5c0.2,0.1,0.4,0,0.6,0.1L133.2,8.3z"/>
	<g>
		<path class="st0" d="M134.1,24.7c0.2-0.1,0.4-0.1,0.6-0.1c0.1,0-0.1,0.3-0.2,0.7c0.4-0.4,0.6-0.6,0.8-0.6c0.1,0,0,0.7-0.1,1
			c0.1-0.2,0.6-1.1,0.6-1.3c0.1-0.1,0.1-0.3,0-0.3c-0.1,0-0.2-0.1-0.8,0c-2.2,0.2-1.9,1.1-1.9,1.1s-0.4-0.1-0.4-0.7
			c0-0.7,0.8-1,1.1-1.1c0.1,0,0.2,0,0.1,0.1c-0.1,0.2-0.1,0.3-0.1,0.3c0.2,0.1,0.7-0.2,0.7-0.2c0-0.2,0.2-0.5,0.5-0.5
			c0.2,0,0.1,0.3,0.1,0.3c0.8-0.9,1.7-1.3,1.7-1.3c-0.8,0-1.6,0.4-2.4,1c-0.5,0.3-0.7,0.2-0.6,0c0.2-0.5,0.7-0.9,1.2-1.2
			c1.9-1,4.5-1.2,5.5-1.2c-0.1,0.3-0.1,0.6,0,0.8c0-0.3,0.2-0.8,0.9-1.5c1.4-1.5,2.6-3.6,3.2-6.1c0.1-0.3,0.2-0.6,0.7-1.1
			c0.3-0.3,0.8-0.6,1.4-1.1c2.6-2.1,2.7-2.7,2.7-3c-0.2,0.2-0.7,0.9-2.9,2.7c-0.5,0.4-1,0.7-1.4,1c-0.1,0.1-0.2,0.2-0.3,0.3
			c0.1-0.3,0.1-0.6-0.1-1c-0.2-0.3-0.4-0.3-0.5-0.2c-0.1,0.1-0.2,0.2-0.6,0.8c0.5,0,0.6-0.4,0.7-0.4c0.2,0,0.5,0.4,0.1,0.9
			c-0.6,0.8-1.2,1.3-1.6,1.5c-0.2,0.1-0.4,0-0.2-0.2c0.8-0.8,1.7-1.6,1.6-1.9c-0.5,0.5-1.2,1.2-1.8,1.7c-0.3,0.2-0.4,0.1-0.2-0.2
			c0.5-0.5,1.3-1.3,1.6-1.8c0.3-0.6,0.3-1.1-0.1-1.5c-0.1-0.2-0.3-0.2-0.4-0.1c-0.1,0.1-0.2,0.3-0.6,0.9c0.4-0.1,0.5-0.5,0.7-0.5
			c0.2,0,0.4,0.3,0.1,1c-0.3,0.5-0.8,1.1-1.3,1.6c-0.3,0.3-0.6,0.2-0.4,0c0.8-0.9,1.6-1.8,1.6-2.2c-0.5,0.7-1,1.3-1.7,2
			c-0.2,0.2-0.4,0-0.2-0.3c0.4-0.5,1.1-1.2,1.4-1.7c0.3-0.6,0.3-1.1-0.1-1.5c-0.2-0.2-0.3-0.2-0.4-0.1c-0.1,0-0.1,0.3-0.6,1
			c0.4-0.1,0.5-0.6,0.7-0.6c0.2,0,0.4,0.3,0.1,1c-0.2,0.5-0.7,1.1-1.2,1.6c-0.3,0.3-0.6,0.3-0.4,0c0.6-1,1.4-1.8,1.3-2.2
			c-0.5,0.7-0.9,1.3-1.6,2c-0.2,0.2-0.4,0.1-0.2-0.2c0.4-0.5,1-1.4,1.3-2.1c0.2-0.6,0.2-1.1-0.2-1.5c-0.1-0.1-0.3-0.1-0.4,0
			c-0.1,0.1-0.1,0.3-0.5,1c0.4-0.2,0.5-0.7,0.6-0.8c0.1,0,0.5,0.2,0.3,0.9c-0.2,0.6-0.7,1.3-1,1.8c0,0,0,0,0,0
			c-0.2,0.4-0.6,0.4-0.4,0.1c0.5-1.1,1.3-2,1.2-2.4c-0.4,0.8-0.8,1.5-1.4,2.3c-0.2,0.3-0.4,0-0.2-0.3c0.4-0.6,0.9-1.5,1-2.1
			c0.2-0.7,0.1-1.2-0.3-1.6c-0.3-0.2-0.4-0.2-0.5-0.1c-0.1,0.2-0.1,0.3-0.4,1.1c0.4-0.2,0.4-0.7,0.5-0.7c0.1-0.1,0.5,0.3,0.3,1.1
			c-0.2,0.7-0.6,1.5-1,2.1c-0.2,0.2-0.4,0.1-0.3-0.1c0.4-1.1,1-2.1,0.9-2.5c-0.3,0.8-0.6,1.6-1.1,2.4c-0.1,0.2-0.3,0.1-0.3-0.1
			c0.3-0.6,0.8-1.8,0.9-2.7c0.1-0.8-0.1-1.2-0.5-1.5c-0.3-0.2-0.4-0.2-0.5-0.1c-0.1,0.1-0.1,0.4-0.3,1.3c0.3-0.3,0.4-0.8,0.5-0.9
			c0.1-0.1,0.6,0.2,0.5,1.1c-0.1,0.8-0.5,1.8-0.7,2.5c-0.2,0.1-0.4,0-0.3-0.2c0.2-0.7,0.8-2.3,0.6-2.7c-0.3,0.9-0.5,1.6-0.9,2.5
			c-0.1,0.3-0.5,0.1-0.4-0.3c0.2-0.6,0.5-2,0.5-2.8c0-0.8-0.2-1.2-0.6-1.5c-0.3-0.2-0.6-0.3-0.7-0.2c-0.1,0.1,0,0.4-0.1,1.3
			c0.3-0.3,0.3-0.9,0.4-0.9c0.1-0.1,0.6,0.2,0.6,1.1c0,0.8-0.2,1.8-0.3,2.5c0,0,0,0,0,0c-0.1,0.5-0.5,0.4-0.4,0
			c0.1-0.5,0.5-2.9,0.2-3.2c-0.1,1.2-0.3,2.7-0.5,3.1c-0.1,0.3-0.5,0.3-0.5-0.1c0.1-0.8,0.3-2.2,0.3-3c0-0.8-0.5-1.3-0.9-1.6
			C135.3,4,135,4,134.9,4.1c-0.1,0.1,0,1.4,0,2.4c0.3-0.4,0.2-1.9,0.3-2c0.1-0.1,0.9,0.3,0.9,1.2c0,0.6-0.1,1.7-0.2,2.5
			c-0.1,0.4-0.5,0.4-0.4,0c0.1-0.5,0.3-2.9,0-3.2c-0.1,1.2-0.1,2.7-0.3,3.2c-0.1,0.3-0.4,0.3-0.5,0c-0.1-0.8-0.3-2.2-0.4-3
			c-0.2-0.9-0.9-1.4-1.3-1.5c-0.4-0.2-0.9-0.1-1-0.1c-0.1,0.1,0.2,0.9,0.6,2c0-0.5-0.2-1.5-0.2-1.6c0.1-0.1,1.2,0.2,1.4,1.1
			c0.2,0.9,0.5,3,0.6,3.6c0,0.1,0,0.1,0,0.1s0,0,0,0c0,0,0,0,0,0c-0.1,0-0.1,0-0.1,0.1c0.8-0.1,1.1,0.2,1.4,0.5
			c0.3,0.4,0.4,0.9,0.4,1.2c0,0.7,0,1.4,0,1.8c-0.1,0.3-0.5,0.2-0.5-0.1c0-0.5-0.2-2.5-0.5-2.7c0.2,1.3,0.2,2,0.2,2.6
			c0,0.3-0.5,0.3-0.6-0.1c0,0,0,0,0,0c-0.1-0.6-0.2-1.4-0.3-2c-0.2-1.5-1.5-1.5-1.6-1.2c0.3,0,1.1,0.2,1.3,1.3
			c0.3,1.6,0.6,3,0.8,4.4c0.1-0.5-0.1-1.2-0.1-1.8c0,0,0-0.1,0-0.1c0.1-0.1,0.4-0.2,0.9,0.2c0.2,0.2,0.5,0.6,0.5,1.1
			c0,0.7,0,1.2,0,1.6c0,0,0,0,0,0c0,0.4-0.4,0.1-0.4-0.2c-0.1-0.7-0.1-2.2-0.4-2.4c0.1,1.1,0.1,1.4,0.2,2.2c0,0.2-0.1,0.2-0.2,0.1
			c-0.1-0.1-0.2-0.2-0.3-0.3c0,0.1,0,0.2,0,0.3c-0.1,0.1-0.3,0.1-0.4-0.2c-0.2-0.8-0.6-1.8-0.7-1.8c0.1,0.3,0.4,1.6,0.5,1.8
			c0.1,0.2,0.2,0.4,0.3,0.5c0.1,0.1,0.3-0.1,0.3-0.3c0.1,0.3,0.3,0.7,0.8,1.2c0.5,0.4,3,3,3.6,4.2c-0.1,0-0.2,0-0.2,0
			c-0.9-1.5-2.7-3.2-3.4-3.8c-0.4-0.4-0.7-0.6-0.9-1c0,0.2,0,0.6,0.8,1.2c0.8,0.7,2.6,2.6,3.2,3.6c-0.2,0-0.4,0-0.7,0
			c-0.6-0.8-1.5-1.8-3.3-3.4c-0.9-0.8-0.9-1.6-1.2-2.6c-0.1-0.2-0.1-0.5-0.2-0.8c-0.6-2.2-2.1-6.2-3-7.7c-1.1-1.8-1.5-1.8-1.5-1.8
			c1.7,2.1,3.5,7.2,4.2,9.6c0.1,0.3,0.2,0.6,0.2,0.8c0.3,1,0.3,2,1.3,2.9c1.6,1.4,2.4,2.1,3.1,3c-0.9,0.1-2,0.4-3,0.9
			c-0.7,0.4-1.2,0.9-1.5,1.6l0,0c0,0-1.1,0.5-1,1.4c0,1.1,1.2,1.3,1.2,1.3C133.4,25.3,133.6,25,134.1,24.7z M143.3,14.8
			c0.7-0.6,1-0.9,1.1-1.1c-0.1,0.2-0.1,0.5-0.2,0.7c-0.3,0.3-0.7,0.5-0.9,0.6C143.1,15.1,143.1,15,143.3,14.8z M142.5,18
			c0,0-0.1-0.1-0.1-0.3c0.1-0.1,0.3-0.2,0.4-0.3C142.8,17.6,142.7,17.8,142.5,18z M141.8,18.4c-0.2,0.4-0.6,1-1.3,1.7
			c-0.2,0.2-0.3,0.1-0.2-0.1c0.4-0.3,1-1,1.4-1.7c0,0,0,0,0-0.1c0,0,0,0,0,0C141.7,18.3,141.7,18.3,141.8,18.4z M136.6,13.8
			c0-0.3-0.1-0.5-0.2-0.8c0,0,0,0,0,0c1,0.1,1.2,1,1.1,1.3c-0.1,0.8-0.2,1.5-0.3,2c-0.1,0.4-0.3,0.1-0.2-0.2c0.1-0.7,0.2-2-0.1-2.5
			c0,0.6,0,1.4-0.1,2.5c0,0.3-0.2,0.3-0.2,0.1C136.5,15.8,136.6,15,136.6,13.8z M138,14.2c0.8,0.2,0.8,1,0.8,1.3
			c-0.1,0.9-0.5,1.7-0.7,2.1c-0.1,0.2-0.3-0.2-0.2-0.4c0.2-0.6,0.6-1.9,0.4-2.5c-0.1,0.6-0.3,1.3-0.6,2.4c-0.1,0.3-0.3,0.2-0.2-0.2
			c0.1-0.4,0.4-1.4,0.5-2.5C137.9,14.3,137.9,14.2,138,14.2C137.9,14.2,138,14.2,138,14.2z M140.8,13.5c0-0.1,0.1-0.2,0.1-0.3
			c0.2,0,0.6,0,0.8,0.5c0,0,0,0.1,0,0.1c0,0,0,0,0,0l0,0c0,0.2-0.1,0.5-0.1,0.6c-0.3,0.6-0.5,1-0.7,1.2c0,0,0,0,0,0
			c-0.1,0.2-0.4,0-0.3-0.3c0.2-0.4,0.9-1.5,0.7-1.9c-0.1,0.2-0.3,0.9-0.9,1.7c-0.1,0.2-0.4,0-0.3-0.2
			C140.2,14.8,140.6,14.3,140.8,13.5z M142,14.3c0.7,0.2,0.7,0.8,0.5,1.4c-0.1,0.3-0.5,0.7-0.8,1c-0.2,0.1-0.3-0.1-0.2-0.3
			c0.3-0.5,0.9-1.2,0.7-1.6c-0.1,0.2-0.4,0.8-1,1.5c-0.2,0.2-0.4-0.1-0.3-0.3c0.2-0.3,0.5-0.7,0.9-1.4
			C141.9,14.5,141.9,14.4,142,14.3C142,14.3,142,14.3,142,14.3z M140,19.8c-0.1,0-0.1-0.1,0-0.2c0.5-0.4,1.3-1.4,1.2-1.9
			c-0.2,0.5-0.6,1-1.4,1.8c-0.2,0.2-0.4,0-0.2-0.2c0,0,0,0,0,0c0.4-0.4,1-1.1,1.4-1.8c0-0.1,0-0.1,0.1-0.2l0.1,0.1
			c0.1,0.2,0.3,0.5,0.1,0.8C141,18.9,140.3,19.5,140,19.8z M139.4,18.8c0.4-0.5,1.2-1.6,1.1-2.1c-0.2,0.5-0.5,1.1-1.2,2
			c-0.2,0.2-0.3,0.1-0.2-0.1c0.3-0.4,0.9-1.3,1.2-2.1c0-0.1,0-0.2,0-0.3c0.3,0.2,0.8,0.6,0.5,1.1c-0.3,0.6-0.8,1.3-1.2,1.6l0,0
			C139.3,19.2,139.2,19,139.4,18.8z M142.3,17.6c0,0-0.1,0.1-0.1,0.1c-0.1,0-0.2-0.1,0-0.3c0.4-0.5,1-1.2,0.9-1.4
			c-0.1,0.2-0.5,0.6-1.1,1.3c-0.2,0.2-0.4,0.1-0.2-0.1c0.2-0.2,0.6-0.6,1-1.1c0.2-0.2,0.3-0.6,0.3-0.8c0.8,0.3,0.5,1.2,0.4,1.4
			C143,17,142.6,17.4,142.3,17.6z M139.1,15c0.9,0.4,0.8,1.1,0.7,1.3c-0.2,0.6-0.6,1.3-0.9,1.7c-0.2,0.3-0.4,0-0.2-0.2
			c0.4-0.6,0.9-1.7,0.7-2.3c-0.2,0.6-0.4,1.2-0.9,2.2c-0.1,0.3-0.3,0.2-0.2,0c0.2-0.4,0.6-1.3,0.8-2.2
			C139.1,15.3,139.1,15.2,139.1,15C139.1,15,139.1,15,139.1,15z M139.2,15C139.2,15,139.2,15,139.2,15C139.2,15,139.2,15,139.2,15z
			 M143.5,15.5c0-0.1,0-0.2,0-0.2c0.1-0.1,0.3-0.2,0.5-0.3c0,0,0,0,0,0.1C143.9,15.3,143.6,15.6,143.5,15.5z M139.5,12
			C139.5,12,139.5,12,139.5,12C139.5,12,139.5,12,139.5,12C139.5,12,139.5,12,139.5,12z M139.5,12.3c0-0.1,0-0.2,0-0.4
			c0.2,0,0.6-0.1,0.9,0.5c0.1,0.2,0.1,0.6,0,0.9c-0.2,0.6-0.5,1.1-0.6,1.4c-0.1,0.1-0.3-0.1-0.2-0.4c0.1-0.4,0.6-1.6,0.4-1.9
			c-0.1,0.2-0.3,1.1-0.7,1.8c-0.1,0.2-0.4,0.2-0.4,0C139.1,14,139.3,13.3,139.5,12.3z M137.5,9.9c0.2,0.2,0.3,0.7,0.2,1.1
			c-0.1,0.8-0.2,1.4-0.2,1.8c-0.1,0.3-0.3,0.2-0.3-0.1c0-0.5,0-2.1-0.2-2.4c0,0.3,0,1.3-0.1,2.3c0,0.3-0.4,0.2-0.4-0.2
			c0.1-0.5,0.1-1.1,0.1-1.8c0-0.3-0.1-0.7-0.3-1c0,0,0.1,0,0.1,0c0,0,0,0,0,0C136.7,9.4,137.2,9.5,137.5,9.9z M140.6,20.6
			C140.6,20.6,140.6,20.6,140.6,20.6C140.6,20.6,140.6,20.6,140.6,20.6C140.6,20.6,140.6,20.6,140.6,20.6z M141.4,19.6
			c-0.2,0.3-0.4,0.5-0.5,0.7c-0.2,0.2-0.4,0.2-0.3,0c0.4-0.4,1.2-1.3,1.2-1.8c0.1,0.2,0.1,0.4-0.1,0.7
			C141.6,19.3,141.5,19.4,141.4,19.6z M144.6,13.2c-0.1,0.1-0.1,0.3-0.2,0.4c0,0,0,0,0,0c-0.1,0.1-0.7,0.6-1.3,1
			c-0.2,0.2-0.4,0.1-0.2,0C143.3,14.4,144,13.8,144.6,13.2z M138.3,10.8c0.2,0,0.5,0,0.8,0.4c0.1,0.2,0.2,0.7,0.1,1.1
			c-0.1,0.7-0.2,1.1-0.4,1.5c0,0,0,0,0,0c-0.1,0.3-0.4,0.1-0.4-0.1c0.1-0.5,0.3-2.1,0.2-2.5c-0.1,0.2-0.2,1.4-0.5,2.3
			c-0.1,0.2-0.3,0.2-0.3,0c0.1-0.3,0.2-1.1,0.3-2.4c0-0.1,0-0.1,0-0.2C138.2,10.8,138.2,10.8,138.3,10.8z"/>
		<path class="st0" d="M140.3,21.7c-2.3,0-3.5,1-3.5,1c3-1,4.9,0,4.9,0c-0.7-0.7-1.5-0.6-1.6-0.8C140,21.8,140.3,21.7,140.3,21.7z"
			/>
		<path class="st0" d="M136.2,24.3c1-0.5,1.9-0.6,2.8-0.6c1.8,0,3,0.7,3,0.7c-0.6-0.7-1.3-0.7-1.4-0.8c-0.1-0.1,0.3-0.2,0.3-0.2
			C137.5,22.8,136.2,24.3,136.2,24.3z"/>
		<path class="st0" d="M141.9,23.5c-0.7-0.7-1.3-0.7-1.4-0.8c-0.1-0.1,0.2-0.2,0.2-0.2c-3-0.2-4.4,1-4.4,1
			C140.1,22.4,141.9,23.5,141.9,23.5z"/>
		<path class="st0" d="M139.3,23.8c-1-0.1-1.7,0.1-1.9,0.2c-0.2,0.1-0.4,0.2-0.7,0.3c-0.6,0.4-1.4,1.5-1.4,1.5s0.3-0.1,0.4-0.2
			c0.3-0.4,0.6-0.7,1.1-1c0.7-0.4,2-0.4,2.5,0.7c0.4,0.8,0.9,1.7,1.6,2.5c-0.5,0.4-1.4,1.2-1.9,2.1c1-1,1.9-1.6,2.2-1.8
			c0.1,0.1,0.2,0.2,0.3,0.3c-0.3,0.2-1.4,0.9-2.1,1.8c1.3-0.8,2.1-1.3,2.4-1.5c0,0,0.1,0.1,0.1,0.1c-0.4,0.2-1.4,0.9-2.1,1.8
			c1.3-0.8,2.1-1.3,2.4-1.5c0,0,0.1,0.1,0.1,0.1c-0.3,0.2-0.9,0.6-1.5,1.2c-0.1,0-0.2,0-0.4,0c0.6,0.3,0.8,0.5,1,0.8
			c0.6,0.7,2,0.1,2.6-0.4c0.3-0.3,1.4-1.6,3-2.7c-0.1,0-0.2,0-0.3,0l0,0c0,0-1.4-0.4-3.3-2c0.6,1.1,2.2,1.9,2.8,2.2
			c-0.1,0-0.1,0.1-0.2,0.1c-0.4-0.2-1.7-0.7-3.2-1.8c0.7,1.1,2.2,1.9,2.8,2.1c-0.1,0-0.1,0.1-0.2,0.1c-0.6-0.2-1.9-0.7-3.3-1.8
			c0.6,1.1,2.2,1.8,2.9,2.1c0,0-0.1,0.1-0.1,0.1c-0.6-0.2-1.8-0.7-3.3-1.7c0.8,1.2,2.2,1.8,2.9,2.1c0,0-0.1,0.1-0.1,0.1
			c-2.3-0.8-4-2.9-4.7-4.4c0.1,0.2,0.4,0.4,0.6,0.8c0.6,0.8,1.2,1.3,1.2,1.3s-0.6-1.2-1-1.8c-0.3-0.6-0.7-1.2-0.7-1.2
			s0.4,0.5,0.9,1.1c0.6,0.8,1.1,1.2,1.1,1.2s-0.3-0.7-0.7-1.3c-0.4-0.6-0.6-1-0.6-1s0.3,0.2,0.7,0.7c0.4,0.4,0.4,0.5,0.8,0.9
			c0,0-0.1-0.4-0.6-1.1c-0.1-0.2-0.2-0.3-0.3-0.4c0.3,0.1,0.5,0.2,0.7,0.2C141.7,24.3,140.4,23.9,139.3,23.8z M143.8,30.7
			c-0.6,0.6-1.6,0.8-2,0.4c-0.2-0.2-0.3-0.4-0.6-0.5c1-0.7,1.3-0.7,1.6-0.8c0.2,0,0.4,0,0.4,0l0,0c0.3,0.2,0.7,0.3,1,0.5
			C144.1,30.4,144,30.5,143.8,30.7z"/>
		<path class="st0" d="M137,30.7c-0.1-0.1-0.3-0.2-0.4-0.3c0.1,0.1,0.2,0.3,0.3,0.5c0.1,0.2,0.3,0.3,0.5,0.3c1,0.1,1.5-1,1.5-1
			c0,0-0.5,0.5-1.3,0.6C137.4,30.8,137.2,30.8,137,30.7z"/>
		<path class="st0" d="M135.4,30.7c0.3,0.2,0.6,0,0.6-0.3c0-0.2-0.2-0.5-0.6-0.5c-0.7-0.1-1,0.5-1,0.5c0,0,0.4-0.2,0.9-0.1
			C135.5,30.3,135.7,30.5,135.4,30.7z"/>
		<path class="st0" d="M140.9,31.5c0-0.2-0.2-0.5-0.6-0.5c-0.7-0.1-1,0.5-1,0.5c0,0,0.4-0.2,0.9-0.1c0.1,0,0.4,0.2,0.1,0.5
			C140.5,31.9,140.9,31.7,140.9,31.5z"/>
		<path class="st0" d="M134.6,32c0.2-0.2,0.3-0.3,0.5-0.4c0.2-0.1,0.3-0.3,0.3-0.5c-0.1-0.2-0.6-0.3-1.1-0.1
			c-0.6,0.3-0.7,0.8-0.6,0.9c0.1-0.2,0.3-0.4,0.7-0.5c0.3-0.1,0.7,0,0.5,0.2C134.8,31.6,134.6,31.8,134.6,32z"/>
		<path class="st0" d="M137.1,32.4c0,0.1,0.1,0.2,0,0.4c0.3,0,0.4-0.3,0.4-0.5c0,0,0-0.1,0-0.1c-0.6-1.3-2-0.4-2-0.4
			c0.7-0.2,1.1-0.1,1.4,0.1c-0.1,0-0.3,0-0.5,0c-0.7,0-1.2,0.4-1.5,0.7c-0.2,0.2-0.3,0.6-0.1,0.8c0-0.2,0-0.4,0.3-0.6
			c0.3-0.2,0.8-0.5,1.3-0.5C137,32.1,137.1,32.3,137.1,32.4z"/>
		<path class="st0" d="M139.1,31.2c-0.2,0-0.5,0.2-0.7,0.4c-0.1,0.1-0.1,0.3-0.1,0.4c0,0.5-0.9,0.9-0.9,0.9c0.5,0,0.9-0.2,1.1-0.4
			c0,0.2-0.2,0.4-0.5,0.5c-0.6,0.2-1.4,0-1.4,0c0,0,0.1,0.2,0.4,0.3c0.4,0.1,0.8,0.1,1.1,0.1c0.6-0.2,0.9-0.7,0.7-1.1
			c-0.1-0.2-0.2-0.4-0.1-0.5C138.7,31.6,138.9,31.4,139.1,31.2z"/>
		<path class="st0" d="M144.7,16.7c0.3-0.7,0.8-1.9,0.8-2.2c-0.1,0-0.7,1.4-1,2c-0.6,1.1-1.3,2.3-2.3,3.5c-0.9,1.1-0.3,1.5-0.3,1.5
			s-0.1-0.5,0.5-1.2C143.4,19.3,144.2,17.9,144.7,16.7z"/>
		<path class="st0" d="M154.5,15.8c0.6-0.3,1.8-0.9,2.8-2c0.7-0.7,1.6-2.2,1-3.5c0.2,1.2-0.2,2.1-1.2,3.2c-1.2,1.3-2.5,1.9-2.8,2.1
			c0.2-0.6,0.5-0.9,0.8-1.1c1-0.6,2.3-1.7,2.4-2.4c-0.6,0.8-1.3,1.3-2.4,2c-0.4,0.3-0.6-0.3-0.6-0.3c0,0,0,0,0,0
			c0.4-0.2,2-1.1,3.2-2.8c0.7-0.9,1.7-2.9,0.6-4.3c0.5,1.2,0,2.8-0.9,4.1c-1.2,1.6-2.7,2.5-2.9,2.7c0,0,0,0,0,0
			c0.1-0.2,0.3-1.1,0.8-1.4c0.9-0.7,2.4-2.3,2.5-3c-1,1.1-1.9,2.2-2.7,2.7c-0.3,0.2-0.5,0.2-0.6,0.1c0.1-0.6,0-1,0-1
			c0,0,0,0.8-0.9,1.8c-1.3,1.5-2.8,2-2.8,2l-0.1,0.4c0,0,1.8-0.6,3.2-2.1c0.3-0.3,0.4-0.6,0.5-0.9l0,1.3c0,0,0,0,0,0
			c0,0,0,1.2-1.1,1.9c-1.1,0.7-2.3,0.9-2.9,0.9c0.1-0.1,0.1-0.1,0.2-0.2l0,0c0,0,0.2-0.3,0.8-0.5c0.7-0.3,2.3-1,2.5-1.8
			c-1,0.8-1.8,1.2-2.5,1.5c-0.4,0.2-0.6-0.1-0.6-0.1c0,0,0-0.1,0-0.1c-0.1,0.4-0.4,1.1-1.6,1.3c-1.3,0.2-2.4,0.2-3,0.1
			c-0.3-0.1-0.1-0.2,0.1-0.2c0.6,0.1,2.5,0,2.9-0.4c-1.2,0.2-2.1,0.2-2.9,0.1c-0.3,0-0.2-0.3,0-0.3c0.6,0.1,2,0.2,3.4-0.4
			c0.5-0.2,0.7-0.5,0.9-0.8c0-0.1,0-0.1,0.1-0.2c0,0.2,0.1,0.3,0.1,0.3s0.1-0.5,0.7-0.9c0.8-0.5,2.2-1.7,2.3-2.4
			c-1,1.1-1.8,1.7-2.5,2.2c-0.4,0.3-0.5,0.2-0.6,0.1c0-0.1-0.1-0.1-0.1-0.2c0,0.8-0.5,1.3-1,1.5c-1.2,0.5-2.4,0.5-3.1,0.5
			c-0.1-0.1,0-0.2,0.2-0.2c1-0.1,2.5-0.5,2.8-0.9c-1.1,0.4-2,0.6-2.9,0.6c-0.3,0-0.3-0.1,0-0.2c0.9-0.1,2.8-0.5,3.7-1.5
			c0,0,0,0,0-0.1c0.7-0.3,2.3-1.3,3.4-2.9c0.3-0.4,0.5-0.7,0.6-1l0.2,1.5c0,0,0,0,0,0l0,0.4c0.1,0,1.3-0.7,3-3
			c1.3-1.8,0.9-4,0.3-4.6c0.3,0.8,0.6,2.6-0.5,4.3c-1.5,2.1-2.6,2.9-2.8,3c0-0.2,0.1-1,0.8-1.7c0.6-0.7,2.3-2.9,2.2-4
			c-0.7,1.5-1.7,2.9-2.3,3.5c-0.5,0.6-0.8,0.5-0.9,0.5c0.1-0.3,0.2-0.6,0.2-0.9c0.5-0.6,1.8-2.2,2.5-4.1c0.5-1.2,0.5-2.2,0.3-2.8
			c0,0.3,0.1,0.7-0.6,2.5c-0.7,1.7-1.7,3.1-2.1,3.7c0-0.1,0-0.2-0.1-0.4l0,0c0,0-0.1-0.3,0.3-1.1c0.6-1.2,1.8-3.3,1.7-4.6
			c-0.4,1.7-1.1,2.8-1.8,4c-0.4,0.7-0.8,0.6-0.8,0.6l0.1,0.2c0.1,0.3,0.7,1.6-0.8,3.5c-1,1.3-2,2-2.7,2.5c0-0.1,0-0.2,0.1-0.4
			c0,0,0,0,0-0.1c0.1-0.2,0.2-0.6,0.6-0.9c0.7-0.5,2-1.9,2.2-2.8c-0.9,1.2-1.6,1.9-2.3,2.5c-0.5,0.4-0.8,0-0.8,0s0.5,1.1-0.3,2
			c-0.7,0.9-2.2,1.3-3.1,1.5c-0.3,0-0.1-0.2,0.1-0.3c0.8-0.3,2.2-0.9,2.6-1.8c-1.1,0.8-1.9,1.2-2.7,1.5c-0.2,0.1-0.2,0-0.1-0.1
			c0.1-0.1,0.1-0.1,0.2-0.2c0,0,0,0,0,0c0,0,0,0,0,0c0,0,0,0,0.1,0c0.5-0.4,2-1.4,2.6-2.2c0.1-0.1,0.1-0.2,0.2-0.3
			c0.6-0.5,2-1.6,2.9-3.2c0.6-0.9,0.8-1.7,0.7-2c0-0.1-0.1-0.2-0.2-0.2c0,0,0,0.6-0.8,1.9c-0.9,1.5-2,2.5-2.5,2.9
			c0-0.2,0.1-0.6,0.4-0.9c0.9-1,1.9-2.2,1.9-3c-0.8,1.2-1.2,1.8-2,2.7c-0.3,0.3-0.5,0.2-0.5,0.2c0,0,0-0.1-0.1-0.1
			c0.1,0.5,0.2,1.1-0.3,1.7c-0.8,1-2.4,2-2.7,2.2c-0.5,0.3-0.7,0.7-0.9,1.2c-0.1,0.5-0.7,2.9-2.8,5.7c-0.2,0.2-0.5,0.6-0.8,1
			c-0.2,0.3-0.4,0.7,0,1.1c0-0.1,0-0.2,0-0.3c0,0,0.1,0.1,0.1,0.1c0,0.1,0.7,1,1.6,1.1c0,0-0.4-0.2-0.8-0.5c0.4,0.2,0.9,0.4,1.5,0.5
			c0.3,0.1,0.6,0.1,0.8,0c0,0,0,0,0,0c-0.4,0.6-1.1,0.5-1.4,0.5c-0.8-0.2-1.2-0.7-1.6-1.1c0.1,0.4,0.6,1.1,1.3,1.4
			c0.1,0.1,0.2,0.3,0.4,0.6c-0.7-0.3-1.1-0.5-1.5-0.6c0.5,0.4,1.4,0.9,2.4,1.5c0,0,0,0.1,0,0.1c-0.8-0.3-1.5-0.6-1.9-0.6
			c0.5,0.4,1.2,0.7,2.2,1.2c0.1,0.1,0.1,0.2,0.2,0.3c-0.6-0.2-1-0.3-1.5-0.4c0.7,0.4,1.5,0.8,2.9,1.3c0,0.1,0.1,0.1,0.1,0.2
			c-0.7-0.3-1.3-0.5-2.1-0.7c0.6,0.4,1.5,0.8,2.3,1.2c0,0.1,0.1,0.1,0.1,0.2c-0.3-0.1-0.6-0.1-0.9-0.2c0.1,0.1,0.5,0.3,1,0.5
			c-0.6,0.4-1.6,1.3-2.1,1.9c1.2-0.8,2.1-1.4,2.4-1.6c0,0,0,0,0,0c-0.1,0.1-1.5,1.2-3.4,2.6c1.2-0.5,3.3-1.8,3.8-2.1c0,0,0,0,0,0
			c-0.2,0.2-1,0.9-2.2,1.6c-1.4,0.8-2.6,1-3.5,1.2c-0.9,0.1-1.3,0.2-1.9,0.5c-0.6,0.2-1.3,0.3-1.5-0.1c0.1,0.7,0.8,0.6,1.3,0.5
			c0.1,0,0.3-0.1,0.3,0.3c0.3-0.1,0.3-0.5,0.8-0.6c0.3-0.1,0.6-0.2,1.3-0.2c1.6-0.2,2.4-0.5,3.6-1.1c1.1-0.6,2-1.2,2.4-1.5
			c0,0,0,0,0,0c-0.3,0.3-1.6,1.3-2.9,1.9c-1.7,0.8-3.1,0.8-3.4,0.9c-0.1,0-0.6,0.1-0.8,0.2c-0.2,0.1-0.3,0.2-0.5,0.4
			c-0.5,0.4-1,0.5-1,0.5c0.3,0.1,1-0.2,1.3-0.5c-0.2,0.2-0.6,0.6-0.9,0.7c-0.7,0.2-1.1,0-1.2-0.1c0,0.3,0.4,0.8,1.3,0.5
			c0.4-0.1,0.6-0.3,1.1-0.8c0.2-0.3,0.5-0.4,0.7-0.4c0.1,0,0.2,0,0.2,0.1c0.1,0.2-0.1,0.6-0.5,0.8c0,0,0.9,0.1,1.1-1
			c0.6-0.1,1.5-0.3,2.4-0.6c0.5,1.4,1.3,2.2,1.9,2.5c0.4,0.2,0.8,0.2,0.8,0.2s-0.4-0.2-0.9-0.6c-0.4-0.4-0.9-1-1.3-1.8
			c-0.1-0.3,0-0.4,0-0.4c0,0,0,0,0,0c0.4,0.8,0.9,1.7,1.7,2.3c0.2,0.2,0.4,0.3,0.6,0.3c0.2,0.1,0.3,0.2,0.4,0.2
			c0.3,0.1,0.6,0.1,0.9,0.1c0,0-0.4-0.1-1-0.4c-0.3-0.2-1.3-0.8-2-2.2c-0.2-0.4-0.1-0.5-0.1-0.6c0,0,0,0,0,0
			c0.6,1.2,1.3,1.9,2.1,2.5c0.4,0.3,0.8,0.4,1,0.4c0.1,0,0.1,0,0.2,0.1c0.5,0.1,1,0.2,1.3-0.1c0,0-0.4,0.1-1.2-0.2
			c-0.7-0.3-1.9-1.2-2.8-2.4c0,0,0,0,0,0c-0.2-0.4-0.2-0.6-0.2-0.6c0,0,0,0,0,0c0.8,1.3,1.6,2,2.5,2.6c0.5,0.3,0.9,0.4,1.2,0.4
			c0.1,0,0.1,0,0.2,0.1c0.8,0.2,1.5-0.1,1.8-0.4c0.8,0,1.4-0.3,1.5-0.6c-0.5,0.3-0.8,0.4-1.8,0.2c-1-0.2-2.8-1.2-4-2.8
			c-0.2-0.3-0.1-0.5,0-0.5c0,0,0,0,0,0c1,1.2,2.1,1.9,3.2,2.5c0.7,0.4,1.3,0.4,1.7,0.4c0.2,0,0.3,0.1,0.5,0.1c1,0.1,1.9-0.3,2-0.6
			c-0.4,0.2-0.9,0.4-2,0.2c-1.2-0.1-3.6-1.3-4.9-3l0,0c0.4,0.3,0.7,0.3,0.7,0.3c-0.9-0.9-1.3-1.9-1.6-2.7c0.4,0.6,0.9,1.5,1.5,2.2
			c1.2,1.4,3.8,2.6,5.5,2.8c1,0.1,1.4-0.3,1.4-0.3c-1.9,0.2-5.6-1.7-6.6-2.9c-0.9-1.1-1.6-2.5-1.8-2.9c0.6,0,1-0.5,1-0.6
			c0,0-0.7,0.4-1.4,0c-0.4-0.2-0.8-0.6-1-0.8c0.1,0,0.2,0,0.3-0.1c0.3,0.3,0.7,0.7,1.3,0.7c0,0-0.6-0.3-1.1-0.8
			c0.1,0,0.1-0.1,0.2-0.1c0.2,0.1,1,0.7,1.7,0.9c0.9,0.2,1.5-0.4,1.7-0.7c0,0-0.7,0.5-1.6,0.3c-0.2-0.1-0.5-0.2-0.7-0.3c0,0,0,0,0,0
			c-0.4-0.1-0.3-0.5,0-0.4c1.2,0.5,1.5,0.3,1.5,0.3s-0.5,0-1.2-0.4c-0.2-0.1-0.1-0.3,0.3-0.3c0.3,0.2,0.9,0.4,1.6,0.5
			c1,0.1,1.5-0.5,1.6-0.9c0,0-0.6,0.6-1.5,0.5c-0.4,0-0.7-0.1-1-0.2c-0.3-0.1-0.2-0.4,0-0.3c1.2,0.3,1.4,0.1,1.4,0.1s-0.6,0-1.3-0.3
			c-0.2-0.1-0.1-0.4,0.3-0.3c0.2,0.1,0.6,0.3,1,0.3c0.7,0.1,1.2-0.2,1.5-0.5c0.3-0.3,0.4-0.6,0.4-0.6c0,0-0.8,0.8-1.9,0.7
			c-0.1,0-0.2,0-0.3-0.1c0,0,0,0,0,0c-0.4-0.1-0.3-0.5,0-0.4c1.2,0.2,1.5-0.1,1.5-0.1s-0.7,0-1.4-0.2c-0.3-0.1-0.1-0.4,0.3-0.4
			c0.3,0.1,0.7,0.2,1.4,0.2c0.9,0,1.3-0.4,1.6-0.8c0.3-0.4,0.3-0.7,0.3-0.8c0,0-0.6,1.1-1.9,1.1c-0.3,0-0.5,0-0.7,0
			c-0.3-0.1-0.2-0.5,0.1-0.4c0.9,0,1.7,0,1.9-0.3c-0.9,0.1-1.2,0.1-1.8,0c-0.3,0-0.2-0.4,0.2-0.4c0.3,0.1,0.8,0.2,1.6,0.1
			c0.9-0.1,1.4-0.6,1.6-0.9c0.3-0.4,0.4-0.8,0.4-0.8c0,0-0.6,1.1-2,1.4c-0.5,0.1-0.9,0.1-1.2,0c0,0,0,0,0,0
			c-0.3-0.1-0.2-0.5,0.1-0.5c0.8,0,1.9,0,2.3-0.6c-1,0.4-1.6,0.3-2.2,0.3c-0.3,0-0.2-0.4,0.2-0.4c0.5,0,1.3,0,2.4-0.4
			c2-0.6,2.1-2,2.1-2.4c-0.3,0.7-0.5,1.5-2.3,2c-0.7,0.2-1.2,0.3-1.6,0.4c-0.4,0-0.3-0.5,0-0.5c0.9,0,2.3-0.4,2.6-0.9
			c-1,0.4-1.9,0.6-2.6,0.6c-0.3,0-0.2-0.4,0.3-0.5c0.7,0,1.8-0.2,2.8-0.8c1.5-0.8,1.6-2.5,1.4-3.1c-0.1,0.8-0.3,2-1.6,2.8
			c-0.7,0.4-1.5,0.6-2.2,0.7c-0.4,0-0.3-0.3,0.3-0.5c0.8-0.2,2.4-1,2.7-1.7c-0.7,0.6-1.4,1.1-2.6,1.4
			C154.2,16.3,154.1,16,154.5,15.8z M150.1,10.1C150.1,10.1,150.1,10.1,150.1,10.1C150.1,10.1,150.1,10.1,150.1,10.1
			C150.1,10.1,150.1,10.1,150.1,10.1z M151.8,19.7C151.8,19.7,151.8,19.7,151.8,19.7c-0.3,1.1-1.4,1-1.7,1c-0.7-0.1-1.3-0.3-1.7-0.4
			c-0.3-0.2-0.1-0.4,0.2-0.3c0.5,0.1,1.8,0.6,2.4,0.1c-1.2,0-2-0.3-2.5-0.5c-0.3-0.2,0-0.4,0.4-0.3c0.5,0.2,1.2,0.4,2.1,0.3
			c0.3,0,0.5-0.1,0.7-0.2C151.8,19.5,151.8,19.6,151.8,19.7z M147.3,24.7c-0.1,0.1-0.8,0.3-1.5,0.1c-0.4-0.1-0.7-0.3-0.9-0.5
			c0.1,0.1,0.1,0.1,0.2,0.1c-0.2-0.2,0-0.3,0.2-0.2c0.2,0.1,0.8,0.4,1.2,0.4c-0.6-0.3-0.8-0.4-1.1-0.6c-0.3-0.2-0.1-0.4,0.1-0.2
			c0,0,0,0,0,0c0.4,0.3,1.2,0.8,1.8,0.9c0.1,0,0.1,0,0.2,0C147.4,24.6,147.4,24.6,147.3,24.7z M146,23.3c0.3,0.2,1.2,0.7,1.7,0.7
			c-1-0.4-1.2-0.6-1.7-0.9c-0.2-0.2-0.1-0.3,0.1-0.2c0.4,0.3,1.4,0.9,2,1c0.2,0,0.3,0,0.5,0c-0.2,0.2-0.6,0.6-1.3,0.5
			c-0.4-0.1-1-0.4-1.4-0.7l0,0C145.7,23.3,145.8,23.2,146,23.3z M148.1,23.4c-0.4,0-1.1-0.4-1.5-0.7c-0.2-0.2,0-0.3,0.2-0.2
			c0.3,0.2,1.3,0.7,1.9,0.4c-0.9-0.1-1.5-0.4-1.9-0.7c-0.2-0.2,0-0.3,0.3-0.2c0.4,0.2,1.1,0.6,1.9,0.7c0.2,0,0.4,0,0.5,0
			c0,0,0,0,0,0C149.3,22.9,148.8,23.4,148.1,23.4z M148,19.6c-0.3,0.8-1,1.1-1.6,1c-0.9-0.1-1.8-0.5-2.3-0.8c-0.2-0.2,0-0.3,0.2-0.2
			c0.2,0.1,1.6,0.8,2.7,0.6c-1.1-0.3-2.1-0.6-2.7-1c-0.3-0.2-0.1-0.3,0.1-0.3c0.5,0.3,1.6,0.7,2.9,0.8
			C147.5,19.7,147.8,19.6,148,19.6C148,19.6,148,19.6,148,19.6z M149,18C149,18,149,18,149,18L149,18C149,18,149,18,149,18z M149,18
			C149,18,149,18,149,18c-0.1,0.7-0.8,1.2-1.7,1.2c-1.1,0-2.1-0.3-2.6-0.6c-0.2-0.2,0.1-0.3,0.2-0.2c0.4,0.2,1.8,0.6,2.9,0.3
			c-1.3-0.2-2.3-0.4-2.9-0.7c-0.3-0.1-0.1-0.3,0.1-0.3c0.5,0.2,1.8,0.6,3.3,0.5C148.6,18.1,148.8,18.1,149,18z M143.3,20.8
			c-0.2-0.2,0-0.3,0.2-0.2c0.2,0.1,1.6,0.9,2.6,0.7c-1.1-0.3-2-0.7-2.5-1.1c-0.2-0.2-0.1-0.3,0.1-0.3c0.5,0.3,1.4,1,2.6,1.1
			c0.2,0,0.4,0,0.6,0c-0.3,0.6-0.8,0.7-1.4,0.7C144.6,21.6,143.8,21.2,143.3,20.8z M149,22.2c-0.7-0.1-1.2-0.4-1.6-0.6
			c-0.2-0.2,0-0.4,0.3-0.3c0.4,0.2,1.6,0.8,2.2,0.3c-1.1-0.1-1.8-0.4-2.3-0.8c-0.3-0.2,0-0.4,0.4-0.3c0.4,0.2,1.1,0.6,2,0.6
			c0.2,0,0.5,0,0.7,0c0,0,0,0.1,0,0.1c0,0,0,0,0,0C150.3,22.1,149.6,22.3,149,22.2z M152.8,18c0,0.1-0.4,1.1-1.7,1.2
			c-0.7,0.1-1.3,0-1.8-0.1c0,0,0,0,0,0c-0.3-0.1-0.3-0.3,0.1-0.3c0.5,0,2.1,0.2,2.8-0.5c-1.2,0.2-2.3,0.2-2.8,0.1
			c-0.2-0.1-0.1-0.2,0.1-0.3c0.6,0,1.7,0,3-0.4c0.1,0,0.3-0.1,0.4-0.2C152.8,17.6,152.8,17.8,152.8,18z M153.3,15.5
			c0.6-0.4,0.9-0.8,1-1.2c0,0.3,0,0.5-0.1,0.8v0c-0.1,0.4-0.4,1.6-2,2.2c-0.9,0.3-1.7,0.4-2.2,0.4c-0.4-0.1-0.3-0.4,0.3-0.5
			c0.5-0.1,2.5-0.4,2.8-1.1c-1.1,0.5-1.9,0.7-2.7,0.7c-0.3,0-0.3-0.4,0.1-0.5C151.3,16.3,152.4,16.1,153.3,15.5z M149.1,16.6
			c0.2,0,0.4-0.1,0.6-0.2c0,0,0,0.1,0,0.1c-0.1,0.4-0.4,1.2-1.5,1.3c-1.2,0.1-2.3-0.1-2.8-0.3c-0.3-0.2-0.1-0.3,0.1-0.3
			c0.5,0.1,2.2,0.4,3,0c-1.3,0-2.5-0.1-3-0.3c-0.3-0.1-0.1-0.2,0.1-0.2C146.1,16.6,147.6,16.9,149.1,16.6z M144.8,22.5
			c-0.9-0.2-1.6-0.5-2.1-0.9c-0.1-0.1,0.1-0.2,0.2-0.1c0.2,0.2,1.2,0.8,2.2,0.8c-1.2-0.4-1.7-0.7-2.2-1.1c-0.2-0.1-0.1-0.3,0-0.2
			c0.5,0.4,1.4,1,2.6,1.2c0.3,0,0.6,0,0.8-0.1c0,0,0,0,0,0C145.9,22.6,145.2,22.6,144.8,22.5z M152.6,34c-0.4,0.2-0.8,0.2-1.6,0
			c-0.8-0.2-2.2-1.1-3.3-2.5c-0.3-0.4-0.1-0.7-0.1-0.7c0,0,0,0,0,0c0.9,1.3,1.8,2,2.8,2.6c0.6,0.4,1.1,0.4,1.5,0.4
			c0.1,0,0.2,0.1,0.3,0.1C152.4,34,152.5,34,152.6,34z M147.4,26.4c0.1,0.1,0.2,0.1,0.3,0.1l-0.1,0c-0.2,0-0.9,0.2-1.4-0.3
			c-0.3-0.3-0.6-0.8-0.8-1.2c0.1,0,0.1,0,0.2,0.1c0,0,0,0,0,0c0.2,0.4,0.5,0.8,0.9,0.9c0,0-0.4-0.3-0.7-0.9c0,0,0.1,0,0.1,0
			C146.3,25.5,146.8,26.2,147.4,26.4z"/>
		<path class="st0" d="M141.3,20.9c0,0.3,0.1,0.5,0.3,0.5c-0.2-0.8,0.3-1.1,0.8-2C141.8,19.9,141.3,20.4,141.3,20.9z"/>
		<path class="st0" d="M152.5,4.8c0.1-0.2,0.3-0.7,0.7,0.1c0,0,0-0.7-0.3-0.8c-0.2-0.1-0.4,0-0.5,0.3c-0.3,0.8-1.4,2.7-2.6,4.3
			C150,8.5,151.3,7.7,152.5,4.8z"/>
		<path class="st0" d="M146.3,12.7c-0.6,0.5-0.8,1.2-0.7,1.5c0.1-0.2,0.3-0.9,0.7-1.2c0.4-0.3,2.3-1.7,2.9-2.3
			c0.5-0.6,0.4-1.1,0.4-1.1s-0.1,0.5-0.6,1C148.6,10.9,147.8,11.5,146.3,12.7z"/>
	</g>
	<g>
		<path class="st0" d="M173.4,66.4c0.7,0,1.2,0.5,1.2,1.2c0,0.7-0.5,1.2-1.2,1.2c-0.7,0-1.2-0.5-1.2-1.2
			C172.2,66.9,172.7,66.4,173.4,66.4L173.4,66.4z M173.4,66.6c-0.5,0-0.9,0.4-0.9,0.9c0,0.5,0.4,0.9,0.9,0.9c0.5,0,0.9-0.4,0.9-0.9
			C174.3,67,173.9,66.6,173.4,66.6L173.4,66.6z M173.2,68.1h-0.3V67c0.1,0,0.3,0,0.5,0c0.2,0,0.3,0,0.4,0.1c0.1,0,0.1,0.1,0.1,0.2
			c0,0.1-0.1,0.2-0.2,0.3v0c0.1,0,0.2,0.1,0.2,0.3c0,0.2,0.1,0.3,0.1,0.3h-0.3c0,0-0.1-0.1-0.1-0.3c0-0.1-0.1-0.2-0.2-0.2h-0.1V68.1
			z M173.2,67.5h0.1c0.1,0,0.3-0.1,0.3-0.2c0-0.1-0.1-0.2-0.3-0.2c-0.1,0-0.1,0-0.2,0V67.5z"/>
	</g>
</g>
</svg>
