<?xml version="1.0" encoding="utf-8"?>
<!-- Generator: Adobe Illustrator 22.0.1, SVG Export Plug-In . SVG Version: 6.00 Build 0)  -->
<svg version="1.1" id="Layer_1" xmlns="http://www.w3.org/2000/svg" xmlns:xlink="http://www.w3.org/1999/xlink" x="0px" y="0px"
	 viewBox="0 0 300 101.9" style="enable-background:new 0 0 300 101.9;" xml:space="preserve">
<style type="text/css">
	.st0{fill:#606060;}
</style>
<g id="qQOb42_2_">
	<g>
		<path class="st0" d="M227.6,17.7c1.1,0.5,1.5,1.4,1.5,2.6c-0.1,1.6-0.8,3-2,3.9c-0.7,0.5-1.4,0.8-2.2,0.4c-0.8-0.4-1.1-1.1-1.1-2
			c-0.1-1.9,1.2-4.2,3-4.8c0.1,0,0.1-0.1,0.1-0.1C227.1,17.7,227.4,17.7,227.6,17.7z"/>
		<path class="st0" d="M222.9,59.9c-0.2-0.7-0.5-1.4-0.8-2.2c-1.8-5.1-2.9-10.4-3.1-15.8c-0.1-2,0.1-4.1,0.2-6.1c0-1,0-2.1-0.1-3.1
			c-0.3-2.6-1.5-3.9-4.1-4.5c-3.9-0.9-7.7-2-11.5-3.5c-0.4-0.2-0.8-0.3-1.2-0.6c-0.2-0.1-0.3-0.4-0.5-0.7c0.3-0.1,0.6-0.3,0.8-0.3
			c0.5,0.1,1,0.2,1.5,0.4c3.9,1.1,7.8,2.1,11.9,2.8c5.1,0.8,10.1,0.5,15.2-0.4c4-0.8,8.1-1.6,11.9-3c0.4-0.1,0.7-0.3,1.1-0.3
			c0.3,0,0.6,0.2,0.7,0.4c0.1,0.1-0.2,0.5-0.3,0.7c-0.1,0.1-0.3,0.2-0.5,0.3c-3.3,1.4-6.6,3-9.6,5c-4.9,3.1-7.7,7.6-8.9,13.1
			c-0.9,4-1.1,8.1-0.9,12.3c0.1,1.9,0.2,3.8,0.4,5.7c3.8,0,7.4,0.1,11.1,1c-3.6-0.1-7.2-0.2-10.9,0.1c0.1,0.6,0.1,1.1,0.2,1.6
			c1.4,0,2.7,0,3.9,0c3.1,0.1,6.1,0.4,9,1.4c1.5,0.5,2.8,1.2,3.9,2.3c1.2,1.3,1.4,3.5,0.3,5c-1.3,1.8-3.1,2.8-5.1,3.6
			c-2.6,1-5.2,1.5-7.9,1.6c-2.2,0.1-4.4,0.2-6.6,0.1c-3.3-0.2-6.5-0.8-9.5-2.3c-1.8-0.9-3.3-2.2-4.2-4c-1.1-2.3-1-3.6,0.8-5.7
			c1.7-1.9,3.9-2.9,6.3-3.5C218.7,60.7,220.8,60.3,222.9,59.9z M224.1,62.8c-0.2-0.5-0.4-0.9-0.6-1.3c-0.1-0.1-0.4-0.2-0.5-0.2
			c-1.3,0.2-2.5,0.5-3.7,0.8c-1.7,0.5-3.4,1.2-4.8,2.4c-2.5,2.1-2.4,5.2,0.1,7.2c0.7,0.6,1.5,1,2.4,1.4c3.6,1.5,7.4,1.9,11.3,1.5
			c2.2-0.3,4.4-0.7,6.4-1.7c0.7-0.3,1.4-0.8,1.9-1.3c1.9-1.8,1.7-4.3-0.6-5.7c-1.4-0.9-3-1.3-4.6-1.5c-1.9-0.3-3.7-0.4-5.7-0.2
			c0.1,0.9,0.2,1.8,0.4,2.7c-0.3-0.5-0.6-0.9-0.9-1.4c-0.6-1.2-0.7-1.2-2-0.9c-1.6,0.4-3.1,1.1-4.2,2.4c-0.6,0.8-0.6,1.5,0.2,2.1
			c0.4,0.3,0.9,0.6,1.3,0.7c2.4,0.8,4.8,0.8,7.3,0.5c0.6-0.1,1.3-0.3,1.9-0.5c0.6-0.2,1.1-0.6,1.1-1.3c-0.1-0.7-0.7-0.9-1.2-1
			c-0.9-0.2-1.7-0.3-2.7-0.5c1.6-0.3,3.2-0.4,4.7,0.1c0.7,0.2,1.2,0.6,1.3,1.4c0.1,0.8-0.2,1.5-0.9,1.9c-0.7,0.4-1.5,0.8-2.3,1.1
			c-2.6,0.8-5.2,0.7-7.9,0.2c-1.6-0.3-3.1-0.7-4.4-1.6c-1.5-1-1.7-2.4-0.5-3.8c1-1.2,2.4-1.9,3.9-2.4C222,63.4,223,63.1,224.1,62.8z
			"/>
		<path class="st0" d="M101.8,68.2c0,0.4,0,0.7,0,1.1c0,2.5,0,4.9,0,7.4c0,0.9-0.2,1.1-1.1,1.1c-1.2,0-2.4,0-3.6,0
			c-0.7,0-0.9-0.2-0.9-0.9c0-9.1,0-18.1,0-27.2c0-0.6,0.2-1.1,0.8-1.3c3.8-1.1,7.7-1.6,11.6-0.7c3.5,0.8,5.5,3.1,6.1,6.7
			c0.5,2.8,0.3,5.6-0.8,8.2c-1.5,3.7-4.7,5.9-8.7,5.9C104.2,68.4,103,68.2,101.8,68.2z M101.8,65.8c0.4,0.1,0.7,0.2,1.1,0.2
			c2.9,0.5,4.7-0.5,5.4-3.4c0.8-3.3,0.9-6.6,0-9.9c-0.7-2.6-2.5-3.7-5.1-3.2c-1.1,0.2-1.5,0.6-1.5,1.7c0,4.6,0,9.2,0,13.8
			C101.8,65.3,101.8,65.5,101.8,65.8z"/>
		<path class="st0" d="M72.3,68.4c-3.5,0-6.6-0.5-9.5-1.9c-5.2-2.6-7.8-6.8-8-12.6c-0.1-4.2,1.1-8,3.8-11.2c2.4-2.8,5.6-4.5,9.2-5.1
			c3.6-0.6,7.2-0.4,10.7,0.8c1.4,0.5,1.4,0.5,1.4,2c0,0.6,0,1.2-0.1,1.8c0,0.3-0.3,0.7-0.5,0.8c-0.2,0.1-0.7-0.1-0.9-0.2
			c-1-0.9-2-1.8-3.3-2.2c-4.1-1.3-8.4-0.3-11,4.1c-1.7,2.9-2.2,6.1-1.9,9.4c0.2,2.4,0.8,4.8,2.2,6.8c1.8,2.7,4.4,4.2,7.7,4.4
			c3,0.2,5.8-0.3,8.6-1.4c1-0.4,1.3-0.1,1.3,0.9c0,0.4,0,0.8,0,1.2c0,0.5-0.2,0.9-0.8,1C78.2,67.9,75.2,68.4,72.3,68.4z"/>
		<path class="st0" d="M149.6,59.4c0,2,0,4.1,0,6.1c0,1.2-0.2,1.6-1.4,1.9c-2.2,0.6-4.4,0.8-6.6,0.9c-1.7,0.1-3.4,0.1-5.1-0.4
			c-3.7-1.1-5.4-5.1-3.4-8.4c0.6-1.1,1.6-1.8,2.7-2.1c1.9-0.6,3.9-1,5.8-1.5c0.5-0.1,1-0.3,1.5-0.5c0.6-0.2,0.9-0.7,1-1.3
			c0-0.9,0-1.8-0.1-2.7c-0.2-1-0.8-1.5-1.8-1.6c-2.1-0.4-3.9,0.3-5.6,1.4c-0.4,0.3-0.8,0.6-1.3,0.7c-0.6,0.2-0.9,0-0.9-0.7
			c0-0.6,0-1.3,0-1.9c0-0.6,0.2-0.9,0.8-1.1c2.2-0.9,4.6-1.2,7-1.1c1.3,0.1,2.7,0.2,4,0.6c2.5,0.8,3.4,2.8,3.6,5.3
			C149.7,55.1,149.6,57.2,149.6,59.4C149.6,59.4,149.6,59.4,149.6,59.4z M144,57.1c-1.2,0.5-2.3,0.8-3.4,1.3
			c-1.4,0.6-2.1,1.7-2.2,3.2c0,0.6-0.1,1.2,0,1.8c0.2,2.6,2.9,3.9,5,2.4c0.3-0.2,0.6-0.6,0.6-0.9C144,62.3,144,59.7,144,57.1z"/>
		<path class="st0" d="M170.3,59.1c0.1,1.4,0.4,2.8,1.2,3.9c1.2,1.9,3.1,2.6,5.3,2.6c1.6,0.1,3.1-0.2,4.5-0.8
			c0.6-0.3,0.9-0.1,0.9,0.6c0,0.1,0,0.3,0,0.4c0,1.5,0,1.6-1.5,2c-3.4,0.9-6.8,0.9-10.2-0.2c-3.7-1.2-5.7-3.9-6.3-7.7
			c-0.4-2.4-0.2-4.8,0.8-7.1c1.6-3.4,4.3-5.2,7.9-5.7c2-0.3,4-0.1,6,0.6c2.1,0.8,3.5,2.1,3.7,4.4c0.2,2.4-0.8,4.3-3,5.4
			c-1.6,0.9-3.4,1.2-5.1,1.4C173.1,59,171.7,59.1,170.3,59.1z M170.2,57.5c0.5,0,0.9-0.1,1.3-0.1c3.5-0.4,5.5-2.8,5.1-6.2
			c-0.2-1.9-1.7-2.7-3.5-1.8c-0.9,0.4-1.4,1.2-1.8,2C170.5,53.3,170.2,55.4,170.2,57.5z"/>
		<path class="st0" d="M192.6,60.7c-0.9,1.2-1.7,2.4-2.5,3.6c-0.8,1.1-1.5,2.2-2.3,3.3c-0.3,0.4-0.6,0.6-1.1,0.6c-0.6,0-1.2,0-1.8,0
			c-0.3,0-0.7-0.2-0.8-0.4c-0.1-0.2,0-0.6,0.2-0.8c2.1-2.6,4.3-5.2,6.4-7.8c0.4-0.4,0.4-0.7,0.1-1.3c-2-3.2-4-6.4-6-9.7
			c-0.1-0.2-0.2-0.6-0.1-0.7c0.1-0.2,0.5-0.4,0.7-0.4c1.7,0,3.4,0,5.1,0c0.5,0,0.8,0.3,1.1,0.7c1.2,2,2.3,4,3.5,6.1
			c0.2-0.2,0.3-0.4,0.4-0.5c1.3-1.9,2.7-3.8,4-5.7c0.3-0.4,0.6-0.6,1.1-0.6c0.5,0,1,0,1.5,0c0.3,0,0.8,0.2,0.9,0.4
			c0.1,0.2-0.1,0.7-0.3,1c-0.9,1.1-1.8,2.2-2.7,3.3c-1.1,1.4-2.3,2.7-3.4,4.1c-0.1,0.1-0.2,0.2-0.2,0.3c2.1,3.3,4.1,6.6,6.2,10
			c0.2,0.3,0.4,0.6,0.6,1c0.3,0.6,0,1-0.6,1c-1.8,0-3.5,0-5.3,0c-0.5,0-0.7-0.3-1-0.7c-1.1-2-2.3-4-3.4-5.9
			C192.9,61.2,192.8,61,192.6,60.7z"/>
		<path class="st0" d="M154.5,52.7c0-4.7,0-9.4,0-14.1c0-1,0.2-1.2,1.2-1.2c1.1,0,2.2,0,3.4,0c1,0,1.3,0.2,1.3,1.2
			c0,3.8,0,7.6,0,11.5c0,5.6,0,11.1,0,16.7c0,1.1-0.2,1.3-1.3,1.3c-1.1,0-2.3,0-3.4,0c-0.9,0-1.1-0.2-1.1-1.1
			C154.5,62.3,154.5,57.5,154.5,52.7z"/>
		<path class="st0" d="M124.5,51.2c0.2-0.2,0.3-0.4,0.4-0.6c0.7-1,1.4-2,2.5-2.7c1.2-0.8,2.5-1,3.9-0.8c0.6,0.1,0.8,0.4,0.8,0.9
			c0,1,0,2,0,3c0,0.7-0.4,1-1.1,0.9c-0.9-0.1-1.7-0.3-2.6-0.3c-2.3-0.1-3.7,1.2-3.7,3.6c0,3.9,0,7.8,0,11.7c0,1.1-0.2,1.3-1.3,1.3
			c-1.2,0-2.3,0-3.5,0c-0.9,0-1.1-0.3-1.1-1.1c0-6.2,0-12.4,0-18.6c0-0.8,0.2-1,1-1c1.3,0,2.5,0,3.8,0c0.7,0,1,0.3,1,1
			C124.5,49.3,124.5,50.2,124.5,51.2z"/>
		<path class="st0" d="M91,57.8c0,3.1,0,6.3,0,9.4c0,0.7-0.2,0.9-0.9,0.9c-1.4,0-2.7,0-4.1,0c-0.7,0-0.9-0.3-0.9-0.9
			c0-6.3,0-12.6,0-18.9c0-0.7,0.3-0.9,1-0.9c1.3,0,2.7,0,4,0c0.7,0,0.9,0.2,0.9,1C91,51.5,91,54.6,91,57.8z"/>
		<path class="st0" d="M87.9,44c-1.8,0-3.3-1.5-3.3-3.3c0-1.8,1.5-3.2,3.3-3.2c1.8,0,3.3,1.5,3.3,3.2C91.2,42.5,89.7,44,87.9,44z"/>
		<path class="st0" d="M202.7,81c-0.5,0-0.9,0-1.4,0c0-0.8,0-1.5,0-2.3c0-0.7,0-1.4,0-2.1c0-0.7-0.5-1.1-1.2-0.9
			c-0.4,0.1-0.8,0.2-1.1,0.5c-0.2,0.1-0.4,0.5-0.4,0.7c0,1.2,0,2.3,0,3.5c0,0.2,0,0.4,0,0.7c-0.5,0-0.9,0-1.4,0c0-0.4,0-0.7,0-1.1
			c0-1.1,0-2.3-0.1-3.4c0-0.7-0.5-1-1.1-0.8c-0.3,0.1-0.7,0.2-1,0.4c-0.4,0.2-0.5,0.5-0.5,0.9c0,1.1,0,2.3,0,3.4c0,0.2,0,0.4,0,0.6
			c-0.5,0-0.9,0-1.4,0c0-2.1,0-4.2,0-6.4c0.4,0,0.7,0,1.1,0c0.1,0.2,0.1,0.4,0.2,0.6c2.4-1.1,2.9-1,3.9,0.2c0.8-0.6,1.6-1.1,2.7-0.9
			c0.9,0.1,1.6,0.7,1.6,1.6C202.7,77.6,202.7,79.3,202.7,81z"/>
		<path class="st0" d="M176.5,81c0,1.1,0,2.1,0,3.2c-0.5,0-0.9,0-1.4,0c0-3.1,0-6.2,0-9.4c1.3-0.5,2.6-0.7,3.9-0.1
			c1.7,0.7,2.3,3,1.3,4.8c-0.7,1.2-2.1,1.8-3.4,1.6C176.8,81.1,176.7,81,176.5,81z M176.5,75.7c0,1.1,0,2.3,0,3.4
			c0,0.7,0.1,0.8,0.8,0.8c0.8,0,1.5-0.3,1.8-1.1c0.4-0.9,0.4-1.8-0.2-2.7C178.4,75.6,177.5,75.4,176.5,75.7z"/>
		<path class="st0" d="M157.9,75.1c1.2-0.8,2.4-1,3.7-0.5c0.8,0.3,1.1,1,1.1,1.8c0,1.5,0,3,0,4.5c-0.5,0-1.1,0.3-1.3-0.4
			c-0.7,0.2-1.3,0.5-1.9,0.5c-1,0.1-1.9-0.6-2.1-1.6c-0.2-1,0.2-2,1.3-2.3c0.7-0.2,1.4-0.2,2.1-0.3c0.1,0,0.2,0,0.3,0
			c0.3-1.3-0.7-1.6-2.9-0.9C158.2,75.7,158.1,75.4,157.9,75.1z M161.3,77.9c-0.6,0.1-1.2,0.1-1.7,0.2c-0.4,0.1-0.8,0.4-0.7,0.8
			c0,0.3,0.2,0.7,0.5,0.9c0.5,0.3,1.1,0.2,1.6-0.1c0.1-0.1,0.3-0.3,0.3-0.4C161.4,78.9,161.3,78.4,161.3,77.9z"/>
		<path class="st0" d="M191.5,81c-0.5,0-1.1,0.3-1.3-0.5c-0.8,0.5-1.6,0.9-2.5,0.6c-0.9-0.2-1.4-0.9-1.4-1.8c-0.1-1,0.3-1.7,1.2-2
			c0.7-0.2,1.5-0.2,2.3-0.3c0.1,0,0.2,0,0.3,0c0.1-0.5,0-0.9-0.4-1.1c-0.9-0.5-1.7-0.2-2.5,0.2c-0.2-0.3-0.3-0.6-0.5-0.9
			c1.2-0.8,2.5-1,3.8-0.5c0.7,0.3,1,1,1,1.7c0,0.7,0,1.4,0,2.1C191.5,79.3,191.5,80.1,191.5,81z M190.1,78c-0.5,0-1,0.1-1.5,0.1
			c-0.1,0-0.3,0-0.3,0.1c-0.2,0.2-0.5,0.5-0.6,0.7c0,0.3,0.1,0.7,0.3,0.9c0.5,0.4,1.1,0.2,1.6,0c0.5-0.2,0.4-0.6,0.4-1
			C190.1,78.5,190.1,78.3,190.1,78z"/>
		<path class="st0" d="M173.8,77.8c0,2.5-2.1,3.9-4.4,3.1c-1.7-0.7-2.4-3.2-1.4-5c1-1.7,3.6-2,5-0.5
			C173.5,75.9,173.8,76.8,173.8,77.8z M168.9,77.7c0.1,0.4,0.1,0.8,0.3,1.2c0.3,0.7,0.8,1,1.5,1c0.7,0,1.2-0.4,1.5-1.1
			c0.3-0.9,0.3-1.7-0.1-2.5c-0.3-0.7-1-1-1.7-0.8C169.5,75.7,169,76.5,168.9,77.7z"/>
		<path class="st0" d="M136.6,78.1c-0.7,0-1.4,0-2,0c-0.7,0-1.3,0-2,0c-0.2,1.6,1.5,2.3,3.4,1.5c0.6,0.7,0.5,1-0.3,1.3
			c-1.6,0.6-3.2,0.3-4-0.9c-0.9-1.3-0.8-3.5,0.2-4.6c0.8-0.9,1.8-1.1,2.8-0.8c1.2,0.4,1.7,1.4,1.9,2.5
			C136.6,77.4,136.6,77.7,136.6,78.1z M132.5,77c0.9,0,1.7,0,2.6,0c-0.1-0.9-0.5-1.5-1.3-1.5C133.1,75.5,132.6,76,132.5,77z"/>
		<path class="st0" d="M141.8,75.8c-0.6-0.1-1.2-0.3-1.8-0.3c-0.3,0-0.8,0.2-0.9,0.5c-0.2,0.4,0.2,0.7,0.6,0.9
			c0.5,0.3,1,0.5,1.5,0.7c0.7,0.4,0.9,1,0.8,1.8c-0.1,0.7-0.4,1.2-1.1,1.4c-1.2,0.5-2.5,0.4-3.7-0.3c0.2-0.4,0.3-0.7,0.4-0.9
			c0.8,0.1,1.5,0.3,2.2,0.3c0.3,0,0.7-0.4,0.7-0.6c0-0.2-0.2-0.6-0.5-0.8c-0.4-0.3-0.9-0.4-1.3-0.6c-0.9-0.5-1.3-1.1-1.1-2.1
			c0.1-0.8,0.8-1.3,1.7-1.4c0.4,0,0.8-0.1,1.2,0C142.1,74.7,141.9,74.6,141.8,75.8z"/>
		<path class="st0" d="M152.2,75.6c0-0.3,0-0.7,0-1c0.4,0,0.7,0,1.1,0c0-0.5-0.1-1.1,0.2-1.4c0.2-0.3,0.8-0.3,1.2-0.5
			c0,0.7,0,1.2,0,1.9c0.7,0,1.3,0,1.9,0c-0.1,1-0.2,1.2-1.2,1.1c-0.6,0-0.8,0.2-0.7,0.8c0.1,0.8,0,1.6,0,2.4c0,1.1,0.4,1.4,1.4,0.9
			c0.1,0,0.2-0.1,0.2-0.1c0.1,0,0.1,0.1,0.1,0.1c0.4,0.8,0.4,0.9-0.5,1.2c-0.4,0.1-0.9,0.2-1.3,0.2c-0.9,0-1.3-0.5-1.3-1.4
			c0-1.1,0-2.2,0-3.3c0-0.9,0-0.8-0.8-0.8C152.4,75.6,152.3,75.6,152.2,75.6z"/>
		<path class="st0" d="M148.1,75.9c-1.8-0.5-2.6-0.4-3.2,0.5c-0.6,0.9-0.5,2.2,0.1,2.9c0.6,0.8,1.6,0.8,3,0.2
			c0.1,0.3,0.2,0.6,0.4,0.8c-1.8,1.6-4.7,0.7-5.2-1.6c-0.6-2.6,1.2-4.7,3.8-4.3C148.4,74.7,148.2,74.7,148.1,75.9z"/>
		<path class="st0" d="M164.4,71.4c0.4,0,0.9,0,1.4,0c0,0.2,0,0.5,0,0.7c0,2.3,0,4.6,0,7c0,0.7,0.1,0.8,0.8,0.8c0,0,0.1,0.1,0.1,0.1
			c0,0.4,0.5,0.9-0.3,1.1c-0.9,0.3-1.7,0-1.9-0.6c-0.1-0.2-0.1-0.4-0.1-0.6c0-2.7,0-5.4,0-8.1C164.4,71.6,164.4,71.5,164.4,71.4z"/>
		<path class="st0" d="M182.2,74.6c0.4,0,0.8,0,1.1,0c0.1,0.2,0.1,0.4,0.2,0.6c0.8-0.6,1.5-1.1,2.6-0.6c-0.2,0.4-0.3,0.8-0.5,1.2
			c-0.2,0-0.4-0.1-0.5-0.1c-0.8-0.1-1.5,0.5-1.5,1.3c0,1.3,0,2.6,0,4c-0.5,0-0.9,0-1.4,0C182.2,78.8,182.2,76.7,182.2,74.6z"/>
		<path class="st0" d="M150.9,81c-0.5,0-0.9,0-1.3,0c0-2.1,0-4.2,0-6.4c0.4,0,0.9,0,1.3,0C150.9,76.7,150.9,78.8,150.9,81z"/>
		<path class="st0" d="M203.2,42.3c0,1.1-0.8,1.9-1.8,1.9c-1.1,0-1.9-0.8-1.9-1.9c0-1.1,0.8-1.9,1.9-1.9
			C202.4,40.4,203.2,41.3,203.2,42.3z M202.8,42.3c0-0.9-0.7-1.6-1.5-1.6c-0.9,0-1.6,0.7-1.6,1.6c0,0.9,0.7,1.6,1.5,1.6
			C202.1,43.9,202.8,43.2,202.8,42.3z"/>
		<path class="st0" d="M151.1,72.6c0,0.5-0.4,0.9-0.9,0.9c-0.5,0-0.9-0.4-0.9-0.9c0-0.5,0.4-0.9,0.9-0.9
			C150.8,71.7,151.1,72.1,151.1,72.6z"/>
		<path class="st0" d="M202.1,43.4c-0.6,0-0.3-1.2-1.1-0.8c0,0.2-0.1,0.5-0.1,0.8c0,0-0.1,0-0.1,0c0-0.1-0.1-0.2-0.1-0.3
			c0-0.4,0-0.8,0-1.2c0-0.2,0.2-0.6,0.2-0.6c0.4,0,0.8,0.1,1.1,0.2c0.1,0,0,0.4,0,0.7c0,0.2,0,0.3,0,0.5
			C202,42.9,202,43.1,202.1,43.4z M200.9,42.1c0.1,0.1,0.2,0.1,0.3,0.2c0.2-0.2,0.4-0.3,0.6-0.5c-0.2-0.1-0.4-0.2-0.5-0.4
			C201.1,41.7,201,41.9,200.9,42.1z"/>
	</g>
</g>
</svg>
