<?xml version="1.0" encoding="utf-8"?>
<!-- Generator: Adobe Illustrator 22.0.1, SVG Export Plug-In . SVG Version: 6.00 Build 0)  -->
<svg version="1.1" id="Layer_1" xmlns="http://www.w3.org/2000/svg" xmlns:xlink="http://www.w3.org/1999/xlink" x="0px" y="0px"
	 viewBox="0 0 300 101.9" style="enable-background:new 0 0 300 101.9;" xml:space="preserve">
<style type="text/css">
	.st0{fill:#606060;}
</style>
<g>
	<path class="st0" d="M169.9,19.1l-1.1-2.8l-2.2-1.7l-1.9-1.8l-1.5-0.3l-2.2-2.3c-6.5-1.8-13.2-2-19.7-0.8
		c-6.3,1.3-12.1,3.9-17.2,7.7c-5.1,3.9-9.2,8.8-12.2,14.5c-3.1,6-4.7,12.6-4.7,19.7c0,6.3,1.3,12.2,3.8,17.6c2.3,5,5.6,9.5,9.8,13.3
		c4,3.5,8.5,6.4,13.7,8.3c5.1,1.9,10.4,3,15.6,3c5.9-0.1,11.6-1.3,17.1-3.8c5-2.4,9.4-5.6,13.4-9.8c3.8-4,6.8-8.5,8.9-13.5
		c2-5,3.2-10,3.2-15c0-3.9-0.7-7.6-2-11c-1.6-4-4-7.1-7.1-9.2l-1.3-0.9c-3.3-1.8-7.1-2.7-11.4-2.5c-5.7,0.2-12.1,2.4-19.2,6.1
		c0.2,0.9,0.6,1.7,1,2.5c1.7,1.5,2.5,2.8,2.5,4l1.7,1.8c2.4-1.8,5.2-3.3,8.4-4.1c3.4-0.8,6.4-0.9,9.2-0.2c3.1,0.8,5.5,2.5,6.9,5.1
		c1.7,3,2.3,6.9,1.7,12c-0.1,3-0.9,6-2.5,9.4c-1.5,3.5-3.6,6.8-6.4,9.7c-3,3.3-6.4,5.9-10.2,7.7c-4.3,2-9,3.1-14,3.1
		c-5.7,0-10.9-1.3-15.6-3.4c-4.1-2-7.6-4.9-10.6-8.7c-2.6-3.2-4.6-6.8-6-10.9c-1.3-3.6-1.9-7.2-1.9-10.6c0-4.8,1-9.3,3.2-14
		c2.4-5,5.7-9.1,9.9-12.5c4.8-3.9,10.5-6.3,16.9-7.3C153.2,16.1,161.2,16.7,169.9,19.1L169.9,19.1z M168.9,80.7
		c0.5-0.5,1.2-0.8,1.9-0.8c0.7,0,1.4,0.3,1.8,0.8c0.6,0.6,0.8,1.1,0.8,1.9c0,0.7-0.2,1.4-0.8,1.9c-0.5,0.5-1.1,0.7-1.8,0.8
		c-0.8-0.1-1.5-0.3-1.9-0.8c-0.6-0.6-0.8-1.3-0.8-1.9C168.1,81.8,168.3,81.2,168.9,80.7z"/>
	<path class="st0" d="M172.4,81c-0.5-0.5-1-0.7-1.6-0.7c-0.7,0-1.3,0.2-1.7,0.7c-0.3,0.5-0.6,0.9-0.6,1.6c0,0.6,0.2,1.1,0.6,1.6
		c0.5,0.5,1,0.7,1.7,0.7c0.6,0,1.1-0.2,1.6-0.7c0.3-0.5,0.6-1,0.7-1.6C173,81.9,172.8,81.5,172.4,81z M171.9,81.2
		c0.2,0.1,0.3,0.3,0.3,0.7c0,0.5-0.3,0.8-1,0.8l1,1.4h-0.5l-0.9-1.4h-0.7v1.4h-0.3v-3h1.4L171.9,81.2L171.9,81.2z"/>
	<path class="st0" d="M170.2,81.3v1h1.3c0.2-0.1,0.3-0.2,0.3-0.5c0-0.3-0.2-0.6-0.7-0.6H170.2z"/>
	<path class="st0" d="M165,49c0-1.3-0.5-2.3-1.4-3.2c-0.9-0.9-1.9-1.4-3.2-1.4c-1.3,0-2.3,0.5-3.2,1.4c-0.9,0.9-1.4,1.9-1.4,3.2
		c0,1.4,0.5,2.4,1.4,3.3c0.9,0.9,1.9,1.4,3.2,1.4c1.3,0,2.3-0.5,3.2-1.4C164.6,51.4,165,50.4,165,49z"/>
	<path class="st0" d="M178.2,48.3c-1.3-1.4-2.7-1.9-4.6-1.9c-1.8,0-3.4,0.6-4.7,1.9c-1.3,1.3-1.9,2.8-1.9,4.7c0,1.8,0.7,3.3,1.9,4.7
		c1.3,1.3,2.8,1.8,4.7,1.8c1.8,0,3.3-0.6,4.6-1.8c1.4-1.4,1.9-2.8,1.9-4.7C180.2,51.2,179.6,49.6,178.2,48.3z"/>
	<path class="st0" d="M171.3,70.8c2.6-2.8,4.6-6.3,5.8-10.4c-23,2.5-41.2-3.5-54.6-18.1c-1.1,4.8-1.5,9.3-0.9,13.5
		c0.6,4,1.8,7.5,3.8,10.8c1.8,3,4.3,5.6,7.3,7.6c2.8,2,6,3.5,9.6,4.4c3.4,0.9,6.8,1.3,10.4,1c3.6-0.2,7.1-1.1,10.2-2.6
		C166.1,75.7,168.9,73.5,171.3,70.8z M172.2,64c-4.1,6-9.1,9.9-15.3,11.6c-5.6,1.6-11,1.3-16.6-0.9c-2.6-1-5-2.4-7.2-4.1
		c-2.3-1.8-4.1-3.9-5.5-6.1c-3.3-4.9-4.4-10.2-3.4-16.1C135.9,59.5,151.8,64.6,172.2,64L172.2,64z"/>
	<path class="st0" d="M151.9,56.1c0.1,0.3,0.5,0.7,0.8,0.8l1.1-0.1c0.5-0.2,0.7-0.5,0.8-0.9c0.1-0.5,0.1-0.7-0.1-1.1
		c-2.2-4.1-5.4-5.1-9.6-3.2c-0.5,0.2-0.7,0.5-0.8,0.8c-0.1,0.5-0.1,0.8,0.1,1.1c0.1,0.3,0.5,0.7,0.8,0.8c0.3,0.1,0.7,0.1,1,0
		C148.7,53.1,150.6,53.7,151.9,56.1L151.9,56.1z"/>
	<path class="st0" d="M126.2,34.8c-1.4,1.3-1.9,2.8-1.9,4.6c0,1.8,0.6,3.4,1.9,4.7c1.3,1.3,2.8,1.9,4.7,1.9s3.3-0.7,4.7-1.9
		c1.3-1.3,1.8-2.8,1.8-4.7c0-1.7-0.6-3.3-1.8-4.6c-1.4-1.4-2.8-2-4.7-2C129.1,32.7,127.5,33.4,126.2,34.8z"/>
	<path class="st0" d="M139,43.8c-0.1,1.3,0.3,2.3,1.4,3.2c0.8,0.9,1.9,1.4,3.2,1.4c1.3,0,2.3-0.5,3.2-1.4c0.9-0.9,1.4-1.9,1.4-3.2
		c0-1.3-0.5-2.4-1.4-3.2c-0.9-1-1.9-1.4-3.2-1.4c-1.3,0-2.4,0.3-3.2,1.4C139.3,41.4,138.8,42.5,139,43.8z M177.7,20.5l-6.9-1.1
		c-10.8-1-20.9,0.6-30.6,4.9l1,2.8c0.5-0.6,1.1,0.1,2,2c0.1,1.4,0.6,2.2,1.5,2.3l-0.2,1c12.5-5.6,24.7-7.2,36.5-4.6l4.9,1.3
		c-0.8-1-1.4-1.8-1.6-2.5c-0.7-1.9-1.6-2.6-2.8-2.3c0.3-1.5-0.5-2.3-2.4-2.4L177.7,20.5L177.7,20.5z"/>
</g>
</svg>
