<svg version="1.1" id="Layer_1" xmlns="http://www.w3.org/2000/svg" xmlns:xlink="http://www.w3.org/1999/xlink" x="0px" y="0px"
	 viewBox="0 0 97.2 101.9" style="enable-background:new 0 0 97.2 101.9;" xml:space="preserve">
<g opacity="0.87">
	<path d="M1.6,35.7V14.2h3.1l8.1,18.7L21,14.2h3v21.5h-1.9V15.9H22l-8.2,19.8h-1.9L3.6,16H3.5v19.8L1.6,35.7L1.6,35.7z"/>
	<path d="M29.2,20.8l5,12.5l5-12.5h1.9L33,41.4h-2l2.3-5.7l-6.2-14.9C27.1,20.8,29.2,20.8,29.2,20.8z"/>
	<path d="M0.8,41h8c1.3,0,3.7,0,5.3,1c2,1.2,2.4,3.3,2.4,4.6c0,0.8-0.1,2.2-1.3,3.2C15,50,14,50.9,12.8,51.3v0.1
		c3.3,0.6,4.6,3,4.6,5.2c0,2.5-1.5,4.2-3.2,5.1c-1.7,0.9-4.6,0.9-5.4,0.9h-8V41z M5.2,49.8h3.2c1.3,0,3.7,0,3.7-2.8
		c0-2.7-2.3-2.7-3.8-2.7H5.2C5.2,44.3,5.2,49.8,5.2,49.8z M5.2,59h3.1c2.1,0,4.5,0,4.5-2.9c0-3.1-2.8-3.1-5-3.1H5.2V59z"/>
	<path d="M20.5,41h4.4v21.5h-4.4V41z"/>
	<path d="M33.1,47.5v9c0,1.3,0,3.3,2.3,3.3c2.8,0,2.8-2.1,2.8-4.7v-7.6h4.5v9.9c0.1,3.2,0.1,3.6,0.1,4s0.1,0.7,0.1,1.1h-4.3l-0.2-2
		c-0.4,0.7-1.6,2.4-4.4,2.4c-2,0-3.7-0.9-4.5-2c-1-1.2-1-3.3-1-4v-9.3h4.6V47.5z"/>
	<path d="M50.5,56.1c0,1,0,4,3.1,4c1.1,0,2.2-0.4,2.6-2.1h4c-0.1,0.7-0.2,2-1.4,3.3c-1.1,1.2-3.1,1.8-5.3,1.8
		c-1.3,0-3.7-0.2-5.3-1.9c-1.4-1.4-1.9-3.4-1.9-5.9c0-2.4,0.6-5.4,3.1-7.1c1.2-0.8,2.6-1.3,4.2-1.3c2.1,0,4.7,0.8,6.1,3.6
		c1,2.1,1,4.3,0.9,5.5H50.5L50.5,56.1L50.5,56.1z M56.1,53.3c0-0.7-0.1-3.4-2.6-3.4c-1.9,0-2.7,1.6-2.8,3.4H56.1z"/>
	<path d="M0.7,67.8h7.1c1.2,0,4.8,0,7.4,1.9c2.7,2,3.7,5.4,3.7,8.4c0,6.6-3.5,10.1-7.6,10.8c-0.8,0.2-1.7,0.2-3.9,0.2H0.7V67.8z
		 M5.4,85.8c0.5,0,1.3,0.1,1.8,0.1c2,0,3.7-0.1,5-1.5c1.8-1.8,1.9-5,1.9-6.1c0-3-1-5.8-3.9-6.6c-1-0.3-2.2-0.4-4.8-0.3V85.8z"/>
	<path d="M29.2,73.9c5.4,0,7.8,3.7,7.8,7.9c0,4.2-2.4,8-7.9,8c-4.3,0-7.7-2.6-7.7-7.9C21.5,78.3,23.3,73.9,29.2,73.9z M29.3,86.8
		c1.9,0,3.2-1.2,3.2-5.1c0-2-0.4-4.8-3.3-4.8C26,76.9,26,80.6,26,82C26,85.3,27.1,86.8,29.3,86.8z"/>
	<path d="M48.3,79.6c-0.1-0.5-0.2-2.8-1.9-2.8c-2.1,0-2.3,3.2-2.3,4.8c0,0.8,0.1,3.5,1.1,4.6c0.4,0.4,0.9,0.5,1.2,0.5
		c0.5,0,1.8-0.2,2-2.9h4.3c-0.1,1.2-0.2,3-1.9,4.4c-1.1,0.9-2.4,1.4-4.3,1.4c-2,0-3.7-0.4-5.1-2c-1.3-1.5-1.9-3.5-1.9-5.9
		c0-6.8,5-7.8,7-7.8c2.8,0,6.1,1.5,6.1,5.6h-4.3L48.3,79.6L48.3,79.6z"/>
	<path d="M64.1,89.1c-1.4,0.4-2.7,0.5-3.4,0.5c-4.4,0-4.4-2.8-4.4-4v-8.2h-2.9v-2.9h2.9v-2.9l4.4-1.6v4.6h3.6v2.9h-3.6v6.8
		c0,1.4,0,2.2,2,2.2c0.7,0,1,0,1.5-0.1v2.7H64.1z"/>
	<path d="M73.3,73.9c5.4,0,7.8,3.7,7.8,7.9c0,4.2-2.4,8-7.9,8c-4.3,0-7.7-2.6-7.7-7.9C65.5,78.3,67.4,73.9,73.3,73.9z M73.3,86.8
		c1.9,0,3.2-1.2,3.2-5.1c0-2-0.4-4.8-3.3-4.8C70,76.9,70,80.6,70,82C70,85.3,71.2,86.8,73.3,86.8z"/>
	<path d="M84.4,78c0-0.7-0.1-2.9-0.2-3.7h4.1l0.1,2.9c0.6-1.3,1.5-3.1,5.1-2.9v4c-4.5-0.4-4.7,1.9-4.7,3.7v7.4h-4.4L84.4,78L84.4,78
		z"/>
</g>
</svg>
