<?xml version="1.0" encoding="utf-8"?>
<!-- Generator: Adobe Illustrator 22.0.1, SVG Export Plug-In . SVG Version: 6.00 Build 0)  -->
<svg version="1.1" id="Layer_1" xmlns="http://www.w3.org/2000/svg" xmlns:xlink="http://www.w3.org/1999/xlink" x="0px" y="0px"
	 viewBox="0 0 300 101.9" style="enable-background:new 0 0 300 101.9;" xml:space="preserve">
<style type="text/css">
	.st0{fill:#FFFFFF;}
	.st1{fill-rule:evenodd;clip-rule:evenodd;fill:#606060;}
</style>
<g id="XMLID_846_">
	<path id="XMLID_892_" class="st0" d="M907.7,619.5c6.4-2.5,12.3-4.1,17.6-5.1c18.5-3.5,30.4,0.6,35.8,4.4c0.2-1.5-5.8-6.6-16.2-8.7
		c-14.8-3-32.7,3.7-36.1,5c0.2-2.4,1.2-5.6-0.2-7.1c-0.9-0.9-3.7-0.7-4,2.4c-0.2,2.2-0.5,4.8-0.8,7.6
		C903.3,621.5,905.4,620.3,907.7,619.5z"/>
	<path id="XMLID_887_" class="st0" d="M974,625.1c-0.9-1-3.4-1.2-4.3-1.2c0,0-0.1,0-0.1,0h0c-3.6,0.6-6.8,1.7-9.4,4.7
		c-2,2.2-3.2,4.8-3.8,7.6c-0.1,0.5-0.7,2.3-1.9,3.3c-0.1,0.1-0.2,0.2-0.3,0.1c0,0-0.1-0.1-0.1-0.3c0-0.6,1.3-9.1,1.3-9.2
		c0.2-1,0.2-1.9,0.2-2.6c0-3.2-2.1-3.5-3-3.5c-1.6,0-3.2,0.9-5.1,2.7c-0.6,0.6-1.2,1.3-1.8,2.1c0-0.6,0.1-1.2,0.1-1.2
		c0-3.3-2-3.6-2.9-3.6c-2.3,0-4.5,1.5-6.9,4.5c0-0.2,0-0.6,0.1-1.4c0-1.1-0.3-1.9-0.9-2.5c-0.7-0.7-1.6-0.7-1.9-0.7
		c-1.1,0.1-4.4,2.9-6.4,4.9l0.3-2.4c0.1-0.6,0-1-0.3-1.4c-0.5-0.6-1.6-0.8-3.5-0.8c-0.1,0-0.1,0-0.2,0c-3.8,0-7.2,1.6-9.9,4.5l0,0v0
		c-1.8,2-3.1,4.2-3.7,6.6c-0.4,0.9-1.5,3-3.1,3.9c0,0-0.2,0.1-0.2,0c0,0-0.1-0.1-0.1-0.5l0.1-1c0.5-3.4,1.5-10.4,1.4-11.4l0-0.1
		c-0.1-0.6-0.3-2.3-2-2.6c-1.3-0.2-2.3,0.4-2.5,0.6l0,0l0,0.1c0.1,0.4-1.1,8.8-1.7,13.4c-0.3,2.3-0.5,3.6-0.5,3.7
		c0,2.7,1.9,2.9,2.5,2.9c1.6,0,3.3-1,5-3.1c0.2-0.3,0.5-0.6,0.7-0.8c0.1,1.2,0.5,2.1,1.3,2.9c-3.9,3.2-6.5,6-6.5,9.5
		c0,1.9,0.6,3.5,1.9,4.8c1.3,1.3,2.9,1.9,4.9,1.9c0,0,0,0,0.1,0c3.7,0,7.3-1.6,10.5-4.9c1.3-1.3,2.3-2.9,3.1-5c0.7-1.9,1-5.1,1.3-8
		c0.4-4.4,0.7-8.3,0.8-8.6c0.9-1.2,2.5-2.6,4.6-4.1l-0.1,1.6l-0.1,1c0,0-1,8.7-1,8.8c0,0.4-0.1,1.2-0.1,1.6c0,0.4,0.1,2.4,2,2.7
		c1.2,0.2,2.2-0.3,2.6-0.6l0.1,0l0-0.1c-0.1-0.3,0.3-3.6,0.7-5.7c0.2-2,1.1-4.2,2.5-6.4c1.5-2.3,2.5-3.2,2.9-3.2c0,0,0,0,0,0
		c0.1,0,0.1,0.1,0.1,0.1c0.2,0.3,0,2-0.1,3.1c0,0.1-0.9,8.5-0.9,8.5c0,0,0,0.3-0.1,0.6c0,0.5-0.1,0.8-0.1,1c0,0.4,0.1,2.4,2,2.7
		c1.2,0.2,2.5-0.4,2.8-0.7l0,0l0-0.1c-0.2-0.4,0.3-4.2,0.5-5.6c0.2-2,1.1-4.1,2.6-6.3c1.9-2.8,2.7-3.1,3-3.1c0.1,0,0.2,0,0.2,0
		c0.2,0.2,0,2.1-0.3,3.8c0,0,0,0-0.7,4.6c-0.3,2-0.4,3.4-0.4,4.4c0,3,2.1,3.2,2.7,3.2c1.2,0,2.5-0.7,4.1-2.3
		c0.2-0.2,0.3-0.3,0.5-0.5c0.7,2.4,2.4,2.8,3.4,2.8c1.6,0,3.2-0.8,5.2-2.5c0.8-0.7,1.5-1.5,2.3-2.3c0,0.1,0,0.2,0,0.2l0,0
		c0,0.1-0.1,0.5-0.2,1.7c0,2.7,1.9,2.9,2.5,2.9c0.8,0,1.6-0.3,2.4-0.9l0.1,0l0-0.1c0,0,0-0.1-0.1-0.1c-0.5-0.4,1.1-10.7,2.3-17.2
		l0-0.1C974.3,625.8,974.2,625.4,974,625.1z M961.7,639.6c-0.2,0-0.4-0.5-0.4-1.4c0-2.8,0.6-5.3,1.7-7.4c1.2-2.3,2.7-2.8,4.1-2.8
		c0.6,0,1.2,0.1,1.6,0.2c0.1,0,0.1,0,0.2,0c-0.1,0.5-0.3,1.6-0.3,1.6l0,0c-0.4,2.9-1.6,5.4-3.6,7.5
		C963.2,639.3,962.1,639.6,961.7,639.6z M914.8,639.4C914.8,639.4,914.8,639.4,914.8,639.4c0,0-0.1,0.1-0.1,0
		c-0.2-0.2-0.2-0.8-0.2-1.3c0.1-2.9,0.7-5.4,1.8-7.4c1-1.7,2.2-2.6,3.5-2.6c0.1,0,0.2,0,0.2,0c0.6,0,1.4,0.1,2.2,0.3
		c-0.1,0.6-0.1,1.5-0.1,1.5v0c-0.6,2.7-1.8,5.1-3.9,7.3C916.4,639.2,915.3,639.4,914.8,639.4z M913.3,656c-0.7,0-1.9-0.2-2.9-0.9
		c-1.2-1-1.8-2.4-1.8-4.2c0-1.8,1.3-4,3.9-6.6c0.1,0,0.1,0.1,0.1,0.1c0,0,0,0,0,0c2.5,0,5.1-1.7,8-5.1c-0.1,0.8-0.2,1.6-0.2,1.6v0
		c-0.6,7.6-1.5,11.4-2.2,12.5C917.1,655.3,915.5,656,913.3,656C913.4,656,913.4,656,913.3,656z"/>
	<path id="XMLID_886_" class="st0" d="M896.9,629.4L896.9,629.4c-0.1-0.1-0.3-0.3-0.8-0.7l-0.8-0.7c-1.9-1.5-3.1-2.7-3.7-3.4
		c-0.4-0.5-0.6-1.1-0.7-1.7c-0.1-0.8,0.6-1.8,1.5-2.3c0.7-0.4,2.2-0.9,4.2,0.5c0.3,0.2,0.5,0.5,0.8,0.8c0.3,0.4,0.7,0.8,1.2,1.1
		c0.8,0.4,1.4,0.4,1.8,0.3c0.5-0.1,0.9-0.5,1.1-0.9c0.6-1.1,0.6-2.8-0.5-3.8c-1-0.9-3.3-1.5-5.5-1.5c-2.5,0-4.6,0.7-6.3,2.1
		c-1.8,1.4-2.7,3.3-2.7,5.5c0,1.2,0.4,2.3,1,3.3c0.6,0.9,1.8,2,3.6,3.5c0,0,1.4,1.1,2.1,1.7c1.8,1.5,2.7,2.9,2.7,4.3
		c0,0.9-0.3,1.7-1,2.3c-0.8,0.7-1.7,1-2.9,0.9c-2.7-0.1-3.6-2-4.1-3.2l-0.1-0.2c-0.4-0.9-1.1-1.4-2-1.5c-0.7-0.1-1.8,0.2-2.5,1.1
		c-0.4,0.5-0.8,1.4-0.4,2.7c1,2.8,3.8,4.5,7.2,4.5c2.9,0,5.4-0.8,7.4-2.3c2-1.6,3.1-3.7,3.1-6.1
		C900.5,633.4,899.3,631.3,896.9,629.4z"/>
	<path id="XMLID_860_" class="st0" d="M932.2,654.9v-2.3c0-0.8-0.2-1.3-0.6-1.7c-0.3-0.4-0.9-0.6-1.7-0.6c-0.4,0-0.7,0-1,0.1
		c-0.3,0.1-0.6,0.2-0.8,0.4l0.1,0.9c0.2-0.2,0.5-0.3,0.8-0.4c0.3-0.1,0.6-0.2,0.9-0.2c0.5,0,0.9,0.1,1.1,0.4
		c0.2,0.2,0.3,0.7,0.3,1.2c-0.2,0-0.4,0.1-0.5,0.1s-0.3,0-0.5,0c-0.3,0-0.5-0.1-0.9,0c-0.3,0.1-0.6,0.1-0.8,0.3
		c-0.3,0.1-0.5,0.3-0.6,0.5c-0.2,0.2-0.3,0.5-0.3,0.9c0,0.3,0.1,0.6,0.2,0.8c0.1,0.2,0.2,0.4,0.4,0.5c0.2,0.1,0.4,0.2,0.6,0.3
		c0.3,0.1,0.5,0.1,0.8,0.1c0.2,0,0.4,0,0.6-0.1c0.2-0.1,0.4-0.1,0.5-0.2c0.1-0.1,0.3-0.1,0.4-0.2c0.1-0.1,0.2-0.2,0.2-0.2H931v0.6
		h1.1c0,0,0-0.2,0-0.4C932.1,655.5,932.2,655.2,932.2,654.9z M931,653.8c0,0.4-0.1,0.8-0.4,1c-0.3,0.3-0.6,0.4-1.2,0.4
		c-0.1,0-0.2,0-0.4-0.1c-0.1,0-0.2-0.1-0.3-0.2c-0.1-0.1-0.2-0.2-0.2-0.3c-0.1-0.1-0.1-0.2-0.1-0.4c0-0.2,0.1-0.4,0.2-0.6
		c0.1-0.1,0.3-0.2,0.5-0.3c0.2-0.1,0.4-0.1,0.6-0.1c0.2,0,0.4,0,0.5,0c0.1,0,0.2,0,0.3,0c0.1,0,0.3,0,0.3,0V653.8z"/>
	<rect id="XMLID_859_" x="933.3" y="647.7" class="st0" width="1.1" height="8.3"/>
	<rect id="XMLID_858_" x="936" y="650.5" class="st0" width="1.1" height="5.5"/>
	<rect id="XMLID_857_" x="936" y="647.7" class="st0" width="1.1" height="1.7"/>
	<path id="XMLID_856_" class="st0" d="M946.2,650.9c-0.2-0.2-0.4-0.3-0.6-0.4c-0.2-0.1-0.5-0.2-0.9-0.2c-0.1,0-0.3,0-0.4,0.1
		c-0.2,0-0.3,0.1-0.5,0.2c-0.2,0.1-0.3,0.2-0.5,0.3c-0.1,0.1-0.3,0.3-0.4,0.5c-0.1-0.4-0.4-0.7-0.7-0.8c-0.3-0.2-0.6-0.3-0.9-0.3
		c-0.4,0-0.8,0-1.1,0.1c-0.3,0.1-0.5,0.6-0.7,0.6h0l0-0.6h-0.8v5.5h1.1v-2.9c0-0.3-0.1-0.5-0.1-0.8c0.1-0.2,0.1-0.5,0.2-0.7
		c0.1-0.2,0.2-0.3,0.4-0.5c0.2-0.1,0.4-0.2,0.7-0.2c0.2,0,0.4,0,0.5,0.1c0.1,0.1,0.2,0.2,0.3,0.4c0.1,0.1,0.1,0.3,0.2,0.5
		c0,0.2,0,0.4,0,0.5v3.4h1.1v-2.9c0-0.3,0-0.5,0-0.8c0.1-0.2,0.1-0.5,0.2-0.7c0.1-0.2,0.3-0.3,0.4-0.5c0.2-0.1,0.4-0.2,0.7-0.2
		c0.2,0,0.4,0,0.5,0.1c0.1,0.1,0.2,0.2,0.3,0.4c0.1,0.1,0.1,0.3,0.1,0.5c0,0.2,0,0.4,0,0.5v3.4h1.1v-3.6c0-0.3,0-0.6-0.1-0.8
		C946.4,651.3,946.3,651.1,946.2,650.9z"/>
	<path id="XMLID_853_" class="st0" d="M952.3,652.1c-0.1-0.4-0.2-0.7-0.4-1c-0.2-0.3-0.4-0.5-0.8-0.6c-0.3-0.2-0.7-0.2-1.2-0.2
		c-0.4,0-0.8,0.1-1.1,0.2c-0.3,0.1-0.6,0.3-0.8,0.6c-0.2,0.3-0.4,0.6-0.5,0.9c-0.1,0.3-0.2,0.7-0.2,1.1c0,0.5,0.1,0.9,0.2,1.2
		c0.1,0.4,0.3,0.7,0.5,1c0.2,0.3,0.5,0.5,0.9,0.6c0.4,0.1,0.8,0.2,1.3,0.2c0.2,0,0.4,0,0.6,0c0.2,0,0.3-0.1,0.5-0.1
		c0.1,0,0.3-0.1,0.4-0.1c0.1,0,0.4-0.1,0.4-0.1v-1c0,0.1-0.2,0.1-0.3,0.2c-0.1,0.1-0.3,0.1-0.4,0.2c-0.2,0.1-0.3,0.1-0.5,0.1
		c-0.2,0-0.4,0.1-0.5,0.1c-0.2,0-0.5,0-0.7-0.1c-0.2-0.1-0.4-0.2-0.6-0.4c-0.2-0.2-0.3-0.4-0.4-0.7c-0.1-0.2-0.1-0.3-0.1-0.8h4
		C952.4,652.7,952.4,652.5,952.3,652.1z M948.4,652.7c0,0,0.1-0.4,0.1-0.6c0.1-0.2,0.2-0.4,0.3-0.5c0.1-0.1,0.3-0.3,0.5-0.4
		c0.2-0.1,0.4-0.1,0.6-0.1c0.2,0,0.4,0,0.6,0.1c0.2,0.1,0.3,0.2,0.4,0.3c0.1,0.1,0.2,0.3,0.3,0.5c0.1,0.2,0.1,0.6,0.1,0.6H948.4z"/>
	<path id="XMLID_852_" class="st0" d="M956.2,650.3c-0.4,0-0.8,0-1.1,0.1c-0.3,0.2-0.6,0.6-0.7,0.6h0l0-0.6h-1.1v5.5h1.1v-2.6
		c0-0.3,0.1-0.7,0.1-0.9c0.1-0.3,0.2-0.5,0.3-0.7c0.1-0.2,0.3-0.4,0.5-0.5c0.2-0.1,0.5-0.2,0.8-0.2c0.5,0,0.7,0.2,0.8,0.5
		c0.2,0.3,0.2,0.8,0.2,1.5v2.9h1.1v-3.4c0-0.8-0.1-1.3-0.5-1.8C957.4,650.5,956.9,650.3,956.2,650.3z"/>
	<path id="XMLID_851_" class="st0" d="M961.8,655.3c-0.2,0-0.4-0.1-0.6-0.3c-0.2-0.2-0.2-0.4-0.2-0.7V651h1.7v-0.6H961v-1.7
		l-1.1,0.3v1.4h-1.1v0.6h1.1v3.5c0,0.6,0.2,1,0.5,1.2c0.3,0.3,0.7,0.4,1.3,0.4c0.2,0,0.4,0,0.6,0c0.1,0-0.1-0.1,0.5-0.1v-0.9
		c0,0.1-0.3,0.1-0.4,0.1C962.2,655.3,961.9,655.3,961.8,655.3z"/>
	<path id="XMLID_848_" class="st0" d="M967.6,651.1c-0.2-0.3-0.5-0.5-0.9-0.6c-0.4-0.1-0.7-0.2-1.2-0.2c-0.4,0-0.8,0.1-1.2,0.2
		c-0.4,0.1-0.7,0.3-0.9,0.6c-0.3,0.3-0.4,0.6-0.6,0.9c-0.1,0.4-0.2,0.7-0.2,1.2c0,0.4,0.1,0.8,0.2,1.1c0.1,0.4,0.3,0.7,0.6,0.9
		c0.3,0.3,0.6,0.5,0.9,0.6c0.3,0.2,0.7,0.2,1.2,0.2c0.4,0,0.8-0.1,1.2-0.2c0.4-0.2,0.7-0.4,0.9-0.6c0.2-0.3,0.4-0.6,0.6-0.9
		c0.1-0.4,0.2-0.7,0.2-1.1c0-0.4-0.1-0.8-0.2-1.2C968,651.7,967.8,651.4,967.6,651.1z M967.1,653.9c-0.1,0.2-0.2,0.5-0.3,0.7
		c-0.1,0.2-0.3,0.4-0.5,0.5c-0.2,0.1-0.5,0.2-0.8,0.2c-0.3,0-0.6-0.1-0.8-0.2c-0.2-0.1-0.4-0.3-0.5-0.5c-0.1-0.2-0.2-0.4-0.3-0.7
		c-0.1-0.2-0.1-0.5-0.1-0.7c0-0.3,0-0.5,0.1-0.8c0.1-0.3,0.2-0.5,0.3-0.7c0.1-0.2,0.3-0.4,0.5-0.5c0.2-0.1,0.5-0.2,0.7-0.2
		s0.5,0.1,0.7,0.2c0.2,0.1,0.4,0.3,0.5,0.5c0.1,0.2,0.3,0.4,0.3,0.7c0.1,0.3,0.1,0.5,0.1,0.8C967.2,653.4,967.2,653.7,967.1,653.9z"
		/>
	<path id="XMLID_847_" class="st0" d="M971.7,653.2c-0.2-0.1-0.4-0.2-0.6-0.3c-0.2-0.1-0.4-0.2-0.6-0.3c-0.2-0.1-0.3-0.2-0.4-0.3
		c-0.1-0.1-0.2-0.3-0.2-0.5c0-0.2,0.1-0.4,0.3-0.5c0.2-0.1,0.4-0.2,0.7-0.2c0.1,0,0.1,0,0.2,0c0.1,0,0.2,0,0.3,0.1
		c0.1,0,0.2,0.1,0.3,0.1c0.1,0,0.2,0.1,0.2,0.1l0.1-0.9c-0.2-0.1-0.4-0.1-0.6-0.2c-0.2,0-0.4-0.1-0.7-0.1c-0.3,0-0.5,0-0.8,0.1
		c-0.2,0.1-0.4,0.2-0.6,0.3c-0.2,0.1-0.3,0.3-0.4,0.5c-0.1,0.2-0.2,0.5-0.2,0.8c0,0.3,0.1,0.5,0.2,0.7c0.1,0.2,0.3,0.3,0.4,0.5
		c0.2,0.1,0.4,0.2,0.6,0.3c0.2,0.1,0.4,0.2,0.6,0.3c0.2,0.1,0.3,0.2,0.4,0.3c0.1,0.1,0.2,0.3,0.2,0.4c0,0.2,0,0.3-0.1,0.4
		c-0.1,0.1-0.1,0.2-0.3,0.2c-0.1,0.1-0.2,0.1-0.3,0.1c-0.1,0-0.2,0-0.4,0c-0.1,0-0.2,0-0.3,0c-0.1,0-0.2,0-0.3-0.1
		c-0.1,0-0.2-0.1-0.3-0.1c-0.1,0-0.2-0.1-0.3-0.2l-0.1,0.9c0.2,0.1,0.5,0.2,0.7,0.2c0.3,0,0.5,0.1,0.8,0.1c0.2,0,0.5,0,0.7-0.1
		c0.2-0.1,0.4-0.2,0.6-0.3c0.2-0.1,0.3-0.3,0.4-0.5c0.1-0.2,0.2-0.5,0.2-0.8c0-0.3-0.1-0.5-0.2-0.7
		C972,653.5,971.8,653.3,971.7,653.2z"/>
</g>
<g>
	<path class="st1" d="M102.9,84.1c-1,2.9-2.2,6-4.9,6.3c-2.7,0.4-5.4-0.6-4.9-6.4c0.5-5.8,6.3-19.7,5.9-34.1
		c-0.3-8.6-4.5-9.4-8.9-4.3c-4,4.7-7.8,21.9-7.7,23.9c0,2.4-2.2,5.2-4.4,5.2c-1.6,0-2.8-1.4-3.1-6c-0.4-7.1,11.6-43.6,26.1-42
		c8.1,0.9,7.4,12.3,7.5,14c0.1,1.7,1.3,1.6,1.4,0.8c0.3-2.2,7.3-6.6,9.7-0.4c0.5,1.4,1.2,0.7,1.3,0.1c0.3-2.1,8.7-16.8,18.1-15.2
		c6.1,1-0.5,17.7-1.7,20.6c-4.6,12-2.6,29-0.2,35.4c3.2,8.1-9.2,9.7-11.1,1.8c-1-4.1-4.3-11.6,1.6-27.7c3.9-10.8-1.4-11.4-3.8-7.3
		c-3.1,5.2-4.5,19.6-4.7,24.7c-0.5,15.9-9.8,12.5-9.6,6.5c0.2-5.9,4.3-22.2,3.9-23.6c-0.5-1.8-3.2-4.5-5.7,0.5
		c-2.5,5-3,16.7-3.8,22.2L102.9,84.1L102.9,84.1z"/>
	<path class="st1" d="M144.5,39.2c1.5,0.9,4.8-0.2,6.1-2.4c1.3-2.2,1-5-1-5.9c-1.6-0.7-4,0.5-5.4,2.7
		C142.9,35.7,143,38.3,144.5,39.2L144.5,39.2z"/>
	<path class="st1" d="M140.1,48.4c0.8-2.7,3-5.2,5.5-5.3c2.2-0.1,3.2,3.3,2.5,5.4c-5.4,15.8,3.7,9.2,3.8-1c0-4.6-0.1-18.4,6.1-27.5
		c2.1-3.1,7-3.2,7.2,2.3c0.1,2.9-2,6.6-4.5,13.4c-1.3,3.5-1.7,8.2-1.6,9.8c0.4,4.1,5.1,3.9,6.4-1.6c0.6-2.4,1.6-5.6,2-10.2
		c1.3-14.1,8-23.3,11.4-22.3c8.4,2.5-5.1,17.1-3.2,20.6c3-4,11.2-8.7,13.6-3.4c2.6,5.9-6.6,14.4-8.3,15.2c0.2,0.8,1.2,0.9,1.6,1.6
		c0.4,0.6,2,2.4,2.9,2.1c1.2-0.4,3.5-6.8,3.7-9.8c0.5-7.9,15.9-25.4,20.9-18c3.5,5.2-8.4,8.2-11.8,13.2c-5.1,7.7,3.2,10.7,6,3.1
		c2.7-7.2,4.3-10.9,7.8-10.1c4.8,1-0.4,7.9-0.2,10c0.2,2.1,2.7,2.7,4.9,0.5c2.2-2.2,5.8-7,7.3-6.4c4.3,1.9-7.7,15.8-13.5,17.6
		c-5.7,1.7-4.8-2.6-5.9-2.1c-1.1,0.5-3.8,5.7-8.7,6.9c-5,1.2-5.7-1.8-6.6-1.5c-0.9,0.3-0.6,4.7-7.2,5.8c-6.8,1.2-5.9-5.5-6.4-6.8
		c-0.7-1.8-2.3-0.9-2.5,0.2c-0.2,1.1-2.4,10.3-4.5,10.4c-2.2,0.1-2.1-2.6-2.6-3.3c-0.6-0.8-0.9-0.7-1.2,0.3c-0.7,1.8-4,8.1-8,8.5
		c-3.6,0.4-3.7-2.6-4.1-3c-0.5-0.4-1-0.7-1.7,0.4c-0.7,1.1-4.8,9-9,9.2C134.7,73.1,137.7,56.4,140.1,48.4L140.1,48.4z M180.1,36.8
		c-1.7-1.3-5.7,1-6.3,5.1C177,42.8,181.8,38.1,180.1,36.8L180.1,36.8z"/>
</g>
</svg>
