<svg version="1.1" xmlns="http://www.w3.org/2000/svg" xmlns:xlink="http://www.w3.org/1999/xlink" x="0px" y="0px"
	 viewBox="0 0 300 101.9" style="enable-background:new 0 0 300 101.9;" xml:space="preserve">
<g>
	<path id="XMLID_368_" d="M97.3,56.8c-7-0.3-13.2,2-19.6,3.4c-2.9,0.7-7,1.3-9.2-1.3c-1.8-2-1.5-5.1-0.8-7.7
		c2.1-6.2,5.4-11.9,10.4-16.3c1.6-1.3,3.3-2.8,5.5-2.6c0.4,0.1,0.6,0.7,0.5,1.1c-0.8,0.7-1.9,0.7-2.3,1.9c-0.1,0.3-0.1,0.7,0,1.1
		c0.2,0.3,0.5,0.5,1,0.5c1-0.1,1.8-1,2.2-1.9c0.4-0.9,0.4-2.2-0.3-3.1c-1-1.1-2.7-1.1-4.1-0.8c-8.1,2.6-14.6,10.1-17.6,18.2
		c-1.2,3.3-1.5,8,1,10.8c3.9,4.9,10.7,1.9,15.3,0.8c5.4-1.1,13-3.3,17.3,1.6H97c1.9-1.2,4.9-2.1,7.6-1.4c1,0.3,1.9,0.8,3,0.9
		c0.1-0.2-0.2-0.3-0.2-0.5C104.4,59,101.1,57.3,97.3,56.8z"/>
	<path id="XMLID_365_" d="M49.3,46.9c-4.5,1.6-8.2,6.6-8.9,11.5c-0.8,1.2-2.2,1.7-3.5,2c-0.5,0-0.9-0.1-1.2-0.5
		c-0.2-0.5-0.1-0.9,0.1-1.5c1.2-2.1,2.3-4.4,3.5-6.5c0.4-1.2,1.2-2.2,1.2-3.6c0-0.5-0.3-1-0.7-1.4c-2.6-1.1-4.4,1.4-6.2,2.8
		c-0.1,0-0.4,0.2-0.5,0.1c0.2-0.8,0.6-1.5,1.2-2.2c1.8-1.2,3.5-2.4,5.2-3.9c1.4-1.5,3.4-3,4-4.8c-0.3-0.3-0.7,0-1,0.1
		c-1.7,2.2-4,4.4-6.4,5.8c-0.1,0.1-0.4,0.1-0.4-0.1c1.6-3.8,4-7.4,6.7-10.8c0.8-0.8,1.6-1.8,2.8-1.8c0.6,0.3,0.2,1.1,0.4,1.6
		c0.2,0.1,0.5,0,0.6-0.3c0.3-0.6,0.6-1.4,0.1-2c-0.7-0.9-2-0.3-2.8,0c-4.1,2.6-7.5,6.9-9.9,10.9c-3.8,6.4-7.4,13.1-11,19.6l-0.1,0.5
		c0.2,0.3,0.4,0.2,0.7,0.3c0.8,0,1.9,0.2,2.6-0.3c2.2-3.8,3.8-7.9,7.4-11c0.9-0.7,1.6-1.6,2.8-1.9c0.4,0.1,0.7,0.4,0.6,0.8
		c-1,2.3-2.4,4.6-3.7,6.9c-0.7,1.4-1.8,3-1.5,4.7c0.2,0.4,0.4,0.7,0.8,0.9c2.7,0.7,5-0.8,7.3-1.9c0.3-0.1,0.7-0.4,1,0.1
		c0.3,0.7,0.8,1.5,1.5,1.9c3.8,1.6,6.8-1.7,9.2-4.3c0.3-0.7,1.3-1.4,1-2.3c-0.2-0.1-0.4,0-0.6,0.1c-1.5,1.8-3,3.8-5.2,4.2
		c-0.8,0.2-1.7-0.1-2.2-0.8c-0.1-0.3-0.4-0.7,0-1c3.1-2.2,7.6-4.7,8.7-8.9c0.1-0.9,0.1-2-0.7-2.6C51.5,46.4,50.2,46.7,49.3,46.9z
		 M49.2,53.2c-1.5,1.5-3.1,2.6-4.8,3.4c-0.1,0-0.2-0.1-0.3-0.1c0.5-3.2,2.8-5.9,5.3-7.7c0.6-0.3,1.7-1,2.2,0
		C52.1,50.7,50.3,51.9,49.2,53.2z"/>
	<path id="XMLID_364_" d="M117.5,40.2c0.2-0.3,0.5-0.7,0.3-1c-0.8-0.2-2-0.4-2.8,0.1c-0.5,0.7-1.2,1.5-1.2,2.5
		c0.7,0.3,1.4,0.2,2.2,0.2C116.9,41.8,117.1,40.8,117.5,40.2z"/>
	<path id="XMLID_359_" d="M111.5,40.2c0.1-0.3,0.4-0.7,0.3-1.1L109,39c-0.3,0.1-0.4,0.8-0.9,0.6
		c-0.6-0.5-1.2-0.9-2.1-0.9c-4.5,0.7-6.8,5.5-9.5,8.8c-1.5,1.9-3,4.2-5.5,4.5c-0.5-0.1-0.9-0.3-1.2-0.7c-0.4-0.5-0.4-1.2-0.3-1.9
		c0.6-2.8,2.2-5.3,4.2-7.3c1-0.9,2.1-2.2,3.5-1.7c0.7,0.9-1.1,0.9-1.3,1.8c-0.2,0.5-0.4,0.9-0.3,1.4c0.2,0.2,0.4,0.4,0.7,0.4
		c0.5,0,1.1-0.5,1.4-1c0.7-0.7,0.8-1.9,0.6-3c-0.3-0.6-0.7-0.9-1.3-1.1c-3.3-0.4-5.5,2.8-7.9,4.6c-0.7,0.5-1.6,1-2.4,0.8
		c-0.4-0.4-0.1-0.9-0.1-1.3c0.3-1.4,0.1-3-1-3.9c-2.1-1-4.2,0.3-5.8,1.5c-2.5,2.4-4.8,5.4-5.5,8.8c-0.3,1.6-0.5,3.7,1,4.8
		c0.8,0.5,2,0.4,2.8,0.1c3.3-1.8,5.7-4.9,7.4-8.2c0.6-0.2,1.4-0.5,2.1-0.3c-0.6,1.5-1.5,2.8-1.8,4.5c-0.2,1.5-0.3,3.2,1.1,4
		c2.9,1.4,5.6-1.1,7.8-3.2c0.3-0.1,0.5-0.6,0.8-0.3c0,1.2-0.3,2.6,0.8,3.4c2.1,0.9,3.9-1.4,5.4-2.6h0.3c0,1.2,0,1.8,0.4,2.4
		c0.6,0.7,1.7,0.8,2.4,0.5c2.8-1.1,4.8-3.8,6.5-6.2c0.2-0.3,0.5-0.7,0.2-1c-0.3-0.1-0.8-0.1-1.1,0.2c-1,1.3-2.1,2.8-3.4,3.7
		c-0.3,0.3-0.7,0.1-0.9-0.1c-0.3-0.3,0.1-0.5,0-0.9C107.8,46.8,109.8,43.5,111.5,40.2z M80.6,50.9c-0.5,0.2-1,0.4-1.5,0.2
		c-0.5-0.1-0.7-0.5-0.8-0.9c-0.2-2.7,1.2-5.1,3-6.7c0.5,0.1,0.7,0.8,1.1,1.2c0.5,0.6,1.4,0.8,1.8,1.4C83.2,48,82.3,49.7,80.6,50.9z
		 M85.4,43.8c-0.3,0.3-0.5,0.8-1,0.6c-0.9-0.3-1.9-1.1-2-2.1c-0.1-0.5,0.2-1.2,0.5-1.6c0.5-0.6,1.7-1.1,2.2-0.3
		C85.9,41.5,85.6,42.6,85.4,43.8z M105.5,45.1c-1.3,2-2.1,4.4-4.2,5.8c-0.5,0.2-1.2,0.5-1.5,0c-0.7-1.2,0.1-2.6,0.6-3.8
		c1.4-2.6,3.1-5.7,6-6.8c0.4,0,0.9,0.1,1,0.4C107.4,42.5,106.1,43.7,105.5,45.1z"/>
	<path id="XMLID_358_"  d="M32.4,37.4v-0.2c0-0.1-0.9,0.2-1.3,0.4c-6.9,3.4-10.3,11-13.8,17.7c-1.5,2.5-3.5,6-6.7,6.1
		c-0.8-0.1-1.7-0.3-2-1.3c-0.3-0.7-0.2-1.7,0.2-2.4c0.4-1.1,1.6-0.1,2.2-0.7c0.7-0.3,1.2-1.1,1.2-2c0-0.4-0.3-0.6-0.6-0.8
		c-1-0.3-1.7,0.2-2.5,0.7c-1.6,1.3-2.4,3.3-1.9,5.3c0.3,1,1.2,1.8,2.1,2.1c4,1.2,7.7-1.3,10.1-4.6C24.1,51.1,26.4,43,32.4,37.4z"/>
	<path id="XMLID_357_"  d="M14.4,45c1.4,0.7,2.9,0,4.1-0.6c2.4-1.9,4.6-4.3,5.2-7.4L23.6,37c-1,1.4-1.9,2.7-3.3,3.8
		c-1.2,0.9-2.6,2-4.2,1.4c-0.6-0.3-0.8-0.9-1-1.5c-0.1-2.2,1.3-4.1,3-5.6c5.2-4.3,12.6-1,17.6,1.4l0.6,0.1c0.9-0.7,1.4-1.8,2.2-2.6
		l0.1-0.4c-1.2-0.9-2.4-1.3-3.7-1.9c-6.7-2.5-14.6-0.8-19.4,4.5c-1.3,1.8-2.7,3.8-2.7,6.1C12.9,43.5,13.4,44.6,14.4,45z"/>
	<path id="XMLID_352_"  d="M164.9,55.7c-1,1.3-2.2,3.2-3.8,3.8c-0.8-0.4-0.7,0-0.9-0.3c-0.1-0.3-0.1-0.7,0.1-1
		c1.9-3.6,3.9-7,5.6-10.7c0.4-0.5-1.1-0.3-1.7-0.3c-1.2,0-1.1,0.4-1.6,0.7c-0.7-0.3-1.4-0.8-2.2-0.8c-3.5,0.3-5.9,3.7-7.9,6.5
		c-1.4,1.9-2.5,4-4.6,5.4c-0.4,0.1-0.9,0.1-1.2-0.3c-0.2-0.7-0.2-1.3-0.1-2c0.4-1.4,0.6-2.9,1.5-4c4.3-2.5,8.2-6.3,11.4-10.2
		c0.4-0.6,1.1-1.1,1.1-1.9c-0.3-0.2-0.8-0.1-1.2,0c-0.8,0.5-0.9,1.2-1.5,1.8c-2.4,2.9-6.7,4.5-8.6,7.9c-0.1-0.1-0.2-0.1-0.1-0.3
		c1.9-4.5,4.6-8.6,7.6-12.4c1.6-1.8,3.4-4.2,5.6-5.2c0.4-0.1,0.8,0,1,0.3c0.5,0.7-0.2,1.4,0,2.2c0.3,0.1,0.8-0.1,1-0.4
		c0.4-0.7,0.6-1.7,0.4-2.6c-0.5-0.9-1.7-1-2.6-0.7c-7.2,3-12.1,10-15.9,16.9c-0.8,1.4-1.5,3-2.4,4.4c-0.4,0.3-1,0.3-1.4,0
		c-0.3-0.9,0.4-1.8,0.2-2.8c-0.1-1.1-0.8-2.1-1.7-2.4c-2.4-0.7-4.2,0.9-5.9,2.3c-2.7,3-5,7.2-5,10.9c0.1,1,0.8,2,1.7,2.2
		c4,0.5,6.4-3.4,8.5-6.3c0.5-0.7,0.7-1.6,1.3-2.2c0.5-0.1,1.2-0.2,1.7,0.1c-0.1,1.2-0.5,2.2-0.8,3.2c-0.3,1.8-0.8,3.8,0.8,5
		c2.6,1.1,4.2-2,6-3.4l0.2,0.2c-0.1,1.2-0.3,2.4,0.7,3.2c1.2,0.7,2.6,0,3.5-0.7c0.8-0.3,1.3-1.4,2.1-1.6c0.1,0.5,0.2,0.8,0.3,1.3
		l0.1,0.4c0.3,0.7,1.1,1,1.9,1c3-0.5,5.2-3.2,7-5.7c0.1-0.5,0.8-0.9,0.6-1.6C165.6,55.5,165.2,55.5,164.9,55.7z M139.6,55
		c-1,1.7-2.3,3.9-4.4,4.5c-0.4,0.1-0.8-0.3-1-0.7c-0.5-2.1,0.6-4,1.5-5.8c0.5-0.6,0.8-1.5,1.5-1.8c0.3,0.3,0.3,0.8,0.5,1
		C138.2,53.4,140.8,53.3,139.6,55z M140.8,52.4c-1,0.1-1.7-0.6-2.1-1.4c-0.3-0.7,0-1.4,0.4-2c0.2-0.3,0.5-0.4,0.8-0.5
		c0.7-0.1,1.2,0.5,1.4,1.1C141.6,50.6,141.4,51.7,140.8,52.4z M156.1,58.6c-0.6,0.4-1.3,0.9-2.1,0.5c-0.8-0.9-0.1-2.2,0.2-3
		c1.5-3,3.4-6.1,6.2-7.7c0.5-0.1,1.2,0,1.4,0.6l-0.1,0.5C160,52.6,158.8,56.1,156.1,58.6z"/>
	<path id="XMLID_351_"  d="M41.9,35.9c-0.3,0.7-1,1.2-1.1,2c0.1,0.2,0.4,0.3,0.6,0.3c2.7-0.1,5.1-1,7.3-2.7
		c1.1-0.9,2.3-2.1,2.8-3.3h-0.1c-1.7,1.2-3.4,2.2-5.4,2.5C44.6,35.2,42.7,34.2,41.9,35.9z"/>
	<path id="XMLID_348_"  d="M130.7,48.7c-0.3-0.9-1.2-1.5-2.1-1.5c-2.3-0.1-4.1,1.7-5.4,3.6c-0.8,1.4-1.6,3-1.5,4.6
		c0.8-0.3,1.3-0.9,2-1.3c0.6-0.4,1.2-0.4,1.7-0.8c0.4-1.2,0.6-2.6,1.6-3.6c0.5-0.5,1.2-1.2,2-0.8c0.4,0.1,0.6,0.7,0.8,1.1
		c0.1,3.3-1.9,6.1-4,8.2c-1.7,1.6-4,3.3-6.4,2c-1.7-1.2-1.7-3.5-1.5-5.3c1.6-8.4,7.4-15.7,14.1-20.8c1.2-0.7,2.4-1.5,4-1.5
		c0.1,0.1,0.5,0.1,0.3,0.4c-2.7,2.1-5.7,4.9-6,8.5c0.1,0.9,0.4,2,1.3,2.4c1.1,0.4,2.1-0.1,3-0.7c3.1-2,5-5.7,4.7-9.6
		c0.6-0.7,1.7-0.6,2.6-0.5c3.3,1,6.2,3.2,9.1,5.2l0.5,0.1c1-0.7,1.7-1.8,2.6-2.7c0.2-0.3,0.1-0.7-0.3-0.7c-2.8-1.6-5.6-2.9-8.7-3.7
		c-2.4-0.5-4.7,0.1-6.9,0.8c-1-0.7-2.2-1-3.6-0.9c-4.9,0.8-9,3.7-12.7,7.6c-4.5,5-8.1,10.9-8.7,17.7c-0.1,2.6,1.2,4.8,3.3,6
		c4.4,1.6,8.4-1.5,11.2-5C129.7,54.9,131.6,51.8,130.7,48.7z M137.8,34.1c0.5,2-0.8,4-1.9,5.7c-0.9,1-2,2.6-3.5,2.6
		c-0.4-0.1-0.5-0.5-0.6-0.9c0.2-3.4,3-6,5.8-7.5C137.6,34,137.8,33.9,137.8,34.1z"/>
	<path id="XMLID_347_"  d="M192,47.9c-0.5-0.5-1.1-0.8-1.7-0.8c-3.1,0.1-5.3,3.3-6.3,6.1c-0.2,0.7-0.6,1.5-0.4,2.1
		c1.2-0.5,2.2-1.4,3.4-1.9c0.9-0.7,0.8-2,1.4-2.9c0.5-0.8,1.3-1.6,2.3-1.4c0.8,0.3,0.6,1.4,0.7,2.1c-0.4,2.9-1.9,5.5-3.9,7.4
		c-1.7,1.3-3.6,2.8-5.8,1.7c-2.2-1.5-2.1-4.1-1.6-6.6c1.5-5.4,4.3-10.4,7.9-14.6c2.8-3,5.9-6.3,9.9-7c0.6,0,1.1,0.2,1.4,0.7
		c0.1,0.4,0.3,0.8-0.1,1.1c-0.7,0.3-1.5,0.2-2,0.9c-0.3,0.4-0.4,0.9-0.3,1.4c0.1,0.3,0.4,0.5,0.7,0.7c1,0.2,1.8-0.4,2.4-1.2
		c0.6-0.9,0.8-2.2,0.4-3.2c-0.8-1.4-2.3-1.6-3.8-1.6c-7.7,1.6-14.2,8.4-18.2,15.2c-2.1,3.9-4,8.7-2.4,13.3c0.8,1.8,2.2,3.2,4.1,3.4
		c4.6,0.7,7.9-2.6,10.4-6.1C192.3,54.2,193.7,50.7,192,47.9z"/>
	<path id="XMLID_346_"  d="M158.9,36.6c-0.9,0.5-1.5,1.7-2.1,2.5c-0.2,0.2-0.1,0.6,0.1,0.7c4.7,0.3,8.7-2.2,11.8-5.7
		c0.5-0.5,1-0.7,1.1-2h-0.3C166.3,34.6,163,37.4,158.9,36.6z"/>
	<path id="XMLID_340_"  d="M286.8,58.4c0-0.1-0.2-0.1-0.2-0.2c1.7-3.3,3.4-6.5,5.1-9.7c0.1-0.2,0.3-0.6,0-0.8
		c-0.9-0.1-2.2-0.3-3,0.3l-3.6,6.4c-1,1.7-2.4,3-4,4.2c-0.8,0.4-1.6,1.3-2.4,0.8c-0.1-0.3-0.1-0.5-0.1-0.8c1.5-3.1,3.4-6.2,4.9-9.2
		c0.1-0.5,1-1.1,0.5-1.7c-1-0.1-2.4-0.5-3.3,0.3c-2.8,4.3-4.5,9.4-9.2,12.1c-0.4,0.2-0.9,0.6-1.5,0.5c-0.2-0.1-0.4-0.3-0.4-0.7
		c0.9-2.3,2.3-4.3,3.4-6.5c0.6-1.4,1.8-2.6,1.7-4.4c-0.1-0.5-0.4-1.1-0.9-1.5c-1.2-0.6-2.3,0.1-3.3,0.5c-1,0.4-1.7,1.3-2.7,1.6
		c0.1-0.7,0.5-1.2,0.6-1.8c0-0.4-0.4-0.3-0.6-0.4c-0.8,0.1-1.9-0.3-2.5,0.5l-2.9,5.1c-1.2,2-3.3,3.4-4.9,5c-1,0.6-1.7,1.7-2.9,1.8
		c-0.3-0.1-0.5-0.3-0.6-0.7c1.6-3.8,4.1-7.4,5.8-11.1c0-0.1,0.1-0.3-0.1-0.5c-1-0.1-2.2-0.3-3.1,0.2c-0.6,0.7-1.1-0.5-1.7-0.6
		c-2.7-0.5-5.1,1.3-6.9,3.4c-2.9,3.7-5.6,8.1-9.9,10c-0.1,0-0.1-0.1-0.1-0.2c1.8-1.7,3.1-4,4-6.3c0.6-1.8,1.7-4.8,0-6.5
		c-1.5-1.4-3.3,0.4-4.6,0.4h-0.2c-0.1,0,0.6-0.9,0.5-1.7c-1-0.2-2.2-0.1-3.1,0.3l-3.5,6.3c-1.5,2.4-3.9,4.6-6.2,6.4
		c-0.6,0.4-1.2,1-1.9,1c-0.3-0.1-0.5-0.5-0.4-0.8c1.5-3,3.1-5.9,4.8-8.8c0.3-0.7,0.5-1.7,0.2-2.4c-0.2-0.5-0.6-0.9-1-1.1
		c-2.2-0.5-3.8,1.2-5.6,2c-0.5-0.3-0.1-0.9-0.3-1.3c-0.2-0.4-0.6-0.7-1-0.8c-2.4-0.1-4,2-6.2,2.7c-0.1-0.7,0.8-1.3,0.6-2.2
		c-0.8-0.1-2-0.3-2.7,0.1c-1.2,2.2-3.4,3.4-5.4,4.4c-0.3,0-0.7,0.3-0.9-0.1c0.2-1.7,0-3.4-1.2-4.5c-0.9-0.7-2.2-0.5-3.2-0.2
		c-4.3,2.3-8,7.2-8.2,12.5c-0.1,1.1,0.4,2.3,1.4,2.8c2.8,1.2,5.1-1.6,6.9-3.4c1.4-1.5,2.2-3.5,3.4-5.2c1.4-0.4,2.7-1.1,4-1.6
		c0.1,0,0.2,0.1,0.2,0.3c-1.5,3.2-3.4,6.3-5.1,9.5c-0.1,0.1-0.1,0.5,0,0.6c0.9,0.1,2.2,0.4,2.9-0.3l4-7.2c1.3-2.2,3.6-4.2,5.8-5.5
		c0.4-0.1,0.8-0.3,1.1,0.1c0.1,0.3,0.1,0.7-0.1,0.9c-2.1,3.8-4,7.4-6.1,11.1c-0.1,0.3-0.5,0.6-0.1,0.9c1,0.1,2.2,0.5,3-0.3l2.9-5.2
		c1.5-2.4,2.3-5.4,4.9-7c0.8-0.5,1.6-1.2,2.5-0.8c0.3,0.4,0.1,0.9,0,1.3l-3.9,7.2c-0.5,0.9-1,1.9-1.2,3c-0.1,0.8,0.3,1.6,1,1.9
		c3,0.9,4.9-2.4,7.3-3.6c0.3,0.1,0,0.3,0.1,0.5c-2.3,4.1-4.6,8.3-6.8,12.3c-0.1,0.4-0.5,0.7-0.3,1.1c1,0.1,2.4,0.4,3.2-0.3
		c2.1-3.6,4-7.2,6-10.7c0.1-0.3,0.4-0.9,0.8-0.7c0.4,0.9,1.3,1.4,2.2,1.6c3.8,0.7,7.1-1.5,10.1-3.9l0.4-0.1c0.4,0.9,0.1,2.1,0.6,2.9
		c0.2,0.7,0.8,1,1.4,1.1c1.8,0.1,3-1.1,4.2-2.3c0.3-0.1,0.6-0.5,0.8-0.3c-0.1,0.8-0.1,1.9,0.8,2.4c0.6,0.4,1.5,0.1,2.1,0.1
		c2.2-0.9,4.1-2.6,6-4.3c0.2,0,0.3-0.3,0.5-0.1c-0.4,1.2-1,2.2-1.5,3.3c-0.1,0.3-0.5,0.7-0.1,1c1,0,2.1,0.4,3-0.2
		c1.5-2.8,3-5.8,4.7-8.5c0.9-1.1,1.7-2,2.8-3c0.7-0.5,1.3-1.1,2.2-1.2c0.4,0.1,0.5,0.5,0.4,0.8c-1,2.2-2.2,4.5-3.5,6.6
		c-0.5,1.1-1.3,2.2-1.4,3.4c0,0.8,0.3,1.6,1,2c2.6,0.9,4.6-1.2,6.6-2.6c0.2-0.1,0.6-0.4,0.8,0c0.1,0.7,0,1.3,0.3,2
		c0.3,0.5,0.8,0.8,1.3,0.8c2.4-0.1,4.3-2.2,6.2-3.4c0.1,0,0.1,0.1,0.1,0.2c-2.1,4.3-4.6,8.4-6.8,12.6l-0.2,0.7
		c0,0.4,0.5,0.3,0.6,0.4c0.9,0,1.9,0.2,2.6-0.4l4.8-8.6c2.4-3.4,5.7-6,9.4-7.2C292.7,57.4,288.5,57.5,286.8,58.4z M202,54.9
		c-1,1.6-2.1,3.5-3.8,4.4c-0.4,0.1-1.1,0.3-1.5-0.1c-0.5-0.3-0.6-0.8-0.6-1.4c0.2-2.3,1.3-4.4,2.9-5.9l0.1-0.1
		c0.7,1,1.9,1.8,2.9,2.3C202.3,54.4,202.1,54.7,202,54.9z M203,52.4c-0.3,0.3-0.8,0.2-1.2,0.1c-0.5-0.1-1-0.6-1.2-1.1
		c-0.4-0.8-0.2-2,0.4-2.6c0.5-0.6,1.4-0.7,1.9-0.1C203.9,49.8,203.6,51.3,203,52.4z M233.2,61.1c-0.7,0.3-1.5,0.1-2-0.5
		c-0.4-0.3-0.3-1-0.2-1.4c1.9-3.1,3-7,6.2-9.2c0.5-0.3,1.6-0.5,1.9,0.3c0.4,2.2-0.8,3.9-1.6,5.7C236.5,58,235.1,59.9,233.2,61.1z
		 M248.4,59.6c-0.3,0.1-0.6-0.1-0.9-0.2c-0.8-1.3-0.3-2.6,0.2-3.8c1.4-2.8,3.5-5.7,6.4-6.9c0.5-0.1,1,0.1,1.2,0.5
		c0.3,0.8-0.3,1.4-0.6,2.1C252.8,54.1,251.7,58,248.4,59.6z"/>
</g>
</svg>
