<svg version="1.1" xmlns="http://www.w3.org/2000/svg" xmlns:xlink="http://www.w3.org/1999/xlink" x="0px" y="0px"
	 viewBox="0 0 300 101.9" style="enable-background:new 0 0 300 101.9;" xml:space="preserve">
<path  d="M210.1,54.6h-8c-0.6-0.1-1.3,0.1-1.7,0.5c-0.5,0.7-0.7,1.4-0.7,2.2c0,0.8,0.8,1.3,2,1.3h5.7
	c-0.8,4-3.3,6.8-7.7,6.8c-4.6,0-7.7-2.9-7.8-7.9c-0.2-6.2,3.9-11.4,9.8-11.4c3-0.1,5.8,1.6,7.2,4.3c0.1,0.2,3.3,0.2,3.2-2.5
	c-0.1-1.2-0.7-2.3-1.6-3.1c-1.7-1.7-4.9-3.1-9-3.1c-5.5-0.1-10.5,3-13,7.9l0,0c-0.5-0.6-1.2-0.9-2-0.9c-1.3,0-2.1,0.4-3.4,2.6
	l-6.3,11l-2.4-11c-0.4-2-1.2-2.7-2.5-2.7c-1.5,0-2.8,1.1-2.7,1.4l4.5,17.7l-4.7,7.6c-0.5,0.8-0.5,1.9,1.2,1.9h1
	c1.8,0,2.4-1.1,3.3-2.6L187,53.3c-0.4,1.5-0.6,3.1-0.5,4.7c0.2,7.2,5.1,11.5,12.1,11.5c2.9,0.2,5.6-1,7.5-3.2
	c-0.1,2.1,1,2.9,2.5,2.9c0.8,0,1.4-0.3,1.4-0.4l2-11.5C212.4,55.5,211.7,54.6,210.1,54.6 M163.8,56.7h-11.3c1-2.9,3.7-4.7,6.8-4.7
	c1.4-0.1,2.7,0.4,3.6,1.3C163.6,54.3,164,55.5,163.8,56.7 M159.6,48.4c-8.8,0-12,6.5-12,12.1c0,5.4,3.9,8.9,9.9,8.9s9.3-2.7,9.3-4.8
	c0-1.4-1-1.9-2.1-2c-1.6,2-4.1,3.2-6.7,3c-2.6,0-5.7-1-5.9-5.7h13.6c1.3,0.1,2.5-0.9,2.6-2.2c0-0.2,0-0.3,0-0.5
	c0.2-2.2-0.5-4.4-1.8-6.2C164.6,49.3,162.2,48.2,159.6,48.4 M280.6,48.4c-3.1,0-5.9,1.6-7.3,4.3c-0.8-2.7-3.3-4.5-6.1-4.3
	c-2.6,0-5.1,1.4-6.5,3.6c0.1-2.5-1.4-3.3-2.9-3.3c-0.5,0-0.9,0.1-1.3,0.3l-3.1,17.7c-0.3,1.8,0.7,2.4,2,2.4h0.6c1.2,0,2-0.5,2.4-2.4
	l1.9-11c1.4-2.2,2.7-3.1,4.9-3.1s3.3,1.5,3.3,3.8c0,0.4,0,0.8-0.1,1.2l-1.6,9c-0.3,1.8,0.8,2.4,2,2.4h0.5c1.3,0,2.1-0.6,2.4-2.4
	l1.9-11c1.4-2.2,2.8-3.1,4.9-3.1s3.5,1.3,3.5,3.8c0,0.7-0.1,1.5-0.2,2.2l-1.5,8.2c-0.3,1.8,0.7,2.4,2,2.4h0.5c1.5,0,2-0.6,2.4-2.4
	l1.6-9c0.2-0.9,0.3-1.8,0.3-2.7c0.2-3.4-2.4-6.3-5.8-6.5C281.1,48.5,280.8,48.5,280.6,48.4 M234.1,60.2c0-4,2.4-8,6.7-8
	c3.5,0,5,2.6,5,5.5c0,3.6-2.4,7.9-6.9,7.9C235.8,65.6,234.1,63.7,234.1,60.2 M250.5,48.8c-1.9,0-3,0.9-3.6,3.4
	c-1.4-2.4-4-3.8-6.7-3.7c-6.3,0-10.6,5.6-10.6,11.9c0,5.2,3.2,9.1,8.3,9.1c2.9,0.1,5.6-1.4,7-3.8c-0.2,2.7,0.3,3.5,2.2,3.5
	c1.7,0,2.3-0.6,2.5-2.5c0.2-3.5,1.4-9.2,2.8-17.2C252.3,49.2,251.5,48.8,250.5,48.8 M226.6,48.5c-2.4,0-4.1,1.3-5.3,3.8
	c0.2-2.7-1.3-3.5-2.8-3.5c-0.5-0.1-0.9,0-1.3,0.3L214,66.7c-0.3,1.8,0.9,2.4,2.2,2.4h0.6c1.2,0,1.9-0.6,2.2-2.4l1-5.9
	c0.8-4.6,2.5-7.8,5.3-7.8c1.1,0,2.1,0.4,2.8,1.2c1.4-0.4,2.3-1.7,2.2-3.2C230.1,49.5,228.6,48.5,226.6,48.5 M138.7,48.5
	c-2.7,0-5.3,1.4-6.7,3.8c0.1-2.7-1.4-3.5-2.9-3.5c-0.5,0-0.9,0.1-1.3,0.3l-3.1,17.7c-0.3,1.8,0.7,2.4,2,2.4h0.6c1.4,0,2-0.6,2.4-2.4
	l1.9-10.6c1.4-2.4,2.8-3.5,5.1-3.5c1.9-0.2,3.6,1.3,3.7,3.2c0,0.2,0,0.3,0,0.5c0,0.7-0.1,1.5-0.2,2.2l-1.5,8.2
	c-0.3,1.8,0.7,2.4,2,2.4h0.6c1.5,0,2.1-0.6,2.4-2.4l1.6-9c0.2-0.9,0.3-1.8,0.3-2.7c0.1-3.5-2.7-6.5-6.3-6.6c-0.2,0-0.4,0-0.6,0
	 M112.4,65.6c-3.3,0-5.3-2.4-5.4-5.5c-0.1-4.1,2.6-7.8,6.4-7.8c3,0,5.5,2.5,5.4,5.6c0,0,0,0,0,0C119,62.2,116.3,65.6,112.4,65.6
	 M113.5,48.4c-6.9,0-11.1,5.6-10.9,11.8c0.2,5.6,4.1,9.2,9.8,9.2c7.1,0,11.1-5.7,10.9-11.8C123.1,52.3,119.5,48.4,113.5,48.4
	 M100.1,42h-1.6c-1.5,0-2.2,0.5-3.2,2.1L87,57.7l-3.5-13.4c-0.4-1.6-0.9-2.2-2.6-2.2h-1.3c-1.6-0.1-3,1.2-3.1,2.8l-3.9,21.8
	c-0.3,1.6,0.4,2.5,1.9,2.5H75c1.5,0,2.2-0.7,2.4-2.4l3.1-17.6l3,11.8c0.2,1.2,0.5,2,2.7,2c1.3,0.2,2.5-0.6,3-1.8L96.7,49l-3.1,17.6
	c-0.3,1.7,0.4,2.5,1.8,2.5h0.6c1.5,0,2.2-0.8,2.4-2.4l3.9-21.8C102.7,43.2,101.8,42,100.1,42"/>
<path  d="M292,65.8c0.5,0,0.7-0.2,0.7-0.7s-0.2-0.5-0.6-0.5h-0.6l-0.2,1.1L292,65.8z M292.4,66.8
	c0.2,0.3,0.2,0.4,0.5,0.4c0,0,0,0.3-0.3,0.3s-0.4-0.1-0.6-0.5l-0.4-0.8h-0.4l-0.2,1c0,0.2-0.1,0.2-0.2,0.2h-0.1
	c-0.1,0-0.2-0.1-0.2-0.2l0.5-2.7c0-0.2,0.1-0.3,0.3-0.3c0,0,0,0,0,0h0.8c0.7,0,1.1,0.3,1.1,0.8c0,0.6-0.4,1-0.9,1.1
	c-0.1,0-0.1,0-0.2,0L292.4,66.8z"/>
<path  d="M291.8,63c-1.7,0-3.1,1.4-3.1,3.1c0,1.7,1.4,3.1,3.1,3.1c1.7,0,3.1-1.4,3.1-3.1c0,0,0,0,0-0.1
	C294.8,64.3,293.5,63,291.8,63 M291.8,63.4c1.5,0,2.6,1.2,2.6,2.6c0,1.5-1.2,2.6-2.6,2.6s-2.6-1.2-2.6-2.6c0,0,0,0,0-0.1
	C289.2,64.5,290.4,63.4,291.8,63.4L291.8,63.4"/>
<path  d="M33.4,23c-1.2,0.2-2.4,0.5-3.5,0.9c-5,1.8-9.3,5-12.5,9.2c-2.7,3.6-4.7,7.7-4.7,12.5c0,6.9,5.4,10,10.3,10
	s10.7-2.5,15.5-7l0.3-0.3h-6.9c-1.1,0.1-2.1-0.8-2.2-1.9c0-0.2,0-0.3,0-0.5c0-0.1,0.1-0.5,0.1-0.6c0.3-1.4,1.6-2.4,3.1-2.3h13.2
	c1.2,0,2.2,0.9,2.2,2.1c0,0.2,0,0.4-0.1,0.6l-2.3,13.2c-0.2,1.4-1.3,2.6-2.8,2.7h-0.6c-1.2,0-2.2-1-2.1-2.2c0-0.2,0-0.3,0.1-0.5
	c0.2-1.5,1.1-6.2,1.1-6.2c-6.5,6-14.2,9.3-20.9,9.3c-4.4,0-14.6-1.8-14.6-14.5c0-2.9,0.6-5.7,1.6-8.4C1.3,53,7.3,69.6,21.2,76.2
	s30.6,0.6,37.2-13.4S58.9,32.2,45,25.6c-3.6-1.7-7.5-2.6-11.4-2.6H33.4"/>
</svg>
