<svg version="1.1" xmlns="http://www.w3.org/2000/svg" xmlns:xlink="http://www.w3.org/1999/xlink" x="0px" y="0px"
	 viewBox="0 0 300 101.9" style="enable-background:new 0 0 300 101.9;" xml:space="preserve">
	<path id="XMLID_269_"  d="M187.1,19.3c-11.1-4.1-52.8-10.9-86.4,15.8c-12.7,10.1-21,26.7-6.9,41
		c8.5,8.6,20.6,11.2,21.1,11.2c0.5,0,11-40,11-40s2.2-9.3,4.6-13.8c2.5-4.5,7.5-6.4,9.1-6.5c2.7-0.3,5.3,0,6.9,0.5
		c2.7,0.9,3.9,2.9,4.1,3.7c1,4-1.9,5.7-3.8,5.8c-2.1,0.1-3.4-1.1-3.7-1.9c-0.3-0.8-0.5-2.5,0.5-3.5c0.7-0.7,0.4-2.1-0.1-2.5
		c0,0-1.9-0.6-4,0.8c-1.4,0.9-3.3,5.3-3.7,6.5c-0.2,0.7-2.1,8.3-2.1,8.3l13.4,0.1l-5.6,20.6h-6.6l4.4-17.1h-6.8l-10.7,40.3
		c11.9,1.1,37.9,4.9,69.7-14.8C207.9,63.7,227.5,34.1,187.1,19.3z M120.8,51.5c0,0-2.6,2.8-9.4,3.8c-2.7,0.4-6.3,0.3-6.3,0.3
		l-2.5,9.9h-7l8.4-30.3l10.5,0.1c0,0,8,0.5,9.5,5.5C125.4,45.7,121.9,50.3,120.8,51.5z M163.2,65.7l-17.5-0.1
		c0.2-4.3,4.7-9.2,5.4-9.6c0.6-0.4,7.8-7.7,7.8-7.7l-9.6,0l0.9-3.6h17.1c-1.5,4.3-2.9,5.1-4.8,7.1c-2.6,2.8-5.7,4.9-9,9.5l10.7-0.1
		L163.2,65.7z M173.2,66.2c-7.4-0.4-8.5-7.4-7.3-11.3c2.4-7.5,8.1-9.4,9.2-9.7c9.7-3.2,11.4,2.5,11.4,3.4c0,4.9-4.6,7.1-8,7.9
		c-1.9,0.4-3.4,0.7-6.4,0.7c0,0-0.4,1.3-0.1,2.3c0.2,0.5,0.5,1.5,2.5,2.6c0,0,2.5,0.8,4.6-0.5c1.8-1.1,3.5-2.6,3.5-2.6l2.1,2.7
		C184.7,61.7,180.7,66.7,173.2,66.2z M204.9,51.9c-1.8-0.1-2.7-1.4-2.8-1.9c0,0,0.3-2.8-3.1-1c-0.6,0.3-1.6,1.6-2.6,3.3
		c-1.3,2.1-4.1,13.4-4.1,13.4h-6.8l5.5-20.9l6.7,0.1l-1,4.1c0,0,3.1-3.6,5.5-4.2c1.6-0.4,3.8-0.6,5.4,1.6
		C208.6,47.9,207.7,52,204.9,51.9z"/>
	<path id="XMLID_216_"  d="M112.7,38.2h-2.8l-3.7,13.5c3.3,0,4-0.2,4.5-0.3c3.2-0.6,4.6-3.1,4.6-3.1
		c0.6-0.8,2.4-5.3,1.9-7C116.7,39.2,114.8,38.5,112.7,38.2z"/>
	<path id="XMLID_172_"  d="M178.8,52.7c1.2-0.8,2.1-2,2.4-3.5c0.2-1.6-1.5-1.9-3.2-1.3c-3.2,1-5.2,4.1-5.3,6.6
		C172.6,54.5,175.7,54.8,178.8,52.7z"/>
</svg>
