<?xml version="1.0" encoding="utf-8"?>
<!-- Generator: Adobe Illustrator 22.0.1, SVG Export Plug-In . SVG Version: 6.00 Build 0)  -->
<svg version="1.1" id="Layer_1" xmlns="http://www.w3.org/2000/svg" xmlns:xlink="http://www.w3.org/1999/xlink" x="0px" y="0px"
	 viewBox="0 0 300 101.9" style="enable-background:new 0 0 300 101.9;" xml:space="preserve">
<style type="text/css">
	.st0{fill:#606060;}
</style>
<g>
	<path class="st0" d="M150.9,59.6c-2.9-0.3-4.5,5.4-4.6,7.9c-0.1,1.5,0.7,2.3,1.9,2.4c2.7,0.3,4.4-4.6,4.6-7.7
		C152.9,60.3,152.2,59.7,150.9,59.6z"/>
	<path class="st0" d="M181.9,64.3c-1,0.1-1.8,0.2-2.8,1.6c-1.2,1.7-1.6,4.4-1.4,6.6c0.1,1.4,0.7,2,1.6,2c1.3-0.1,2.5-1.6,2.9-2.8
		c0,0,1.2-7.1,0.9-7.2C182.7,64.4,182.2,64.3,181.9,64.3z"/>
	<path class="st0" d="M214.3,40c-0.2-0.5-0.6-0.8-1.1-0.9c-1.8-1.8-6.7-3.7-13.6-4.7c0-0.1,0-0.2,0-0.2c0-14-11.4-25.4-25.4-25.4
		c-14,0-25.4,11.4-25.4,25.4c0,0.4,0,0.7,0,1.1c1,0.3,5.1,1.6,11,3h0c0,0,0,0,0,0c0.5,0.1,1,0.2,1.5,0.4c0,0,0,0,0.1,0
		c10.1,2.3,24.5,4.7,36.9,3.4c0.6-2,1-4,1.2-6.2c6.7,1,10.9,2.8,12.3,4c0,0.1-0.1,0.3-0.1,0.4c-0.7,0.9-5.3,3-12.6,4.2l0,0
		c-0.1,0-0.2,0-0.3,0c-3,0.5-6.5,0.8-10.3,0.8c-10.5,0-19.8-2.1-28.2-4.3c-4.3-1-7.8-2-10-2.6c-8.5-2.2-19.8-5.2-31.7-5.1
		c-13.1,0.1-23.5,3.7-25.2,6.3c-4.6,7-7.5,14.4-9,22.4c-1.5,8.3-1.1,16.5,1.4,24.4c0.2,0.5,0.7,0.9,1.2,0.9
		c2.5,2.4,10.9,5.2,22.3,5.3c0.1,0,0.2,0,0.4,0c11.9,0,24.3-3,33.3-5.2c0.8-0.2,1.6-0.4,2.3-0.6c0.3,0.1,0.6,0.2,0.9,0.2
		c1,0.3,2,0.5,3.1,0.8c8.3,2.2,19.7,5.2,31.7,5.2c0.1,0,0.2,0,0.4,0c13.1-0.1,23.5-3.7,25.2-6.3c4.6-7,7.5-14.4,9-22.4
		C217.2,56,216.7,47.8,214.3,40z M133.3,53.3c0.4,0,1.2,0.1,1.8,0.2c0.2-0.9,0.6-2.7,0.3-3.2c-0.1-0.2,3.5-1.5,4.1-1.3
		c0.3,0.1,0.3,0.7,0.3,1.5c0,0.7-0.3,2.5-0.6,3.7l3.3,0.6l-0.9,3.1l-2.9-0.6c-0.8,3.1-1.9,7.8-2,8.5c-0.5,2.5,1.3,2.8,2.4,3.1
		c-0.8,0.6-1.9,1.4-3.8,1.6c-2.6,0.3-3.3-1.2-3.3-2.8c0-1.3,2.3-10.2,2.5-11.1c-0.7-0.1-2-0.3-2.8-0.4
		C131.7,56.4,133.1,53.6,133.3,53.3z M128.1,43.9c1.4-0.1,2.5,1,2.6,2.4c0.1,1.4-1,2.6-2.3,2.6c-1.4,0.1-2.5-1-2.6-2.4
		C125.7,45.1,126.7,44,128.1,43.9z M129.1,52.3c1.3,1.7-4.3,15.3-2.3,16.9c0,0-4,0.1-4.7-0.6c-1.1-1.3,3.4-13.5,2.4-15
		C124.5,53.5,128.6,51.7,129.1,52.3z M115.6,51.2c0.8,0.2,0.7,1.3,0.6,2.6c1.6-2.1,4.9-2.5,5.8-2.1l-1.1,4c-1.8-1.2-3.9-0.1-4.6,1.6
		c-1,2.6-2.6,10.1-1.1,10.6c0,0-4.3,0.7-4.7-0.3c-0.6-1.2,1.3-8.5,1.7-10.4c0.4-1.8,0-3.7-0.5-4.3C111.5,53.1,114.9,51,115.6,51.2z
		 M100.9,48c0.5-0.8,8.2-2.5,12-1.9l-1.4,3.9c-0.2-0.2-0.6-0.3-0.9-0.3c-2.2-0.1-6.3,0.7-6.6,1.3c-0.5,1.1-1.1,3.7-1.3,4.6
		c1.3-0.5,4.1-1,5.7-1.1l-1,3.5c-2,0-5.4,1-5.5,1.4c-0.2,0.8-0.4,2.1-0.7,4.1c-0.4,2.8-0.7,5,0.1,5.6c-1,0.5-4.2,1.3-4.8,0.5
		C96.1,69,97.9,52.8,100.9,48z M109.6,91.1c-0.1,0-0.2,0-0.4,0C97.2,91,90,88,88.1,86.4c0-0.1,0.1-0.2,0.1-0.4c1-1.4,10-5,23.3-5
		c0.1,0,0.3,0,0.4,0c11.4,0,21.5,2.7,30.3,5C133.3,88.2,121.2,91.1,109.6,91.1z M157.1,62.4c-0.2,5.7-3.4,11.2-9.8,10.7
		c-3.6-0.3-5.4-2.5-5.3-6.2c0.2-6.1,4.1-10.9,9.7-10.6C155.3,56.6,157.2,58.8,157.1,62.4z M170,77c-0.7,0.1-5.6-0.5-8.2-1.2
		c-0.9-0.2-1.3-0.5-1.3-0.7c0.2-3.1,2.6-11.5,3.6-17.2c0.5-3,0.4-3.7-0.5-4.5c1.4-0.6,5-0.3,5.2,0.3c0.4,0.9,0.1,2.5-0.6,5.5
		c-0.7,3.4-2.5,11.3-2.7,13.2c0,0.2,0.4,0.4,1,0.5c1.5,0.3,2.8,0.4,4.3,0.3c0.3,0,0.7-0.1,1-0.3C171.7,73,170.9,76.9,170,77z
		 M185.3,78.2c-0.6,0.1-1.2,0.2-1.8,0c-0.6-0.3-0.9-1.6-1-2.5c-0.8,1.6-2.5,2.4-3.8,2.4c-2.9,0.2-5-1.4-5.2-4.8
		c-0.2-3.8,0.7-6.9,2.4-9.1c1.5-2,3.3-2.9,5.9-3.2c0.6-0.1,1.4-0.1,2.1-0.1c1.5,0.1,2.9,0.3,3.5,0.6c0.1,0.1-1.1,10.8-0.7,12.8
		c0.2,1.1,0.5,1.6,1.9,2.1C187.6,77.4,186.4,78,185.3,78.2z M204,62.3c0,2.2-0.4,5-1.3,7.4c-1.7,4.9-4.5,9.6-7.4,13
		c-1.3,1.5-2.7,2.9-4.4,1.5c-1.1-0.9-1.8-2.5-1.8-3.1c0.8,0.3,1.9,0.2,2.6-0.5c0.8-0.8,2.5-3,2.5-3.6c-0.2-1.7-1.1-6.6-2.1-9.6
		c-1.2-3.5-1.6-4.7-2.4-5.1c0,0,3.7-2.3,4.3-1.6c2.1,2.4,3.3,12.4,3.3,12.4s1.3-2,2.1-6.4c0.6-3.1,0.3-5.4,0.2-6.4
		c0,0,4-1.2,4.1-0.9C204,60,204,61.2,204,62.3z"/>
</g>
</svg>
