<?xml version="1.0" encoding="utf-8"?>
<!-- Generator: Adobe Illustrator 22.0.1, SVG Export Plug-In . SVG Version: 6.00 Build 0)  -->
<svg version="1.1" id="Layer_1" xmlns="http://www.w3.org/2000/svg" xmlns:xlink="http://www.w3.org/1999/xlink" x="0px" y="0px"
	 viewBox="0 0 300 101.9" style="enable-background:new 0 0 300 101.9;" xml:space="preserve">
<style type="text/css">
	.st0{fill:#FFFFFF;}
	.st1{fill:#606060;}
</style>
<g id="XMLID_846_">
	<path id="XMLID_892_" class="st0" d="M907.7,619.5c6.4-2.5,12.3-4.1,17.6-5.1c18.5-3.5,30.4,0.6,35.8,4.4c0.2-1.5-5.8-6.6-16.2-8.7
		c-14.8-3-32.7,3.7-36.1,5c0.2-2.4,1.2-5.6-0.2-7.1c-0.9-0.9-3.7-0.7-4,2.4c-0.2,2.2-0.5,4.8-0.8,7.6
		C903.3,621.5,905.4,620.3,907.7,619.5z"/>
	<path id="XMLID_887_" class="st0" d="M974,625.1c-0.9-1-3.4-1.2-4.3-1.2c0,0-0.1,0-0.1,0h0c-3.6,0.6-6.8,1.7-9.4,4.7
		c-2,2.2-3.2,4.8-3.8,7.6c-0.1,0.5-0.7,2.3-1.9,3.3c-0.1,0.1-0.2,0.2-0.3,0.1c0,0-0.1-0.1-0.1-0.3c0-0.6,1.3-9.1,1.3-9.2
		c0.2-1,0.2-1.9,0.2-2.6c0-3.2-2.1-3.5-3-3.5c-1.6,0-3.2,0.9-5.1,2.7c-0.6,0.6-1.2,1.3-1.8,2.1c0-0.6,0.1-1.2,0.1-1.2
		c0-3.3-2-3.6-2.9-3.6c-2.3,0-4.5,1.5-6.9,4.5c0-0.2,0-0.6,0.1-1.4c0-1.1-0.3-1.9-0.9-2.5c-0.7-0.7-1.6-0.7-1.9-0.7
		c-1.1,0.1-4.4,2.9-6.4,4.9l0.3-2.4c0.1-0.6,0-1-0.3-1.4c-0.5-0.6-1.6-0.8-3.5-0.8c-0.1,0-0.1,0-0.2,0c-3.8,0-7.2,1.6-9.9,4.5l0,0v0
		c-1.8,2-3.1,4.2-3.7,6.6c-0.4,0.9-1.5,3-3.1,3.9c0,0-0.2,0.1-0.2,0c0,0-0.1-0.1-0.1-0.5l0.1-1c0.5-3.4,1.5-10.4,1.4-11.4l0-0.1
		c-0.1-0.6-0.3-2.3-2-2.6c-1.3-0.2-2.3,0.4-2.5,0.6l0,0l0,0.1c0.1,0.4-1.1,8.8-1.7,13.4c-0.3,2.3-0.5,3.6-0.5,3.7
		c0,2.7,1.9,2.9,2.5,2.9c1.6,0,3.3-1,5-3.1c0.2-0.3,0.5-0.6,0.7-0.8c0.1,1.2,0.5,2.1,1.3,2.9c-3.9,3.2-6.5,6-6.5,9.5
		c0,1.9,0.6,3.5,1.9,4.8c1.3,1.3,2.9,1.9,4.9,1.9c0,0,0,0,0.1,0c3.7,0,7.3-1.6,10.5-4.9c1.3-1.3,2.3-2.9,3.1-5c0.7-1.9,1-5.1,1.3-8
		c0.4-4.4,0.7-8.3,0.8-8.6c0.9-1.2,2.5-2.6,4.6-4.1l-0.1,1.6l-0.1,1c0,0-1,8.7-1,8.8c0,0.4-0.1,1.2-0.1,1.6c0,0.4,0.1,2.4,2,2.7
		c1.2,0.2,2.2-0.3,2.6-0.6l0.1,0l0-0.1c-0.1-0.3,0.3-3.6,0.7-5.7c0.2-2,1.1-4.2,2.5-6.4c1.5-2.3,2.5-3.2,2.9-3.2c0,0,0,0,0,0
		c0.1,0,0.1,0.1,0.1,0.1c0.2,0.3,0,2-0.1,3.1c0,0.1-0.9,8.5-0.9,8.5c0,0,0,0.3-0.1,0.6c0,0.5-0.1,0.8-0.1,1c0,0.4,0.1,2.4,2,2.7
		c1.2,0.2,2.5-0.4,2.8-0.7l0,0l0-0.1c-0.2-0.4,0.3-4.2,0.5-5.6c0.2-2,1.1-4.1,2.6-6.3c1.9-2.8,2.7-3.1,3-3.1c0.1,0,0.2,0,0.2,0
		c0.2,0.2,0,2.1-0.3,3.8c0,0,0,0-0.7,4.6c-0.3,2-0.4,3.4-0.4,4.4c0,3,2.1,3.2,2.7,3.2c1.2,0,2.5-0.7,4.1-2.3
		c0.2-0.2,0.3-0.3,0.5-0.5c0.7,2.4,2.4,2.8,3.4,2.8c1.6,0,3.2-0.8,5.2-2.5c0.8-0.7,1.5-1.5,2.3-2.3c0,0.1,0,0.2,0,0.2l0,0
		c0,0.1-0.1,0.5-0.2,1.7c0,2.7,1.9,2.9,2.5,2.9c0.8,0,1.6-0.3,2.4-0.9l0.1,0l0-0.1c0,0,0-0.1-0.1-0.1c-0.5-0.4,1.1-10.7,2.3-17.2
		l0-0.1C974.3,625.8,974.2,625.4,974,625.1z M961.7,639.6c-0.2,0-0.4-0.5-0.4-1.4c0-2.8,0.6-5.3,1.7-7.4c1.2-2.3,2.7-2.8,4.1-2.8
		c0.6,0,1.2,0.1,1.6,0.2c0.1,0,0.1,0,0.2,0c-0.1,0.5-0.3,1.6-0.3,1.6l0,0c-0.4,2.9-1.6,5.4-3.6,7.5
		C963.2,639.3,962.1,639.6,961.7,639.6z M914.8,639.4C914.8,639.4,914.8,639.4,914.8,639.4c0,0-0.1,0.1-0.1,0
		c-0.2-0.2-0.2-0.8-0.2-1.3c0.1-2.9,0.7-5.4,1.8-7.4c1-1.7,2.2-2.6,3.5-2.6c0.1,0,0.2,0,0.2,0c0.6,0,1.4,0.1,2.2,0.3
		c-0.1,0.6-0.1,1.5-0.1,1.5v0c-0.6,2.7-1.8,5.1-3.9,7.3C916.4,639.2,915.3,639.4,914.8,639.4z M913.3,656c-0.7,0-1.9-0.2-2.9-0.9
		c-1.2-1-1.8-2.4-1.8-4.2c0-1.8,1.3-4,3.9-6.6c0.1,0,0.1,0.1,0.1,0.1c0,0,0,0,0,0c2.5,0,5.1-1.7,8-5.1c-0.1,0.8-0.2,1.6-0.2,1.6v0
		c-0.6,7.6-1.5,11.4-2.2,12.5C917.1,655.3,915.5,656,913.3,656C913.4,656,913.4,656,913.3,656z"/>
	<path id="XMLID_886_" class="st0" d="M896.9,629.4L896.9,629.4c-0.1-0.1-0.3-0.3-0.8-0.7l-0.8-0.7c-1.9-1.5-3.1-2.7-3.7-3.4
		c-0.4-0.5-0.6-1.1-0.7-1.7c-0.1-0.8,0.6-1.8,1.5-2.3c0.7-0.4,2.2-0.9,4.2,0.5c0.3,0.2,0.5,0.5,0.8,0.8c0.3,0.4,0.7,0.8,1.2,1.1
		c0.8,0.4,1.4,0.4,1.8,0.3c0.5-0.1,0.9-0.5,1.1-0.9c0.6-1.1,0.6-2.8-0.5-3.8c-1-0.9-3.3-1.5-5.5-1.5c-2.5,0-4.6,0.7-6.3,2.1
		c-1.8,1.4-2.7,3.3-2.7,5.5c0,1.2,0.4,2.3,1,3.3c0.6,0.9,1.8,2,3.6,3.5c0,0,1.4,1.1,2.1,1.7c1.8,1.5,2.7,2.9,2.7,4.3
		c0,0.9-0.3,1.7-1,2.3c-0.8,0.7-1.7,1-2.9,0.9c-2.7-0.1-3.6-2-4.1-3.2l-0.1-0.2c-0.4-0.9-1.1-1.4-2-1.5c-0.7-0.1-1.8,0.2-2.5,1.1
		c-0.4,0.5-0.8,1.4-0.4,2.7c1,2.8,3.8,4.5,7.2,4.5c2.9,0,5.4-0.8,7.4-2.3c2-1.6,3.1-3.7,3.1-6.1
		C900.5,633.4,899.3,631.3,896.9,629.4z"/>
	<path id="XMLID_860_" class="st0" d="M932.2,654.9v-2.3c0-0.8-0.2-1.3-0.6-1.7c-0.3-0.4-0.9-0.6-1.7-0.6c-0.4,0-0.7,0-1,0.1
		c-0.3,0.1-0.6,0.2-0.8,0.4l0.1,0.9c0.2-0.2,0.5-0.3,0.8-0.4c0.3-0.1,0.6-0.2,0.9-0.2c0.5,0,0.9,0.1,1.1,0.4
		c0.2,0.2,0.3,0.7,0.3,1.2c-0.2,0-0.4,0.1-0.5,0.1s-0.3,0-0.5,0c-0.3,0-0.5-0.1-0.9,0c-0.3,0.1-0.6,0.1-0.8,0.3
		c-0.3,0.1-0.5,0.3-0.6,0.5c-0.2,0.2-0.3,0.5-0.3,0.9c0,0.3,0.1,0.6,0.2,0.8c0.1,0.2,0.2,0.4,0.4,0.5c0.2,0.1,0.4,0.2,0.6,0.3
		c0.3,0.1,0.5,0.1,0.8,0.1c0.2,0,0.4,0,0.6-0.1c0.2-0.1,0.4-0.1,0.5-0.2c0.1-0.1,0.3-0.1,0.4-0.2c0.1-0.1,0.2-0.2,0.2-0.2H931v0.6
		h1.1c0,0,0-0.2,0-0.4C932.1,655.5,932.2,655.2,932.2,654.9z M931,653.8c0,0.4-0.1,0.8-0.4,1c-0.3,0.3-0.6,0.4-1.2,0.4
		c-0.1,0-0.2,0-0.4-0.1c-0.1,0-0.2-0.1-0.3-0.2c-0.1-0.1-0.2-0.2-0.2-0.3c-0.1-0.1-0.1-0.2-0.1-0.4c0-0.2,0.1-0.4,0.2-0.6
		c0.1-0.1,0.3-0.2,0.5-0.3c0.2-0.1,0.4-0.1,0.6-0.1c0.2,0,0.4,0,0.5,0c0.1,0,0.2,0,0.3,0c0.1,0,0.3,0,0.3,0V653.8z"/>
	<rect id="XMLID_859_" x="933.3" y="647.7" class="st0" width="1.1" height="8.3"/>
	<rect id="XMLID_858_" x="936" y="650.5" class="st0" width="1.1" height="5.5"/>
	<rect id="XMLID_857_" x="936" y="647.7" class="st0" width="1.1" height="1.7"/>
	<path id="XMLID_856_" class="st0" d="M946.2,650.9c-0.2-0.2-0.4-0.3-0.6-0.4c-0.2-0.1-0.5-0.2-0.9-0.2c-0.1,0-0.3,0-0.4,0.1
		c-0.2,0-0.3,0.1-0.5,0.2c-0.2,0.1-0.3,0.2-0.5,0.3c-0.1,0.1-0.3,0.3-0.4,0.5c-0.1-0.4-0.4-0.7-0.7-0.8c-0.3-0.2-0.6-0.3-0.9-0.3
		c-0.4,0-0.8,0-1.1,0.1c-0.3,0.1-0.5,0.6-0.7,0.6h0l0-0.6h-0.8v5.5h1.1v-2.9c0-0.3-0.1-0.5-0.1-0.8c0.1-0.2,0.1-0.5,0.2-0.7
		c0.1-0.2,0.2-0.3,0.4-0.5c0.2-0.1,0.4-0.2,0.7-0.2c0.2,0,0.4,0,0.5,0.1c0.1,0.1,0.2,0.2,0.3,0.4c0.1,0.1,0.1,0.3,0.2,0.5
		c0,0.2,0,0.4,0,0.5v3.4h1.1v-2.9c0-0.3,0-0.5,0-0.8c0.1-0.2,0.1-0.5,0.2-0.7c0.1-0.2,0.3-0.3,0.4-0.5c0.2-0.1,0.4-0.2,0.7-0.2
		c0.2,0,0.4,0,0.5,0.1c0.1,0.1,0.2,0.2,0.3,0.4c0.1,0.1,0.1,0.3,0.1,0.5c0,0.2,0,0.4,0,0.5v3.4h1.1v-3.6c0-0.3,0-0.6-0.1-0.8
		C946.4,651.3,946.3,651.1,946.2,650.9z"/>
	<path id="XMLID_853_" class="st0" d="M952.3,652.1c-0.1-0.4-0.2-0.7-0.4-1c-0.2-0.3-0.4-0.5-0.8-0.6c-0.3-0.2-0.7-0.2-1.2-0.2
		c-0.4,0-0.8,0.1-1.1,0.2c-0.3,0.1-0.6,0.3-0.8,0.6c-0.2,0.3-0.4,0.6-0.5,0.9c-0.1,0.3-0.2,0.7-0.2,1.1c0,0.5,0.1,0.9,0.2,1.2
		c0.1,0.4,0.3,0.7,0.5,1c0.2,0.3,0.5,0.5,0.9,0.6c0.4,0.1,0.8,0.2,1.3,0.2c0.2,0,0.4,0,0.6,0c0.2,0,0.3-0.1,0.5-0.1
		c0.1,0,0.3-0.1,0.4-0.1c0.1,0,0.4-0.1,0.4-0.1v-1c0,0.1-0.2,0.1-0.3,0.2c-0.1,0.1-0.3,0.1-0.4,0.2c-0.2,0.1-0.3,0.1-0.5,0.1
		c-0.2,0-0.4,0.1-0.5,0.1c-0.2,0-0.5,0-0.7-0.1c-0.2-0.1-0.4-0.2-0.6-0.4c-0.2-0.2-0.3-0.4-0.4-0.7c-0.1-0.2-0.1-0.3-0.1-0.8h4
		C952.4,652.7,952.4,652.5,952.3,652.1z M948.4,652.7c0,0,0.1-0.4,0.1-0.6c0.1-0.2,0.2-0.4,0.3-0.5c0.1-0.1,0.3-0.3,0.5-0.4
		c0.2-0.1,0.4-0.1,0.6-0.1c0.2,0,0.4,0,0.6,0.1c0.2,0.1,0.3,0.2,0.4,0.3c0.1,0.1,0.2,0.3,0.3,0.5c0.1,0.2,0.1,0.6,0.1,0.6H948.4z"/>
	<path id="XMLID_852_" class="st0" d="M956.2,650.3c-0.4,0-0.8,0-1.1,0.1c-0.3,0.2-0.6,0.6-0.7,0.6h0l0-0.6h-1.1v5.5h1.1v-2.6
		c0-0.3,0.1-0.7,0.1-0.9c0.1-0.3,0.2-0.5,0.3-0.7c0.1-0.2,0.3-0.4,0.5-0.5c0.2-0.1,0.5-0.2,0.8-0.2c0.5,0,0.7,0.2,0.8,0.5
		c0.2,0.3,0.2,0.8,0.2,1.5v2.9h1.1v-3.4c0-0.8-0.1-1.3-0.5-1.8C957.4,650.5,956.9,650.3,956.2,650.3z"/>
	<path id="XMLID_851_" class="st0" d="M961.8,655.3c-0.2,0-0.4-0.1-0.6-0.3c-0.2-0.2-0.2-0.4-0.2-0.7V651h1.7v-0.6H961v-1.7
		l-1.1,0.3v1.4h-1.1v0.6h1.1v3.5c0,0.6,0.2,1,0.5,1.2c0.3,0.3,0.7,0.4,1.3,0.4c0.2,0,0.4,0,0.6,0c0.1,0-0.1-0.1,0.5-0.1v-0.9
		c0,0.1-0.3,0.1-0.4,0.1C962.2,655.3,961.9,655.3,961.8,655.3z"/>
	<path id="XMLID_848_" class="st0" d="M967.6,651.1c-0.2-0.3-0.5-0.5-0.9-0.6c-0.4-0.1-0.7-0.2-1.2-0.2c-0.4,0-0.8,0.1-1.2,0.2
		c-0.4,0.1-0.7,0.3-0.9,0.6c-0.3,0.3-0.4,0.6-0.6,0.9c-0.1,0.4-0.2,0.7-0.2,1.2c0,0.4,0.1,0.8,0.2,1.1c0.1,0.4,0.3,0.7,0.6,0.9
		c0.3,0.3,0.6,0.5,0.9,0.6c0.3,0.2,0.7,0.2,1.2,0.2c0.4,0,0.8-0.1,1.2-0.2c0.4-0.2,0.7-0.4,0.9-0.6c0.2-0.3,0.4-0.6,0.6-0.9
		c0.1-0.4,0.2-0.7,0.2-1.1c0-0.4-0.1-0.8-0.2-1.2C968,651.7,967.8,651.4,967.6,651.1z M967.1,653.9c-0.1,0.2-0.2,0.5-0.3,0.7
		c-0.1,0.2-0.3,0.4-0.5,0.5c-0.2,0.1-0.5,0.2-0.8,0.2c-0.3,0-0.6-0.1-0.8-0.2c-0.2-0.1-0.4-0.3-0.5-0.5c-0.1-0.2-0.2-0.4-0.3-0.7
		c-0.1-0.2-0.1-0.5-0.1-0.7c0-0.3,0-0.5,0.1-0.8c0.1-0.3,0.2-0.5,0.3-0.7c0.1-0.2,0.3-0.4,0.5-0.5c0.2-0.1,0.5-0.2,0.7-0.2
		s0.5,0.1,0.7,0.2c0.2,0.1,0.4,0.3,0.5,0.5c0.1,0.2,0.3,0.4,0.3,0.7c0.1,0.3,0.1,0.5,0.1,0.8C967.2,653.4,967.2,653.7,967.1,653.9z"
		/>
	<path id="XMLID_847_" class="st0" d="M971.7,653.2c-0.2-0.1-0.4-0.2-0.6-0.3c-0.2-0.1-0.4-0.2-0.6-0.3c-0.2-0.1-0.3-0.2-0.4-0.3
		c-0.1-0.1-0.2-0.3-0.2-0.5c0-0.2,0.1-0.4,0.3-0.5c0.2-0.1,0.4-0.2,0.7-0.2c0.1,0,0.1,0,0.2,0c0.1,0,0.2,0,0.3,0.1
		c0.1,0,0.2,0.1,0.3,0.1c0.1,0,0.2,0.1,0.2,0.1l0.1-0.9c-0.2-0.1-0.4-0.1-0.6-0.2c-0.2,0-0.4-0.1-0.7-0.1c-0.3,0-0.5,0-0.8,0.1
		c-0.2,0.1-0.4,0.2-0.6,0.3c-0.2,0.1-0.3,0.3-0.4,0.5c-0.1,0.2-0.2,0.5-0.2,0.8c0,0.3,0.1,0.5,0.2,0.7c0.1,0.2,0.3,0.3,0.4,0.5
		c0.2,0.1,0.4,0.2,0.6,0.3c0.2,0.1,0.4,0.2,0.6,0.3c0.2,0.1,0.3,0.2,0.4,0.3c0.1,0.1,0.2,0.3,0.2,0.4c0,0.2,0,0.3-0.1,0.4
		c-0.1,0.1-0.1,0.2-0.3,0.2c-0.1,0.1-0.2,0.1-0.3,0.1c-0.1,0-0.2,0-0.4,0c-0.1,0-0.2,0-0.3,0c-0.1,0-0.2,0-0.3-0.1
		c-0.1,0-0.2-0.1-0.3-0.1c-0.1,0-0.2-0.1-0.3-0.2l-0.1,0.9c0.2,0.1,0.5,0.2,0.7,0.2c0.3,0,0.5,0.1,0.8,0.1c0.2,0,0.5,0,0.7-0.1
		c0.2-0.1,0.4-0.2,0.6-0.3c0.2-0.1,0.3-0.3,0.4-0.5c0.1-0.2,0.2-0.5,0.2-0.8c0-0.3-0.1-0.5-0.2-0.7
		C972,653.5,971.8,653.3,971.7,653.2z"/>
</g>
<g id="XMLID_1_">
	<path id="XMLID_24_" class="st1" d="M117.8,29.3c9.9-3.8,19-6.4,27.2-7.9c28.7-5.5,47.1,1,55.5,6.8c0.3-2.3-9-10.2-25.1-13.5
		c-22.9-4.6-50.6,5.8-55.9,7.8c0.4-3.7,1.9-8.7-0.3-11c-1.4-1.4-5.8-1.1-6.2,3.8c-0.3,3.5-0.7,7.4-1.3,11.7
		C111,32.5,114.3,30.7,117.8,29.3z"/>
	<path id="XMLID_19_" class="st1" d="M220.6,38.1c-1.3-1.6-5.2-1.9-6.6-1.9c-0.1,0-0.1,0-0.2,0h0c-5.6,0.9-10.5,2.7-14.6,7.2
		c-3,3.4-5,7.4-5.8,11.7c-0.2,0.8-1.1,3.6-3,5.1c-0.2,0.2-0.4,0.2-0.5,0.2c0,0-0.1-0.1-0.1-0.5c0.1-0.9,2-14.2,2-14.3
		c0.2-1.5,0.4-2.9,0.4-4.1c0-4.9-3.2-5.4-4.6-5.4c-2.5,0-5,1.4-7.9,4.2c-0.9,0.9-1.9,2-2.8,3.3c0.1-0.9,0.2-1.9,0.2-1.9
		c0-5.1-3.1-5.6-4.4-5.6c-3.5,0-7,2.3-10.7,7c0-0.3,0.1-0.9,0.2-2.1c0-1.7-0.4-3-1.3-3.8c-1.1-1-2.5-1-2.9-1
		c-1.7,0.1-6.8,4.5-9.9,7.6l0.5-3.7c0.2-0.9,0-1.6-0.4-2.1c-0.8-0.9-2.5-1.3-5.5-1.3c-0.1,0-0.2,0-0.3,0c-5.9,0.1-11.1,2.4-15.3,7
		l0,0v0c-2.8,3-4.8,6.5-5.8,10.3c-0.6,1.4-2.3,4.7-4.8,6c-0.1,0-0.2,0.1-0.3,0c-0.1-0.1-0.2-0.2-0.1-0.8l0.2-1.6
		c0.8-5.3,2.4-16.2,2.2-17.7l0-0.1c-0.1-1-0.4-3.6-3.1-4.1c-2.1-0.4-3.5,0.6-3.9,0.9l-0.1,0.1l0,0.1c0.2,0.6-1.6,13.7-2.7,20.7
		c-0.5,3.6-0.8,5.5-0.8,5.7c0,4.2,2.9,4.5,3.8,4.5c2.5,0,5-1.6,7.7-4.9c0.4-0.5,0.7-0.9,1-1.3c0.2,1.9,0.8,3.3,2,4.6
		c-6,4.9-10,9.3-10.1,14.7c-0.1,3,0.9,5.4,2.9,7.4c2,2,4.5,2.9,7.6,2.9c0,0,0.1,0,0.1,0c5.7,0,11.2-2.4,16.3-7.5
		c2.1-2.1,3.6-4.5,4.9-7.8c1.1-2.9,1.6-7.9,2.1-12.4c0.6-6.8,1.1-12.8,1.2-13.4c1.5-1.8,3.9-4,7.2-6.4l-0.2,2.5l-0.2,1.5
		c0,0-1.5,13.5-1.5,13.6c-0.1,0.6-0.2,1.9-0.2,2.5c0,0.6,0.1,3.6,3.1,4.2c1.8,0.3,3.5-0.5,4-0.9l0.1-0.1l-0.1-0.1
		c-0.2-0.4,0.5-5.6,1-8.9c0.3-3,1.6-6.4,3.9-9.9c2.3-3.6,3.9-5,4.5-5c0,0,0,0,0,0c0.1,0,0.2,0.2,0.2,0.2c0.3,0.4,0.1,3.2-0.1,4.8
		c0,0.1-1.4,13.1-1.4,13.2c0,0,0,0.4-0.1,0.9c-0.1,0.7-0.1,1.2-0.1,1.5c0,0.6,0.1,3.7,3.1,4.2c1.9,0.3,3.8-0.7,4.3-1.1l0.1-0.1
		l0-0.1c-0.3-0.6,0.4-6.5,0.7-8.7c0.3-3,1.7-6.3,4-9.7c2.9-4.3,4.2-4.8,4.6-4.9c0.1,0,0.2,0,0.3,0.1c0.3,0.2,0,3.2-0.5,6
		c0,0,0,0-1.1,7.1c-0.4,3-0.7,5.3-0.7,6.8c0,4.7,3.2,5,4.2,5c1.8,0,3.8-1.1,6.4-3.6c0.3-0.3,0.5-0.5,0.8-0.8
		c1.1,3.8,3.7,4.4,5.3,4.4c2.4,0,5-1.3,8-3.9c1.2-1,2.4-2.3,3.5-3.6c0,0.2,0,0.3,0,0.3l0,0c-0.1,0.2-0.1,0.9-0.3,2.6
		c0,4.2,2.9,4.6,3.8,4.6c1.2,0,2.4-0.4,3.8-1.4l0.1-0.1l0-0.1c0,0,0-0.1-0.1-0.1C216.7,66,219.2,50,221,40l0-0.2
		C221.1,39.2,221,38.5,220.6,38.1z M201.5,60.5c-0.4,0-0.6-0.8-0.6-2.1c0-4.4,0.9-8.3,2.6-11.5c1.9-3.5,4.3-4.3,6.3-4.3
		c0.9,0,1.8,0.2,2.5,0.3c0.1,0,0.2,0,0.3,0.1c-0.1,0.8-0.5,2.5-0.5,2.5l0,0c-0.7,4.4-2.6,8.3-5.6,11.6
		C203.9,60.1,202.2,60.5,201.5,60.5z M128.9,60.2C128.9,60.2,128.9,60.2,128.9,60.2c-0.1,0-0.1,0.1-0.2,0c-0.3-0.3-0.4-1.2-0.3-1.9
		c0.1-4.5,1-8.4,2.8-11.4c1.6-2.7,3.3-4,5.5-4.1c0.1,0,0.2,0,0.4,0c1,0,2.2,0.2,3.4,0.5c-0.1,0.9-0.1,2.3-0.1,2.3v0
		c-0.9,4.2-2.7,8-6,11.3C131.4,59.9,129.6,60.2,128.9,60.2z M126.6,86c-1.1,0-2.9-0.2-4.4-1.5c-1.8-1.5-2.8-3.6-2.8-6.5
		c0-2.8,2-6.2,6.1-10.2c0.1,0,0.2,0.1,0.2,0.1c0,0,0,0,0,0c3.9,0,7.9-2.6,12.3-7.9c-0.1,1.3-0.4,2.5-0.4,2.5v0
		c-0.9,11.8-2.4,17.6-3.4,19.3C132.4,84.8,130,86,126.6,86C126.6,86,126.6,86,126.6,86z"/>
	<path id="XMLID_18_" class="st1" d="M101.1,44.7L101.1,44.7c-0.1-0.1-0.5-0.4-1.3-1.1l-1.3-1.1c-2.9-2.4-4.8-4.1-5.7-5.2
		c-0.7-0.8-1-1.7-1.1-2.7c-0.1-1.2,0.9-2.7,2.3-3.5c1.1-0.6,3.4-1.4,6.5,0.7c0.5,0.3,0.8,0.8,1.3,1.2c0.5,0.6,1.1,1.2,1.8,1.7
		c1.2,0.7,2.2,0.6,2.8,0.5c0.8-0.2,1.4-0.7,1.8-1.4c0.9-1.7,0.9-4.4-0.8-5.8c-1.6-1.3-5.1-2.3-8.5-2.3c-3.9,0-7.1,1.1-9.8,3.3
		c-2.7,2.2-4.1,5.1-4.1,8.6c0,1.9,0.5,3.6,1.6,5.2c1,1.4,2.8,3.2,5.6,5.5c0,0,2.2,1.8,3.3,2.7c2.8,2.3,4.2,4.5,4.2,6.6
		c0,1.4-0.5,2.6-1.6,3.5c-1.2,1-2.7,1.5-4.5,1.5c-4.1-0.1-5.5-3.2-6.3-5L87,57c-0.6-1.3-1.7-2.1-3.1-2.3c-1.1-0.2-2.8,0.4-3.9,1.7
		c-0.7,0.8-1.3,2.2-0.6,4.2c1.5,4.3,5.8,6.9,11.2,6.9c4.5,0,8.3-1.2,11.4-3.6c3.2-2.5,4.8-5.7,4.8-9.5
		C106.7,51,104.8,47.7,101.1,44.7z"/>
	<path id="XMLID_15_" class="st1" d="M155.8,84.2v-3.6c0-1.2-0.3-2.1-0.9-2.7c-0.5-0.6-1.5-0.9-2.7-0.9c-0.6,0-1.1,0.1-1.6,0.2
		c-0.5,0.2-0.9,0.3-1.3,0.6l0.1,1.4c0.3-0.3,0.7-0.5,1.2-0.6c0.4-0.2,0.9-0.2,1.4-0.2c0.8,0,1.4,0.2,1.7,0.6
		c0.3,0.4,0.5,1.1,0.5,1.8c-0.3,0-0.6,0.1-0.9,0.1c-0.2,0-0.5,0-0.9,0c-0.4,0-0.9-0.1-1.3,0c-0.5,0.1-0.9,0.2-1.3,0.4
		c-0.4,0.2-0.7,0.5-1,0.9c-0.3,0.4-0.4,0.8-0.4,1.4c0,0.5,0.1,0.9,0.2,1.2c0.2,0.3,0.4,0.6,0.7,0.8c0.3,0.2,0.6,0.4,1,0.5
		c0.4,0.1,0.8,0.2,1.3,0.2c0.4,0,0.7,0,1-0.1c0.3-0.1,0.6-0.2,0.8-0.3c0.2-0.1,0.4-0.1,0.6-0.3c0.2-0.2,0.3-0.3,0.4-0.3H154V86h1.7
		c0,0,0-0.3,0-0.6C155.7,85.1,155.8,84.7,155.8,84.2z M154,82.6c0,0.6-0.2,1.2-0.6,1.6c-0.4,0.4-1,0.7-1.8,0.7c-0.2,0-0.4,0-0.6-0.1
		c-0.2-0.1-0.4-0.2-0.5-0.3c-0.2-0.1-0.3-0.3-0.4-0.4c-0.1-0.2-0.2-0.4-0.2-0.6c0-0.4,0.1-0.7,0.3-0.9c0.2-0.2,0.5-0.4,0.8-0.5
		c0.3-0.1,0.7-0.2,1-0.2c0.3,0,0.6,0,0.8,0c0.2,0,0.3,0,0.5,0c0.2,0,0.5,0,0.5,0V82.6z"/>
	<rect id="XMLID_14_" x="157.5" y="73.1" class="st1" width="1.7" height="12.9"/>
	<rect id="XMLID_13_" x="161.8" y="77.4" class="st1" width="1.7" height="8.6"/>
	<rect id="XMLID_12_" x="161.8" y="73.1" class="st1" width="1.7" height="2.6"/>
	<path id="XMLID_11_" class="st1" d="M177.5,78c-0.2-0.3-0.5-0.5-0.9-0.7c-0.4-0.2-0.8-0.3-1.4-0.3c-0.2,0-0.4,0-0.7,0.1
		c-0.2,0.1-0.5,0.2-0.7,0.3c-0.2,0.1-0.5,0.3-0.7,0.5c-0.2,0.2-0.4,0.5-0.6,0.8c-0.2-0.6-0.6-1-1-1.3c-0.5-0.3-0.9-0.4-1.4-0.4
		c-0.6,0-1.2,0-1.6,0.2c-0.4,0.2-0.8,1-1.1,1h0l0-0.9h-1.2V86h1.7v-4.4c0-0.4-0.2-0.8-0.1-1.2c0.1-0.4,0.1-0.7,0.3-1
		c0.2-0.3,0.4-0.5,0.7-0.7c0.3-0.2,0.6-0.3,1-0.3c0.3,0,0.6,0.1,0.8,0.2c0.2,0.2,0.3,0.3,0.5,0.6c0.1,0.2,0.2,0.5,0.2,0.8
		c0,0.3,0.1,0.6,0.1,0.8V86h1.7v-4.4c0-0.4,0-0.8,0-1.2c0.1-0.4,0.2-0.7,0.4-1c0.2-0.3,0.4-0.5,0.7-0.7c0.3-0.2,0.6-0.3,1-0.3
		c0.3,0,0.6,0.1,0.8,0.2c0.2,0.2,0.4,0.3,0.5,0.6c0.1,0.2,0.1,0.5,0.1,0.8c0,0.3-0.1,0.6-0.1,0.8V86h1.7v-5.6c0-0.5,0-0.9-0.1-1.3
		C177.9,78.7,177.8,78.3,177.5,78z"/>
	<path id="XMLID_8_" class="st1" d="M187,79.9c-0.1-0.6-0.3-1-0.6-1.5c-0.3-0.4-0.7-0.7-1.2-1c-0.5-0.2-1.1-0.4-1.8-0.4
		c-0.6,0-1.2,0.1-1.7,0.3c-0.5,0.2-0.9,0.5-1.3,0.9c-0.4,0.4-0.6,0.9-0.8,1.4c-0.2,0.5-0.3,1.1-0.3,1.8c0,0.7,0.1,1.3,0.3,1.9
		c0.2,0.6,0.5,1.1,0.8,1.5c0.4,0.4,0.8,0.7,1.4,1c0.6,0.2,1.2,0.3,2,0.3c0.4,0,0.7,0,1-0.1c0.3,0,0.5-0.1,0.7-0.1
		c0.2-0.1,0.5-0.1,0.7-0.2c0.2-0.1,0.6-0.1,0.6-0.2V84c0,0.1-0.3,0.2-0.5,0.3c-0.2,0.1-0.4,0.2-0.7,0.3c-0.2,0.1-0.5,0.2-0.8,0.2
		c-0.3,0.1-0.6,0.1-0.8,0.1c-0.4,0-0.7-0.1-1.1-0.2c-0.3-0.1-0.7-0.3-0.9-0.6c-0.3-0.3-0.5-0.7-0.6-1c-0.2-0.4-0.2-0.4-0.2-1.3h6.2
		C187.2,80.8,187.1,80.5,187,79.9z M181,80.8c0,0,0.1-0.6,0.2-0.9c0.1-0.3,0.2-0.6,0.4-0.8c0.2-0.2,0.4-0.4,0.7-0.6
		c0.3-0.1,0.6-0.2,1-0.2c0.3,0,0.6,0.1,0.9,0.2c0.3,0.1,0.5,0.3,0.7,0.5c0.2,0.2,0.3,0.5,0.4,0.8c0.1,0.3,0.1,1,0.1,1H181z"/>
	<path id="XMLID_7_" class="st1" d="M193.1,77.1c-0.6,0-1.2-0.1-1.7,0.2c-0.5,0.3-0.9,1-1.1,1h0l0-0.9h-1.8V86h1.7v-4.1
		c0-0.5,0.1-1,0.2-1.5c0.1-0.4,0.3-0.8,0.5-1.1c0.2-0.3,0.5-0.6,0.8-0.7c0.3-0.2,0.7-0.3,1.2-0.3c0.7,0,1,0.3,1.3,0.8
		c0.3,0.5,0.2,1.3,0.2,2.3V86h1.7v-5.2c0-1.2-0.2-2.1-0.7-2.7C194.9,77.4,194.2,77.1,193.1,77.1z"/>
	<path id="XMLID_6_" class="st1" d="M201.7,84.8c-0.4,0-0.6-0.1-0.9-0.4c-0.3-0.3-0.3-0.6-0.3-1.2v-5h2.6v-0.9h-2.6v-2.7l-1.7,0.5
		v2.1H197v0.9h1.7v5.4c0,0.9,0.2,1.5,0.7,1.9c0.5,0.4,1.1,0.6,2,0.6c0.3,0,0.6,0,0.9-0.1c0.2-0.1-0.1-0.1,0.8-0.2v-1.4
		c0,0.1-0.4,0.2-0.6,0.2C202.3,84.8,201.9,84.8,201.7,84.8z"/>
	<path id="XMLID_3_" class="st1" d="M210.6,78.3c-0.4-0.4-0.9-0.7-1.4-0.9c-0.5-0.2-1.1-0.3-1.8-0.3c-0.7,0-1.3,0.1-1.8,0.3
		c-0.5,0.2-1,0.5-1.4,0.9c-0.4,0.4-0.7,0.9-0.9,1.4c-0.2,0.6-0.3,1.2-0.3,1.8c0,0.6,0.1,1.2,0.3,1.8c0.2,0.5,0.5,1,0.9,1.4
		c0.4,0.4,0.9,0.7,1.4,1c0.5,0.2,1.1,0.4,1.8,0.4c0.6,0,1.2-0.1,1.8-0.4c0.5-0.2,1-0.6,1.4-1c0.4-0.4,0.7-0.9,0.9-1.4
		c0.2-0.5,0.3-1.1,0.3-1.8c0-0.7-0.1-1.3-0.3-1.8C211.3,79.2,211,78.7,210.6,78.3z M210,82.8c-0.1,0.4-0.3,0.7-0.5,1
		c-0.2,0.3-0.5,0.6-0.8,0.8c-0.3,0.2-0.7,0.3-1.2,0.3c-0.5,0-0.9-0.1-1.2-0.3c-0.3-0.2-0.6-0.4-0.8-0.8c-0.2-0.3-0.4-0.7-0.5-1
		c-0.1-0.4-0.2-0.8-0.2-1.2c0-0.4,0.1-0.8,0.2-1.2c0.1-0.4,0.3-0.7,0.5-1c0.2-0.3,0.5-0.6,0.9-0.7c0.3-0.2,0.7-0.3,1.1-0.3
		s0.8,0.1,1.1,0.3c0.3,0.2,0.6,0.4,0.8,0.7c0.2,0.3,0.4,0.7,0.5,1c0.1,0.4,0.2,0.8,0.2,1.2C210.1,82,210.1,82.4,210,82.8z"/>
	<path id="XMLID_2_" class="st1" d="M217,81.6c-0.3-0.2-0.6-0.4-0.9-0.5c-0.3-0.1-0.6-0.3-0.9-0.4c-0.3-0.1-0.5-0.3-0.7-0.5
		c-0.2-0.2-0.3-0.4-0.3-0.7c0-0.4,0.2-0.6,0.5-0.8c0.3-0.2,0.7-0.3,1.1-0.3c0.1,0,0.2,0,0.4,0c0.2,0,0.3,0.1,0.5,0.1
		c0.2,0,0.3,0.1,0.5,0.1c0.2,0.1,0.3,0.1,0.4,0.2l0.1-1.4c-0.3-0.1-0.6-0.2-1-0.2c-0.3-0.1-0.7-0.1-1-0.1c-0.4,0-0.8,0.1-1.2,0.2
		c-0.4,0.1-0.7,0.3-1,0.5c-0.3,0.2-0.5,0.5-0.6,0.8c-0.2,0.3-0.2,0.7-0.2,1.2c0,0.4,0.1,0.7,0.3,1s0.4,0.5,0.7,0.7
		c0.3,0.2,0.6,0.4,0.9,0.5c0.3,0.1,0.6,0.3,0.9,0.5c0.3,0.2,0.5,0.3,0.7,0.5c0.2,0.2,0.3,0.4,0.3,0.7c0,0.2-0.1,0.4-0.2,0.6
		c-0.1,0.2-0.2,0.3-0.4,0.4c-0.2,0.1-0.3,0.2-0.5,0.2c-0.2,0-0.4,0.1-0.6,0.1c-0.1,0-0.3,0-0.4,0c-0.2,0-0.3-0.1-0.5-0.1
		c-0.2-0.1-0.4-0.1-0.5-0.2c-0.2-0.1-0.4-0.2-0.5-0.3l-0.1,1.4c0.4,0.2,0.7,0.3,1.2,0.4c0.4,0.1,0.8,0.1,1.2,0.1
		c0.4,0,0.8-0.1,1.1-0.2c0.4-0.1,0.7-0.3,1-0.5c0.3-0.2,0.5-0.5,0.7-0.8c0.2-0.3,0.3-0.7,0.3-1.2s-0.1-0.8-0.3-1.1
		C217.5,82,217.3,81.8,217,81.6z"/>
</g>
</svg>
