<?xml version="1.0" encoding="utf-8"?>
<!-- Generator: Adobe Illustrator 22.0.1, SVG Export Plug-In . SVG Version: 6.00 Build 0)  -->
<svg version="1.1" id="Layer_1" xmlns="http://www.w3.org/2000/svg" xmlns:xlink="http://www.w3.org/1999/xlink" x="0px" y="0px"
	 viewBox="0 0 300 101.9" style="enable-background:new 0 0 300 101.9;" xml:space="preserve">
<style type="text/css">
	.st0{fill:#606060;}
</style>
<g>
	<g>
		<path class="st0" d="M226.7,32.8c-3.4,0-5,2.9-4.9,4.3c0.3,1.6,0.3,2.3,1.3,2.9c1.1,0.5,1.1,2.6,0.2,2.9c-0.2,0.2-0.5,1.1-0.4,1.4
			c0,1,0.2,1.1,1.7,1c2.4,0,6.7-5.1,6.7-8.3C231.3,32.8,226.7,32.8,226.7,32.8 M223.8,58.6l8.7-7.1c0,0,0.2,6.8-2.9,9.5
			c-1.3,1.3-2.6,1.9-2.7,0.8C226.7,60.7,226.7,58.6,223.8,58.6 M198.9,73.2c0,0-2.6,4.1-5.8,6.2c-1.9,1.2-3.1-0.2-1.4-1.7
			C192.6,76.6,196.3,73.2,198.9,73.2 M207.9,69.2c2-0.5,11-7.2,11-7.2c-0.1,2.5-0.5,8.3,6.5,8.3c11.6,0,14.1-13.8,13.2-17.6
			c-0.4-3.1,0.9-4.6,2.9-4.6c2.2,0,2.5-1.2,2.5-3.2c0-2.2-3-3.8-6.1-2.3c-7,2.9-25.4,18-25.4,18c5-7.1,5.5-8.4,5.5-9.5
			c0-1.3-0.4-2.6-2.2-2.6c-3.4,0-4.4,1.7-6.1,4.4c-2,3.5-4.4,6.1-5.8,6.1c-1.7,0-1.8,0-1.8-2.1c0.3-4.2,6.4-7.1,10.1-8.5
			c2.8-1,2.5-1.5,2.5-2.6c0-1.5-0.8-1.8-2.6-1.6c-5.3,0.1-19.2,7.5-19.6,16.7c0,3.2,2.3,5.3,5.2,5.3c3.2,0,6.2-2.3,6.2-2.3
			c-0.2,1.4-1.8,3.4-1.8,3.4C186,71,184.5,79.2,184.5,81.8c0.1,3.1,1.1,4.3,4.1,4.3c10.4,0,19.2-16.7,19.2-16.7L207.9,69.2z
			 M172.2,73.7c0,0-0.8,3.2-5.1,5.7c-2,1-2.9-0.4-1.4-1.7C166.6,76.6,169.8,73.7,172.2,73.7 M159.1,44.7c-9.5,1.3-14.9,11-14.9,16.8
			c0,4.4,2.5,7.4,7.5,7.4c11.4,0,15.5-18.3,15.5-18.3c1.6,0.8,6.3,0.8,6.3,0.8c-3.2,2.6-6,6.7-6,9.8c0,3.2,2.2,5.2,5,5.2
			c3.1,0,6.4-2.3,6.4-2.3c-0.5,1.6-1.9,3.2-1.9,3.2c-17.2,4.1-19.4,12.9-19.4,14.5c0,2.1,2.2,3.8,5,3.8c9.4,0,19.5-15,19.5-15
			c7.1-1.7,9.7-8.6,9.7-8.7c0-1-1-1.6-2.2-0.4c-2.7,2.2-3.7,2.2-3.7,2.2c5.3-6.3,8.7-14.3,8.7-15.6c0-1.2-0.4-2.8-2.5-2.8
			c-3.2,0-6,5.2-7.6,7.9c-2.2,3.5-4.5,6.7-6.3,6.7c-1.4,0-1.7,0-1.7-2.1c0-2.9,6.3-7.6,8.7-8.8c2.6-1.3,2.6-1.7,2.6-2.5
			c0-1.7-0.8-2.1-2.6-2.1c-1.6,0-4.5,1.3-4.5,1.3c-8.7,4.2-15,0.3-15,0.3c-2.2,0.5-3.8,2.6-3.8,2.6c-0.2,7.1-5.8,12.1-7,11.9
			c-1-0.1-1.7,0.5-1.7-2.3c0-5.6,6.7-9.2,7.2-9.6c0.8-0.4,1.3,0.4,1.5-1.6C162,44.6,159.1,44.7,159.1,44.7 M99.1,57
			c0,0,0.5-4.2,2-5.8c2.9-3.4,4.1-2.6,2.2,1.1C102.7,53.4,102.2,55,99.1,57 M138.1,48.8c0,0,3.5-9,8.4-14c4.1-4.4,5-2.9,2.6,0.9
			C146.9,39.5,141.2,47.7,138.1,48.8 M92.3,60.4c-3,0.6-3.9,1.2-3.9,3.5c0.2,2.8,5.3,0.9,5.3,0.9c0,1.3,1.7,3.2,5.8,3.2
			c5.6,0,11.4-4.8,11.4-4.8c0,1.6,3.2,4.8,6.7,4.8c5.9,0,12-4.8,12-4.8c0,2.9,2.8,5.7,5.8,5.7c8.3,0,7.4-8.6,7.4-8.6
			c-6.7,2.1-5.5-3.4-5.5-3.4C149.6,47,159,32.3,159,26.1c0-2.6-2.2-5-5.7-3c-20,11.1-23.6,32.6-23.6,32.6c-2.3,2.5-5.9,4.4-8.5,4.4
			c-2.5,0-2.5-2.7-2.5-2.7c11-8.6,19.2-22.6,19.2-27.3c0-2.8-2.3-4.4-5.8-2.8c-17.4,7-21.7,29.7-21.7,29.7c-8,6.9-9.7,4-9.7,4
			c6-3.1,9.3-9,9.3-13.5c0-2.8-1.9-4.8-4.6-4.4C92.9,46,92.3,60.4,92.3,60.4 M81.7,47.2c1.3,2.9-0.4,6.9-1.3,8.5
			c-1,1.3-3.1,5.3-3.1,11c0,6.1,3.1,8.1,7.7,8.1c5,0,4.7-3.1,4.7-3.1c-3.4-0.2-3.3-6.6-1.3-12.3c2.6-8.1,0.2-13.1,0.2-13.1
			c8.8-3.5,25.9-16.6,25.9-24c0-2.8-2.1-4.5-3.8-4.5c-2.1,0-4,0.8-6.8,4.7C89.3,42.8,83.7,43.3,83.7,43.3L81.7,47.2z M63.5,50.2
			c4,0,6.2-3.5,7.7-5.2c0.8-0.9,3.5-4.4,4.8-5.5c1.3-1.1,2.6-0.5,1.4,1.1c-0.9,1.8-3.4,6.7-9.8,12.2c-9.8,7.9-9,10.1-9.2,12.3
			c0,0.7-0.2,4.3,4.2,4.3c5.6,0,9.4-7.2,12-11.1c0.1-0.7,10.3-19.5,11.1-20.5c0.8-1.1,6.4-9.3,6.4-10c0-0.5,0.4-2-2.2-2
			c-2.8,0-4.6,2.2-7.2,4.1c-2.8,1.7-4.9,3-10.2,5.7c-8.8,4.4-12.9,7.4-12.9,11.2C59.6,50.6,63.5,50.2,63.5,50.2 M118.3,50.1
			c0,0,3.2-8.4,7.9-12.6c4.4-4.3,5.1-3,2.7,0.8C126.7,41.9,121.6,49,118.3,50.1"/>
	</g>
</g>
</svg>
