<?xml version="1.0" encoding="utf-8"?>
<!-- Generator: Adobe Illustrator 22.0.1, SVG Export Plug-In . SVG Version: 6.00 Build 0)  -->
<svg version="1.1" id="Layer_1" xmlns="http://www.w3.org/2000/svg" xmlns:xlink="http://www.w3.org/1999/xlink" x="0px" y="0px"
	 viewBox="0 0 214.7 34.8" style="enable-background:new 0 0 214.7 34.8;" xml:space="preserve">
<g>
	<g>
		<g>
			<path d="M48.6,5.4C48,6.1,47.7,6.9,47.7,8v2.3h4.7v1h-4.7V25h-1.2V11.3h-1.9v-1h1.9V8.1c0-0.9,0.2-1.8,0.6-2.5
				c0.4-0.7,0.9-1.3,1.6-1.7c0.7-0.4,1.4-0.6,2.2-0.6c0.9,0,1.8,0.2,2.6,0.7l-0.4,1c-0.8-0.4-1.5-0.6-2.1-0.6
				C50,4.4,49.2,4.7,48.6,5.4z M56.4,4.8c0.2,0.2,0.3,0.4,0.3,0.7s-0.1,0.6-0.3,0.8S56,6.6,55.7,6.6S55.2,6.5,55,6.3
				s-0.3-0.5-0.3-0.8S54.8,5,55,4.8s0.4-0.3,0.7-0.3C55.9,4.5,56.2,4.6,56.4,4.8z M55.1,9.9h1.2V25h-1.2V9.9z"/>
			<path d="M74,11.4c1,1.1,1.5,2.5,1.5,4.3v9.2h-1.2v-9c0-1.5-0.4-2.7-1.3-3.6c-0.9-0.9-2.1-1.3-3.6-1.3c-1.7,0-3.1,0.6-4.1,1.6
				s-1.6,2.4-1.8,4.2V25h-1.2V9.9h1.2v3.8c0.5-1.2,1.3-2.2,2.3-2.8s2.3-1,3.8-1C71.5,9.8,72.9,10.4,74,11.4z"/>
			<path d="M94.4,3.5V25h-1.2v-3.9c-0.6,1.3-1.4,2.2-2.5,3c-1.1,0.7-2.4,1.1-3.9,1.1c-1.4,0-2.7-0.3-3.8-1s-2-1.6-2.6-2.7
				c-0.6-1.1-0.9-2.5-0.9-3.9c0-1.5,0.3-2.8,0.9-3.9c0.6-1.2,1.5-2.1,2.6-2.7c1.1-0.7,2.4-1,3.8-1c1.5,0,2.8,0.4,3.9,1.1
				c1.1,0.7,2,1.7,2.5,3V3.5H94.4z M90.1,23.1c1-0.6,1.7-1.3,2.2-2.3s0.8-2.1,0.8-3.3s-0.3-2.3-0.8-3.3s-1.3-1.8-2.2-2.3
				c-1-0.6-2-0.8-3.2-0.8s-2.3,0.3-3.2,0.8c-1,0.6-1.7,1.3-2.3,2.3c-0.5,1-0.8,2.1-0.8,3.3s0.3,2.3,0.8,3.3s1.3,1.8,2.2,2.3
				c1,0.6,2,0.8,3.3,0.8C88.1,23.9,89.2,23.6,90.1,23.1z"/>
			<path d="M106.3,11.6c-0.7-0.2-1.4-0.3-2.1-0.3c-1,0-1.7,0.2-2.3,0.6c-0.6,0.4-0.9,0.9-0.9,1.7c0,0.5,0.2,0.9,0.5,1.3
				c0.3,0.3,0.7,0.6,1.2,0.8s1.1,0.4,2,0.7c1,0.3,1.9,0.6,2.5,0.9c0.7,0.3,1.2,0.7,1.7,1.3s0.7,1.3,0.7,2.2c0,1.4-0.5,2.4-1.6,3.1
				c-1,0.7-2.3,1.1-3.9,1.1c-1.1,0-2.2-0.2-3.2-0.5c-1-0.4-1.9-0.9-2.6-1.6l0.8-1.4c0.7,0.6,1.4,1.1,2.3,1.4
				c0.9,0.3,1.8,0.5,2.7,0.5c1,0,1.9-0.2,2.5-0.6c0.6-0.4,1-1,1-1.9c0-0.6-0.2-1-0.5-1.4s-0.7-0.6-1.2-0.8s-1.2-0.4-2-0.7
				c-1-0.3-1.9-0.6-2.5-0.9c-0.6-0.3-1.2-0.7-1.6-1.3c-0.4-0.5-0.7-1.3-0.7-2.2c0-1.3,0.5-2.3,1.5-3s2.2-1,3.7-1
				c0.9,0,1.7,0.1,2.5,0.3s1.5,0.5,2.2,1l-0.8,1.5C107.6,12.1,107,11.8,106.3,11.6z"/>
			<path d="M136.9,11.3c1,1,1.5,2.5,1.5,4.3v9.3h-2v-8.8c0-1.4-0.4-2.6-1.2-3.4c-0.8-0.8-1.9-1.2-3.2-1.2c-1.6,0-2.9,0.6-3.8,1.7
				c-0.9,1.1-1.4,2.5-1.4,4.3V25h-2v-8.9c0-1.4-0.4-2.6-1.2-3.4c-0.8-0.8-1.9-1.2-3.2-1.2c-1.6,0-2.9,0.6-3.8,1.7s-1.4,2.5-1.4,4.3
				V25h-1.9V9.8h1.9v3.6c0.5-1.2,1.2-2.1,2.2-2.7s2.2-0.9,3.6-0.9s2.6,0.4,3.6,1.1c1,0.7,1.6,1.7,1.9,3c0.5-1.3,1.2-2.4,2.2-3
				c1-0.7,2.3-1,3.8-1C134.5,9.7,135.9,10.3,136.9,11.3z"/>
			<path d="M145.5,4.5c0.3,0.3,0.4,0.6,0.4,1s-0.1,0.7-0.4,1c-0.3,0.3-0.6,0.4-0.9,0.4c-0.4,0-0.7-0.1-1-0.4c-0.3-0.3-0.4-0.6-0.4-1
				s0.1-0.7,0.4-1c0.3-0.3,0.6-0.4,1-0.4S145.3,4.2,145.5,4.5z M143.6,9.8h1.9V25h-1.9V9.8z"/>
			<path d="M151.3,3.5h1.9V25h-1.9V3.5z"/>
			<path d="M170.4,12c1.2,1.5,1.8,3.5,1.7,6h-12.6c0.1,1.6,0.7,2.9,1.8,3.9s2.4,1.5,3.9,1.5c1,0,1.9-0.2,2.7-0.5s1.5-0.8,2.1-1.5
				l1.1,1.1c-0.7,0.8-1.6,1.4-2.6,1.8c-1,0.4-2.2,0.7-3.4,0.7c-1.5,0-2.8-0.3-3.9-1c-1.1-0.6-2-1.5-2.7-2.7c-0.6-1.2-1-2.5-1-4
				s0.3-2.8,1-3.9c0.6-1.2,1.5-2.1,2.7-2.7c1.1-0.6,2.4-1,3.8-1C167.3,9.7,169.1,10.5,170.4,12z M170.3,16.5
				c-0.1-1.6-0.6-2.8-1.6-3.8c-1-0.9-2.2-1.4-3.7-1.4s-2.8,0.5-3.8,1.4s-1.6,2.2-1.8,3.8H170.3z"/>
		</g>
	</g>
</g>
</svg>
