<svg xmlns="http://www.w3.org/2000/svg" viewBox="0 0 300 101.94"><path d="M222.34,33.11h27.41v9.46H233.34v6.28H248v9.07H233.24v11h-11Zm-13.9,10.62h11c0-6-4.54-11.68-15.35-11.68-11.87,0-15.53,6.56-15.53,11.39,0,7.72,9.46,9.75,9.74,9.85,1.35.48,7.24,2,8.78,2.6a3.18,3.18,0,0,1,2.42,2.8c0,2.12-2.42,3.09-4.53,3.09-1.35,0-5.79-.48-5.79-5.21H187.78c0,6.27,4.35,13.32,16.5,13.32,13.42,0,16.21-7.92,16.21-12.16a9.93,9.93,0,0,0-6.56-9.17c-2.7-1.16-7.24-2-9.46-2.7-1.16-.39-4.92-1.16-4.92-3.48,0-3,4.83-2.6,4.15-2.6,2.22,0,4.73,1.26,4.73,4m-37.64,0-3.09,12h6.56Zm-5.31-10.62H177L190.1,68.83H178.33l-1.74-5.31h-11.1L164,68.83H152.36ZM132.58,47.2h5.79c2.7,0,3.76-1.25,3.76-3a2.73,2.73,0,0,0-3-2.8h-6.56Zm0,13.61h7.24a3.44,3.44,0,0,0,3.67-3.47,3,3,0,0,0-3.38-2.9h-7.53Zm-10.91-27.7h20c7.24,0,10.62,4.92,10.62,9.36,0,3.19-1.25,5.31-4.53,7.24,4.15,1.54,6.47,4.34,6.47,8.59,0,5.11-3.76,10.62-12.55,10.62h-20Z" /><path d="M97,57.92h13.71V44.12H97ZM61.64,44.51H74.58v13H61.64ZM50.25,68.92H86V33.11H50.25Z" /></svg>
