<?xml version="1.0" encoding="utf-8"?>
<!-- Generator: Adobe Illustrator 22.0.1, SVG Export Plug-In . SVG Version: 6.00 Build 0)  -->
<svg version="1.1" id="Texto" xmlns="http://www.w3.org/2000/svg" xmlns:xlink="http://www.w3.org/1999/xlink" x="0px" y="0px"
	 viewBox="0 0 300 101.9" style="enable-background:new 0 0 300 101.9;" xml:space="preserve">
<style type="text/css">
	.st0{fill:#606060;}
</style>
<g>
	<path class="st0" d="M86.9,36.7L86.9,36.7c0-0.6-0.1-1.2-0.2-1.9c0-0.3-0.1-0.6-0.1-0.9c0-0.2,0-0.4-0.1-0.5c0-0.3-0.1-0.5-0.1-0.8
		c0-0.1,0-0.3-0.1-0.4c-0.1-0.4-0.1-0.8-0.2-1.1c0,0.1-0.1,0.3-0.1,0.4c-0.6,1.3-1.6,2.1-2.9,2.2c-0.8,0.1-1.7-0.1-2.7-0.5
		c-0.6-0.2-1.7-0.6-3.1-0.5c-0.3,0-0.7,0.1-1,0.2c-2.1,0.6-3.6,1.7-4.5,3.1c-0.8,1.3-1,2.8-0.7,4.4c0.2,1.1,0.7,2.1,1.3,3.1
		c0.1,0.2,0.3,0.3,0.4,0.5c1.1,1,2.9,2.1,5.4,2c0.3,0,0.5,0,0.7-0.1c1.7-0.2,2.2-0.4,2.8-0.6c0.4-0.2,0.8-0.3,1.5-0.5
		c0.2,0,0.4-0.1,0.7-0.1c0.2,0,0.3,0,0.5,0l0,0c1,0,1.8,0.4,2.2,1.2c0,0,0,0.1,0,0.1c0.3,0.3,0.6,0.6,0.8,0.9
		c0.1,0.2,0.2,0.4,0.2,0.6c0-0.6-0.1-1.4-0.1-2.3C87.3,42.4,87.1,39.5,86.9,36.7z"/>
	<path class="st0" d="M203.8,42.4c0,0.2-0.1,0.4-0.1,0.5c0,0,0,0,0,0c-0.1,1.1-0.3,2.6-0.2,3.5c0.1,0.1,0.3,0.1,0.4,0.1
		c0.2,0,0.3,0,0.5,0c0.1-0.8,0.2-1.5,0.2-2.3c0-1.4-0.2-2.8-0.5-4.2c0,0.4-0.1,0.8-0.1,1.1C203.9,41.5,203.9,42,203.8,42.4z"/>
	<path class="st0" d="M120.8,68.5l0.2,0l0.1,0.1c0,0,1,1.4,2.2,1.2c0.8-0.1,1.8-0.5,2.5-0.8c-7.3-1.5-13.4-3.8-17.6-6.6
		c4.9,2.2,11.2,3.5,18.3,4.3c0.1-1,0.4-1.9,0.5-2.2c-0.6-0.6-1.4-1.5-1.6-2.8c-0.3-1.5,0.2-3.1,1.5-4.7l0.3-0.3l0.1,0.4
		c0,0,0.3,0.9,2,0.7c1-0.1,1.7,0.1,2.1,0.4c1-0.8,5.6-4.1,11.6-1.3c1.7-0.1,2.6,1.4,2.8,1.6c1.6-0.1,3.7,0.2,5.8,1.5
		c0.6-0.6,1.2-0.7,1.6-0.8c0.6-0.1,1-0.2,1.4-1c0.4-0.8,1.3-2.2,3.4-3c0,0-0.2-0.5-0.2-1.3c0-0.9,0.3-2.2,1.6-3.1
		c-0.1,0-0.2-0.1-0.2-0.2c-0.1,0-0.1,0-0.2,0h0c-1.1,0-2.1-0.2-3-0.6c-0.8-0.4-1.5-0.9-2-1.5c-1.1-1.3-1.4-2.7-1.5-3.5
		c-0.1-0.6-0.1-1.3-0.1-2c0-0.1,0-0.2,0-0.3c0-0.2,0-0.3,0-0.4v0c0-0.1,0-0.2,0-0.3c0-0.2,0-0.4,0-0.6v0c0,0,0-0.1,0-0.1s0,0,0,0.1
		c0-0.1,0-0.2,0-0.2c0-0.1,0-0.2,0-0.3c0-0.1,0-0.2,0-0.2c0,0,0-0.1,0-0.1c0-0.2,0-0.7,0-1.3c0,0.6-0.1,1.3-0.2,1.9
		c-0.4,1.8-1.2,3.4-2.3,4.7c-1.4,1.7-4,3.7-8.7,3.7c0,0,0,0,0,0c-2.5,0-4.8-0.6-6.6-1.7c0,0,0,0,0,0c-0.4-0.3-1-0.7-1.7-1.4
		c0,0.3-0.1,0.5-0.2,0.7c0,0.1-0.1,0.1-0.1,0.2c-0.6,0.9-1.7,1.5-3.3,1.9c-1.2,0.3-2.4,0.4-2.8,0.4c0,0,0,0-0.1,0
		c-1.8,0.1-3.4-0.1-4.8-0.5c-1.7-0.4-3.1-1.2-4.1-2.2c0,0,0,0,0,0c-0.8-0.8-1.5-1.8-2-2.8c0.1,1.4,0.2,2.3,0.3,2.8
		c0.1,0.6-0.1,1.3-0.5,1.8c-0.6,0.8-1.8,1.3-3.1,1.3c-0.1,0-0.2,0-0.3,0c0,0-0.1,0-0.1,0c-0.8,0-1.6-0.2-2.3-0.7
		c-0.8-0.5-1.2-1.2-1.3-1.9c0-0.1,0-0.2,0-0.3c0,0,0,0,0,0c0-0.1,0-0.1,0-0.2c0-0.6,0-1.4,0-2.5c-0.1-1-0.1-2-0.2-3v0
		c-0.2-3.9-0.4-5.9-0.6-6.8c-0.3-0.8-0.2-1.6,0.3-2.2c0.1-0.1,0.2-0.3,0.3-0.4c0-0.3,0.1-0.6,0.3-0.9c-0.7-0.4-1.3-1-1.5-1.8
		c-0.2-0.9,0-1.9,0.6-2.7c0,0,0.1-0.1,0.1-0.1c0-0.5,0.2-0.9,0.5-1.3c0.4-0.5,1.2-1.2,2.7-1.3c0,0,0,0,0,0c1.5-0.1,3.1,0.5,3.4,1.8
		c0,0.1,0,0.2,0,0.3c0.4,0.4,0.7,0.8,0.9,1.4c0.2,0.9,0,2-0.6,2.8c-0.2,0.2-0.4,0.4-0.6,0.6c0.3,0.3,0.5,0.6,0.5,0.9c0,0,0,0,0,0
		c0,0,0,0,0,0c0.5,0.4,0.8,0.9,0.9,1.5c0,0.1,0,0.2,0,0.3c0,0,0,0.1,0,0.1c0,0.1,0,0.2,0,0.3c0,0.5,0,1.1,0,1.7
		c0.2-0.5,0.4-0.9,0.7-1.3c0.3-0.7,0.6-1.4,1.1-2c0.9-1.1,2.1-2,3.6-2.7c1.6-0.7,3.6-1.1,6-1.2c0,0,0,0,0,0c0.3,0,1.5,0,3,0.2
		c0,0,0,0,0,0c0.8,0.1,1.4,0.5,1.7,1c0.1,0.2,0.2,0.4,0.2,0.6c0,0,0,0.1,0,0.1c0.2,0.2,0.4,0.4,0.5,0.6c0.3,0.5,0.5,1.1,0.3,1.6
		c0,0,0,0.1,0,0.2c0,0.3-0.1,0.8-0.2,1.3c0,0,0,0,0,0c0.3-0.7,0.7-1.4,1.2-2c1.9-2.3,4.8-3.5,8.4-3.6c0,0,0,0,0,0
		c2.8,0,5.1,0.6,6.6,1.7c1.4,1,2.2,2.2,2.6,3.1c0.2,0.3,0.4,0.5,0.5,0.8c0.5,0.9,0.7,1.6,0.8,2.2c0.1,0.6,0.2,1.3,0.2,1.9
		c0-0.1,0-0.1,0-0.2c0-1.2,0-2.8,0-4.7c0-3.2-0.1-5.3-0.2-6.2c-0.1-0.8,0.1-1.5,0.7-2.2c0,0,0.1-0.1,0.1-0.1c0-0.4,0.2-0.9,0.5-1.2
		c0.6-0.7,1.7-1.1,2.8-1.1c1,0,1.9,0.3,2.4,0.9c0.4,0.4,0.6,0.8,0.6,1.4c0.6,0.5,0.8,1.2,0.8,2c0,0.4,0,0.7,0,1c0,0.5-0.1,1-0.1,1.7
		c0,0,0,0,0,0.1c0,0.2,0,0.5,0,0.7c0,0.1,0,0.3,0,0.4c0,0.3,0,0.7-0.1,1c0,1.3-0.1,4-0.1,5.4c0,0,0,0,0,0c0,0.6,0,1.3,0,1.9
		c0,0.7,0,1.5,0,2.2c0,0,0,0,0,0.1c0,0,0,0,0,0c0,0.1,0,0.1,0,0.2c0,0.3,0,0.7,0,1c0,0.1,0,0.1,0,0.1c0,0,0,0,0,0s0,0,0-0.1
		c0,0,0,0,0,0c0,0.1,0,0.1,0,0.2c0,0.3,0,1.1,0.1,1.7c0.1,0,0.1,0.1,0.2,0.1c0.2,0,0.5-0.1,0.7-0.2c0.1,0,0.1,0,0.3-0.1
		c0.1,0,0.1,0,0.2,0h0c0.2-0.1,0.4-0.1,0.6-0.1c0,0,0.1,0,0.1,0c-0.1-0.2-0.1-0.5-0.2-0.7c-0.2-1-0.2-3,0.4-5
		c0.3-1.3,0.9-2.4,1.5-3.5c0.1-0.1,0.2-0.3,0.3-0.4c0.1-0.3,0.3-0.5,0.5-0.8c0.8-1.2,1.7-2.2,2.9-3.1c0,0,0,0,0,0c0,0,0,0,0,0
		c1.7-1.2,4-1.7,6.5-1.7c0,0,0,0,0,0c1.7,0.1,3,0.4,4.1,0.8c0.1,0,0.3-0.1,0.4-0.1c0,0,0,0,0,0h0c0.2-0.1,0.5-0.1,0.7-0.1
		c0.7,0,1.5,0.4,2,0.9c0.3,0.3,0.5,0.7,0.5,1.1c0,0,0.1,0,0.1,0.1c0.5,0.5,0.7,1.1,0.7,1.7c0,0,0,0,0,0c0,0.1,0,0.1,0,0.2
		c0,0.1,0,0.2,0,0.3c0.1-0.1,0.2-0.2,0.2-0.3c0.1-0.2,0.2-0.4,0.3-0.6c0.5-0.8,1.2-1.5,2.1-2.1c0,0,0,0,0,0c0,0,0,0,0,0
		c2-1.3,5.2-1.2,6.4-1.1c0,0,0,0,0.1,0c1.2,0.1,1.9,0.2,2.6,0.4v0c0.9,0.2,1.6,0.7,1.9,1.4c0.1,0.2,0.2,0.5,0.2,0.8
		c0,0,0.1,0.1,0.1,0.1c0.1-0.2,0.3-0.4,0.5-0.6c0.1,0,0.1-0.1,0.2-0.1c0,0,0,0,0,0c0-0.4,0.2-0.7,0.5-1c0.1-0.1,0.2-0.1,0.2-0.1
		c0,0,0,0,0,0c0,0,0,0,0-0.1c0-0.4,0.1-0.8,0.3-1.2c-9.6-9.6-28.4-16.2-50-16.2c-22.6,0-42.2,7.2-51.3,17.6c0.6-0.2,1.3-0.3,2.1-0.4
		c0,0,0,0,0,0c1.1-0.1,2.7,0,4.2,0.6c1.2,0.5,2,1.3,2.4,2.3c0.5,0.6,0.9,1.2,1.1,2c0.2,0.8,0.3,1.6,0.4,3.2c0,0,0,0,0,0
		c0.1,2.3,0.2,4.6,0.4,6.9c0,0.6,0.1,1.3,0.2,1.8c0,0.1,0,0.2,0,0.3c0.1,0.7-0.1,1.3-0.5,1.9c-0.6,0.8-1.8,1.3-3.1,1.4c0,0,0,0,0,0
		c-1.2,0.1-2.4-0.3-3.2-1c-0.5-0.5-0.8-1.1-0.8-1.7c0,0,0,0,0-0.1c0-0.6,0-1.4-0.1-2.4c0-0.2,0-0.5,0-0.7c-0.2-2.1-0.3-4.2-0.4-6.3
		c0-0.6-0.1-1.1-0.2-1.3c-0.2-0.6-0.4-1-1.3-1c-0.1,0-0.2,0-0.4,0c-0.7,0.1-1.4,0.4-1.8,1c-0.2,0.2-0.8,1.2-0.7,4.7
		c0,0.7,0.2,4.4,0.4,6.3c0,0,0,0,0,0c0.1,0.7-0.2,1.4-0.6,2c-0.4,0.5-1,0.9-1.8,1.1c3.6,7.7,12.5,14.2,24.5,18.4
		C118.4,69.4,119.5,68.9,120.8,68.5z"/>
	<path class="st0" d="M197.6,50c-0.6-0.7-1.2-1.6-1.4-2.6c0-0.1,0-0.1,0-0.2c-0.5,1-1.4,1.8-2.5,2.5c-2.2,1.3-4.9,1.4-7,1.2
		c0,0,0,0,0,0c-1-0.1-2.1-0.2-2.9-0.4c0,0,0,0,0,0c-0.8-0.2-1.6-0.6-2.1-1.1c-0.2-0.1-0.3-0.3-0.4-0.5c-0.6,0.7-1.8,1.1-3,1.1
		c0,0-0.1,0-0.1,0c-0.8,0-1.6-0.3-2.3-0.7c-0.5-0.3-0.8-0.6-1-1c-0.2,0.2-0.3,0.3-0.5,0.4c-1.2,0.9-2.7,1.3-4.2,1.3c0,0,0,0,0,0
		c-1.8-0.1-3.6-0.6-5-1.6c-0.2-0.1-0.4-0.3-0.6-0.4c-0.1,0.5-0.2,0.9-0.5,1.3c0,0-0.1,0-0.1,0.1c0.8,0.3,2,0.8,2.8,2
		c0.5,0.8,0.8,1.7,0.8,2.8c0,0.5-0.1,1.1-0.2,1.6c1.6,1.2,1.4,1.8,1.3,2c0,0,0,0.1,0,0.1c-0.1-0.7-1.2-1.5-1.6-1.8l-0.1-0.1l0-0.2
		c0.2-0.6,0.2-1.2,0.2-1.7c0-0.5-0.1-1-0.2-1.4c-0.1-0.4-0.3-0.8-0.6-1.2c-0.9-1.3-2.5-1.8-3-2c0,0.1,0,0.5,0,0.5l-0.3-0.1
		c-1.6-0.5-2.7,0.1-3.2,0.5c0.1,0.1,0.2,0.2,0.4,0.3c0,0,0,0,0,0c0.1,0.1,0.2,0.1,0.2,0.2l-0.3,0.2c-1.3,0.8-1.6,2-1.6,2.9
		c0,0.6,0.2,1.1,0.2,1.1l0,0c0,0,0,0,0.1,0c0,0,0,0,0,0l0,0c0.5-0.2,1.2-0.3,1.9-0.3c0-0.2,0.1-1,0.6-1.5c0.4-0.4,0.9-0.6,1.6-0.6
		c0.7,0,1.2,0.2,1.5,0.7c0.1,0.1,0.2,0.3,0.2,0.5c0.2,0.5,0.1,1,0.1,1.3c0,0,0,0,0,0l-0.1,0.4l0,0l0,0c-6.2-1.3-8.4,1.2-9.1,2.9
		c-0.5,1.1-1.1,1.2-1.7,1.3c-0.5,0.1-1,0.2-1.6,0.9c-0.7,1-0.5,3.3-0.2,5c0.1-1.2,0.5-2.1,1-2.4c0.9-0.5,1.6-0.4,1.9-0.3
		c0.1,0,0.2,0.1,0.3,0.1c0,0,0.1,0.1,0.1,0.1c0.1,0.1,0.2,0.1,0.3,0.2c0.1,0,0.1,0.1,0.2,0.1c0.1,0.1,0.2,0.2,0.4,0.3
		c0.1,0,0.1,0.1,0.2,0.1c0.1,0.1,0.3,0.3,0.5,0.4c0,0,0.1,0.1,0.1,0.1c0.9,0.8,1.8,1.9,2.7,3c0.8,1,1.5,2.1,1.9,2.9c0,0,0,0,0,0
		c0.1,0.2,0.2,0.4,0.3,0.6c0,0,0,0,0,0.1c0.1,0.2,0.1,0.4,0.1,0.5c0,0,0.2,1.2-0.3,1.8c-0.8,1-3.4,0.5-4.6,0.2
		c0.2,0.2,0.3,0.5,0.4,0.7c0,0,0,0,0,0c0.4,0.3,3.3,2.2,5.5,1.4c0.9-0.3,1.1-0.7,1.2-1.1c0.2-0.6,0.4-1.1,1.8-1.4c0,0,0,0,0,0
		c0.2,0,0.4-0.1,0.6-0.1c0.2,0,0.5-0.1,0.8-0.1c0,0,1.9-0.1,3.1-1c0,0,0,0,0,0c0.1-0.1,0.2-0.1,0.3-0.2c0,0,0,0,0.1-0.1
		c0.1-0.1,0.2-0.2,0.2-0.3l0.2,0.1l0,0c0,0,0.1,0.1,0.1,0.1l0.1,0.1c0,0,0,0,0,0c0.2,0.1,0.3,0.2,0.5,0.3c0,0,0,0,0,0
		c0.4,0.2,0.9,0.3,1.3,0.3c0.9-0.1,1.5-0.9,1.5-0.9l0.2-0.4c0,0,0,0,0,0.1c0,0,0,0,0,0.1c0,0,0,0,0,0c0.1,0.2,0.2,0.5,0.2,0.6
		c0.5-0.1,0.8-0.5,1-1c0,0,0,0,0,0c0.1-0.2,0.1-0.3,0.2-0.5c0,0,0,0,0,0c0-0.2,0.1-0.3,0.1-0.4c0,0,0,0,0,0c0-0.1,0-0.2,0-0.3
		c0,0,0,0,0,0c0,0,0-0.1,0-0.1c0,0,0-0.1,0-0.1l0-0.4c0,0,0.4,0.3,0.4,0.3c0-0.3,0.1-0.6,0.1-0.8c0-0.3,0-0.5-0.1-0.8
		c-0.1-0.8-0.5-1.5-0.9-2c0,0,0,0,0,0c-0.6-0.7-1.3-1.1-1.9-1.4c0,0,0,0,0,0c-0.2-0.1-0.4-0.2-0.5-0.2c0,0.6-0.1,1.3-0.2,2
		c0.4,0.3,1,0.9,1.2,1.8c0,0.1,0,0.3,0,0.4c0,0.1,0,0.3,0,0.5c-0.3,1.3-1.8,2-2.8,1.5c0,0,0,0,0,0l0,0c-0.1,0-0.1-0.1-0.2-0.1
		l-0.2-0.1c0.2-0.3,0.3-0.5,0.5-0.8c0.1-0.2,0.2-0.4,0.3-0.6c0,0,0-0.1,0-0.1c0,0,0,0,0,0c0.3-0.8,0.6-1.5,0.7-2.2c0,0,0,0,0,0
		c0,0,0-0.1,0-0.1c0-0.3,0.1-0.5,0.1-0.8c0-0.1,0-0.1,0-0.2c0-0.3,0.1-0.5,0.1-0.8c0,0,0,0,0-0.1c0.1-2.4-0.6-4.4-1.2-5.8
		c0,0,0,0,0,0c-0.1-0.2-0.1-0.3-0.2-0.4c0,0,0,0,0-0.1c-0.1-0.1-0.1-0.2-0.2-0.3c0,0,0-0.1-0.1-0.1c0-0.1-0.1-0.2-0.1-0.2
		c0-0.1-0.1-0.1-0.1-0.2c0,0,0,0,0-0.1c0,0,0,0,0,0c-0.1-0.2-0.2-0.3-0.2-0.3l0.4-0.3c0,0,2,3,2.1,6.9c0.5,0.2,1.9,0.8,2.8,2
		c4.1-0.8,7.7-1.8,10.8-3.2c-2.7,1.8-6.1,3.3-10,4.6c0.2,0.7,0.3,1.6,0.1,2.7l-0.1,0.3c0,0-0.3-0.2-0.4-0.2c0,0.2-0.1,0.6-0.2,0.9
		c12.9-4.1,22.6-10.8,26.5-18.8C200.4,51.7,198.5,51,197.6,50C197.6,50,197.6,50,197.6,50z M157.9,63.7c-0.4-0.5-1.1-1-1.9-1.2
		c0,0,1.3-0.4,2.4,0.9C158.5,63.5,158.3,64.1,157.9,63.7z M162.2,71.2c0.1-0.8-0.1-1.6-0.4-2.2c-0.2-0.4,0.4-0.5,0.5-0.3
		C163,70.1,162.2,71.2,162.2,71.2z M164.1,60.1c0,0-1.5-0.9-2.3-1.1c1.3-0.2,2.3,0.6,2.3,0.6l-0.1,0.2l0.2,0.1L164.1,60.1z
		 M167.6,66.7c0.2-0.8-0.2-2.5-0.2-2.5l0.2-0.1l0.1,0.2l0.2,0C167.9,64.2,168.2,65.5,167.6,66.7z M170.2,60.3L170.2,60.3
		c-0.1-2.4-2-5.1-2.1-5.1l0.4-0.3C170.9,58.1,170.4,59.8,170.2,60.3z"/>
	<path class="st0" d="M108.1,47.8c0-0.1,0-0.2,0-0.3C108.1,47.6,108.1,47.7,108.1,47.8z"/>
	<path class="st0" d="M129.3,36.9c-0.6,0-1.2-0.1-1.9-0.5c-0.6-0.3-1.3-0.5-1.9-0.4c-0.2,0-0.4,0-0.6,0.1c-2.9,0.7-2.8,3.4-2.7,4.2
		c0.1,0.7,0.3,1.4,0.7,2c0.6,0.6,1.5,1.3,2.7,1.3c0.2,0,0.3,0,0.5,0c1.3,0,1.8-0.2,2.4-0.3c0.3-0.1,0.6-0.2,1.1-0.2
		c0.2,0,0.3,0,0.5,0c0.3,0,0.5,0,0.8,0.1c0-0.1-0.1-0.3-0.1-0.4c-0.5-2.3-0.3-4.6,0.5-6.6C130.5,36.8,129.8,36.9,129.3,36.9z"/>
	<path class="st0" d="M143.3,34.9c-0.4-0.2-1-0.6-1.7-0.6h0c-1,0-1.7,0.3-2.3,1c-0.6,0.8-1,2-1.2,3.5c-0.1,1.4,0,2.7,0.2,3.5
		c0.1,0.5,0.3,1,0.5,1.4c0.1,0.1,0.1,0.1,0.1,0.2c0.6,0.5,1.3,0.7,2.1,0.7h0c0,0,0,0,0,0c1.2,0,2-0.4,2.7-1.1
		c0.4-0.8,0.7-1.9,0.8-3.3c0.1-1.6-0.1-2.9-0.2-3.3C144.3,36.5,144,35.4,143.3,34.9z"/>
	<path class="st0" d="M173.6,34.2c-1,0-1.9,0.4-2.5,1.2c-0.7,0.8-1.1,2-1.4,3.5c-0.2,1.4-0.2,2.6,0,3.3c0.1,0.5,0.2,1,0.4,1.4
		c0.4,0.4,0.9,0.7,1.5,0.7c0,0,0,0,0,0c0,0,0,0,0,0c0.7,0,1.2-0.2,1.7-0.6c0.1-0.2,0.2-0.4,0.3-0.7c0.5-1.4,0.6-3.3,0.7-4.7
		c0,0,0,0,0,0c0.1-1.2,0.2-2.4,0.2-3.7C174.2,34.3,173.9,34.2,173.6,34.2C173.6,34.2,173.6,34.2,173.6,34.2z"/>
	<path class="st0" d="M196.5,43c0.2-2.4,0.5-4.8,0.7-7.2c-0.2-0.1-0.4-0.3-0.6-0.5c-0.5,0.9-1.5,1.3-2.9,1.2
		c-0.7-0.1-1.3-0.2-1.8-0.4c0,0,0,0,0,0c-0.5-0.2-0.9-0.3-1.3-0.3c0,0,0,0,0,0c-0.7,0-1.3,0.1-1.6,0.5c-0.1,0.1-0.2,0.3-0.2,0.4
		c0.5,0.4,1.1,0.7,1.7,1.1c0,0,0,0,0,0c0,0,0,0,0,0c0.6,0.4,1.3,0.7,2,1.1c0.6,0.3,1.4,0.8,2.2,1.4c0.6,0.6,1.1,1.2,1.3,1.8
		C196.1,42.3,196.3,42.6,196.5,43z"/>
	<path class="st0" d="M187.6,45.4L187.6,45.4L187.6,45.4c0.1,0,0.3,0,0.5,0v0c0.6,0,1.1-0.1,1.5-0.3c-0.1-0.5-0.4-0.8-1.4-1.3
		c-0.8-0.4-1.6-0.8-2.4-1.2c-1-0.5-3-1.5-4-3.3c-0.1,0.9-0.1,1.9-0.2,2.8c-0.1,1.5-0.1,2.7-0.1,3.7c0.4-0.8,1.2-1.2,2.3-1.2
		c0.4,0,0.8,0.1,1.2,0.3c0,0,0,0,0,0C185.6,45.1,186.4,45.4,187.6,45.4z"/>
	<path class="st0" d="M204.2,52.1C204.2,52.1,204.2,52.1,204.2,52.1C204.2,52.1,204.2,52.1,204.2,52.1
		C204.2,52.1,204.2,52.1,204.2,52.1z"/>
	<path class="st0" d="M235.1,47.3c-1.1,0-2.1,0.5-2.8,1.3c0-0.1-0.1-0.1-0.1-0.2c0-0.1-0.1-0.2-0.1-0.3c-0.5-1-1.5-1.7-2.7-1.9
		c-0.2,0-0.4,0-0.6,0c0,0,0,0,0,0c-0.6,0-1,0-1.3,0.1c-0.3,0-0.5,0.1-0.9,0.1c-0.3,0-0.7,0-1.2-0.1c-0.2,0-0.3-0.3-0.3-0.3
		c0,0-0.5-1,1.1-1.1c0.2,0,0.4,0,0.5,0c0.9,0,2.5-0.3,3.6-2c1.2-0.2,2.3-0.9,3-2.1c0.5-0.8,0.7-1.7,0.9-2.2c0,0,0,0,0-0.1l0,0
		c0.3-0.9,0.3-1.9-0.1-2.8c-0.1-0.2-0.2-0.3-0.3-0.5c0-0.3-0.1-0.6-0.3-0.9c-0.4-0.9-1.3-1.6-2.4-2c0,0-0.1,0-0.1,0
		c-1.5-0.4-2.8-0.6-3.1-0.7c0,0,0,0-0.1,0c-2.5-0.3-4.7-0.2-6.6,0.3c-1.7,0.4-3.1,1.2-4.2,2.2c-0.2,0.1-0.5,0.2-0.7,0.3
		c-0.1-0.3-0.2-0.5-0.4-0.8c0,0,0,0,0,0c0,0,0,0,0,0c1-1,1.6-2.4,1.4-3.8c-0.1-0.7-0.3-1.3-0.7-1.8c-0.3-2.1-2.3-3.3-4.3-3.5
		c0,0-0.1,0-0.1,0c-0.2,0-0.4,0-0.6,0c-1.7,0-2.8,0.7-3.4,1.3c-0.3,0.3-0.5,0.6-0.7,1c-0.7,0.2-1.2,0.5-1.5,0.9
		c-0.1-0.4-0.3-0.8-0.5-1.2c-0.7-0.8-1.9-1.4-3.2-1.5c-0.3,0-0.6,0-0.9,0c0,0-0.1,0-0.1,0c-0.1,0-0.1,0-0.2,0c-2.3-1.7-5-3.3-8-4.8
		c-5.7-2.8-12.3-5.1-19.5-6.6c0-0.1,0.1-0.2,0.1-0.3l1.9-7.6c0.1-0.5,0-1.1-0.2-1.6c-0.3-0.5-0.7-0.8-1.3-0.9
		c-8.3-1.9-17.2-2.9-26.3-2.9c-9.2,0-18,1-26.3,2.9c-0.5,0.1-1,0.5-1.3,0.9c-0.3,0.5-0.4,1-0.2,1.5l1.9,7.7c0,0.1,0.1,0.2,0.1,0.3
		c-7.2,1.6-13.8,3.8-19.5,6.6c-3,1.5-5.8,3.1-8.1,4.9c-0.1,0-0.1,0-0.2-0.1c-0.5-1.5-2-2.3-4.1-2.3c-0.2,0-0.4,0-0.6,0
		c-0.1,0-0.3,0-0.4,0c0,0-0.1,0-0.1,0c-0.7,0.1-1.7,0.4-2.5,1.1c-0.1,0.1-0.3,0.2-0.4,0.3c-0.8-0.7-1.9-1.2-3.1-1.3c0,0-0.1,0-0.1,0
		c-0.7-0.1-1.4-0.1-2-0.1c-1.2,0-2.1,0.1-2.4,0.1c0,0,0,0-0.1,0c-3.5,0.3-6.5,1.2-9,2.5c-2.3,1.2-4,2.7-5.3,4.6
		c-0.7,1-1.2,2.1-1.6,3.3c-0.7,1.6-1.2,3.4-1.2,5.2c-0.1,2,0.2,4.3,0.9,6.4c0.4,1.3,1.1,2.6,1.9,3.8c0.7,1.1,1.6,2,2.5,2.8
		c0.1,0.1,0.2,0.1,0.2,0.2c0.9,0.7,2,1.4,3.2,1.9c1.7,1.2,3.7,2.1,6,2.5c2,0.4,4.4,0.4,7,0.2l0.1,0c0.5-0.1,1.9-0.2,3.5-0.8
		c3.3,4.8,8.6,9,15.8,12.5c3.1,1.5,6.6,2.9,10.2,4.1c-2.2,2.4-3.4,4.9-3.7,5.4c0,0,0,0,0,0.1l-0.1,0.2c-0.3,0.7,0,1.4,0.6,1.8
		l0.2,0.1l0,0c0.6,0.4,2.1,1,4,1c1.2,0,2.4-0.2,3.5-0.7c0,0,0,0.1,0,0.1l0,0.1c0,0.1-0.1,0.2-0.1,0.3c-0.1,0.2-0.3,0.3-0.4,0.5
		c-0.4,0.5-0.7,1-1,1.5c-0.6,0.8-1,1.8-1.4,2.8c-0.5,1.4-0.8,3-0.9,4.5c-0.1,2,0.2,3.8,0.7,5.3c0.5,1.6,1.3,2.9,2.3,4
		c1.1,1.1,2.3,1.8,3.7,2.2c1.4,0.3,2.9,0.2,4.3-0.2c0.7-0.2,1.3-0.6,1.9-1c0.1,0.1,0.1,0.1,0.2,0.2c0.7,0.7,1.5,1.1,2.5,1.3
		c0.8,0.2,1.6,0.3,2.4,0.2c0.8-0.1,1.5-0.2,2.2-0.5c0.4-0.2,0.8-0.4,1.1-0.6c0.5,0.2,1,0.4,1.5,0.5c0.9,0.2,1.9,0.1,2.8-0.1
		c0.2,0.1,0.4,0.2,0.6,0.3c0.5,0.2,1,0.4,1.6,0.4c0.5,0.1,1,0.1,1.6,0.1c0.6,0,1.2-0.1,1.8-0.3c0.5-0.1,0.9-0.3,1.3-0.5
		c0.6,0.3,1.2,0.5,1.7,0.6c0.5,0.1,1,0.1,1.6,0.1c0.6,0,1.2-0.1,1.8-0.1c1.2-0.2,2.2-0.6,3.2-1.2c0.9,0.6,1.9,1,2.8,1.2
		c0.5,0.1,1,0.1,1.6,0.1c0.6,0,1.2-0.1,1.8-0.1c1-0.2,2-0.5,2.8-0.9c0.4,0.4,1,0.6,1.5,0.9c0.8,0.3,1.6,0.4,2.4,0.4
		c0.9,0,1.7-0.2,2.5-0.5c0.4-0.2,0.8-0.4,1.2-0.7c0.6,0.4,1.3,0.7,2.1,0.9c1.2,0.3,2.5,0.2,3.8-0.2c1.2-0.4,2.3-1.1,3.3-2.2
		c0.9-0.9,1.7-2.2,2.3-3.7c0.3-0.7,0.3-1.5,0.1-2.3c-0.2-0.6-0.5-1.2-1-1.7c-0.1-0.1-0.2-0.2-0.3-0.3c0.4-0.5,0.7-1,0.9-1.6
		c0.3-0.8,0.4-1.6,0.3-2.5c0-0.4-0.2-0.8-0.3-1.1c-0.6-1.3-1.4-2.2-2.3-3c-0.3-0.2-0.5-0.5-0.8-0.7c-1-0.7-2.2-1.1-3.3-1.1h-0.1
		c-1.1,0-2.2,0.3-3.2,0.9c0,0-0.1,0-0.1,0.1c0.1-0.4,0.2-0.8,0.2-1.2c0.1-0.8-0.1-1.6-0.3-2.4c-0.3-0.9-0.8-1.6-1.5-2.2c0,0,0,0,0,0
		c1.8-0.5,2.8-1.3,3.4-2c7.2-1.6,13.8-3.8,19.5-6.6c7.4-3.6,12.7-8,16-12.9c1.1-0.2,2-0.6,2.7-1.2c0.2-0.2,0.4-0.4,0.5-0.6
		c0.1,0,0.2-0.1,0.3-0.1c1,1.1,2.3,1.9,3.8,2.6c1.4,0.6,3.1,1,5.1,1.2c0.3,0,0.9,0.1,1.7,0.1c0.5,0,0.9,0,1.3-0.1
		c1.9-0.2,3.3-0.8,4.4-1.8c1.2-0.3,2.2-0.8,3-1.5c0.1-0.1,0.2-0.2,0.2-0.2l0,0c0,0,0.1-0.1,0.1-0.1c0.7,0.8,1.7,1.3,2.8,1.3
		c2,0,3.7-1.6,3.7-3.7C238.7,48.9,237.1,47.3,235.1,47.3z M121.4,5.4c0-0.2,0-0.3,0.1-0.5c0.1-0.1,0.2-0.2,0.4-0.3
		c8.2-1.9,16.9-2.9,26-2.9c9.1,0,17.8,1,26,2.9c0.2,0,0.3,0.1,0.4,0.3c0.1,0.1,0.1,0.3,0.1,0.5l-1.9,7.6c-0.1,0.3-0.3,0.5-0.6,0.5
		c0,0-0.1,0-0.1,0c-7.5-1.8-15.5-2.6-23.8-2.6c-8.4,0-16.4,0.9-23.8,2.6c-0.3,0.1-0.7-0.1-0.7-0.5L121.4,5.4z M231.1,52.5
		c-0.1,0.1-0.1,0.1-0.2,0.2c-0.8,0.8-1.9,1.2-3.5,1.4c-1.2,0.1-2.4,0-2.8,0c0,0,0,0-0.1,0c-1.8-0.2-3.4-0.6-4.7-1.2
		c-1.6-0.7-2.9-1.6-3.8-2.8l0,0c-1-1.3-1.6-2.8-1.8-4.4c-0.2,2-0.3,3.2-0.3,3.9c0,0.6-0.3,1.2-0.7,1.7c-0.7,0.7-1.9,1-3.3,0.9
		c-0.1,0-0.2,0-0.3,0c0,0-0.1,0-0.1,0c-0.1,0-0.1,0-0.2,0c-2.8,5.5-8.5,10.5-16.8,14.6c-5.8,2.8-12.4,5.1-19.7,6.6
		c-0.4,0.7-1.4,1.8-4.3,2.2l0,0h0c0,0-1.7-0.1-3,0.7l0,0c-0.6,1-1.9,2.2-5.3,2.1c-0.9,0-1.6-0.3-2.1-0.8c-0.6-0.6-0.7-1.4-0.8-1.9
		c-0.1,0-0.2,0-0.4,0c0,0,0,0.1,0,0.1c-0.2,1.1-1.4,2.2-2.8,2.5c-1.6,0.3-3.1-0.5-4.3-2.2c-0.7,0-1.3,0-2,0c-0.2,0-0.5,0-0.7,0
		c-0.6,0.3-1.7,0.6-3.2,0.5c-0.3,0.2-1.7,1.2-3.5,0.2c-0.6-0.3-1-0.7-1.3-1c-0.2,0-0.3,0-0.5,0c0,0.1-0.1,0.1-0.1,0.2
		c-0.7,1.1-2.4,1.4-4.9,1.1c-0.1,0-2.6,0-4.4,1c-0.8,0.7-1.7,1.4-2.9,2c0.1,0.1,0.3,0.2,0.4,0.4c0.1,0.1,0.3,0.2,0.4,0.3
		c0.1-0.2,0.2-0.4,0.4-0.6c0.3-0.8,1.2-1.7,3.2-1.7h0c0.4,0,0.9,0.1,1.4,0.3c0.5,0.2,0.8,0.5,1.2,0.8c0,0,0,0,0,0
		c0.2,0.1,0.4,0.3,0.5,0.5c0.5,0.5,0.7,1.1,0.8,1.8c0,0,0,0.1,0,0.1c0,1.3,0,2.7,0,4.1l0,0.4c1.2-1.4,2.6-2,2.8-2.1
		c0.6-0.2,1.2-0.3,1.8-0.3c0.1-0.2,0.2-0.4,0.4-0.6c0.2-0.2,0.4-0.3,0.6-0.4c0.3-0.1,0.7-0.2,1.1-0.3c0.4,0,0.8,0,1.2,0
		c0.4,0,0.9,0.1,1.2,0.2c0.4,0.1,0.8,0.3,1.1,0.5c0.1,0.1,0.2,0.2,0.3,0.3c0.1,0,0.1,0.1,0.2,0.1c0.1,0.1,0.3,0.2,0.4,0.4
		c1.4-1.4,3.5-1.6,4.7-1.6c1.4,0,2.5,0.3,3,0.5c0.2,0.1,0.5,0.3,0.6,0.5c0.3,0.2,0.6,0.4,0.8,0.9c1.4-1.6,3.7-1.9,4.9-1.9
		c1.4,0,2.5,0.3,3,0.5c0.1,0,0.1,0.1,0.2,0.1c-0.1-0.1-0.1-0.2-0.2-0.3c-0.3-0.7-0.5-1.4-0.4-2.1c0.1-0.7,0.3-1.4,0.8-2c0,0,0,0,0,0
		c0.1-0.2,0.2-0.4,0.3-0.6c0.3-0.5,0.8-0.9,1.4-1.2c0.6-0.3,1.3-0.5,2.1-0.6c0,0,0,0,0.1,0l0.1,0c0.7,0,1.2,0.2,1.6,0.6
		c0.1,0.1,0.2,0.2,0.3,0.3c0.1,0.1,0.2,0.1,0.2,0.2c0.5,0.4,0.9,1,1.1,1.6c0.2,0.6,0.3,1.2,0.3,1.9c0,0.6-0.2,1.2-0.4,1.8
		c-0.2,0.4-0.4,0.7-0.7,1c0.3,0.3,0.5,0.6,0.7,0.9c0.1,0.3,0.2,0.5,0.2,0.8c0.1-0.1,0.1-0.2,0.2-0.2c0.6-0.8,1.3-1.4,2-1.8
		c0.8-0.5,1.6-0.7,2.5-0.7h0c0.9,0,1.7,0.3,2.5,0.9c0.2,0.2,0.5,0.4,0.7,0.6c0.8,0.6,1.4,1.5,2,2.6c0.1,0.2,0.2,0.4,0.2,0.7
		c0.1,0.6,0,1.2-0.2,1.8c-0.2,0.6-0.6,1.1-1,1.5c-0.3,0.3-0.6,0.5-0.9,0.6c0.3,0.2,0.6,0.4,0.8,0.7c0.2,0.2,0.5,0.4,0.7,0.6
		c0.4,0.4,0.6,0.8,0.7,1.2c0.1,0.4,0.1,0.9-0.1,1.3c-0.5,1.3-1.2,2.4-2,3.3c-0.8,0.9-1.8,1.5-2.7,1.9c-0.6,0.2-1.2,0.3-1.8,0.3
		c-0.4,0-0.8,0-1.2-0.1c-1-0.2-1.9-0.7-2.6-1.5c-0.2,0.5-0.7,1-1.5,1.4c-0.6,0.3-1.3,0.4-2,0.4c-0.7,0-1.3-0.1-1.9-0.3
		c-0.6-0.2-1.1-0.6-1.5-1c-0.1-0.1-0.2-0.3-0.3-0.5c-0.9,0.7-2,1.2-3.2,1.4c-0.5,0.1-1.1,0.1-1.6,0.1c-0.5,0-1,0-1.3-0.1
		c-0.9-0.2-1.8-0.6-2.6-1.2c-0.2-0.1-0.3-0.3-0.4-0.4c-0.9,0.8-2,1.4-3.4,1.6c-0.5,0.1-1.1,0.1-1.6,0.1c-0.5,0-0.9,0-1.3-0.1
		c-0.7-0.1-1.4-0.4-2.1-0.9c-0.1,0.1-0.2,0.2-0.3,0.2c-0.4,0.3-0.8,0.5-1.3,0.6c-0.4,0.1-0.9,0.2-1.4,0.2c-0.5,0-0.9,0-1.3-0.1
		c-0.4-0.1-0.9-0.2-1.2-0.3c-0.2-0.1-0.4-0.2-0.5-0.3c-0.1-0.1-0.2-0.2-0.3-0.3c-0.1,0.1-0.3,0.1-0.4,0.2c-0.8,0.3-1.6,0.3-2.4,0.2
		c-0.7-0.1-1.4-0.4-2-0.9c-0.1,0.1-0.2,0.3-0.3,0.4c-0.3,0.3-0.6,0.5-1.1,0.7c-0.5,0.2-1.1,0.4-1.8,0.4c-0.7,0.1-1.3,0-2-0.2
		c-0.7-0.2-1.3-0.5-1.8-1c-0.4-0.4-0.6-0.9-0.6-1.4v-0.1c-1,1-2,1.6-3,2c-1.2,0.4-2.3,0.5-3.5,0.2c-1.1-0.3-2.2-0.9-3-1.8
		c-0.8-0.9-1.5-2.1-2-3.5c-0.5-1.4-0.7-3.1-0.6-4.9c0-1.4,0.3-2.8,0.8-4.2c0.4-0.9,0.8-1.8,1.3-2.6c0.3-0.5,0.6-1,0.9-1.4
		c0.3-0.3,0.6-0.7,0.9-1c0,0,0,0,0,0l-0.1-0.1l0-0.1c0-0.2,0.7-2,1.7-4c-5.4,4.8-9.8,2.1-9.9,2l-0.2-0.1l0.1-0.2
		c0-0.1,1.7-3.8,5.1-6.7c-4.4-1.3-8.6-2.9-12.3-4.7c-8.6-4.2-14.4-9.5-17.1-15.3c-0.6,0.4-1.3,0.8-2.1,1.1c-1.6,0.6-3,0.8-3.5,0.8
		c0,0,0,0,0,0c0,0-0.1,0-0.1,0c-2.5,0.3-4.8,0.2-6.8-0.1c-2.3-0.4-4.3-1.3-5.9-2.6c0,0,0,0,0,0c-0.9-0.8-1.7-1.6-2.4-2.6
		c-0.7-1.1-1.3-2.2-1.7-3.4c-0.6-1.9-1-4-0.9-5.9c0.1-1.7,0.5-3.3,1.2-4.8c0.3-1.1,0.8-2.1,1.4-3c1.1-1.7,2.7-3.1,4.8-4.2
		c2.3-1.2,5.1-2,8.5-2.3c0,0,0,0,0,0c0.5-0.1,2.1-0.2,4.3,0c0,0,0,0,0,0c0,0,0,0,0,0c1,0.1,2,0.5,2.5,1.2c0.2,0.3,0.4,0.6,0.4,1
		c0.2,0.1,0.3,0.3,0.5,0.5c0,0.1,0.1,0.1,0.1,0.2c0.1-0.1,0.2-0.2,0.3-0.4c0-0.7,0.2-1.2,0.8-1.7c0.6-0.5,1.4-0.7,2-0.8c0,0,0,0,0,0
		c0.1,0,0.2,0,0.3,0c1.4-0.1,3,0.2,3.3,1.5c0,0.1,0,0.2,0,0.3c0.6,0.4,0.8,1,0.9,1.4c2.6-2.1,5.7-4.1,9.3-5.8
		c12-5.9,27.9-9.2,44.8-9.2c16.9,0,32.8,3.2,44.7,9.2c3.1,1.5,5.9,3.2,8.3,5c0.2-0.1,0.5-0.1,0.7-0.1c0,0,0,0,0,0c0,0,0,0,0,0
		c0.2,0,0.4,0,0.6,0c0.9,0.1,1.8,0.5,2.2,1c0.2,0.3,0.3,0.7,0.3,1v0l0,0c0,0,0,0.1,0,0.1c0.1,0.1,0.2,0.2,0.3,0.3
		c0.4,0.5,0.5,1.1,0.4,1.6c0,0,0,0,0,0.1c0,0,0,0.1,0,0.1c0,0.2-0.1,0.3-0.1,0.5c0.2,0,0.3,0,0.5,0c0,0,0.1,0,0.1,0c0,0,0.1,0,0.1,0
		c0.8,0.1,1.5,0.4,1.9,0.9c0.3,0.3,0.4,0.6,0.3,1c0,0,0,0,0,0c0,0,0,0,0,0c0,0,0,0,0,0c0.1,0.1,0.1,0.1,0.2,0.2
		c0.1,0.2,0.2,0.3,0.3,0.5c0.1-0.2,0.3-0.5,0.4-0.7c-0.9-0.6-1.4-1.3-1.5-2.3c-0.1-0.9,0.3-1.9,1-2.6c0,0,0.1,0,0.1-0.1
		c0.1-0.5,0.3-0.9,0.7-1.2c0.5-0.5,1.4-1,2.9-0.8h0c1.5,0.1,3,0.9,3.1,2.3c0,0.1,0,0.2,0,0.3c0.4,0.4,0.6,0.9,0.7,1.5
		c0.1,0.9-0.3,1.9-1,2.7c-0.2,0.2-0.5,0.4-0.8,0.6c0.2,0.3,0.3,0.7,0.4,1.1c0,0,0,0,0.1,0.1c0.6,0.7,0.7,1.7,0.6,2.8
		c0,0.1,0,0.2-0.1,0.3c0,0.3-0.1,0.5-0.2,1.2c0,0.3-0.1,0.6-0.1,0.8c0.4-0.9,0.8-1.6,1.4-2.3c0.4-0.7,0.8-1.3,1.4-1.8
		c1-1,2.4-1.7,3.9-2.1c1.7-0.5,3.8-0.6,6.1-0.3c0,0,0,0,0,0c0.3,0,1.5,0.2,2.9,0.6c0,0,0,0,0,0s0,0,0,0c0.7,0.2,1.3,0.7,1.6,1.3
		c0.1,0.2,0.1,0.4,0.1,0.6c0,0,0,0.1,0,0.1c0.2,0.2,0.3,0.4,0.4,0.6c0.3,0.5,0.3,1.1,0.1,1.7c0,0,0,0.1-0.1,0.2
		c-0.1,0.5-0.3,1.2-0.7,1.9c-0.9,1.4-2.1,1.5-2.7,1.4c-0.6-0.1-1.2-0.3-1.8-0.7c-0.6-0.4-1.2-0.7-1.8-0.7c-0.2,0-0.4,0-0.6,0
		c-3,0.3-3.3,3-3.3,3.8c0,0.7,0.1,1.5,0.4,2.1c0.5,0.7,1.3,1.5,2.5,1.7c0.2,0,0.3,0,0.5,0.1c1.3,0.2,1.8,0.1,2.4,0
		c0.3,0,0.7-0.1,1.1-0.1c0.2,0,0.3,0,0.5,0c1,0.1,1.4,0.6,1.6,1.1c0.1,0.1,0.1,0.3,0.1,0.4c0.2,0.2,0.4,0.5,0.5,0.7
		c0.1,0.1,0.1,0.3,0.1,0.4c0,0.2-0.1,0.4-0.1,0.6c0,0.3,0,0.5,0.1,0.8C231.4,52,231.3,52.3,231.1,52.5z M161.4,79.5
		c-0.1,0.4-0.2,0.8-0.3,1.2c0,0.2,0,0.4,0,0.6c-0.4,0-0.8-0.1-1.2-0.1c-1.2,0-3.2,0.2-4.8,1.3c-0.3-0.3-0.6-0.5-1-0.7
		c-0.7-0.3-2-0.6-3.6-0.6c-1.1,0-3,0.2-4.6,1.2c0,0-0.1,0-0.1-0.1c-0.4-0.3-1-0.6-1.6-0.8c-0.5-0.1-1-0.2-1.5-0.3c-0.5,0-1,0-1.4,0
		c-0.5,0.1-1.1,0.2-1.5,0.3c-0.4,0.2-0.7,0.4-1,0.6c-0.1,0.1-0.2,0.2-0.2,0.2c-0.5,0.1-1,0.2-1.5,0.3c-0.1,0-0.5,0.2-0.9,0.4
		c0-0.5,0-1,0-1.5c0-0.1,0-0.1,0-0.1c-0.1-1-0.5-1.9-1.2-2.7c-0.2-0.2-0.4-0.4-0.6-0.6c-0.1-0.1-0.1-0.1-0.2-0.2
		c2.2,0.2,3.8-0.1,4.9-0.9c0.2,0.2,0.5,0.3,0.8,0.5c0.7,0.4,1.4,0.6,2.2,0.6c1,0,1.8-0.3,2.3-0.6c0.1,0,0.3,0,0.4,0
		c1.1,0,2.1-0.3,2.7-0.5c0.6,0,1.2,0,1.7,0c1.2,1.5,2.7,2.3,4.3,2.3c0.3,0,0.6,0,0.9-0.1c1-0.2,1.9-0.6,2.6-1.2c0,0,0.1,0.1,0.1,0.1
		c0.8,0.8,1.8,1.3,3.1,1.3C160.6,79.5,161,79.5,161.4,79.5z M235.1,53.2c-1.3,0-2.2-1-2.2-2.2c0-1.2,1-2.2,2.2-2.2
		c1.2,0,2.2,1,2.2,2.2C237.3,52.2,236.3,53.2,235.1,53.2z"/>
	<path class="st0" d="M235.2,50.1h-0.5v0.7h0.7c0.3,0,0.5-0.1,0.5-0.4C235.8,50.1,235.5,50.1,235.2,50.1z"/>
	<path class="st0" d="M235.1,49.2c-1,0-1.7,0.7-1.7,1.7c0,1,0.7,1.7,1.7,1.7c1,0,1.7-0.7,1.7-1.7C236.7,49.9,236,49.2,235.1,49.2z
		 M235.6,51.1l0.6,1h-0.6l-0.5-1h-0.4v1h-0.5v-2.4h1.2c0.6,0,1,0.2,1,0.7C236.3,50.9,236,51.1,235.6,51.1z"/>
	<path class="st0" d="M127,8.6c0.1,0.2,0.1,0.3,0.2,0.4c0.1,0.1,0.2,0.2,0.3,0.4c0.1,0.1,0.3,0.2,0.4,0.3c0.1,0.1,0.3,0.1,0.5,0.1
		c0.1,0,0.1,0,0.2,0c0.1,0,0.2,0,0.4,0c0.3,0,0.5-0.1,0.7-0.2c0.2-0.1,0.3-0.2,0.4-0.4c0.1-0.1,0.2-0.3,0.2-0.4c0-0.1,0.1-0.3,0-0.4
		c0-0.1-0.1-0.2-0.2-0.3c-0.1-0.1-0.2-0.1-0.3-0.1c-0.2,0-0.2,0.1-0.3,0.2c0,0.1-0.1,0.2-0.1,0.3c0,0.2-0.1,0.3-0.2,0.4
		C129.1,8.9,129,9,128.8,9c-0.2,0-0.3,0-0.4-0.1c-0.1-0.1-0.2-0.2-0.3-0.3c-0.1-0.2-0.2-0.4-0.2-0.6c-0.1-0.4,0-0.7,0.1-0.9
		c0.1-0.2,0.3-0.3,0.6-0.4c0.2,0,0.3,0,0.4,0.1c0.1,0.1,0.2,0.2,0.3,0.3c0.1,0.1,0.1,0.2,0.2,0.2c0.1,0.1,0.2,0.1,0.3,0.1
		c0.1,0,0.2-0.1,0.3-0.2c0.1-0.1,0.1-0.2,0.1-0.3c0-0.2-0.1-0.3-0.3-0.5c-0.2-0.2-0.4-0.3-0.6-0.4c-0.3-0.1-0.5-0.1-0.8-0.1
		c-0.2,0-0.5,0.1-0.7,0.2c-0.2,0.1-0.4,0.3-0.5,0.5c-0.1,0.2-0.2,0.4-0.3,0.7c-0.1,0.2-0.1,0.5,0,0.8C126.9,8.3,127,8.5,127,8.6z"/>
	<path class="st0" d="M134.3,9.1C134.3,9.1,134.4,9.1,134.3,9.1c0.2,0,0.3-0.1,0.3-0.2c0-0.1,0.1-0.2,0.1-0.4l0.1-0.4l1.3-0.1
		l0.2,0.4c0,0.1,0.1,0.1,0.1,0.2c0,0.1,0.1,0.1,0.1,0.2c0,0,0.1,0.1,0.1,0.1c0.1,0,0.1,0,0.2,0c0.1,0,0.2-0.1,0.3-0.2
		c0.1-0.1,0.1-0.2,0.1-0.3c0-0.1-0.1-0.2-0.2-0.4l-1.1-2.2c-0.1-0.1-0.1-0.2-0.1-0.3c0-0.1-0.1-0.1-0.1-0.2
		c-0.1-0.1-0.1-0.1-0.2-0.2c-0.1,0-0.2-0.1-0.3,0c-0.1,0-0.2,0-0.3,0.1c-0.1,0.1-0.1,0.1-0.2,0.2c0,0.1-0.1,0.2-0.1,0.3L134,8.3
		c0,0.1-0.1,0.2-0.1,0.2c0,0.1,0,0.1,0,0.2c0,0.1,0.1,0.2,0.2,0.3C134.1,9.1,134.2,9.1,134.3,9.1z M135.4,6.3l0.5,1l-0.7,0.1
		L135.4,6.3z"/>
	<path class="st0" d="M141.1,8.4c0.1,0.1,0.2,0.1,0.4,0.1l1.8-0.1c0.1,0,0.3,0,0.3-0.1c0.1-0.1,0.1-0.2,0.1-0.3
		c0-0.1-0.1-0.2-0.1-0.3c-0.1-0.1-0.2-0.1-0.3-0.1l-1.4,0.1l-0.1-2.4c0-0.2-0.1-0.3-0.1-0.4c-0.1-0.1-0.2-0.1-0.3-0.1h0
		c-0.1,0-0.2,0.1-0.3,0.2c-0.1,0.1-0.1,0.2-0.1,0.4l0.1,2.7C140.9,8.2,141,8.3,141.1,8.4z"/>
	<path class="st0" d="M147.7,8.4L147.7,8.4c0.1,0,0.3,0,0.3-0.1c0.1-0.1,0.1-0.2,0.1-0.4l0-2.8c0-0.2,0-0.3-0.1-0.4
		c-0.1-0.1-0.2-0.1-0.3-0.1c-0.1,0-0.2,0-0.3,0.1c-0.1,0.1-0.1,0.2-0.1,0.4l0,2.8c0,0.2,0,0.3,0.1,0.4
		C147.5,8.4,147.6,8.4,147.7,8.4z M147.7,8.3L147.7,8.3L147.7,8.3C147.7,8.3,147.7,8.3,147.7,8.3z"/>
	<path class="st0" d="M152.3,8.4c0.1,0.1,0.2,0.1,0.3,0.1l0.9,0c0.1,0,0.1,0,0.2,0c0.1,0,0.2,0,0.3,0c0.1,0,0.3-0.1,0.4-0.1
		c0.1-0.1,0.2-0.1,0.3-0.2c0.1-0.1,0.2-0.2,0.3-0.4c0.1-0.1,0.2-0.3,0.2-0.5c0-0.2,0.1-0.4,0.1-0.6c0-0.7-0.1-1.2-0.5-1.5
		c-0.1-0.1-0.3-0.2-0.5-0.3c-0.2-0.1-0.4-0.1-0.6-0.1l-0.9,0l0,0c-0.2,0-0.3,0-0.4,0.1c-0.1,0.1-0.1,0.2-0.2,0.4l-0.1,2.6
		c0,0.1,0,0.2,0,0.3C152.1,8.2,152.2,8.3,152.3,8.4z M153.1,5.5l0.4,0c0.2,0,0.4,0,0.5,0.1c0.1,0,0.2,0.1,0.3,0.3
		c0.1,0.2,0.1,0.4,0.1,0.7c0,0.5-0.1,0.8-0.4,0.9c0,0-0.1,0.1-0.2,0.1c-0.1,0-0.1,0-0.2,0c-0.1,0-0.2,0-0.3,0l-0.4,0L153.1,5.5z"/>
	<path class="st0" d="M159,8.9c0.1,0,0.2,0,0.3-0.1c0.1-0.1,0.1-0.2,0.2-0.4l0.2-0.4l1.3,0.1l0.1,0.4c0,0.1,0,0.1,0.1,0.2
		c0,0.1,0.1,0.1,0.1,0.2c0,0.1,0.1,0.1,0.1,0.1c0.1,0,0.1,0.1,0.2,0.1c0,0,0,0,0,0c0.1,0,0.2,0,0.3-0.1c0.1-0.1,0.1-0.2,0.2-0.3
		c0-0.1,0-0.2-0.1-0.4L161.2,6c0-0.1-0.1-0.2-0.1-0.3c0-0.1-0.1-0.2-0.1-0.2c0-0.1-0.1-0.1-0.2-0.2c-0.1-0.1-0.2-0.1-0.3-0.1
		c-0.1,0-0.2,0-0.3,0c-0.1,0-0.2,0.1-0.2,0.2c-0.1,0.1-0.1,0.1-0.1,0.2l-1.2,2.4c0,0.1-0.1,0.2-0.1,0.2c0,0.1,0,0.1,0,0.2
		c0,0.1,0,0.2,0.1,0.3C158.7,8.8,158.8,8.9,159,8.9z M160.5,6.4l0.3,1.1L160,7.4L160.5,6.4z"/>
	<path class="st0" d="M166.1,9.7l0.9,0.1c0.2,0,0.3,0,0.4,0h0c0.1,0,0.3,0,0.4-0.1c0.1,0,0.3-0.1,0.4-0.2c0.1-0.1,0.3-0.2,0.4-0.3
		c0.1-0.1,0.2-0.3,0.3-0.5c0.1-0.2,0.1-0.4,0.1-0.6c0.1-0.7,0-1.2-0.4-1.6c-0.1-0.2-0.3-0.3-0.5-0.3c-0.2-0.1-0.4-0.1-0.6-0.2
		L166.6,6c-0.2,0-0.3,0-0.4,0.1c-0.1,0.1-0.2,0.2-0.2,0.4L165.6,9c0,0.1,0,0.2,0,0.3c0,0.1,0.1,0.2,0.1,0.3
		C165.8,9.6,165.9,9.6,166.1,9.7z M167.4,9.7L167.4,9.7C167.4,9.7,167.4,9.7,167.4,9.7L167.4,9.7z M166.9,6.8l0.4,0.1
		c0.2,0,0.4,0.1,0.5,0.1c0.1,0.1,0.2,0.2,0.3,0.3c0.1,0.2,0.1,0.4,0,0.7c-0.1,0.4-0.2,0.8-0.5,0.9c0,0-0.1,0-0.2,0.1
		c-0.1,0-0.1,0-0.2,0h0c-0.1,0-0.2,0-0.3,0l-0.4-0.1L166.9,6.8z"/>
	<path class="st0" d="M160.9,71.7c-0.1-2-5.5-8.1-6.7-8.3c-0.2,0-0.8-0.2-1.6,0.3c-0.6,0.4-1.2,2.8-0.4,5.4c0.4,0.2,0.8,0.3,1,0.3
		c-0.4-1.4-0.1-2.5-0.1-2.5c0,0.1-0.1,1.7,0.9,3.3c0.4-0.2,1.2-0.7,1.9-1.3c0-0.3,0-1.1-0.1-1.5c-0.1-0.4,0-0.7,0.1-0.9
		c0.1-0.1,0.2-0.2,0.3-0.2c0.3,0,1.2,0.8,1.6,1.4c0.6,0.7,0.8,1.4,0.7,2l-0.1,0.1l-0.1,0.1h-0.1c-0.1,0-0.2,0-1-0.4
		c-0.6-0.2-1.2-0.3-1.3-0.3c-0.7,0.6-1.5,1.1-1.9,1.3c0.7,0.9,1.7,1.7,3.2,2.2c0,0-1.6,0-3.1-1.4c-0.1,0.2-0.1,0.3,0,0.4
		c0,0.1,0.2,0.2,0.3,0.3c0.3,0.2,0.8,0.6,1.2,1c1.1,0.3,4,0.9,4.7,0.1C161,72.8,161,72,160.9,71.7L160.9,71.7L160.9,71.7z"/>
	<path class="st0" d="M166.8,73.6c-2.6,0.3-2.7,0.7-2.8,1.2c-0.1,0.4-0.3,1-1.4,1.4c-1.7,0.6-3.5-0.1-4.8-0.7c0.1,0.4,0.2,1,0.7,1.5
		c0.4,0.5,1,0.7,1.8,0.7c2.9,0.1,4.4-0.7,5.7-3c0,0,0,0.3-0.1,0.7c1.3-0.5,2.7-0.5,2.8-0.5c3.1-0.4,3.8-1.6,4-2.2
		c-0.7,0-1.3-0.2-2-0.7C169.4,73.5,166.9,73.6,166.8,73.6z"/>
	<path class="st0" d="M126.5,69.9c-0.1-0.2-0.1-0.4-0.1-0.7c-0.7,0.3-2.1,0.9-3.1,1c-1.1,0.2-2-0.6-2.4-1.1
		c-2.8,7.5-7.5,8.9-9.5,9.2c1.5,0.5,5.2,1,9.2-2.9C122,73,124,70.5,126.5,69.9z"/>
	<path class="st0" d="M129.3,58.3c-1.4,0.2-2-0.3-2.3-0.7c-0.8,1.2-1.3,2.3-1.3,3.3c0,0.2,0,0.5,0.1,0.7c0.3,1.6,1.6,2.6,2.1,3
		c0.2-0.7,0.6-1.6,1.5-3.1c0.7-1,1.6-1.8,2.4-2.4C131.7,59.1,131.1,58.1,129.3,58.3z"/>
	<path class="st0" d="M138.6,74c-0.1-1-0.6-2-0.6-2c-1-1.5-2.2-2.3-3.5-2.3c-1.7,0-3.2,1.4-3.8,2.1c1.6,0,3.2-0.2,3.2-0.2
		s-1.1,0.8-4.8,0.5c-0.6,0-1.9-1.1-2.4-1.6c-0.6,1.5-3.3,7.8-7.5,10c0.6,0.3,2.2,0.8,5.4-0.4c4.3-1.6,6.4-4.8,6.5-4.9
		c0,0-0.1,0.9-0.9,1.8c1.7-0.7,3.5-0.7,3.6-0.7h0h0c2.4,0.3,3.9,0,4.5-0.9C138.5,75,138.6,74.6,138.6,74
		C138.6,74.1,138.6,74,138.6,74z"/>
	<path class="st0" d="M141.9,76.3c0,0-3.1-2.8-2-10c1.6-7.3,4.7-8.3,4.7-8.3c0,0-0.3,0.3-0.7,0.8c0.3-0.1,0.8-0.2,1.4-0.2
		c-0.3-0.4-1.1-1.3-2.3-1.2h0c-0.1,0-0.3,0-0.5,0.1c-1.6,0.5-4.9,6.2-4.3,14c0.1,0.1,0.1,0.2,0.2,0.3c0,0.1,0.6,1.1,0.7,2.2
		c0,0.1,0,0.1,0,0.2c0.1,0.4,0.3,1.3,1.6,2c1.3,0.7,2.3,0.3,2.8,0.1c-0.6-0.1-1.2-0.3-1.9-0.6C141.7,75.8,141.8,76,141.9,76.3z"/>
	<path class="st0" d="M154.5,72.5c-0.2-0.2-0.4-0.3-0.4-0.4c-0.2-0.3-0.1-0.8,0-1c-0.1-0.1-0.2-0.2-0.2-0.3
		c-0.2-0.3-0.4-0.6-0.5-0.9c-0.4,0.1-0.9-0.1-1.5-0.4h0c0,0,0,0,0,0c-0.7-0.4-1.4-1-1.6-1.8c-0.4-1.3-2-2.8-2-2.8
		c0,0,1.8,0.9,2.4,2.7c0.2,0.5,0.6,0.9,1,1.2c-0.1-0.3-0.1-0.5-0.1-0.8h0c-0.1-0.2-1.5-5.7-0.3-7.6c-3.2-2.1-6.8-1.5-7.6-1.4
		c-1.8,2.4-5.2,8.4-2.1,16.2c3.2,1.5,5.9-0.1,5.9-0.1l0.1,0h0.1c0.4,0,0.8-0.1,1.1-0.2c-0.7-0.3-1.6-0.9-2.6-1.9
		c-0.5-0.4-0.9-0.9-1.2-1.4c-1.7-2.9-0.3-4.2-0.3-4.2c-0.5,1.7,0.1,3.7,1.7,5.3c1.9,1.8,3.4,2.2,3.4,2.2l0.1,0l0.1,0.1
		c1.4,2.6,3.2,2.7,4.1,2.6c1.3-0.2,2.3-1.3,2.4-2.1C156.7,74.1,155.3,73,154.5,72.5z"/>
	<path class="st0" d="M83.9,45.2c-0.2,0-0.4,0-0.6,0.1c-1.8,0.4-1.5,0.9-4.4,1.2c-0.2,0-0.5,0-0.7,0.1c-4.7,0.2-8.2-3.8-8.7-7.9
		c-0.4-3.5,1.3-7.1,6.3-8.6c0.4-0.1,0.8-0.2,1.2-0.2c1.7-0.2,3.1,0.3,3.8,0.6c0.9,0.3,1.5,0.5,2.1,0.4c2.3-0.2,2.2-3.3,2.3-3.9
		c0-0.1,0-0.2,0-0.3c-0.1-0.8-1.1-1.6-2.4-1.7c-1.9-0.1-3.4,0-4.2,0c0,0,0,0,0,0c-12.8,1.3-15.4,8.6-14.6,14.6
		c0.1,1.1,0.4,2.2,0.7,3.2c0.8,2.3,2.1,4.2,3.7,5.6c3,2.5,7.3,3,11.8,2.5c0,0,0,0,0.1,0c1.5-0.2,4.8-0.9,6-2.7
		c0.2-0.3,0.3-0.6,0.2-1C86.3,46,85.6,45,83.9,45.2z"/>
	<path class="st0" d="M129.4,29.5c-1.3-0.2-2.4-0.2-2.9-0.2c0,0,0,0,0,0c-8.8,0.3-11,5.2-10.8,9.4c0,0.8,0.1,1.5,0.3,2.2
		c0.4,1.7,1.3,3.1,2.3,4.1c2,1.9,4.9,2.5,8,2.3c0,0,0,0,0,0c1.1,0,4-0.3,5.1-1.8c0.1-0.1,0.1-0.4,0.1-0.6c0-0.6-0.4-1.5-1.5-1.4
		c-0.1,0-0.3,0-0.4,0c-1.2,0.2-1.5,0.5-3.5,0.6c-0.2,0-0.3,0-0.5,0c-2.8-0.1-4.7-2.9-4.8-5.8c-0.1-2.3,1-4.5,3.7-5.2
		c0.3-0.1,0.6-0.1,0.9-0.1c1.1,0,2.1,0.4,2.5,0.6c0.5,0.3,0.9,0.4,1.3,0.4c1.7,0,1.6-2.7,1.7-3c0-0.1,0-0.1,0-0.2
		C130.9,30.2,130.3,29.6,129.4,29.5z"/>
	<path class="st0" d="M229.1,48.2c-0.1,0-0.3,0-0.4,0c-1.3,0-1.6,0.3-3.6,0.1c-0.2,0-0.3,0-0.5-0.1c-2.7-0.5-4.2-3.6-3.9-6.4
		c0.2-2.3,1.7-4.3,4.5-4.6c0.3,0,0.6,0,0.9,0c1.1,0.1,2,0.7,2.4,1c0.5,0.3,0.9,0.5,1.2,0.5c1.6,0.2,2-2.4,2.1-2.8c0-0.1,0-0.1,0-0.2
		c0.1-0.6-0.5-1.2-1.4-1.5c-1.2-0.4-2.3-0.5-2.8-0.6c0,0,0,0,0,0c-8.8-1-11.7,3.5-12.1,7.7c-0.1,0.8-0.1,1.5,0,2.3
		c0.2,1.7,0.8,3.2,1.7,4.4c1.7,2.2,4.5,3.2,7.6,3.5c0,0,0,0,0.1,0c1.1,0.1,4,0.3,5.3-1c0.1-0.1,0.2-0.3,0.2-0.6
		C230.5,49.2,230.3,48.4,229.1,48.2z"/>
	<path class="st0" d="M93.8,47.3C93.8,47.3,93.8,47.3,93.8,47.3c0-0.4-0.1-0.9-0.1-1.4c-0.2-2-0.3-4.6-0.3-5.2
		c-0.1-3.7,0.6-5.1,1-5.6c0.7-0.9,1.7-1.4,2.8-1.5c0.2,0,0.3,0,0.5,0c1.5,0.1,2.2,0.9,2.6,2c0.1,0.4,0.2,0.9,0.2,1.4
		c0,0.1,0,0.1,0,0.2c0.1,1,0.1,1.9,0.2,2.9c0.1,1.4,0.2,2.8,0.3,4.2c0.1,1.1,0.1,2,0.1,2.6c0,0,0,0,0,0.1c0.1,0.8,1.4,1.4,2.6,1.4h0
		c1.5-0.1,2.5-0.8,2.4-1.7c0,0,0-0.1,0-0.1c-0.1-0.6-0.2-1.5-0.3-2.3c-0.1-2.3-0.3-4.7-0.4-7c-0.1-1.6-0.2-2.4-0.4-3.1
		c-0.7-2.5-3.5-3.3-6.3-3.1c0,0,0,0,0,0c-1.2,0.1-2.8,0.4-4.1,1.4c-0.5,0.3-0.8,0.6-1.1,1c-0.1,0.1-0.2,0.2-0.2,0.3
		c-0.1,0.1-0.2,0.2-0.2,0.4c0,0,0,0,0,0c0,0,0,0,0-0.1c-0.1-0.9-0.1-1.8-0.2-2.7c0-0.9-0.1-2.1-0.2-3.2c-0.1-0.8-0.2-1.6-0.3-2.3
		c-0.2-1.2-2-1.2-2.7-1.1c-0.1,0-0.2,0-0.2,0c-1.3,0.2-2.5,0.9-2.4,2.1c0,0,0,0.1,0,0.1c0.2,0.9,0.8,4,1,7.1c0,0.3,0,0.7,0.1,1
		c0.2,2.9,0.4,5.8,0.6,8.8c0.1,2.2,0.2,3.7,0.2,4.3c0,0,0,0.1,0,0.1c0.1,0.7,1.2,1.3,2.4,1.3c0,0,0,0,0,0
		C92.8,49.2,93.9,48.3,93.8,47.3z"/>
	<path class="st0" d="M109.3,46.3c0.1,0.8,1.2,1.6,2.3,1.5c0,0,0,0,0.1,0c0.1,0,0.2,0,0.3,0c1.3-0.1,2.4-0.7,2.4-1.6
		c0,0,0-0.1,0-0.1c-0.1-0.8-0.3-2.2-0.4-4.2c0-0.6-0.1-1.2-0.1-1.8c-0.1-1.7-0.1-3.4-0.2-5.1c0-1,0-1.8,0-2.4c0-0.1,0-0.2-0.1-0.4
		c0-0.1,0-0.1,0-0.1c-0.1-0.7-1.1-1.4-2.2-1.3c-0.1,0-0.3,0-0.4,0.1c-0.4,0.1-0.7,0.2-1.3,0.3c-1.1,0.1-1.5,0.7-1.4,1.4
		c0,0.2,0,0.3,0.1,0.5c0.3,0.9,0.4,2.2,0.6,4.7c0,0.8,0.1,1.6,0.1,2.6c0.1,1,0.1,2.1,0.2,3.1c0.1,1.3,0,2.2,0,2.8c0,0,0,0,0,0
		C109.3,46.2,109.3,46.3,109.3,46.3C109.3,46.3,109.3,46.3,109.3,46.3z"/>
	<path class="st0" d="M110.8,29C110.8,29,110.8,29,110.8,29c2-0.1,2.7-1.4,2.7-2.5c0-0.1,0-0.2-0.1-0.3c-0.3-1.1-1.6-1.5-2.9-1.5
		c-2.1,0.1-2.8,1.5-2.8,2.4c0,0.1,0,0.2,0,0.3C108.1,28.6,109.6,29,110.8,29z"/>
	<path class="st0" d="M148,30.9c-1.4-1.1-3.6-1.6-6.3-1.6c0,0,0,0,0,0c-7.3,0.1-10.2,5.1-10.1,9.7c0,0.7,0.1,1.4,0.3,2.1
		c0.6,2.8,2.3,4.1,3.3,4.8c1.6,1.1,3.8,1.5,5.9,1.5c0,0,0,0,0,0c7.1-0.1,9.9-5.3,9.9-9.9c0-0.7-0.1-1.5-0.2-2.1
		C150.7,34.3,150.3,32.5,148,30.9z M141.1,45.2C141.1,45.2,141.1,45.2,141.1,45.2c-1.7,0-3.4-1-4-4c-0.1-0.6-0.2-1.5-0.3-2.5
		c-0.1-3.1,0.8-7.2,4.8-7.3c0,0,0,0,0,0c1.1,0,1.9,0.5,2.4,0.8c1.1,0.8,1.4,2.1,1.6,2.9c0.1,0.4,0.2,1.5,0.2,2.8
		C145.9,40.9,145.1,45.1,141.1,45.2z"/>
	<path class="st0" d="M153.7,31.9c0,4.1-0.1,6.7-0.1,7.4c0,0,0,3.7,0.1,4.2c0.2,1.6,1.2,4.6,5.2,4.7c0.6,0,1.3,0,1.8-0.1
		c1.8-0.3,2.2-1.2,2.2-1.9c0-0.1,0-0.2,0-0.3c-0.1-0.6-0.6-1.1-1.2-1.1c0,0,0,0,0,0c-0.1,0-0.3,0-0.4,0.1c-0.1,0-0.3,0.1-0.4,0.1
		c-0.4,0.2-0.7,0.2-0.9,0.2c-0.9,0-1.2-0.9-1.2-0.9c-0.3-0.6-0.4-1.5-0.4-2.4c0-0.1,0-0.3,0-0.4c0,0,0-2.9,0-3.6c0-0.2,0-0.4,0-0.7
		c0-0.5,0-1.1,0-1.6c0-1,0.1-2.6,0.1-3.9c0-0.6,0-1.2,0-1.6c0-0.6,0.1-1.1,0.1-1.6c0-0.1,0-0.2,0-0.3c0-0.1,0-0.3,0-0.4
		c0,0,0,0,0-0.1c0-1.3,0.1-1.9,0.1-2.7c0-1.3-1.3-1.9-2.5-1.9c-1.4,0-2.8,0.9-2.8,1.9c0,0.1,0,0.1,0,0.2c0.1,1,0.3,3,0.2,5.9
		C153.7,31.5,153.7,31.7,153.7,31.9z"/>
	<path class="st0" d="M180.3,40.5c0.1-1,0.1-2.1,0.2-3.1c0.2-2.9,0.4-4.5,0.5-5.5c0,0,0,0,0,0c0-0.7-0.9-1.5-2-1.5
		c-0.2,0-0.4,0-0.6,0.1c-0.2,0.1-0.4,0.1-0.6,0.2c-1.1-0.4-2.3-0.8-4.1-0.8c0,0,0,0,0,0c-3.5-0.1-5.4,1-6.2,1.6
		c-3.8,2.8-4.6,6.9-4.6,9.3c0,0.7,0,1.2,0.1,1.5c0.6,3.6,3.9,5.4,6.9,5.5h0c2.8,0.1,4.5-1.8,5.7-3.5c0,0.1,0,0.3,0,0.4
		c0,0.5,0,1.1,0,1.5c0,0.8,1.2,1.5,2.4,1.5c0,0,0.1,0,0.1,0c1.2,0,2.2-0.4,2.2-1.1c0,0,0-0.1,0-0.1c-0.1-0.9-0.2-3,0-5.4
		C180.3,40.6,180.3,40.6,180.3,40.5z M175.7,36.7c-0.1,3.2-0.6,8.1-4.1,8c0,0,0,0,0,0c-1.8-0.1-2.8-1.7-3.2-3.8
		c-0.1-0.6-0.1-1.3-0.1-2.2c0.1-3.1,1.2-7.4,5.3-7.6c0,0,0.1,0,0.2,0c0.8,0,1.7,0.6,2.2,1.1C175.9,33.8,175.8,35.2,175.7,36.7z"/>
	<path class="st0" d="M184,48c0.7,0.2,1.7,0.3,2.7,0.4c0,0,0,0,0,0c1.7,0.1,4.3,0.2,6.3-1.1c1.7-1.1,2.5-2.5,2.5-3.7
		c0-0.2,0-0.5,0-0.7c-0.2-1.9-2.2-3-3.4-3.6c-0.7-0.4-1.3-0.7-2-1.1c-1.3-0.7-2.6-1.3-2.8-2.8c0-0.1,0-0.2,0-0.4
		c0.1-1.1,1.1-2.3,3.3-2.2c0,0,0,0,0,0c0.5,0,0.9,0.1,1.4,0.3c0,0,1.2,0.5,1.7,0.5c0,0,0,0,0,0c0.8,0.1,1.5-0.2,1.7-0.6
		c0-0.1,0-0.2,0-0.3c0-0.6-0.5-1.2-1.3-1.6c-0.1,0-0.2-0.1-0.4-0.1c0,0-0.1,0-0.1,0c0,0,0,0,0,0c-0.7-0.2-1.5-0.3-2.5-0.4
		c0,0,0,0,0,0c-1.5-0.1-4.4,0-6.1,1.1c-1.4,1-2.5,2.3-2.6,3.8c0,0.2,0,0.4,0,0.6c0.3,2,2.6,3.3,3.8,3.9c0.8,0.4,1.6,0.9,2.4,1.3
		c1,0.5,1.9,1.1,2.1,2.3c0,0.1,0,0.3,0,0.4c-0.1,1.1-1.2,2.1-3.4,2c0,0,0,0,0,0c-1-0.1-1.8-0.2-2.4-0.5c0,0-0.2,0-0.3-0.1
		c0,0-0.1,0-0.1,0c0,0,0,0,0,0c-0.3-0.2-0.7-0.2-1-0.3c-0.9-0.1-1.7,0.3-1.9,1.1c0,0,0,0.1,0,0.1C181.8,46.8,182.8,47.6,184,48z"/>
	<path class="st0" d="M205.9,31.5c-0.1,0-0.1,0-0.2,0c-0.4,0-0.8,0-1.3-0.1c-0.1,0-0.1,0-0.2,0c-0.1,0-0.3,0-0.4,0c0,0-0.1,0-0.1,0
		c0-0.1,0-0.1,0-0.2c0.1-1.2,0.2-2,0.5-2.9c0,0,0-0.1,0-0.1c0.1-0.7-1-1.3-2-1.3c-0.2,0-0.4,0-0.6,0c-1.5,0.2-2.5,0.9-2.6,1.9
		c0,0,0,0.1,0,0.1c0,0.5,0,1.1,0,1.7c0,0.1,0,0.3-0.1,0.4c-1-0.1-1.6,0.4-1.6,1c0,0,0,0,0,0c0,0.5,0.6,1,1.4,1.2
		c-0.4,3.5-0.7,6.9-1.1,10.4c0,0.3,0,0.5-0.1,0.7c0,0.5-0.1,1,0,1.4c0.1,0.6,0.4,1.2,1.1,2c0.6,0.7,2.2,1.4,4.7,1.6c0,0,0,0,0,0
		c0.3,0,0.7,0.1,0.9,0c1.3-0.1,2.2-0.7,2.3-1.5c0-0.5-0.8-1-1.6-1.1c-0.1,0-0.2,0-0.3,0c-0.3,0-0.5,0.1-0.8,0h0
		c-0.8-0.1-1.4-0.6-1.6-1.8c-0.1-0.5,0-1.2,0-2c0-0.6,0.1-1.3,0.2-2c0-0.5,0.2-1.1,0.2-1.8c0.1-0.8,0.2-1.8,0.3-2.6
		c0.1-0.9,0.2-1.9,0.3-2.6c0-0.2,0-0.3,0.1-0.4c0.1,0,0.2,0,0.3,0c0.4,0,1,0.1,1.5,0.2c1.2,0.1,2.2-0.3,2.4-0.9c0,0,0,0,0,0
		C207.7,32.3,206.9,31.6,205.9,31.5z"/>
	<path class="st0" d="M211.8,30.8L211.8,30.8c2,0.2,2.9-1,3-2c0-0.1,0-0.2,0-0.3c-0.1-1.1-1.4-1.7-2.7-1.9c-2.1-0.2-3,1-3.1,2
		c0,0.1,0,0.2,0,0.3C209.2,30,210.6,30.6,211.8,30.8z"/>
	<path class="st0" d="M211.8,32.6c-0.1,0-0.1,0-0.2,0c-1.6-0.1-2.6,0.9-2.7,1.9c0,0.1,0,0.2,0,0.3c0.1,0.6,0,1.5-0.1,3.3
		c-0.1,0.9-0.2,2-0.4,3.5c-0.1,1-0.2,2.1-0.3,3.1c-0.1,1.3-0.3,2.2-0.4,2.8c0,0,0,0,0,0c0,0,0,0.1,0,0.1c0,0,0,0,0,0
		c0,0.8,0.9,1.7,2.1,1.8c0,0,0,0,0.1,0c0.1,0,0.2,0,0.3,0c1.3,0.1,2.5-0.3,2.6-1.2c0,0,0-0.1,0-0.1c0-0.8,0.1-2.2,0.3-4.3
		c0.1-0.6,0.1-1.2,0.2-1.8c0.2-1.7,0.4-3.4,0.6-5.1c0.1-1,0.2-1.1,0.2-1.6c0-0.1,0-0.2,0-0.3C214.3,33.2,213,32.8,211.8,32.6z"/>
	<path class="st0" d="M136.6,96.6c0.2,0,0.3,0,0.5,0c0.3,0,0.6-0.1,1-0.2c0.5-0.2,1.1-0.5,1.8-1l0.6-0.5l0.1,2c0,0,0.1,0,0.1,0.1
		c0.2,0.1,0.4,0.1,0.7,0.2c0.2,0,0.5,0,0.7,0c0.1,0,0.2,0,0.3,0c0.3,0,0.7-0.1,1-0.2c0.3-0.1,0.5-0.2,0.8-0.4
		c0.2-0.1,0.2-0.2,0.3-0.4V84.6c0-0.1-0.1-0.2-0.2-0.3c-0.2-0.1-0.4-0.2-0.7-0.3c-0.3-0.1-0.6-0.1-0.9-0.2c-0.2,0-0.3,0-0.4,0
		c-0.2,0-0.4,0-0.6,0c-0.3,0-0.5,0.1-0.8,0.2c-0.1,0-0.2,0.1-0.2,0.1v1.2l-0.5-0.1c-0.3-0.1-0.6-0.1-1-0.1c-0.4,0-0.8,0.1-1.1,0.2
		c-0.3,0.1-2.5,1-3.4,3.6c-0.3,1-1,4.2-0.1,6.2C134.8,95.6,135.3,96.4,136.6,96.6z M137.7,89.7c0.2-0.4,0.5-0.8,0.8-1.1
		c0.3-0.3,0.6-0.5,1-0.6c0.2-0.1,0.4-0.1,0.5-0.1c0.2,0,0.3,0,0.5,0.1l0.3,0.1l-0.2,5l-0.2,0.1c-0.4,0.3-0.8,0.4-1.2,0.4
		c0,0,0,0,0,0c-0.4,0-0.7-0.1-1-0.4c-0.2-0.2-0.4-0.5-0.6-0.9c-0.1-0.3-0.2-0.7-0.2-1.1C137.4,90.7,137.5,90.2,137.7,89.7z"/>
	<path class="st0" d="M130.6,97.2c0.1,0,0.2,0,0.3,0c0.5,0,0.9-0.1,1.2-0.3c0.3-0.1,0.4-0.2,0.5-0.3c0-1.2-0.1-2.5-0.1-3.8
		c0-1.4,0-2.8,0-4.1l0.1-4.1c0-1.3,0-2.7,0-3.9c0-0.3-0.1-0.5-0.3-0.6c-0.2-0.2-0.4-0.3-0.7-0.5c-0.4-0.1-0.6-0.2-0.9-0.2h0
		c-1.4,0-2.1,0.5-2.1,1.5l-0.1,15.7c0.3,0.2,0.6,0.4,1,0.5C129.9,97.2,130.3,97.2,130.6,97.2z"/>
	<path class="st0" d="M146.1,96.2c0.6,0.4,1.3,0.7,1.9,0.9c0.3,0.1,0.6,0.1,1,0.1c0.4,0,0.9,0,1.3-0.1c4.1-0.7,3.9-4.7,3.9-4.9
		c-0.1-1.4-1.1-2.6-2.9-3.4c-0.1,0-0.1,0-0.1-0.1c-0.4-0.2-0.6-0.5-0.7-0.9c-0.1-0.3,0-0.6,0.1-0.8c0.2-0.2,0.5-0.6,1.3-0.6
		c0.3,0,0.7,0.1,1.1,0.2c0,0,0.1-0.1,0.1-0.1c0.1-0.2,0.2-0.5,0.3-0.8c0.1-0.3,0.1-0.7,0-1c-0.1-0.4-0.2-0.5-0.2-0.5
		c-0.4-0.2-1.3-0.4-2.5-0.4c-1.1,0-3,0.2-4.1,1.5c-0.3,0.4-1,1.9-0.5,3.2c0.1,0.4,0.4,0.6,0.7,0.9c0.3,0.3,0.7,0.5,1.1,0.7
		c0.4,0.2,0.8,0.4,1.2,0.5l0.3,0.1c0.2,0.1,0.5,0.2,0.7,0.3c0.9,0.4,1.3,1,1.2,1.8c-0.1,0.4-0.4,0.8-0.8,1c-0.3,0.1-0.7,0.2-1.1,0.2
		c-0.1,0-0.1,0-0.2,0c-0.5,0-0.9-0.1-1.4-0.2c-0.4-0.1-0.8-0.2-1.1-0.4c-0.1-0.1-0.2-0.1-0.3-0.2c-0.1,0.1-0.1,0.2-0.2,0.3
		c-0.1,0.2-0.2,0.5-0.3,0.8c-0.1,0.3-0.1,0.6,0,1C145.7,95.6,145.9,95.9,146.1,96.2z"/>
	<path class="st0" d="M155.5,96.2c0.6,0.4,1.3,0.7,1.9,0.9c0.3,0.1,0.6,0.1,1,0.1c0.4,0,0.9,0,1.3-0.1c4.1-0.7,3.9-4.7,3.9-4.9
		c-0.1-1.4-1.1-2.6-2.9-3.4c-0.1,0-0.1,0-0.1-0.1c-0.4-0.2-0.6-0.5-0.7-0.9c-0.1-0.3,0-0.6,0.1-0.8c0.2-0.2,0.5-0.6,1.3-0.6
		c0.3,0,0.7,0.1,1.1,0.2c0,0,0-0.1,0.1-0.1c0.1-0.2,0.2-0.5,0.3-0.8c0.1-0.3,0.1-0.7,0-1c-0.1-0.4-0.2-0.5-0.2-0.5
		c-0.4-0.2-1.3-0.4-2.5-0.4c-1.1,0-3,0.2-4.1,1.5c-0.3,0.4-1,1.9-0.5,3.2c0.1,0.4,0.4,0.6,0.7,0.9c0.3,0.3,0.7,0.5,1.1,0.7
		c0.4,0.2,0.8,0.4,1.2,0.5l0.3,0.1c0.2,0.1,0.5,0.2,0.7,0.3c0.9,0.4,1.3,1,1.2,1.8c-0.1,0.4-0.4,0.8-0.8,1c-0.3,0.1-0.7,0.2-1.1,0.2
		c-0.1,0-0.1,0-0.2,0c-0.5,0-0.9-0.1-1.4-0.2c-0.4-0.1-0.8-0.2-1.1-0.4c-0.1-0.1-0.2-0.1-0.3-0.2c-0.1,0.1-0.1,0.2-0.2,0.3
		c-0.1,0.2-0.2,0.5-0.3,0.8c-0.1,0.3-0.1,0.6,0,1C155.1,95.6,155.2,95.9,155.5,96.2z"/>
	<path class="st0" d="M168,83.9c-0.3-0.2-0.7-0.2-1.2-0.2c0,0,0,0-0.1,0c-0.4,0-0.8,0.1-1.2,0.2c-0.3,0.1-0.6,0.2-0.8,0.4l0.1,12.5
		c0.2,0.2,0.4,0.3,0.7,0.4c0.4,0.2,0.8,0.2,1.3,0.2c0.4,0,0.9-0.1,1.2-0.2c0.3-0.1,0.5-0.3,0.6-0.6l-0.1-12.1
		C168.5,84.2,168.3,84,168,83.9z"/>
	<path class="st0" d="M171.7,96.1c0.5,0.5,1.1,0.9,1.7,1c0.3,0.1,0.5,0.1,0.8,0.1c0.4,0,0.8-0.1,1.2-0.2c0.7-0.2,1.3-0.7,2-1.3
		c0.6-0.6,1.2-1.5,1.6-2.6c0-0.1-0.1-0.3-0.3-0.5c-0.2-0.2-0.5-0.4-0.8-0.6c-0.3-0.1-0.5-0.2-0.8-0.2c-0.2,0-0.3,0.1-0.4,0.3
		c-0.5,0.8-1.1,1-1.5,1c-0.1,0-0.1,0-0.2,0c-1.3-0.1-1.7-1.4-1.6-2.6c0.1-2.5,1.6-3.2,2.1-3.2c0,0,0,0,0.1,0c0.3,0,0.6,0.1,0.8,0.4
		c0.2,0.2,0.4,0.5,0.5,1c0.1,0,0.1,0,0.2,0c0.1,0,0.2,0,0.4-0.1c0.3-0.1,0.5-0.2,0.8-0.4c0.2-0.2,0.4-0.5,0.5-0.8
		c0.1-0.3,0.1-0.6,0.1-0.8c-0.5-0.9-1-1.6-1.6-2c-0.6-0.4-1.2-0.6-1.8-0.6h0c-0.6,0-1.2,0.2-1.8,0.5c-0.6,0.4-1.2,0.9-1.7,1.5
		c-0.5,0.6-0.9,1.4-1.2,2.2c-0.3,0.8-0.5,1.8-0.5,2.7c0,1.2,0.1,2.3,0.4,3.2C170.8,94.9,171.2,95.6,171.7,96.1z"/>
	<path class="st0" d="M165.3,81.7c0.4,0.2,0.9,0.3,1.6,0.4c0.4,0,0.7-0.2,1-0.4c0.3-0.2,0.5-0.5,0.6-0.8c0.1-0.3,0.2-0.7,0.3-1.1
		c0-0.4,0-0.7-0.1-1.1c-0.1-0.3-0.3-0.6-0.5-0.8c-0.2-0.2-0.5-0.3-0.9-0.3c-0.6,0-1.1,0.2-1.5,0.4c-0.4,0.2-0.8,0.5-1,0.8
		c-0.2,0.3-0.4,0.7-0.4,1c0,0.4,0,0.7,0.2,1C164.7,81.2,164.9,81.5,165.3,81.7z"/>
	<path class="st0" d="M125.4,80.5c-0.1-0.1-0.2-0.1-0.3-0.2c-0.1,0.1-0.3,0.1-0.4,0.2c-2.4,0.9-3.9,0.9-4.9,0.7
		c-0.4,0.3-0.7,0.7-1.1,1.1c-0.6,0.8-1.2,1.8-1.6,2.9c-0.4,1.1-0.6,2.3-0.7,3.5c-0.1,1.6,0.1,3,0.5,4.1c0.4,1.1,0.9,2,1.6,2.7
		c0.6,0.6,1.3,1.1,2.1,1.2c0.3,0.1,0.6,0.1,0.9,0.1c0.5,0,1-0.1,1.5-0.3c0.8-0.3,1.7-0.9,2.5-1.7c0.8-0.8,1.5-1.9,2-3.3
		c0-0.1-0.1-0.2-0.3-0.4c-0.3-0.3-0.6-0.5-0.9-0.7c-0.3-0.2-0.6-0.2-0.9-0.2c-0.1,0-0.2,0-0.3,0.2c-0.6,0.9-1.4,1.4-2.2,1.4
		c-0.1,0-0.2,0-0.3,0c-1.9-0.2-2.4-2.1-2.4-3.7c0.1-1.9,0.7-2.9,1.2-3.5c0.6-0.7,1.3-0.9,1.7-1c0,0,0.1,0,0.1,0
		c0.5,0,0.9,0.2,1.3,0.6c0.3,0.3,0.5,0.7,0.7,1.2c0,0,0.1,0,0.1,0c0.1,0,0.3,0,0.4-0.1c0.3-0.1,0.6-0.3,0.9-0.5
		c0.3-0.3,0.5-0.6,0.6-0.9c0.1-0.3,0.2-0.6,0.1-0.9C126.8,81.8,126.1,81,125.4,80.5z"/>
</g>
</svg>
