<svg version="1.1" xmlns="http://www.w3.org/2000/svg" xmlns:xlink="http://www.w3.org/1999/xlink" x="0px" y="0px"
	 viewBox="0 0 300 101.9" style="enable-background:new 0 0 300 101.9;" xml:space="preserve">
	<path id="XMLID_70_"  d="M29.3,73c-2.5-0.9-10.7-4.2-10.7-11.9c0-9.8,5.4-11,5.4-18.4c0-6.4-5.8-8.7-7.3-9.1
		c0.7,0.3,1.9,1.6,1.9,6.4c0,6.4-6.9,10.8-6.9,19.3c0,12.1,14.3,13.7,17.6,13.9c0.4,0,0.6,0,0.6,0S29.7,73.2,29.3,73L29.3,73z
		 M32.6,63.4l-3.3-27.9l-0.7-6h0.7h6.2L32.6,63.4L32.6,63.4z M40.9,46.4c0,0,13,16.4-4.6,26.6C36.3,73,52,71.1,52,61
		C52,50.8,40.9,46.4,40.9,46.4L40.9,46.4z"/>
	<path id="XMLID_69_"  d="M77.4,67.1c0.1,2.4,0.5,3.1,1.1,3.4c0.5,0.2,1.1,0.2,1.6,0.2c0.3,0,0.5,0.1,0.5,0.3
		c0,0.2-0.4,0.3-0.7,0.3c-1.9,0-3.1-0.1-3.8-0.1c-0.3,0-1.6,0.1-3.2,0.1c-0.5,0-0.6-0.1-0.6-0.3c0-0.2,0.2-0.3,0.5-0.3
		c0.4,0,0.9,0,1.4-0.1c0.7-0.3,0.8-1.2,0.9-3.8l0.3-17.7c0-0.6,0.1-1,0.4-1c0.3,0,0.6,0.4,1.2,0.9c0.3,0.4,4.8,5.2,9.2,9.6
		c2,2,6.1,6.3,6.7,6.9h0.1l-0.3-13.5c-0.1-1.7-0.4-2.4-1-2.7c-0.5-0.1-1.2-0.1-1.6-0.1c-0.5,0-0.5-0.1-0.5-0.3
		c0-0.3,0.4-0.4,0.7-0.4c1.6,0,3.1,0.1,3.7,0.1c0.4,0,1.6-0.1,2.9-0.1c0.5,0,0.8,0.1,0.8,0.4c0,0.2-0.3,0.3-0.6,0.3
		c-0.3,0-0.5,0-0.9,0.1c-0.8,0.2-1,0.8-1.1,2.4l-0.4,19c0,0.6-0.1,0.9-0.3,0.9c-0.4,0-0.7-0.4-1-0.6c-2-1.8-5.8-5.8-9-8.9
		c-3.2-3.2-6.6-7-7.1-7.5h-0.1L77.4,67.1L77.4,67.1z"/>
	<path id="XMLID_68_"  d="M142.7,51.3c-0.6-1.5-1.1-1.8-2.2-2.1c-0.5-0.1-1-0.1-1.2-0.1c-0.3,0-0.4-0.1-0.4-0.3
		c0-0.3,0.4-0.4,0.7-0.4c1.6,0,3.3,0.1,4.4,0.1c0.8,0,2.2-0.1,3.7-0.1c0.5,0,0.7,0.1,0.7,0.4c0,0.2-0.2,0.3-0.5,0.3
		c-0.5,0-1,0-1.2,0.1c-0.2,0.2-0.3,0.5-0.3,0.7c0,0.4,0.3,1.2,0.6,2.2l5.1,13.6h0.1c1.3-3.3,5.2-13,5.9-14.8
		c0.2-0.5,0.3-0.8,0.3-1.2c0-0.3-0.1-0.5-0.4-0.5c-0.4-0.1-0.8-0.1-1.3-0.1c-0.2,0-0.5-0.1-0.5-0.3c0-0.3,0.3-0.4,0.8-0.4
		c1.6,0,2.7,0.1,3.2,0.1c0.5,0,1.8-0.1,2.8-0.1c0.4,0,0.6,0.1,0.6,0.4c0,0.2-0.2,0.3-0.5,0.3c-0.3,0-0.9,0-1.5,0.3
		c-0.4,0.3-0.8,0.8-1.6,2.7c-1.2,2.8-2,4.5-3.6,8.1c-2,4.4-3.3,7.7-4,9.1c-0.8,1.7-1,2.3-1.4,2.3c-0.4,0-0.5-0.5-1.1-1.8L142.7,51.3
		L142.7,51.3z"/>
	<path id="XMLID_65_"  d="M119.8,71.7c-0.1,0-0.1,0-0.2,0c-8.6,0-12.1-6.5-12.1-11.8c0-5.1,3.3-11.7,12.3-11.7
		c0,0,0.1,0,0.2,0c7.4,0,12.2,4.2,12.2,11.2C132.2,66.2,127.3,71.6,119.8,71.7L119.8,71.7L119.8,71.7z M119.8,49.6
		c-0.2,0-0.5-0.1-0.7-0.1c-3.5,0-7.3,1.8-7.3,9.4c0,5.8,2.9,10.5,8.1,11.1c0.4,0.1,0.7,0.1,1.1,0.1c2.1,0,7-1,7-9.7
		C128,54,124.4,50,119.8,49.6L119.8,49.6z"/>
	<path id="XMLID_62_"  d="M178.3,49c0.4-0.8,0.5-1,0.7-1c0.4,0,0.5,0.2,0.8,0.9c0.7,1.6,5.5,13.8,7.5,18.4
		c1.1,2.7,2,3.1,2.6,3.3c0.5,0.1,0.9,0.1,1.3,0.1c0.3,0,0.5,0.1,0.5,0.3c0,0.2-0.3,0.3-1.5,0.3c-1,0-3.2,0-5.7-0.1
		c-0.5,0-0.9,0-0.9-0.2c0-0.2,0.2-0.3,0.5-0.3c0.2-0.1,0.4-0.4,0.3-0.7l-2.4-6.4c-0.1-0.1-0.2-0.2-0.4-0.2h-3.3h-3.4
		c-0.2,0-0.3,0.1-0.3,0.3l-1.6,4.3c-0.3,0.8-0.5,1.5-0.5,1.8c0,0.5,0.3,0.9,1.2,0.9h0.5c0.3,0,0.4,0.1,0.4,0.3
		c0,0.2-0.2,0.3-0.5,0.3c-0.9,0-2.3-0.1-3.2-0.1c-0.4,0-2,0.1-3.6,0.1c-0.4,0-0.6-0.1-0.6-0.3c0-0.2,0.2-0.3,0.5-0.3
		c0.3,0,0.6,0,0.9,0c1.4-0.2,1.9-1.3,2.6-2.7l7.6-18.8C178.3,49.2,178.3,49.2,178.3,49L178.3,49L178.3,49L178.3,49L178.3,49
		L178.3,49L178.3,49L178.3,49L178.3,49L178.3,49L178.3,49L178.3,49L178.3,49L178.3,49L178.3,49L178.3,49L178.3,49L178.3,49L178.3,49
		C178.3,49.1,178.3,49.1,178.3,49L178.3,49L178.3,49L178.3,49L178.3,49L178.3,49L178.3,49L178.3,49L178.3,49L178.3,49L178.3,49
		L178.3,49L178.3,49L178.3,49z M178.3,61.9h2.7c0.1,0,0.2-0.1,0.1-0.2l-2.7-7.4c0-0.2,0-0.3-0.1-0.3c-0.1,0-0.1,0-0.1,0
		c-0.1,0-0.1,0.2-0.2,0.3l-2.7,7.3c-0.1,0.2,0,0.3,0,0.3H178.3L178.3,61.9z"/>
	<path id="XMLID_61_"  d="M275.7,70.9c-0.5-0.3-0.5-0.5-0.5-1.1c0-1.6,0.1-3.5,0.2-3.9c0-0.5,0-0.8,0.3-0.8
		c0.3,0,0.3,0.4,0.3,0.5c0,0.4,0.2,1,0.4,1.6c0.6,2.2,2.4,3,4.3,3c2.7,0,3.9-1.8,3.9-3.5c0-1.4-0.4-2.8-2.8-4.8l-1.5-1.1
		c-3.3-2.6-4.5-4.7-4.5-7.1c0-3.2,2.8-5.6,7-5.6c1.9,0,3.2,0.3,3.9,0.5c0.3,0.1,0.5,0.2,0.5,0.5c0,0.3-0.1,1.3-0.1,3.4
		c0,0.7-0.1,1-0.4,1c-0.3,0-0.4-0.2-0.4-0.5c0-0.3-0.1-1.2-0.7-1.9c-0.4-0.6-1.4-1.5-3.3-1.5c-2.2,0-3.6,1.3-3.6,2.9
		c0,1.5,0.7,2.5,3.2,4.4l0.8,0.6c3.6,2.7,4.9,4.8,4.9,7.7c0,1.7-0.6,3.8-2.8,5.2c-1.5,1-3.1,1.3-4.8,1.3
		C278.4,71.7,277,71.4,275.7,70.9L275.7,70.9z"/>
	<path id="XMLID_60_"  d="M257.5,57.2c0-4.6,0-5.4-0.1-6.3c-0.1-1-0.4-1.6-1-1.6c-0.4-0.1-0.8-0.1-1.1-0.1
		c-0.4,0-0.5-0.1-0.5-0.4c0-0.2,0.3-0.3,0.8-0.3c1.1,0,3,0.1,3.8,0.1c0.7,0,2.6-0.1,3.8-0.1c0.3,0,0.5,0.1,0.5,0.3
		c0,0.3-0.2,0.4-0.5,0.4c-0.3,0-0.5,0-0.9,0.1c-0.8,0.1-1.1,0.6-1.2,1.6c0,0.9,0,1.7,0,6.3v5.2c0,3,0,5.3,0.1,6.7
		c0.1,0.8,0.4,1.4,1.2,1.5c0.5,0.1,1.1,0.1,1.6,0.1c0.3,0,0.4,0.1,0.4,0.3c0,0.2-0.2,0.3-0.5,0.3c-2,0-3.9-0.1-4.8-0.1
		c-0.6,0-2.6,0.1-3.8,0.1c-0.5,0-0.6-0.1-0.6-0.3c0-0.2,0.1-0.3,0.5-0.3c0.4,0,0.7,0,1-0.1c0.6-0.1,0.8-0.6,0.9-1.6
		c0.2-1.3,0.2-3.6,0.2-6.6V57.2L257.5,57.2z"/>
	<path id="XMLID_59_"  d="M233.6,50.2l-4.6,0.1c-1.7,0-2.5,0.2-2.9,0.9c-0.3,0.3-0.4,0.7-0.5,1c-0.1,0.1-0.2,0.3-0.4,0.3
		c-0.3,0-0.3-0.2-0.3-0.5c0-0.5,0.5-3.1,0.6-3.4c0.1-0.4,0.2-0.5,0.3-0.5c0.3,0,0.6,0.3,1.4,0.4c0.8,0.1,2,0.1,3,0.1h12
		c1.8,0,2.6-0.3,2.8-0.3c0.2,0,0.3,0.2,0.3,0.6c0,0.6-0.1,2.6-0.1,3.4c-0.1,0.3-0.1,0.5-0.4,0.5c-0.2,0-0.3-0.1-0.4-0.5v-0.4
		c0-0.6-0.8-1.6-3.5-1.6l-3.8-0.1v12.2c0,2.8,0,5.2,0.2,6.5c0.1,0.9,0.3,1.6,1.2,1.6c0.5,0.1,1.1,0.1,1.6,0.1c0.3,0,0.5,0.1,0.5,0.3
		c0,0.2-0.3,0.3-0.5,0.3c-2.1,0-3.9-0.1-4.8-0.1c-0.6,0-2.7,0.1-3.8,0.1c-0.4,0-0.5-0.1-0.5-0.3c0-0.2,0.1-0.3,0.5-0.3
		c0.5,0,0.8,0,1.1-0.1c0.6-0.1,0.8-0.7,0.9-1.7c0.2-1.2,0.2-3.6,0.2-6.4V50.2L233.6,50.2z"/>
	<path id="XMLID_8_"  d="M208.3,48.6c1.6,0,3.3,0.3,4.7,1.3c0.9,0.5,2,2,2,4c0,2.2-0.9,4.2-3.9,6.7c2.7,3.4,4.8,6,6.5,8
		c1.7,1.7,2.9,1.9,3.4,2c0.4,0.1,0.6,0.1,0.8,0.1c0.3,0,0.4,0.1,0.4,0.3c0,0.2-0.2,0.3-0.5,0.3h-2.8c-1.6,0-2.5-0.2-3.2-0.5
		c-1.4-0.7-2.5-2.1-4.1-4.4c-1.2-1.7-2.7-3.8-3-4.2l-0.1-0.1c-0.2-0.1-0.3-0.1-0.5-0.1l-2.7-0.1c-0.1,0-0.2,0.1-0.2,0.3v0.4
		c0,2.8,0,5.2,0.1,6.4c0.1,1,0.3,1.6,1.2,1.7c0.5,0.1,1.1,0.1,1.5,0.1c0.3,0,0.5,0.1,0.5,0.3c0,0.2-0.3,0.3-0.6,0.3
		c-1.7,0-3.8-0.1-4.4-0.1c-0.5,0-2.5,0.1-3.6,0.1c-0.5,0-0.6-0.1-0.6-0.3c0-0.2,0.1-0.3,0.5-0.3c0.5,0,0.8,0,1.1-0.1
		c0.5-0.1,0.7-0.7,0.8-1.7c0.2-1.2,0.2-3.6,0.2-6.4v-5.2c0-4.6,0-5.4,0-6.3c-0.1-1-0.4-1.6-1.4-1.6c-0.3-0.1-0.7-0.1-1.2-0.1
		c-0.4,0-0.5-0.1-0.5-0.3c0-0.3,0.2-0.4,0.6-0.4c1.6,0,3.5,0.1,4.1,0.1c1,0,3.2-0.1,4.1-0.1C207.7,48.5,207.9,48.5,208.3,48.6
		L208.3,48.6z M208.3,60.4c0.6-0.1,1-0.3,1.4-0.5c0.9-0.7,1.8-2.1,1.8-4.6c0-3.2-1.7-4.7-3.2-5.1c-0.5-0.2-1-0.3-1.5-0.3
		c-0.6,0-1.3,0-1.6,0.2c-0.2,0-0.3,0.2-0.3,0.4v9.1c0,0.4,0.1,0.5,0.3,0.5c0.6,0.3,1.6,0.4,2.3,0.4C207.8,60.4,208,60.4,208.3,60.4
		L208.3,60.4z"/>
</svg>
