<svg version="1.1" id="Layer_1" xmlns="http://www.w3.org/2000/svg" xmlns:xlink="http://www.w3.org/1999/xlink" x="0px" y="0px"
	 viewBox="0 0 300 101.9" style="enable-background:new 0 0 300 101.9;" xml:space="preserve">
<g id="g2993_2_" transform="matrix(1.25,0,0,-1.25,-990.00256,388.67001)">
	<path class="st0" d="M969.4,263.5l-5.6-7.6c-4.2-5.7-8.3-6.7-15.5-7.8
		c-8-1.1-24.4-2.3-36.8-2.3c-12.9,0-28.8,1.3-36.6,2.4c-8.4,1.3-11.7,2.3-15.5,7.9l-4.3,6.4c-1.9,2.8-2.4,5-2.4,6.7
		c0,1.5,0.5,3.3,2.1,5.6l5.6,7.6c4.2,5.7,8.3,6.7,15.5,7.8c8,1.1,24.4,2.3,36.8,2.3c12.9,0,28.8-1.3,36.6-2.5
		c8.4-1.3,11.7-2.3,15.5-7.9l4.3-6.4c1.9-2.8,2.4-5,2.4-6.7C971.6,267.5,971.1,265.7,969.4,263.5 M978.7,286.8
		c-3.5,5.2-6.9,6.2-12.9,7.4c-5.6,1-11.8,1.8-17.6,2.4c-8.4,0.9-19.6,1.7-35,1.7c-15.4,0-27-0.8-35.6-1.7
		c-5.7-0.6-11.6-1.3-17.1-2.3c-6-1.1-10-2.6-13.5-7.4l-9-12.2c-1-1.3-1.7-3-1.7-5.3c0-2.4,0.4-4,1.3-5.3l8.2-12.2
		c3.5-5.2,6.9-6.2,12.9-7.4c5.6-1,11.8-1.7,17.6-2.4c8.4-0.9,19.6-1.7,35-1.7c15.4,0,27,0.8,35.6,1.7c5.7,0.6,11.6,1.3,17.1,2.3
		c6,1.1,10,2.6,13.5,7.4l9,12.2c1,1.3,1.7,3,1.7,5.3c0,2.4-0.4,4-1.3,5.3L978.7,286.8L978.7,286.8z"/>
	<path class="st0" d="M871,254.5h6.3v12.3l8.2-12.3h7.3l-9.2,13.8l10.3,13.9h-7
		l-9.5-13.1v13.1H871V254.5L871,254.5z"/>
	<path class="st0" d="M913,275.5c-1.6,0-4-0.2-5.1-0.5v-5.6
		c1.7,0.4,3.4,0.6,4.5,0.6c2.9,0,4.4-0.9,4.4-3v-0.2c-1.4,0.4-2.5,0.5-3.2,0.5c-5.2,0-7.9-3-7.9-6.7c0-4,3.1-6.5,6.7-6.5
		c1.6,0,3.1,0.4,4.6,1.4v-1.1h5.7v11.9C922.7,271.2,921.6,275.5,913,275.5L913,275.5z M914.4,263.2c0.6,0,1.5,0,2.4-0.4v-3.7
		c-0.9-0.4-1.7-0.7-2.8-0.7c-1.5,0-2.8,0.7-2.8,2.3C911.2,262.3,912.3,263.2,914.4,263.2z"/>
	<path class="st0" d="M938.3,284.1c-6.5,0.8-10.8-1.4-10.8-8.3V275H925v-5.1
		h2.5v-15.3h5.9v15.3h4v5.1h-4v0.9c0,3.3,2.5,3.4,4.9,2.9V284.1z"/>
	<path class="st0" d="M939.5,275v-5.1h2.4v-6.9c0-4.6,1.9-8.8,8.8-8.8
		c0.3,0,0.7,0,1.1,0v5.3c-2.3,0-4.1,0.5-4.1,4.3v6.1h4.3v5.1h-4.3v5.5h-5.8V275H939.5L939.5,275z"/>
	<path class="st0" d="M894.2,254.5h6v9.5c0.1,3.2,3.1,4.8,5.3,5.1v5.7
		c-2.5-0.3-4.4-1.7-5.3-3.9v0.1l0,0v3.9h-5.9V254.5L894.2,254.5z"/>
</g>
</svg>
