<?xml version="1.0" encoding="utf-8"?>
<!-- Generator: Adobe Illustrator 21.1.0, SVG Export Plug-In . SVG Version: 6.00 Build 0)  -->
<svg version="1.1" id="Layer_1" xmlns="http://www.w3.org/2000/svg" xmlns:xlink="http://www.w3.org/1999/xlink" x="0px" y="0px"
	 viewBox="0 0 100 100" style="enable-background:new 0 0 100 100;" xml:space="preserve">
<g>
	<g>
		<g>
			<path d="M80.6,72.3L70.1,61.7c3.6-4.8,5.7-10.7,5.7-17.2c0-15.8-12.9-28.7-28.7-28.7c-15.8,0-28.7,12.9-28.7,28.7
				c0,15.8,12.9,28.7,28.7,28.7c6.6,0,12.7-2.2,17.5-6l10.5,10.5c1.4,1.4,3.7,1.4,5.1,0l0.4-0.4C82,75.9,82,73.6,80.6,72.3z
				 M20.5,44.5C20.5,29.9,32.4,18,47.1,18c14.7,0,26.6,11.9,26.6,26.6c0,14.7-11.9,26.6-26.6,26.6C32.4,71.1,20.5,59.2,20.5,44.5z"
				/>
			<path d="M42.2,23.3c-1.8,0-3.3,1.5-3.3,3.3v40.1c2.1,0.8,4.3,1.2,6.6,1.3V26.7C45.6,24.8,44.1,23.3,42.2,23.3z"/>
			<path d="M32.6,32.6c-1.8,0-3.3,1.5-3.3,3.3v24.2c1.9,2.1,4.1,4,6.6,5.3V35.9C35.9,34.1,34.4,32.6,32.6,32.6z"/>
			<path d="M51.9,37.2c-1.8,0-3.3,1.5-3.3,3.3v27.6c2.3-0.2,4.5-0.7,6.6-1.5V40.5C55.2,38.7,53.7,37.2,51.9,37.2z"/>
			<path d="M61.6,43.7c-1.8,0-3.3,1.5-3.3,3.3v18.2c2.5-1.4,4.8-3.4,6.6-5.6V47C64.9,45.2,63.4,43.7,61.6,43.7z"/>
		</g>
	</g>
</g>
</svg>
