<?xml version="1.0" encoding="utf-8"?>
<!-- Generator: Adobe Illustrator 21.1.0, SVG Export Plug-In . SVG Version: 6.00 Build 0)  -->
<svg version="1.1" id="Layer_1" xmlns="http://www.w3.org/2000/svg" xmlns:xlink="http://www.w3.org/1999/xlink" x="0px" y="0px"
	 viewBox="0 0 100 100" style="enable-background:new 0 0 100 100;" xml:space="preserve">
<g>
	<g>
		<g>
			<path d="M49.7,55.4c-0.1,0.7,0.5,1.4,1.2,1.4h0c0.6,0,1.1-0.5,1.2-1.1l0.6-5.3h3.9c0.6,0,1.2-0.5,1.2-1.1l0-0.1
				c0.1-0.7-0.5-1.3-1.2-1.3h-3.6l0.8-6.7h4c0.6,0,1.2-0.5,1.2-1.1l0-0.1c0.1-0.7-0.5-1.3-1.2-1.3h-3.7l0.6-5.2
				c0.1-0.7-0.5-1.4-1.2-1.4l0,0c-0.6,0-1.1,0.5-1.2,1.1l-0.7,5.5h-6.7l0.6-5.2c0.1-0.7-0.5-1.4-1.2-1.4h0c-0.6,0-1.1,0.5-1.2,1.1
				l-0.7,5.5h-3.9c-0.6,0-1.2,0.5-1.2,1.1l0,0.1c-0.1,0.7,0.5,1.3,1.2,1.3h3.6l-0.8,6.7h-3.9c-0.6,0-1.2,0.5-1.2,1.1l0,0.1
				c-0.1,0.7,0.5,1.3,1.2,1.3h3.6l-0.6,5c-0.1,0.7,0.5,1.4,1.2,1.4c0.6,0,1.1-0.5,1.2-1.1l0.6-5.3h6.7L49.7,55.4z M43.9,47.9
				l0.8-6.7h6.7l-0.8,6.7H43.9z"/>
			<path d="M75.1,42.4C75.1,27.3,62.8,15,47.7,15c-15.1,0-27.4,12.3-27.4,27.4c0,15.1,12.3,27.4,27.4,27.4
				C62.8,69.8,75.1,57.5,75.1,42.4z M22.5,42.4c0-13.9,11.3-25.2,25.2-25.2c13.9,0,25.2,11.3,25.2,25.2c0,13.9-11.3,25.2-25.2,25.2
				C33.8,67.5,22.5,56.2,22.5,42.4z"/>
			<path d="M79,35.9c-1.7-8.4-6.6-15.6-13.8-20.3c-0.5-0.3-1.2-0.2-1.6,0.3c-0.3,0.5-0.2,1.2,0.3,1.6c6.6,4.4,11.2,11.1,12.8,18.9
				c1.6,7.8,0.1,15.7-4.3,22.4c-9,13.7-27.5,17.5-41.2,8.5c-0.5-0.3-1.2-0.2-1.6,0.3c-0.3,0.5-0.2,1.2,0.3,1.6
				c5.4,3.6,11.5,5.3,17.5,5.3c0.5,0,1,0,1.5,0v3.4v0h-9.4c-1.5,0-2.9,1-3.5,2.4c-0.9,2.4,0.9,4.9,3.5,4.9h21.1
				c2.5,0,4.3-2.5,3.5-4.9c-0.5-1.5-1.9-2.4-3.5-2.4h-9.4v0v-3.6c9.1-1.1,17.6-6,23-14.2C79.1,52.8,80.8,44.3,79,35.9z"/>
		</g>
	</g>
</g>
</svg>
