<svg version="1.1" xmlns="http://www.w3.org/2000/svg" xmlns:xlink="http://www.w3.org/1999/xlink" x="0px" y="0px"
	 viewBox="0 0 100 100" style="enable-background:new 0 0 100 100;" xml:space="preserve">
				<circle cx="37.6" cy="25.8" r="8.9"/>
				<path d="M77.6,46H39.1c-1.6,0-3,1.3-3,3v31.6c0,1.2,0.7,2.3,1.8,2.8c0.4,0.2,0.8,0.2,1.2,0.2c0.8,0,1.5-0.3,2.1-0.9l5.5-5.5
					h30.9c1.6,0,3-1.3,3-3V49C80.6,47.3,79.3,46,77.6,46z M79,74.2c0,0.8-0.6,1.4-1.4,1.4H46.4c-0.2,0-0.4,0.1-0.6,0.2l-5.7,5.7
					c-0.4,0.4-1,0.5-1.5,0.3c-0.5-0.2-0.9-0.7-0.9-1.3V49c0-0.8,0.6-1.4,1.4-1.4h38.5c0.8,0,1.4,0.6,1.4,1.4V74.2z"/>
				<path d="M65.1,57.3h-2.6l0.5-3.7c0.1-0.5-0.3-1-0.9-1l0,0c-0.4,0-0.8,0.3-0.9,0.8l-0.5,3.9h-4.8l0.5-3.7c0.1-0.5-0.3-1-0.9-1h0
					c-0.4,0-0.8,0.3-0.9,0.8l-0.5,3.9h-2.8c-0.5,0-0.8,0.3-0.9,0.8l0,0c0,0.5,0.4,0.9,0.9,0.9h2.6l-0.6,4.8h-2.8
					c-0.5,0-0.8,0.3-0.9,0.8l0,0c0,0.5,0.4,0.9,0.9,0.9h2.6l-0.4,3.6c-0.1,0.5,0.3,1,0.9,1c0.4,0,0.8-0.3,0.9-0.8l0.5-3.8h4.8
					l-0.4,3.6c-0.1,0.5,0.3,1,0.9,1h0c0.4,0,0.8-0.3,0.9-0.8l0.5-3.8h2.8c0.5,0,0.8-0.3,0.9-0.8l0,0c0-0.5-0.4-0.9-0.9-0.9h-2.6
					l0.6-4.8h2.8c0.5,0,0.8-0.3,0.9-0.8l0,0C66,57.7,65.6,57.3,65.1,57.3z M59.9,63.8h-4.8l0.6-4.8h4.8L59.9,63.8z"/>
				<path d="M51.8,43.9c-3.3-4.1-8.6-6.9-14.2-6.9c-10,0-18.1,8.1-18.1,18.1h14.1l0-8.2c0.1-1.7,1.4-3,3.1-3.1L51.8,43.9z"/>
</svg>
