<?xml version="1.0" encoding="utf-8"?>
<!-- Generator: Adobe Illustrator 21.1.0, SVG Export Plug-In . SVG Version: 6.00 Build 0)  -->
<svg version="1.1" id="Layer_1" xmlns="http://www.w3.org/2000/svg" xmlns:xlink="http://www.w3.org/1999/xlink" x="0px" y="0px"
	 viewBox="0 0 100 100" style="enable-background:new 0 0 100 100;" xml:space="preserve">
<path d="M70.2,25l0,2.2l9.3-0.2l-26,25.2l-8-9.5c-0.2-0.2-0.4-0.3-0.7-0.3c-0.3,0-0.5,0.1-0.7,0.3l-9.4,9.5L19.1,41
	c1.6-13.1,12.8-23.3,26.4-23.3c11.2,0,20.8,6.9,24.7,16.7l1.6-1.6c-4.4-10.2-14.6-17.3-26.3-17.3c-15.8,0-28.7,12.9-28.7,28.7
	c0,15.8,12.9,28.7,28.7,28.7c6.6,0,12.7-2.2,17.5-6l10.5,10.5c1.4,1.4,3.7,1.4,5.1,0L79,77c1.4-1.4,1.4-3.7,0-5.1L68.5,61.4
	c3.6-4.8,5.7-10.7,5.7-17.2c0-2.4-0.3-4.7-0.8-6.9l-1.8,1.7c0.3,1.7,0.5,3.4,0.5,5.1c0,14.7-11.9,26.6-26.6,26.6
	c-14.7,0-26.6-11.9-26.6-26.6c0-0.2,0-0.4,0-0.6l14.9,10.4c0.2,0.2,0.4,0.4,0.7,0.4c0.3,0,0.5-0.1,0.7-0.3l9.5-9.5l8,9.5
	c0.2,0.2,0.4,0.3,0.7,0.3c0,0,0,0,0,0c0.2,0,0.5-0.1,0.7-0.3l26.7-26l-0.5,9.3l2.2,0.1l0.7-13L70.2,25z"/>
</svg>
