<?xml version="1.0" encoding="utf-8"?>
<!-- Generator: Adobe Illustrator 21.1.0, SVG Export Plug-In . SVG Version: 6.00 Build 0)  -->
<svg version="1.1" id="Layer_1" xmlns="http://www.w3.org/2000/svg" xmlns:xlink="http://www.w3.org/1999/xlink" x="0px" y="0px"
	 viewBox="0 0 1274 187.6" style="enable-background:new 0 0 1274 187.6;" xml:space="preserve">
	<path class="st0" d="M897.5,123.6h-12.6l-2.2,4c-3.7,0.4-7.7,0.6-11.8,0.6c-25.7,0-29.5-5.8-29.5-34.5c0-28.9,3.9-35.5,29.5-35.5
		c4.5,0,8.8,0.3,12.7,0.7l2.5,3.9l11.4,0.1l0,0l0.2-15.1c0,0-14.3-4.1-31.7-4.1c-32.2,0-44.2,8.7-44.2,50.1
		c0,41.4,12,51.6,44.2,51.6c21.4,0,31.6-6.8,31.6-6.8L897.5,123.6z"/>
	<path class="st0" d="M985.4,123.6h-12.6l-2.2,4c-3.7,0.4-7.7,0.6-11.9,0.6c-25.7,0-29.5-5.8-29.5-34.5c0-28.9,3.9-35.5,29.5-35.5
		c4.5,0,8.9,0.3,12.8,0.7l2.5,3.9l11.4,0.1l0,0l0.2-15.1c0,0-14.3-4.1-31.7-4.1c-32.2,0-44.2,8.7-44.2,50.1
		c0,41.4,12,51.6,44.2,51.6c21.4,0,31.7-6.8,31.7-6.8L985.4,123.6z"/>
	<path class="st0" d="M800.4,127.5V43.7h-18.3l0,83.9c-3.4,1.2-14.7,1.9-29.1,0.8c-8.8-0.6-12-5.6-12-15.3V60.8
		c0-16.7-10.5-17.1-12.7-17.1c-2.2,0-10.2,0-10.2,0v14.9l4.9,1.3c0,0,0,50.8,0,56.4c0,17.7,8.9,26.9,24.5,26.9c14.8,0,16.5,0,27.2,0
		l7.5-13.1c0,0,2.4,13.1,13.9,13.1h8.4v-12L800.4,127.5z"/>
	<path class="st0" d="M85.2,143.6c-11.7,0-13.2-11.1-13.2-11.1l-20.2,11.2c0,0-1.2,0.1-10.5,0.1C6.6,143.8,2,123.4,2,94.1
		C2,65.9,7.1,43,39,43c8.8,0,12.4,1.3,18.6,2.1L71.3,55V3.2h18.3v123.6l4.1,2.8v14H85.2z M71.3,60.5c-2.3-0.2-15.1-1.4-25.7-1.4
		c-20.8,0-24.9,9.4-24.9,36c0,29.2,4.6,33.7,25.4,33.7c12.2,0,25.3-2.4,25.3-2.4V60.5z M89.6,3.2"/>
	<path class="st0" d="M315.8,143.4V58.9l-4.2-5.4v-9.8h22.4v99.7H315.8z"/>
	<path class="st0" d="M553,127.8c0,0,0-50.1,0-55.8c0-23.3-2-28.2-25.5-28.2c-11,0-18,0.1-21,0.1c-2.3,0-14.9,9.4-14.9,9.4
		s-3-9.4-14-9.4H469v13.9l4.1,3.3l0,83h18.6c0,0,0.1-76.8,0.1-79.7c0,0,8.7-5.4,23.8-5.4c4.2,0,5.2,0,5.2,0
		c10.3,0,14.1,0.8,14.1,13.6v55.2c0,11.9,4.2,16.2,13.7,16.2c2.2,0,8.3,0,8.3,0v-12.7L553,127.8z"/>
	<path class="yellow" d="M580.1,69.7v-24h24.2v24H580.1z M580.1,141.7v-24h24.2v24H580.1z"/>
	<path class="st0" d="M157.4,127.8c18.6,0,28.5-3.4,28.5-3.4l4.7,13.7c0,0-10.4,5.9-31.7,5.9c-31.3,0-50.2-5.9-50.2-50.2
		c0-13.2,1.8-25.6,4.9-33c5.5-13.3,20.9-17.3,42.8-17.3c17,0,29.3,1.9,35.6,9.9c5.1,6.7,7.2,12.9,7.2,29.3c0,3.8-0.2,7.3-0.4,12.6
		l-58.6,7.1L127.7,94c0,0,0.1,22.4,5.4,27.8C138.3,127.2,144.7,127.8,157.4,127.8z M158.5,57.9c-29.7,0-29.5,6-30.6,33.8l54.3-9.4
		C182.1,62.8,180.6,57.9,158.5,57.9z"/>
	<path class="st0" d="M1047.2,127.8c18.6,0,28.5-3.4,28.5-3.4l4.7,13.7c0,0-10.5,5.9-31.7,5.9c-31.3,0-50.2-5.9-50.2-50.2
		c0-13.2,1.9-25.6,4.9-33c5.5-13.3,20.9-17.3,42.8-17.3c17,0,29.3,1.9,35.6,9.9c5.1,6.7,7.1,12.9,7.1,29.3c0,3.8-0.2,7.3-0.4,12.6
		l-58.7,7.1l-12.4-8.5c0,0,0.1,22.4,5.4,27.8C1028.2,127.2,1034.6,127.8,1047.2,127.8z M1048.3,57.9c-29.7,0-29.5,6-30.6,33.8
		l54.3-9.4C1072,62.8,1070.4,57.9,1048.3,57.9z"/>
		<path class="st0" d="M255,145c-22.9,0-37.1-6.2-37.1-6.2l3.7-13.4c0,0,15.9,4.3,32.4,4.3c15.9,0,22.3-5.4,22.3-14.8
			c0-12.7-7.2-10.4-24-11.7c-19.8-1.3-36.4-1.1-36.4-28.4c0-24.8,13.5-31.2,39.7-31.2c18.2,0,31.8,4.5,31.8,4.5L284,61.6
			c0,0-12.2-2.2-28-2.2c-16.8,0-23,2.9-23,13.9c0,12.3,3.8,12.9,24.5,12.9c22,0,36.3,1.1,36.3,28.2C293.8,139.2,278.1,145,255,145z"
			/>
		<path class="st0" d="M1144.1,145.2c-22.9,0-37.1-6.2-37.1-6.2l3.7-13.4c0,0,15.9,4.3,32.4,4.3c15.9,0,22.3-5.4,22.3-14.8
			c0-12.8-7.2-10.4-24-11.7c-19.8-1.3-36.4-1.1-36.4-28.4c0-24.8,13.5-31.3,39.7-31.3c18.2,0,31.8,4.5,31.8,4.5l-3.5,13.6
			c0,0-12.2-2.2-28-2.2c-16.8,0-23,2.9-23,13.9c0,12.3,3.8,12.9,24.5,12.9c22,0,36.3,1.1,36.3,28.2
			C1182.9,139.4,1167.1,145.2,1144.1,145.2z"/>
		<path class="st0" d="M1233.2,145.2c-22.9,0-37.1-6.2-37.1-6.2l3.7-13.4c0,0,15.9,4.3,32.4,4.3c15.9,0,22.3-5.4,22.3-14.8
			c0-12.8-7.2-10.4-24-11.7c-19.8-1.3-36.4-1.1-36.4-28.4c0-24.8,13.5-31.3,39.6-31.3c18.2,0,31.8,4.5,31.8,4.5l-3.5,13.6
			c0,0-12.2-2.2-28-2.2c-16.8,0-23,2.9-23,13.9c0,12.3,3.8,12.9,24.5,12.9c22,0,36.3,1.1,36.3,28.2
			C1272,139.4,1256.3,145.2,1233.2,145.2z"/>
		<path class="st0" d="M665.3,145.2c-22.9,0-37.1-6.2-37.1-6.2l3.7-13.4c0,0,15.9,4.3,32.4,4.3c15.9,0,22.3-5.4,22.3-14.8
			c0-12.8-7.2-10.4-24-11.7c-19.8-1.3-36.4-1.1-36.4-28.4c0-24.8,13.5-31.3,39.7-31.3c18.2,0,31.8,4.5,31.8,4.5l-3.5,13.6
			c0,0-12.2-2.2-28-2.2c-16.8,0-23,2.9-23,13.9c0,12.3,3.8,12.9,24.5,12.9c22,0,36.3,1.1,36.3,28.2
			C704.2,139.4,688.4,145.2,665.3,145.2z"/>
		<path class="st0" d="M453,143c0-11.1-6.3-15.2-25.6-14.4c-6.7,0.3-17.9,0.4-32.5,0.4c-12.3,0-18.9-4.1-18.9-16.6c0-3.5,0-7,0-7
			l11.5,9.8c15.2,0.5,26.5,0.3,33.3,0c17-0.9,20-10.4,21.6-19.4c1-5.4,1.3-20.9,0.2-26.9l-10.8-9.1l17.6-2l0.1-14
			c-36.1,0-32.9,0-47.1,0c-30.8,0-41.8,7.6-43.8,29.7c-0.8,9.7-1.1,31.5-0.2,39.7c2.5,22,8.8,30.8,39.1,30.8c6.9,0,12,0,27.9,0
			c5.3,0,6.7,0.9,7.6,2.7c0.6,1.1,0.5,4.3-0.2,5.8c-1.1,2-1.1,2-16.7,11.9c-2.1,1.3-22.9,14.1-22.9,14.1l22.8,6.2
			c0,0,10.4-6.9,18.4-13c15.1-11.7,17.8-14.3,18.4-22.2C453,148.3,453,145.3,453,143z M377.1,72.9c1-6.2,3.6-10.8,12.6-12.6
			c9.3-1.9,22.6-1.4,27.9,0.2c6,1.7,7.8,4.5,8.7,11.9c0.8,6.1,0.8,11.4,0,15.7c-2.1,11.8-0.9,14-50.2,11.8
			C376.1,85.3,376.4,77.8,377.1,72.9z"/>
</svg>
