<?xml version="1.0" encoding="utf-8"?>
<!-- Generator: Adobe Illustrator 22.0.1, SVG Export Plug-In . SVG Version: 6.00 Build 0)  -->
<svg version="1.1" id="Layer_1" xmlns="http://www.w3.org/2000/svg" xmlns:xlink="http://www.w3.org/1999/xlink" x="0px" y="0px"
	 viewBox="0 0 100 100" style="enable-background:new 0 0 100 100;" xml:space="preserve">
<style type="text/css">
	.st0{fill:#FDED22;}
</style>
<g>
	<g>
		<polygon class="st0" points="6.8,25 6.8,74.9 50,99.8 93.2,74.9 93.2,25 50,0 		"/>
	</g>
	<g>
		<g>
			<path d="M57.9,73.1c-0.7,0-1.4-0.5-1.6-1.2c-0.3-0.9,0.2-1.8,1.1-2c11.6-3.4,19.7-14.3,19.7-26.4c0-15.2-12.4-27.5-27.5-27.5
				c-15.2,0-27.5,12.4-27.5,27.5c0,12.1,8.1,23,19.7,26.4c0.9,0.3,1.4,1.2,1.1,2c-0.3,0.9-1.2,1.4-2,1.1c-13-3.8-22.1-16-22.1-29.6
				c0-17,13.8-30.8,30.8-30.8c17,0,30.8,13.8,30.8,30.8c0,13.6-9.1,25.7-22.1,29.6C58.2,73.1,58.1,73.1,57.9,73.1z"/>
		</g>
		<g>
			<path d="M46.7,63.1c0-2.2,1.5-3.8,3.6-3.8c2.2,0,3.6,1.6,3.6,3.8c0,2.2-1.4,3.8-3.6,3.8C48.2,66.9,46.7,65.3,46.7,63.1z
				 M48.3,54.3l-0.9-29.6h5.9l-0.9,29.6H48.3z"/>
		</g>
		<path d="M70.8,84.4c0-0.2,0-0.3,0-0.5L70,75.3c-0.1-0.9-0.9-1.6-1.8-1.5c-0.9,0.1-1.6,0.9-1.5,1.8l0.4,5.5L50.5,70
			c-0.6-0.4-1.3-0.4-1.8,0L38.6,77l-11.9-6.4c-0.8-0.4-1.8-0.1-2.2,0.7C24,72,24.3,73,25.1,73.4l12.8,6.9c0.5,0.3,1.2,0.3,1.7-0.1
			l10.1-6.9l15.1,9.9l-6.1,0.8c-0.9,0.1-1.5,1-1.4,1.9c0.1,0.8,0.8,1.4,1.6,1.4c0.1,0,0.2,0,0.2,0l11.8-1.6L70.8,84.4z"/>
	</g>
</g>
</svg>
