<svg version="1.1" id="Layer_1" xmlns="http://www.w3.org/2000/svg" xmlns:xlink="http://www.w3.org/1999/xlink" x="0px" y="0px"
	 viewBox="0 0 300 300" style="enable-background:new 0 0 300 300;" xml:space="preserve">
		<path id="XMLID_63_" class="st0" d="M270.1,117.3c0-33.1-26.8-59.9-59.9-59.9h-80.3c-33.1,0-59.9,26.8-59.9,59.9v80.3
			c0,33.1,26.8,59.9,59.9,59.9h80.3c33.1,0,59.9-26.8,59.9-59.9V117.3z M247.9,195.6c0,21.9-17.8,39.7-39.7,39.7h-80
			c-21.9,0-39.7-17.8-39.7-39.7v-80c0-21.9,17.8-39.7,39.7-39.7h80c21.9,0,39.7,17.8,39.7,39.7V195.6z"/>
		<path id="XMLID_60_" class="st0" d="M169.1,104.8c-28.7,0-52,23.3-52,52s23.3,52,52,52c28.7,0,52-23.3,52-52
			C221.1,128.1,197.8,104.8,169.1,104.8z M169.1,188.6c-17.6,0-31.8-14.2-31.8-31.8s14.2-31.8,31.8-31.8s31.8,14.2,31.8,31.8
			S186.6,188.6,169.1,188.6z"/>
		<circle id="XMLID_59_" class="st0" cx="221.2" cy="105.2" r="12.5"/>
</svg>
