<?xml version="1.0" encoding="utf-8"?>
<!-- Generator: Adobe Illustrator 21.1.0, SVG Export Plug-In . SVG Version: 6.00 Build 0)  -->
<svg version="1.1" id="Layer_1" xmlns="http://www.w3.org/2000/svg" xmlns:xlink="http://www.w3.org/1999/xlink" x="0px" y="0px"
	 viewBox="0 0 300 300" style="enable-background:new 0 0 300 300;" xml:space="preserve">
<style type="text/css">
	.st0{fill-rule:evenodd;clip-rule:evenodd;fill:#808080;}
</style>
<g>
	<path class="st0" d="M233.1,95.2c1.7-9.7,1.7-19.7-4.3-27.2c-8.4-10.6-26.2-11-38.4-9.1c-9.9,1.5-43.5,16.3-54.9,51.8
		c20.2-1.5,30.8,1.5,28.9,23.7c-0.8,9.3-5.5,19.5-10.8,29.3c-6.1,11.3-17.5,33.4-32.4,17.5c-13.4-14.4-12.4-41.9-15.5-60.2
		c-1.7-10.3-3.5-23.1-6.9-33.6c-2.9-9.1-9.6-20-17.7-22.4c-8.7-2.6-19.5,1.4-25.9,5.2C35.1,82,19.7,98.9,2.2,112.8v1.3
		c3.5,3.3,4.4,8.7,9.5,9.5c12,1.8,23.5-11.2,31.5,2.3c4.9,8.3,6.4,17.3,9.5,26.2c4.2,11.8,7.4,24.7,10.8,38.4
		c5.8,23.1,12.8,57.6,32.8,66c10.2,4.3,25.5-1.5,33.2-6.1c21-12.4,37.3-30.4,51.3-48.7C212.8,158.4,230.4,109.3,233.1,95.2z"/>
</g>
</svg>
