<svg version="1.1" xmlns="http://www.w3.org/2000/svg" xmlns:xlink="http://www.w3.org/1999/xlink" x="0px" y="0px"
	 viewBox="0 0 244.5 100" style="enable-background:new 0 0 244.5 100;" xml:space="preserve">
<style type="text/css">
	.st0{fill:none;stroke:#FDED22;stroke-miterlimit:10;}
	.st1{fill:#FDED22;}
</style>
<g>
		<polygon class="st0" points="71.9,20.9 71.9,79.1 122.3,108.1 172.6,79.1 172.6,20.9 122.3,-8.1 		"/>
		<polygon class="st0" points="58.2,13 58.2,87 122.3,123.9 186.3,87 186.3,13 122.3,-23.9 		"/>
		<polygon class="st0" points="44.5,5.1 44.5,94.9 122.3,139.7 200,94.9 200,5.1 122.3,-39.7 		"/>
		<polygon class="st0" points="30.8,-2.8 30.8,102.8 122.3,155.5 213.7,102.8 213.7,-2.8 122.3,-55.5 		"/>
		<polygon class="st0" points="17.2,-10.7 17.2,110.7 122.3,171.4 227.3,110.7 227.3,-10.7 122.3,-71.4 		"/>
		<polygon class="st0" points="3.5,-18.6 3.5,118.6 122.3,187.2 241,118.6 241,-18.6 122.3,-87.2 		"/>
		<polygon class="st1" points="84.7,28.3 84.7,71.7 122.3,93.4 159.8,71.7 159.8,28.3 122.3,6.6 		"/>
</g>
</svg>
