<?xml version="1.0" encoding="utf-8"?>
<!-- Generator: Adobe Illustrator 21.1.0, SVG Export Plug-In . SVG Version: 6.00 Build 0)  -->
<svg version="1.1" id="Layer_1" xmlns="http://www.w3.org/2000/svg" xmlns:xlink="http://www.w3.org/1999/xlink" x="0px" y="0px"
	 viewBox="0 0 300 300" style="enable-background:new 0 0 300 300;" xml:space="preserve">
<style type="text/css">
	.st0{fill:#FFFFFF;}
</style>
<g id="XMLID_35_">
	<path id="XMLID_36_" class="st0" d="M193,154.2h-32.8v111.5h-46.1V154.2H91.1v-42.3h23.1V86.8c0-18.5,9.9-47.5,48.6-47.5l36,0.1
		v37.9H172c-4.1,0-11.7,3-11.7,11.8v22.8h36.9L193,154.2z"/>
</g>
<path class="st0" d="M239.4,42.7H55.6c-8.8,0-15.9,7-15.9,15.5v184.6c0,8.6,7.1,15.6,15.9,15.6h183.8c8.8,0,16-7,16-15.6V58.3
	C255.4,49.7,248.2,42.7,239.4,42.7z M103.6,226.5h-32v-103h32V226.5z M87.6,109.5c-10.3,0-18.6-8.3-18.6-18.6
	c0-10.2,8.3-18.5,18.6-18.5c10.2,0,18.5,8.3,18.5,18.5C106.2,101.2,97.9,109.5,87.6,109.5z M223.5,226.5h-32v-50.1
	c0-11.9-0.2-27.3-16.6-27.3c-16.6,0-19.2,13-19.2,26.4v50.9h-32v-103h30.7v14.1h0.4c4.3-8.1,14.7-16.6,30.3-16.6
	c32.4,0,38.4,21.3,38.4,49V226.5z"/>
</svg>
