<svg version="1.1" id="Layer_1" xmlns="http://www.w3.org/2000/svg" xmlns:xlink="http://www.w3.org/1999/xlink" x="0px" y="0px"
	 viewBox="0 0 300 300" style="enable-background:new 0 0 300 300;" xml:space="preserve">
<path d="M294.9,60.8c-10.2,4.5-21.3,7.6-32.8,9c11.8-7.1,20.9-18.3,25.1-31.6c-11,6.6-23.3,11.3-36.3,13.9
	c-10.4-11.1-25.3-18-41.7-18c-31.6,0-57.2,25.6-57.2,57.2c0,4.5,0.5,8.8,1.5,13C106,101.8,63.9,79,35.7,44.5
	C30.8,52.9,28,62.7,28,73.2c0,19.8,10.1,37.3,25.4,47.6c-9.4-0.3-18.2-2.9-25.9-7.1c0,0.2,0,0.5,0,0.7c0,27.7,19.7,50.8,45.8,56
	c-4.8,1.3-9.8,2-15.1,2c-3.7,0-7.3-0.4-10.8-1C54.8,194.1,76,210.6,101,211c-19.6,15.3-44.2,24.5-71,24.5c-4.6,0-9.2-0.3-13.6-0.8
	c25.3,16.2,55.3,25.7,87.6,25.7c105.1,0,162.6-87.1,162.6-162.6c0-2.5-0.1-4.9-0.2-7.4C277.6,82.3,287.3,72.3,294.9,60.8z"/>
</svg>
