<svg version="1.1" xmlns="http://www.w3.org/2000/svg" xmlns:xlink="http://www.w3.org/1999/xlink" x="0px" y="0px"
	 viewBox="0 0 300 300" style="enable-background:new 0 0 300 300;" xml:space="preserve">
<path d="M239.4,42.7H55.6c-8.8,0-15.9,7-15.9,15.5v184.6c0,8.6,7.1,15.6,15.9,15.6h183.8c8.8,0,16-7,16-15.6V58.3
	C255.4,49.7,248.2,42.7,239.4,42.7z M103.6,226.5h-32v-103h32V226.5z M87.6,109.5c-10.3,0-18.6-8.3-18.6-18.6
	c0-10.2,8.3-18.5,18.6-18.5c10.2,0,18.5,8.3,18.5,18.5C106.2,101.2,97.9,109.5,87.6,109.5z M223.5,226.5h-32v-50.1
	c0-11.9-0.2-27.3-16.6-27.3c-16.6,0-19.2,13-19.2,26.4v50.9h-32v-103h30.7v14.1h0.4c4.3-8.1,14.7-16.6,30.3-16.6
	c32.4,0,38.4,21.3,38.4,49V226.5z"/>
</svg>
