<?xml version="1.0" encoding="utf-8"?>
<!-- Generator: Adobe Illustrator 21.1.0, SVG Export Plug-In . SVG Version: 6.00 Build 0)  -->
<svg version="1.1" id="Layer_1" xmlns="http://www.w3.org/2000/svg" xmlns:xlink="http://www.w3.org/1999/xlink" x="0px" y="0px"
	 viewBox="0 0 100 100" style="enable-background:new 0 0 100 100;" xml:space="preserve">
<g>
	<g>
		<path d="M55.2,26.1c0.1,0.1,0.3,0.1,0.4,0.1c0.5,0,0.8-0.4,0.8-0.8l-0.3-8.6c0-0.5-0.4-0.8-0.9-0.8c-0.5,0-0.8,0.4-0.8,0.8
			l0.3,8.6C54.8,25.7,55,25.9,55.2,26.1z"/>
		<path d="M80,31.6c-0.2-0.4-0.7-0.6-1.1-0.4l-8.5,4.2c-0.4,0.2-0.6,0.7-0.4,1.1c0.1,0.2,0.2,0.3,0.3,0.4c0.2,0.1,0.5,0.1,0.8,0
			l8.5-4.2C80.1,32.5,80.2,32,80,31.6z"/>
		<path d="M65.9,28.8c0.4,0.2,0.9,0.1,1.1-0.3l3.8-7c0.2-0.4,0.1-0.9-0.3-1.1c-0.4-0.2-0.9-0.1-1.1,0.3l-3.8,7
			C65.4,28.1,65.5,28.6,65.9,28.8z"/>
		<path d="M36.1,68.1c-0.2-0.2-0.5-0.3-0.8-0.2c-0.3,0-0.5,0.2-0.7,0.4c-0.4,0.4-0.3,1.1,0.1,1.5l1,0.8l-0.1,0.1l-5.9,7L22.7,81
			l1.9-6.1l0.6,0.5c0.4,0.4,1.1,0.3,1.5-0.1c0.4-0.4,0.3-1.1-0.1-1.5l-1.8-1.5C24.5,72.1,24.3,72,24,72c-0.1,0-0.2,0-0.3,0
			c-0.4,0.1-0.6,0.5-0.7,0.7l-3.1,10c-0.1,0.4,0,0.8,0.3,1.1c0.3,0.3,0.8,0.3,1.1,0.1l9.4-4.6c0.1,0,0.2-0.1,0.4-0.3l6.8-8
			c0.2-0.2,0.3-0.4,0.3-0.7c0-0.3-0.1-0.6-0.4-0.7L36.1,68.1z"/>
		<path d="M62.4,32.9c-4.4-3-10.3-2.5-14.1,1.2c-1.9,1.9-3.1,4.3-3.3,7c-0.4,4.2-2.2,8.4-5.3,12l-0.2,0.2c-0.3,0.3-0.3,0.8-0.1,1.2
			l2.9,5.1l-5.5-2c-0.4-0.2-0.9,0-1.2,0.3c-0.3,0.4-0.3,0.8-0.1,1.2l2.7,4.7l-4.6-2.2c-0.2-0.1-0.3-0.1-0.5-0.1
			c-0.3,0-0.6,0.1-0.8,0.4l-5.1,6.1c-0.4,0.4-0.3,1.1,0.1,1.5c0.4,0.4,1.1,0.3,1.5-0.1l4.6-5.5l7,3.3c0.4,0.2,0.9,0.1,1.2-0.2
			c0.3-0.4,0.4-0.8,0.2-1.2l-2.9-5.1l5.5,2c0.4,0.2,0.9,0,1.2-0.3c0.3-0.4,0.3-0.8,0.1-1.2l-4-7l0.1-0.1c3.2-3.9,5.1-8.4,5.4-12.8
			c0.2-2.1,1.1-4.1,2.7-5.6c3.1-3,7.8-3.4,11.4-1c2.2,1.5,3.6,3.7,4,6.4c0.3,2.6-0.4,5.1-2.1,7c-1.1,1.3-2.6,2.3-4.3,2.8
			c-4.4,1.3-8.1,3.4-11,6.3c-0.4,0.4-0.4,1.1,0,1.5c0.4,0.4,1.1,0.4,1.5,0c2.6-2.6,6-4.6,10.2-5.8c2.1-0.6,3.9-1.8,5.3-3.4
			c2-2.4,3-5.6,2.6-8.7C66.8,37.6,65,34.8,62.4,32.9z"/>
		<path d="M48.3,49.8c-0.2,0.2-0.3,0.5-0.2,0.8c0,0.3,0.2,0.5,0.4,0.7c0.2,0.2,0.5,0.3,0.8,0.2c0.3,0,0.5-0.2,0.7-0.4l4.1-4.8l0.1,0
			c1.7,0.8,3.7,0.3,4.9-1.1c0.7-0.9,1.1-1.9,1-3.1c-0.1-1.1-0.6-2.1-1.5-2.8c-0.8-0.7-1.7-1-2.7-1c-1.2,0-2.4,0.5-3.2,1.5
			c-1.2,1.4-1.4,3.5-0.3,5l0.1,0.1L52.4,45L48.3,49.8z"/>
	</g>
</g>
</svg>
