<?xml version="1.0" encoding="utf-8"?>
<!-- Generator: Adobe Illustrator 21.1.0, SVG Export Plug-In . SVG Version: 6.00 Build 0)  -->
<svg version="1.1" id="Layer_1" xmlns="http://www.w3.org/2000/svg" xmlns:xlink="http://www.w3.org/1999/xlink" x="0px" y="0px"
	 viewBox="0 0 529.2 604.8" style="enable-background:new 0 0 529.2 604.8;" xml:space="preserve">
<style type="text/css">
	.st0{fill:none;stroke:#FDED22;stroke-width:6.631;stroke-miterlimit:10;}
	.st1{fill:#FDED22;}
</style>
<polygon class="st0" points="11.6,156.8 11.6,449.4 265,595.6 518.3,449.4 518.3,156.8 265,10.6 "/>
<g>
	<path class="st1" d="M359.2,332.2v-27h-91.9v-20.3h40.6v-70.1h-86.4v70.1h40.3v20.3H170v27h-27.7v59.4h59.5v-59.4h-26.4v-21.6h86.4
		v21.6h-27.1v59.4h59.4v-59.4h-26.9v-21.6h86.4v21.6h-26.5v59.4h59.4v-59.4H359.2z"/>
	<g>
		<path d="M259.2,240.8h7.2v7.2h-7.2V240.8z M259.2,262.3h7.2v7.2h-7.2V262.3z"/>
		<path d="M243.8,269.9c-6.6,0-10.8-1.8-10.8-1.8l1.1-3.9c0,0,4.6,1.2,9.4,1.2c4.6,0,6.5-1.6,6.5-4.3c0-3.7-2.1-3.4-7-3.8
			c-5.8-0.4-10.6,0.1-10.6-7.9c0-7.3,3.9-9.1,11.5-9.1c5.3,0,9.2,1.3,9.2,1.3l-1,4c0,0-3.5-0.7-8.1-0.7c-4.9,0-6.7,0.8-6.7,4.1
			c0,3.6,1.1,4.3,7.1,4.3c6.4,0,10.5-0.2,10.5,7.7C255.1,268.2,250.5,269.9,243.8,269.9"/>
		<path d="M294.1,269.8c-3.4,0-3.9-3.3-3.9-3.3l-5.9,3.3c0,0-0.4,0-3.1,0c-10.2,0-11.5-6-11.5-14.6c0-8.3,1.5-15,10.9-15
			c2.6,0,3.6,0.4,5.5,0.6l4,2.9v-15.2h5.3v36.2l1.2,0.8v4.1H294.1z M290,245.5c-0.7-0.1-4.4-0.4-7.5-0.4c-6.1,0-7.3,2.7-7.3,10.5
			c0,8.6,1.4,9.9,7.4,9.9c3.6,0,7.4-0.7,7.4-0.7V245.5z"/>
	</g>
</g>
</svg>
