<?xml version="1.0" encoding="utf-8"?>
<!-- Generator: Adobe Illustrator 21.1.0, SVG Export Plug-In . SVG Version: 6.00 Build 0)  -->
<svg version="1.1" id="Layer_1" xmlns="http://www.w3.org/2000/svg" xmlns:xlink="http://www.w3.org/1999/xlink" x="0px" y="0px"
	 viewBox="0 0 100 100" style="enable-background:new 0 0 100 100;" xml:space="preserve">
<g>
	<path d="M35.8,39.2c-3.6-3.5-7.1-7.1-10.8-10.7c-12.6,13.9-9.4,35.1,0.7,44.3c3.5-3.5,7-7,10.6-10.6C30.8,54.7,30.6,47,35.8,39.2z"
		/>
	<path d="M60.6,35.1c3.6-3.6,7.2-7.2,10.8-10.8C59,13.7,39.8,14.7,29,24.6c3.6,3.6,7.1,7.1,10.8,10.8C46.6,31,53.6,30.9,60.6,35.1z"
		/>
	<path d="M40.4,65.9c-3.6,3.6-7.2,7.2-10.8,10.8c10.8,9.5,29.3,10.1,41.1,0.5c-3.7-3.7-7.2-7.3-10.9-10.9
		C52.4,69.7,48,69.7,40.4,65.9z"/>
	<path d="M42.1,50.3c-0.2,0.2-0.7,0.5-1.5,0.9c-0.4,0.2-0.7,0.4-1,0.5c-0.2,0.2-0.5,0.4-0.8,0.6c-0.3,0.3-0.5,0.5-0.6,0.9
		c-0.1,0.3-0.2,0.7-0.2,1.1v0.3c0,0.3,0.1,0.4,0.2,0.6c0.1,0.1,0.3,0.2,0.6,0.2h4.7c0.4,0,0.6-0.2,0.6-0.5v-0.1
		c0-0.3-0.2-0.5-0.6-0.5h-4.3c0-0.3,0.1-0.5,0.2-0.8c0.1-0.2,0.3-0.4,0.5-0.6c0.2-0.2,0.5-0.3,0.7-0.4c0.2-0.1,0.5-0.3,0.9-0.4
		c0.4-0.2,0.7-0.3,0.9-0.5c0.2-0.1,0.5-0.3,0.7-0.5c0.3-0.2,0.5-0.5,0.6-0.7c0.4-0.9,0.2-2.1-0.6-2.8c-1.1-1-3.2-0.9-4.4,0
		c-0.4,0.4-1.3,1.4-0.6,1.9c0.1,0.1,0.3,0.2,0.4,0.2c0.1,0,0.2,0,0.2,0c0.4-1.4,2.2-2.2,3.4-1.2C42.8,48.8,42.7,49.8,42.1,50.3z"/>
	<path d="M49.2,55.2c0.1,0.1,0.2,0.2,0.4,0.2h0.1c0.4,0,0.6-0.2,0.6-0.6v-1.7h0.9c0.4,0,0.6-0.2,0.6-0.5v-0.1c0-0.3-0.2-0.5-0.6-0.5
		h-0.9v-4.3c0-0.3-0.1-0.5-0.2-0.7c-0.3-0.3-1.1-0.3-1.4-0.1c-0.1,0.1-0.3,0.2-0.5,0.5l-3,3.9c-0.3,0.3-0.4,0.6-0.4,0.8v0.3
		c0,0.2,0.1,0.3,0.2,0.5s0.3,0.2,0.6,0.2h3.5v1.7C49.1,55,49.1,55.1,49.2,55.2z M46,52l3.1-4.1V52H46z"/>
	<path d="M55.4,46.9l-3.1,10c-0.2,0.6-0.1,1.1,0.6,1.1c0.2,0,0.3,0,0.3-0.1l3.1-10c0.1-0.3,0.2-0.7-0.1-1
		C56.1,46.9,55.4,46.7,55.4,46.9z"/>
	<path d="M58,55.1c0.1,0.1,0.2,0.2,0.3,0.2c0.1,0.1,0.3,0.1,0.4,0.1c0.3,0,0.5-0.2,0.7-0.5l3.4-6.3c0.3-0.5,0.4-0.8,0.4-1v-0.1
		c0-0.2-0.1-0.4-0.2-0.5c-0.1-0.1-0.3-0.2-0.7-0.2h-0.1h0h-4.6h0h0h0h0h0h0h0h0h0h0h0h0c-0.4,0-0.6,0.2-0.6,0.6v0.1
		c0,0.4,0.2,0.5,0.6,0.5h4.3L58,54.9C57.9,54.9,58,55,58,55.1z"/>
	<path d="M76.9,29.7c-0.4-0.5-0.8-1-1.2-1.5C72,31.8,68.4,35.4,64.8,39c0.6,0.7,1.1,1.5,1.5,2.3c0.7,1.2,1.2,2.5,1.6,3.7
		c0.1,0.2,0.1,0.4,0.2,0.5c0.1,0.2,0.1,0.4,0.2,0.6c0.4,1.5,0.5,3.1,0.5,4.8c0,2.2-0.5,4.2-1.2,6.1c-0.1,0.3-0.2,0.6-0.4,0.9
		c0,0.1-0.1,0.2-0.1,0.3c-0.2,0.4-0.4,0.7-0.6,1.1c-0.1,0.2-0.2,0.3-0.3,0.5c-0.1,0.2-0.2,0.4-0.3,0.5c-0.5,0.8-1.1,1.6-1.7,2.4
		c3.5,3.5,6.8,6.8,10.3,10.3c0.2,0.2,0.3,0.4,0.5,0.5c0,0,0,0,0,0c0,0,0,0,0,0c0,0,0,0,0,0C84.8,64.4,88.2,43.6,76.9,29.7z"/>
</g>
</svg>
