<?xml version="1.0" encoding="utf-8"?>
<!-- Generator: Adobe Illustrator 21.1.0, SVG Export Plug-In . SVG Version: 6.00 Build 0)  -->
<svg version="1.1" id="Layer_1" xmlns="http://www.w3.org/2000/svg" xmlns:xlink="http://www.w3.org/1999/xlink" x="0px" y="0px"
	 viewBox="0 0 100 100" style="enable-background:new 0 0 100 100;" xml:space="preserve">
<g>
	<g>
		<path d="M74.5,23.9H25.4c-3.6,0-6.5,3-6.5,6.7v33.1c0,3.7,2.9,6.6,6.5,6.6h22.7l17.7,14.6c0.2,0.2,0.5,0.3,0.7,0.3
			c0.2,0,0.3,0,0.5-0.1c0.4-0.2,0.6-0.6,0.6-1V70.2h6.9c3.6,0,6.5-3,6.5-6.7V30.5C81,26.8,78.1,23.9,74.5,23.9z M78.8,63.6
			c0,2.4-1.9,4.4-4.3,4.4h-8c-0.6,0-1.1,0.5-1.1,1.1v12.4L49.2,68.3C49,68.1,48.7,68,48.5,68H25.4c-2.4,0-4.3-2-4.3-4.4V30.5
			c0-2.4,1.9-4.4,4.3-4.4h49.1c2.4,0,4.3,2,4.3,4.4V63.6z"/>
		<path d="M65.3,32.9L65.3,32.9c-0.6-0.5-1.5-0.3-2,0.3L47.8,54.6l-9.4-7.7c-0.6-0.5-1.5-0.4-2,0.2c-0.5,0.6-0.4,1.5,0.2,2l11.6,9.5
			c0,0,0.1,0,0.1,0c0,0,0,0,0,0c0,0,0.1,0,0.1-0.1l17.2-23.8C66.1,34.2,65.9,33.3,65.3,32.9z"/>
	</g>
</g>
</svg>
