<?xml version="1.0" encoding="utf-8"?>
<!-- Generator: Adobe Illustrator 21.1.0, SVG Export Plug-In . SVG Version: 6.00 Build 0)  -->
<svg version="1.1" id="Layer_1" xmlns="http://www.w3.org/2000/svg" xmlns:xlink="http://www.w3.org/1999/xlink" x="0px" y="0px"
	 viewBox="0 0 300 101.9" style="enable-background:new 0 0 300 101.9;" xml:space="preserve">
<g>
	<path id="XMLID_352_" d="M230.1,30.1c-0.6,0-1.2,0-1.9,0.1l-0.2,0c-6.7,1-11.8,6.8-11.8,13.4V60v0c0,1.4,1.1,2.4,2.5,2.4
		c1.4,0,2.5-1.1,2.5-2.4v0c0,0,0-15.4,0-16.3l0,0c0,0,0-0.1,0-0.1c0,0,0-0.1,0-0.1c0-2.3,0.9-4.4,2.5-5.9c1.6-1.5,3.8-2.4,6.2-2.4
		c2.4,0,4.6,0.8,6.2,2.4c1.6,1.5,2.5,3.6,2.5,5.9v16.6l0,0c0.1,1.3,1.2,2.3,2.5,2.3c1.3,0,2.4-1,2.5-2.3v0V43.6
		C243.7,36.1,237.6,30.1,230.1,30.1"/>
	<path id="XMLID_350_" d="M120.6,23.3c0,1.8-1.4,3.2-3.2,3.2c-1.8,0-3.2-1.4-3.2-3.2c0-1.8,1.4-3.2,3.2-3.2
		C119.2,20.1,120.6,21.6,120.6,23.3"/>
	<path id="XMLID_344_" d="M180.9,30.1c-9,0-16.3,7.3-16.3,16.3c0,9,7.3,16.3,16.3,16.3c9,0,16.3-7.3,16.3-16.3
		C197.2,37.4,189.9,30.1,180.9,30.1 M180.9,57.7c-6.3,0-11.5-5.1-11.5-11.4c0-6.3,5.2-11.5,11.5-11.5c6.3,0,11.5,5.2,11.5,11.5
		C192.4,52.6,187.3,57.7,180.9,57.7"/>
	<path id="XMLID_342_" d="M94.5,30.1c-4.1,0-8,1.8-10.5,4.9l-0.4,0.5L83.1,35c-2.5-3.1-6.4-4.9-10.4-4.9c-7.3,0-13.4,5.9-13.4,13.2
		v16.2c0.1,1.4,1.2,2.5,2.6,2.5c1.4,0,2.5-1.1,2.6-2.5V43.3c0-4.5,3.7-8.2,8.2-8.2c4.5,0,8.3,3.7,8.3,8.2v16.2
		c0,1.4,1.2,2.5,2.6,2.5c1.4,0,2.5-1.1,2.6-2.5V43.3c0-4.5,3.8-8.2,8.3-8.2c4.5,0,8.2,3.7,8.2,8.2v16.3c0.1,1.3,1.2,2.4,2.6,2.4
		c1.4,0,2.5-1.1,2.6-2.4V43.3C107.8,36,101.8,30.1,94.5,30.1"/>
	<path id="XMLID_340_" d="M120,33.3c0-1.4-1.2-2.6-2.6-2.6c-1.4,0-2.6,1.2-2.6,2.6c0,0,0,0.1,0,0.1h0v26h0c0,1.4,1.2,2.6,2.6,2.6
		c1.4,0,2.6-1.1,2.6-2.6v-26h0C120,33.4,120,33.3,120,33.3"/>
	<path id="XMLID_339_" d="M209.4,23.3c0,1.8-1.4,3.2-3.2,3.2c-1.8,0-3.2-1.4-3.2-3.2c0-1.8,1.4-3.2,3.2-3.2
		C208,20.1,209.4,21.6,209.4,23.3"/>
	<path id="XMLID_338_" d="M208.8,33.3c0-1.4-1.2-2.6-2.6-2.6c-1.4,0-2.6,1.2-2.6,2.6c0,0,0,0.1,0,0.1h0v26h0c0,1.4,1.2,2.6,2.6,2.6
		c1.4,0,2.6-1.1,2.6-2.6v-26h0C208.8,33.4,208.8,33.3,208.8,33.3"/>
	<path id="XMLID_20_" d="M52.4,46.3c0-9-7.2-16.3-16.2-16.3S20,37.4,20,46.3c0,9,7.3,16.3,16.3,16.3c7.2,0,10.8-4.8,10.8-4.8v1.6
		c0,1.5,1.2,2.6,2.7,2.6s2.6-1.2,2.7-2.6v0.5V46.3z M36.3,57.8c-6.3,0-11.5-5.2-11.5-11.5c0-6.3,5.2-11.5,11.5-11.5
		c6.3,0,11.5,5.2,11.5,11.5C47.8,52.7,42.6,57.8,36.3,57.8"/>
	<path id="XMLID_14_" d="M158.8,46.3c0-9-7.5-16.3-16.3-16.3c-8.8,0-16,7.3-16,16.3c0,9,7.2,16.3,16.1,16.3c3.7,0,7.5-1.5,10.3-3.8
		l0.7-0.6c0,0,0.5,5.1-0.7,8.5c-0.6,1.7-3,7-10.3,7.2c-3.4,0.1-6.9-1.9-9-4.9c-0.5-0.7-1.3-1.3-2.2-1.3c-1.5,0-2.6,1.2-2.6,2.6
		c0,0.4,0.1,0.8,0.3,1.2l0,0c2.8,4.9,8.2,7.8,13.6,7.8c5.1-0.2,9.1-1.8,11.9-4.9c4.4-4.9,4.4-12.1,4.4-17.4V46.3z M142.5,57.3
		c-6,0-10.9-4.9-10.9-11c0-6.1,4.9-11.1,10.9-11.1c6,0,10.9,5,10.9,11.1C153.4,52.4,148.5,57.3,142.5,57.3"/>
	<path id="XMLID_12_" d="M180.9,54.2c-4.3,0-7.9-3.2-8.5-7.4c-0.1-0.8,0.5-1.5,1.3-1.6c0.8-0.1,1.5,0.5,1.6,1.3
		c0.4,2.8,2.8,4.8,5.6,4.8c2.8,0,5.2-2.1,5.6-4.8c0.1-0.8,0.9-1.4,1.7-1.3c0.8,0.1,1.4,0.9,1.2,1.7c-0.3,2-1.3,3.9-2.8,5.2
		C185,53.4,183,54.2,180.9,54.2"/>
	<g>
		<path d="M265.5,62.9c-9,0-16.4-7.3-16.4-16.4c0-9,7.3-16.4,16.4-16.4c5.7,0,10.9,2.9,13.9,7.7c0.7,1.2,0.4,2.7-0.8,3.5
			c-1.2,0.7-2.7,0.4-3.5-0.8c-2.1-3.3-5.7-5.3-9.6-5.3c-6.3,0-11.3,5.1-11.3,11.3c0,6.3,5.1,11.3,11.3,11.3c4,0,7.8-2.1,9.8-5.6
			c0.7-1.2,2.2-1.6,3.4-0.9c1.2,0.7,1.6,2.2,0.9,3.4C276.7,59.8,271.3,62.9,265.5,62.9z"/>
	</g>
</g>
</svg>
