<?xml version="1.0" encoding="utf-8"?>
<!-- Generator: Adobe Illustrator 21.1.0, SVG Export Plug-In . SVG Version: 6.00 Build 0)  -->
<svg version="1.1" id="Layer_1" xmlns="http://www.w3.org/2000/svg" xmlns:xlink="http://www.w3.org/1999/xlink" x="0px" y="0px"
	 viewBox="0 0 300 101.9" style="enable-background:new 0 0 300 101.9;" xml:space="preserve">
<g>
	<path d="M121.3,72.1C121.3,72.1,121.3,72.1,121.3,72.1C121.3,72.1,121.3,72.1,121.3,72.1z"/>
	<path d="M121.2,72C121.3,72,121.3,72.1,121.2,72C121.3,72.1,121.3,72.1,121.2,72C121.2,72,121.1,72,121.2,72z"/>
	<path d="M178.4,30.6C178.4,30.6,178.4,30.5,178.4,30.6C178.3,30.7,178.3,30.7,178.4,30.6z"/>
	<polygon points="121.3,72.1 121.3,72.1 121.3,72.1 	"/>
	<path d="M131.5,40.2C131.5,40.2,131.5,40.2,131.5,40.2C131.3,40.2,131.4,40.2,131.5,40.2z"/>
	<path d="M185.8,39.8c-2.8-0.8-5.8,1.1-8,2.6c0.2-0.4,0.5-0.9,0.8-1.3c0.4-0.5,0.8-0.7,1.4-1c0.9-0.5,1.8-1.1,2.8-1.6
		c1.6-1,3.2-2,4.8-3.1c3.2-2.3,6.3-5,8.9-8c1.9-2.2,4.6-5.7,3.4-8.8c-1.4-3.6-5.4-2.1-7.9-0.6c-1.8,1.1-3.5,2.4-5,3.9
		c-1.4,1.3-2.7,2.6-4.1,3.9c-1.2,1.2-2.4,2.5-3.5,3.8c-0.3,0.3-0.6,0.7-0.9,1c0.1-0.1,0.2-0.3,0.4-0.4c0,0-0.3,0.3-0.4,0.5
		c-1.6,2-3.2,4-4.7,6.1c-0.7,1-1.3,2-2,3c-0.3,0.5-0.6,0.9-0.9,1.4c-0.2,0.3-0.3,0.5-0.5,0.8c0,0.1-0.3,0.6-0.1,0.2
		c0,0.1-0.1,0.1-0.1,0.2c-0.1,0.1-0.2,0.3-0.3,0.4c0,0,0,0.1-0.1,0.1c0,0,0-0.1,0.1-0.1c-0.2,0.4-0.5,0.7-1,0.9
		c-0.7,0.2-1.3,0.5-2,0.7c-1.4,0.5-2.8,0.9-4.3,1.3c0.1-2.4-0.8-5.4-3.6-5.9c-3.1-0.5-6.4,2-8.5,4c1-2.2,1.9-4.3,2.9-6.5
		c-1.2,0-2.3,0-3.5,0c-0.8,0-1.6,0-2.4,0c-0.2,0-0.9-0.1-1.1,0c-0.4,0.2-0.7,1.5-0.9,1.9c-0.4,0.8-0.7,1.5-1.1,2.3
		c-0.7,1.5-1.4,2.9-2.1,4.4c-1.3,2.7-2.5,5.3-4,7.9c-1.3,2.4-2.8,4.8-4.4,7.1c-0.9,1.2-1.8,2.4-2.8,3.6c-0.8,0.9-1.6,1.9-2.6,2.4
		c-0.6,0.3-1.5,0.5-1.9-0.2c-0.6-1,0.3-2.4,0.7-3.3c1.2-2.6,2.3-5.2,3.4-7.9c1.2-2.8,2.5-5.7,3.3-8.7c0.6-2.3,1-5.5-1.7-6.3
		c-0.1,0-0.4-0.1-0.6-0.2c0,0-0.4-0.1-0.3,0c0.1,0,0,0-0.1,0c-3.4-0.4-6.4,2.1-8.5,4.4c-0.5-1.4-0.8-3.1-2.2-3.9
		c-1.1-0.7-2.5-0.6-3.7-0.2c-2.3,0.7-4.6,2.1-6.2,3.8c0.5-1,1-1.9,1.5-2.9c-1.4,0-2.8,0-4.3,0c-0.8,0-1.6,0-2.5,0
		c-0.8,0-0.7,0.2-1.1,1c-3,6.3-6.9,12.5-11.1,18c-1.1,1.4-2.2,2.8-3.5,4c-0.7,0.7-1.9,2-3,1.8c-0.1,0-0.4-0.1-0.3-0.1
		c-1.1-0.6,0-2.7,0.3-3.4c1-2.3,2.1-4.5,3.2-6.7c2.4-4.9,4.6-9.8,6.9-14.7c-1.6,0-3.1,0-4.7,0c-0.9,0-1.7,0-2.6,0
		c-0.8,0-0.9,0.7-1.2,1.5c0,0,0,0,0,0c0,0,0,0,0,0c-0.6-1-1.5-1.7-2.5-2.1c0.1,0,0.1,0.1,0.2,0.1c0.5,0.2,0.9,0.5,1.3,0.8
		c0,0,0.1,0.1,0.1,0.1c-1.2-1.1-2.8-1.6-4.4-1.6c-1.8,0.1-3.7,1.2-5.2,2.1c-3.8,2.2-7.2,5.4-9.7,9c-2.6,3.7-4.9,8.2-5.6,12.7
		c-0.5,3.5,0.7,7.1,4.5,8c4.6,1.1,9.5-3.4,11.4-7.2c-0.2,2.4,0.3,5.6,2.6,6.9c2.5,1.5,5.5-0.8,7.3-2.5c4.6-4.3,7.5-10,11.1-15.1
		c-2.1,5.1-4.3,10.1-6.4,15.2c-0.3,0.7-0.6,1.4-0.9,2.1c1,0,2.1,0,3.1,0c0.8,0,1.5,0,2.3,0c0.5,0,1.2,0.1,1.7,0
		c0.6-0.2,0.8-1.2,1-1.8c0.6-1.4,1.2-2.9,1.9-4.3c1.1-2.6,2.2-5.3,3.4-7.9c0.9-2.1,1.8-4.2,2.8-6.3c0.7-1.5,2-4.6,4-4.6
		c3,0,1.1,3.9,0.5,5.2c-0.8,2-1.6,3.9-2.5,5.8c-2,4.6-3.9,9.3-5.8,14c1.9,0,3.9,0,5.8,0c0.3,0,1,0.1,1.2-0.1c0.3-0.2,0.5-1,0.6-1.3
		c2-4.5,3.9-8.9,5.8-13.4c0.8-2,1.5-4.1,2.4-6c0.7-1.4,1.6-3.1,3.1-3.8c1.6-0.8,2.8-0.1,2.7,1.7c-0.1,1.8-0.9,3.6-1.6,5.3
		c-0.9,2.2-1.9,4.4-2.9,6.6c-0.8,1.9-1.7,3.9-2.2,5.9c-0.4,1.7-0.6,3.8,0.7,5.1c0.3,0.3,0.7,0.6,1.1,0.8c0,0,0,0,0,0
		c1.2,0.5,2.8,0.3,4-0.1c2.1-0.7,3.6-2,5-3.6c3.2-3.8,5.6-8.3,7.9-12.6c-3.3,7.6-6.7,15.2-10.1,22.8c-1,2.2-2,4.4-3,6.6
		c2.2,0,4.3,0,6.5,0c0.5,0,0.7,0.1,1-0.2c0.3-0.4,0.5-1.2,0.7-1.7c2.1-4.8,4.1-9.6,6.2-14.4c0.6-1.4,1.2-2.8,1.8-4.2
		c-0.3,2.2,0.1,5.4,1.9,7c2.3,1.9,5.7-0.2,7.6-1.7c5-3.8,8.2-10.1,10.2-16c0.3-0.9,0.6-1.8,0.8-2.7c0.2-0.7,0.2-1.8,0.5-2.5
		c0.3-0.5,1.9-0.9,2.5-1.2c1-0.4,2-0.8,2.9-1.3c-2.6,4.6-4.7,9.8-5.7,15c-0.6,3.4-1.2,8.8,2.5,10.4c0,0,0.1,0,0.1,0.1
		c0.2,0.1,0.5,0.2,0.8,0.3c0,0,0,0,0,0c0.4,0.1,0.9,0.2,1.3,0.2c0.3,0,0.5,0,0.8,0c0.1,0,0.5-0.1,0.6-0.1c0.1,0,0.3,0,0.3-0.1
		c0.1,0,0.4-0.1,0.6-0.1c0.2,0,0.3-0.1,0.5-0.1c-0.5,0.1,0.2-0.1,0.3-0.1c0.3-0.1,0.6-0.2,0.9-0.3c0.5-0.2,1.1-0.4,1.6-0.7
		c1.1-0.6,2.1-1.3,3-2.1c2.2-1.9,4.2-4.2,5.9-6.5c1.8-2.5,3.3-5.1,4.7-7.7c1.3-2.4,2.5-4.8,3-7.5C189.7,43.7,189,40.7,185.8,39.8z
		 M188.1,25.6c1-1.4,2.1-2.9,3.3-4.1c0.6-0.7,1.5-1.7,2.5-1.9c0.2,0,0.6,0,0.7,0c0,0,0.3,0.1,0.3,0.1c0.9,0.7,0.3,2.5-0.3,3.5
		c-1.2,2-2.4,4-3.9,5.8c-3,3.5-6.6,6.6-10.5,9.1C182.6,33.9,185.2,29.7,188.1,25.6z M83.3,53.3c-2.1,4-4.2,8.3-7.6,11.3
		c-0.2,0.1-0.3,0.3-0.5,0.4c0.7-0.5-0.1,0.1-0.2,0.1c0.2-0.1-0.3,0.2-0.4,0.3c-0.1,0-0.2,0.1-0.2,0.1c-0.4,0.3-0.6,0.3-0.8,0.4
		c0.3-0.1-0.3,0.1-0.4,0.1c-0.1,0-0.2,0-0.2,0c-3.3,0.4-1.3-5.3-0.7-6.9c1.5-3.7,3.6-7.3,6.1-10.5c1-1.3,5.1-6.8,7.1-4.5
		c0.8,0.9,0.6,2.5,0.3,3.6C85.3,49.7,84.2,51.5,83.3,53.3z M156,48.5c-0.5,2-1.4,4-2.2,5.8c-1.7,3.7-3.9,7.4-6.8,10.3
		c-0.8,0.8-2.7,2.4-3.7,1.1c-0.9-1.2-0.2-3.5,0.1-4.7c0.4-1.5,0.9-3.1,1.5-4.6c0.9-2.1,1.7-4.4,2.8-6.4c1.1-2,4.5-7.9,7.6-5.9
		C156.8,45,156.4,47.1,156,48.5z M163.1,57.2c0,0,0-0.1,0-0.1C163.2,56.9,163.2,57,163.1,57.2z M181.7,47.7
		c-0.7,3.7-2.7,7.2-4.5,10.5c-1,1.8-2,3.7-3.5,5.2c-1,1-2.8,2.4-4.3,1.5c-1.3-0.9-0.9-3-0.6-4.2c0.4-1.7,1.1-3.4,1.8-5
		c0.1-0.3,0.3-0.6,0.4-0.8c0,0,0,0,0,0c0,0,0,0,0-0.1c1.5-3.3,3.2-6.7,5.7-9.3c0.9-0.9,2.4-2.3,3.8-1.8
		C182.1,44.4,181.9,46.5,181.7,47.7z M188.8,48C188.8,47.9,188.8,48,188.8,48L188.8,48z"/>
	<path d="M169.2,71.8C169.2,71.8,169.2,71.8,169.2,71.8C169.4,71.8,169.4,71.8,169.2,71.8z"/>
	<path d="M168.3,72c0,0-0.1,0-0.1,0C168.4,72,168.4,72,168.3,72z"/>
	<path d="M121.3,72.1C121.3,72.1,121.4,72.1,121.3,72.1L121.3,72.1z"/>
	<path d="M164.7,71.7c0,0,0.1,0,0.1,0C164.8,71.7,164.8,71.7,164.7,71.7C164.7,71.7,164.7,71.7,164.7,71.7
		C164.6,71.7,164.6,71.7,164.7,71.7z"/>
	<path d="M118.8,40.2C118.7,40.2,118.7,40.2,118.8,40.2L118.8,40.2z"/>
	<path d="M170.1,42.3C170.1,42.3,170.1,42.3,170.1,42.3c0,0.1-0.2,0.2-0.3,0.4c0,0,0,0,0,0C169.9,42.6,170,42.5,170.1,42.3z"/>
	<path d="M196,16.3c0.2,0,0.4,0,0.6,0C196.4,16.3,196.2,16.3,196,16.3z"/>
	<path d="M189,42.6c0-0.1-0.1-0.2-0.1-0.3C188.8,42,189,42.6,189,42.6z"/>
	<path d="M88.3,42.7c0-0.2-0.6-0.8-0.9-1.1C87.8,42,88.1,42.3,88.3,42.7z"/>
	<path d="M179.3,29.5C179.3,29.5,179.3,29.5,179.3,29.5c0.2-0.2,0.4-0.5,0.6-0.7C179.7,29.1,179.5,29.3,179.3,29.5z"/>
	<path d="M119.3,53.2c0.1-0.4,0.3-0.8,0.4-1.2C119.6,52.4,119.4,52.8,119.3,53.2z"/>
	<path d="M171.1,54.9C171.1,54.9,171.1,54.9,171.1,54.9c0.2-0.3,0.3-0.7,0.5-1.1C171.4,54.2,171.3,54.5,171.1,54.9z"/>
	<path d="M182.3,26.2c0.1-0.1,0.3-0.3,0.4-0.4c0,0,0,0,0,0C182.6,25.9,182.5,26,182.3,26.2z"/>
	<path d="M134.3,42c0.1,0.2,0.1,0.3,0.2,0.5C134.4,42.3,134.3,42.1,134.3,42z"/>
	<path d="M118.8,40.2C118.8,40.2,118.8,40.2,118.8,40.2C118.8,40.2,118.8,40.2,118.8,40.2z"/>
	<path d="M49.3,41.6c0.2,0,0.3,0,0.4,0c0.1,0,0.2,0,0.3,0c-0.2,0-0.3,0-0.5,0C49.4,41.6,49.4,41.6,49.3,41.6z"/>
	<path d="M37.2,82C37.2,82,37.2,82,37.2,82C37.4,82,37.3,82,37.2,82z"/>
	<path d="M34.2,82C34.2,82,34.2,82,34.2,82C34.3,82.1,34.3,82,34.2,82z"/>
	<path d="M50.5,41.5c0.3,0,0.6-0.1,1-0.1c-0.5,0.1-1,0.1-1.5,0.2C50.2,41.5,50.3,41.5,50.5,41.5z"/>
	<path d="M51.6,41.3C51.6,41.3,51.6,41.3,51.6,41.3C51.6,41.3,51.5,41.3,51.6,41.3C51.5,41.4,51.5,41.3,51.6,41.3z"/>
	<path d="M34.1,41c-0.2-0.1-0.5-0.1-0.7-0.2C33.6,40.8,34,41,34.1,41z"/>
	<path d="M46.9,59.6C47,59.6,47,59.6,46.9,59.6C47,59.6,47,59.6,46.9,59.6z"/>
	<path d="M52.8,50.5c-2.1,0.4-3.8,1.9-4.9,3.7c-0.4,0.7-0.7,1.5-0.9,2.3c-0.1,0.5-0.5,2.4-0.1,2.8c0.4,0.4,0.8-0.1,1.2-0.4
		c0.9-0.7,1.8-1.4,2.9-1.7c1.5-0.5,3.4-0.4,4.4,1c2,2.8-0.4,7.2-1.9,9.7c-2.4,3.9-5.5,7.3-9.7,9.3c-3.4,1.6-8.1,1.4-10.1-2.3
		c-2.2-4-0.8-9.2,0.9-13.1c1.8-4,3.9-7.9,6.4-11.4c1.2-1.6,2.4-3.2,3.7-4.8c0.7-0.9,1.5-1.8,2.2-2.7c0.4-0.5,0.7-1.1,1.3-1.2
		c0.1,0,0.2,0,0.3-0.1c0.2,0,0.4-0.1,0.7-0.1c0,0-0.1,0-0.1,0c0.1,0,0.2,0,0.3,0c0.7-0.1,1.4-0.2,2.2-0.3c0,0,0,0,0,0c0,0,0,0,0,0
		c0,0,0.1,0,0.1,0c3.7-0.6,7.4-1.4,11-2.3c3.2-0.8,6.3-2,9.3-3.5c3.3-1.6,6.7-3.5,9.2-6.3c2.4-2.7,5-7.7,1.2-10.5
		c-1.7-1.2-4-1.4-6-1.4c-2.1,0-4.2,0.3-6.2,0.8c-4.6,1-8.9,2.9-13.1,5c-4.4,2.2-8.7,4.8-12.6,7.8c-1.9,1.5-3.7,3-5.5,4.7
		c-0.8,0.8-1.5,1.5-2.3,2.3c-0.1,0.1-0.4,0.6-0.6,0.6c-0.1,0-0.3-0.1-0.4-0.1c-0.6-0.1-1.3-0.4-1.9-0.7c-1.5-0.7-2.6-1.8-2.6-3.5
		c0-1.8,1.5-3.4,2.9-4.3c0.6-0.3,1.9-0.6,2-1.3c0.1-0.6-0.6-1-1-1.2c-1.8-0.9-4.1-0.4-5.7,0.7c-3.2,2.1-3.3,7.2-0.8,9.9
		c1.3,1.4,2.9,2.2,4.6,2.8c-0.1-0.1-0.3-0.1-0.3-0.1c0.3,0.1,0.7,0.2,1,0.3c0,0,0,0,0,0c0,0,0,0,0,0c-4.2,5.1-8.3,11.1-10.2,17.4
		c-1.9,6.2-2.3,13.5,1.7,18.9c1,1.4,2.3,2.5,3.8,3.3c0.8,0.4,1.7,0.8,2.6,1c0.4,0.1,0.9,0.2,1.3,0.3c0.2,0,0.4,0.1,0.5,0.1
		c0,0,0.3,0,0.4,0c0.3,0,0.7,0.1,1.1,0.1c0.1,0,0.3,0,0.4,0c0.1,0,0.8,0,0.5,0c0.2,0,0.4,0,0.6,0c0.1,0,0.4,0,0.4,0c0,0,0,0,0.1,0
		c5.8-0.7,11.3-4,15.4-8.1c4-4,7.7-9.9,7.5-15.8C59.9,54.3,57.1,49.7,52.8,50.5z M71.1,21.5c2.2-1,5.6-2.4,7.8-0.6
		c2.4,1.9-0.8,5.4-2.2,6.8c-4.5,4.5-10.2,7.4-16.2,9.2c-3.3,1-6.6,1.6-10,1.9C56.5,32.2,62.7,25.3,71.1,21.5z"/>
	<path d="M46.9,59.6C46.9,59.5,46.9,59.5,46.9,59.6L46.9,59.6z"/>
	<path d="M261.5,30.5c0.9-0.4,1.8-0.9,2.7-1.4c1.7-1,3.7-2.2,4.3-4.2c0.6-2.3-1.2-4.6-3.6-4.7c-2.3-0.1-3.9,2-3.9,4.1
		c0,0.7,0.2,1.4,0.4,2c0.2,0.6,0.7,1,0.6,1.7c-0.1,0.7-0.6,1.4-1,2c0,0-0.7,1-0.6,1C260.7,31,261.3,30.6,261.5,30.5z"/>
	<path d="M261,23.9c0,0,0,0.1,0,0.1C261,24.1,261,24.1,261,23.9z"/>
	<path d="M261.9,21.5C262.1,21.3,261.7,21.7,261.9,21.5L261.9,21.5z"/>
	<path d="M215,42.5c-0.1-0.1-0.1,0,0.2,0.3C215.1,42.7,215,42.6,215,42.5z"/>
	<path d="M227,69.8C226.9,69.8,226.9,69.8,227,69.8C227,69.9,227,69.9,227,69.8z"/>
	<path d="M229.1,71.6C229,71.6,229,71.6,229.1,71.6C229.1,71.6,229.1,71.6,229.1,71.6z"/>
	<path d="M226.6,69.1c0.1,0.2,0.1,0.1-0.1-0.2C226.5,69,226.5,69.1,226.6,69.1z"/>
	<path d="M271.9,63c-1.8-1-3.9-1.5-6-1.5c0-0.2,0.3-0.4,0.3-0.6c0.1-0.3,0.1-0.8,0.1-1.1c0.1-1,0.1-1.9,0.2-2.9
		c0.1-1.6,0.2-3.2,0.4-4.8c0.2-2.7,0.3-5.6,1.3-8.1c0.3-0.7,0.6-1.3,1-1.9c0.4-0.6,1.4-1.5,1.5-2.2c0.1-1.2-2-0.7-2.7-0.7
		c-2.5,0.1-5.1,0.3-7.4,1.4c-2.8,1.4-4.3,4.1-6.1,6.5c-2.1,2.8-4.5,5.5-6.7,8.3c-2,2.6-4.1,5.1-6.7,7.3c-0.6,0.5-1,1-1.6,1.5
		c-0.6,0.5-1.3,0.9-2,1.3c-0.7,0.4-2.4,1.3-3.2,0.6c-1.2-1,0.9-4.6,1.4-5.6c0.5-0.9,0.9-1.8,1.4-2.7c1.1-1.9,2.1-3.9,3.2-5.9
		c3.6-6.6,7.1-13.3,10.7-19.9c1.6-3,3.2-5.9,4.7-8.9c0.5-1,1.1-2,1.6-3.1c0.3-0.5,0.8-1.1,0.9-1.7c0-0.1,0.1-0.2,0.1-0.2
		c-1.4,0-2.7,0-4.1,0c-0.8,0-1.7,0-2.5,0c-0.3,0-0.6-0.1-0.8,0.1c-0.4,0.3-0.7,1.2-0.9,1.7c-0.6,1.1-1.2,2.2-1.8,3.3
		c-1.6,3-3.2,6-4.8,9c-3.3,6.2-6.5,12.5-10.2,18.4c-1.8,2.9-3.7,5.7-5.8,8.5c-1.9,2.4-3.9,5.2-6.6,6.7c-0.8,0.4-1.9,0.9-2.4-0.2
		c-0.5-1.2,0.5-3.1,1.1-4.2c0.6-1.2,1.2-2.3,1.8-3.4c1.1-1.9,2.1-3.8,3.1-5.7c3.6-6.7,7.2-13.4,10.7-20.1c1.6-3,3.2-6,4.8-9
		c0.6-1,1.1-2.1,1.7-3.1c0.3-0.5,0.8-1.2,0.9-1.7c0-0.1,0.1-0.2,0.1-0.3c-1.5,0-3,0-4.6,0c-0.7,0-2.4-0.3-2.9,0.2
		c-0.3,0.3-0.5,0.9-0.7,1.2c-0.4,0.7-0.8,1.4-1.2,2.1c-1.2,2.1-2.3,4.2-3.5,6.4c-3.1,5.7-6.2,11.4-9.3,17.1
		c-1.7,3.1-3.3,6.4-5.1,9.4c-1.8,3-3.8,6.1-6.4,8.6c-2.3,2.2-4.8,3.8-7.9,4.8c-2.9,0.9-5.2-1.2-5.7-3.9c-0.3-1.5-0.5-3.4-0.1-4.9
		c0.1-0.4,0.3-0.7,0.4-1.1c0.3-0.5,0.2-0.5,0.8-0.6c1-0.2,2.1-0.4,3.1-0.7c3.2-0.8,6.5-1.7,9.5-3c2.6-1.2,5.6-3,6.5-5.9
		c0.9-3.2-0.5-6.1-3.7-6.9c-6.8-1.8-13.9,2.7-18.2,7.7c-4.5,5.2-8.6,13.4-4.5,20c3.8,6,11.9,4.1,16.8,0.7c1.4-1,2.7-2.1,4-3.3
		c-0.1,3.3,2.5,6.6,6,6.3c4.1-0.3,7.4-3.6,9.9-6.5c-0.1,1.4,0.2,2.8,0.9,4c0,0.1,0.1,0.1,0.1,0.2c0.1,0.1,0.2,0.3,0.3,0.4
		c0,0,0.1,0.1,0.1,0.2c0.1,0.2,0.3,0.3,0.4,0.4c0,0,0.1,0.1,0.2,0.1c0.1,0.1,0.3,0.3,0.4,0.3c0.1,0.1,1.1,0.6,0.3,0.2
		c0,0,0.3,0.2,0.3,0.2c0.1,0,0.4,0.1,0.5,0.2c0.1,0,0.3,0.1,0.4,0.1c-0.5-0.1,0.2,0.1,0.2,0.1c0.3,0.1,0.5,0.1,0.8,0.1
		c0.6,0.1,1.2,0,1.8-0.1c1-0.2,2-0.5,2.9-0.9c2.3-1,4.4-2.5,6-4.3c1.7-1.9,3.6-3.7,5.1-5.7c0.6-0.8,1.2-1.7,1.8-2.5
		c3.3-4.5,6.5-9.2,10.3-13.3c0.4-0.4,0.9-0.5,1.5-0.6c1-0.2,0.8,0.3,0.5,1c-1,2.2-1.5,4.6-1.7,7c-0.1,1.3-0.2,2.7-0.3,4
		c-0.1,0.6-0.1,1.2-0.2,1.8c-0.1,0.5,0,1.5-0.3,2c-0.3,0.5-0.9,0.3-1.5,0.3c-1.1,0-2.3,0.1-3.4,0.3c-3.3,0.4-9.9,2.1-8.9,6.7
		c0.9,4.1,6.6,4.8,10,4.1c2.6-0.5,5-1.6,7.1-3.3c1-0.8,1.8-1.7,2.5-2.7c0.3-0.5,0.5-1.1,0.9-1.5c0.3-0.4,0-0.2,0.5-0.2
		c0.3,0,0.6,0.1,0.9,0.1c1.9,0.4,4.6,1.5,5.7,3.3c0.2,0.3,0.3,0.6,0.3,0.9c0,0.2-0.1,0.7,0,0.8c0.1,0.1,0.2,0.1,0.3,0.1c0,0,0,0,0,0
		c0,0,0,0,0,0c0.8,0.1,1.9-1.4,2-2C275.5,65.4,273.4,63.8,271.9,63z M206.2,42.8c1.8-0.4,3.5,0.3,3.8,2.2c0.2,1.9-0.8,4-2.1,5.4
		c-2.8,2.9-7.5,3.9-11.3,4.8C197.9,50.6,200.9,44,206.2,42.8z M251.2,68.5c-1,0-2.1-0.4-2.5-1.4c-0.4-1,0.1-1.9,1-2.4
		c2.2-1.3,5.3-1.3,7.8-1.3C257.1,66.2,254,68.5,251.2,68.5z"/>
	<path d="M210.9,69.2C210.8,69,210.9,69.3,210.9,69.2L210.9,69.2z"/>
	<path d="M229.6,71.8C229.5,71.8,229.5,71.8,229.6,71.8C229.8,71.9,229.7,71.9,229.6,71.8z"/>
	<path d="M228.1,71C228,71,228,71,228.1,71C227.9,70.9,227.9,70.9,228.1,71z"/>
	<path d="M227.4,70.4C227.4,70.4,227.4,70.4,227.4,70.4C227.5,70.6,227.5,70.5,227.4,70.4z"/>
	<path d="M226.9,69.7C226.9,69.7,226.9,69.7,226.9,69.7C226.8,69.6,226.8,69.6,226.9,69.7z"/>
	<path d="M227.9,70.9C227.9,70.9,227.9,70.9,227.9,70.9C227.8,70.8,227.8,70.8,227.9,70.9z"/>
</g>
</svg>
