<?xml version="1.0" encoding="utf-8"?>
<!-- Generator: Adobe Illustrator 21.1.0, SVG Export Plug-In . SVG Version: 6.00 Build 0)  -->
<svg version="1.1" xmlns="http://www.w3.org/2000/svg" xmlns:xlink="http://www.w3.org/1999/xlink" x="0px" y="0px"
	 viewBox="0 0 1698.2 1146.1" style="enable-background:new 0 0 1698.2 1146.1;" xml:space="preserve">
<style type="text/css">
	.st1{display:inline;fill:#D1668F;stroke:#F9ED22;stroke-width:1.433;stroke-miterlimit:10;}
	.st2{fill:none;stroke:#F9ED22;stroke-width:0.1;stroke-miterlimit:10;}
	.st3{fill:#F9ED22;}
	.st4{font-family:'TitilliumWeb-Bold';}
	.st5{font-size:41.72px;}
	.st6{fill:#FFFFFF;}
	.st7{font-family:'TitilliumWeb-Regular';}
	.st8{font-size:26px;}
	.st9{font-size:34.419px;}
	.st10{font-size:8.0268px;}
	.st11{font-size:6.9637px;}
	.st12{font-size:8.5388px;}
</style>
<defs>
  <pattern id="boot" patternUnits="userSpaceOnUse" width="100%" height="100%">
    <image xlink:href="svg/layout/boot.jpg" x="0" y="0" width="300" height="400" />
  </pattern>
</defs>
<g id="backs">
	<rect fill="url(#boot)" x="468.4" y="298.6" class="st2" width="239.4" height="426.7"/>
	<rect fill="url(#boot)" x="42.7" y="294.9" class="st2" width="239.4" height="426.7"/>
</g>
<g id="yellow">
	<polygon class="st3" points="962.8,233.5 962.8,312.3 1031.1,351.8 1099.4,312.3 1099.4,233.5 1031.1,194 	"/>
	<polygon class="st3" points="962.8,486.6 962.8,565.5 1031.1,604.9 1099.4,565.5 1099.4,486.6 1031.1,447.2 	"/>
	<polygon class="st3" points="963.4,723.6 963.4,802.4 1031.7,841.9 1100,802.4 1100,723.6 1031.7,684.2 	"/>
	<polygon class="st3" points="1422.1,476 1422.1,554.8 1490.4,594.3 1558.7,554.8 1558.7,476 1490.4,436.6 	"/>
	<g>
		<text transform="matrix(1 0 0 1 152.3392 43.0994)" class="st3 st4 st5">1</text>
	</g>
	<g>
		<text transform="matrix(1 0 0 1 564.8104 43.0994)" class="st3 st4 st5">2</text>
	</g>
	<g>
		<text transform="matrix(1 0 0 1 1028.4109 43.0994)" class="st3 st4 st5">3</text>
	</g>
	<g>
		<text transform="matrix(1 0 0 1 1478.7522 43.0994)" class="st3 st4 st5">4</text>
	</g>
	<g>
		<g>
			<g>
				<polygon class="st3" points="391,548.9 390,547.9 413.1,524.7 390,501.6 391,500.6 415.2,524.7 				"/>
			</g>
		</g>
		<g>
			<rect x="337.1" y="524" class="st3" width="77" height="1.4"/>
		</g>
	</g>
	<g>
		<g>
			<g>
				<polygon class="st3" points="843.2,298.6 842.2,297.6 865.3,274.5 842.2,251.4 843.2,250.3 867.4,274.5 				"/>
			</g>
		</g>
		<g>
			<rect x="789.3" y="273.8" class="st3" width="77" height="1.4"/>
		</g>
	</g>
	<g>
		<g>
			<g>
				<polygon class="st3" points="843.2,785.6 842.2,784.6 865.3,761.4 842.2,738.3 843.2,737.3 867.4,761.4 				"/>
			</g>
		</g>
		<g>
			<rect x="789.3" y="760.7" class="st3" width="77" height="1.4"/>
		</g>
	</g>
	<g>
		<g>
			<g>
				<polygon class="st3" points="843.9,534.1 842.9,533 866.1,509.9 842.9,486.8 843.9,485.8 868.1,509.9 				"/>
			</g>
		</g>
		<g>
			<rect x="790.1" y="509.2" class="st3" width="77" height="1.4"/>
		</g>
	</g>
	<g>
		<g>
			<g>
				<polygon class="st3" points="1282.6,532.6 1281.6,531.6 1304.8,508.4 1281.6,485.3 1282.6,484.3 1306.8,508.4 				"/>
			</g>
		</g>
		<g>
			<rect x="1228.8" y="507.7" class="st3" width="77" height="1.4"/>
		</g>
	</g>
	<g>
		<g>
			<path d="M1031.1,318.9c-25.4,0-46-20.7-46-46c0-25.4,20.7-46,46-46s46,20.7,46,46C1077.2,298.3,1056.5,318.9,1031.1,318.9z
				 M1031.1,230.3c-23.5,0-42.6,19.1-42.6,42.6c0,23.5,19.1,42.6,42.6,42.6c23.5,0,42.6-19.1,42.6-42.6
				C1073.7,249.4,1054.6,230.3,1031.1,230.3z"/>
		</g>
		<g id="QFpcpL.tif">
			<g>
				<g>
					<path d="M1031.1,301.5c-0.6,0-1.2-0.1-1.8-0.4c-9.8-5.6-16.4-11.9-20.7-19.8c-2.6-4.8-3.6-9.8-3.1-15.1
						c0.7-6.4,4.9-11.5,11.1-13.1c5.6-1.5,10.5-0.1,14.5,3.9c4.8-4.7,11-5.8,17-3c5.6,2.6,8.6,7.5,8.7,14.2c0.1,6.3-2,12.2-6.3,18
						c-4.4,5.8-10.1,10.6-17.4,14.8C1032.6,301.3,1031.8,301.5,1031.1,301.5z M1020.8,257.3c-0.9,0-1.9,0.1-3,0.4
						c-4.3,1.1-7.1,4.5-7.6,8.9c-0.4,4.3,0.4,8.4,2.5,12.3c3.8,6.9,9.6,12.5,18.3,17.6c6.6-3.8,11.6-8.1,15.5-13.3
						c3.7-4.9,5.5-9.8,5.4-15c-0.1-4.9-2-8.1-5.9-9.9c-6.3-2.9-10.6,0.4-13.1,3.7c-0.5,0.6-1.2,0.9-1.9,1c-0.8,0-1.5-0.4-1.9-1
						C1026.8,258.9,1024,257.3,1020.8,257.3z"/>
				</g>
			</g>
		</g>
	</g>
	<g>
		<g>
			<g>
				<path d="M1051.7,543.5h-37.3c-1.3,0-2.5-0.8-3-1.9l-15.9-41.7h-4.8c-1.7,0-3.1-1.3-3.1-2.8c0-1.6,1.4-2.8,3.1-2.8h7
					c1.3,0,2.5,0.8,3,1.9l15.9,41.7h35.1c1.7,0,3.1,1.3,3.1,2.8S1053.4,543.5,1051.7,543.5z"/>
			</g>
			<g>
				<path d="M1055.3,531.8h-45.4c-1.3,0-2.5-0.8-3-1.9l-9.3-24.3c-0.3-0.9-0.2-1.8,0.4-2.6c0.6-0.7,1.5-1.2,2.6-1.2h62.1
					c1,0,1.9,0.4,2.5,1.1c0.6,0.7,0.8,1.6,0.5,2.5l-7.5,24.3C1057.9,530.9,1056.7,531.8,1055.3,531.8z M1012.1,526.1h40.8l5.7-18.6
					H1005L1012.1,526.1z"/>
			</g>
			<g>
				<circle cx="1046.4" cy="553.2" r="5.6"/>
			</g>
			<g>
				<circle cx="1019.9" cy="553.2" r="5.6"/>
			</g>
		</g>
	</g>
	<g>
		<g>
			<g>
				<path d="M1030.9,802.5c-1.7,0-3.3-0.8-4.4-2.2c-4.5-6.1-22.3-34.4-22.3-46.9c0-14.7,11.9-26.6,26.6-26.6
					c14.7,0,26.6,11.9,26.6,26.6c0,12.4-17.7,40.8-22.3,46.9C1034.3,801.7,1032.7,802.5,1030.9,802.5z M1030.9,733
					c-11.3,0-20.5,9.2-20.5,20.5c0,8.9,13.8,33,20.5,42.4c6.7-9.4,20.5-33.5,20.5-42.4C1051.4,742.1,1042.2,733,1030.9,733z"/>
			</g>
			<g>
				<circle cx="1030.9" cy="753.4" r="10.2"/>
			</g>
		</g>
	</g>
	<g>
		<g>
			<path d="M1490.4,561.5c-25.4,0-46-20.7-46-46c0-25.4,20.7-46,46-46s46,20.7,46,46C1536.5,540.8,1515.8,561.5,1490.4,561.5z
				 M1490.4,472.8c-23.5,0-42.6,19.1-42.6,42.6c0,23.5,19.1,42.6,42.6,42.6c23.5,0,42.6-19.1,42.6-42.6
				C1533.1,491.9,1513.9,472.8,1490.4,472.8z"/>
		</g>
		<g>
			<g>
				<path d="M1498.8,496.5c3.2,0,5.7,2.6,5.7,5.7v50.6c-3.6,1.3-7.4,2.1-11.4,2.3v-52.9C1493.1,499,1495.6,496.5,1498.8,496.5z"/>
			</g>
			<g>
				<path d="M1515.5,512.4c3.2,0,5.7,2.6,5.7,5.7v23.2c-3.2,3.7-7.1,6.8-11.4,9.1v-32.3C1509.7,515,1512.3,512.4,1515.5,512.4z"/>
			</g>
			<g>
				<path d="M1482.1,520.4c3.2,0,5.7,2.6,5.7,5.7v28.9c-4-0.3-7.8-1.2-11.4-2.6v-26.3C1476.4,523,1478.9,520.4,1482.1,520.4z"/>
			</g>
			<g>
				<path d="M1465.4,531.5c3.2,0,5.7,2.6,5.7,5.7V550c-4.4-2.5-8.3-5.8-11.4-9.7v-3C1459.7,534.1,1462.3,531.5,1465.4,531.5z"/>
			</g>
		</g>
		<g>
			<circle cx="1458.2" cy="521.8" r="4"/>
		</g>
		<g>
			<circle cx="1499.3" cy="484" r="4"/>
		</g>
		<g>
			<circle cx="1479.6" cy="503.8" r="4"/>
		</g>
		<g>
			<circle cx="1521.2" cy="500.5" r="4"/>
		</g>
		<g>
			<polygon points="1459.2,523 1457.1,520.5 1478.5,502.6 1499.2,481.9 1522.1,498.8 1520.2,501.4 1499.5,486.2 1480.6,505 			"/>
		</g>
	</g>
	<g>
		<polygon class="st3" points="1288.2,943.6 581.4,943.6 581.4,896.3 582.8,896.3 582.8,942.1 1286.7,942.1 1286.7,896.3 
			1288.2,896.3 		"/>
	</g>
	<g>
		<polygon class="st3" points="1491.2,1060.6 165.1,1060.6 165.1,913.1 166.5,913.1 166.5,1059.1 1489.7,1059.1 1489.7,913.1 
			1491.2,913.1 		"/>
	</g>
</g>
<g id="blacks">
</g>
<g id="whites">
	<g>
		<text transform="matrix(1 0 0 1 928.7289 388.4049)"><tspan x="0" y="0" class="st6 st7 st8">like/overall &amp; deep</tspan><tspan x="33.3" y="25" class="st6 st7 st8">engagement</tspan></text>
	</g>
	<g>
		<text transform="matrix(1 0 0 1 933.7592 634.5603)"><tspan x="0" y="0" class="st6 st7 st8">purchase intent &amp;</tspan><tspan x="-7.4" y="25" class="st6 st7 st8">channel preference</tspan></text>
	</g>
	<g>
		<text transform="matrix(1 0 0 1 962.2934 873.187)"><tspan x="0" y="0" class="st6 st7 st8">geo-fencing:</tspan><tspan x="-42.2" y="25" class="st6 st7 st8">Brick-&amp;-Mortar visit</tspan></text>
	</g>
	<g>
		<text transform="matrix(1 0 0 1 1429.7383 649.3854)"><tspan x="0" y="0" class="st6 st7 st8">like/overall</tspan><tspan x="-8.3" y="25" class="st6 st7 st8">engagement</tspan><tspan x="-36.5" y="75" class="st6 st7 st8">purchase intent &amp;</tspan><tspan x="-43.9" y="100" class="st6 st7 st8">channel preference</tspan><tspan x="-8" y="150" class="st6 st7 st8">geo-fencing:</tspan><tspan x="-50.2" y="175" class="st6 st7 st8">Brick-&amp;-Mortar visit</tspan></text>
	</g>
	<g>
		<text transform="matrix(1 0 0 1 732.8134 994.7593)" class="st6 st7 st9">Direct Deep Data Platform™</text>
	</g>
	<g>
		<text transform="matrix(1 0 0 1 698.0854 1124.2332)" class="st6 st7 st9">3D:Data: Deep Tracking Platform</text>
	</g>
	<g>
		<path class="st6" d="M163.3,257.1c1.6,0,2.9-1.3,2.9-2.9s-1.3-2.9-2.9-2.9s-2.9,1.3-2.9,2.9S161.7,257.1,163.3,257.1z M163.3,252
			c1.2,0,2.1,0.9,2.1,2.1s-0.9,2.1-2.1,2.1s-2.1-0.9-2.1-2.1S162.1,252,163.3,252z"/>
		<path class="st6" d="M125.5,273.9c2.5,0,4.6-2.1,4.6-4.6s-2.1-4.6-4.6-4.6c-2.5,0-4.6,2.1-4.6,4.6S122.9,273.9,125.5,273.9z
			 M125.5,265.5c2.1,0,3.8,1.7,3.8,3.8s-1.7,3.8-3.8,3.8s-3.8-1.7-3.8-3.8S123.4,265.5,125.5,265.5z"/>
		<path class="st6" d="M145.7,271.8h35.3c1.2,0,2.1-0.9,2.1-2.1s-0.9-2.1-2.1-2.1h-35.3c-1.2,0-2.1,0.9-2.1,2.1
			S144.5,271.8,145.7,271.8z M145.7,268.4h35.3c0.7,0,1.3,0.6,1.3,1.3s-0.6,1.3-1.3,1.3h-35.3c-0.7,0-1.3-0.6-1.3-1.3
			S145,268.4,145.7,268.4z"/>
		<path class="st6" d="M41.9,722.4H283V294H41.9V722.4z M42.7,294.9h239.4v426.7H42.7V294.9z"/>
		<path class="st6" d="M162,727.9c-10,0-18.1,8.1-18.1,18.1S152.1,764,162,764c10,0,18.1-8.1,18.1-18.1S172,727.9,162,727.9z
			 M162,763.2c-9.5,0-17.2-7.7-17.2-17.2s7.7-17.2,17.2-17.2s17.2,7.7,17.2,17.2S171.5,763.2,162,763.2z"/>
		<path class="st6" d="M296.4,340.3v-66.3c0-20.4-16.6-37-37-37H65.5c-20.4,0-37,16.6-37,37v26.4c-1.4,0.2-2.5,1.4-2.5,2.9v14.3
			c0,1.5,1.1,2.7,2.5,2.9v20.3c-1.4,0.2-2.5,1.4-2.5,2.9v30.2c0,1.5,1.1,2.7,2.5,2.9v7.5c-1.4,0.2-2.5,1.4-2.5,2.9v30.2
			c0,1.5,1.1,2.7,2.5,2.9v323.9c0,20.4,16.6,37,37,37h193.9c20.4,0,37-16.6,37-37V376.3c1.4-0.2,2.5-1.4,2.5-2.9v-30.2
			C298.9,341.7,297.8,340.5,296.4,340.3z M26.8,317.5v-14.3c0-1,0.7-1.9,1.7-2.1v18.4C27.5,319.4,26.8,318.6,26.8,317.5z
			 M26.8,373.8v-30.2c0-1,0.7-1.9,1.7-2.1v34.4C27.5,375.7,26.8,374.8,26.8,373.8z M26.8,417.4v-30.2c0-1,0.7-1.9,1.7-2.1v34.4
			C27.5,419.3,26.8,418.4,26.8,417.4z M295.6,744.2c0,20-16.2,36.2-36.2,36.2H65.5c-20,0-36.2-16.2-36.2-36.2V420.3v-36.1v-7.5
			v-36.1v-20.2v-20.2v-26.4c0-20,16.2-36.2,36.2-36.2h193.9c20,0,36.2,16.2,36.2,36.2v66.3v36.1V744.2z M298.1,373.4
			c0,1-0.7,1.9-1.7,2.1v-34.4c1,0.2,1.7,1,1.7,2.1V373.4z"/>
		<path class="st6" d="M589,260.8c1.6,0,2.9-1.3,2.9-2.9s-1.3-2.9-2.9-2.9s-2.9,1.3-2.9,2.9S587.4,260.8,589,260.8z M589,255.8
			c1.2,0,2.1,0.9,2.1,2.1s-0.9,2.1-2.1,2.1s-2.1-0.9-2.1-2.1S587.8,255.8,589,255.8z"/>
		<path class="st6" d="M551.2,277.6c2.5,0,4.6-2.1,4.6-4.6s-2.1-4.6-4.6-4.6s-4.6,2.1-4.6,4.6S548.6,277.6,551.2,277.6z
			 M551.2,269.2c2.1,0,3.8,1.7,3.8,3.8s-1.7,3.8-3.8,3.8s-3.8-1.7-3.8-3.8S549.1,269.2,551.2,269.2z"/>
		<path class="st6" d="M571.3,275.5h35.3c1.2,0,2.1-0.9,2.1-2.1s-0.9-2.1-2.1-2.1h-35.3c-1.2,0-2.1,0.9-2.1,2.1
			S570.2,275.5,571.3,275.5z M571.3,272.2h35.3c0.7,0,1.3,0.6,1.3,1.3s-0.6,1.3-1.3,1.3h-35.3c-0.7,0-1.3-0.6-1.3-1.3
			S570.6,272.2,571.3,272.2z"/>
		<path class="st6" d="M467.6,726.2h241.1V297.8H467.6V726.2z M468.4,298.6h239.4v426.7H468.4V298.6z"/>
		<path class="st6" d="M587.7,731.7c-10,0-18.1,8.1-18.1,18.1c0,10,8.1,18.1,18.1,18.1s18.1-8.1,18.1-18.1
			C605.8,739.8,597.7,731.7,587.7,731.7z M587.7,766.9c-9.5,0-17.2-7.7-17.2-17.2c0-9.5,7.7-17.2,17.2-17.2s17.2,7.7,17.2,17.2
			C604.9,759.2,597.2,766.9,587.7,766.9z"/>
		<path class="st6" d="M722.1,344v-66.3c0-20.4-16.6-37-37-37H491.2c-20.4,0-37,16.6-37,37v26.4c-1.4,0.2-2.5,1.4-2.5,2.9v14.3
			c0,1.5,1.1,2.7,2.5,2.9v20.3c-1.4,0.2-2.5,1.4-2.5,2.9v30.2c0,1.5,1.1,2.7,2.5,2.9v7.5c-1.4,0.2-2.5,1.4-2.5,2.9v30.2
			c0,1.5,1.1,2.7,2.5,2.9V748c0,20.4,16.6,37,37,37h193.9c20.4,0,37-16.6,37-37V380.1c1.4-0.2,2.5-1.4,2.5-2.9v-30.2
			C724.6,345.5,723.5,344.2,722.1,344z M452.5,321.3V307c0-1,0.7-1.9,1.7-2.1v18.4C453.2,323.2,452.5,322.3,452.5,321.3z
			 M452.5,377.6v-30.2c0-1,0.7-1.9,1.7-2.1v34.4C453.2,379.5,452.5,378.6,452.5,377.6z M452.5,421.2v-30.2c0-1,0.7-1.9,1.7-2.1v34.4
			C453.2,423,452.5,422.2,452.5,421.2z M721.3,748c0,20-16.2,36.2-36.2,36.2H491.2c-20,0-36.2-16.2-36.2-36.2V424.1V388v-7.5v-36.1
			v-20.2v-20.2v-26.4c0-20,16.2-36.2,36.2-36.2h193.9c20,0,36.2,16.2,36.2,36.2V344v36.1V748z M723.8,377.2c0,1-0.7,1.9-1.7,2.1
			v-34.4c1,0.2,1.7,1,1.7,2.1V377.2z"/>
	</g>
	<text transform="matrix(1 0 0 1 567.0095 607.1016)" class="st6 st7 st10">adidas store</text>
	<text transform="matrix(1 0 0 1 562.5744 619.3877)" class="st6 st7 st10">adidas.com.mx</text>
	<text transform="matrix(1 0 0 1 558.2077 631.6748)" class="st6 st7 st10">mistertennis.com</text>
	<text transform="matrix(1 0 0 1 572.6354 643.9609)" class="st6 st7 st10">marti.mx</text>
	<text transform="matrix(1 0 0 1 91.3905 106.6055)"><tspan x="0" y="0" class="st6 st7 st9">Posting by</tspan><tspan x="4.4" y="37" class="st6 st7 st9">influencer</tspan></text>
	<text transform="matrix(1 0 0 1 497.8041 106.6055)"><tspan x="0" y="0" class="st6 st7 st9">Direct deep</tspan><tspan x="11" y="37" class="st6 st7 st9">data page</tspan></text>
	<text transform="matrix(1 0 0 1 1325.4318 106.6055)"><tspan x="0" y="0" class="st6 st7 st9">Deep Insight &amp; Analytic </tspan><tspan x="89" y="37" class="st6 st7 st9">Breakdown</tspan></text>
	<text transform="matrix(1 0 0 1 495.892 571.7682)" class="st6 st7 st11">Check out my super cool new shoes. Check them out in 3D here</text>
	<text transform="matrix(1 0 0 1 560.3521 585.4313)" class="st6 st7 st12">Buy them here:</text>
	<text transform="matrix(1 0 0 1 968.3008 106.4831)"><tspan x="0" y="0" class="st6 st7 st9">Deep Data </tspan><tspan x="-58" y="37" class="st6 st7 st9">Capture &amp; Tracking</tspan></text>
</g>
</svg>
