<?xml version="1.0" encoding="utf-8"?>
<!-- Generator: Adobe Illustrator 22.0.1, SVG Export Plug-In . SVG Version: 6.00 Build 0)  -->
<svg version="1.1" id="Layer_1" xmlns="http://www.w3.org/2000/svg" xmlns:xlink="http://www.w3.org/1999/xlink" x="0px" y="0px"
	 viewBox="0 0 100 100" style="enable-background:new 0 0 100 100;" xml:space="preserve">
<style type="text/css">
	.st0{fill:#FDED22;}
</style>
<g>
	<polygon class="st0" points="7.2,25.2 7.2,75.1 50.5,100.1 93.8,75.1 93.8,25.2 50.5,0.2 	"/>
</g>
<g>
	<g>
		<g>
			<path d="M58.5,72.8c-0.7,0-1.4-0.5-1.6-1.2c-0.3-0.9,0.2-1.8,1.1-2c11.4-3.4,19.4-14.1,19.4-26c0-14.9-12.2-27.1-27.1-27.1
				c-14.9,0-27.1,12.2-27.1,27.1c0,11.9,8,22.6,19.4,26c0.9,0.3,1.4,1.2,1.1,2c-0.3,0.9-1.2,1.4-2,1.1
				c-12.8-3.8-21.8-15.8-21.8-29.1c0-16.8,13.6-30.4,30.4-30.4s30.4,13.6,30.4,30.4c0,13.4-9,25.4-21.8,29.1
				C58.8,72.7,58.6,72.8,58.5,72.8z"/>
		</g>
		<path d="M76.3,63.2c-0.9-0.2-1.8,0.4-1.9,1.3c-0.2,0.9,0.4,1.8,1.3,1.9l3.9,0.8L60.8,78.5l-9.4-8.1c-0.5-0.5-1.3-0.5-1.9-0.2
			l-16,9.1c-0.8,0.4-1.1,1.5-0.6,2.2c0.3,0.5,0.9,0.8,1.4,0.8c0.3,0,0.6-0.1,0.8-0.2l15-8.6l9.5,8.1c0.5,0.5,1.3,0.5,1.9,0.2
			l19.7-12l-1.2,4.5c-0.2,0.9,0.3,1.8,1.2,2c0.1,0,0.3,0.1,0.4,0.1c0.7,0,1.4-0.5,1.6-1.2L86,65.1L76.3,63.2z"/>
	</g>
	<g>
		<path d="M48.6,63.1v-4.3c-2.5,0-5-0.8-6.5-1.9l1-2.8c1.5,1,3.7,1.8,6.1,1.8c3,0,5-1.7,5-4.2c0-2.3-1.7-3.8-4.8-5
			c-4.3-1.7-7-3.6-7-7.3c0-3.5,2.5-6.2,6.4-6.8v-4.3h2.6v4.1c2.5,0.1,4.3,0.8,5.5,1.5L56,36.7c-0.9-0.5-2.6-1.4-5.3-1.4
			c-3.3,0-4.5,1.9-4.5,3.6c0,2.2,1.6,3.3,5.3,4.8c4.4,1.8,6.6,4,6.6,7.8c0,3.3-2.3,6.5-6.7,7.2v4.4H48.6z"/>
	</g>
</g>
</svg>
