<?xml version="1.0" encoding="utf-8"?>
<!-- Generator: Adobe Illustrator 22.0.1, SVG Export Plug-In . SVG Version: 6.00 Build 0)  -->
<svg version="1.1" id="Layer_1" xmlns="http://www.w3.org/2000/svg" xmlns:xlink="http://www.w3.org/1999/xlink" x="0px" y="0px"
	 viewBox="0 0 100 100" style="enable-background:new 0 0 100 100;" xml:space="preserve">
<g>
	<polygon style="fill:#FDED22;" points="6.8,25 6.8,74.9 50,99.9 93.2,74.9 93.2,25 50,0.1 	"/>
</g>
<g>
	<path d="M50,86.1c-20.3,0-36.8-16.5-36.8-36.8S29.7,12.5,50,12.5S86.8,29,86.8,49.3S70.3,86.1,50,86.1z M50,15.8
		c-18.5,0-33.5,15-33.5,33.5s15,33.5,33.5,33.5s33.5-15,33.5-33.5S68.5,15.8,50,15.8z"/>
</g>
<path d="M74.3,43.7c-1.6,0-3.1,0.6-4.2,1.7l-14.3-10c0.3-0.7,0.4-1.4,0.4-2.1c0-3.3-2.7-6-6-6s-6,2.7-6,6c0,0.8,0.2,1.6,0.5,2.4
	l-15,9.7c-1.1-0.9-2.4-1.5-4-1.5c-3.3,0-6,2.7-6,6s2.7,6,6,6c1.7,0,3.3-0.7,4.4-1.9L45,63.3c-0.2,0.7-0.4,1.4-0.4,2.1
	c0,3.3,2.7,6,6,6s6-2.7,6-6c0-0.8-0.1-1.5-0.4-2.1l14.1-9.1c1.1,0.9,2.4,1.5,4,1.5c3.3,0,6-2.7,6-6C80.3,46.4,77.6,43.7,74.3,43.7z
	 M26.9,53L26.9,53c-0.2,0.1-0.4,0.1-0.6,0.2h-0.1c-0.2,0-0.4,0-0.6,0l0,0l0,0l0,0c-1.9,0-3.5-1.6-3.5-3.5s1.6-3.5,3.5-3.5l0,0l0,0
	l0,0c0.1,0,0.3,0,0.4,0h0.1c0.1,0,0.2,0,0.3,0.1h0.1c1.5,0.4,2.6,1.8,2.6,3.4C29.3,51.2,28.3,52.5,26.9,53z M54.5,37.4l14.3,10
	c-0.1,0.3-0.3,0.7-0.3,1.1H56.1c-0.4-2.4-2.2-4.2-4.5-4.8V39C52.7,38.7,53.7,38.2,54.5,37.4z M53.7,49.4c0,2-1.6,3.5-3.5,3.5
	c-2,0-3.5-1.6-3.5-3.5s1.6-3.5,3.5-3.5C52.2,45.9,53.7,47.5,53.7,49.4z M50.2,29.6c2,0,3.5,1.6,3.5,3.5s-1.6,3.5-3.5,3.5
	c-2,0-3.5-1.6-3.5-3.5S48.2,29.6,50.2,29.6z M46.1,37.5c0.8,0.8,1.9,1.3,3.1,1.5v4.5c-2.5,0.4-4.5,2.4-4.9,4.9H31.6
	c-0.1-0.5-0.2-0.9-0.4-1.3L46.1,37.5z M46.3,61.2l-14.9-9.5c0.1-0.3,0.2-0.5,0.2-0.8h12.8c0.6,2.3,2.4,4.1,4.8,4.5v4.2
	C48.1,59.9,47.1,60.4,46.3,61.2z M50.7,69c-2,0-3.5-1.6-3.5-3.5s1.6-3.5,3.5-3.5c2,0,3.5,1.6,3.5,3.5S52.7,69,50.7,69z M54.9,61.2
	c-0.9-0.9-2-1.5-3.2-1.7v-4.2c2.2-0.5,3.9-2.2,4.4-4.4h12.4c0.1,0.5,0.2,0.9,0.4,1.3L54.9,61.2z M74.3,53.2c-2,0-3.5-1.6-3.5-3.5
	s1.6-3.5,3.5-3.5s3.5,1.6,3.5,3.5S76.3,53.2,74.3,53.2z"/>
</svg>
