<svg version="1.1" id="Layer_1" xmlns="http://www.w3.org/2000/svg" xmlns:xlink="http://www.w3.org/1999/xlink" x="0px" y="0px"
	 viewBox="0 0 244.9 149.2" style="enable-background:new 0 0 244.9 149.2;" xml:space="preserve">
<path d="M87.7,143.6c-11.7,0-13.2-11.1-13.2-11.1l-20.2,11.2c0,0-1.2,0.1-10.5,0.1c-34.7,0-39.3-20.4-39.3-49.7
	c0-28.2,5.1-51.1,37-51.1c8.8,0,12.4,1.3,18.6,2.1L73.8,55V3.2h18.3v123.6l4.1,2.8v14L87.7,143.6L87.7,143.6z M73.8,60.5
	c-2.3-0.2-15.1-1.4-25.7-1.4c-20.8,0-24.9,9.4-24.9,36c0,29.2,4.6,33.7,25.4,33.7c12.2,0,25.3-2.4,25.3-2.4L73.8,60.5L73.8,60.5z"/>
<path id="yellow" d="M118.1,69.7v-24h24.2v24H118.1z M118.1,141.7v-24h24.2v24H118.1z"/>
<path d="M203.3,145.2c-22.9,0-37.1-6.2-37.1-6.2l3.7-13.4c0,0,15.9,4.3,32.4,4.3c15.9,0,22.3-5.4,22.3-14.8c0-12.8-7.2-10.4-24-11.7
	c-19.8-1.3-36.4-1.1-36.4-28.4c0-24.8,13.5-31.3,39.7-31.3c18.2,0,31.8,4.5,31.8,4.5l-3.5,13.6c0,0-12.2-2.2-28-2.2
	c-16.8,0-23,2.9-23,13.9c0,12.3,3.8,12.9,24.5,12.9c22,0,36.3,1.1,36.3,28.2C242.2,139.4,226.4,145.2,203.3,145.2z"/>
</svg>
