
<svg version="1.1" id="Layer_1" xmlns="http://www.w3.org/2000/svg" xmlns:xlink="http://www.w3.org/1999/xlink" x="0px" y="0px"
	 viewBox="0 0 697.9 3948.6" style="enable-background:new 0 0 697.9 3948.6;" xml:space="preserve">
<g id="blacks">
</g>
<g>
	<path style="fill:none;stroke:#FFFFFF;stroke-width:0.6;stroke-miterlimit:10;" d="M446,735.3H252.1c-20.2,0-36.6-16.4-36.6-36.6
		V228.4c0-20.2,16.4-36.6,36.6-36.6H446c20.2,0,36.6,16.4,36.6,36.6v470.2C482.6,718.9,466.2,735.3,446,735.3z"/>
	<circle style="fill:none;stroke:#FFFFFF;stroke-width:0.6;stroke-miterlimit:10;" cx="349.9" cy="208.6" r="2.5"/>
	<circle style="fill:none;stroke:#FFFFFF;stroke-width:0.6;stroke-miterlimit:10;" cx="312.1" cy="223.7" r="4.2"/>
	<g>
		<path style="fill:none;stroke:#FFFFFF;stroke-width:0.6;stroke-miterlimit:10;" d="M367.6,225.8h-35.3c-0.9,0-1.7-0.8-1.7-1.7
			c0-0.9,0.8-1.7,1.7-1.7h35.3c0.9,0,1.7,0.8,1.7,1.7C369.2,225.1,368.5,225.8,367.6,225.8z"/>
	</g>
	<rect x="229" y="248.9" style="fill:none;stroke:#FFFFFF;stroke-width:0.6;stroke-miterlimit:10;" width="240.2" height="427.6"/>
	<circle style="fill:none;stroke:#FFFFFF;stroke-width:0.6;stroke-miterlimit:10;" cx="348.7" cy="700.4" r="17.6"/>
	<path style="fill:none;stroke:#FFFFFF;stroke-width:0.6;stroke-miterlimit:10;" d="M215.5,274.6L215.5,274.6
		c-1.4,0-2.5-1.1-2.5-2.5v-14.3c0-1.4,1.1-2.5,2.5-2.5l0,0V274.6z"/>
	<path style="fill:none;stroke:#FFFFFF;stroke-width:0.6;stroke-miterlimit:10;" d="M215.5,330.8L215.5,330.8
		c-1.4,0-2.5-1.1-2.5-2.5v-30.2c0-1.4,1.1-2.5,2.5-2.5l0,0V330.8z"/>
	<path style="fill:none;stroke:#FFFFFF;stroke-width:0.6;stroke-miterlimit:10;" d="M215.5,374.4L215.5,374.4
		c-1.4,0-2.5-1.1-2.5-2.5v-30.2c0-1.4,1.1-2.5,2.5-2.5l0,0V374.4z"/>
	<path style="fill:none;stroke:#FFFFFF;stroke-width:0.6;stroke-miterlimit:10;" d="M482.6,330.4L482.6,330.4v-35.3l0,0
		c1.4,0,2.5,1.1,2.5,2.5v30.2C485.2,329.3,484,330.4,482.6,330.4z"/>
</g>
<g>
	<path style="fill:none;stroke:#FFFFFF;stroke-width:0.6;stroke-miterlimit:10;" d="M446,1682.1H252.1c-20.2,0-36.6-16.4-36.6-36.6
		v-470.2c0-20.2,16.4-36.6,36.6-36.6H446c20.2,0,36.6,16.4,36.6,36.6v470.2C482.6,1665.7,466.2,1682.1,446,1682.1z"/>
	<circle style="fill:none;stroke:#FFFFFF;stroke-width:0.6;stroke-miterlimit:10;" cx="349.9" cy="1155.4" r="2.5"/>
	<circle style="fill:none;stroke:#FFFFFF;stroke-width:0.6;stroke-miterlimit:10;" cx="312.1" cy="1170.5" r="4.2"/>
	<g>
		<path style="fill:none;stroke:#FFFFFF;stroke-width:0.6;stroke-miterlimit:10;" d="M367.6,1172.6h-35.3c-0.9,0-1.7-0.8-1.7-1.7
			c0-0.9,0.8-1.7,1.7-1.7h35.3c0.9,0,1.7,0.8,1.7,1.7C369.2,1171.9,368.5,1172.6,367.6,1172.6z"/>
	</g>
	<rect x="229" y="1195.7" style="fill:none;stroke:#FFFFFF;stroke-width:0.6;stroke-miterlimit:10;" width="240.2" height="427.6"/>
	<circle style="fill:none;stroke:#FFFFFF;stroke-width:0.6;stroke-miterlimit:10;" cx="348.7" cy="1647.2" r="17.6"/>
	<path style="fill:none;stroke:#FFFFFF;stroke-width:0.6;stroke-miterlimit:10;" d="M215.5,1221.3L215.5,1221.3
		c-1.4,0-2.5-1.1-2.5-2.5v-14.3c0-1.4,1.1-2.5,2.5-2.5l0,0V1221.3z"/>
	<path style="fill:none;stroke:#FFFFFF;stroke-width:0.6;stroke-miterlimit:10;" d="M215.5,1277.6L215.5,1277.6
		c-1.4,0-2.5-1.1-2.5-2.5v-30.2c0-1.4,1.1-2.5,2.5-2.5l0,0V1277.6z"/>
	<path style="fill:none;stroke:#FFFFFF;stroke-width:0.6;stroke-miterlimit:10;" d="M215.5,1321.2L215.5,1321.2
		c-1.4,0-2.5-1.1-2.5-2.5v-30.2c0-1.4,1.1-2.5,2.5-2.5l0,0V1321.2z"/>
	<path style="fill:none;stroke:#FFFFFF;stroke-width:0.6;stroke-miterlimit:10;" d="M482.6,1277.2L482.6,1277.2v-35.3l0,0
		c1.4,0,2.5,1.1,2.5,2.5v30.2C485.2,1276.1,484,1277.2,482.6,1277.2z"/>
</g>
<g>
	<g>
		<polyline style="fill:none;stroke:#FDED22;stroke-width:1.433;stroke-miterlimit:10;" points="372.7,863.1 349.1,886.7 
			325.4,863.1 		"/>
	</g>
	<line style="fill:none;stroke:#FDED22;stroke-width:1.433;stroke-miterlimit:10;" x1="349.1" y1="886.7" x2="349.1" y2="809.7"/>
</g>
<g>
	<g>
		<polyline style="fill:none;stroke:#FDED22;stroke-width:2;stroke-miterlimit:10;" points="608.2,2197 584.6,2220.6 560.9,2197 		
			"/>
	</g>
	<line style="fill:none;stroke:#FDED22;stroke-width:2;stroke-miterlimit:10;" x1="584.6" y1="2220.6" x2="584.6" y2="2143.6"/>
</g>
<g>
	<g>
		<polyline style="fill:none;stroke:#FDED22;stroke-width:2;stroke-miterlimit:10;" points="127.2,2197 103.6,2220.6 79.9,2197 		
			"/>
	</g>
	<line style="fill:none;stroke:#FDED22;stroke-width:2;stroke-miterlimit:10;" x1="103.6" y1="2220.6" x2="103.6" y2="2143.6"/>
</g>
<polygon style="fill:#FDED22;" points="35.7,2321.1 35.7,2400 104,2439.4 172.3,2400 172.3,2321.1 104,2281.7 "/>
<polygon style="fill:#FDED22;" points="278.7,2321.1 278.7,2400 347,2439.4 415.3,2400 415.3,2321.1 347,2281.7 "/>
<polygon style="fill:#FDED22;" points="516.8,2321.1 516.8,2400 585.1,2439.4 653.4,2400 653.4,2321.1 585.1,2281.7 "/>
<polygon style="fill:#FDED22;" points="280,3040.5 280,3119.4 348.3,3158.8 416.6,3119.4 416.6,3040.5 348.3,3001.1 "/>
<g>
	<path d="M104,2406.6c-25.4,0-46-20.7-46-46c0-25.4,20.7-46,46-46c25.4,0,46,20.7,46,46C150,2386,129.4,2406.6,104,2406.6z
		 M104,2317.9c-23.5,0-42.6,19.1-42.6,42.6c0,23.5,19.1,42.6,42.6,42.6c23.5,0,42.6-19.1,42.6-42.6
		C146.6,2337.1,127.5,2317.9,104,2317.9z"/>
	<g id="QFpcpL.tif">
		<g>
			<path d="M103.9,2389.1c-0.6,0-1.2-0.1-1.8-0.4c-9.8-5.6-16.4-11.9-20.7-19.8c-2.6-4.8-3.6-9.8-3.1-15.1
				c0.7-6.4,4.9-11.5,11.1-13.1c5.6-1.5,10.5-0.1,14.5,3.9c4.8-4.7,11-5.8,17-3c5.6,2.6,8.6,7.5,8.7,14.2c0.1,6.3-2,12.2-6.3,18
				c-4.4,5.8-10.1,10.6-17.4,14.8C105.5,2388.9,104.7,2389.1,103.9,2389.1z M93.7,2344.9c-0.9,0-1.9,0.1-3,0.4
				c-4.3,1.1-7.1,4.5-7.6,8.9c-0.4,4.3,0.4,8.4,2.5,12.3c3.8,6.9,9.6,12.5,18.3,17.6c6.6-3.8,11.6-8.1,15.5-13.3
				c3.7-4.9,5.5-9.8,5.4-15c-0.1-4.9-2-8.1-5.9-9.9c-6.3-2.9-10.6,0.4-13.1,3.7c-0.5,0.6-1.2,0.9-1.9,1c-0.8,0-1.5-0.4-1.9-1
				C99.7,2346.5,96.9,2344.9,93.7,2344.9z"/>
		</g>
	</g>
</g>
<g>
	<g>
		<path d="M367.6,2377.5h-37.3c-1.3,0-2.5-0.8-3-1.9l-15.9-41.7h-4.8c-1.7,0-3.1-1.3-3.1-2.8s1.4-2.8,3.1-2.8h7c1.3,0,2.5,0.8,3,1.9
			l15.9,41.7h35.1c1.7,0,3.1,1.3,3.1,2.8S369.3,2377.5,367.6,2377.5z"/>
		<path d="M371.2,2365.8h-45.4c-1.3,0-2.5-0.8-3-1.9l-9.3-24.3c-0.3-0.9-0.2-1.8,0.4-2.6c0.6-0.7,1.5-1.2,2.6-1.2h62.1
			c1,0,1.9,0.4,2.5,1.1c0.6,0.7,0.8,1.6,0.5,2.5l-7.5,24.3C373.8,2364.9,372.6,2365.8,371.2,2365.8z M328,2360.1h40.8l5.7-18.6
			h-53.6L328,2360.1z"/>
		<path d="M367.9,2387.3c0,3.1-2.5,5.6-5.6,5.6s-5.6-2.5-5.6-5.6c0-3.1,2.5-5.6,5.6-5.6S367.9,2384.2,367.9,2387.3z"/>
		<path d="M341.4,2387.3c0,3.1-2.5,5.6-5.6,5.6s-5.6-2.5-5.6-5.6c0-3.1,2.5-5.6,5.6-5.6S341.4,2384.2,341.4,2387.3z"/>
	</g>
</g>
<g>
	<g>
		<path d="M584.3,2398.4c-1.7,0-3.3-0.8-4.4-2.2c-4.5-6.1-22.3-34.4-22.3-46.9c0-14.7,11.9-26.6,26.6-26.6
			c14.7,0,26.6,11.9,26.6,26.6c0,12.4-17.7,40.8-22.3,46.9C587.7,2397.6,586.1,2398.4,584.3,2398.4z M584.3,2328.9
			c-11.3,0-20.5,9.2-20.5,20.5c0,8.9,13.8,33,20.5,42.4c6.7-9.4,20.5-33.5,20.5-42.4C604.8,2338.1,595.6,2328.9,584.3,2328.9z"/>
		<circle cx="584.3" cy="2349.4" r="10.2"/>
	</g>
</g>
<g>
	<path d="M348.3,3126c-25.4,0-46-20.7-46-46c0-25.4,20.7-46,46-46c25.4,0,46,20.7,46,46C394.4,3105.3,373.7,3126,348.3,3126z
		 M348.3,3037.3c-23.5,0-42.6,19.1-42.6,42.6s19.1,42.6,42.6,42.6c23.5,0,42.6-19.1,42.6-42.6S371.8,3037.3,348.3,3037.3z"/>
	<g>
		<path d="M356.7,3061c3.2,0,5.7,2.6,5.7,5.7v50.6c-3.6,1.3-7.4,2.1-11.4,2.3v-52.9C351,3063.5,353.5,3061,356.7,3061z"/>
		<path d="M373.3,3076.9c3.2,0,5.7,2.6,5.7,5.7v23.2c-3.2,3.7-7.1,6.8-11.4,9.1v-32.3C367.6,3079.5,370.2,3076.9,373.3,3076.9z"/>
		<path d="M340,3084.9c3.2,0,5.7,2.6,5.7,5.7v28.9c-4-0.3-7.8-1.2-11.4-2.6v-26.3C334.3,3087.5,336.8,3084.9,340,3084.9z"/>
		<path d="M323.3,3096.1c3.2,0,5.7,2.6,5.7,5.7v12.7c-4.4-2.5-8.3-5.8-11.4-9.7v-3C317.6,3098.6,320.1,3096.1,323.3,3096.1z"/>
	</g>
	<path d="M316,3090.3c-2.2,0-4-1.8-4-4c0-2.2,1.8-4,4-4s4,1.8,4,4C320,3088.5,318.3,3090.3,316,3090.3z"/>
	<path d="M357.2,3052.5c-2.2,0-4-1.8-4-4c0-2.2,1.8-4,4-4c2.2,0,4,1.8,4,4C361.2,3050.8,359.4,3052.5,357.2,3052.5z"/>
	<path d="M337.5,3072.3c-2.2,0-4-1.8-4-4s1.8-4,4-4c2.2,0,4,1.8,4,4S339.7,3072.3,337.5,3072.3z"/>
	<path d="M379.1,3069c-2.2,0-4-1.8-4-4s1.8-4,4-4s4,1.8,4,4S381.3,3069,379.1,3069z"/>
	<polygon points="317.1,3087.5 315,3085 336.4,3067.1 357.1,3046.4 380,3063.3 378.1,3065.9 357.4,3050.7 338.5,3069.5 	"/>
</g>
<g>
	<g>
		<polyline style="fill:none;stroke:#FDED22;stroke-width:2;stroke-miterlimit:10;" points="372.7,1835.7 349.1,1859.3 
			325.4,1835.7 		"/>
	</g>
	<line style="fill:none;stroke:#FDED22;stroke-width:2;stroke-miterlimit:10;" x1="349.1" y1="1859.3" x2="349.1" y2="1782.3"/>
</g>
<g>
	<g>
		<polyline style="fill:none;stroke:#FDED22;stroke-width:2;stroke-miterlimit:10;" points="372.7,2655.7 349.1,2679.3 
			325.4,2655.7 		"/>
	</g>
	<line style="fill:none;stroke:#FDED22;stroke-width:2;stroke-miterlimit:10;" x1="349.1" y1="2679.3" x2="349.1" y2="2602.3"/>
</g>
<g>
	<g>
		<polyline style="fill:none;stroke:#FDED22;stroke-width:2;stroke-miterlimit:10;" points="372.7,2196.7 349.1,2220.3 
			325.4,2196.7 		"/>
	</g>
	<line style="fill:none;stroke:#FDED22;stroke-width:2;stroke-miterlimit:10;" x1="349.1" y1="2220.3" x2="349.1" y2="2143.3"/>
</g>
<g>
	<text transform="matrix(1 0 0 1 1.6172 2468.9165)"><tspan x="0" y="0" style="fill:#FFFFFF; font-family:'Titillium Web', sans-serif;  font-size:26px;">like/overall &amp; deep</tspan><tspan x="33.3" y="25" style="fill:#FFFFFF; font-family:'Titillium Web', sans-serif;  font-size:26px;">engagement</tspan></text>
</g>
<g>
	<text transform="matrix(1 0 0 1 249.6475 2469.072)"><tspan x="0" y="0" style="fill:#FFFFFF; font-family:'Titillium Web', sans-serif;  font-size:26px;">purchase intent &amp;</tspan><tspan x="-7.4" y="25" style="fill:#FFFFFF; font-family:'Titillium Web', sans-serif;  font-size:26px;">channel preference</tspan></text>
</g>
<g>
	<text transform="matrix(1 0 0 1 513.5156 2468.6985)"><tspan x="0" y="0" style="fill:#FFFFFF; font-family:'Titillium Web', sans-serif;  font-size:26px;">GEO-fencing:</tspan><tspan x="-38.5" y="25" style="fill:#FFFFFF; font-family:'Titillium Web', sans-serif;  font-size:26px;">Brick-&amp;-Mortar visit</tspan></text>
</g>
<g>
	<text transform="matrix(1 0 0 1 287.6265 3213.8972)"><tspan x="0" y="0" style="fill:#FFFFFF; font-family:'Titillium Web', sans-serif;  font-size:26px;">like/overall</tspan><tspan x="-8.3" y="25" style="fill:#FFFFFF; font-family:'Titillium Web', sans-serif;  font-size:26px;">engagement</tspan><tspan x="-36.5" y="75" style="fill:#FFFFFF; font-family:'Titillium Web', sans-serif;  font-size:26px;">purchase intent &amp;</tspan><tspan x="-43.9" y="100" style="fill:#FFFFFF; font-family:'Titillium Web', sans-serif;  font-size:26px;">channel preference</tspan><tspan x="-11.6" y="150" style="fill:#FFFFFF; font-family:'Titillium Web', sans-serif;  font-size:26px;">GEO-fencing:</tspan><tspan x="-50.2" y="175" style="fill:#FFFFFF; font-family:'Titillium Web', sans-serif;  font-size:26px;">Brick-&amp;-Mortar visit</tspan></text>
</g>
<g>
	<text transform="matrix(1 0 0 1 337.3885 36.6109)" style="fill:#FDED22; font-family:'Titillium Web', sans-serif; font-weight:600;  font-size:41.72px;">1</text>
</g>
<g>
	<rect x="170.5" y="75.5" style="fill:none;" width="357.2" height="144.9"/>
	<text transform="matrix(1 0 0 1 272.7306 100.2169)"><tspan x="0" y="0" style="fill:#FFFFFF; font-family:'Titillium Web', sans-serif;  font-size:34.419px;">Posting by</tspan><tspan x="4.4" y="37" style="fill:#FFFFFF; font-family:'Titillium Web', sans-serif;  font-size:34.419px;">influencer</tspan></text>
</g>
<g>
	<text transform="matrix(1 0 0 1 337.3889 994.6109)" style="fill:#FDED22; font-family:'Titillium Web', sans-serif; font-weight:600;  font-size:41.72px;">2</text>
</g>
<g>
	<text transform="matrix(1 0 0 1 250.3889 3613.6106)" style="fill:#FDED22; font-family:'Titillium Web', sans-serif; font-weight:600;  font-size:41.72px;">2</text>
</g>
<g>
	<text transform="matrix(1 0 0 1 424.3889 3613.6106)" style="fill:#FDED22; font-family:'Titillium Web', sans-serif; font-weight:600;  font-size:41.72px;">3</text>
</g>
<g>
	<rect x="170.5" y="1033.5" style="fill:none;" width="357.2" height="144.9"/>
	<text transform="matrix(1 0 0 1 266.673 1058.2169)"><tspan x="0" y="0" style="fill:#FFFFFF; font-family:'Titillium Web', sans-serif;  font-size:34.419px;">Direct deep</tspan><tspan x="11" y="37" style="fill:#FFFFFF; font-family:'Titillium Web', sans-serif;  font-size:34.419px;">data page</tspan></text>
</g>
<g>
	<text transform="matrix(1 0 0 1 337.3889 1971.611)" style="fill:#FDED22; font-family:'Titillium Web', sans-serif; font-weight:600;  font-size:41.72px;">3</text>
</g>
<g>
	<rect x="134.4" y="2010.5" style="fill:none;" width="429.4" height="144.9"/>
	<text transform="matrix(1 0 0 1 273.3496 2035.2169)"><tspan x="0" y="0" style="fill:#FFFFFF; font-family:'Titillium Web', sans-serif;  font-size:34.419px;">Deep Data</tspan><tspan x="-61.8" y="37" style="fill:#FFFFFF; font-family:'Titillium Web', sans-serif;  font-size:34.419px;">Capture &amp; Tracking</tspan></text>
</g>
<g>
	<text transform="matrix(1 0 0 1 337.3885 2794.6106)" style="fill:#FDED22; font-family:'Titillium Web', sans-serif; font-weight:600;  font-size:41.72px;">4</text>
</g>
<g>
	<rect x="134.4" y="2833.5" style="fill:none;" width="429.4" height="144.9"/>
	<text transform="matrix(1 0 0 1 181.2304 2858.2166)"><tspan x="0" y="0" style="fill:#FFFFFF; font-family:'Titillium Web', sans-serif;  font-size:34.419px;">Deep Insight &amp; Analytic </tspan><tspan x="85.2" y="37" style="fill:#FFFFFF; font-family:'Titillium Web', sans-serif;  font-size:34.419px;">Breakdown</tspan></text>
</g>
<polyline style="fill:none;stroke:#FDED22;stroke-width:2;stroke-miterlimit:10;" points="262.3,3632.9 262.3,3679.4 435.8,3679.4 
	435.8,3632.9 "/>
<g>
	<text transform="matrix(1 0 0 1 250.3889 3824.6106)" style="fill:#FDED22; font-family:'Titillium Web', sans-serif; font-weight:600;  font-size:41.72px;">2</text>
</g>
<g>
	<text transform="matrix(1 0 0 1 77.3889 3824.6106)" style="fill:#FDED22; font-family:'Titillium Web', sans-serif; font-weight:600;  font-size:41.72px;">1</text>
</g>
<g>
	<text transform="matrix(1 0 0 1 424.3889 3824.6106)" style="fill:#FDED22; font-family:'Titillium Web', sans-serif; font-weight:600;  font-size:41.72px;">3</text>
</g>
<g>
	<text transform="matrix(1 0 0 1 598.3889 3824.6106)" style="fill:#FDED22; font-family:'Titillium Web', sans-serif; font-weight:600;  font-size:41.72px;">4</text>
</g>
<polyline style="fill:none;stroke:#FDED22;stroke-width:2;stroke-miterlimit:10;" points="262.3,3843.9 262.3,3890.4 435.8,3890.4 
	435.8,3843.9 "/>
<polyline style="fill:none;stroke:#FDED22;stroke-width:2;stroke-miterlimit:10;" points="89.6,3843.9 89.6,3890.4 609.6,3890.4 
	609.6,3843.9 "/>
<g>
	
		<text transform="matrix(1 0 0 1 144.7017 3720.2708)" style="fill:#FFFFFF; font-family:'Titillium Web', sans-serif;  font-size:34.419px;">Direct Deep Data Platform™</text>
</g>
<g>
	
		<text transform="matrix(1 0 0 1 109.9737 3941.7444)" style="fill:#FFFFFF; font-family:'Titillium Web', sans-serif;  font-size:34.419px;">3D:Data: Deep Tracking Platform</text>
</g>
<g>
	<g>
		<path style="fill:none;stroke:#808080;stroke-width:0.8324;stroke-miterlimit:10;stroke-dasharray:2.0106,2.0106;" d="
			M320.5,295.2c-13.9,2.3-5.3,19.3,19.8,36.8c18.1,12.6,36.4,21.4,50.6,21.4c11.9,0,15.7-3.8,14.9-8.7
			C403.6,331.5,347,290.7,320.5,295.2z"/>
	</g>
	<g>
		<g>
			<path style="fill:none;stroke:#808080;stroke-width:0.8324;stroke-miterlimit:10;" d="M314.3,299c-0.2,0.2-0.4,0.5-0.6,0.8"/>
			<path style="fill:none;stroke:#808080;stroke-width:0.8324;stroke-miterlimit:10;stroke-dasharray:1.9103,1.9103;" d="
				M312.7,301.5c-2.8,4.5-7.2,12.9-7.5,14.9c-0.1,0.5,0,0.9,0.2,1.3"/>
			<path style="fill:none;stroke:#808080;stroke-width:0.8324;stroke-miterlimit:10;" d="M305.8,318.6c0.3,0.5,0.6,0.8,0.6,0.8
				c-0.2,0.2-0.5,0.4-0.8,0.6"/>
			<path style="fill:none;stroke:#808080;stroke-width:0.8324;stroke-miterlimit:10;stroke-dasharray:2.0056,2.0056;" d="
				M304.3,321.5c-6,7.1-18,27.9-26.2,42.8c-7.6,13.8-14,28.2-16.2,33.3"/>
			<path style="fill:none;stroke:#808080;stroke-width:0.8324;stroke-miterlimit:10;" d="M261.5,398.5c-0.3,0.6-0.4,0.9-0.4,0.9"/>
		</g>
	</g>
	<g>
		<path style="fill:none;stroke:#808080;stroke-width:0.8324;stroke-miterlimit:10;stroke-dasharray:2.0044,2.0044;" d="
			M274.6,392.9c-15.3,2.4-16.3,10.9-15.1,15.9c4.6,19.1,27,41.9,33.5,61.8c6.5,19.9,21.9,38.7,38.5,55.7
			c20,20.4,77.5,56.8,106.8,53.1c25.2-3.2,13-21.1,8-26.7c-10.2-11.5-38.4-44.2-45.9-54c-8.5-11.1-38.3-35.3-47.6-48.9
			c-7.8-11.3-22.8-29.9-32.7-40.4C311.5,400.6,289.7,390.6,274.6,392.9z"/>
	</g>
	<g>
		<path style="fill:none;stroke:#808080;stroke-width:0.8324;stroke-miterlimit:10;stroke-dasharray:2.0029,2.0029;" d="
			M269.5,412.5c-16.6,0-20.4,7.7-20.4,16.6c0,8.9,19.8,36.2,25.5,48.5c5.9,12.7,12,37.1,23.8,54c17.9,25.5,89.7,75.9,134.7,69.3
			c34.9-5.1-3.8-40-11.1-47.2c-7.2-7.2-54.4-47.6-64.2-60.8c-9.8-13.2-38.7-48.9-42.5-53.6C311.5,434.6,288.2,412.5,269.5,412.5z"/>
	</g>
	<g>
		<g>
			<path style="fill:none;stroke:#808080;stroke-width:0.8324;stroke-miterlimit:10;" d="M450.7,577.4c0.2-0.2,0.4-0.5,0.7-0.7
				l-0.3,1"/>
			<path style="fill:none;stroke:#808080;stroke-width:0.8324;stroke-miterlimit:10;stroke-dasharray:1.9924,1.9924;" d="
				M450.5,579.5l-3.1,11c-0.8,3.1-10.1,7.3-22.8,7.3c-36.1,0-85.6-32.9-103.2-48.6c-2.1-1.9,2.5-24.8,6.8-20.1
				c12.8,14.1,68.6,53,104.7,53.4c10.9,0.1,14.5-1.8,17.1-4.5"/>
		</g>
	</g>
	<g>
		<g>
			<path style="fill:none;stroke:#808080;stroke-width:0.8324;stroke-miterlimit:10;" d="M364.7,548.2c-0.3-0.2-0.6-0.4-0.9-0.5
				c0.3-0.2,0.6-0.3,0.9-0.5"/>
			<path style="fill:none;stroke:#808080;stroke-width:0.8324;stroke-miterlimit:10;stroke-dasharray:1.9986,1.9986;" d="
				M366.5,546.2c14.4-7.5,31.3-11.3,44.6-10.9c14,0.4,23,5.5,25.9,8.1c3,2.6,15.2,17.9,14.9,21.7c-0.4,5.1-2.6,10.5-14.9,11.5
				c-20,1.6-56.8-19.1-71.4-27.9"/>
		</g>
	</g>
	<g>
		<g>
			
				<line style="fill:none;stroke:#808080;stroke-width:0.8324;stroke-miterlimit:10;" x1="404.1" y1="350.2" x2="403.8" y2="351.1"/>
			<path style="fill:none;stroke:#808080;stroke-width:0.8324;stroke-miterlimit:10;stroke-dasharray:2.0071,2.0071;" d="M403.1,353
				l-10.1,28.2c0,0-6.3,41.7-5,51.9c1.4,10.2,30,69.8,40,87.3c2.2,3.9,2.8,9.8,3,12.9"/>
			<path style="fill:none;stroke:#808080;stroke-width:0.8324;stroke-miterlimit:10;" d="M431,534.3c0,0.6,0,1,0,1l-0.6-0.8"/>
			<path style="fill:none;stroke:#808080;stroke-width:0.8324;stroke-miterlimit:10;stroke-dasharray:1.989,1.989;" d="M429.1,533
				L401,499.8c-9.6-15.5-20-57.3-22.2-74.4c-2.6-19.5,6-57.8,13.5-70.4"/>
			<path style="fill:none;stroke:#808080;stroke-width:0.8324;stroke-miterlimit:10;" d="M392.8,354.2c0.2-0.3,0.4-0.6,0.6-0.8"/>
		</g>
	</g>
	<g>
		<g>
			<path style="fill:none;stroke:#808080;stroke-width:0.8324;stroke-miterlimit:10;" d="M360.2,344.1c-0.3-0.2-0.6-0.3-0.9-0.5
				l-0.8,0.5"/>
			
				<line style="fill:none;stroke:#808080;stroke-width:0.8324;stroke-miterlimit:10;stroke-dasharray:2.2397,2.2397;" x1="356.5" y1="345.3" x2="346.1" y2="351.8"/>
			<path style="fill:none;stroke:#808080;stroke-width:0.8324;stroke-miterlimit:10;" d="M345.1,352.4l-0.8,0.5c0,0,0.2,0.3,0.5,0.8
				"/>
			<path style="fill:none;stroke:#808080;stroke-width:0.8324;stroke-miterlimit:10;stroke-dasharray:1.9855,1.9855;" d="
				M345.8,355.5c1.1,2.1,2.3,5.3,2.3,8.5c0,5.5-5.4,25.2-6.7,32.6c-3.3,18.3,4.3,40.9,6.9,50.2c2.6,9.4,5.4,46.8,5.4,54.9
				c0,7.5-1.8,12.8-6.9,19.7"/>
			<path style="fill:none;stroke:#808080;stroke-width:0.8324;stroke-miterlimit:10;" d="M346.2,522.2c-0.2,0.3-0.4,0.5-0.6,0.8
				l0.9,0.5"/>
			
				<line style="fill:none;stroke:#808080;stroke-width:0.8324;stroke-miterlimit:10;stroke-dasharray:2.1138,2.1138;" x1="348.3" y1="524.5" x2="369.7" y2="536"/>
			<path style="fill:none;stroke:#808080;stroke-width:0.8324;stroke-miterlimit:10;" d="M370.6,536.5l0.9,0.5
				c0.3-0.2,0.5-0.4,0.7-0.7"/>
			<path style="fill:none;stroke:#808080;stroke-width:0.8324;stroke-miterlimit:10;stroke-dasharray:2.0172,2.0172;" d="
				M373.6,534.9c9.4-10.6,12.9-33.2,8.9-51.5c-4.3-19.6-17.1-60.2-18-74.2c-0.8-13.2,3-47.1,9.8-57"/>
			<path style="fill:none;stroke:#808080;stroke-width:0.8324;stroke-miterlimit:10;" d="M375,351.4c0.2-0.3,0.4-0.5,0.7-0.7
				c-0.3-0.1-0.6-0.2-0.9-0.3"/>
			<path style="fill:none;stroke:#808080;stroke-width:0.8324;stroke-miterlimit:10;stroke-dasharray:1.7649,1.7649;" d="
				M373.1,349.7c-4.3-1.6-8.2-3.2-12.2-5.2"/>
		</g>
	</g>
	<g>
		<g>
			
				<line style="fill:none;stroke:#808080;stroke-width:0.8324;stroke-miterlimit:10;" x1="259.7" y1="402.3" x2="259.2" y2="403.2"/>
			
				<line style="fill:none;stroke:#808080;stroke-width:0.8324;stroke-miterlimit:10;stroke-dasharray:1.9415,1.9415;" x1="258.4" y1="405" x2="252" y2="418.1"/>
			
				<line style="fill:none;stroke:#808080;stroke-width:0.8324;stroke-miterlimit:10;" x1="251.6" y1="418.9" x2="251.2" y2="419.8"/>
		</g>
	</g>
	<g>
		<g>
			<path style="fill:none;stroke:#808080;stroke-width:0.8324;stroke-miterlimit:10;" d="M306.7,319.6c0.2,0.3,0.4,0.5,0.6,0.8"/>
			<path style="fill:none;stroke:#808080;stroke-width:0.8324;stroke-miterlimit:10;stroke-dasharray:1.9777,1.9777;" d="
				M308.6,321.9c17.8,20.8,48.9,45.3,78,44.1c6.9-0.3,10.7-2.1,12.6-3.9"/>
			<path style="fill:none;stroke:#808080;stroke-width:0.8324;stroke-miterlimit:10;" d="M399.9,361.3c0.2-0.3,0.4-0.6,0.5-0.8"/>
		</g>
	</g>
	<g>
		<path style="fill:none;stroke:#808080;stroke-width:0.8324;stroke-miterlimit:10;stroke-dasharray:2.022,2.022;" d="M364.7,353.3
			c0,2.1-1.7,3.9-3.9,3.9c-2.1,0-3.9-1.7-3.9-3.9c0-2.1,1.7-3.9,3.9-3.9C363,349.5,364.7,351.2,364.7,353.3z"/>
	</g>
	<g>
		<path style="fill:none;stroke:#808080;stroke-width:0.8324;stroke-miterlimit:10;stroke-dasharray:1.9929,1.9929;" d="
			M359.3,375.9c0,2.1-1.7,3.8-3.8,3.8s-3.8-1.7-3.8-3.8c0-2.1,1.7-3.8,3.8-3.8S359.3,373.7,359.3,375.9z"/>
	</g>
	<g>
		<path style="fill:none;stroke:#808080;stroke-width:0.8324;stroke-miterlimit:10;stroke-dasharray:1.9122,1.9122;" d="M358,404.5
			c0,2.7-2.2,4.9-4.9,4.9c-2.7,0-4.9-2.2-4.9-4.9s2.2-4.9,4.9-4.9C355.8,399.7,358,401.8,358,404.5z"/>
	</g>
	<g>
		
			<circle style="fill:none;stroke:#808080;stroke-width:0.8324;stroke-miterlimit:10;stroke-dasharray:2.1251,2.1251;" cx="355.5" cy="428.4" r="4.7"/>
	</g>
	<g>
		<path style="fill:none;stroke:#808080;stroke-width:0.8324;stroke-miterlimit:10;stroke-dasharray:1.9023,1.9023;" d="
			M365.7,452.2c0,2.7-2.2,4.9-4.9,4.9c-2.7,0-4.9-2.2-4.9-4.9c0-2.7,2.2-4.9,4.9-4.9C363.5,447.4,365.7,449.5,365.7,452.2z"/>
	</g>
	<g>
		<path style="fill:none;stroke:#808080;stroke-width:0.8324;stroke-miterlimit:10;stroke-dasharray:2.0382,2.0382;" d="
			M370.3,478.2c0,2.9-2.3,5.2-5.2,5.2c-2.9,0-5.2-2.3-5.2-5.2c0-2.9,2.3-5.2,5.2-5.2C368,473,370.3,475.3,370.3,478.2z"/>
	</g>
	<g>
		
			<circle style="fill:none;stroke:#808080;stroke-width:0.8324;stroke-miterlimit:10;stroke-dasharray:1.9972,1.9972;" cx="365.9" cy="509.3" r="6.4"/>
	</g>
	<g>
		<g>
			<path style="fill:none;stroke:#808080;stroke-width:1.5;stroke-linejoin:round;" d="M402.5,355.7c0,0-0.3,0.1-0.9,0.3"/>
			<path style="fill:none;stroke:#808080;stroke-width:1.5;stroke-linejoin:round;stroke-dasharray:1.9945,1.9945;" d="M399.7,356.7
				c-10,3.5-43.4,15.6-43.9,19.4c-0.6,4.5,36.1,28.1,35.4,31.9c-0.7,3.8-35.7,15-36.2,20.3c-0.6,6.6,39.5,18.1,42.2,28.7
				c1.2,3-34,16.3-32.7,21.1c1.3,4.8,62.2,24.3,57.4,28.7c-4.4,4-45,7.8-53.6,4.5"/>
			<path style="fill:none;stroke:#808080;stroke-width:1.5;stroke-linejoin:round;" d="M367.4,511c-0.3-0.2-0.5-0.5-0.6-0.7
				c0.2-0.3,0.4-0.5,0.6-0.8"/>
			<path style="fill:none;stroke:#808080;stroke-width:1.5;stroke-linejoin:round;stroke-dasharray:1.9959,1.9959;" d="M368.8,508
				c11.5-10.8,43.5-22.4,41-26.1c-5-6.3-48.9-24.4-48.9-29.3c0-4.6,28.3-16.1,28.1-21.2c-0.3-10.9-35.2-22-35.2-26.9
				c0-4.9,39.1-19.7,41.2-24.9c1.8-4.5-25.2-21-32.4-25.3"/>
			<path style="fill:none;stroke:#808080;stroke-width:1.5;stroke-linejoin:round;" d="M361.7,353.8c-0.6-0.3-0.9-0.5-0.9-0.5l1,0.3
				"/>
			<path style="fill:none;stroke:#808080;stroke-width:1.5;stroke-linejoin:round;stroke-dasharray:1.9719,1.9719;" d="M363.7,354.3
				l22,7.1c0,0,2.8,4.1,10.1,11.9c7.3,7.8,6.9,37.3-2.1,37.2c-8-0.1-0.9-27.3,1.4-35.1"/>
			<path style="fill:none;stroke:#808080;stroke-width:1.5;stroke-linejoin:round;" d="M395.4,374.4c0.1-0.4,0.2-0.8,0.3-0.9"/>
		</g>
	</g>
	<g>
		<g>
			<path style="fill:none;stroke:#808080;stroke-width:1.5;stroke-linejoin:round;" d="M376.9,365.7c-0.2-0.3-0.4-0.6-0.7-0.7
				c-0.3,0.1-0.6,0.3-0.9,0.4"/>
			<path style="fill:none;stroke:#808080;stroke-width:1.5;stroke-linejoin:round;stroke-dasharray:1.9955,1.9955;" d="M373.7,366.5
				c-6.1,4.9-12.7,17.7-15.7,24.3c-3.8,8.5-4.1,24.2,2.3,24.7c9.8,0.7,20-39.8,17.1-48.9"/>
		</g>
	</g>
</g>
<g>
	<g>
		<path style="fill:none;stroke:#808080;stroke-width:0.8324;stroke-miterlimit:10;stroke-dasharray:2.0106,2.0106;" d="
			M320.5,1247.2c-13.9,2.3-5.3,19.3,19.8,36.8c18.1,12.6,36.4,21.4,50.6,21.4c11.9,0,15.7-3.8,14.9-8.7
			C403.6,1283.5,347,1242.7,320.5,1247.2z"/>
	</g>
	<g>
		<g>
			<path style="fill:none;stroke:#808080;stroke-width:0.8324;stroke-miterlimit:10;" d="M314.3,1251c-0.2,0.2-0.4,0.5-0.6,0.8"/>
			<path style="fill:none;stroke:#808080;stroke-width:0.8324;stroke-miterlimit:10;stroke-dasharray:1.9103,1.9103;" d="
				M312.7,1253.5c-2.8,4.5-7.2,12.9-7.5,14.9c-0.1,0.5,0,0.9,0.2,1.3"/>
			<path style="fill:none;stroke:#808080;stroke-width:0.8324;stroke-miterlimit:10;" d="M305.8,1270.6c0.3,0.5,0.6,0.8,0.6,0.8
				c-0.2,0.2-0.5,0.4-0.8,0.6"/>
			<path style="fill:none;stroke:#808080;stroke-width:0.8324;stroke-miterlimit:10;stroke-dasharray:2.0056,2.0056;" d="
				M304.3,1273.5c-6,7.1-18,27.9-26.2,42.8c-7.6,13.8-14,28.2-16.2,33.3"/>
			<path style="fill:none;stroke:#808080;stroke-width:0.8324;stroke-miterlimit:10;" d="M261.5,1350.5c-0.3,0.6-0.4,0.9-0.4,0.9"/>
		</g>
	</g>
	<g>
		<path style="fill:none;stroke:#808080;stroke-width:0.8324;stroke-miterlimit:10;stroke-dasharray:2.0044,2.0044;" d="
			M274.6,1344.9c-15.3,2.4-16.3,10.9-15.1,15.9c4.6,19.1,27,41.9,33.5,61.8c6.5,19.9,21.9,38.7,38.5,55.7
			c20,20.4,77.5,56.8,106.8,53.1c25.2-3.2,13-21.1,8-26.7c-10.2-11.5-38.4-44.2-45.9-54c-8.5-11.1-38.3-35.3-47.6-48.9
			c-7.8-11.3-22.8-29.9-32.7-40.4C311.5,1352.6,289.7,1342.6,274.6,1344.9z"/>
	</g>
	<g>
		<path style="fill:none;stroke:#808080;stroke-width:0.8324;stroke-miterlimit:10;stroke-dasharray:2.0029,2.0029;" d="
			M269.5,1364.5c-16.6,0-20.4,7.7-20.4,16.6s19.8,36.2,25.5,48.5c5.9,12.7,12,37.1,23.8,54c17.9,25.5,89.7,75.9,134.7,69.3
			c34.9-5.1-3.8-40-11.1-47.2c-7.2-7.2-54.4-47.6-64.2-60.8c-9.8-13.2-38.7-48.9-42.5-53.6C311.5,1386.6,288.2,1364.5,269.5,1364.5z
			"/>
	</g>
	<g>
		<g>
			<path style="fill:none;stroke:#808080;stroke-width:0.8324;stroke-miterlimit:10;" d="M450.7,1529.4c0.2-0.2,0.4-0.5,0.7-0.7
				l-0.3,1"/>
			<path style="fill:none;stroke:#808080;stroke-width:0.8324;stroke-miterlimit:10;stroke-dasharray:1.9924,1.9924;" d="
				M450.5,1531.5l-3.1,11c-0.8,3.1-10.1,7.3-22.8,7.3c-36.1,0-85.6-32.9-103.2-48.6c-2.1-1.9,2.5-24.8,6.8-20.1
				c12.8,14.1,68.6,53,104.7,53.4c10.9,0.1,14.5-1.8,17.1-4.5"/>
		</g>
	</g>
	<g>
		<g>
			<path style="fill:none;stroke:#808080;stroke-width:0.8324;stroke-miterlimit:10;" d="M364.7,1500.2c-0.3-0.2-0.6-0.4-0.9-0.5
				c0.3-0.2,0.6-0.3,0.9-0.5"/>
			<path style="fill:none;stroke:#808080;stroke-width:0.8324;stroke-miterlimit:10;stroke-dasharray:1.9986,1.9986;" d="
				M366.5,1498.2c14.4-7.5,31.3-11.3,44.6-10.9c14,0.4,23,5.5,25.9,8.1c3,2.6,15.2,17.9,14.9,21.7c-0.4,5.1-2.6,10.5-14.9,11.5
				c-20,1.6-56.8-19.1-71.4-27.9"/>
		</g>
	</g>
	<g>
		<g>
			
				<line style="fill:none;stroke:#808080;stroke-width:0.8324;stroke-miterlimit:10;" x1="404.1" y1="1302.2" x2="403.8" y2="1303.1"/>
			<path style="fill:none;stroke:#808080;stroke-width:0.8324;stroke-miterlimit:10;stroke-dasharray:2.0071,2.0071;" d="
				M403.1,1305l-10.1,28.2c0,0-6.3,41.7-5,51.9c1.4,10.2,30,69.8,40,87.3c2.2,3.9,2.8,9.8,3,12.9"/>
			<path style="fill:none;stroke:#808080;stroke-width:0.8324;stroke-miterlimit:10;" d="M431,1486.3c0,0.6,0,1,0,1l-0.6-0.8"/>
			<path style="fill:none;stroke:#808080;stroke-width:0.8324;stroke-miterlimit:10;stroke-dasharray:1.989,1.989;" d="M429.1,1485
				l-28.1-33.2c-9.6-15.5-20-57.3-22.2-74.4c-2.6-19.5,6-57.8,13.5-70.4"/>
			<path style="fill:none;stroke:#808080;stroke-width:0.8324;stroke-miterlimit:10;" d="M392.8,1306.2c0.2-0.3,0.4-0.6,0.6-0.8"/>
		</g>
	</g>
	<g>
		<g>
			<path style="fill:none;stroke:#808080;stroke-width:0.8324;stroke-miterlimit:10;" d="M360.2,1296.1c-0.3-0.2-0.6-0.3-0.9-0.5
				l-0.8,0.5"/>
			
				<line style="fill:none;stroke:#808080;stroke-width:0.8324;stroke-miterlimit:10;stroke-dasharray:2.2397,2.2397;" x1="356.5" y1="1297.3" x2="346.1" y2="1303.8"/>
			<path style="fill:none;stroke:#808080;stroke-width:0.8324;stroke-miterlimit:10;" d="M345.1,1304.4l-0.8,0.5
				c0,0,0.2,0.3,0.5,0.8"/>
			<path style="fill:none;stroke:#808080;stroke-width:0.8324;stroke-miterlimit:10;stroke-dasharray:1.9855,1.9855;" d="
				M345.8,1307.5c1.1,2.1,2.3,5.3,2.3,8.5c0,5.5-5.4,25.2-6.7,32.6c-3.3,18.3,4.3,40.9,6.9,50.2c2.6,9.4,5.4,46.8,5.4,54.9
				c0,7.5-1.8,12.8-6.9,19.7"/>
			<path style="fill:none;stroke:#808080;stroke-width:0.8324;stroke-miterlimit:10;" d="M346.2,1474.2c-0.2,0.3-0.4,0.5-0.6,0.8
				l0.9,0.5"/>
			
				<line style="fill:none;stroke:#808080;stroke-width:0.8324;stroke-miterlimit:10;stroke-dasharray:2.1138,2.1138;" x1="348.3" y1="1476.5" x2="369.7" y2="1488"/>
			<path style="fill:none;stroke:#808080;stroke-width:0.8324;stroke-miterlimit:10;" d="M370.6,1488.5l0.9,0.5
				c0.3-0.2,0.5-0.4,0.7-0.7"/>
			<path style="fill:none;stroke:#808080;stroke-width:0.8324;stroke-miterlimit:10;stroke-dasharray:2.0172,2.0172;" d="
				M373.6,1486.9c9.4-10.6,12.9-33.2,8.9-51.5c-4.3-19.6-17.1-60.2-18-74.2c-0.8-13.2,3-47.1,9.8-57"/>
			<path style="fill:none;stroke:#808080;stroke-width:0.8324;stroke-miterlimit:10;" d="M375,1303.4c0.2-0.3,0.4-0.5,0.7-0.7
				c-0.3-0.1-0.6-0.2-0.9-0.3"/>
			<path style="fill:none;stroke:#808080;stroke-width:0.8324;stroke-miterlimit:10;stroke-dasharray:1.7649,1.7649;" d="
				M373.1,1301.7c-4.3-1.6-8.2-3.2-12.2-5.2"/>
		</g>
	</g>
	<g>
		<g>
			
				<line style="fill:none;stroke:#808080;stroke-width:0.8324;stroke-miterlimit:10;" x1="259.7" y1="1354.3" x2="259.2" y2="1355.2"/>
			
				<line style="fill:none;stroke:#808080;stroke-width:0.8324;stroke-miterlimit:10;stroke-dasharray:1.9415,1.9415;" x1="258.4" y1="1357" x2="252" y2="1370.1"/>
			
				<line style="fill:none;stroke:#808080;stroke-width:0.8324;stroke-miterlimit:10;" x1="251.6" y1="1370.9" x2="251.2" y2="1371.8"/>
		</g>
	</g>
	<g>
		<g>
			<path style="fill:none;stroke:#808080;stroke-width:0.8324;stroke-miterlimit:10;" d="M306.7,1271.6c0.2,0.3,0.4,0.5,0.6,0.8"/>
			<path style="fill:none;stroke:#808080;stroke-width:0.8324;stroke-miterlimit:10;stroke-dasharray:1.9777,1.9777;" d="
				M308.6,1273.9c17.8,20.8,48.9,45.3,78,44.1c6.9-0.3,10.7-2.1,12.6-3.9"/>
			<path style="fill:none;stroke:#808080;stroke-width:0.8324;stroke-miterlimit:10;" d="M399.9,1313.3c0.2-0.3,0.4-0.6,0.5-0.8"/>
		</g>
	</g>
	<g>
		<path style="fill:none;stroke:#808080;stroke-width:0.8324;stroke-miterlimit:10;stroke-dasharray:2.022,2.022;" d="M364.7,1305.3
			c0,2.1-1.7,3.9-3.9,3.9c-2.1,0-3.9-1.7-3.9-3.9c0-2.1,1.7-3.9,3.9-3.9C363,1301.5,364.7,1303.2,364.7,1305.3z"/>
	</g>
	<g>
		<path style="fill:none;stroke:#808080;stroke-width:0.8324;stroke-miterlimit:10;stroke-dasharray:1.9929,1.9929;" d="
			M359.3,1327.9c0,2.1-1.7,3.8-3.8,3.8s-3.8-1.7-3.8-3.8s1.7-3.8,3.8-3.8S359.3,1325.7,359.3,1327.9z"/>
	</g>
	<g>
		<path style="fill:none;stroke:#808080;stroke-width:0.8324;stroke-miterlimit:10;stroke-dasharray:1.9122,1.9122;" d="M358,1356.5
			c0,2.7-2.2,4.9-4.9,4.9c-2.7,0-4.9-2.2-4.9-4.9c0-2.7,2.2-4.9,4.9-4.9C355.8,1351.7,358,1353.8,358,1356.5z"/>
	</g>
	<g>
		
			<circle style="fill:none;stroke:#808080;stroke-width:0.8324;stroke-miterlimit:10;stroke-dasharray:2.1251,2.1251;" cx="355.5" cy="1380.4" r="4.7"/>
	</g>
	<g>
		<path style="fill:none;stroke:#808080;stroke-width:0.8324;stroke-miterlimit:10;stroke-dasharray:1.9023,1.9023;" d="
			M365.7,1404.2c0,2.7-2.2,4.9-4.9,4.9c-2.7,0-4.9-2.2-4.9-4.9c0-2.7,2.2-4.9,4.9-4.9C363.5,1399.4,365.7,1401.5,365.7,1404.2z"/>
	</g>
	<g>
		<path style="fill:none;stroke:#808080;stroke-width:0.8324;stroke-miterlimit:10;stroke-dasharray:2.0382,2.0382;" d="
			M370.3,1430.2c0,2.9-2.3,5.2-5.2,5.2c-2.9,0-5.2-2.3-5.2-5.2s2.3-5.2,5.2-5.2C368,1425,370.3,1427.3,370.3,1430.2z"/>
	</g>
	<g>
		
			<circle style="fill:none;stroke:#808080;stroke-width:0.8324;stroke-miterlimit:10;stroke-dasharray:1.9972,1.9972;" cx="365.9" cy="1461.3" r="6.4"/>
	</g>
	<g>
		<g>
			<path style="fill:none;stroke:#808080;stroke-width:1.5;stroke-linejoin:round;" d="M402.5,1307.7c0,0-0.3,0.1-0.9,0.3"/>
			<path style="fill:none;stroke:#808080;stroke-width:1.5;stroke-linejoin:round;stroke-dasharray:1.9945,1.9945;" d="
				M399.7,1308.7c-10,3.5-43.4,15.6-43.9,19.4c-0.6,4.5,36.1,28.1,35.4,31.9c-0.7,3.8-35.7,15-36.2,20.3
				c-0.6,6.6,39.5,18.1,42.2,28.7c1.2,3-34,16.3-32.7,21.1c1.3,4.8,62.2,24.3,57.4,28.7c-4.4,4-45,7.8-53.6,4.5"/>
			<path style="fill:none;stroke:#808080;stroke-width:1.5;stroke-linejoin:round;" d="M367.4,1463c-0.3-0.2-0.5-0.5-0.6-0.7
				c0.2-0.3,0.4-0.5,0.6-0.8"/>
			<path style="fill:none;stroke:#808080;stroke-width:1.5;stroke-linejoin:round;stroke-dasharray:1.9959,1.9959;" d="M368.8,1460
				c11.5-10.8,43.5-22.4,41-26.1c-5-6.3-48.9-24.4-48.9-29.3c0-4.6,28.3-16.1,28.1-21.2c-0.3-10.9-35.2-22-35.2-26.9
				c0-4.9,39.1-19.7,41.2-24.9c1.8-4.5-25.2-21-32.4-25.3"/>
			<path style="fill:none;stroke:#808080;stroke-width:1.5;stroke-linejoin:round;" d="M361.7,1305.8c-0.6-0.3-0.9-0.5-0.9-0.5
				l1,0.3"/>
			<path style="fill:none;stroke:#808080;stroke-width:1.5;stroke-linejoin:round;stroke-dasharray:1.9719,1.9719;" d="
				M363.7,1306.3l22,7.1c0,0,2.8,4.1,10.1,11.9c7.3,7.8,6.9,37.3-2.1,37.2c-8-0.1-0.9-27.3,1.4-35.1"/>
			<path style="fill:none;stroke:#808080;stroke-width:1.5;stroke-linejoin:round;" d="M395.4,1326.4c0.1-0.4,0.2-0.8,0.3-0.9"/>
		</g>
	</g>
	<g>
		<g>
			<path style="fill:none;stroke:#808080;stroke-width:1.5;stroke-linejoin:round;" d="M376.9,1317.7c-0.2-0.3-0.4-0.6-0.7-0.7
				c-0.3,0.1-0.6,0.3-0.9,0.4"/>
			<path style="fill:none;stroke:#808080;stroke-width:1.5;stroke-linejoin:round;stroke-dasharray:1.9955,1.9955;" d="
				M373.7,1318.5c-6.1,4.9-12.7,17.7-15.7,24.3c-3.8,8.5-4.1,24.2,2.3,24.7c9.8,0.7,20-39.8,17.1-48.9"/>
		</g>
	</g>
</g>
<g>
	<g>
		
			<text transform="matrix(1 0 0 1 305.6787 1549.6688)" style="fill:#FFFFFF; font-family:'SFUIDisplay-Medium'; font-size:14.5976px;">shoestore.com</text>
	</g>
	<g>
		<g>
			<rect x="166.5" y="1447.2" style="fill:none;" width="368" height="71"/>
			<text transform="matrix(1 0 0 1 255.0669 1456.3778)"><tspan x="0" y="0" style="fill:#FFFFFF; font-family:'Titillium Web', sans-serif; font-weight:100;  font-size:12.6642px;">Check out my super cool new shoes.</tspan><tspan x="25.6" y="15.2" style="fill:#FFFFFF; font-family:'Titillium Web', sans-serif; font-weight:100;  font-size:12.6642px;">Check them out in 3D here</tspan><tspan x="46" y="49" style="fill:#FFFFFF; font-family:'Titillium Web', sans-serif; font-weight:100;  font-size:15.5286px;">Buy them here:</tspan></text>
		</g>
		<g>
			
				<text transform="matrix(1 0 0 1 318.189 1527.3246)" style="fill:#FFFFFF; font-family:'Titillium Web', sans-serif; font-weight:100;  font-size:14.5976px;">shoe store</text>
		</g>
		<g>
			
				<text transform="matrix(1 0 0 1 303.9346 1572.0135)" style="fill:#FFFFFF; font-family:'Titillium Web', sans-serif; font-weight:100;  font-size:14.5976px;">sportstore.com</text>
		</g>
	</g>
</g>
<g>
	
		<text transform="matrix(1 -3.380000e-03 3.380000e-03 1 256.7118 3534.8557)" style="fill:#FDED22; font-family:'Eurostile LT', sans-serif; font-weight:600; font-size:43.9186px;">overview</text>
</g>
</svg>
