<svg xmlns="http://www.w3.org/2000/svg" xmlns:xlink="http://www.w3.org/1999/xlink" id="Layer_1" x="0px" y="0px" style="enable-background:new 0 0 244.5 100" version="1.1" viewBox="0 0 244.5 100" xml:space="preserve">
    <polygon points="71.9,20.9 71.9,79.1 122.3,108.1 172.6,79.1 172.6,20.9 
	122.3,-8.1 " class="stix" style="fill:none;stroke:#FDED22;stroke-miterlimit:10"/>
    <polygon points="58.2,13 58.2,87 122.3,123.9 186.3,87 186.3,13 
	122.3,-23.9 " class="stix" style="fill:none;stroke:#FDED22;stroke-miterlimit:10"/>
    <polygon points="44.5,5.1 44.5,94.9 122.3,139.7 200,94.9 200,5.1 
	122.3,-39.7 " class="stix" style="fill:none;stroke:#FDED22;stroke-miterlimit:10"/>
    <polygon points="30.8,-2.8 30.8,102.8 122.3,155.5 213.7,102.8 213.7,-2.8 
	122.3,-55.5 " class="stix" style="fill:none;stroke:#FDED22;stroke-miterlimit:10"/>
    <polygon points="17.2,-10.7 17.2,110.7 122.3,171.4 227.3,110.7 
	227.3,-10.7 122.3,-71.4 " class="stix" style="fill:none;stroke:#FDED22;stroke-miterlimit:10"/>
    <polygon points="3.5,-18.6 3.5,118.6 122.3,187.2 241,118.6 241,-18.6 
	122.3,-87.2 " class="stix" style="fill:none;stroke:#FDED22;stroke-miterlimit:10"/>
    <polygon points="84.7,28.3 84.7,71.7 122.3,93.4 159.8,71.7 159.8,28.3 122.3,6.6 " style="fill:#FDED22"/>
</svg>
