<?xml version="1.0" encoding="utf-8"?>
<!-- Generator: Adobe Illustrator 22.0.1, SVG Export Plug-In . SVG Version: 6.00 Build 0)  -->
<svg version="1.1" id="Layer_1" xmlns="http://www.w3.org/2000/svg" xmlns:xlink="http://www.w3.org/1999/xlink" x="0px" y="0px"
	 viewBox="0 0 100 100" style="enable-background:new 0 0 100 100;" xml:space="preserve">
<g>
	<polygon style="fill:#FDED22;" points="7.2,25.2 7.2,75.1 50.5,100.1 93.8,75.1 93.8,25.2 50.5,0.2 	"/>
</g>
<g>
	<g>
		<path d="M58.5,72.8c-0.7,0-1.4-0.5-1.6-1.2c-0.3-0.9,0.2-1.8,1.1-2c11.4-3.4,19.4-14.1,19.4-26c0-14.9-12.2-27.1-27.1-27.1
			S23.2,28.7,23.2,43.6c0,11.9,8,22.6,19.4,26c0.9,0.3,1.4,1.2,1.1,2c-0.3,0.9-1.2,1.4-2,1.1c-12.8-3.8-21.8-15.8-21.8-29.1
			c0-16.8,13.6-30.4,30.4-30.4s30.4,13.6,30.4,30.4c0,13.4-9,25.4-21.8,29.1C58.8,72.7,58.6,72.8,58.5,72.8z"/>
	</g>
	<path d="M76.3,63.2c-0.9-0.2-1.8,0.4-1.9,1.3c-0.2,0.9,0.4,1.8,1.3,1.9l3.9,0.8L60.8,78.5l-9.4-8.1c-0.5-0.5-1.3-0.5-1.9-0.2
		l-16,9.1c-0.8,0.4-1.1,1.5-0.6,2.2c0.3,0.5,0.9,0.8,1.4,0.8c0.3,0,0.6-0.1,0.8-0.2l15-8.6l9.5,8.1c0.5,0.5,1.3,0.5,1.9,0.2l19.7-12
		L80,74.3c-0.2,0.9,0.3,1.8,1.2,2c0.1,0,0.3,0.1,0.4,0.1c0.7,0,1.4-0.5,1.6-1.2L86,65.1L76.3,63.2z"/>
</g>
<g>
	<path d="M48.7,29.5c0-0.5,0.2-0.9,0.5-1.2c0.3-0.3,0.7-0.5,1.2-0.5c0.5,0,0.9,0.2,1.2,0.5c0.3,0.3,0.5,0.7,0.5,1.2v0.9
		c2.2,0.3,4.2,1,6,2.1c0.8,0.4,1.2,1.1,1.2,1.9c0,0.6-0.2,1.1-0.6,1.5c-0.4,0.4-0.9,0.6-1.5,0.6c-0.4,0-0.8-0.1-1.2-0.4
		c-1.4-0.9-2.7-1.4-4-1.7v7.5c3,0.8,5.1,1.8,6.5,3c1.3,1.3,2,2.9,2,5c0,2.1-0.8,3.8-2.3,5.2s-3.5,2.2-6,2.4v2.3
		c0,0.5-0.2,0.9-0.5,1.2c-0.3,0.3-0.7,0.5-1.2,0.5c-0.5,0-0.9-0.2-1.2-0.5c-0.3-0.3-0.5-0.7-0.5-1.2v-2.4c-2.9-0.3-5.5-1.3-8-3
		c-0.7-0.4-1.1-1.1-1.1-1.9c0-0.6,0.2-1.1,0.6-1.5c0.4-0.4,0.9-0.6,1.5-0.6c0.5,0,0.9,0.1,1.3,0.4c1.9,1.4,3.8,2.3,5.8,2.6v-7.7
		c-2.9-0.8-5-1.7-6.4-3c-1.3-1.2-2-2.9-2-5.1c0-2.1,0.8-3.8,2.3-5.1c1.5-1.3,3.5-2.1,5.9-2.3V29.5z M45.1,37.5
		c0,0.9,0.3,1.6,0.8,2.1c0.5,0.5,1.5,1.1,3,1.5v-6.9c-1.2,0.1-2.2,0.5-2.8,1.1C45.4,35.8,45.1,36.6,45.1,37.5z M55.8,50.2
		c0-0.9-0.3-1.6-0.8-2.2c-0.6-0.6-1.6-1.1-3-1.5v7.1c1.2-0.1,2.2-0.5,2.9-1.1C55.4,51.9,55.8,51.2,55.8,50.2z"/>
</g>
</svg>
